<svg width="16" height="16" viewBox="0 0 16 16" fill="none" xmlns="http://www.w3.org/2000/svg">
<g clip-path="url(#clip0_634_230)">
<path d="M4.05714 1.99609C6.25143 2.12887 6.91429 2.67659 6.04571 3.63925H8.44571V4.43593H2.20571V3.63925H4.81143C4.67429 3.57286 4.53714 3.35709 4.4 2.99194C4.30857 2.5936 4.14857 2.32804 3.92 2.19526L4.05714 1.99609ZM6.11429 4.73468H7.76C7.44 5.79692 6.86857 6.6102 6.04571 7.17452H8.44571V8.07078H2V7.17452H5.56571C5.93143 6.24506 6.11429 5.43178 6.11429 4.73468ZM3.23429 4.73468C4.42286 5.19941 5.01714 5.73053 5.01714 6.32804C4.97143 6.72638 4.72 6.95875 4.26286 7.02514C3.80571 7.05833 3.55429 6.87576 3.50857 6.47742C3.50857 5.87991 3.34857 5.33219 3.02857 4.83427L3.23429 4.73468ZM6.52571 8.51892L8.37714 8.86746L7.89714 9.36539V13.548H6.04571V13.0998H4.60571V13.548H2.68571V8.66829H4.60571V9.11643H5.97714L6.52571 8.51892ZM4.60571 9.9629V12.3529H6.04571V9.9629H4.60571ZM8.92571 2.19526H10.7086V2.69319H11.6686L12.2171 2.19526L14 2.54381L13.52 2.94215C13.0629 4.56871 12.56 5.87991 12.0114 6.87576C13.1543 7.2741 13.7486 7.87161 13.7943 8.66829V11.3571C13.9314 12.2202 13.2686 12.6683 11.8057 12.7015C11.44 12.7679 11.2571 12.6849 11.2571 12.4525C11.3029 12.2202 11.1429 11.9878 10.7771 11.7554V13.9961H8.92571V2.19526ZM11.7371 3.53966H10.7771V11.6061C11.7371 11.7388 12.1486 11.6227 12.0114 11.2575V8.41933C12.0571 7.92141 11.7829 7.50647 11.1886 7.17452C11.2343 7.00854 11.28 6.70979 11.3257 6.27825C11.5543 5.18282 11.6914 4.26995 11.7371 3.53966Z" fill="#0076FF"/>
<path d="M4.05714 1.99609C6.25143 2.12887 6.91429 2.67659 6.04571 3.63925H8.44571V4.43593H2.20571V3.63925H4.81143C4.67429 3.57286 4.53714 3.35709 4.4 2.99194C4.30857 2.5936 4.14857 2.32804 3.92 2.19526L4.05714 1.99609ZM6.11429 4.73468H7.76C7.44 5.79692 6.86857 6.6102 6.04571 7.17452H8.44571V8.07078H2V7.17452H5.56571C5.93143 6.24506 6.11429 5.43178 6.11429 4.73468ZM3.23429 4.73468C4.42286 5.19941 5.01714 5.73053 5.01714 6.32804C4.97143 6.72638 4.72 6.95875 4.26286 7.02514C3.80571 7.05833 3.55429 6.87576 3.50857 6.47742C3.50857 5.87991 3.34857 5.33219 3.02857 4.83427L3.23429 4.73468ZM6.52571 8.51892L8.37714 8.86746L7.89714 9.36539V13.548H6.04571V13.0998H4.60571V13.548H2.68571V8.66829H4.60571V9.11643H5.97714L6.52571 8.51892ZM4.60571 9.9629V12.3529H6.04571V9.9629H4.60571ZM8.92571 2.19526H10.7086V2.69319H11.6686L12.2171 2.19526L14 2.54381L13.52 2.94215C13.0629 4.56871 12.56 5.87991 12.0114 6.87576C13.1543 7.2741 13.7486 7.87161 13.7943 8.66829V11.3571C13.9314 12.2202 13.2686 12.6683 11.8057 12.7015C11.44 12.7679 11.2571 12.6849 11.2571 12.4525C11.3029 12.2202 11.1429 11.9878 10.7771 11.7554V13.9961H8.92571V2.19526ZM11.7371 3.53966H10.7771V11.6061C11.7371 11.7388 12.1486 11.6227 12.0114 11.2575V8.41933C12.0571 7.92141 11.7829 7.50647 11.1886 7.17452C11.2343 7.00854 11.28 6.70979 11.3257 6.27825C11.5543 5.18282 11.6914 4.26995 11.7371 3.53966Z" fill="url(#paint0_linear_634_230)"/>
</g>
<defs>
<linearGradient id="paint0_linear_634_230" x1="2" y1="1.99609" x2="14" y2="13.9961" gradientUnits="userSpaceOnUse">
<stop stop-color="#2BA5F5"/>
<stop offset="1" stop-color="#1C2FEE"/>
</linearGradient>
<clipPath id="clip0_634_230">
<rect width="12" height="12" fill="white" transform="translate(2 2)"/>
</clipPath>
</defs>
</svg>
