<svg width="16" height="16" viewBox="0 0 16 16" fill="none" xmlns="http://www.w3.org/2000/svg">
<path d="M10.8235 2L13.2235 2.36522L12.5176 2.93913C11.5294 4.01739 10.3294 4.85217 8.91765 5.44348H9.41177V6.95652H14V7.89565H9.41177V12.8522C9.64706 13.5478 8.77647 13.9304 6.8 14C6.61176 14 6.49412 13.9304 6.44706 13.7913C6.44706 13.2696 5.90588 12.9391 4.82353 12.8V12.6957C6.70588 12.7652 7.55294 12.6435 7.36471 12.3304V7.89565H2V6.95652H7.36471V5.44348H7.71765C8.04706 5.13043 8.56471 4.57391 9.27059 3.77391C9.36471 3.66957 9.43529 3.6 9.48235 3.56522H2.98824V2.57391H10.1882L10.8235 2Z" fill="url(#paint0_linear_634_231)"/>
<defs>
<linearGradient id="paint0_linear_634_231" x1="2" y1="2" x2="14" y2="14" gradientUnits="userSpaceOnUse">
<stop stop-color="#A56EFF"/>
<stop offset="1" stop-color="#1111E8"/>
</linearGradient>
</defs>
</svg>
