<svg width="16" height="16" viewBox="0 0 16 16" fill="none" xmlns="http://www.w3.org/2000/svg">
<path d="M8.13483 5.88382H11.7079V6.78008H8.13483V5.88382ZM9.21348 7.22822C10.6517 8.15768 11.2809 9.00415 11.1011 9.76763C11.0562 10.0996 10.8764 10.3154 10.5618 10.4149C10.2022 10.4813 9.93258 10.3817 9.75281 10.1162C9.66292 9.9834 9.61798 9.71784 9.61798 9.3195C9.52809 8.52282 9.34831 7.84232 9.07865 7.27801L9.21348 7.22822ZM11.7753 7.72614H13.5281C13.2584 10.0166 12.4494 11.6929 11.1011 12.7552H13.8652V13.6515H6.58427V12.7552H10.4944C11.3034 10.9627 11.7303 9.28631 11.7753 7.72614ZM7.79775 7.9751C8.8764 9.00415 9.4382 9.93361 9.48315 10.7635C9.48315 11.2614 9.2809 11.5768 8.8764 11.7095C8.33708 11.7427 8.02247 11.5436 7.93258 11.112C7.93258 11.0788 7.93258 11.0456 7.93258 11.0124C7.97753 9.85062 7.86517 8.85477 7.59551 8.0249L7.79775 7.9751ZM8.40449 2H10.5618C10.4719 2.13278 10.427 2.31535 10.427 2.54772C11.3258 3.64315 12.4719 4.45643 13.8652 4.98755C13.9551 5.02075 14 5.03734 14 5.03734C14 5.07054 13.9551 5.10373 13.8652 5.13693C13.4157 5.3361 13.3034 5.75104 13.5281 6.38174C13.573 6.51452 13.573 6.58091 13.5281 6.58091C13.4831 6.61411 13.3933 6.59751 13.2584 6.53112C11.6854 5.80083 10.6292 4.70539 10.0899 3.24481C9.46067 4.57261 8.29213 5.70124 6.58427 6.63071C7.07865 7.02905 7.34831 7.44398 7.39326 7.87552C7.39326 8.24066 7.23595 8.48963 6.92135 8.62241C6.51685 8.72199 6.24719 8.62241 6.11236 8.32365C6.06742 8.22407 6.04494 8.0249 6.04494 7.72614C5.95506 7.06224 5.82022 6.6473 5.64045 6.48133V14H3.88764V9.46888C3.34831 10.6971 2.78652 11.61 2.20225 12.2075L2 12.1577C2.53933 10.9295 2.85393 8.6722 2.94382 5.38589H3.88764V4.29046H2.13483V3.44398H3.88764V2H5.64045V3.44398H6.98876V4.29046H5.64045V6.08299C6 6.21577 6.26966 6.36515 6.44944 6.53112C7.52809 5.00415 8.17978 3.49378 8.40449 2Z" fill="url(#paint0_linear_634_229)"/>
<defs>
<linearGradient id="paint0_linear_634_229" x1="2" y1="2" x2="14" y2="14" gradientUnits="userSpaceOnUse">
<stop stop-color="#FFD500"/>
<stop offset="1" stop-color="#FF5E00"/>
</linearGradient>
</defs>
</svg>
