<svg width="16" height="16" viewBox="0 0 16 16" fill="none" xmlns="http://www.w3.org/2000/svg">
<path d="M6.71676 2H13.9306V2.87223H10.6705C10.3468 3.65895 9.76879 4.27465 8.93642 4.71932H11.5029L12.0578 4.05231L14 4.41147L13.5145 4.97586V11.2354H11.6416V5.54024H8.5896V11.2354H6.71676V4.15493H8.3815C8.52023 3.67606 8.5896 3.24849 8.5896 2.87223H6.71676V2ZM6.30058 2.61569V3.59054H5.26012V9.90141C5.58382 9.66197 5.90751 9.45674 6.23121 9.28571L6.36994 9.33702C5.53757 10.9789 4.31214 12.2274 2.69364 13.0825C2.55491 12.7404 2.3237 12.2274 2 11.5433C2.23121 11.4748 2.62428 11.3038 3.17919 11.0302C3.31792 10.996 3.4104 10.9618 3.45665 10.9276V3.59054H2.20809V2.61569H6.30058ZM9.28324 6.46378H11.0867C10.9942 9.13179 10.763 10.7223 10.3931 11.2354C12.0116 11.6801 12.9827 12.2274 13.3064 12.8773C13.4913 13.2877 13.3757 13.6127 12.9595 13.8521C12.4971 14.0915 12.1272 14.0402 11.8497 13.6982C11.7572 13.5956 11.6416 13.4074 11.5029 13.1338C11.1792 12.5865 10.763 12.0563 10.2543 11.5433C9.51445 12.5352 8.03468 13.339 5.81503 13.9547L5.74566 13.8521C7.31792 12.997 8.28902 12.159 8.65896 11.338C9.07514 10.5855 9.28324 8.96076 9.28324 6.46378Z" fill="url(#paint0_linear_634_228)"/>
<defs>
<linearGradient id="paint0_linear_634_228" x1="2" y1="2" x2="14" y2="14" gradientUnits="userSpaceOnUse">
<stop stop-color="#26A049"/>
<stop offset="0.494792" stop-color="#00BA9C"/>
<stop offset="1" stop-color="#0C7FCB"/>
</linearGradient>
</defs>
</svg>
