<svg width="16" height="16" viewBox="0 0 16 16" fill="none" xmlns="http://www.w3.org/2000/svg">
<path d="M10.3023 2H12.9535C12.1163 2.96266 11.0233 3.74274 9.67442 4.34025H11.0698L11.6977 3.84232L13.6512 4.24066L12.9535 4.98755V10.1162H11V9.66805H9.04651V10.8631H14V11.7095H9.04651V14H7.02326V11.7095H2V10.8631H7.02326V9.66805H5.13953V10.166H3.11628V4.04149H5.13953V4.34025H8.69767C9.48837 3.51037 10.0233 2.73029 10.3023 2ZM3.04651 2C5.46512 2.09959 6.88372 2.49793 7.30233 3.19502C7.48837 3.56017 7.39535 3.85892 7.02326 4.09129C6.55814 4.32365 6.13953 4.30705 5.76744 4.04149C4.97674 3.24481 4.06977 2.61411 3.04651 2.14938V2ZM9.04651 5.18672V6.58091H11V5.18672H9.04651ZM7.02326 5.18672H5.13953V6.58091H7.02326V5.18672ZM5.13953 7.42739V8.82158H7.02326V7.42739H5.13953ZM11 7.42739H9.04651V8.82158H11V7.42739Z" fill="url(#paint0_linear_634_232)"/>
<defs>
<linearGradient id="paint0_linear_634_232" x1="2" y1="2" x2="14" y2="14" gradientUnits="userSpaceOnUse">
<stop stop-color="#A56EFF"/>
<stop offset="1" stop-color="#1111E8"/>
</linearGradient>
</defs>
</svg>
