<svg width="16" height="16" viewBox="0 0 16 16" fill="none" xmlns="http://www.w3.org/2000/svg">
<path d="M7.81564 2.14936H10.0788C9.93736 2.4444 9.79591 2.69026 9.65446 2.88695H10.8568L11.4933 2.34605L13.4736 2.78861C13.1435 3.01808 12.837 3.26394 12.5541 3.5262C12.1769 4.05071 11.4226 4.59161 10.291 5.1489H11.3518L12.0591 4.55883L13.8126 5.05055L13.1761 5.64063V9.92197H11.4933V9.38107H6.96695V8.49596H11.4933V7.70754H7.17912V6.82243H11.4933V6.03401H7.1084V5.1489H9.15939C9.72518 4.59161 10.126 4.13266 10.3617 3.77206H8.94722C8.38143 4.32935 7.50916 4.90304 6.33043 5.49311L6.18898 5.34559C6.94337 4.49326 7.48559 3.42785 7.81564 2.14936ZM8.66432 9.47776C10.2203 9.7728 11.0454 10.1826 11.1397 10.7071C11.234 11.166 11.1161 11.4775 10.786 11.6414C10.3617 11.8053 10.0317 11.7233 9.79591 11.3955C9.74876 11.3299 9.70161 11.2316 9.65446 11.1005C9.41871 10.576 9.06509 10.0678 8.5936 9.5761L8.66432 9.47776ZM12.1298 10.1645C13.6386 10.9185 14.3222 11.7217 14.1808 12.574C14.1336 13.0985 13.8507 13.3935 13.3321 13.4591C12.8135 13.4591 12.5541 13.2132 12.5541 12.7215C12.6484 12.2298 12.4598 11.4102 11.9884 10.2629L12.1298 10.1645ZM6.75478 10.4596C7.27342 11.4758 7.36772 12.3281 7.03767 13.0165C6.84907 13.4427 6.47188 13.623 5.90609 13.5574C5.38745 13.4263 5.22242 13.1313 5.41102 12.6723C5.45817 12.6068 5.55247 12.4756 5.69392 12.279C6.11826 11.6561 6.40116 11.066 6.5426 10.5087L6.75478 10.4596ZM7.46202 10.5579H9.10084V12.4265C9.10084 12.7 9.5 12.7215 9.72518 12.7215C10.5 12.7215 10.9746 12.3281 11.4933 11.0496L11.7055 11.0988C11.5169 12.0167 11.6583 12.5412 12.1298 12.6723C12.2241 12.6723 12.2712 12.6887 12.2712 12.7215C12.177 13.5411 11.3518 13.9672 9.79591 14C8.19283 14 7.41487 13.623 7.46202 12.869V10.5579ZM2 2.14936H3.68278V2.69026H4.31929C4.31929 2.69026 4.60789 2.25858 4.88508 2.10019C5.54972 1.7204 6.79463 2.54274 6.79463 2.54274L6.22884 2.9853C5.85164 4.23101 5.35658 5.1489 4.74364 5.73897C5.73377 6.03401 6.08739 6.6 6.08739 7.31416V9.67445C6.08739 10.4087 5.70837 10.7357 4.67291 10.8054C4.2445 10.8343 4.05997 10.789 4.10712 10.5596C4.10712 10.5268 4.10712 10.494 4.10712 10.4612C4.05997 10.1334 3.91852 9.92031 3.68278 9.82197V13.9017H2V2.14936ZM4.31929 3.57537H3.68278V9.5761C4.29572 9.64167 4.46074 9.5761 4.46074 9.33024V7.21581C4.46074 6.6 4.29572 6.26348 3.82422 6.03401C4.01282 5.21446 4.17784 4.39492 4.31929 3.57537Z" fill="url(#paint0_linear_5158_181)"/>
<defs>
<linearGradient id="paint0_linear_5158_181" x1="2.29916" y1="2.20019" x2="14.199" y2="14.1" gradientUnits="userSpaceOnUse">
<stop stop-color="#FF5C7C"/>
<stop offset="1" stop-color="#DE4BD4"/>
</linearGradient>
</defs>
</svg>
