<svg width="32" height="32" viewBox="0 0 32 32" fill="none" xmlns="http://www.w3.org/2000/svg">
<path d="M5.80469 3.68749C6.91818 2.46266 8.79755 2.36541 10.0225 3.46484L30.4424 21.8662C31.6673 22.9797 31.7646 24.8591 30.665 26.084C29.9441 26.8871 28.8827 27.2024 27.8916 27.0166H26.4336V27.1143C26.4196 28.2834 25.4729 29.2302 24.3037 29.2441C23.1207 29.2579 22.1331 28.3112 22.1191 27.1143V27.0166H10.8857L10.874 27.249C10.7609 28.3942 9.82095 29.2996 8.67285 29.2998C7.44794 29.2998 6.45898 28.2833 6.45898 27.0166H1.11426C0.808134 27.0027 0.571441 26.7524 0.571289 26.4463V23.0635C0.571398 21.4487 3.07694 16.3126 7.76758 16.3125H13.6553C14.56 16.3125 15.2978 17.0782 15.2979 18.0107V22.7295H22.4775L6.02734 7.90527C4.8027 6.8056 4.70514 4.91231 5.80469 3.68749ZM8.76953 26.0976C8.19908 26.0284 7.68463 26.4461 7.62891 27.0166H7.62012C7.61713 27.0488 7.61426 27.0814 7.61426 27.1143C7.61433 27.6987 8.08772 28.158 8.6582 28.1582C9.24277 28.1582 9.70208 27.6988 9.70215 27.1143C9.70215 27.0813 9.70021 27.0487 9.69727 27.0166H9.68848C9.63275 26.5295 9.25667 26.1533 8.76953 26.0976ZM24.29 26.0703C23.7055 26.0703 23.2461 26.5436 23.2461 27.1143C23.2462 27.6988 23.7194 28.1582 24.29 28.1582C24.8607 28.1582 25.3339 27.6988 25.334 27.1143C25.334 26.5296 24.8607 26.0703 24.29 26.0703ZM9.24316 4.73144C8.61686 4.17486 7.67028 4.21665 7.09961 4.84277C6.54288 5.46908 6.58472 6.41561 7.21094 6.98632L27.2412 25.04C27.8676 25.5967 28.8141 25.555 29.3848 24.9287C29.9413 24.3024 29.8857 23.3419 29.2734 22.7851L9.24316 4.73144ZM27.3662 23.2031C27.742 22.7995 28.3686 22.7571 28.7861 23.1328C29.1898 23.5086 29.2312 24.1351 28.8555 24.5527C28.4797 24.9564 27.8531 24.9988 27.4355 24.623C27.018 24.2473 26.9905 23.6068 27.3662 23.2031ZM25.209 21.1289C25.5848 20.7253 26.2114 20.6838 26.6289 21.0596C27.0321 21.4353 27.0736 22.0611 26.6982 22.4785C26.3225 22.8821 25.6959 22.9245 25.2783 22.5488C24.8607 22.173 24.8332 21.5465 25.209 21.1289ZM7.76758 17.9971C5.26219 17.9971 4.06491 19.2218 3.10449 20.8086H8.67285V17.9971H7.76758ZM10.1484 20.8086H13.6553V18.5674C13.6552 18.2613 13.4185 18.0107 13.1123 18.0107H10.1484V20.8086ZM22.8428 19.0684C23.2185 18.6652 23.8443 18.6236 24.2617 18.999C24.6653 19.3748 24.7077 20.0014 24.332 20.4189C23.9562 20.8226 23.3297 20.8641 22.9121 20.4883C22.4946 20.1124 22.467 19.472 22.8428 19.0684ZM20.6846 16.9951C21.0603 16.5915 21.7008 16.5492 22.1045 16.9248C22.5082 17.3006 22.5497 17.9271 22.1738 18.3447C21.798 18.7483 21.1724 18.7898 20.7549 18.4141C20.3374 18.0383 20.3091 17.4127 20.6846 16.9951ZM18.458 15.1992C18.8338 14.7956 19.4604 14.7541 19.8779 15.1299C20.2813 15.5057 20.323 16.1323 19.9473 16.5498C19.5714 16.9532 18.9449 16.9948 18.5273 16.6191C18.1098 16.2433 18.0822 15.6168 18.458 15.1992ZM16.2998 13.125C16.6756 12.7214 17.3021 12.68 17.7197 13.0557C18.1234 13.4315 18.1658 14.058 17.79 14.4756C17.4143 14.8792 16.7877 14.9206 16.3701 14.5449C15.9526 14.1831 15.9241 13.5426 16.2998 13.125ZM13.9336 11.0654C14.3093 10.6619 14.9359 10.6196 15.3535 10.9951C15.7571 11.3708 15.7993 11.9975 15.4238 12.415C15.0481 12.8186 14.4215 12.8608 14.0039 12.4853C13.6004 12.1236 13.5581 11.483 13.9336 11.0654ZM11.7764 9.00488C12.1522 8.60123 12.7787 8.55972 13.1963 8.93554C13.5999 9.31137 13.6414 9.93791 13.2656 10.3555C12.8898 10.7589 12.2632 10.8005 11.8457 10.4248C11.4283 10.049 11.4006 9.42239 11.7764 9.00488ZM9.70215 7.26464C10.0779 6.86111 10.7045 6.81969 11.1221 7.19531C11.5257 7.57113 11.5672 8.19765 11.1914 8.61523C10.8156 9.01868 10.19 9.06026 9.77246 8.68456C9.35488 8.32266 9.32632 7.68222 9.70215 7.26464ZM7.53125 5.3164C7.90708 4.91281 8.53362 4.87127 8.95117 5.24706C9.35453 5.62292 9.39623 6.24952 9.02051 6.66699C8.64468 7.07045 8.0181 7.11203 7.60059 6.73632C7.183 6.37442 7.15543 5.72006 7.53125 5.3164Z" fill="url(#paint0_linear_1041_4789)"/>
<defs>
<linearGradient id="paint0_linear_1041_4789" x1="7.12866" y1="2.70044" x2="22.9179" y2="31.4335" gradientUnits="userSpaceOnUse">
<stop stop-color="#FCA947"/>
<stop offset="1" stop-color="#FFCD6B"/>
</linearGradient>
</defs>
</svg>
