<svg width="32" height="32" viewBox="0 0 32 32" fill="none" xmlns="http://www.w3.org/2000/svg">
<path d="M28.4246 22.9152C28.4242 22.9152 28.4239 22.9149 28.4239 22.9145V20.0771C28.4239 20.0111 28.4565 19.9498 28.5097 19.911C29.7766 18.9872 30.7199 17.053 30.7199 14.822C30.7199 11.7915 29.0863 9.34931 27.0413 9.1867L23.5325 8.6398C23.4352 8.62462 23.3633 8.54075 23.3633 8.44219V7.50502C23.3633 7.39457 23.2738 7.30502 23.1633 7.30502H22.3419C22.2314 7.30502 22.1419 7.39457 22.1419 7.50502V8.19459C22.1419 8.3204 22.0271 8.41496 21.9036 8.3909L19.3616 7.89557C19.2676 7.87727 19.1998 7.79497 19.1998 7.69927V6.59229C19.1998 6.48183 19.1103 6.39229 18.9998 6.39229H18.0899C17.9795 6.39229 17.8899 6.48183 17.8899 6.59229V7.3726C17.8899 7.49789 17.776 7.59233 17.6529 7.56914L12.8148 6.65828C12.7203 6.64048 12.6518 6.55792 12.6518 6.46173V4.9594C12.6518 4.84894 12.5623 4.7594 12.4518 4.7594H11.3808C11.2703 4.7594 11.1808 4.84894 11.1808 4.9594V6.24315C11.1808 6.36723 11.069 6.46137 10.9467 6.44022L8.79777 6.06856C10.1069 6.23042 11.0931 9.74723 10.9312 13.9992C10.7694 18.2511 9.54789 21.6788 8.23873 21.7672L9.89747 21.6887C10.0115 21.6833 10.1069 21.7743 10.1069 21.8885V22.3857C10.1069 22.4925 10.023 22.5805 9.91635 22.5855L6.8691 22.7294C6.76243 22.7344 6.67854 22.8224 6.67854 22.9292V23.993C6.67854 24.1096 6.77799 24.2015 6.8943 24.1923L14.6437 23.5797C14.76 23.5706 14.8595 23.6625 14.8595 23.7791V23.9503C14.8595 24.055 14.7787 24.142 14.6743 24.1498L10.9839 24.425C10.8515 24.4349 10.8153 24.6124 10.9334 24.6732C10.9772 24.6958 11.0047 24.7409 11.0047 24.7902V27.0141C11.0047 27.1344 11.1101 27.2274 11.2295 27.2125L29.7939 24.8937C29.894 24.8812 29.9691 24.7961 29.9691 24.6953V23.1661C29.9691 23.0648 29.8935 22.9796 29.793 22.9675L29.2339 22.9002L28.4246 22.9152ZM16.4512 22.2432C16.3373 22.2484 16.242 22.1574 16.242 22.0434V21.7087C16.242 21.6018 16.3261 21.5138 16.4329 21.5089L19.5497 21.3654C19.6636 21.3602 19.7589 21.4511 19.7589 21.5652V21.8999C19.7589 22.0068 19.6748 22.0948 19.5681 22.0997L16.4512 22.2432ZM12.8878 9.38113C12.8878 9.30538 12.9307 9.24024 12.9984 9.20636L13.4789 8.96613C13.5156 8.94776 13.5571 8.94115 13.5977 8.94719L16.6305 9.39814C16.7285 9.41271 16.8011 9.49687 16.8011 9.59596V15.7652C16.8011 15.8778 16.7081 15.9682 16.5955 15.9651L13.6235 15.8828C13.6137 15.8825 13.6039 15.8829 13.5941 15.8841L13.4471 15.9018C13.2586 15.9244 12.8786 15.5848 12.8796 15.3949C12.887 13.9261 12.8878 10.1055 12.8878 9.38113ZM11.9921 22.4896C11.8633 22.4965 11.7618 22.3814 11.7846 22.2544L11.8729 21.7646C11.8897 21.6717 11.9691 21.6032 12.0635 21.6002L14.4972 21.5235C14.6018 21.5202 14.6912 21.598 14.7024 21.702L14.7485 22.1314C14.7607 22.2454 14.6748 22.3463 14.5603 22.3525L11.9921 22.4896ZM16.2218 23.5592C16.2336 23.4666 16.308 23.3945 16.401 23.3856L22.0344 22.8442C22.137 22.8343 22.2153 22.7481 22.2153 22.6451V22.1291C22.2153 22.0186 22.1258 21.9291 22.0153 21.9291H21.4591C21.3378 21.9291 21.2445 21.8221 21.2609 21.702L21.2962 21.4437C21.309 21.3494 21.3866 21.2772 21.4816 21.2712L26.212 20.9702C26.3151 20.9636 26.4062 21.0366 26.4223 21.1385L26.6842 22.7931C26.7023 22.9071 26.6202 23.0127 26.5053 23.0235L16.3872 23.9687C16.2699 23.9796 16.1803 23.888 16.195 23.7711C16.2038 23.7008 16.2136 23.6243 16.2218 23.5592ZM7.326 21.7672C6.12347 21.6801 5.22163 18.913 5.12315 15.2327C5.12048 15.133 5.04533 15.0492 4.94624 15.0374L4.43772 14.9768C4.40251 14.9726 4.36638 14.9772 4.33526 14.9942C3.98621 15.1849 3.94309 15.6657 3.95171 15.9568C3.95538 16.0804 3.85931 16.1918 3.73574 16.1918H1.4793C1.36884 16.1918 1.27891 16.1006 1.28278 15.9903C1.3821 13.1534 3.57463 12.9988 3.57463 12.9988H4.94545C5.05105 12.9988 5.13841 12.916 5.14586 12.8106C5.42203 8.9025 6.62357 5.96728 7.82583 6.05432C9.20842 6.14274 10.1938 9.65881 10.0327 13.9842C9.87087 18.3396 8.63515 21.7672 7.32525 21.7672H7.326ZM6.75272 11.7923C6.52871 11.7923 6.31671 12.1812 6.21126 12.7905C6.19081 12.9087 6.28426 13.0138 6.40417 13.0138H6.62616C6.73662 13.0138 6.82616 13.1033 6.82616 13.2138V14.858C6.82616 14.9685 6.73662 15.058 6.62616 15.058H6.40417C6.28426 15.058 6.19081 15.1631 6.21126 15.2813C6.31671 15.8906 6.52871 16.2795 6.75272 16.2795C7.07645 16.2795 7.40018 15.2941 7.40018 14.0726C7.40018 12.8511 7.16413 11.7923 6.75197 11.7923H6.75272Z" fill="url(#paint0_linear_1041_4802)"/>
<defs>
<linearGradient id="paint0_linear_1041_4802" x1="7.53544" y1="4.7594" x2="19.9783" y2="30.3199" gradientUnits="userSpaceOnUse">
<stop stop-color="#FF7456"/>
<stop offset="1" stop-color="#FF8D6D"/>
</linearGradient>
</defs>
</svg>
