<svg width="32" height="32" viewBox="0 0 32 32" fill="none" xmlns="http://www.w3.org/2000/svg">
<path d="M27.5351 11.5128L22.2976 13.957L18.9078 10.7708V8.73403L22.2976 5.5479L27.5351 7.99206C28.0879 8.25393 28.7281 8.0066 28.99 7.46831C29.2518 6.91546 29.0045 6.27533 28.4662 6.01345L22.7632 3.35107C22.4927 3.22346 22.1894 3.18292 21.8949 3.23503C21.6004 3.28715 21.3294 3.42936 21.1192 3.64204L18.5877 5.96981C18.4571 5.79104 18.2864 5.64532 18.0894 5.54427C17.8923 5.44323 17.6744 5.38967 17.453 5.38787C16.6528 5.38787 15.9981 6.04255 15.9981 6.84272V8.29758H11.3717C10.6733 6.33352 8.69473 4.99506 6.39606 5.48971C4.70843 5.85342 3.26812 7.30828 2.9626 9.025C2.64253 10.9454 3.63184 12.6185 5.11579 13.506L8.84021 24.4225H4.85926C4.58312 24.4225 4.35926 24.6464 4.35926 24.9225V28.2871C4.35926 28.5632 4.58312 28.7871 4.85926 28.7871H22.7724C23.0485 28.7871 23.2724 28.5632 23.2724 28.2871V24.9225C23.2724 24.6464 23.0485 24.4225 22.7724 24.4225H18.0058L10.7752 12.3275C11.0225 11.9784 11.2262 11.6146 11.3717 11.2073H15.9981V12.6621C15.9981 13.4623 16.6528 14.117 17.453 14.117C17.9185 14.117 18.3259 13.8842 18.5877 13.5351L21.1192 15.8628C21.5556 16.2993 22.2103 16.4157 22.7632 16.1538L28.4662 13.4914C29.019 13.2295 29.2518 12.5894 28.99 12.0366C28.866 11.7746 28.6434 11.5724 28.3707 11.4742C28.098 11.376 27.7976 11.3899 27.5351 11.5128ZM7.26897 11.2073C6.4688 11.2073 5.81412 10.5526 5.81412 9.75243C5.81412 8.95226 6.4688 8.29758 7.26897 8.29758C8.06914 8.29758 8.72383 8.95226 8.72383 9.75243C8.72383 10.5526 8.06914 11.2073 7.26897 11.2073Z" fill="url(#paint0_linear_1041_4836)"/>
<defs>
<linearGradient id="paint0_linear_1041_4836" x1="9.79659" y1="4.49163" x2="25.8659" y2="27.3781" gradientUnits="userSpaceOnUse">
<stop stop-color="#387FFC"/>
<stop offset="1" stop-color="#55BAFA"/>
</linearGradient>
</defs>
</svg>
