<svg width="32" height="32" viewBox="0 0 32 32" fill="none" xmlns="http://www.w3.org/2000/svg">
<path d="M7.52035 13.5417H14.6056L12.2402 9.68643H7.51243V13.5449L7.52035 13.5417ZM21.3312 18.9766H5.63021C4.86655 18.9766 4.16626 19.2599 3.65927 19.7144C3.40588 19.9335 3.20173 20.2048 3.06047 20.51C2.91921 20.8153 2.84409 21.1475 2.84015 21.4844C2.84015 22.1725 3.15227 22.6815 3.65927 23.136C4.20472 23.616 4.90521 23.8778 5.62862 23.8721H21.3344C22.0578 23.8778 22.7583 23.616 23.3037 23.136C23.8107 22.6815 24.1276 22.1725 24.1276 21.4844C24.1235 21.147 24.0478 20.8145 23.9057 20.5091C23.7636 20.2038 23.5583 19.9328 23.3037 19.7144C22.7583 19.2343 22.0578 18.9725 21.3344 18.9782L21.3312 18.9766ZM21.7336 19.868C20.8876 19.868 20.2016 20.529 20.2016 21.3451C20.2016 22.1613 20.8876 22.8207 21.7336 22.8207C22.5781 22.8207 23.2641 22.1597 23.2641 21.3451C23.2641 20.529 22.5781 19.868 21.7336 19.868ZM10.19 22.8575H16.9505V19.908H10.1932V22.8575H10.19ZM5.57 19.868C4.72554 19.868 4.0411 20.529 4.0411 21.3435C4.0411 22.1581 4.72554 22.8175 5.57 22.8175C6.41447 22.8175 7.10049 22.1581 7.10049 21.3435C7.10049 20.5274 6.41447 19.868 5.57 19.868ZM23.543 16.8481C24.1672 17.0818 24.7328 17.4258 25.2081 17.8643V12.9311C25.2081 12.6549 25.432 12.4311 25.7081 12.4311H27.5681C27.8282 12.4311 28.0448 12.6305 28.0664 12.8897L28.4798 17.8707L31.554 25.2295C31.6916 25.5589 31.4497 25.9222 31.0927 25.9222H25.7081C25.432 25.9222 25.2081 25.6984 25.2081 25.4222V24.962C24.2132 25.8502 22.8474 26.4023 21.3375 26.4023H5.63813C4.21641 26.4148 2.83944 25.9007 1.76754 24.9572C0.769397 24.0658 0.15625 22.8351 0.15625 21.4796C0.15625 20.3593 0.576105 19.3239 1.28273 18.4981C1.68832 17.9684 2.20166 17.5235 2.78787 17.1906V14.0417C2.78787 13.7656 3.01173 13.5417 3.28787 13.5417H3.91593V6.70882C3.91593 6.43267 4.13979 6.20882 4.41593 6.20882H14.0121C14.1868 6.20882 14.3488 6.30002 14.4395 6.44939L14.8132 7.06502L18.7915 13.5465H19.8261V12.5863H19.4585V8.67339H19.8261V8.31811L18.711 7.1421C18.5161 6.93651 18.5308 6.61019 18.7434 6.42291L19.3181 5.91661C19.5201 5.73857 19.8269 5.7526 20.0119 5.94832L21.3867 7.40269L21.6291 7.65075V8.67659H21.9618V12.5863H21.6259V13.5465H23.543V16.8465V16.8481Z" fill="url(#paint0_linear_1041_4753)"/>
<defs>
<linearGradient id="paint0_linear_1041_4753" x1="6.88977" y1="5.59747" x2="17.3114" y2="30.4957" gradientUnits="userSpaceOnUse">
<stop stop-color="#FF7456"/>
<stop offset="1" stop-color="#FF8D6D"/>
</linearGradient>
</defs>
</svg>
