<svg width="32" height="32" viewBox="0 0 32 32" fill="none" xmlns="http://www.w3.org/2000/svg">
<path d="M6.8877 23.8421C7.32632 23.6657 7.80646 23.6198 8.27051 23.7103C8.73457 23.8008 9.16276 24.0235 9.50293 24.3519C9.95376 24.7932 10.2186 25.3904 10.2432 26.0208C10.2555 26.3473 10.2014 26.673 10.084 26.9779C9.90588 27.4392 9.59143 27.8358 9.18359 28.1155C8.77582 28.3952 8.29328 28.5452 7.79883 28.5452C7.30428 28.5452 6.82092 28.3953 6.41309 28.1155C6.00542 27.8358 5.69173 27.4391 5.51367 26.9779C5.39816 26.6724 5.34422 26.3472 5.35449 26.0208C5.37248 25.5484 5.52676 25.0911 5.79883 24.7044C6.0709 24.3178 6.44913 24.0185 6.8877 23.8421ZM22.751 23.8421C23.1896 23.6657 23.6698 23.6198 24.1338 23.7103C24.5978 23.8008 25.0261 24.0235 25.3662 24.3519C25.8194 24.7916 26.0847 25.3898 26.1064 26.0208C26.1187 26.3474 26.0638 26.6729 25.9463 26.9779C25.7682 27.4392 25.4547 27.8358 25.0469 28.1155C24.6391 28.3952 24.1566 28.5452 23.6621 28.5452C23.1676 28.5452 22.6842 28.3953 22.2764 28.1155C21.8687 27.8358 21.555 27.4391 21.377 26.9779C21.2614 26.6724 21.2075 26.3472 21.2178 26.0208C21.2358 25.5484 21.39 25.0911 21.6621 24.7044C21.9342 24.3178 22.3124 24.0185 22.751 23.8421ZM11.1396 10.9505C11.4602 10.9514 11.7677 11.079 11.9941 11.306C12.2205 11.533 12.3476 11.8408 12.3477 12.1614V18.2962C12.3485 18.6168 12.4762 18.9243 12.7031 19.1507C12.9302 19.3771 13.238 19.5042 13.5586 19.5042H28.7344C28.8936 19.5056 29.051 19.5382 29.1982 19.5989C29.3451 19.6593 29.4785 19.7484 29.5908 19.8607C29.7031 19.9729 29.7922 20.1064 29.8525 20.2532C29.912 20.394 29.9438 20.5448 29.9453 20.6976V24.6868C29.9449 25.0079 29.8169 25.3163 29.5898 25.5433C29.3629 25.77 29.0552 25.8973 28.7344 25.8978H27.4863C27.4863 25.3894 27.3859 24.8861 27.1914 24.4163C26.9968 23.9465 26.7121 23.5191 26.3525 23.1595C25.9929 22.7999 25.5656 22.5143 25.0957 22.3196C24.626 22.1251 24.1226 22.0248 23.6143 22.0247C23.1057 22.0247 22.6017 22.125 22.1318 22.3196C21.6621 22.5142 21.2355 22.8 20.876 23.1595C20.5164 23.5191 20.2307 23.9465 20.0361 24.4163C19.8417 24.886 19.7412 25.3894 19.7412 25.8978H11.6299C11.6313 25.3885 11.5313 24.8841 11.3369 24.4134C11.1425 23.9427 10.8565 23.5154 10.4961 23.1556C10.1369 22.7948 9.70984 22.509 9.23926 22.3148C8.76782 22.1219 8.26329 22.0227 7.75391 22.0228C6.72516 22.0228 5.73817 22.4311 5.01074 23.1585C4.28353 23.8858 3.87513 24.8722 3.875 25.9007H3.26172C2.94166 25.9002 2.63453 25.7735 2.4082 25.5472C2.18188 25.3208 2.0552 25.0137 2.05469 24.6937V17.0853C2.056 16.7561 2.12361 16.4306 2.25391 16.1282C2.38577 15.8261 2.57858 15.5545 2.82031 15.3304L6.45605 11.932C7.12756 11.3022 8.01398 10.9513 8.93457 10.9505H11.1396ZM8.66504 14.9749C8.1183 14.9742 7.59054 15.177 7.18555 15.5443L5.67676 16.9056C5.46519 17.0974 5.29538 17.331 5.17969 17.5921C5.06404 17.8531 5.00485 18.1357 5.00488 18.4212V18.4339C5.00415 18.7253 5.11833 19.0051 5.32324 19.2122C5.42537 19.3143 5.54704 19.3957 5.68066 19.4505C5.81434 19.5053 5.95808 19.5326 6.10254 19.5316H7.97266C8.11771 19.5317 8.26169 19.5026 8.39551 19.4466C8.66539 19.3334 8.87993 19.1188 8.99316 18.8489H8.99512C9.05124 18.715 9.08107 18.5713 9.08398 18.4261V15.3939C9.08415 15.3389 9.07365 15.2846 9.05273 15.2337C9.03172 15.1827 9.00092 15.136 8.96191 15.097C8.92292 15.058 8.87618 15.0272 8.8252 15.0062C8.77436 14.9853 8.72 14.9747 8.66504 14.9749ZM25.8086 3.60188C26.2415 3.43103 26.7188 3.40686 27.167 3.53254C27.6152 3.65823 28.01 3.92708 28.291 4.29816C28.5719 4.66913 28.7231 5.12193 28.7227 5.58723C28.7229 6.13185 28.5159 6.65661 28.1436 7.05402L28.1807 7.08234L22.6123 17.6761C22.4547 17.8773 22.2531 18.0404 22.0234 18.1527C21.7938 18.2648 21.5416 18.3229 21.2861 18.3236H14.7061C14.6004 18.3227 14.4965 18.2922 14.4072 18.2357C14.3169 18.1782 14.2443 18.0961 14.1982 17.9993C14.1528 17.9037 14.1361 17.7968 14.1494 17.6917C14.1609 17.5868 14.203 17.4877 14.2705 17.4066L24.7324 4.45051L24.7695 4.47883C25.0111 4.08105 25.3757 3.77273 25.8086 3.60188ZM28.3066 8.58723C28.3889 8.55947 28.4776 8.55692 28.5615 8.57941C28.6453 8.60918 28.7178 8.66496 28.7676 8.73859C28.8179 8.81068 28.8451 8.89677 28.8457 8.98469V13.8753C28.8457 14.0585 28.7731 14.2341 28.6436 14.3636C28.514 14.4931 28.3384 14.5657 28.1553 14.5657V15.4759C28.1557 15.5204 28.1416 15.564 28.1152 15.5999C28.0888 15.6359 28.0506 15.6623 28.0078 15.6751C27.8143 15.7322 27.6404 15.8431 27.5068 15.9945C27.4077 16.1078 27.3335 16.2406 27.2881 16.3841C27.2426 16.5278 27.2271 16.6795 27.2432 16.8294C27.2592 16.9793 27.306 17.1243 27.3809 17.2552C27.4557 17.386 27.5567 17.5003 27.6777 17.5902C27.7982 17.6804 27.9364 17.7438 28.083 17.7777C28.2297 17.8115 28.3824 17.8148 28.5303 17.7864C28.6781 17.7581 28.8186 17.6993 28.9424 17.6136C29.0662 17.5278 29.1714 17.4169 29.25 17.2884C29.3535 17.1152 29.4083 16.9169 29.4092 16.7152H29.4189C29.4245 16.6543 29.4523 16.5977 29.4971 16.556C29.5432 16.5149 29.6023 16.4917 29.6641 16.4905C29.6964 16.4908 29.7289 16.4967 29.7588 16.5091C29.7879 16.523 29.8143 16.5427 29.8369 16.5657C29.8606 16.5882 29.8789 16.6159 29.8896 16.6468C29.9012 16.6766 29.9063 16.7086 29.9053 16.7405C29.9068 16.7527 29.9068 16.7655 29.9053 16.7777C29.8966 17.0526 29.8167 17.3209 29.6738 17.556C29.531 17.791 29.3298 17.9851 29.0898 18.1195C28.8495 18.253 28.5786 18.322 28.3037 18.3187C28.0286 18.3153 27.7586 18.2394 27.5215 18.0999C27.2839 17.9605 27.0863 17.7621 26.9482 17.5238C26.8102 17.2853 26.7361 17.0151 26.7334 16.7396C26.7325 16.464 26.8019 16.1925 26.9355 15.9515C27.0684 15.7101 27.2631 15.5077 27.499 15.3655C27.5331 15.3436 27.5617 15.3133 27.5811 15.2777C27.6023 15.2432 27.6128 15.2029 27.6123 15.1624V14.5706C27.4094 14.5706 27.2148 14.4903 27.0713 14.347C26.9277 14.2034 26.8467 14.0081 26.8467 13.805V11.6048C26.8467 11.2751 26.9545 10.954 27.1543 10.6917L28.0947 8.73469C28.1484 8.66484 28.2223 8.61285 28.3066 8.58723Z" fill="url(#paint0_linear_1041_4728)"/>
<defs>
<linearGradient id="paint0_linear_1041_4728" x1="7.98144" y1="3.45325" x2="23.2114" y2="30.0079" gradientUnits="userSpaceOnUse">
<stop stop-color="#FF7456"/>
<stop offset="1" stop-color="#FF8D6D"/>
</linearGradient>
</defs>
</svg>
