<svg width="32" height="32" viewBox="0 0 32 32" fill="none" xmlns="http://www.w3.org/2000/svg">
<path d="M27.9399 24.7424C27.9399 24.38 27.6422 24.0865 27.2797 24.0865L26.2182 24.0909L17.7562 24.1556C17.6052 24.1685 17.1435 24.1944 16.9493 24.2117C16.6645 24.2333 16.4488 24.613 16.4488 24.8417L16.4617 27.9227C16.4617 28.0996 16.5307 28.2636 16.6559 28.3887C16.781 28.5096 16.945 28.5786 17.1219 28.5786L27.3056 28.6045C27.4825 28.6045 27.6465 28.5354 27.7673 28.4103C27.8925 28.2852 27.9572 28.1169 27.9572 27.9443L27.9399 24.7424ZM17.7001 14.8263L17.7347 22.6712L26.1794 22.5806L26.1492 15.7066C26.1233 10.2264 21.6485 5.78609 16.1683 5.81198L10.1875 5.83788L10.2436 12.6342L15.4692 12.6126C16.6904 12.6083 17.6958 13.6008 17.7001 14.8263ZM8.58659 5.73863H8.57796L8.57365 4.43546C8.57365 4.25854 8.50461 4.09456 8.37947 3.97374C8.25433 3.8486 8.08604 3.78387 7.91343 3.78387L4.71161 3.79682C4.34914 3.79682 4.0514 4.09456 4.05571 4.45703L4.09455 13.9201C4.09455 14.097 4.16359 14.261 4.28873 14.3861C4.41387 14.507 4.57784 14.576 4.75476 14.576L7.95659 14.5631C8.13351 14.5631 8.29748 14.494 8.42262 14.3689C8.48303 14.3085 8.5305 14.2351 8.5607 14.1574C8.59522 14.0798 8.61248 13.9935 8.61248 13.9028L8.60817 12.535H8.6168L8.58659 5.73863Z" fill="url(#paint0_linear_1041_4858)"/>
<defs>
<linearGradient id="paint0_linear_1041_4858" x1="9.13474" y1="3.78387" x2="25.2024" y2="28.0547" gradientUnits="userSpaceOnUse">
<stop stop-color="#FCA947"/>
<stop offset="1" stop-color="#FFCD6B"/>
</linearGradient>
</defs>
</svg>
