<svg width="32" height="32" viewBox="0 0 32 32" fill="none" xmlns="http://www.w3.org/2000/svg">
<path d="M11.0825 22.3349C11.6852 22.3537 12.1663 22.5604 12.5864 22.9853C13.3961 23.8041 13.4204 25.173 12.6411 25.998C12.1053 26.5603 11.3626 26.8168 10.6626 26.6855C8.92741 26.3668 8.23368 24.2978 9.43307 23.0166C9.67655 22.7479 9.95038 22.573 10.3764 22.4043C10.5103 22.3543 10.7843 22.3225 11.0825 22.3349ZM4.40963 22.2099C4.8906 22.0037 5.63402 22.0291 6.13326 22.2666C6.57752 22.4791 6.99755 22.9101 7.20455 23.3662C7.34457 23.6662 7.36861 23.8102 7.36861 24.2539C7.36861 24.7288 7.34492 24.8354 7.16842 25.2041C6.93706 25.6853 6.6074 26.0168 6.12643 26.248C5.82845 26.3916 5.70651 26.4101 5.17721 26.4101C4.62322 26.4101 4.53791 26.3914 4.21529 26.2226C3.75258 25.9851 3.30764 25.4853 3.13717 25.0166C2.95462 24.5293 2.98509 23.7983 3.19186 23.3545C3.45972 22.7983 3.80698 22.4662 4.40963 22.2099ZM25.7924 22.0849C26.4133 22.11 26.8458 22.2917 27.2475 22.7041C28.3006 23.7854 27.9897 25.5981 26.6381 26.248C26.3461 26.3917 26.2242 26.4101 25.6948 26.4101C25.1654 26.4101 25.0433 26.3916 24.7514 26.248C23.3937 25.598 23.0831 23.8105 24.1303 22.7168C24.4225 22.4168 24.6291 22.2849 25.0249 22.1474C25.171 22.0975 25.4759 22.0724 25.7924 22.0849ZM25.4087 11.4414C27.9534 11.4414 28.4282 11.4545 28.7143 11.542C29.7736 11.8607 30.5956 12.7165 30.8696 13.7851C30.9426 14.0914 30.9614 14.6416 30.9614 16.9541V19.7539H31.0698C31.3459 19.7539 31.5697 19.9778 31.5698 20.2539V23.124C31.5697 23.402 31.3429 23.6268 31.0649 23.624L30.3706 23.6162L29.1772 23.5976L29.0434 23.1855C28.6721 22.0044 27.7527 21.1419 26.5171 20.8105C26.1457 20.7168 25.2804 20.7164 24.8725 20.8164C23.6611 21.1164 22.7178 21.9978 22.3403 23.1914L22.3227 23.248C22.2572 23.4563 22.0635 23.5976 21.8452 23.5976H14.8715C14.6532 23.5976 14.4596 23.4562 14.394 23.248L14.3764 23.1914C13.999 22.0041 13.0798 21.1356 11.8442 20.8105C11.5763 20.7418 10.8207 20.7226 8.06881 20.7226C4.90358 20.7226 4.59868 20.7287 4.26998 20.8349C3.02188 21.2349 2.10881 22.1541 1.7983 23.3291L1.7192 23.6289H0.958457C0.682398 23.6288 0.458457 23.405 0.458457 23.1289V20.2539C0.458531 19.9779 0.682444 19.754 0.958457 19.7539H20.2456V12.0664H21.5239V19.7539H22.437V11.4414H25.4087ZM19.6792 14.0664C19.6913 14.0664 19.6977 15.2165 19.6977 16.6289V19.1914H17.8647L17.9809 19.0166C18.0479 18.9229 18.1757 18.6981 18.2671 18.5107C18.4619 18.1107 19.1743 15.9166 19.4604 14.8291C19.5694 14.4126 19.6661 14.0701 19.6792 14.0664ZM2.99166 16.5664L4.33053 17.7295C5.0611 18.367 5.71864 18.942 5.78561 19.0107C5.90119 19.1294 5.87008 19.1289 3.27096 19.1289H1.14107C0.86503 19.1288 0.641074 18.905 0.641074 18.6289V17.0664C0.641149 16.7904 0.865076 16.5665 1.14107 16.5664H2.99166ZM7.46041 5.29198C8.1423 5.25448 9.83511 5.31698 10.5962 5.41698C13.3236 5.77326 15.9416 6.72934 17.9751 8.12303C18.6628 8.59162 18.6624 8.59184 18.8999 9.09178C19.5574 10.4855 19.6062 12.4479 19.0278 14.8603C18.7234 16.1541 18.0171 17.9162 17.4448 18.8349L17.2622 19.1289H13.7866C10.9469 19.1289 10.2869 19.1105 10.1518 19.042C10.0605 18.992 9.75535 18.9039 9.4692 18.8476C8.19082 18.5789 6.28565 17.773 4.90377 16.917C3.71046 16.1732 2.44371 15.1476 1.32955 14.0351L0.641074 13.3476L0.537559 12.7539C0.385386 11.8538 0.3976 10.0351 0.561973 9.25389C0.793285 8.17287 1.19546 7.31066 1.77975 6.63573C1.99284 6.38573 2.06633 6.35428 2.83346 6.12303C4.27636 5.6918 6.00534 5.38572 7.46041 5.29198ZM23.4721 17.5039H25.1167V12.5664H23.4721V17.5039ZM26.9731 12.5791C26.3034 12.5666 25.7377 12.5795 25.7133 12.6045C25.6829 12.6295 25.6645 13.7416 25.6645 15.0791V17.5039H29.6215V15.6728C29.6215 14.0417 29.6098 13.8226 29.5063 13.5976C29.3602 13.2602 28.9824 12.9231 28.5503 12.748C28.2276 12.6168 28.069 12.6041 26.9731 12.5791Z" fill="url(#paint0_linear_1041_4737)"/>
<defs>
<linearGradient id="paint0_linear_1041_4737" x1="8.62613" y1="6.35289" x2="20.0161" y2="29.3567" gradientUnits="userSpaceOnUse">
<stop stop-color="#387FFC"/>
<stop offset="1" stop-color="#55BAFA"/>
</linearGradient>
</defs>
</svg>
