<svg width="32" height="32" viewBox="0 0 32 32" fill="none" xmlns="http://www.w3.org/2000/svg">
<g clip-path="url(#clip0_1041_4725)">
<path d="M2.32631 3.40405L4.18223 5.47277L4.65553 5.13516L4.67825 5.16684L4.67185 5.14956L12.848 7.82278L12.9523 7.50597L14.2305 7.92615L14.1269 8.24088L23.4841 11.3004L23.5636 11.0408L25.4909 11.6589L25.4383 11.8213C25.5302 11.7847 25.6316 11.7788 25.7272 11.8044C25.9455 11.8589 26.0728 12.0409 26.0728 12.2772L26.0727 19.4228H28.7091V18.4774C28.7091 18.3501 28.8184 18.2592 28.9456 18.2592H31.7457C31.8731 18.2592 31.982 18.3501 31.982 18.4774V22.8959C31.982 23.0155 31.8854 23.1192 31.7679 23.1311L31.7457 23.1322L25.709 23.132V24.1685H29.7456C30.9833 24.1685 31.9732 25.1417 31.9998 26.3725L32.0003 26.4232C32.0003 27.6776 30.982 28.6777 29.7458 28.6777H8.41743C7.16282 28.6777 6.16278 27.6776 6.16278 26.4232C6.16278 25.1687 7.1809 24.1687 8.41727 24.1687L17.9813 24.1685V23.1685H13.4904C13.345 23.1685 13.236 23.0594 13.236 22.9141L13.2359 22.8648L5.29011 13.7864L2.49 9.10299V12.2678L2.74457 12.3681C2.74457 12.3681 2.83545 12.4409 2.83545 12.4954V13.7499C2.83545 13.7499 2.81737 13.7864 2.81737 13.8045L2.16279 15.0955C2.16279 15.0955 2.08999 15.1682 2.03542 15.1682H1.81717V15.7682C1.81717 15.7682 1.94614 15.8327 2.06742 15.9463L2.08999 15.9682L2.09367 15.9721C2.12967 16.0097 2.41736 16.325 2.41736 16.7683V16.7726C2.41624 16.8204 2.39912 17.2603 2.08999 17.5865C2.08999 17.5865 1.76277 17.9137 1.28995 17.9137C1.28995 17.9137 0.817295 17.9137 0.471842 17.5865C0.471842 17.5865 0.144469 17.2409 0.144469 16.7683C0.144469 16.5682 0.308156 16.3865 0.526244 16.3865C0.726252 16.3865 0.908179 16.5682 0.908179 16.7683C0.908179 16.7683 0.908179 16.9319 1.0173 17.0411C1.0173 17.0411 1.12627 17.15 1.28995 17.15C1.28995 17.15 1.43556 17.15 1.54452 17.0411C1.54452 17.0411 1.67189 16.9319 1.67189 16.7683C1.67189 16.7683 1.67189 16.6228 1.54452 16.4956C1.54452 16.4956 1.5082 16.441 1.4354 16.4228H1.36276L1.05346 16.35L1.0533 15.1682H0.799055C0.799055 15.1682 0.68993 15.1319 0.67185 15.0955L0.0172642 13.8043V13.7499H-0.000976562V12.4954C-0.000976562 12.4954 0.0353449 12.3863 0.089907 12.3681L0.344477 12.2678V5.51453L0.126228 5.14972C0.0653229 5.04492 0.0464802 4.92091 0.0735096 4.80275C0.100539 4.68459 0.171424 4.58111 0.271834 4.51321L1.76277 3.40405C1.94454 3.29509 2.16279 3.29509 2.32631 3.40405ZM8.52656 25.0777C8.16006 25.0777 7.80857 25.2233 7.54941 25.4824C7.29025 25.7416 7.14466 26.0931 7.14466 26.4596C7.14466 26.8261 7.29025 27.1776 7.54941 27.4367C7.80857 27.6959 8.16006 27.8415 8.52656 27.8415C8.89306 27.8415 9.24455 27.6959 9.5037 27.4367C9.76286 27.1776 9.90845 26.8261 9.90845 26.4596C9.90845 26.0931 9.76286 25.7416 9.5037 25.4824C9.24455 25.2233 8.89306 25.0777 8.52656 25.0777ZM29.6365 25.0777C29.27 25.0776 28.9185 25.2232 28.6593 25.4823C28.4001 25.7414 28.2544 26.0928 28.2544 26.4594C28.2543 26.8259 28.3998 27.1774 28.6589 27.4366C28.9181 27.6958 29.2695 27.8414 29.636 27.8415C29.8175 27.8415 29.9972 27.8058 30.1649 27.7364C30.3325 27.667 30.4849 27.5652 30.6132 27.4369C30.7416 27.3086 30.8434 27.1563 30.9129 26.9886C30.9824 26.821 31.0181 26.6413 31.0182 26.4598C31.0182 26.2784 30.9825 26.0987 30.9131 25.931C30.8436 25.7633 30.7419 25.611 30.6136 25.4826C30.4853 25.3543 30.333 25.2525 30.1653 25.183C29.9977 25.1135 29.818 25.0777 29.6365 25.0777ZM10.8858 19.1741L12.0253 20.4772L13.3021 19.525L10.8858 19.1741ZM14.4521 19.4927L14.7606 19.9863H17.8178V16.9259C16.2929 17.0467 14.97 18.0531 14.4521 19.4928V19.4927ZM20.527 16.9135H18.8361V19.9863H20.424C20.4298 19.9152 20.4527 19.8466 20.4907 19.7863L20.527 19.7264V16.9135ZM25.4 12.9862L21.4968 19.4226H25.4V12.9863V12.9862ZM11.0135 15.2796L10.5449 18.4773L13.2573 18.8647L11.0135 15.2796ZM5.34819 6.10576L5.44836 6.24608L5.09906 6.49473L9.14482 11.0043L13.8794 18.577C14.7359 17.0646 16.3605 16.0409 18.218 16.0409L18.1997 16.0591H21.0542C21.1999 16.0591 21.309 16.1865 21.309 16.3137L21.3088 18.4376L24.707 12.835L23.1636 12.3498L23.2836 11.9564L13.9108 8.89882L13.8052 9.22076L12.5267 8.80074L12.6315 8.48153L5.34819 6.10576ZM10.3266 15.1682L7.91933 15.7821L9.90357 18.0512L10.3266 15.1682ZM8.36543 11.1607L7.76301 15.1499L10.4722 14.459L10.4972 14.4547L8.59936 11.4226L8.36543 11.1607ZM7.70844 10.9135L4.83441 11.7082L5.87189 13.4411L7.10602 14.8523L7.70828 10.9136L7.70844 10.9135ZM0.853457 6.36593V12.0673L1.28995 11.8954H1.54468L1.98102 12.0671V8.25144L0.853457 6.36593ZM5.24995 7.67526L4.74465 11.0589L7.575 10.2763L5.24995 7.67526ZM4.61888 7.2858L2.9353 8.53577L4.13326 10.5368L4.61888 7.2858Z" fill="url(#paint0_linear_1041_4725)"/>
</g>
<defs>
<linearGradient id="paint0_linear_1041_4725" x1="6.79929" y1="3.32233" x2="21.15" y2="31.7336" gradientUnits="userSpaceOnUse">
<stop stop-color="#A578FF"/>
<stop offset="1" stop-color="#8F9BFF"/>
</linearGradient>
<clipPath id="clip0_1041_4725">
<rect width="32" height="32" fill="white"/>
</clipPath>
</defs>
</svg>
