<svg width="32" height="32" viewBox="0 0 32 32" fill="none" xmlns="http://www.w3.org/2000/svg">
<path d="M23.9756 17.0972C24.6032 17.0704 25.1264 17.5732 25.126 18.2007V28.5464C25.1259 29.1744 24.6026 29.6759 23.9756 29.649L7.51562 28.9507C6.92497 28.9257 6.45801 28.4389 6.45801 27.8472V18.899C6.45822 18.3075 6.92467 17.8214 7.51562 17.7964L23.9756 17.0982V17.0972ZM29.9824 18.48C30.477 18.4801 30.8779 18.8814 30.8779 19.3756V27.3716C30.8779 27.8663 30.4771 28.2671 29.9824 28.2672H26.2354C26.1639 28.267 26.1113 28.2038 26.1113 28.1324V18.6148C26.1113 18.5433 26.1639 18.4802 26.2354 18.48H29.9824ZM20.4102 11.6363C20.5206 11.6363 20.6104 11.726 20.6104 11.8365V13.1627C20.6104 13.2731 20.7001 13.3629 20.8105 13.3629H22.6719C22.9783 13.363 23.2266 13.611 23.2266 13.9175V16.0806C23.2266 16.1878 23.1422 16.2763 23.0352 16.2808L15.7393 16.5904C15.6257 16.5952 15.5315 16.5048 15.5312 16.3912V13.9175C15.5313 13.9014 15.5316 13.8854 15.5332 13.8697C15.5352 13.8503 15.5352 13.8305 15.5332 13.8111C15.5317 13.7973 15.5312 13.7832 15.5312 13.7691V11.8365C15.5312 11.7262 15.6202 11.6365 15.7305 11.6363H20.4102ZM3.43652 2.35016C4.828 2.54993 7.57319 3.1602 9.53027 5.01227L13.6172 8.55524C13.9162 8.80654 14.4338 9.07521 14.6553 9.04547L14.7305 9.03571H22.3643C22.9955 9.03582 23.5068 9.54705 23.5068 10.1783C23.5068 10.8096 22.9956 11.3207 22.3643 11.3209H14.8701C14.7885 11.3285 14.7066 11.3326 14.626 11.3326C13.4044 11.3324 12.3422 10.4731 12.126 10.2867L7.99219 6.70368L7.97363 6.68512C5.94292 4.74923 2.48015 4.53664 2.42969 4.53375L1.12207 4.46539C1.13038 4.43989 1.51725 3.25696 1.81152 2.97809C2.08931 2.71497 3.14278 2.4146 3.3584 2.35504C3.38421 2.34791 3.41001 2.34635 3.43652 2.35016ZM20.1553 7.7486C20.4069 7.74879 20.6098 7.99057 20.6104 8.28864V8.53961C20.6104 8.64993 20.5214 8.73958 20.4111 8.73981H15.751C15.6405 8.73981 15.5508 8.65007 15.5508 8.53961V8.28864C15.551 7.99058 15.7547 7.7488 16.0059 7.7486H20.1553Z" fill="url(#paint0_linear_1041_4839)"/>
<defs>
<linearGradient id="paint0_linear_1041_4839" x1="7.44519" y1="2.34814" x2="24.1795" y2="30.9574" gradientUnits="userSpaceOnUse">
<stop stop-color="#FCA947"/>
<stop offset="1" stop-color="#FFCD6B"/>
</linearGradient>
</defs>
</svg>
