<svg width="32" height="32" viewBox="0 0 32 32" fill="none" xmlns="http://www.w3.org/2000/svg">
<path d="M21.6999 2.5412C21.8752 2.32904 22.1891 2.29857 22.4021 2.47284L23.1052 3.04803C23.3186 3.22265 23.3507 3.53739 23.1765 3.75116L22.0163 5.17401L18.9324 9.06268L18.2546 9.88593C18.1033 10.0696 17.8445 10.1168 17.6199 10.0383C16.6742 9.70764 15.5432 9.8966 14.7761 10.6047C13.6782 11.5809 13.4683 13.1677 14.2478 14.3547C14.3829 14.5605 14.3925 14.8335 14.2361 15.0236L13.5701 15.8332L9.86986 20.4748C9.72463 20.6571 9.7445 20.9176 9.86302 21.1183C9.96724 21.2949 10.0449 21.4922 10.1199 21.7101C10.134 21.7513 10.1867 21.7634 10.2175 21.7326L11.0896 20.6603L14.3738 16.5041L15.0466 15.6877C15.2006 15.5007 15.4656 15.4554 15.6921 15.5412C16.6747 15.9134 17.7603 15.6816 18.531 15.0295C19.6302 14.0524 19.8386 12.463 19.1072 11.2756C18.9814 11.0712 18.9764 10.8057 19.1286 10.6203L19.8044 9.79999L22.3523 6.58221L22.9626 5.79706C23.1402 5.56913 23.4743 5.53801 23.6804 5.74042C27.041 9.04757 27.8313 14.1815 25.5701 18.381C22.7544 23.476 16.3184 25.4202 11.2234 22.6047C10.838 22.412 10.2427 22.7701 10.1628 23.1935C10.1251 23.3939 10.0677 23.5903 9.99095 23.7805C9.96474 23.8453 9.94993 23.9146 9.94993 23.9846V25.7853C9.94993 26.063 10.1762 26.2875 10.4538 26.2853L26.7419 26.1594C27.0196 26.1572 27.2458 26.3817 27.2458 26.6594V29.343C27.2456 29.6189 27.0218 29.8429 26.7458 29.843H7.03099C6.75496 29.843 6.53117 29.6189 6.53099 29.343V25.5119C6.53078 25.2969 6.38997 25.1107 6.19798 25.0139C5.19144 24.5061 4.60591 23.3477 4.78782 22.1349C4.92691 21.0696 5.67402 20.2603 6.60911 19.9504C7.0491 19.8044 7.40399 19.1513 7.16185 18.756C5.31359 15.7387 5.11668 11.9352 6.66478 8.66034C9.15449 3.48437 15.2299 1.25391 20.3855 3.53339C20.5966 3.62669 20.8468 3.57367 20.9939 3.39569L21.6999 2.5412ZM7.40208 22.0012C7.06703 22.0012 6.73148 22.336 6.73118 22.6711C6.73118 23.0063 6.99984 23.342 7.40208 23.342C7.73726 23.3419 8.072 23.0063 8.072 22.6711C8.07177 22.336 7.80411 22.0012 7.40208 22.0012ZM23.5388 7.98749C23.3484 7.73878 22.9773 7.74881 22.7839 7.9953L20.6697 10.6906C20.5506 10.8427 20.532 11.0494 20.6062 11.2277C20.9666 12.094 21.0513 13.0522 20.8103 13.9562C20.2981 16.133 18.1344 17.5759 15.8972 17.176C15.7033 17.1415 15.5014 17.2065 15.3786 17.3605L12.5368 20.9269C12.3421 21.1717 12.4174 21.5344 12.7029 21.6623C15.8798 23.0843 19.6221 22.5404 22.2849 20.258C25.8864 17.1066 26.403 11.7338 23.5388 7.98749ZM14.9109 12.3586C15.2472 11.4336 16.2562 10.8445 17.2654 11.1808C17.4882 11.2551 17.6451 11.3299 17.7947 11.4621C17.8349 11.4977 17.8794 11.5286 17.9245 11.5578C18.056 11.6428 18.1802 11.7801 18.2556 11.9699C18.269 12.0038 18.2839 12.0377 18.3015 12.0695C18.5322 12.486 18.6049 13.0496 18.4431 13.5353C18.1067 14.4604 17.0968 15.0495 16.0876 14.7131C15.6674 14.5449 15.331 14.2925 15.0788 13.8723C14.8266 13.4518 14.7428 12.8631 14.9109 12.3586Z" fill="url(#paint0_linear_1041_4861)"/>
<defs>
<linearGradient id="paint0_linear_1041_4861" x1="9.53421" y1="2.35974" x2="28.2731" y2="26.4146" gradientUnits="userSpaceOnUse">
<stop stop-color="#A578FF"/>
<stop offset="1" stop-color="#8F9BFF"/>
</linearGradient>
</defs>
</svg>
