<svg width="32" height="32" viewBox="0 0 32 32" fill="none" xmlns="http://www.w3.org/2000/svg">
<path d="M19.4697 2.94296C19.6737 2.92256 19.8779 2.94333 20.0615 3.00448C22.3682 3.75978 24.6757 4.53541 26.9824 5.31112C28.2681 5.73982 29.0438 6.82168 29.0439 8.18905V10.3326C29.0439 10.9653 28.8396 11.2103 28.207 11.3736V13.7623C28.4724 13.946 28.7176 14.0688 28.8809 14.2525C29.0031 14.3954 29.0439 14.6402 29.0439 14.8238V17.9264C29.0439 18.5387 28.8194 18.8049 28.207 18.9478V21.6012L28.9619 21.4586C29.0231 21.7443 29.0638 21.9893 29.125 22.275L28.2275 22.4791V23.7037L28.9619 23.5611C29.0231 23.8468 29.0638 24.0918 29.125 24.3775L28.207 24.5816V25.8267L28.9619 25.6842C29.0027 25.9495 29.0638 26.2149 29.125 26.5006L28.207 26.7047V27.2555C28.1866 28.0515 27.8395 28.6235 27.1455 29.0113C27.0231 29.0725 26.8802 29.0928 26.7578 29.0113C26.0842 28.6439 25.7573 28.133 25.6553 27.2144L24.9199 27.358C24.8587 27.0927 24.818 26.8273 24.7568 26.5416L25.6553 26.357V25.1119L24.9199 25.2555C24.8587 24.9902 24.818 24.7247 24.7568 24.4391L25.6553 24.2545V23.0094L24.9199 23.1324C24.8587 22.8467 24.818 22.6017 24.7568 22.316L25.6758 22.1119V18.9478C25.0226 18.7641 24.8389 18.5392 24.8389 17.8453V15.5182C24.7368 15.4977 24.6344 15.4769 24.5527 15.4361C23.716 15.1299 23.1447 14.3546 23.1445 13.4566C23.1445 12.436 23.1443 11.4147 23.1035 10.3736C23.0219 10.9044 22.9195 11.4356 22.8379 11.9664C22.3072 15.0894 21.7973 18.233 21.2666 21.356C21.1849 21.8664 21.103 22.3975 21.001 22.9078C20.6539 24.5 19.4289 25.5411 17.7959 25.6432C17.7552 25.6432 17.7348 25.6636 17.6738 25.6637C17.7146 25.7452 17.7551 25.8066 17.7959 25.8678C18.5918 27.2557 17.6124 29.011 16.0205 29.0113C12.3257 29.0317 8.63037 29.0317 4.93555 29.0113C3.79243 29.0113 2.87408 28.0519 2.87402 26.9088C2.87402 25.7656 3.79239 24.8472 4.93555 24.8267H6.22168V24.0103C6.14003 23.9899 6.05822 23.9898 5.97656 23.9898H3.83301C3.20032 23.9898 2.87402 23.6625 2.87402 23.0094C2.87412 21.2336 3.67045 19.9274 5.24219 19.1109C5.3848 19.0497 5.40527 18.9472 5.40527 18.8248V14.4361C5.40527 12.5989 6.6707 11.3336 8.52832 11.3336H11.6514C14.4276 11.3336 16.6731 13.2114 17.1426 15.9264C17.2242 16.4163 17.2042 16.9267 17.2246 17.4166C17.245 17.8248 17.2248 18.2125 17.2656 18.6207L17.3262 18.4371C17.7753 16.804 18.2451 15.1709 18.6738 13.5787C18.7351 13.4358 18.6939 13.2725 18.5918 13.15L16.3877 10.4557C15.0201 8.78192 15.326 6.49578 17.0811 5.23007C17.1831 5.16884 17.2452 5.06638 17.2656 4.94393C17.4698 3.86207 18.3675 3.04508 19.4697 2.94296ZM16.1016 25.6842C15.53 25.6026 14.9583 25.9699 14.8154 26.5211H16.3877V27.358H14.8154C14.9992 27.9295 15.5506 28.2766 16.1426 28.1949C16.8161 28.0928 17.3059 27.4601 17.2041 26.7662C17.1224 26.1946 16.6731 25.7454 16.1016 25.6842ZM6.16016 26.5211C5.95605 25.9496 5.38486 25.5823 4.79297 25.6842C4.09891 25.7862 3.62947 26.4393 3.75195 27.1334C3.83368 27.7047 4.28217 28.1335 4.85352 28.1949C5.42499 28.2561 6.01702 27.8886 6.13965 27.358H4.58887V26.5211H6.16016ZM26.5127 27.0308C26.4719 27.4799 26.5739 27.8475 26.9209 28.1129C27.3086 27.7863 27.4107 27.4597 27.3291 26.8678L26.5127 27.0308ZM26.5127 24.9283V26.1734C26.7574 26.1326 27.0022 26.092 27.2266 26.0308C27.2877 26.0105 27.3292 25.9494 27.3496 25.8883C27.37 25.5208 27.3496 25.1531 27.3496 24.7652L26.5127 24.9283ZM17.2246 21.6832C17.2246 22.1117 17.245 22.4995 17.2246 22.8668C17.2042 23.1117 17.2044 23.398 17.0615 23.6021C16.9187 23.8061 16.653 23.9077 16.4082 24.0709V24.8062C16.8776 24.8062 17.347 24.8266 17.8164 24.8062C18.8165 24.745 19.6939 24.0917 20.041 23.1529C20.0818 23.0509 20.1027 22.9485 19.96 22.8873C19.0619 22.4995 18.1839 22.1118 17.2246 21.6832ZM7.12012 24.8062H15.5303V23.9898H7.12012V24.8062ZM27.3496 22.6422C27.1046 22.683 26.8593 22.7235 26.6348 22.7848C26.5736 22.8052 26.5331 22.8671 26.5127 22.9283V24.0504L27.3496 23.8873V22.6422ZM5.93555 19.8863C5.85408 19.8457 5.7524 19.8457 5.6709 19.8863C5.36485 20.0495 5.05825 20.2332 4.79297 20.4576C3.99684 21.1721 3.6702 22.0709 3.73145 23.1324H7.91602C7.77312 21.7035 7.11953 20.6212 5.93555 19.8863ZM7.95703 19.7642H9.61035V20.6422H7.93652C8.05886 20.8869 8.161 21.1111 8.30371 21.315C8.36495 21.3967 8.44676 21.4382 8.54883 21.4586C8.89581 21.479 9.24296 21.4586 9.61035 21.4586V22.316H8.6709L8.79395 23.1324H10.4678V18.9273H7.95703V19.7642ZM26.5332 21.9478L27.3291 21.7848V18.9478H26.5332V21.9478ZM12.2227 13.9459C10.9368 13.8235 9.63049 13.8853 8.32422 13.8853C8.12008 13.8853 7.95703 14.0279 7.95703 14.232C7.93662 14.6607 7.95694 15.1102 7.93652 15.5797H8.20215C9.14086 15.5798 9.63086 16.0695 9.63086 17.0084V18.0904H10.2637C10.9371 18.0905 11.1824 18.2742 11.3457 18.9273H14.6934C14.6934 18.1313 14.7342 17.3758 14.6934 16.6002C14.6117 15.2529 13.5495 14.0684 12.2227 13.9459ZM23.9814 8.27108C23.9814 10.0675 23.961 11.8437 23.9814 13.5992C23.9815 14.0687 24.3693 14.4768 24.8184 14.6197C24.9204 14.1707 25.2062 13.9261 25.6553 13.8648V11.3541C25.0429 11.2316 24.8184 10.9655 24.8184 10.3531V8.69979C24.8183 8.63853 24.777 8.5161 24.7158 8.49569C24.4914 8.41411 24.2466 8.35268 23.9814 8.27108ZM26.5127 13.8648H27.3496V11.3541H26.5127V13.8648ZM17.3262 6.10702C16.2648 6.88268 16.0405 8.57717 16.918 9.7203C17.2854 10.2102 17.6737 10.66 18.0615 11.1295C18.3676 11.5172 18.6736 11.8845 19.0205 12.2926C19.5104 10.5574 19.9807 8.86286 20.4502 7.16854C20.3685 7.14813 20.3269 7.12841 20.2656 7.108C19.5717 6.90388 18.8571 6.67919 18.1631 6.45468C17.8774 6.37301 17.6323 6.22946 17.3262 6.10702ZM21.2051 4.2496C21.4704 4.6782 21.5314 5.06602 21.3682 5.47421C21.2049 5.88242 20.8991 6.10778 20.4297 6.27108L28.207 8.65878V8.33261C28.207 7.08748 27.717 6.39333 26.5332 6.00546L23.7363 5.08651L21.2051 4.2496ZM20.1846 4.59725C19.96 4.59725 19.7559 4.78091 19.7559 5.00546C19.7561 5.22984 19.9397 5.43417 20.1641 5.43417C20.3886 5.43411 20.5928 5.2495 20.5928 5.02499C20.6129 4.80069 20.4293 4.59736 20.1846 4.59725Z" fill="url(#paint0_linear_1041_4805)"/>
<defs>
<linearGradient id="paint0_linear_1041_4805" x1="8.45236" y1="2.93536" x2="25.0774" y2="29.1349" gradientUnits="userSpaceOnUse">
<stop stop-color="#07CB89"/>
<stop offset="1" stop-color="#39D398"/>
</linearGradient>
</defs>
</svg>
