<svg width="32" height="32" viewBox="0 0 32 32" fill="none" xmlns="http://www.w3.org/2000/svg">
<path d="M22.4023 4.02786C22.6785 4.02786 22.9023 4.25172 22.9023 4.52786V24.3902C22.9023 24.6663 23.1262 24.8902 23.4023 24.8902H25.8809C26.157 24.8902 26.3809 25.114 26.3809 25.3902V27.4722C26.3809 27.7483 26.157 27.9722 25.8809 27.9722H6.08984C5.8137 27.9722 5.58984 27.7483 5.58984 27.4722V25.3902C5.58984 25.114 5.8137 24.8902 6.08984 24.8902H8.50586C8.782 24.8902 9.00586 24.6663 9.00586 24.3902V4.52786C9.00586 4.25172 9.22972 4.02786 9.50586 4.02786H22.4023ZM8.11914 21.3472C8.11914 21.6233 7.89528 21.8472 7.61914 21.8472H4.58887C4.31272 21.8472 4.08887 21.6233 4.08887 21.3472V18.6695C4.08887 18.3933 3.86501 18.1695 3.58887 18.1695H3.43359C3.15745 18.1695 2.93359 17.9456 2.93359 17.6695V13.5435C2.93359 13.2673 3.15745 13.0435 3.43359 13.0435H3.58887C3.86501 13.0435 4.08887 12.8196 4.08887 12.5435V9.86673C4.08887 9.59059 4.31272 9.36673 4.58887 9.36673H7.61914C7.89528 9.36673 8.11914 9.59059 8.11914 9.86673V21.3472ZM27.9111 12.5435C27.9111 12.8196 28.135 13.0435 28.4111 13.0435H28.5654C28.8416 13.0435 29.0654 13.2673 29.0654 13.5435V17.6695C29.0654 17.9456 28.8416 18.1695 28.5654 18.1695H28.4111C28.135 18.1695 27.9111 18.3933 27.9111 18.6695V21.3472C27.9111 21.6233 27.6873 21.8472 27.4111 21.8472H24.3809C24.1047 21.8472 23.8809 21.6233 23.8809 21.3472V9.86673C23.8809 9.59059 24.1047 9.36673 24.3809 9.36673H27.4111C27.6873 9.36673 27.9111 9.59059 27.9111 9.86673V12.5435ZM17.8584 8.49173C17.8991 8.38656 17.7623 8.30523 17.6895 8.39114L11.7529 15.4458C11.6988 15.5109 11.7453 15.6099 11.8301 15.6099H15.7754C15.8459 15.61 15.8941 15.6811 15.8682 15.7466L13.9932 20.4195C13.9511 20.5244 14.0884 20.6077 14.1621 20.522L20.1514 13.5591C20.2071 13.4943 20.1607 13.3931 20.0752 13.3931H16.1006C16.0304 13.3931 15.9816 13.3228 16.0068 13.2574L17.8584 8.49173Z" fill="url(#paint0_linear_1041_4796)"/>
<defs>
<linearGradient id="paint0_linear_1041_4796" x1="8.48661" y1="4.02786" x2="23.1532" y2="29.1361" gradientUnits="userSpaceOnUse">
<stop stop-color="#A578FF"/>
<stop offset="1" stop-color="#8F9BFF"/>
</linearGradient>
</defs>
</svg>
