<svg width="32" height="32" viewBox="0 0 32 32" fill="none" xmlns="http://www.w3.org/2000/svg">
<path d="M7.75293 20.6366C8.66793 20.6565 9.53857 21.0032 10.1777 21.6024C10.8167 22.2016 11.1737 23.0057 11.1729 23.8427C11.1937 24.5863 10.9387 25.315 10.4492 25.9091C9.95975 26.503 9.26472 26.9276 8.47754 27.1142C7.6902 27.3008 6.85666 27.2383 6.11328 26.9364C5.37005 26.6345 4.76041 26.1113 4.38379 25.4521C4.0281 24.8447 3.8944 24.1485 4.00293 23.4667C4.12908 22.6521 4.58457 21.9103 5.27832 21.3866C5.97208 20.863 6.85458 20.5954 7.75293 20.6366ZM25.8057 20.6366C26.7185 20.6586 27.5862 21.0054 28.2236 21.6034C28.8609 22.2014 29.2179 23.0037 29.2188 23.8388C29.2385 24.5812 28.9829 25.3082 28.4941 25.9013C28.0054 26.4941 27.312 26.9184 26.5264 27.1054C25.7404 27.2923 24.9079 27.2308 24.165 26.9306C23.4223 26.6304 22.8127 26.1093 22.4346 25.4521C22.0797 24.8444 21.9464 24.1483 22.0557 23.4667C22.1813 22.6519 22.6362 21.9094 23.3301 21.3856C24.024 20.8619 24.9071 20.5949 25.8057 20.6366ZM10.3779 10.3534C10.5363 10.353 10.6907 10.398 10.8203 10.4813C10.9499 10.5648 11.0485 10.6826 11.1016 10.8192L12.1182 13.4286C12.1726 13.564 12.2718 13.6813 12.4014 13.7636C12.5309 13.8458 12.6851 13.8892 12.8428 13.8886H29.9355C30.0368 13.888 30.1377 13.9063 30.2314 13.9413C30.325 13.9764 30.4107 14.0275 30.4824 14.0927C30.5541 14.1579 30.6106 14.2358 30.6494 14.3212C30.6882 14.4066 30.708 14.4982 30.708 14.5907V17.0565C30.708 17.2406 30.6293 17.4174 30.4883 17.5487C30.3472 17.6801 30.1554 17.7563 29.9541 17.7597C29.8497 17.7582 29.7461 17.7762 29.6494 17.8124C29.5527 17.8487 29.4649 17.9025 29.3916 17.9706L27.208 20.1171C27.1507 20.1717 27.0246 20.1176 27.0234 20.1171C26.554 19.9511 26.055 19.8655 25.5518 19.8642C24.5621 19.8824 23.6075 20.2045 22.8418 20.7782C22.0762 21.352 21.5434 22.1444 21.3291 23.0282C21.3176 23.0767 21.3178 23.1021 21.3018 23.1757C21.2868 23.2439 21.2603 23.307 21.2564 23.3711C21.2557 23.3814 21.2551 23.3917 21.2533 23.4019C21.2252 23.556 21.1415 23.6976 21.0156 23.8036C20.8854 23.9131 20.7175 23.9786 20.541 23.9882H12.6426C12.458 23.9878 12.279 23.927 12.1396 23.8163C12.0003 23.7055 11.9098 23.5519 11.8838 23.3847C11.7279 22.4426 11.2124 21.5817 10.4297 20.953C9.64697 20.3244 8.64692 19.9687 7.60547 19.9491C6.59976 19.97 5.63331 20.3105 4.87305 20.913C4.11276 21.5156 3.60605 22.3423 3.44043 23.2499L3.37275 23.9372C3.37165 23.9484 3.36987 23.9596 3.3658 23.9701C3.32626 24.0721 3.20134 24.0722 3.08496 24.0722H2.39355C2.09332 24.0684 1.80607 23.9578 1.59375 23.7636C1.38164 23.5694 1.26101 23.3066 1.25684 23.0321V19.0253C1.25719 18.9131 1.28607 18.802 1.3418 18.7021L5.81836 10.7333C5.88382 10.6175 5.98329 10.5201 6.10547 10.453C6.22748 10.3862 6.36753 10.3518 6.50977 10.3534H10.3779ZM7.62207 12.5409C7.47999 12.5396 7.3398 12.574 7.21777 12.6405C7.09571 12.7071 6.99587 12.8038 6.92969 12.9188L4.69922 16.8144C4.63777 16.9213 4.60742 17.0412 4.61133 17.162C4.61527 17.283 4.65422 17.4012 4.72266 17.5048C4.79098 17.608 4.88704 17.6935 5.00195 17.7528C5.11717 17.8122 5.24764 17.8437 5.37988 17.8437H9.40918C9.52415 17.8436 9.63756 17.8198 9.74121 17.7743C9.84503 17.7287 9.93682 17.6622 10.0088 17.58C10.0806 17.4979 10.1313 17.4021 10.1572 17.2997C10.1831 17.1971 10.1835 17.09 10.1582 16.9872L9.21289 13.0917C9.175 12.9369 9.08099 12.7981 8.94629 12.6981C8.81163 12.5983 8.64402 12.5429 8.4707 12.5409H7.62207ZM11.916 8.19326C12.0412 8.19358 12.1629 8.23149 12.2627 8.30069C12.3624 8.36986 12.4346 8.46692 12.4688 8.57705L13.2402 10.6964C13.2689 10.7754 13.344 10.828 13.4281 10.828H30.2588C30.3212 10.8269 30.3833 10.8374 30.4414 10.8583C30.4995 10.8793 30.5528 10.9103 30.5977 10.9501C30.6424 10.9899 30.6785 11.0373 30.7031 11.0897C30.7277 11.1421 30.7405 11.1988 30.7412 11.2558V12.6063C30.7381 12.7206 30.685 12.8291 30.5947 12.9081C30.5044 12.9871 30.3837 13.0305 30.2588 13.0282H13.2881C13.167 13.0287 13.0487 12.994 12.9502 12.9296C12.8518 12.8653 12.778 12.7745 12.7393 12.6698L11.5439 9.37966C11.5152 9.30059 11.4401 9.24795 11.356 9.24795H9.83984C9.68771 9.24697 9.54181 9.1914 9.43457 9.09268C9.32732 8.99389 9.26758 8.85983 9.26758 8.72061C9.26764 8.58158 9.32754 8.44822 9.43457 8.34951C9.54181 8.25079 9.68771 8.19424 9.83984 8.19326H11.916ZM25.5928 4.78018C25.65 4.77835 25.7073 4.78694 25.7607 4.80557C25.8141 4.82418 25.863 4.85252 25.9043 4.88858C25.9456 4.92477 25.9792 4.96849 26.002 5.01651L27.1914 7.53799C27.225 7.60798 27.2807 7.66699 27.3506 7.70889C27.4206 7.75082 27.5023 7.77319 27.5859 7.77334H28.6155C28.6257 7.77334 28.6359 7.77412 28.646 7.77568L29.5117 7.90908C29.5716 7.9183 29.6292 7.93873 29.6797 7.96963C29.73 8.00048 29.7726 8.04081 29.8047 8.08779L30.6768 9.36416C30.7176 9.42324 30.7399 9.49155 30.7422 9.56143C30.7445 9.63129 30.7264 9.70044 30.6895 9.76162C30.6525 9.82275 30.598 9.87366 30.5322 9.90908C30.4663 9.94449 30.3909 9.96303 30.3145 9.96279H15.373C15.2982 9.96298 15.2242 9.94588 15.1592 9.91201C15.094 9.87796 15.0389 9.82866 15.001 9.76944L14.6465 9.20987C14.597 9.13481 14.5756 9.04691 14.5869 8.95987C14.5982 8.8728 14.6417 8.7918 14.709 8.7294C14.738 8.70337 14.7705 8.68069 14.8057 8.66201L16.5 7.81826C16.5637 7.78647 16.6355 7.76947 16.708 7.76944H18.7676C18.8358 7.76942 18.9031 7.75488 18.9639 7.72647C19.0248 7.69787 19.0782 7.65626 19.1182 7.60537L20.2705 6.14346C20.3058 6.09776 20.3523 6.05919 20.4053 6.03115C20.4581 6.00324 20.5174 5.98561 20.5781 5.98037L23.165 5.75088C23.2151 5.74656 23.2643 5.73475 23.3105 5.7167L25.4277 4.81631C25.4796 4.79436 25.5357 4.78203 25.5928 4.78018Z" fill="url(#paint0_linear_1041_4765)"/>
<defs>
<linearGradient id="paint0_linear_1041_4765" x1="7.52251" y1="4.77994" x2="19.9165" y2="30.3261" gradientUnits="userSpaceOnUse">
<stop stop-color="#FCA947"/>
<stop offset="1" stop-color="#FFCD6B"/>
</linearGradient>
</defs>
</svg>
