<svg width="32" height="32" viewBox="0 0 32 32" fill="none" xmlns="http://www.w3.org/2000/svg">
<path d="M22.1664 9.82255C22.1664 9.7121 22.0769 9.62255 21.9664 9.62255H21.2261C21.1156 9.62255 21.0261 9.7121 21.0261 9.82255V13.686C21.0261 13.8359 21.185 13.9326 21.3181 13.8635L22.0585 13.4796C22.1248 13.4453 22.1664 13.3768 22.1664 13.3021V9.82255ZM13.1696 15.3455C13.2375 15.3342 13.2804 15.2662 13.2614 15.1999L12.0893 11.1176C12.0782 11.0791 12.0559 11.0448 12.0251 11.0192L11.3121 10.425C10.6829 9.92171 10.0122 9.62666 9.25836 9.53987C9.24788 9.53866 9.23728 9.53834 9.22674 9.53884L3.27027 9.82248C3.1467 9.82836 3.05805 9.9439 3.08436 10.0648L4.55817 16.8363C4.58006 16.9369 4.67473 17.0045 4.77696 16.9924L5.24619 16.9372C5.29061 16.932 5.33594 16.9422 5.3744 16.9651C7.03784 17.9523 8.50622 17.6913 9.85504 16.6727C9.91938 16.6241 10.0064 16.6168 10.0769 16.6559L10.1873 16.7172C10.2751 16.766 10.3854 16.7421 10.4451 16.6615L11.0473 15.8485C11.12 15.7504 11.263 15.7398 11.3494 15.8262L11.3722 15.8489C11.4363 15.9131 11.4493 16.0124 11.4036 16.0909L10.5282 17.5966C10.4718 17.6936 10.3464 17.7246 10.2513 17.6652C10.16 17.6081 10.0399 17.6342 9.98045 17.7239L7.78662 21.0346C7.77193 21.0567 7.7528 21.0759 7.73054 21.0905C6.75216 21.7291 5.77379 21.778 4.79542 21.2751C4.7491 21.2513 4.71477 21.2093 4.69924 21.1596L4.12967 19.337C4.10561 19.26 4.03763 19.205 3.9573 19.1975L2.27385 19.0409H2.22663C2.1313 19.0409 2.04921 18.9736 2.03052 18.8801L2.02044 18.8297L1.60719 17.5073C1.60116 17.488 1.59809 17.4679 1.59809 17.4477V17.3248C1.59809 17.2619 1.62773 17.2026 1.67809 17.1648L1.76703 17.0981L2.61852 16.5428C2.69022 16.496 2.72421 16.4088 2.70307 16.3259L2.2108 14.3947C2.19895 14.3482 2.15176 14.32 2.10522 14.3316C2.05844 14.3433 2.01105 14.3148 1.99949 14.268L1.20918 11.0673C1.18909 10.9859 1.1204 10.9257 1.0371 10.9164L0.928622 10.9044C0.848137 10.8954 0.780988 10.8388 0.758544 10.761L0.214014 8.87333C0.184813 8.77209 0.239154 8.66557 0.33825 8.62978L1.68256 8.14434L2.28305 7.8915C2.38822 7.84722 2.50781 7.90899 2.53256 8.02038C2.55337 8.11403 2.643 8.17568 2.73789 8.16162L4.76357 7.86152C4.80996 7.85465 4.84031 7.80927 4.82893 7.76377C4.81764 7.7186 4.84748 7.67346 4.89346 7.66615L8.4442 7.10126C8.4891 7.09411 8.53163 7.1237 8.54055 7.16828L8.55702 7.25064C8.57025 7.31679 8.66342 7.32056 8.68195 7.25569C8.68898 7.23109 8.70993 7.21299 8.7353 7.2096L9.79668 7.06809C9.89179 7.0554 9.98251 7.11206 10.0129 7.20309L10.1262 7.543C10.1534 7.62467 10.2298 7.67943 10.3159 7.6814C10.6751 7.6896 11.0272 7.7285 11.32 7.79811C11.3428 7.8035 11.3642 7.81315 11.3835 7.82621C12.896 8.84817 14.4088 9.87037 15.9601 10.9311C16.0338 10.9815 16.0635 11.0742 16.039 11.1601C16.0186 11.2314 16.0033 11.3027 16.0006 11.374C16 11.3889 15.9985 11.4038 15.9952 11.4183C15.8215 12.1872 15.7064 12.9563 15.7216 13.7496C15.725 13.9269 15.5155 14.0351 15.3788 13.9222L13.3278 12.2279C13.1764 12.1029 12.9544 12.2479 13.008 12.4367L13.7621 15.0926C13.7852 15.1738 13.8698 15.2209 13.9511 15.1977C14.0328 15.1744 14.1179 15.2223 14.1404 15.3043L15.0307 18.5558C15.0545 18.6428 15.1335 18.703 15.2236 18.703H20.9528C21.0632 18.703 21.1528 18.6135 21.1528 18.503V18.0161C21.1528 17.9056 21.0632 17.8161 20.9528 17.8161H16.707C16.5965 17.8161 16.507 17.7265 16.507 17.6161V17.0447C16.507 16.9342 16.5965 16.8447 16.707 16.8447H16.9897C17.1262 16.8447 17.2226 16.711 17.1794 16.5814L16.4327 14.3414C16.4259 14.321 16.4225 14.2996 16.4225 14.2782V14.2261C16.3802 13.2547 16.4647 12.3678 16.6759 11.5654C16.8871 10.7629 17.1827 10.0027 17.5206 9.24244L17.5498 9.18406C17.5837 9.1163 17.6529 9.0735 17.7287 9.0735H23.9092C24.0197 9.0735 24.1092 9.16304 24.1092 9.2735V13.1392C24.1092 13.2497 24.1987 13.3392 24.3092 13.3392H31.0891C31.1996 13.3392 31.2891 13.4288 31.2891 13.5392V16.6025C31.2891 16.7129 31.3786 16.8025 31.4891 16.8025H31.6382C31.7486 16.8025 31.8382 16.892 31.8382 17.0025V17.5739C31.8382 17.6843 31.7486 17.7739 31.6382 17.7739H25.9564C25.8459 17.7739 25.7564 17.8634 25.7564 17.9739V18.4608C25.7564 18.5712 25.8459 18.6608 25.9564 18.6608H31.6382C31.7486 18.6608 31.8382 18.7503 31.8382 18.8608V21.7213C31.8382 21.8038 31.7713 21.8706 31.6888 21.8706H31.6867C31.6485 21.8706 31.6118 21.8554 31.5847 21.8284L30.1488 20.3502C29.8531 20.0545 29.5152 19.8011 29.0929 19.7167C28.755 19.6322 28.3749 19.59 27.9948 19.59H16.8026C16.2113 19.6322 15.789 19.7589 15.2821 20.3502L14.0573 21.7862C14.0303 21.8132 13.9936 21.8284 13.9554 21.8284H13.2437C13.1332 21.8284 13.0437 21.7388 13.0437 21.6284V18.8186C13.0437 18.7081 13.1332 18.6186 13.2437 18.6186H13.6688C13.8007 18.6186 13.8964 18.4932 13.8617 18.3659L13.0773 15.4896C13.0593 15.4237 13.1022 15.3567 13.1696 15.3455ZM3.91933 16.9208C3.89715 16.8099 3.7875 16.7395 3.67741 16.7654L3.19589 16.8787C3.17267 16.8841 3.15061 16.8937 3.13076 16.9069L2.39752 17.3958C2.3241 17.4447 2.29143 17.536 2.31712 17.6204L2.53042 18.3212C2.55405 18.3989 2.62227 18.4546 2.70309 18.4621L3.6218 18.5483C3.76403 18.5616 3.87397 18.4258 3.83137 18.2895L3.56614 17.4408C3.53029 17.326 3.603 17.2058 3.72126 17.1843L3.76298 17.1767C3.87301 17.1567 3.94525 17.0504 3.92332 16.9407L3.91933 16.9208ZM2.98552 16.0974C3.01217 16.2062 3.12303 16.2719 3.23131 16.243L3.46468 16.1808C3.57511 16.1514 3.63845 16.0355 3.60365 15.9267L2.03912 11.0325C2.02799 10.9977 1.99564 10.9741 1.9591 10.9741C1.90444 10.9741 1.86434 11.0254 1.87759 11.0784L2.63772 14.119C2.64688 14.1556 2.62629 14.1931 2.59045 14.2051C2.55475 14.217 2.53415 14.2543 2.5431 14.2908L2.98552 16.0974ZM8.62055 7.8142C8.63454 7.77224 8.599 7.73041 8.55532 7.73743L5.04313 8.30261C5.00492 8.30876 4.96788 8.28632 4.95565 8.24961C4.9435 8.21318 4.90691 8.19076 4.86893 8.19649L2.79076 8.51017C2.74005 8.51783 2.70695 8.56748 2.71939 8.61724C2.7302 8.66049 2.77199 8.68856 2.81612 8.68221L8.57307 7.85387C8.59513 7.8507 8.61351 7.83535 8.62055 7.8142ZM20.5615 9.82255C20.5615 9.7121 20.4719 9.62255 20.3615 9.62255H18.1548C18.0771 9.62255 18.0063 9.6675 17.9741 9.73824C17.7013 10.3382 17.4681 10.9754 17.3094 11.6498C17.1405 12.41 17.0138 13.2125 17.056 14.0994C17.056 14.1228 17.0749 14.1417 17.0982 14.1417H20.3615C20.4719 14.1417 20.5615 14.0521 20.5615 13.9417V9.82255ZM15.1132 24.9538H30.5289C30.909 24.9115 31.2046 24.7426 31.4158 24.5314C31.5425 24.4047 31.6692 24.1935 31.7115 24.0246C31.7537 23.8557 31.7959 23.6445 31.7537 23.4333C31.7115 23.0532 31.5003 22.6309 31.1202 22.2507L29.6842 20.8148C29.4308 20.5614 29.1774 20.3924 28.8817 20.3079C28.5861 20.2235 28.3327 20.2235 27.9526 20.2235H17.3939C16.4225 20.2235 16.2113 20.2235 15.7045 20.7725L14.4797 22.1663C14.2263 22.4619 14.0996 22.7998 14.0151 23.1377C13.9306 23.4333 13.9729 23.729 14.0573 24.0246C14.1418 24.278 14.3107 24.5314 14.5219 24.7004C14.6857 24.8232 14.8494 24.9063 15.0516 24.9497C15.0645 24.9525 15.0776 24.9538 15.0908 24.9538H15.1132ZM30.0221 21.9551C30.0532 21.9551 30.0688 21.9174 30.0468 21.8954L29.5891 21.4376C29.5444 21.3929 29.3885 21.4696 29.3885 21.5327C29.3885 21.6704 29.7132 21.9837 29.8497 21.9661C29.9059 21.9589 29.9633 21.9551 30.0221 21.9551ZM28.6352 22.9054C28.6658 22.8292 28.457 22.5464 28.3749 22.5464C28.0793 22.5464 27.8259 22.4197 27.6147 22.2507C27.4035 22.0396 27.319 21.7862 27.319 21.4905C27.319 21.1949 27.4457 20.9415 27.6147 20.7303C27.6303 20.7147 27.6192 20.6881 27.5972 20.6881H26.9987C26.9766 20.6881 26.9656 20.7147 26.9812 20.7303C27.1923 20.9415 27.2768 21.1949 27.2768 21.4905C27.2768 21.7862 27.1501 22.0396 26.9812 22.2507C26.8122 22.4619 26.5166 22.5464 26.2209 22.5464C25.9253 22.5464 25.6719 22.4197 25.4607 22.2507C25.2495 22.0396 25.1651 21.7862 25.1651 21.4905C25.1651 21.1949 25.2918 20.9415 25.4607 20.7303C25.4763 20.7147 25.4653 20.6881 25.4432 20.6881H24.8025C24.7804 20.6881 24.7694 20.7147 24.785 20.7303C24.9961 20.9415 25.0806 21.1949 25.0806 21.4905C25.0806 21.7862 24.9539 22.0396 24.785 22.2507C24.5738 22.4619 24.3204 22.5464 24.0247 22.5464C23.7291 22.5464 23.4757 22.4197 23.2645 22.2507C23.0533 22.0396 22.9689 21.7862 22.9689 21.4905C22.9689 21.1949 23.0956 20.9415 23.2645 20.7303C23.2801 20.7147 23.2691 20.6881 23.247 20.6881H22.6062C22.5842 20.6881 22.5732 20.7147 22.5888 20.7303C22.7999 20.9415 22.8844 21.1949 22.8844 21.4905C22.8844 21.7862 22.7577 22.0396 22.5888 22.2507C22.3776 22.4619 22.1242 22.5464 21.8285 22.5464C21.5329 22.5464 21.2795 22.4197 21.0683 22.2507C20.8571 22.0396 20.7727 21.7862 20.7727 21.4905C20.7727 21.1949 20.8994 20.9415 21.0683 20.7303C21.0839 20.7147 21.0728 20.6881 21.0508 20.6881H20.3678C20.3458 20.6881 20.3347 20.7147 20.3503 20.7303C20.5615 20.9415 20.646 21.1949 20.646 21.4905C20.646 21.7862 20.5192 22.0396 20.3503 22.2507C20.1391 22.4619 19.8857 22.5464 19.5901 22.5464C19.3025 22.5464 19.0549 22.4265 18.8473 22.2645C18.8357 22.2554 18.8252 22.2449 18.8161 22.2333C18.6541 22.0257 18.5342 21.7781 18.5342 21.4905C18.5342 21.1949 18.6609 20.9415 18.8299 20.7303C18.8454 20.7147 18.8344 20.6881 18.8124 20.6881H18.0871C18.0651 20.6881 18.0541 20.7147 18.0696 20.7303C18.2808 20.9415 18.3653 21.1949 18.3653 21.4905C18.3653 21.7862 18.2386 22.0396 18.0696 22.2507C17.9007 22.4619 17.6051 22.5464 17.3094 22.5464C17.0138 22.5464 16.7604 22.4197 16.5492 22.2507C16.338 22.0396 16.2535 21.7862 16.2535 21.4905C16.2535 21.3928 16.2674 21.2997 16.292 21.2112C16.3421 21.0313 16.2128 20.8687 16.0907 21.0099C16.0749 21.0282 16.0589 21.0476 16.0424 21.0682L15.4338 21.7841C15.3907 21.8349 15.4267 21.9129 15.4933 21.9129C15.9157 21.9129 16.2535 22.0818 16.507 22.3352C16.7604 22.5886 16.9293 22.9687 16.9293 23.3488C16.9293 23.5827 16.8775 23.7907 16.7882 23.9727C16.7098 24.1327 16.8116 24.3625 16.9898 24.3625H18.0338C18.1935 24.3625 18.2968 24.1736 18.2837 24.0144C18.2818 23.9905 18.2808 23.9658 18.2808 23.9401C18.2808 23.729 18.3653 23.5178 18.492 23.3911C18.6187 23.2644 18.8299 23.1799 19.041 23.1799C19.2522 23.1799 19.4634 23.2644 19.5901 23.3911C19.7168 23.5178 19.8013 23.729 19.8013 23.9401C19.8013 23.9658 19.8003 23.9905 19.7983 24.0144C19.7853 24.1736 19.8885 24.3625 20.0483 24.3625H25.1292C25.289 24.3625 25.3922 24.1736 25.3792 24.0144C25.3772 23.9905 25.3762 23.9658 25.3762 23.9401C25.3762 23.729 25.4607 23.5178 25.5874 23.3911C25.7141 23.2644 25.9253 23.1799 26.1365 23.1799C26.3476 23.1799 26.5588 23.2644 26.6855 23.3911C26.8122 23.5178 26.8967 23.729 26.8967 23.9401C26.8967 23.9658 26.8957 23.9905 26.8938 24.0144C26.8807 24.1736 26.984 24.3625 27.1437 24.3625H28.4834C28.6615 24.3625 28.7672 24.1298 28.6899 23.9692C28.5976 23.7776 28.5438 23.5632 28.5438 23.3488C28.5438 23.1998 28.5767 23.0508 28.6352 22.9054ZM30.5028 23.8442C30.4923 23.8521 30.482 23.8604 30.4725 23.8695C30.3475 23.9885 30.1848 24.0668 30.0221 24.0668C29.8531 24.0668 29.6842 23.9824 29.5575 23.8557C29.4308 23.729 29.3463 23.56 29.3463 23.3911C29.3463 23.2221 29.4308 23.0532 29.5575 22.9265C29.6842 22.7998 29.8531 22.7153 30.0221 22.7153C30.191 22.7153 30.3599 22.7998 30.4866 22.9265C30.6133 23.0532 30.6978 23.2221 30.6978 23.3911C30.6978 23.5931 30.6205 23.7565 30.5028 23.8442ZM26.3476 24.1935C26.3054 24.2358 26.2209 24.278 26.1787 24.278C26.1095 24.278 26.0687 24.2497 26.033 24.2162C26.0173 24.2015 25.9992 24.1896 25.9823 24.1763C25.9253 24.1312 25.9253 24.0617 25.9253 24.0246C25.9253 23.9401 25.9675 23.8979 26.0098 23.8557C26.052 23.8134 26.1365 23.7712 26.1787 23.7712C26.2632 23.7712 26.3054 23.8134 26.3476 23.8557C26.3899 23.8979 26.4321 23.9824 26.4321 24.0246C26.4321 24.0668 26.3899 24.1513 26.3476 24.1935ZM19.2944 24.1935C19.2522 24.2358 19.1677 24.278 19.1255 24.278C19.041 24.278 18.9988 24.2358 18.9566 24.1935C18.9143 24.1513 18.8721 24.0668 18.8721 24.0246C18.8721 23.9401 18.9143 23.8979 18.9566 23.8557C18.9988 23.8134 19.0833 23.7712 19.1255 23.7712C19.21 23.7712 19.2522 23.8134 19.2944 23.8557C19.3367 23.8979 19.3789 23.9824 19.3789 24.0246C19.3789 24.0668 19.3367 24.1513 19.2944 24.1935ZM17.7574 21.9237C17.7685 21.9166 17.7787 21.9082 17.7878 21.8987C17.8674 21.8145 17.9429 21.6925 17.9429 21.5327C17.9429 21.4116 17.9043 21.2518 17.7901 21.1642C17.7797 21.1562 17.7694 21.1479 17.7598 21.1388C17.6756 21.0592 17.5536 20.9837 17.3939 20.9837C17.2727 20.9837 17.1129 21.0223 17.0253 21.1365C17.0173 21.147 17.009 21.1573 17 21.1668C16.9203 21.251 16.8448 21.373 16.8448 21.5327C16.8448 21.6539 16.8835 21.8137 16.9977 21.9013C17.0081 21.9093 17.0184 21.9176 17.028 21.9267C17.1064 22.0008 17.2175 22.0714 17.3614 22.0808C17.3829 22.0821 17.4043 22.0784 17.4247 22.0715C17.5356 22.0343 17.6465 21.9945 17.7574 21.9237ZM28.7128 21.9129C28.7973 21.8284 28.8817 21.7017 28.8817 21.5327C28.8817 21.4116 28.8431 21.2518 28.7289 21.1642C28.7184 21.1562 28.7082 21.1479 28.6986 21.1388C28.6144 21.0592 28.4924 20.9837 28.3327 20.9837C28.2115 20.9837 28.0517 21.0223 27.9641 21.1365C27.9561 21.147 27.9478 21.1573 27.9388 21.1668C27.8591 21.251 27.7836 21.373 27.7836 21.5327C27.7836 21.6539 27.8223 21.8137 27.9365 21.9013C27.9469 21.9093 27.9572 21.9176 27.9667 21.9267C28.0466 22.0021 28.1603 22.0739 28.308 22.0812C28.3244 22.082 28.3407 22.0798 28.3566 22.0758C28.5136 22.0354 28.6323 21.9933 28.7128 21.9129ZM26.6011 21.9129C26.6855 21.8284 26.77 21.7017 26.77 21.5327C26.77 21.4116 26.7314 21.2518 26.6172 21.1642C26.6067 21.1562 26.5964 21.1479 26.5869 21.1388C26.5026 21.0592 26.3807 20.9837 26.2209 20.9837C26.0998 20.9837 25.94 21.0223 25.8524 21.1365C25.8443 21.147 25.8361 21.1573 25.827 21.1668C25.7474 21.251 25.6719 21.373 25.6719 21.5327C25.6719 21.6539 25.7105 21.8137 25.8247 21.9013C25.8352 21.9093 25.8454 21.9176 25.855 21.9267C25.9348 22.0021 26.0486 22.0739 26.1963 22.0812C26.2126 22.082 26.229 22.0798 26.2448 22.0758C26.4019 22.0354 26.5206 21.9933 26.6011 21.9129ZM24.4305 21.9237C24.4416 21.9166 24.4518 21.9082 24.4609 21.8987C24.5405 21.8145 24.616 21.6925 24.616 21.5327C24.616 21.4116 24.5774 21.2518 24.4632 21.1642C24.4527 21.1562 24.4425 21.1479 24.4329 21.1388C24.3487 21.0592 24.2267 20.9837 24.067 20.9837C23.9458 20.9837 23.786 21.0223 23.6984 21.1365C23.6904 21.147 23.6821 21.1573 23.6731 21.1668C23.5934 21.251 23.5179 21.373 23.5179 21.5327C23.5179 21.6539 23.5565 21.8137 23.6707 21.9013C23.6812 21.9093 23.6915 21.9176 23.701 21.9267C23.7795 22.0008 23.8906 22.0714 24.0345 22.0808C24.056 22.0821 24.0774 22.0784 24.0978 22.0715C24.2087 22.0343 24.3196 21.9945 24.4305 21.9237ZM22.2086 21.9129C22.2931 21.8284 22.3776 21.7017 22.3776 21.5327C22.3776 21.4116 22.3389 21.2518 22.2248 21.1642C22.2143 21.1562 22.204 21.1479 22.1945 21.1388C22.1102 21.0592 21.9883 20.9837 21.8285 20.9837C21.7074 20.9837 21.5476 21.0223 21.4599 21.1365C21.4519 21.147 21.4437 21.1573 21.4346 21.1668C21.355 21.251 21.2795 21.373 21.2795 21.5327C21.2795 21.6539 21.3181 21.8137 21.4323 21.9013C21.4428 21.9093 21.453 21.9176 21.4626 21.9267C21.5424 22.0021 21.6562 22.0739 21.8039 22.0812C21.8202 22.082 21.8366 22.0798 21.8524 22.0758C22.0095 22.0354 22.1282 21.9933 22.2086 21.9129ZM19.9958 21.9237C20.0069 21.9166 20.0172 21.9082 20.0262 21.8987C20.1059 21.8145 20.1814 21.6925 20.1814 21.5327C20.1814 21.4116 20.1427 21.2518 20.0285 21.1642C20.0181 21.1562 20.0078 21.1479 19.9982 21.1388C19.914 21.0592 19.7921 20.9837 19.6323 20.9837C19.5111 20.9837 19.3513 21.0223 19.2637 21.1365C19.2557 21.147 19.2475 21.1573 19.2384 21.1668C19.1588 21.251 19.0833 21.373 19.0833 21.5327C19.0833 21.6539 19.1219 21.8137 19.2361 21.9013C19.2465 21.9093 19.2568 21.9176 19.2664 21.9267C19.3448 22.0008 19.456 22.0714 19.5999 22.0808C19.6213 22.0821 19.6427 22.0784 19.6631 22.0715C19.774 22.0343 19.8849 21.9945 19.9958 21.9237ZM16.0585 23.8442C16.048 23.8521 16.0377 23.8604 16.0282 23.8695C15.9032 23.9885 15.7405 24.0668 15.5778 24.0668C15.4088 24.0668 15.2399 23.9824 15.1132 23.8557C14.9865 23.729 14.902 23.56 14.902 23.3911C14.902 23.2221 14.9865 23.0532 15.1132 22.9265C15.2399 22.7998 15.4088 22.7153 15.5778 22.7153C15.7467 22.7153 15.9157 22.7998 16.0424 22.9265C16.1691 23.0532 16.2535 23.2221 16.2535 23.3911C16.2535 23.5931 16.1762 23.7565 16.0585 23.8442Z" fill="url(#paint0_linear_1041_4743)"/>
<defs>
<linearGradient id="paint0_linear_1041_4743" x1="6.89327" y1="7.04623" x2="14.9266" y2="29.3363" gradientUnits="userSpaceOnUse">
<stop stop-color="#FCA947"/>
<stop offset="1" stop-color="#FFCD6B"/>
</linearGradient>
</defs>
</svg>
