<svg width="32" height="32" viewBox="0 0 32 32" fill="none" xmlns="http://www.w3.org/2000/svg">
<path d="M5.15625 20.6034C5.59685 20.6034 6.02819 20.7364 6.39453 20.9853C6.76075 21.2341 7.04627 21.5881 7.21484 22.0019C7.38343 22.4157 7.42673 22.8711 7.34082 23.3104C7.25486 23.7498 7.04299 24.1538 6.73145 24.4706C6.41992 24.7873 6.02289 25.0033 5.59082 25.0907C5.15876 25.1781 4.71069 25.1332 4.30371 24.9618C3.89668 24.7904 3.54848 24.4993 3.30371 24.1269C3.05918 23.7545 2.92875 23.3168 2.92871 22.869C2.92871 22.5716 2.98668 22.2767 3.09863 22.0019C3.21054 21.7272 3.37437 21.4777 3.58105 21.2675C3.78786 21.0572 4.03352 20.8901 4.30371 20.7763C4.57394 20.6625 4.86376 20.6034 5.15625 20.6034ZM25.4082 20.6034C25.8488 20.6034 26.2801 20.7364 26.6465 20.9853C27.0128 21.2341 27.2982 21.588 27.4668 22.0019C27.6354 22.4157 27.6796 22.8712 27.5938 23.3104C27.5078 23.7498 27.2958 24.1538 26.9844 24.4706C26.6729 24.7873 26.2757 25.0033 25.8438 25.0907C25.4118 25.1781 24.9636 25.1331 24.5566 24.9618C24.1496 24.7904 23.8014 24.4994 23.5566 24.1269C23.312 23.7545 23.1807 23.3169 23.1807 22.869C23.1807 22.2685 23.4155 21.6922 23.833 21.2675C24.2507 20.8428 24.8176 20.6035 25.4082 20.6034ZM31.082 14.4403C31.4471 14.4403 31.7344 15.1063 31.7344 15.1063V21.1483C31.7345 21.2354 31.7173 21.3217 31.6846 21.4022C31.6519 21.4828 31.6045 21.5565 31.5439 21.6181C31.4834 21.6797 31.4112 21.7284 31.332 21.7616C31.2528 21.7949 31.1677 21.8116 31.082 21.8114H28.7881C28.5625 21.0556 28.1034 20.3933 27.4795 19.9228C26.8555 19.4523 26.0991 19.1981 25.3223 19.1981C24.5454 19.1982 23.789 19.4523 23.165 19.9228C22.5412 20.3932 22.083 21.0557 21.8574 21.8114H18.6914C18.6057 21.8116 18.5206 21.7949 18.4414 21.7616C18.3622 21.7284 18.2901 21.6797 18.2295 21.6181C18.1689 21.5565 18.1206 21.4828 18.0879 21.4022C18.0553 21.3218 18.0389 21.2353 18.0391 21.1483V15.1034C18.0389 15.0164 18.0552 14.93 18.0879 14.8495C18.1206 14.7691 18.169 14.6962 18.2295 14.6347C18.2901 14.5731 18.3622 14.5234 18.4414 14.4901C18.5206 14.4569 18.6058 14.4402 18.6914 14.4403H31.082ZM16.7383 6.88467L16.7354 6.89053C16.8355 6.90696 16.9281 6.95644 16.998 7.03115C17.068 7.10589 17.1119 7.20207 17.123 7.30459V21.8075H8.5957C8.4856 21.3547 8.37954 19.2108 5.3291 19.1024C4.96242 19.0341 4.5853 19.0439 4.22266 19.1317C3.85994 19.2196 3.51871 19.384 3.22168 19.6132C2.92479 19.8424 2.67786 20.1323 2.49707 20.4638C2.31636 20.7952 2.20581 21.1616 2.17188 21.539L1.78906 21.7577C1.40869 21.9753 0.278192 21.3757 0.265625 21.369V18.9862L1.02832 18.2118V14.3925C1.02832 14.1563 1.48298 13.6723 1.48438 13.6708C1.49724 13.653 5.98896 7.45651 6.27539 7.246C6.50547 7.09282 6.75209 6.96579 7.00977 6.86807L16.3916 6.88467C16.3916 6.88467 16.3918 6.84314 16.7383 6.88467ZM7.49902 8.51064C6.70114 8.51083 6.53027 9.00381 6.53027 9.00381L4.81152 12.5116C4.59618 12.8715 4.61982 13.494 5.46387 13.494H11.7754C11.8619 13.494 11.9474 13.476 12.0273 13.4423C12.1073 13.4086 12.1801 13.3591 12.2412 13.2968C12.3023 13.2345 12.3508 13.1603 12.3838 13.079C12.4167 12.9978 12.4337 12.911 12.4336 12.8231V9.17373C12.4338 9.08672 12.4174 9.00026 12.3848 8.91982C12.352 8.83929 12.3038 8.76562 12.2432 8.704C12.1826 8.64243 12.1104 8.5937 12.0312 8.56045C11.9521 8.52721 11.8669 8.51048 11.7812 8.51064H7.49902ZM13.8018 8.51064C13.7161 8.51048 13.6309 8.52722 13.5518 8.56045C13.4726 8.5937 13.4004 8.64244 13.3398 8.704C13.2792 8.76562 13.231 8.83929 13.1982 8.91982C13.1656 9.00026 13.1493 9.08672 13.1494 9.17373V12.8231C13.1493 12.9102 13.1656 12.9966 13.1982 13.0771C13.2309 13.1575 13.2793 13.2303 13.3398 13.2919C13.4004 13.3535 13.4726 13.4032 13.5518 13.4364C13.6309 13.4696 13.7162 13.4864 13.8018 13.4862H14.9932C15.0791 13.4867 15.1646 13.4695 15.2441 13.4364C15.3235 13.4033 15.3953 13.3544 15.4561 13.2929C15.5169 13.2312 15.5658 13.1578 15.5986 13.0771C15.6314 12.9966 15.6476 12.9102 15.6475 12.8231H15.6514V9.17373C15.6515 9.08672 15.6352 9.00026 15.6025 8.91982C15.5698 8.83929 15.5215 8.76562 15.4609 8.704C15.4004 8.64244 15.3282 8.5937 15.249 8.56045C15.1699 8.52722 15.0847 8.51048 14.999 8.51064H13.8018Z" fill="url(#paint0_linear_1041_4771)"/>
<defs>
<linearGradient id="paint0_linear_1041_4771" x1="6.95273" y1="6.86621" x2="15.3155" y2="29.4636" gradientUnits="userSpaceOnUse">
<stop stop-color="#A578FF"/>
<stop offset="1" stop-color="#8F9BFF"/>
</linearGradient>
</defs>
</svg>
