<svg width="32" height="32" viewBox="0 0 32 32" fill="none" xmlns="http://www.w3.org/2000/svg">
<path d="M31.7048 21.7143C31.7048 22.3924 31.5074 23.0553 31.1376 23.6191C30.7678 24.1829 30.2423 24.6224 29.6273 24.8819C29.0124 25.1414 28.3358 25.2093 27.683 25.077C27.0302 24.9447 26.4306 24.6181 25.9599 24.1387C25.4893 23.6592 25.1688 23.0482 25.0389 22.3832C24.9091 21.7181 24.9757 21.0287 25.2304 20.4022C25.4852 19.7757 25.9165 19.2403 26.4699 18.8635C27.0233 18.4868 27.6739 18.2857 28.3395 18.2857C28.7225 18.2895 29.102 18.3606 29.4613 18.496V18.2857H16.0003C15.891 18.785 15.616 19.2306 15.2218 19.5474C15.7224 20.1545 15.9979 20.9214 16.0003 21.7143C16.0002 22.6235 15.6457 23.4955 15.0146 24.1384C14.3835 24.7814 13.5276 25.1425 12.6351 25.1425C11.7426 25.1425 10.8867 24.7814 10.2556 24.1384C9.62453 23.4955 9.26994 22.6235 9.26986 21.7143C9.27358 21.3241 9.3434 20.9374 9.47626 20.5714H6.81997C6.95282 20.9374 7.02265 21.3241 7.02637 21.7143C7.02628 22.6235 6.67169 23.4955 6.0406 24.1384C5.4095 24.7814 4.55359 25.1425 3.66113 25.1425C2.76867 25.1425 1.91276 24.7814 1.28167 24.1384C0.650572 23.4955 0.295984 22.6235 0.295898 21.7143C0.299616 21.3241 0.369443 20.9374 0.502299 20.5714H0.295898V14.6226C0.295898 14.5265 0.323563 14.4325 0.375583 14.3518L2.11128 11.6578C2.20333 11.5149 2.36165 11.4286 2.5316 11.4286H9.26986V7.35715C9.26986 7.081 9.49371 6.85715 9.76986 6.85715H15.6378C15.8541 6.85715 16.0458 6.99615 16.113 7.20167L18.2438 13.7143H16.0003L13.7568 9.14286H11.5133V16H16.0003V13.7143H18.2438L31.2885 15.9293C31.5289 15.9701 31.7048 16.1784 31.7048 16.4223V20.5714H31.4984C31.6312 20.9374 31.701 21.3241 31.7048 21.7143ZM3.66113 20.5714C3.43927 20.5714 3.22239 20.6385 3.03792 20.764C2.85345 20.8896 2.70968 21.0681 2.62478 21.2769C2.53987 21.4858 2.51766 21.7156 2.56094 21.9372C2.60422 22.1589 2.71106 22.3626 2.86794 22.5224C3.02482 22.6822 3.22469 22.7911 3.44229 22.8352C3.65989 22.8793 3.88543 22.8567 4.09041 22.7702C4.29538 22.6837 4.47057 22.5372 4.59383 22.3492C4.71709 22.1613 4.78288 21.9403 4.78288 21.7143C4.78288 21.4112 4.66469 21.1205 4.45433 20.9062C4.24396 20.6918 3.95864 20.5714 3.66113 20.5714ZM12.6351 20.5714C12.4132 20.5714 12.1964 20.6385 12.0119 20.764C11.8274 20.8896 11.6836 21.0681 11.5987 21.2769C11.5138 21.4858 11.4916 21.7156 11.5349 21.9372C11.5782 22.1589 11.685 22.3626 11.8419 22.5224C11.9988 22.6822 12.1987 22.7911 12.4162 22.8352C12.6338 22.8793 12.8594 22.8567 13.0644 22.7702C13.2693 22.6837 13.4445 22.5372 13.5678 22.3492C13.691 22.1613 13.7568 21.9403 13.7568 21.7143C13.7568 21.5642 13.7278 21.4156 13.6714 21.2769C13.6151 21.1383 13.5324 21.0123 13.4283 20.9062C13.3241 20.8 13.2005 20.7159 13.0644 20.6584C12.9283 20.601 12.7824 20.5714 12.6351 20.5714ZM28.3395 20.5714C28.1177 20.5714 27.9008 20.6385 27.7163 20.764C27.5318 20.8896 27.3881 21.0681 27.3032 21.2769C27.2183 21.4858 27.196 21.7156 27.2393 21.9372C27.2826 22.1589 27.3894 22.3626 27.5463 22.5224C27.7032 22.6822 27.9031 22.7911 28.1207 22.8352C28.3383 22.8793 28.5638 22.8567 28.7688 22.7702C28.9738 22.6837 29.149 22.5372 29.2722 22.3492C29.3955 22.1613 29.4613 21.9403 29.4613 21.7143C29.4613 21.4112 29.3431 21.1205 29.1327 20.9062C28.9223 20.6918 28.637 20.5714 28.3395 20.5714ZM20.9873 22.8571C20.7112 22.8571 20.4873 23.081 20.4873 23.3571V24.9429C20.4873 25.0533 20.3978 25.1429 20.2873 25.1429H18.4438C18.3334 25.1429 18.2438 25.0533 18.2438 24.9429V21.0714C18.2438 20.7953 18.4677 20.5714 18.7438 20.5714H24.9743V22.8571H20.9873Z" fill="url(#paint0_linear_1041_4756)"/>
<defs>
<linearGradient id="paint0_linear_1041_4756" x1="6.97028" y1="6.85715" x2="15.3594" y2="29.4607" gradientUnits="userSpaceOnUse">
<stop stop-color="#07CB89"/>
<stop offset="1" stop-color="#39D398"/>
</linearGradient>
</defs>
</svg>
