<svg width="32" height="32" viewBox="0 0 32 32" fill="none" xmlns="http://www.w3.org/2000/svg">
<path d="M16.001 2.66699C17.6133 2.66703 19.1251 3.0394 20.4395 3.6875H28.667V6.72852L24.2305 7.2666L23.5928 7.34375V14.1807L19.7627 15.3486V18.1348L18.4355 18.9697V22.4844H16.9658V25.1533H17.793V28.4502L16.082 29.333L14.207 28.4502V25.1533H15.0342V22.4844H13.5645V18.9492H13.6387L12.2373 18.1348V15.3486L8.40723 14.1807V7.34375L7.76953 7.2666L3.33301 6.72852V3.6875H11.5605C12.875 3.03933 14.387 2.66699 16.001 2.66699ZM21.0752 28.7236L21.0283 29.0635L20.7207 29.0166L20.6064 29.333L19.9268 29.1045L20.4971 28.9844L20.6143 28.709L21.0752 28.7236ZM11.9111 28.9014L12.4814 29.0215L11.8018 29.25L11.6875 28.9336L11.3799 28.9795L11.333 28.6396L11.7939 28.626L11.9111 28.9014ZM13.3457 27.5L12.8574 28.2012L13.6738 29.0215L11.8232 28.4941L12.4219 27.7344L11.8232 27.0898L12.585 26.4463L13.3457 27.5ZM20.7119 27.0898L20.1133 27.7344L20.7119 28.4941L18.8623 29.0215L19.6777 28.2012L19.1895 27.5L19.9502 26.4463L20.7119 27.0898Z" fill="url(#paint0_linear_1041_4717)"/>
<defs>
<linearGradient id="paint0_linear_1041_4717" x1="10.0006" y1="4.00029" x2="27.1459" y2="26.6495" gradientUnits="userSpaceOnUse">
<stop stop-color="#387FFC"/>
<stop offset="1" stop-color="#55BAFA"/>
</linearGradient>
</defs>
</svg>
