<svg width="32" height="32" viewBox="0 0 32 32" fill="none" xmlns="http://www.w3.org/2000/svg">
<path d="M16.6758 18.7239C18.6523 18.724 20.2538 20.3245 20.2539 22.3011C20.2539 24.2777 18.6524 25.8791 16.6758 25.8792C14.6991 25.8792 13.0977 24.2778 13.0977 22.3011C13.0978 20.3245 14.6992 18.7239 16.6758 18.7239ZM25.9189 18.7239C27.8956 18.7239 29.4969 20.3245 29.4971 22.3011C29.4971 24.2778 27.8956 25.8792 25.9189 25.8792C23.9424 25.879 22.3418 24.2777 22.3418 22.3011C22.3419 20.3246 23.9425 18.7241 25.9189 18.7239ZM16.6758 20.8147C15.8545 20.8147 15.1855 21.4805 15.1855 22.305C15.1858 23.126 15.8515 23.7942 16.6758 23.7942C17.5 23.7941 18.168 23.1259 18.165 22.305C18.165 21.4838 17.497 20.8148 16.6758 20.8147ZM25.9189 20.8147C25.0978 20.8149 24.4297 21.4806 24.4297 22.305C24.4299 23.1259 25.0948 23.7941 25.9189 23.7942C26.7432 23.7942 27.4089 23.126 27.4092 22.305C27.4092 21.4837 26.7434 20.8147 25.9189 20.8147ZM25.4512 6.12137C26.2405 6.12137 26.5562 6.3731 26.4512 7.14969C26.257 8.58844 26.8173 11.4311 27.9346 12.3128C28.7015 12.9142 29.4398 13.0859 30.3213 13.0764C31.7249 13.0637 31.7927 13.1531 31.7959 14.5501C31.8023 17.3098 31.8086 18.1285 31.8213 20.885C31.8244 21.9225 31.6614 22.0815 30.6016 22.0911C30.4044 22.0943 30.2008 22.1167 30.0068 22.0882C29.9304 22.0786 29.8632 22.0755 29.8027 22.0755C29.7614 19.8887 27.9756 18.1282 25.7793 18.1282C23.5544 18.1283 21.7531 19.9329 21.7529 22.1546V22.1585C21.5842 22.0853 21.3709 22.0788 21.1035 22.1106C20.9731 22.1265 20.8394 22.1265 20.709 22.1233C20.6931 19.9143 18.8977 18.1283 16.6855 18.1282C14.4607 18.1282 12.6593 19.9329 12.6592 22.1546V22.1585C12.3409 22.1394 11.9994 22.1202 11.6143 22.0979V20.5091C11.0322 20.5219 10.9273 20.8052 10.9209 21.2346C10.905 22.2308 9.49824 23.6032 8.50195 23.6067C6.01599 23.6163 3.52966 23.6282 1.04688 23.6155C0.757214 23.6155 0.467395 23.4629 0.177734 23.3802C0.327234 23.1416 0.435679 22.8619 0.632812 22.6741C2.84824 20.5669 5.07309 18.4748 7.30762 16.3899C7.48587 16.2244 7.76008 16.1576 7.98926 16.0462C8.06565 16.2881 8.20847 16.5335 8.21484 16.7786C8.24031 17.9212 8.21551 19.0638 8.24414 20.2063C8.24732 20.3846 8.45109 20.5567 8.5625 20.7317C8.66122 20.5632 8.83544 20.4005 8.8418 20.2288C8.87044 19.4586 8.88317 18.6853 8.8418 17.9182C8.81315 17.358 9.03024 17.0717 9.5459 16.8616C9.6373 16.8241 9.72801 16.785 9.81934 16.7473V13.0325C9.81934 12.8829 9.94024 12.762 10.0898 12.762H16.7471C17.025 10.8746 17.3403 8.9934 17.6055 7.10477C17.7074 6.39529 18.0514 6.13772 18.7451 6.1409C20.9794 6.15363 23.2169 6.12137 25.4512 6.12137ZM19.6738 8.44559C19.5179 8.44901 19.2447 8.59797 19.2285 8.70926C19.0566 9.8169 18.4683 15.1196 18.3154 16.3391C19.4617 15.9505 22.5522 13.9839 24.0449 13.01C24.5541 12.679 24.8247 12.0865 24.7451 11.4817C24.6369 10.6732 24.4806 9.5114 24.3564 8.59793C24.3532 8.57574 24.3343 8.55635 24.2646 8.43289C22.7336 8.43289 21.2049 8.42649 19.6738 8.44559Z" fill="url(#paint0_linear_1041_4759)"/>
<defs>
<linearGradient id="paint0_linear_1041_4759" x1="8.50597" y1="7.10926" x2="18.3708" y2="29.0776" gradientUnits="userSpaceOnUse">
<stop stop-color="#387FFC"/>
<stop offset="1" stop-color="#55BAFA"/>
</linearGradient>
</defs>
</svg>
