<svg width="32" height="32" viewBox="0 0 32 32" fill="none" xmlns="http://www.w3.org/2000/svg">
<path d="M28.2305 27.2891C28.7498 27.2893 29.1709 27.711 29.1709 28.2305C29.1708 28.7498 28.7498 29.1707 28.2305 29.1709H3.76953C3.25004 29.1709 2.82923 28.7499 2.8291 28.2305C2.8291 27.7109 3.24996 27.2891 3.76953 27.2891H28.2305ZM28.1709 6.12207C28.7231 6.12211 29.1709 6.56981 29.1709 7.12207V25.3486C29.1709 25.9009 28.7231 26.3486 28.1709 26.3486H3.8291C3.27682 26.3486 2.8291 25.9009 2.8291 25.3486V7.12207C2.8291 6.56979 3.27682 6.12207 3.8291 6.12207H28.1709ZM7.59863 17.1338C7.18922 17.134 6.82646 17.3977 6.7002 17.7871L4.85645 23.5264C4.66082 24.1435 5.12118 24.7724 5.76855 24.7725H16.0938C16.7325 24.7631 17.1821 24.1411 16.9922 23.5312L15.1904 17.7969C15.0673 17.4024 14.7023 17.1338 14.2891 17.1338H7.59863ZM14.6406 17.623L14.7441 17.957L16.541 23.6914L16.7334 24.3027H5.10547L5.30273 23.6865L7.15137 17.9521L7.25488 17.623H14.6406ZM6.08398 22.793L5.75 23.832H7.32617L7.56055 22.793H6.08398ZM8.0459 22.793L7.78711 23.832H10.6895V22.793H8.0459ZM11.1592 22.793V23.832H13.874L13.6152 22.793H11.1592ZM14.1182 22.793L14.3584 23.832H16.0938L15.7646 22.793H14.1182ZM11.1592 21.3252L11.1504 22.3457H13.502L13.2529 21.3252H11.1592ZM6.56348 21.3018L6.23926 22.3223H7.67383L7.92773 21.3018H6.56348ZM8.40723 21.3018L8.1582 22.3223H10.6895V21.3018H8.40723ZM13.7373 21.3018L13.9863 22.3223H15.6191L15.2988 21.3018H13.7373ZM11.1592 19.8389V20.8545H13.1348L12.8857 19.8389H11.1592ZM13.3701 19.8389L13.6191 20.8545H15.1533L14.833 19.8389H13.3701ZM7.0625 19.8145L6.71875 20.8311H8.05957L8.30859 19.8145H7.0625ZM8.77441 19.8145L8.52539 20.8311H10.6895V19.8145H8.77441ZM21.2354 18.4033C20.6867 18.3897 20.1481 18.5533 19.6992 18.8691C19.3859 19.0897 19.1273 19.3767 18.9414 19.707C18.8094 19.942 18.9586 20.2197 19.2178 20.2939C19.4584 20.3627 19.7055 20.2274 19.8506 20.0234C19.9625 19.8661 20.1026 19.7294 20.2646 19.6201C20.5149 19.4513 20.8065 19.3564 21.1064 19.3447H21.3936C21.5509 19.3555 21.7051 19.3977 21.8467 19.4697C22.0354 19.5658 22.1946 19.7115 22.3076 19.8906C22.5093 20.1718 22.7786 20.3977 23.0898 20.5488C23.4011 20.6999 23.7452 20.7714 24.0908 20.7559H24.0713C24.6173 20.7726 25.1547 20.6132 25.6035 20.3018C25.9156 20.0851 26.1742 19.8026 26.3613 19.4766C26.4958 19.2423 26.3476 18.9621 26.0879 18.8877C25.8483 18.8191 25.6017 18.9543 25.457 19.1572C25.3449 19.3147 25.2044 19.4524 25.042 19.5615C24.756 19.7535 24.4155 19.8491 24.0713 19.834C23.8608 19.8469 23.6502 19.803 23.4619 19.708C23.2737 19.613 23.1137 19.47 22.999 19.293C22.8018 19.0101 22.5374 18.7802 22.2295 18.625C21.9216 18.4699 21.5799 18.3936 21.2354 18.4033ZM7.59863 18.1172L7.19434 19.3682H8.40332L8.71387 18.1172H7.59863ZM11.1592 18.1172V19.3682H12.7725L12.4668 18.1172H11.1592ZM12.9658 18.1172L13.2764 19.3682H14.6875L14.292 18.1172H12.9658ZM9.19824 18.0928L8.8877 19.3447H10.6895V18.0928H9.19824ZM6.82715 12.707C6.43746 12.707 6.12109 13.0234 6.12109 13.4131C6.12123 13.8027 6.43755 14.1182 6.82715 14.1182H13.8828C14.2724 14.1182 14.5887 13.8027 14.5889 13.4131C14.5889 13.0234 14.2725 12.707 13.8828 12.707H6.82715ZM6.82715 9.88477C6.43746 9.88477 6.12109 10.2011 6.12109 10.5908C6.12128 10.9803 6.43758 11.2959 6.82715 11.2959H13.8828C14.2724 11.2959 14.5887 10.9803 14.5889 10.5908C14.5889 10.2011 14.2725 9.88477 13.8828 9.88477H6.82715ZM10.2959 2.8291C10.8482 2.82912 11.2959 3.27683 11.2959 3.8291V4.18066C11.2959 4.73294 10.8482 5.18064 10.2959 5.18066H8.0625C7.51022 5.18066 7.0625 4.73295 7.0625 4.18066V3.8291C7.0625 3.27682 7.51022 2.8291 8.0625 2.8291H10.2959ZM23.9375 2.8291C24.4897 2.82922 24.9375 3.27689 24.9375 3.8291V4.18066C24.9375 4.73287 24.4897 5.18054 23.9375 5.18066H21.7041C21.1518 5.18066 20.7041 4.73295 20.7041 4.18066V3.8291C20.7041 3.27682 21.1518 2.8291 21.7041 2.8291H23.9375Z" fill="url(#paint0_linear_1041_4853)"/>
<defs>
<linearGradient id="paint0_linear_1041_4853" x1="9.76197" y1="4.14619" x2="26.4448" y2="27.3432" gradientUnits="userSpaceOnUse">
<stop stop-color="#387FFC"/>
<stop offset="1" stop-color="#55BAFA"/>
</linearGradient>
</defs>
</svg>
