<svg width="32" height="32" viewBox="0 0 32 32" fill="none" xmlns="http://www.w3.org/2000/svg">
<path d="M12.5227 16.9365C12.6331 16.9366 12.7229 17.0263 12.7229 17.1367V18.1543C12.7276 18.5019 12.8605 18.8359 13.0969 19.0908L14.5452 20.7197C14.5775 20.7563 14.596 20.8037 14.596 20.8525V22.8232C14.596 22.9336 14.5061 23.0233 14.3958 23.0234H8.97683C8.8766 23.0312 8.77989 23.0664 8.69753 23.124C8.61531 23.1817 8.54962 23.2601 8.50808 23.3516L7.57156 26.1611C7.54892 26.233 7.5438 26.3096 7.55691 26.3838C7.57006 26.4579 7.60084 26.5282 7.64675 26.5879C7.69272 26.6476 7.75318 26.6948 7.82156 26.7266C7.88992 26.7582 7.96504 26.773 8.04031 26.7695H24.429C24.5041 26.7776 24.58 26.7657 24.6487 26.7344C24.7176 26.7029 24.7774 26.6531 24.8206 26.5908C24.8637 26.5285 24.8886 26.4555 24.8938 26.3799C24.8991 26.3043 24.884 26.2288 24.8499 26.1611L22.5745 19.79C22.5379 19.6877 22.4266 19.6329 22.3235 19.667L21.8596 19.8223C21.7536 19.8576 21.6967 19.9728 21.7337 20.0781L23.679 25.5664C23.7249 25.6964 23.6283 25.8327 23.4905 25.833H8.97097C8.83509 25.833 8.73854 25.7005 8.78054 25.5713L9.25906 24.0986C9.28582 24.0163 9.36291 23.96 9.44949 23.96H19.0784C19.1887 23.9597 19.2776 23.8701 19.2776 23.7598V23.2236C19.2776 23.1133 19.1886 23.0237 19.0784 23.0234H17.6048C17.4944 23.0233 17.4046 22.9336 17.4046 22.8232V20.8525C17.4046 20.8037 17.423 20.7563 17.4553 20.7197L18.9036 19.0908C19.14 18.8359 19.2729 18.5019 19.2776 18.1543V17.1367C19.2776 17.0263 19.3674 16.9366 19.4778 16.9365H25.3655C25.4655 16.9443 25.5616 16.9787 25.6438 17.0361C25.7262 17.0938 25.7917 17.1731 25.8333 17.2646L29.5794 28.9707C29.602 29.0425 29.6071 29.1192 29.594 29.1934C29.5809 29.2673 29.5499 29.3369 29.5042 29.3965C29.4583 29.4561 29.3986 29.5044 29.3303 29.5361C29.2621 29.5678 29.1868 29.5825 29.1116 29.5791H2.88894C2.81377 29.5825 2.73845 29.5678 2.67019 29.5361C2.60195 29.5044 2.54225 29.4561 2.49636 29.3965C2.45062 29.3369 2.41966 29.2673 2.40652 29.1934C2.39341 29.1192 2.39853 29.0425 2.42116 28.9707L6.16726 17.2646C6.20885 17.1731 6.27435 17.0938 6.35671 17.0361C6.43891 16.9787 6.53504 16.9443 6.63503 16.9365H12.5227ZM18.1419 16C18.2522 16.0001 18.3421 16.0898 18.3421 16.2002V18.1543C18.3357 18.2765 18.2856 18.3925 18.2014 18.4814L16.5198 20.3447C16.4868 20.3814 16.469 20.4292 16.469 20.4785V23.292C16.469 23.4024 16.3792 23.4921 16.2688 23.4922H15.7317C15.6215 23.4919 15.5325 23.4023 15.5325 23.292V20.4785C15.5325 20.4291 15.5138 20.3814 15.4807 20.3447L13.8001 18.4814C13.7158 18.3925 13.6658 18.2767 13.6594 18.1543V16.2002C13.6594 16.0897 13.7492 16 13.8596 16H18.1419ZM11.6643 21.2529C11.5527 21.223 11.4389 21.2939 11.4163 21.4072L11.3089 21.9473C11.288 22.0519 11.3528 22.1548 11.4563 22.1807L12.9524 22.5547C13.0586 22.5811 13.1668 22.517 13.1946 22.4111L13.3274 21.9053C13.3554 21.7988 13.2921 21.6897 13.1858 21.6611L11.6643 21.2529ZM20.3362 21.2529L18.8147 21.6611C18.7084 21.6897 18.6451 21.7988 18.6731 21.9053L18.8059 22.4111C18.8338 22.517 18.9419 22.5811 19.0481 22.5547L20.5442 22.1807C20.6477 22.1548 20.7125 22.0519 20.6917 21.9473L20.5843 21.4072C20.5616 21.2939 20.4478 21.223 20.3362 21.2529ZM12.8264 19.6807C12.7427 19.6126 12.6198 19.6236 12.5491 19.7051L12.1995 20.1084C12.1269 20.1926 12.1369 20.3198 12.2219 20.3916L13.4094 21.3936C13.4949 21.4657 13.623 21.4539 13.6936 21.3672L14.0481 20.9316C14.1177 20.846 14.1044 20.7201 14.0188 20.6504L12.8264 19.6807ZM19.4514 19.7051C19.3807 19.6236 19.2579 19.6126 19.1741 19.6807L17.9817 20.6504C17.8961 20.7201 17.8828 20.846 17.9524 20.9316L18.3069 21.3672C18.3775 21.4539 18.5056 21.4657 18.5911 21.3936L19.7786 20.3916C19.8636 20.3198 19.8737 20.1926 19.801 20.1084L19.4514 19.7051ZM19.7464 2.4209C20.0583 2.42091 20.214 2.57684 20.2141 2.88867V14.5957C20.214 14.9076 20.0583 15.0635 19.7464 15.0635H12.2542C11.9423 15.0634 11.7865 14.9075 11.7864 14.5957V2.88867C11.7866 2.5769 11.9423 2.42097 12.2542 2.4209H19.7464Z" fill="url(#paint0_linear_1041_4866)"/>
<defs>
<linearGradient id="paint0_linear_1041_4866" x1="8.17978" y1="2.4209" x2="25.4819" y2="29.6044" gradientUnits="userSpaceOnUse">
<stop stop-color="#FF7456"/>
<stop offset="1" stop-color="#FF8D6D"/>
</linearGradient>
</defs>
</svg>
