<svg width="32" height="32" viewBox="0 0 32 32" fill="none" xmlns="http://www.w3.org/2000/svg">
<path d="M27.0864 8.42483H23.7435V12.1485C23.7434 12.1901 23.7344 12.2312 23.717 12.269C23.7031 12.3001 23.6866 12.33 23.6676 12.3582L19.8885 17.8932L19.8571 19.7876C19.8571 20.8336 18.9943 21.6807 17.929 21.6807H16.9661V23.504C16.9636 23.7573 16.8606 23.9992 16.6799 24.1765C16.4991 24.3539 16.2553 24.4523 16.0021 24.45C15.7488 24.4523 15.505 24.3539 15.3243 24.1765C15.1435 23.9992 15.0405 23.7573 15.038 23.504V21.6807H14.0739C13.0098 21.6807 12.147 20.8336 12.147 19.7876L12.1109 17.8932L8.33653 12.2775C8.30761 12.2348 8.29208 12.1844 8.29194 12.1329L8.32207 8.42483H4.91892C4.66567 8.42708 4.42189 8.32871 4.24112 8.15133C4.06036 7.97395 3.95739 7.73208 3.95485 7.47884C3.95485 6.95583 4.38627 6.53164 4.91892 6.53164H8.32207V4.63604C8.32207 3.59124 9.18491 2.74286 10.2502 2.74286H21.8154C22.8795 2.74286 23.7435 3.59124 23.7435 4.63604V6.53044H27.0864C27.6191 6.53044 28.0505 6.95463 28.0505 7.47763C28.0479 7.73087 27.945 7.97275 27.7642 8.15013C27.5835 8.3275 27.3397 8.42708 27.0864 8.42483ZM17.9302 6.53164H14.0739C13.5437 6.53164 13.1111 6.95583 13.1111 7.47884C13.1111 8.00064 13.5425 8.42483 14.0751 8.42483H17.9302C18.4628 8.42483 18.8943 8.00064 18.8943 7.47884C18.8932 7.35334 18.8674 7.22929 18.8183 7.11377C18.7693 6.99825 18.6979 6.89352 18.6084 6.80556C18.5189 6.71761 18.4129 6.64815 18.2966 6.60115C18.1802 6.55415 18.0557 6.53053 17.9302 6.53164ZM4.62006 20.037C4.70562 19.8924 5.32864 20.1455 5.89383 20.5154L11.5011 24.1861C11.6433 24.2789 11.724 24.403 11.6867 24.4645L11.3938 24.9634C11.3577 25.0261 11.2082 25.0188 11.0564 24.9441L5.01653 22.0085C4.40796 21.7133 3.8717 21.3096 3.95726 21.165L4.62006 20.037ZM6.48793 27.4748L10.4478 26.8662C10.5479 26.8505 10.6407 26.8951 10.6599 26.965L10.8094 27.5218C10.8274 27.5917 10.7696 27.676 10.6744 27.7122L6.93502 29.1402C6.55783 29.2848 6.15172 29.3029 6.10954 29.1402L5.77091 27.8833C5.72753 27.7206 6.08905 27.5362 6.48793 27.4748ZM16.0358 25.4984C17.5241 25.4984 19.0329 26.0733 19.3377 27.041C19.692 28.1617 18.1676 29.2559 16.0021 29.2559C13.8389 29.2559 12.3314 28.1617 12.7062 27.0422C13.0303 26.0733 14.5499 25.4972 16.037 25.4972L16.0358 25.4984ZM14.8898 27.4977C14.7994 27.5736 14.8536 27.7194 14.9741 27.7194H15.3694L15.4513 27.9399C15.4767 28.011 15.5586 28.0436 15.6273 28.0123L16.0623 27.8074L16.4865 27.9303C16.5183 27.9399 16.5526 27.9369 16.5823 27.9219C16.6119 27.9068 16.6346 27.8809 16.6456 27.8496L16.7287 27.6025L17.0963 27.5399C17.1206 27.536 17.1433 27.5251 17.1614 27.5084C17.1796 27.4917 17.1924 27.4701 17.1983 27.4462C17.2042 27.4222 17.203 27.3971 17.1947 27.3739C17.1864 27.3507 17.1714 27.3305 17.1517 27.3157L17.0228 27.2193L17.1843 27.0879C17.2758 27.0144 17.2252 26.8674 17.1071 26.8638L16.7697 26.8542L16.7095 26.5987C16.705 26.5801 16.6964 26.5628 16.6845 26.548C16.6725 26.5331 16.6574 26.5211 16.6402 26.5128C16.623 26.5045 16.6042 26.5001 16.5851 26.5C16.5661 26.4998 16.5472 26.5039 16.5299 26.5119L16.0671 26.7288L15.5731 26.5541C15.5562 26.548 15.5382 26.5455 15.5202 26.5467C15.5023 26.548 15.4849 26.553 15.469 26.5614C15.4531 26.5698 15.4391 26.5814 15.428 26.5955C15.4169 26.6096 15.4088 26.6259 15.4043 26.6433L15.332 26.9433L14.897 27.0084C14.8712 27.0117 14.8471 27.0229 14.828 27.0405C14.8088 27.0581 14.7956 27.0812 14.7902 27.1066C14.7848 27.132 14.7874 27.1585 14.7977 27.1823C14.808 27.2062 14.8254 27.2263 14.8476 27.2398L15.0476 27.3639L14.8898 27.4977ZM20.5031 24.1861L26.1067 20.5154C26.6731 20.1455 27.2937 19.8912 27.3793 20.037L28.0421 21.1638C28.1264 21.3084 27.5926 21.7121 26.984 22.0073L20.9489 24.9441C20.7959 25.0188 20.6477 25.0248 20.6115 24.9622L20.3187 24.4645C20.2813 24.4018 20.3621 24.2789 20.5031 24.1861ZM21.3442 26.965C21.3635 26.8951 21.4563 26.8505 21.5563 26.8662L25.5138 27.4748C25.9139 27.535 26.273 27.7206 26.2296 27.8821L25.8922 29.1414C25.8476 29.3029 25.4439 29.286 25.0667 29.1414L21.3297 27.7122C21.2345 27.676 21.1767 27.5917 21.1948 27.5218L21.3442 26.965Z" fill="url(#paint0_linear_1041_4786)"/>
<defs>
<linearGradient id="paint0_linear_1041_4786" x1="10.2918" y1="4.06853" x2="27.5285" y2="25.8565" gradientUnits="userSpaceOnUse">
<stop stop-color="#387FFC"/>
<stop offset="1" stop-color="#55BAFA"/>
</linearGradient>
</defs>
</svg>
