<svg width="32" height="32" viewBox="0 0 32 32" fill="none" xmlns="http://www.w3.org/2000/svg">
<path d="M27.3906 20.3365C28.9844 20.3366 30.2812 21.6333 30.2812 23.2272C30.2812 24.8209 29 26.1178 27.3906 26.1178C25.7968 26.1178 24.5001 24.821 24.5 23.2272C24.5 21.6333 25.7968 20.3365 27.3906 20.3365ZM13.9521 22.7272C12.9052 24.8052 10.7802 26.1176 8.43652 26.1022C6.09264 26.1022 3.96688 24.7898 2.91992 22.7272H13.9521ZM29.9062 20.7584C30.7031 21.3522 31.1562 22.2584 31.1562 23.2428C31.1562 23.9615 30.8594 24.6178 30.3281 25.1647L29.6875 25.8053L30.1875 25.0553C30.5469 24.5084 30.7343 23.8834 30.7344 23.2272C30.7344 22.3522 30.3906 21.5241 29.7812 20.899L29.9062 20.7584ZM15.2646 22.7584C14.5615 24.149 13.374 25.2115 11.9209 25.774L11.8428 25.6178C12.999 24.9303 13.9053 23.9303 14.4678 22.6959L14.4834 22.6334H15.3271L15.2646 22.7584ZM27.4062 21.6803C26.5468 21.6803 25.8594 22.3677 25.8594 23.2272C25.8595 24.0709 26.5469 24.774 27.4062 24.774C28.2656 24.774 28.9531 24.0865 28.9531 23.2272C28.9531 22.3678 28.2656 21.6803 27.4062 21.6803ZM27.4062 22.2272C27.9531 22.2272 28.4062 22.6803 28.4062 23.2272C28.4062 23.774 27.9531 24.2271 27.4062 24.2272C26.8594 24.2272 26.4063 23.774 26.4062 23.2272C26.4062 22.6803 26.8593 22.2272 27.4062 22.2272ZM15.6084 19.7115C15.6086 19.852 15.718 19.9771 15.874 19.9772H21.1396V22.1959H14.499C14.4209 22.1647 14.3428 22.1647 14.2803 22.1959H2.5293C2.51361 22.1959 2.48237 22.196 2.4668 22.2115H0.841797V18.6022H15.6084V19.7115ZM8.43652 19.024C7.7021 19.024 7.0918 19.6334 7.0918 20.3678C7.09198 21.1021 7.68659 21.7115 8.43652 21.7115C9.17066 21.7113 9.78009 21.1176 9.78027 20.3678C9.78027 19.6335 9.18638 19.0243 8.43652 19.024ZM25.4375 14.8043C25.4375 14.8825 25.4844 14.9449 25.5625 14.9918L29.2969 17.2106L29.6875 20.1022C29.2031 19.8522 28.6406 19.6959 28.0469 19.6959C27.6875 19.6959 26.9688 19.7897 26.6719 19.8678H26.6562C25.6249 20.0866 24.7813 20.774 24.3125 21.6803H21.6553V19.6959C21.6553 19.5553 21.5459 19.4303 21.3896 19.4303H16.124V18.3209C16.124 18.1803 16.0147 18.0543 15.8584 18.0543H14.8896C14.4364 16.4919 13.4521 15.1949 12.1709 14.3356L12.3115 14.2106C12.3427 14.195 12.3741 14.1793 12.3896 14.1481L13.5459 13.1793C13.6239 13.1168 13.6553 13.0074 13.624 12.9293C13.8273 12.3039 15.0303 8.61679 15.8896 6.02307H24.1719L25.4375 14.8043ZM8.43652 19.5553C8.88948 19.5555 9.24902 19.9304 9.24902 20.3678C9.24883 20.8206 8.87377 21.1801 8.43652 21.1803C7.99911 21.1803 7.63983 20.8208 7.62402 20.3678C7.62402 19.9146 7.99899 19.5553 8.43652 19.5553ZM8.43652 13.7418C11.1395 13.742 13.5145 15.492 14.3271 18.0387H2.54492C3.35759 15.4919 5.73335 13.7418 8.43652 13.7418ZM16.9678 7.0387C16.8428 7.03877 16.7334 7.11687 16.7021 7.24182L15.4678 12.3356L14.9678 14.0543C14.9522 14.1324 14.9679 14.2262 15.0303 14.3199L17.8271 17.6637C17.874 17.7261 17.9522 17.7574 18.0303 17.7574H21.7812C21.8904 17.7573 21.9844 17.6948 22.0312 17.6012L23.6875 14.2574C23.7031 14.2107 23.7188 14.1792 23.7188 14.1324V7.30432C23.7188 7.1638 23.6092 7.03889 23.4531 7.0387H16.9678ZM23.1875 9.1637H22.5625C21.875 9.1637 21.3271 9.71052 21.3271 10.3981V14.5231H19.874C19.1868 14.5233 18.6398 15.0702 18.6396 15.7574V17.1949H18.1553L15.5303 14.0543L15.999 12.4762L17.1865 7.56995H23.1875V9.1637ZM23.1719 9.71057V14.0387L21.625 17.1793H19.2021V15.7418C19.2023 15.3671 19.5149 15.0546 19.8896 15.0543H21.6094C21.7498 15.0541 21.875 14.9448 21.875 14.7887V10.3981C21.875 10.023 22.1875 9.71057 22.5625 9.71057H23.1719ZM28.2031 11.9137C28.4062 11.9137 28.5781 12.0856 28.5781 12.2887V16.1324L26.6719 14.9918V12.2887C26.6719 12.0856 26.8438 11.9137 27.0469 11.9137H28.2031ZM26.2656 12.8512V14.9137L25.8594 14.6637L25.8438 14.6012L24.5781 5.88245H25.2969L26.2656 12.8512ZM29.2344 8.77307H28.7188C28.3437 8.77308 28.0469 9.08555 28.0469 9.44495V11.6637H27.25V8.92932C27.25 8.36678 27.7031 7.9137 28.2656 7.9137H29.2344V8.77307Z" fill="url(#paint0_linear_1041_4746)"/>
<defs>
<linearGradient id="paint0_linear_1041_4746" x1="7.28362" y1="5.88245" x2="17.5373" y2="29.9782" gradientUnits="userSpaceOnUse">
<stop stop-color="#A578FF"/>
<stop offset="1" stop-color="#8F9BFF"/>
</linearGradient>
</defs>
</svg>
