<svg width="32" height="32" viewBox="0 0 32 32" fill="none" xmlns="http://www.w3.org/2000/svg">
<path d="M9.16474 3.06283C9.16474 2.97341 9.18434 2.88487 9.22241 2.80226C9.26048 2.71965 9.31627 2.64459 9.38662 2.58136C9.45696 2.51813 9.54047 2.46798 9.63238 2.43376C9.72429 2.39954 9.82279 2.38193 9.92227 2.38193H11.4373C11.5368 2.38193 11.6353 2.39954 11.7272 2.43376C11.8191 2.46798 11.9026 2.51813 11.973 2.58136C12.0433 2.64459 12.0991 2.71965 12.1372 2.80226C12.1753 2.88487 12.1949 2.97341 12.1949 3.06283V18.9551L14.4674 20.1358V19.4045C14.4674 19.0434 14.6271 18.697 14.9112 18.4416C15.1953 18.1862 15.5807 18.0427 15.9825 18.0427H19.0126C19.4144 18.0427 19.7998 18.1862 20.0839 18.4416C20.368 18.697 20.5277 19.0434 20.5277 19.4045V20.7663H28.1029C28.5048 20.7663 28.8901 20.9098 29.1743 21.1652C29.4584 21.4206 29.618 21.767 29.618 22.1281V24.8518C29.618 25.2129 29.4584 25.5593 29.1743 25.8147C28.8901 26.0701 28.5048 26.2136 28.1029 26.2136H15.9825C15.5807 26.2136 15.1953 26.0701 14.9112 25.8147C14.6271 25.5593 14.4674 25.2129 14.4674 24.8518V23.2802L12.1949 22.1009V26.2136C12.1949 26.3942 12.115 26.5674 11.973 26.695C11.8309 26.8227 11.6382 26.8945 11.4373 26.8945H9.92227C9.72136 26.8945 9.52868 26.8227 9.38662 26.695C9.24455 26.5674 9.16474 26.3942 9.16474 26.2136V22.8091H6.73459L7.55727 23.4573C7.63826 23.5212 7.70314 23.6 7.74755 23.6883C7.79197 23.7766 7.81491 23.8724 7.81483 23.9693V28.1923C7.81483 28.3729 7.73502 28.5461 7.59295 28.6738C7.45089 28.8014 7.25821 28.8732 7.0573 28.8732H6.61339V29.3457C6.61339 29.3815 6.60555 29.4169 6.59032 29.45C6.57509 29.483 6.55278 29.513 6.52464 29.5383C6.4965 29.5636 6.4631 29.5837 6.42633 29.5974C6.38957 29.611 6.35017 29.6181 6.31038 29.6181H3.88629C3.84649 29.6181 3.80709 29.611 3.77033 29.5974C3.73357 29.5837 3.70016 29.5636 3.67203 29.5383C3.64389 29.513 3.62157 29.483 3.60634 29.45C3.59111 29.4169 3.58328 29.3815 3.58328 29.3457V28.8732H3.13936C3.03988 28.8732 2.94138 28.8556 2.84947 28.8214C2.75756 28.7871 2.67405 28.737 2.60371 28.6738C2.53337 28.6105 2.47757 28.5355 2.4395 28.4529C2.40143 28.3702 2.38184 28.2817 2.38184 28.1923V23.9693C2.38195 23.8723 2.40512 23.7764 2.4498 23.6881C2.49448 23.5998 2.55964 23.5211 2.64091 23.4573L3.54691 22.7437C3.44662 22.7003 3.35818 22.6375 3.28787 22.5599C3.21756 22.4823 3.16709 22.3918 3.14006 22.2947C3.11302 22.1976 3.11007 22.0964 3.13142 21.9982C3.15277 21.9 3.1979 21.8072 3.2636 21.7264L5.48164 19.0028C5.55186 18.9164 5.64373 18.8461 5.74981 18.7976C5.85589 18.7491 5.97319 18.7238 6.09221 18.7236H9.16474V3.06283ZM14.4674 28.2563C14.4674 27.8951 14.6271 27.5487 14.9112 27.2933C15.1953 27.038 15.5807 26.8945 15.9825 26.8945H23.5578C23.7567 26.8945 23.9537 26.9297 24.1376 26.9981C24.3214 27.0666 24.4884 27.1669 24.6291 27.2933C24.7698 27.4198 24.8814 27.5699 24.9575 27.7351C25.0336 27.9004 25.0728 28.0775 25.0728 28.2563C25.0728 28.4351 25.0336 28.6122 24.9575 28.7774C24.8814 28.9426 24.7698 29.0928 24.6291 29.2192C24.4884 29.3457 24.3214 29.446 24.1376 29.5144C23.9537 29.5829 23.7567 29.6181 23.5578 29.6181H15.9825C15.5807 29.6181 15.1953 29.4746 14.9112 29.2192C14.6271 28.9638 14.4674 28.6175 14.4674 28.2563Z" fill="url(#paint0_linear_1041_4722)"/>
<defs>
<linearGradient id="paint0_linear_1041_4722" x1="8.16952" y1="2.38193" x2="25.5326" y2="29.6181" gradientUnits="userSpaceOnUse">
<stop stop-color="#FCA947"/>
<stop offset="1" stop-color="#FFCD6B"/>
</linearGradient>
</defs>
</svg>
