<svg width="32" height="32" viewBox="0 0 32 32" fill="none" xmlns="http://www.w3.org/2000/svg">
<path d="M3.45215 5.02898C4.42054 3.0921 6.1873 3.09203 7.14551 5.02898L7.16504 5.06805H5.28906C5.14901 5.07821 5.0386 5.12769 4.92871 5.19695C4.23014 5.68134 3.96106 7.4704 3.86133 8.0534C3.68156 9.15046 3.58168 10.2775 3.50195 11.3845C3.40193 12.9163 3.37207 14.458 3.37207 15.9997C3.37207 17.5415 3.40222 19.0839 3.50195 20.6159C3.58198 21.7329 3.68158 22.85 3.86133 23.947C3.9611 24.5303 4.2305 26.3179 4.92871 26.8024C4.98837 26.8519 5.03868 26.8917 5.09863 26.9313H7.16504L7.14551 26.9704C6.18728 28.9075 4.41956 28.9078 3.45117 26.9704C3.20162 26.4567 3.01276 25.8832 2.87305 25.32C2.66342 24.5489 2.52298 23.7485 2.41309 22.9577C2.2635 21.9201 2.16451 20.882 2.10449 19.8444C2.02447 18.5695 1.99414 17.2845 1.99414 15.9997C1.99415 14.715 2.02416 13.44 2.10449 12.155C2.16421 11.1173 2.26416 10.0792 2.41406 9.05145C2.52395 8.2509 2.66345 7.45007 2.87305 6.67938C3.01279 6.126 3.20255 5.54296 3.45215 5.02898ZM24.8447 5.02898C25.8128 3.09198 27.5798 3.09214 28.5381 5.02898C28.7975 5.54263 28.9771 6.12602 29.127 6.67938C29.3267 7.4501 29.477 8.25087 29.5869 9.05145C29.7365 10.0792 29.8256 11.1174 29.8955 12.155C29.9755 13.4398 30.0059 14.7149 30.0059 15.9997C30.0059 17.2845 29.9755 18.5694 29.8955 19.8444C29.8256 20.882 29.7368 21.9201 29.5869 22.9577C29.477 23.7484 29.3267 24.5489 29.127 25.32C28.9774 25.8832 28.7975 26.4564 28.5381 26.9704C27.5798 28.9072 25.8131 28.9074 24.8447 26.9704C24.5951 26.4567 24.4054 25.8833 24.2656 25.32C24.056 24.549 23.9166 23.7484 23.7969 22.9577C23.6571 21.9201 23.5571 20.882 23.4971 19.8444C23.4173 18.5694 23.3779 17.2845 23.3779 15.9997C23.3779 14.7149 23.4173 13.4398 23.4971 12.155C23.5571 11.1173 23.6571 10.0792 23.7969 9.05145C23.9166 8.25088 24.056 7.45008 24.2656 6.67938C24.4054 6.12597 24.5951 5.54299 24.8447 5.02898ZM24.3154 5.42449C24.1557 5.82975 24.0161 6.25443 23.9062 6.67938V6.69988H5.21875C5.15905 6.89743 5.10882 7.12476 5.04883 7.36199H23.7471C23.6273 7.92554 23.5273 8.48918 23.4473 9.05242L23.417 9.2702H4.75C4.72999 9.48743 4.69969 9.70523 4.67969 9.93231H23.3369C23.2569 10.5746 23.2071 11.2071 23.1572 11.8395H4.53027C4.52042 12.0568 4.50985 12.2843 4.5 12.5016H23.1182C23.0883 13.1439 23.0577 13.7764 23.0479 14.4089H4.44043C4.44043 14.6261 4.43067 14.8538 4.43066 15.071H23.0381C23.0282 15.3871 23.0283 15.6944 23.0283 16.0007C23.0283 16.3268 23.0282 16.653 23.0381 16.9792H4.43066C4.44081 17.2062 4.44043 17.4241 4.44043 17.6413H23.0479C23.0675 18.2836 23.0879 18.9161 23.1279 19.5485H4.5C4.51016 19.7757 4.53019 20.0032 4.54004 20.2106H23.168C23.2077 20.8529 23.2671 21.4854 23.3369 22.1179H4.68945C4.70945 22.3548 4.72993 22.5726 4.75977 22.78H23.4277L23.4473 22.9587C23.527 23.5317 23.627 24.1152 23.7568 24.6882H5.06934C5.11919 24.9349 5.17965 25.1527 5.22949 25.3503H23.917C24.0269 25.7654 24.1557 26.1807 24.3154 26.5856H5.27832V26.5759C4.49963 26.5255 3.72168 22.9968 3.72168 15.9997C3.7217 9.00286 4.49965 5.48474 5.27832 5.42449H24.3154ZM27.8291 8.27117C27.3 4.92059 26.7216 4.92059 26.1826 8.27117C26.013 9.33864 25.9135 10.436 25.8535 11.5134C25.7538 13.0054 25.7236 14.5076 25.7236 15.9997C25.7236 17.492 25.7538 18.9947 25.8535 20.487C25.9135 21.5742 26.013 22.6617 26.1826 23.7292C26.7216 27.0794 27.3 27.0794 27.8291 23.7292C27.999 22.6617 28.0991 21.5742 28.1689 20.487C28.2588 18.9947 28.2988 17.4923 28.2988 15.9997C28.2988 14.5076 28.2588 13.0054 28.1689 11.5134C28.0991 10.436 27.9987 9.33866 27.8291 8.27117ZM26.8311 6.76824C26.9409 7.15394 27.041 7.65831 27.1309 8.27117C27.3106 9.33861 27.3999 10.4361 27.4697 11.5134C27.5697 13.0054 27.5996 14.5076 27.5996 15.9997C27.5996 17.492 27.5695 18.9947 27.4697 20.487C27.3999 21.5742 27.3106 22.6617 27.1309 23.7292C27.041 24.3416 26.9409 24.8457 26.8311 25.2409C26.7313 24.8457 26.6319 24.3419 26.542 23.7292C26.3622 22.6617 26.272 21.5742 26.2021 20.487C26.1021 18.9947 26.0723 17.4923 26.0723 15.9997C26.0723 14.5076 26.1024 13.0054 26.2021 11.5134C26.272 10.436 26.3622 9.33866 26.542 8.27117C26.6316 7.65831 26.7313 7.15363 26.8311 6.76824Z" fill="url(#paint0_linear_1041_4817)"/>
<defs>
<linearGradient id="paint0_linear_1041_4817" x1="7.94663" y1="3.57629" x2="22.9195" y2="30.0545" gradientUnits="userSpaceOnUse">
<stop stop-color="#A578FF"/>
<stop offset="1" stop-color="#8F9BFF"/>
</linearGradient>
</defs>
</svg>
