<svg width="32" height="32" viewBox="0 0 32 32" fill="none" xmlns="http://www.w3.org/2000/svg">
<path d="M6.17898 11.1992V7.24571H6.72458V6.11612H8.36143V7.24571H10.5439V7.8105H11.6351V6.11612H13.8176V7.8105H16.5457C16.5457 7.6607 16.6032 7.51704 16.7055 7.41112C16.8078 7.3052 16.9466 7.2457 17.0913 7.2457C17.236 7.2457 17.3748 7.3052 17.4771 7.41112C17.5794 7.51704 17.6369 7.6607 17.6369 7.8105H20.365V8.37528H19.2738V8.94009H20.9106V9.50487H17.6369V10.0697H21.4562V11.1992H22.0019V15.1528H23.6387L24.7299 14.8552C25.5484 14.8552 26.3668 15.1087 26.3668 16.2078V17.9768H26.9124V17.6944C26.9121 17.657 26.9189 17.62 26.9324 17.5854C26.946 17.5509 26.966 17.5194 26.9914 17.4929C27.0168 17.4664 27.047 17.4453 27.0802 17.431C27.1135 17.4166 27.1492 17.4092 27.1852 17.4092C27.2213 17.4092 27.257 17.4166 27.2902 17.431C27.3235 17.4453 27.3537 17.4664 27.3791 17.4929C27.4044 17.5194 27.4245 17.5509 27.438 17.5854C27.4516 17.62 27.4584 17.657 27.458 17.6944V17.9768H27.7309C27.8032 17.9768 27.8726 18.0065 27.9237 18.0595C27.9749 18.1124 28.0036 18.1843 28.0036 18.2592C28.3048 18.2592 28.5493 18.8917 28.5493 19.6711C28.5493 20.4505 28.3048 21.0831 28.0036 21.0831C28.0036 21.158 27.9749 21.2298 27.9237 21.2828C27.8726 21.3357 27.8032 21.3655 27.7309 21.3655H27.458V21.6479C27.4584 21.6852 27.4516 21.7222 27.438 21.7568C27.4245 21.7914 27.4044 21.8229 27.3791 21.8494C27.3537 21.8759 27.3235 21.8969 27.2902 21.9113C27.257 21.9257 27.2213 21.9331 27.1852 21.9331C27.1492 21.9331 27.1135 21.9257 27.0802 21.9113C27.047 21.8969 27.0168 21.8759 26.9914 21.8494C26.966 21.8229 26.946 21.7914 26.9324 21.7568C26.9189 21.7222 26.9121 21.6852 26.9124 21.6479V21.3655H22.0019V22.4951H29.0949V25.8839H2.90527V22.4951H3.45088V11.1992H6.17898ZM20.365 17.9768V13.4584H13.272V22.4951H20.365V21.3655H17.9097C17.8739 21.3655 17.8384 21.3582 17.8053 21.344C17.7722 21.3298 17.7422 21.309 17.7168 21.2828C17.6915 21.2566 17.6714 21.2254 17.6577 21.1912C17.644 21.1569 17.6369 21.1202 17.6369 21.0831C17.3358 21.0831 17.0913 20.4505 17.0913 19.6711C17.0913 18.8917 17.3358 18.2592 17.6369 18.2592C17.6369 18.2221 17.644 18.1854 17.6577 18.1511C17.6714 18.1168 17.6915 18.0857 17.7168 18.0595C17.7422 18.0332 17.7722 18.0124 17.8053 17.9983C17.8384 17.9841 17.8739 17.9768 17.9097 17.9768H19.9143V16.9432C19.9143 16.6438 19.8434 16.2965 19.7005 15.9011C18.9366 16.0457 18.2491 15.7594 17.6369 15.0421C17.1988 14.9681 16.8049 14.44 16.4557 13.4584H18.8891C19.0086 13.8148 19.198 14.0543 19.4577 14.1757C19.7021 14.1074 20.0049 14.1695 20.365 14.3632V17.9768ZM25.2734 17.9768V17.1205C25.275 16.7562 25.0933 16.5744 24.7299 16.5744L23.6387 16.2824H22.0019V17.9768H25.2734ZM5.08773 20.8007H11.3623C11.3984 20.8004 11.4342 20.8074 11.4676 20.8214C11.501 20.8355 11.5313 20.8562 11.557 20.8825C11.5826 20.9087 11.6029 20.94 11.6168 20.9744C11.6307 21.0089 11.6378 21.0458 11.6378 21.0831C11.6378 21.1204 11.6307 21.1574 11.6168 21.1918C11.6029 21.2263 11.5826 21.2575 11.557 21.2838C11.5313 21.31 11.501 21.3308 11.4676 21.3448C11.4342 21.3588 11.3984 21.3659 11.3623 21.3655H5.08773V22.4951H11.6351V13.4584H5.08773V19.1063H11.3623C11.3984 19.106 11.4342 19.113 11.4676 19.1271C11.501 19.1411 11.5313 19.1618 11.557 19.1881C11.5826 19.2143 11.6029 19.2456 11.6168 19.28C11.6307 19.3145 11.6378 19.3514 11.6378 19.3887C11.6378 19.4261 11.6307 19.463 11.6168 19.4974C11.6029 19.5319 11.5826 19.5631 11.557 19.5894C11.5313 19.6157 11.501 19.6364 11.4676 19.6504C11.4342 19.6645 11.3984 19.6715 11.3623 19.6711H5.08773V20.8007ZM17.6369 8.37528V8.94009H18.7282V8.37528H17.6369ZM17.0913 10.0697V8.37528H13.8176V10.0697H17.0913ZM13.272 10.0697V8.37528H12.1808V10.0697H13.272ZM11.6351 10.0697V8.94009H10.5439V10.0697H11.6351Z" fill="url(#paint0_linear_1041_4850)"/>
<defs>
<linearGradient id="paint0_linear_1041_4850" x1="8.47057" y1="6.11612" x2="19.333" y2="28.6908" gradientUnits="userSpaceOnUse">
<stop stop-color="#07CB89"/>
<stop offset="1" stop-color="#39D398"/>
</linearGradient>
</defs>
</svg>
