<svg width="32" height="32" viewBox="0 0 32 32" fill="none" xmlns="http://www.w3.org/2000/svg">
<path d="M18.2012 6.95508C21.1879 6.95508 23.5459 9.35676 23.5459 12.3984V12.5576C23.5459 13.8515 23.1177 15.0285 22.3975 15.9551L24.332 17.7285V9.67676H26.6904C27.1617 9.67694 27.633 9.99645 27.9473 10.3164L31.249 14.959C31.4062 15.2792 31.7207 15.9201 31.7207 16.2402V20.8828C31.7207 21.3629 31.406 21.6835 30.9346 21.6836H30.5664C30.6386 22.4259 30.6473 23.8134 30.1484 25.8457C30.5701 23.6985 30.4944 22.3434 30.4004 21.6836H30.2988C30.2801 22.1972 30.1507 23.8272 29.2051 26.166C29.0523 26.1659 29.048 26.0141 29.0479 26.0059C29.527 24.6232 29.762 23.4879 29.8779 22.7061C29.6434 23.4686 29.211 24.4768 28.4189 25.5254C28.2635 25.5253 28.2617 25.3683 28.2617 25.3652C29.3412 23.8994 29.688 22.3401 29.792 21.6836H29.7861C29.6194 22.1719 29.2831 23.0084 28.4189 24.084C28.2669 24.0838 28.2619 23.934 28.2617 23.9248C29.064 22.9035 29.4179 22.1421 29.5693 21.6836H28.2617C27.7901 20.4029 26.6901 19.4424 25.2754 19.4424C23.8606 19.4424 22.7597 20.4029 22.2881 21.6836H8.45508C8.45508 21.6836 8.2981 19.2823 5.31152 19.2822C3.11078 19.2822 2.32422 21.6836 2.32422 21.6836C0.752655 21.6836 0.281288 21.8431 0.28125 20.8828V18.6416H22.8301L21.1592 17.1104C20.316 17.6741 19.3014 18.001 18.2012 18.001H6.09766C3.11093 18.001 0.75293 15.5993 0.75293 12.5576V12.3984C0.910126 9.35676 3.26816 6.95508 6.25488 6.95508H18.2012ZM25.2754 20.2422C26.69 20.2423 27.6328 21.363 27.6328 22.8037C27.6328 24.2444 26.5329 25.3651 25.2754 25.3652C24.0178 25.3652 22.917 24.2445 22.917 22.8037C22.917 21.3629 24.0178 20.2422 25.2754 20.2422ZM5.62598 19.7617C6.88337 19.7619 8.14047 20.8827 8.14062 22.3232C8.14062 23.7639 7.0406 24.8846 5.62598 24.8848C4.21121 24.8848 3.11035 23.764 3.11035 22.3232C3.11049 20.8826 4.2113 19.7617 5.62598 19.7617ZM25.2754 21.043C24.3323 21.043 23.7032 21.8432 23.7031 22.6436C23.7031 23.6041 24.3322 24.2441 25.2754 24.2441C26.2185 24.244 26.8467 23.4439 26.8467 22.6436C26.8466 21.6832 26.0613 21.0431 25.2754 21.043ZM5.62598 20.7227C4.6829 20.7227 4.05385 21.5229 4.05371 22.3232C4.05371 23.1237 4.6828 23.9248 5.62598 23.9248C6.56899 23.9246 7.19727 23.1236 7.19727 22.3232C7.19712 21.363 6.41178 20.7228 5.62598 20.7227ZM26.2188 10.7969C25.9044 10.7969 25.5898 11.1174 25.5898 11.5977V16.5605C25.5899 17.0407 25.9045 17.3604 26.376 17.3604H29.5195C29.8339 17.3604 30.1483 17.0407 30.1484 16.5605V16.4004C30.1484 16.0802 29.9912 15.4392 29.834 14.959L27.3184 11.4375C27.0041 11.1175 26.5331 10.7971 26.2188 10.7969ZM9.55566 12.5576C8.76977 12.5577 8.14062 13.1986 8.14062 13.999C8.14079 14.7995 9.55566 16.5605 9.55566 16.5605C9.55566 16.5605 10.9705 14.7995 10.9707 13.999C10.9707 13.3587 10.3416 12.5576 9.55566 12.5576ZM17.416 9.67676V14.4795C17.416 14.6391 17.4156 14.6396 17.2588 14.6396H16.4727C16.6296 14.9595 16.6299 15.1196 16.6299 15.4395H17.416C17.7302 15.4393 17.8878 15.2793 18.0449 15.2793C18.2016 15.279 18.2012 15.1193 18.2012 14.7998V12.2383C18.3584 12.8785 18.6731 13.3587 19.1445 13.8389C19.4589 14.159 19.7735 14.4796 20.2451 14.7998C20.4023 14.4797 20.5596 14.3192 20.7168 14.1592C20.2452 13.839 19.9306 13.6786 19.6162 13.3584C19.459 13.0384 19.1445 12.8784 18.9873 12.3984C19.4589 12.0783 19.7735 11.7575 20.2451 11.1172L20.4023 10.957L19.7734 10.4766C19.6162 10.9568 19.3016 11.4377 18.6729 11.918C18.3585 11.4377 18.2012 11.2771 18.2012 10.7969V9.67676H17.416ZM15.0576 11.1172V11.7578H16.4727C16.3155 12.3981 16.0009 12.8782 15.6865 13.3584C15.5293 13.6786 15.2148 13.9992 14.9004 14.3193L15.3721 14.7998C15.8437 14.4796 16.1582 14.159 16.3154 13.8389C16.6298 13.1986 16.9444 12.8784 17.1016 12.0781C17.2587 11.758 17.2588 11.7576 17.2588 11.5977L16.9443 11.1172H15.0576ZM5.62598 10.1572C4.84 10.1572 4.21094 10.7972 4.21094 11.5977C4.21105 12.3981 5.62598 14.1592 5.62598 14.1592C5.62598 14.1592 7.0409 12.3981 7.04102 11.5977C7.04102 10.9573 6.41195 10.1572 5.62598 10.1572ZM12.543 8.55566C11.757 8.55566 11.1279 9.19663 11.1279 9.99707C11.1284 10.7942 12.5307 12.5424 12.543 12.5576C12.5693 12.5248 13.9566 10.7901 13.957 9.99707C13.957 9.35682 13.3288 8.55592 12.543 8.55566Z" fill="url(#paint0_linear_1041_4776)"/>
<defs>
<linearGradient id="paint0_linear_1041_4776" x1="6.96213" y1="6.95508" x2="16.1003" y2="30.4138" gradientUnits="userSpaceOnUse">
<stop stop-color="#FF7456"/>
<stop offset="1" stop-color="#FF8D6D"/>
</linearGradient>
</defs>
</svg>
