<svg width="32" height="32" viewBox="0 0 32 32" fill="none" xmlns="http://www.w3.org/2000/svg">
<path d="M9.8682 14.4026C9.87508 14.5719 9.68141 14.6725 9.54682 14.5695L6.11639 11.9443C6.0649 11.9049 6.03571 11.843 6.03807 11.7782L6.33609 3.59421C6.34 3.48666 6.42833 3.40149 6.53595 3.40149H9.22946C9.33676 3.40149 9.42494 3.48616 9.4293 3.59337L9.8682 14.4026ZM17.4404 3.59983C17.4361 3.4926 17.3479 3.40789 17.2406 3.40789H14.544C14.4363 3.40789 14.348 3.49306 14.3441 3.60061L14.0461 11.7846C14.0437 11.8494 14.0729 11.9113 14.1244 11.9507L17.5549 14.576C17.6895 14.679 17.8832 14.5784 17.8763 14.4091L17.4404 3.59983ZM25.4516 3.59983C25.4473 3.4926 25.3591 3.40789 25.2518 3.40789H22.5552C22.4475 3.40789 22.3592 3.49306 22.3553 3.60061L22.0573 11.7846C22.0549 11.8494 22.0841 11.9113 22.1356 11.9507L25.5661 14.576C25.7007 14.679 25.8944 14.5784 25.8875 14.4091L25.4516 3.59983ZM19.604 12C19.4724 11.8992 19.2823 11.993 19.2823 12.1587V17.4905C19.2823 17.6563 19.0922 17.7501 18.9606 17.6492L11.5928 12.0001C11.4612 11.8993 11.2711 11.9931 11.2711 12.1589V17.4121C11.2711 17.5779 11.081 17.6717 10.9494 17.5708L3.68666 12.0022C3.55461 11.9009 3.36388 11.9958 3.36497 12.1622L3.47071 28.3998C3.47143 28.5097 3.56076 28.5985 3.67071 28.5985H28.4345C28.5459 28.5985 28.6358 28.5076 28.6345 28.3962L28.5282 18.9356C28.5275 18.8742 28.4986 18.8165 28.4499 18.7791L19.604 12Z" fill="url(#paint0_linear_1041_4823)"/>
<defs>
<linearGradient id="paint0_linear_1041_4823" x1="8.73314" y1="3.40149" x2="24.7753" y2="28.6431" gradientUnits="userSpaceOnUse">
<stop stop-color="#FF7456"/>
<stop offset="1" stop-color="#FF8D6D"/>
</linearGradient>
</defs>
</svg>
