<svg width="32" height="32" viewBox="0 0 32 32" fill="none" xmlns="http://www.w3.org/2000/svg">
<path d="M27.9597 2.85693H23.5982C22.9535 2.85693 22.4308 3.37959 22.4308 4.0243V4.60222C22.4304 4.61056 22.4296 4.61875 22.4296 4.62719C22.4296 6.59124 20.8317 8.18914 18.8676 8.18914C18.5842 8.18914 18.3545 8.41886 18.3545 8.70226C18.3545 8.98565 18.5842 9.21537 18.8676 9.21537C20.3044 9.21537 21.5889 8.5513 22.4308 7.51416V9.68403H23.8825V13.6476H21.3233C21.6315 13.6476 21.8813 13.3978 21.8813 13.0897V10.242C21.8813 9.93384 21.6315 9.68403 21.3233 9.68403H17.7445C17.4363 9.68403 17.1865 9.93384 17.1865 10.242V13.0897C17.1865 13.3978 17.4363 13.6476 17.7445 13.6476H14.8199C15.1281 13.6476 15.3779 13.3978 15.3779 13.0897V10.242C15.3779 9.93384 15.1281 9.68403 14.8199 9.68403H11.2411C10.9329 9.68403 10.6831 9.93384 10.6831 10.242V13.0897C10.6831 13.3978 10.9329 13.6476 11.2411 13.6476H5.85705C5.621 13.6476 5.38575 13.6752 5.15616 13.7301L7.8803 12.8299C8.1729 12.7332 8.33171 12.4176 8.23502 12.125L7.34148 9.42116C7.24478 9.12855 6.92919 8.96974 6.63658 9.06644L3.23852 10.1894C2.94591 10.2861 2.7871 10.6017 2.8838 10.8943L3.77734 13.5981C3.87404 13.8907 4.18963 14.0495 4.48224 13.9528L4.67861 13.888C3.60671 14.346 2.85548 15.4098 2.85548 16.6492C2.85548 17.8891 3.60732 18.9533 4.67994 19.4111V28.6098C4.67994 28.9043 4.91867 29.143 5.21314 29.143H28.5938C28.8883 29.143 29.127 28.9043 29.127 28.6098V4.0243C29.127 3.37959 28.6044 2.85693 27.9597 2.85693ZM3.88171 16.6492C3.88171 15.56 4.76784 14.6739 5.85705 14.6739H22.4308V18.6246H5.85705C4.76784 18.6246 3.88171 17.7384 3.88171 16.6492ZM23.457 7.30822V4.0243C23.4571 3.98688 23.472 3.95101 23.4984 3.92456C23.5249 3.8981 23.5607 3.88321 23.5982 3.88317H27.9597C27.9971 3.88321 28.0329 3.8981 28.0594 3.92456C28.0859 3.95101 28.1007 3.98688 28.1008 4.0243V7.30822H23.457Z" fill="url(#paint0_linear_1041_4844)"/>
<defs>
<linearGradient id="paint0_linear_1041_4844" x1="8.43818" y1="2.85693" x2="25.1995" y2="29.1346" gradientUnits="userSpaceOnUse">
<stop stop-color="#A578FF"/>
<stop offset="1" stop-color="#8F9BFF"/>
</linearGradient>
</defs>
</svg>
