<svg width="32" height="32" viewBox="0 0 32 32" fill="none" xmlns="http://www.w3.org/2000/svg">
<path d="M12.4912 4.95703C13.008 4.95721 13.4265 5.38249 13.4268 5.90723V8.7666C13.4268 9.29153 13.0081 9.7176 12.4912 9.71777H12.0908V10.1035C14.2225 9.7136 16.498 10.4317 18.0381 12.2002C20.3826 14.8953 20.1302 19.009 17.4785 21.3896C17.3831 21.4753 17.2854 21.5569 17.1865 21.6357L17.1943 21.6465C16.8458 21.9227 16.4702 22.1616 16.0732 22.3594V22.3477C14.281 23.2478 12.1786 23.2373 10.4072 22.3545V23.8486H16.0859V22.7393H17.8838L18.623 23.8486H18.75L18.7832 23.8262V23.8486H27.7705L28.0967 22.5537C27.4387 22.4311 26.8146 22.0952 26.3369 21.5469C25.204 20.2441 25.3238 18.2569 26.6055 17.1055C27.8885 15.9554 29.8466 16.079 30.9795 17.3818C32.113 18.6833 31.9919 20.6716 30.71 21.8203C30.2716 22.2133 29.7537 22.4531 29.2178 22.5527L29.5459 23.8486H31.7559V25.2627H0.541992V23.8486H3.00781V23.0508H1.65332C0.874331 23.0508 0.242188 22.4095 0.242188 21.6182V11.0166C0.242188 10.2256 0.874005 9.58398 1.65332 9.58398H5.2207C5.99966 9.58402 6.63184 10.2253 6.63184 11.0166V12.6455H8.07617C8.33976 12.2835 8.64378 11.943 8.98926 11.6328C9.36665 11.294 9.77311 11.01 10.1982 10.7773H10.0762V9.71777H9.67578C9.15874 9.71777 8.73926 9.29163 8.73926 8.7666V5.90723C8.73948 5.38238 9.15887 4.95703 9.67578 4.95703H12.4912ZM6.63184 21.6191C6.63134 22.41 5.99956 23.0507 5.2207 23.0508H3.86621V23.8486H7.73926L9.28906 21.6406C8.98426 21.3983 8.69523 21.1265 8.42969 20.8213C8.32837 20.7049 8.23324 20.5843 8.1416 20.4629H6.63184V21.6191ZM25.7783 21.5967C25.8989 21.8114 26.047 22.0167 26.2246 22.207C26.4109 22.4058 26.6183 22.5766 26.8398 22.7197L16.0527 22.7383C16.085 22.7151 16.1175 22.6912 16.1494 22.667C16.649 22.5484 17.1272 22.319 17.54 21.9746C17.6736 21.8634 17.798 21.7411 17.9121 21.6094L25.7783 21.5967ZM17.4082 12.7646C15.3711 10.4241 11.8499 10.203 9.54492 12.2715C7.23992 14.3401 7.02141 17.9162 9.05859 20.2568C11.0958 22.5974 14.6167 22.8185 16.9219 20.75C19.2269 18.6813 19.4454 15.1053 17.4082 12.7646ZM9.77539 12.5361C11.9365 10.5977 15.2375 10.8045 17.1475 13C19.057 15.1929 18.8528 18.5463 16.6914 20.4844C14.5309 22.4248 11.2289 22.2156 9.31934 20.0225C7.40948 17.8273 7.61342 14.4755 9.77539 12.5361ZM29.4277 18.7725C29.0526 18.3408 28.4028 18.3004 27.9766 18.6826C27.5533 19.0645 27.5107 19.7241 27.8877 20.1553C28.2628 20.5872 28.9128 20.6284 29.3389 20.2461C29.7629 19.8642 29.8042 19.2054 29.4277 18.7725ZM14.4316 12.8789C14.1583 12.7862 13.8618 12.9363 13.7705 13.2139C13.7177 13.3748 13.7459 13.5437 13.832 13.6748L13.4004 14.9941C13.0856 14.959 12.76 15.0244 12.4756 15.1934L11.5879 14.1719C11.6305 14.0064 11.594 13.8233 11.4736 13.6855C11.2829 13.4674 10.9533 13.446 10.7383 13.6396C10.521 13.8341 10.4999 14.1694 10.6924 14.3887C10.803 14.5164 10.961 14.5763 11.1162 14.5664L12.0215 15.6084C11.8364 15.8643 11.7387 16.1681 11.7314 16.4746L10.3467 16.7324C10.2338 16.6523 10.0898 16.6173 9.94336 16.6475C9.66258 16.7053 9.4803 16.9853 9.53711 17.2705C9.59452 17.5587 9.87115 17.7432 10.1523 17.6855C10.3443 17.6454 10.4894 17.5035 10.5449 17.3262L11.8418 17.085C11.9054 17.2447 11.9952 17.3922 12.1074 17.5215C12.2156 17.6456 12.339 17.7477 12.4727 17.8271L12.0449 19.1338C11.8911 19.1832 11.7608 19.3039 11.7051 19.4707C11.6141 19.7479 11.7628 20.0475 12.0352 20.1416C12.3075 20.2357 12.604 20.0861 12.6953 19.8086C12.7482 19.6476 12.7202 19.4792 12.6348 19.3477L13.0674 18.0273C13.3729 18.0617 13.688 18.0022 13.9658 17.8447L14.873 18.8887C14.8451 19.0426 14.8843 19.2072 14.9941 19.334C15.184 19.5536 15.5155 19.574 15.7305 19.3799C15.9454 19.1861 15.9649 18.8508 15.7764 18.6318C15.7193 18.5665 15.647 18.5166 15.5664 18.4863C15.4858 18.4561 15.3986 18.447 15.3135 18.459L14.4268 17.4385C14.62 17.1822 14.7281 16.8705 14.7354 16.5479L16.1211 16.29C16.2336 16.3688 16.3768 16.4034 16.5225 16.374C16.8037 16.3161 16.9858 16.0336 16.9287 15.7471C16.872 15.4613 16.5966 15.2748 16.3145 15.334C16.1204 15.3741 15.9738 15.5178 15.9189 15.6963L14.626 15.9365C14.5637 15.7813 14.4748 15.6337 14.3594 15.501C14.2511 15.3765 14.1278 15.2741 13.9941 15.1943L14.4219 13.8867C14.5758 13.838 14.7056 13.7171 14.7607 13.5498C14.8518 13.2724 14.7048 12.9717 14.4316 12.8789ZM6.63184 20.0508H7.85352C6.48599 17.9144 6.4936 15.1752 7.7998 13.0576H6.63184V20.0508ZM27.999 15.9619C27.4355 16.0693 26.9066 16.3159 26.459 16.6797L19.4902 13.7314C19.2071 13.0779 18.8252 12.4661 18.3496 11.9219L18.293 11.8564L27.999 15.9619Z" fill="url(#paint0_linear_1041_4826)"/>
<defs>
<linearGradient id="paint0_linear_1041_4826" x1="6.93897" y1="4.95703" x2="16.976" y2="29.3922" gradientUnits="userSpaceOnUse">
<stop stop-color="#07CB89"/>
<stop offset="1" stop-color="#39D398"/>
</linearGradient>
</defs>
</svg>
