<svg width="32" height="32" viewBox="0 0 32 32" fill="none" xmlns="http://www.w3.org/2000/svg">
<path d="M29.2342 23.1574C29.3342 22.5411 29.2991 21.9104 29.1313 21.309C28.9635 20.7076 28.667 20.1498 28.2624 19.6742C27.8578 19.1987 27.3547 18.8167 26.7879 18.5548C26.2211 18.2929 25.6042 18.1572 24.9798 18.1572C24.3554 18.1572 23.7385 18.2929 23.1717 18.5548C22.6049 18.8167 22.1018 19.1987 21.6972 19.6742C21.2926 20.1498 20.9961 20.7076 20.8283 21.309C20.6606 21.9104 20.6254 22.5411 20.7254 23.1574H16.1245C16.2241 22.5416 16.1888 21.9115 16.021 21.3106C15.8531 20.7098 15.5568 20.1525 15.1524 19.6775C14.748 19.2024 14.2453 18.8209 13.679 18.5592C13.1126 18.2976 12.4962 18.1621 11.8724 18.1621C11.2485 18.1621 10.6321 18.2976 10.0658 18.5592C9.49949 18.8209 8.99676 19.2024 8.59239 19.6775C8.18803 20.1525 7.89168 20.7098 7.72384 21.3106C7.556 21.9115 7.52068 22.5416 7.62033 23.1574H1.47363C1.19749 23.1574 0.973633 22.9336 0.973633 22.6574V16.4818C0.973633 16.2056 1.19749 15.9818 1.47363 15.9818H15.506V9.40733L5.7958 7.78902V8.28276H5.11691V9.7169L5.11774 11.0355C4.96322 10.9151 4.77143 10.8525 4.5756 10.8586C4.37978 10.8647 4.19226 10.9391 4.04553 11.0689C3.8988 11.1987 3.80211 11.3758 3.7722 11.5694C3.7423 11.763 3.78107 11.961 3.8818 12.1291C3.98253 12.2971 4.13887 12.4246 4.32373 12.4895C4.50859 12.5544 4.71033 12.5526 4.89399 12.4843C5.07765 12.4161 5.23165 12.2858 5.32933 12.116C5.427 11.9461 5.46219 11.7475 5.42879 11.5544H5.48524C5.51252 11.4206 5.58521 11.3003 5.691 11.2139C5.79679 11.1274 5.9292 11.0802 6.0658 11.0802C6.20239 11.0802 6.3348 11.1274 6.44059 11.2139C6.54638 11.3003 6.61907 11.4206 6.64635 11.5544H6.65162C6.65392 11.5939 6.65754 11.6329 6.65754 11.6729C6.65796 12.0511 6.55189 12.4219 6.35146 12.7426C6.15104 13.0634 5.86436 13.3212 5.52424 13.4867C5.18411 13.6521 4.80428 13.7185 4.42821 13.6781C4.05214 13.6378 3.69503 13.4924 3.39774 13.2585C3.10045 13.0247 2.87499 12.7119 2.74717 12.3559C2.61934 12 2.59432 11.6152 2.67496 11.2457C2.7556 10.8761 2.93864 10.5368 3.20314 10.2664C3.46764 9.99605 3.80291 9.80562 4.17058 9.7169V8.28276H3.49169V6.47238H3.65627L3.49169 6.30781L5.51371 6.47238H5.7958V6.49543L17.6455 7.45986V15.9818H18.3532V5.91611H25.6696C25.8474 5.91611 26.0119 6.01056 26.1015 6.16417L30.9577 14.4891C31.0023 14.5656 31.0258 14.6525 31.0258 14.7411V22.6574C31.0258 22.9336 30.8019 23.1574 30.5258 23.1574H29.2342ZM24.5085 8.60862L21.105 8.68104V13.8093H27.405L24.5085 8.60862ZM11.8724 19.1861C12.5545 19.1861 13.2212 19.3884 13.7883 19.7673C14.3554 20.1463 14.7974 20.6849 15.0584 21.315C15.3194 21.9452 15.3876 22.6386 15.2545 23.3075C15.1214 23.9764 14.7929 24.5909 14.3106 25.0731C13.8283 25.5554 13.2138 25.8838 12.5448 26.0168C11.8759 26.1498 11.1825 26.0814 10.5524 25.8203C9.92229 25.5593 9.38375 25.1172 9.00489 24.55C8.62603 23.9829 8.42387 23.3161 8.42397 22.6341C8.4241 21.7196 8.78747 20.8426 9.43416 20.196C10.0809 19.5494 10.9579 19.1861 11.8724 19.1861ZM11.8724 24.0155C12.1455 24.0155 12.4125 23.9345 12.6396 23.7828C12.8667 23.6311 13.0437 23.4154 13.1483 23.163C13.2528 22.9107 13.2801 22.633 13.2268 22.3651C13.1736 22.0973 13.042 21.8512 12.8489 21.6581C12.6558 21.4649 12.4097 21.3334 12.1418 21.2801C11.8739 21.2268 11.5963 21.2542 11.3439 21.3587C11.0916 21.4632 10.8759 21.6402 10.7241 21.8673C10.5724 22.0944 10.4914 22.3614 10.4914 22.6346C10.4914 23.0008 10.6369 23.3521 10.8959 23.6111C11.1549 23.87 11.5061 24.0155 11.8724 24.0155ZM24.8742 19.1861C25.5562 19.1861 26.2229 19.3884 26.79 19.7673C27.3571 20.1463 27.7991 20.6849 28.0601 21.315C28.3211 21.9452 28.3894 22.6386 28.2563 23.3075C28.1232 23.9764 27.7947 24.5909 27.3124 25.0731C26.8301 25.5554 26.2156 25.8838 25.5466 26.0168C24.8776 26.1498 24.1843 26.0814 23.5542 25.8203C22.924 25.5593 22.3855 25.1172 22.0066 24.55C21.6278 23.9829 21.4256 23.3161 21.4257 22.6341C21.4259 21.7196 21.7892 20.8426 22.4359 20.196C23.0826 19.5494 23.9597 19.1861 24.8742 19.1861ZM24.8742 24.0155C25.1473 24.0155 25.4143 23.9345 25.6414 23.7828C25.8685 23.6311 26.0455 23.4154 26.15 23.163C26.2545 22.9107 26.2819 22.633 26.2286 22.3651C26.1753 22.0973 26.0438 21.8512 25.8507 21.6581C25.6575 21.4649 25.4115 21.3334 25.1436 21.2801C24.8757 21.2268 24.598 21.2542 24.3457 21.3587C24.0933 21.4632 23.8777 21.6402 23.7259 21.8673C23.5742 22.0944 23.4932 22.3614 23.4932 22.6346C23.4931 22.8159 23.5289 22.9955 23.5982 23.1631C23.6676 23.3306 23.7694 23.4829 23.8976 23.6111C24.0258 23.7393 24.1781 23.8411 24.3456 23.9105C24.5132 23.9799 24.6928 24.0156 24.8742 24.0155Z" fill="url(#paint0_linear_1041_4734)"/>
<defs>
<linearGradient id="paint0_linear_1041_4734" x1="7.35972" y1="5.91611" x2="17.6163" y2="29.8911" gradientUnits="userSpaceOnUse">
<stop stop-color="#07CB89"/>
<stop offset="1" stop-color="#39D398"/>
</linearGradient>
</defs>
</svg>
