<svg width="32" height="32" viewBox="0 0 32 32" fill="none" xmlns="http://www.w3.org/2000/svg">
<path d="M1.87025 6.05119L2.87734 3.54311L3.03319 3.15408C3.12885 2.91528 3.39009 2.78804 3.63709 2.85994L4.03037 2.97443L21.8414 8.14739H21.8469L22.2331 6.87402C22.297 6.66327 22.4913 6.51916 22.7116 6.51916H28.7939C29.0701 6.51916 29.2939 6.74302 29.2939 7.01916V17.4307C29.2939 17.7068 29.0701 17.9307 28.7939 17.9307H27.3039V23.1549H29.9723C30.2484 23.1549 30.4723 23.3787 30.4723 23.6549V28.7668C30.4723 29.0429 30.2484 29.2668 29.9723 29.2668H19.7791C19.5029 29.2668 19.2791 29.0429 19.2791 28.7668V23.6555C19.2791 23.3793 19.5029 23.1555 19.7791 23.1555H22.1737V17.9313H20.2139C19.9377 17.9313 19.7139 17.7074 19.7139 17.4313V15.3152L19.3219 15.1343L8.08829 9.94387V13.5941H8.59726V16.4502H7.8133V17.441C6.63494 17.9958 6.5469 18.5916 6.94189 18.7556L7.03356 18.6616L7.29528 18.3968L7.557 18.6616L7.60706 18.711C8.02041 18.5319 8.37953 18.2474 8.64852 17.886L8.99407 18.2171C8.85215 18.4752 8.71144 18.7339 8.57194 18.9932C8.50017 19.1446 8.40982 19.2864 8.30297 19.4154L9.78708 20.917H10.6687C10.9448 20.917 11.1687 21.1408 11.1687 21.417V25.6406C11.1687 25.9167 10.9448 26.1406 10.6687 26.1406H3.64811C3.37197 26.1406 3.14811 25.9167 3.14811 25.6406V21.417C3.14811 21.1408 3.37197 20.917 3.64811 20.917H4.80408L6.14828 19.5571C5.91784 19.3237 5.75067 19.0355 5.66256 18.7196C5.57446 18.4036 5.56832 18.0705 5.64473 17.7516L6.77605 16.6359V16.4484H6.08617V13.5923H6.68138V9.29198L2.36475 7.29709L1.95953 7.10982C1.71789 6.99815 1.60612 6.71673 1.70528 6.46969L1.87326 6.05119H1.87025ZM6.79837 19.9249L5.75268 20.9176H8.83547L7.72103 19.8598C7.42938 19.984 7.10447 20.0074 6.79837 19.9249ZM6.03913 5.579L6.23874 6.20497L6.47996 5.70685L6.03913 5.579ZM8.38318 6.25924L9.30404 7.89471L9.91131 6.70309L8.38318 6.25924ZM11.5793 7.18794L12.6467 9.41379L13.3656 7.70596L11.5793 7.18794ZM14.8449 8.13593L15.9303 10.9262L16.9139 8.73597L14.8473 8.13292L14.8449 8.13593ZM18.3558 9.15569L19.4111 12.2729L20.3254 9.72798L18.3558 9.15569ZM18.518 12.6311L17.5284 9.70929L16.6112 11.7512L18.518 12.6311ZM14.9112 10.9648L14.012 8.64611L13.3408 10.2394L14.9088 10.963L14.9112 10.9648ZM11.5866 9.42887L10.6217 7.42072L9.97644 8.68712L11.5842 9.43008L11.5866 9.42887ZM8.17754 7.85371L7.27839 6.25683L6.81103 7.22171L8.17754 7.85371ZM5.33778 6.54087L4.92891 5.25637L4.3319 5.0839L3.99539 5.92093L5.33778 6.54087ZM25.7866 8.41756H23.58L22.0121 13.6092H25.7848L25.7866 8.41756Z" fill="url(#paint0_linear_1041_4814)"/>
<defs>
<linearGradient id="paint0_linear_1041_4814" x1="7.67891" y1="2.73322" x2="23.9352" y2="30.5498" gradientUnits="userSpaceOnUse">
<stop stop-color="#FCA947"/>
<stop offset="1" stop-color="#FFCD6B"/>
</linearGradient>
</defs>
</svg>
