<svg width="32" height="32" viewBox="0 0 32 32" fill="none" xmlns="http://www.w3.org/2000/svg">
<path d="M16.0002 3.55618C8.38003 3.55618 2.18066 9.75549 2.18066 17.3757C2.18066 17.7134 2.45415 17.9865 2.79145 17.9865C3.12872 17.9865 3.40227 17.7133 3.40227 17.3757C3.40227 12.0929 6.67099 7.56006 11.2918 5.69134C9.90984 6.96754 9.33485 8.13338 8.93012 10.126C8.66839 10.1661 8.46928 10.2417 8.33269 10.3529C6.45583 14.023 5.59616 17.7408 5.75354 21.5063C5.83029 21.8094 6.00425 22.0482 6.23256 22.22C7.01971 34.2797 31.154 26.7127 24.7965 17.252C24.8191 17.1689 24.841 17.083 24.8633 16.9984C24.9895 17.0037 25.0963 17.0093 25.1457 17.0186C25.5947 17.1043 26.0771 16.5771 26.2229 15.841C26.3687 15.1048 26.1228 14.4385 25.6737 14.353C25.637 14.3459 25.5643 14.3178 25.4779 14.282C25.5638 13.8415 25.6442 13.4 25.7191 12.9574C24.5535 6.81059 14.181 3.5344 12.4377 11.7156L12.051 11.7975L10.7839 16.6516L11.3031 17.5576L10.606 20.8907C10.3668 22.1877 10.606 23.6282 11.2467 24.091C15.5112 25.4853 19.9827 24.6935 23.2432 21.0011C23.5546 20.6486 23.8637 20.0379 24.16 19.2565C26.4363 25.8729 9.34074 30.756 7.84985 22.4389C8.17657 22.3237 8.46866 22.1098 8.66117 21.7912L9.32454 18.2185C9.79078 18.2339 10.3574 18.1798 10.6244 17.8621C10.7283 16.6303 10.7668 14.3626 10.6991 10.8443L10.3361 10.4193C11.0342 7.5986 11.6402 6.8612 14.2369 4.90178C14.8211 4.81937 15.4103 4.77793 16.0002 4.77776C22.9467 4.77776 28.5982 10.429 28.5982 17.3757C28.5982 17.7133 28.8716 17.9865 29.2089 17.9865C29.5462 17.9865 29.8198 17.7133 29.8198 17.3757C29.8198 9.75552 23.6204 3.55618 16.0002 3.55618ZM24.8745 15.5842C24.9808 15.0114 25.3325 14.6011 25.6602 14.6678C25.9876 14.7345 26.167 15.2529 26.0607 15.8257C25.9544 16.3985 25.6026 16.8089 25.2751 16.7422C24.9474 16.6755 24.7681 16.1571 24.8745 15.5842ZM11.5667 15.8273L12.4682 12.5671C12.4906 12.4863 12.5399 12.4155 12.6079 12.3663C12.6759 12.3172 12.7586 12.2927 12.8424 12.2969L18.4287 12.5742C18.6591 12.5856 18.8228 12.8031 18.7698 13.0277L17.9422 16.5376C17.9218 16.6243 17.8707 16.7007 17.7983 16.7527C17.726 16.8048 17.6373 16.8288 17.5486 16.8206L11.8883 16.2935C11.6594 16.2722 11.5054 16.0491 11.5667 15.8273ZM18.6102 18.3422L11.8263 17.5801C11.8053 17.5777 11.7853 17.5702 11.7681 17.5581C11.7508 17.546 11.7368 17.5298 11.7274 17.5109L11.4567 16.9664C11.4124 16.8775 11.4835 16.7749 11.5823 16.7848L17.9634 17.432C17.9918 17.435 18.0184 17.4474 18.0389 17.4673L18.7125 18.1266C18.7983 18.2105 18.7294 18.3556 18.6102 18.3422ZM20.5068 13.5476L19.711 17.973C19.6927 18.0751 19.568 18.1158 19.493 18.0439L18.4855 17.0793C18.4691 17.0637 18.4571 17.0439 18.4507 17.0222C18.4443 17.0004 18.4437 16.9774 18.4489 16.9553L19.4186 12.8771C19.4526 12.734 19.6273 12.6791 19.7371 12.7772L20.4654 13.4275C20.482 13.4423 20.4945 13.4611 20.5018 13.4822C20.509 13.5032 20.5108 13.5257 20.5068 13.5476ZM23.8613 14.5577C23.7223 14.7553 23.6081 14.9964 23.5371 15.2674C23.4434 15.6252 23.4404 15.9721 23.5107 16.2579C23.1779 15.576 23.3759 14.4606 24.1643 14.1449C24.0438 14.275 23.9458 14.4138 23.8613 14.5577ZM9.25893 17.0035C9.25592 17.0221 9.24767 17.0395 9.23515 17.0537C9.22263 17.0678 9.20635 17.0781 9.1882 17.0834L8.38574 17.3167C8.30976 17.3389 8.23953 17.2681 8.26221 17.1924L9.72656 12.2931C9.746 12.228 9.82315 12.201 9.87892 12.2395L10.139 12.4186C10.1519 12.4275 10.1625 12.4392 10.1699 12.4529C10.1774 12.4666 10.1816 12.4819 10.1822 12.4975L10.2527 14.559C10.2546 14.6148 10.2089 14.6601 10.153 14.6614C9.9685 14.6658 9.81149 14.6872 9.68197 14.7255C9.64537 14.7363 9.61994 14.7684 9.61386 14.8061L9.25893 17.0035ZM9.33963 18.1413C10.0563 18.0178 10.3876 17.8314 10.3339 17.5825C10.6202 17.8571 10.2889 18.0436 9.33963 18.1413ZM10.5241 17.5348C10.292 17.2205 9.95443 17.0724 9.5114 17.0906L9.51325 16.8448C10.1024 16.8311 10.4393 17.0612 10.5241 17.5348Z" fill="url(#paint0_linear_1041_4847)"/>
<defs>
<linearGradient id="paint0_linear_1041_4847" x1="8.05398" y1="3.55615" x2="23.1667" y2="29.8831" gradientUnits="userSpaceOnUse">
<stop stop-color="#FF7456"/>
<stop offset="1" stop-color="#FF8D6D"/>
</linearGradient>
</defs>
</svg>
