<svg width="32" height="32" viewBox="0 0 32 32" fill="none" xmlns="http://www.w3.org/2000/svg">
<path d="M22.8618 21.7997H19.2309V16.567H12.7692V21.7997H9.13841C8.60963 21.7997 8.18131 22.4098 8.18131 23.1621V25.5031C8.18131 26.2554 8.60963 26.8655 9.13793 26.8655H22.8622C23.391 26.8655 23.8193 26.2549 23.8193 25.5031V23.1621C23.8193 22.4093 23.3905 21.7997 22.8618 21.7997ZM12.7697 8.9406H19.2314V11.7201H12.7692L12.7697 8.9406ZM12.6534 15.6589H19.3478C20.015 15.6589 20.5563 14.8887 20.5563 13.9375V12.2992H11.4444V13.9375C11.4444 14.8877 11.9861 15.6589 12.6534 15.6589ZM20.5558 6.85594C20.5558 5.90521 20.015 5.13452 19.3473 5.13452H12.6529C11.9857 5.13452 11.4444 5.90469 11.4444 6.85594V8.36153H20.5553L20.5558 6.85594ZM22.3411 9.85184C22.2065 9.85184 22.084 9.9187 21.9869 10.0293L21.2201 10.6599L21.9869 11.29C22.0873 11.4053 22.2128 11.468 22.3411 11.4675C22.6546 11.4675 22.9084 11.1058 22.9084 10.6599C22.9084 10.2124 22.6546 9.85184 22.3411 9.85184ZM24.9226 9.85184C24.788 9.85184 24.6654 9.9187 24.5683 10.0293L23.8015 10.6599L24.5683 11.29C24.6687 11.4053 24.7942 11.468 24.923 11.4675C25.236 11.4675 25.4903 11.1058 25.4903 10.6599C25.4903 10.2124 25.2355 9.85184 24.9226 9.85184ZM27.2103 11.4669C27.5232 11.4669 27.7775 11.1053 27.7775 10.6589C27.7775 10.213 27.5232 9.85079 27.2103 9.85079C27.0757 9.85079 26.9526 9.91765 26.8555 10.0287L26.0888 10.6589L26.8555 11.289C26.956 11.4048 27.0814 11.4669 27.2103 11.4669ZM24.9461 13.1568C24.8876 13.1257 24.8235 13.1092 24.7585 13.1082C24.6934 13.1073 24.629 13.1221 24.5697 13.1515L23.6982 13.37L24.2674 14.3349C24.3337 14.4928 24.4366 14.6123 24.5582 14.6745C24.8524 14.8271 25.1783 14.6113 25.2855 14.1912C25.3917 13.7727 25.2408 13.3084 24.9461 13.1568ZM24.9461 8.16201C25.2403 8.00935 25.3922 7.54609 25.2855 7.12653C25.1778 6.70802 24.8529 6.49165 24.5582 6.64326C24.4322 6.70854 24.3322 6.83173 24.2674 6.98281L23.6982 7.94828L24.5697 8.16675C24.688 8.22465 24.8197 8.22729 24.9461 8.16201ZM27.3367 14.0706C27.2781 14.0396 27.2141 14.023 27.149 14.0221C27.084 14.0212 27.0196 14.036 26.9603 14.0654L26.0888 14.2838L26.6579 15.2493C26.7243 15.4067 26.8271 15.5262 26.9488 15.5883C27.243 15.741 27.5689 15.5252 27.6761 15.1051C27.7828 14.6866 27.6309 14.2233 27.3367 14.0706ZM27.3367 7.24813C27.6309 7.09547 27.7828 6.63221 27.6761 6.21265C27.5684 5.79361 27.2434 5.57725 26.9488 5.72939C26.8228 5.79466 26.7228 5.91732 26.6579 6.0684L26.0888 7.03493L26.9603 7.25339C27.0786 7.3113 27.2103 7.31341 27.3367 7.24813ZM22.4402 9.09589C22.7344 8.94323 22.8863 8.47997 22.7796 8.06094C22.6724 7.6419 22.3469 7.42554 22.0522 7.57767C21.9263 7.64295 21.8263 7.76561 21.7614 7.91669L21.1922 8.88269L22.0643 9.10168C22.182 9.15959 22.3137 9.16117 22.4402 9.09589ZM22.457 12.2229C22.3985 12.1918 22.3346 12.1752 22.2696 12.1742C22.2047 12.1732 22.1403 12.1879 22.0811 12.2171L21.2091 12.4356L21.7782 13.401C21.845 13.5584 21.9479 13.6785 22.0691 13.7406C22.3633 13.8932 22.6892 13.6769 22.7964 13.2573C22.9031 12.8393 22.7517 12.3761 22.457 12.2229ZM9.6595 11.4664C9.7941 11.4664 9.91668 11.3995 10.0138 11.2885L10.7805 10.6583L10.0138 10.0282C9.96897 9.97359 9.91442 9.92963 9.85348 9.89902C9.79254 9.86842 9.72652 9.85182 9.6595 9.85026C9.34608 9.85026 9.09226 10.2124 9.09226 10.6583C9.09226 11.1047 9.34608 11.4664 9.6595 11.4664ZM7.43236 11.2885L8.1991 10.6583L7.43236 10.0282C7.38756 9.97359 7.333 9.92963 7.27206 9.89902C7.21112 9.86842 7.1451 9.85182 7.07808 9.85026C6.76466 9.85026 6.51084 10.2124 6.51084 10.6583C6.51084 11.1047 6.76466 11.4664 7.07808 11.4664C7.21268 11.4664 7.33526 11.3995 7.43236 11.2885ZM4.7899 9.85184C4.47743 9.85132 4.22266 10.2135 4.22266 10.6599C4.22266 11.1058 4.47695 11.4675 4.7899 11.4675C4.92449 11.4675 5.04756 11.4011 5.14466 11.29L5.91139 10.6599L5.14466 10.0293C5.09985 9.97455 5.04521 9.93057 4.98417 9.90004C4.92313 9.86952 4.85699 9.85311 4.7899 9.85184ZM7.43044 13.1504C7.37119 13.1211 7.30675 13.1063 7.24171 13.1072C7.17666 13.1081 7.1126 13.1247 7.05405 13.1557C6.75985 13.3084 6.60795 13.7716 6.71466 14.1912C6.82234 14.6102 7.1473 14.8266 7.44198 14.6745C7.56793 14.6092 7.66791 14.4865 7.73281 14.3349L8.30197 13.3694L7.43044 13.1504ZM7.05405 8.16148C7.17999 8.22676 7.31219 8.22465 7.43044 8.16675L8.30197 7.94828L7.73281 6.98281C7.66647 6.82541 7.5636 6.70591 7.44198 6.64379C7.14778 6.49113 6.82186 6.70696 6.71466 7.12705C6.60795 7.54556 6.75937 8.00882 7.05405 8.16148ZM4.66347 14.0706C4.36927 14.2233 4.21737 14.6866 4.32409 15.1061C4.43177 15.5252 4.75673 15.741 5.0514 15.5894C5.17735 15.5241 5.27734 15.4009 5.34223 15.2498L5.91139 14.2844L5.03987 14.0659C4.98066 14.0363 4.91621 14.0214 4.85113 14.0223C4.78605 14.0232 4.72196 14.0394 4.66347 14.0706ZM5.0514 5.72939C4.75721 5.57672 4.43128 5.79256 4.32409 6.21265C4.21689 6.63116 4.36879 7.09547 4.66347 7.24813C4.78941 7.31288 4.92161 7.31078 5.03987 7.25339L5.91139 7.03493L5.34271 6.06946C5.27589 5.91206 5.17302 5.79203 5.0514 5.72939ZM9.55999 9.09589C9.68594 9.16117 9.81813 9.15906 9.93591 9.10168L10.8079 8.88322L10.2388 7.91775C10.1719 7.75982 10.0695 7.64032 9.94793 7.5782C9.65373 7.42554 9.32781 7.6419 9.22061 8.06146C9.11389 8.47945 9.2658 8.94323 9.55999 9.09589ZM9.54317 12.2229C9.24897 12.3755 9.09707 12.8388 9.20379 13.2578C9.31098 13.6769 9.63643 13.8932 9.9311 13.7411C10.057 13.6758 10.157 13.5532 10.2219 13.4021L10.7911 12.4361L9.91908 12.2176C9.85994 12.1881 9.79557 12.1733 9.73059 12.1742C9.6656 12.1751 9.60161 12.1917 9.54317 12.2229Z" fill="url(#paint0_linear_1041_4783)"/>
<defs>
<linearGradient id="paint0_linear_1041_4783" x1="9.22806" y1="5.13452" x2="22.5834" y2="27.8423" gradientUnits="userSpaceOnUse">
<stop stop-color="#07CB89"/>
<stop offset="1" stop-color="#39D398"/>
</linearGradient>
</defs>
</svg>
