<svg width="16" height="16" viewBox="0 0 16 16" fill="none" xmlns="http://www.w3.org/2000/svg">
<g clip-path="url(#clip0_88_477)">
<path d="M0 2C0 0.895431 0.895431 0 2 0H14C15.1046 0 16 0.895431 16 2V14C16 15.1046 15.1046 16 14 16H2C0.895431 16 0 15.1046 0 14V2Z" fill="#BD96FF"/>
<path d="M0 13V14C0 15.1046 0.895431 16 2 16H14C15.1046 16 16 15.1046 16 14V13C16 14.1046 15.1046 15 14 15H2C0.895431 15 0 14.1046 0 13Z" fill="black" fill-opacity="0.1"/>
<path fill-rule="evenodd" clip-rule="evenodd" d="M11.4591 2.91323C11.8913 2.82863 12.2933 3.15935 12.2936 3.59972C12.2949 5.56674 12.296 7.53375 12.296 9.50077C12.296 9.53903 12.296 9.57562 12.2959 9.61054L12.2951 10.1281C12.2951 10.1363 12.295 10.1429 12.295 10.1477C12.292 10.418 12.277 10.4881 12.2112 10.652C12.0197 11.1291 11.5242 11.5494 10.8732 11.7239C9.91295 11.9812 8.97808 11.6059 8.78511 10.8857C8.59214 10.1656 9.21413 9.37317 10.1744 9.11587C10.474 9.03559 10.7711 9.01689 11.044 9.05104L11.043 5.003L5.88198 5.997L5.88199 11.6354C5.88197 11.6413 5.88194 11.6454 5.88192 11.6477C5.87893 11.918 5.86401 11.9881 5.79817 12.152C5.60663 12.6291 5.11112 13.0494 4.46015 13.2239C3.49991 13.4812 2.56505 13.1059 2.37208 12.3857C2.17911 11.6656 2.8011 10.8732 3.76134 10.6159C4.06096 10.5356 4.35811 10.5169 4.63102 10.551L4.6301 4.82635C4.63005 4.49156 4.86707 4.20359 5.19563 4.13928L11.4591 2.91323Z" fill="white"/>
<path fill-rule="evenodd" clip-rule="evenodd" d="M11.5991 7.35032L5.59913 8.56409L5.40085 7.58394L11.4008 6.37018L11.5991 7.35032Z" fill="white" fill-opacity="0.7"/>
</g>
<defs>
<clipPath id="clip0_88_477">
<rect width="16" height="16" rx="2" fill="white"/>
</clipPath>
</defs>
</svg>
