<svg width="16" height="16" viewBox="0 0 16 16" fill="none" xmlns="http://www.w3.org/2000/svg">
<g clip-path="url(#clip0_40_134)">
<path d="M0 2C0 0.895431 0.895431 0 2 0H14C15.1046 0 16 0.895431 16 2V14C16 15.1046 15.1046 16 14 16H2C0.895431 16 0 15.1046 0 14V2Z" fill="#64AFFA"/>
<path d="M0 13V14C0 15.1046 0.895431 16 2 16H14C15.1046 16 16 15.1046 16 14V13C16 14.1046 15.1046 15 14 15H2C0.895431 15 0 14.1046 0 13Z" fill="black" fill-opacity="0.1"/>
<path d="M3 3.75C3 3.61193 3.11193 3.5 3.25 3.5H7.75C7.88807 3.5 8 3.61193 8 3.75V4.75C8 4.88807 7.88807 5 7.75 5H3.25C3.11193 5 3 4.88807 3 4.75V3.75Z" fill="white"/>
<path d="M3 7.25C3 7.11193 3.11193 7 3.25 7H12.75C12.8881 7 13 7.11193 13 7.25V8.25C13 8.38807 12.8881 8.5 12.75 8.5H3.25C3.11193 8.5 3 8.38807 3 8.25V7.25Z" fill="white" fill-opacity="0.7"/>
<path d="M3 10.75C3 10.6119 3.11193 10.5 3.25 10.5H12.75C12.8881 10.5 13 10.6119 13 10.75V11.75C13 11.8881 12.8881 12 12.75 12H3.25C3.11193 12 3 11.8881 3 11.75V10.75Z" fill="white" fill-opacity="0.4"/>
</g>
<defs>
<clipPath id="clip0_40_134">
<rect width="16" height="16" rx="2" fill="white"/>
</clipPath>
</defs>
</svg>
