<svg width="16" height="16" viewBox="0 0 16 16" fill="none" xmlns="http://www.w3.org/2000/svg">
<g clip-path="url(#clip0_8_26)">
<path d="M2 16H14C15.1046 16 16 15.1046 16 14V8V5L11 0H8H2C0.895431 0 0 0.895431 0 2V14C0 15.1046 0.895431 16 2 16Z" fill="#64AFFA"/>
<path d="M0 13V14C0 15.1046 0.895431 16 2 16H14C15.1046 16 16 15.1046 16 14V13C16 14.1046 15.1046 15 14 15H2C0.895431 15 0 14.1046 0 13Z" fill="black" fill-opacity="0.1"/>
<path d="M13 5H16L11 0V3C11 4.10457 11.8954 5 13 5Z" fill="white" fill-opacity="0.7"/>
<path fill-rule="evenodd" clip-rule="evenodd" d="M3.25 7C3.11193 7 3 7.11193 3 7.25V8.25C3 8.38807 3.11193 8.5 3.25 8.5H6.75C6.88807 8.5 7 8.38807 7 8.25V7.25C7 7.11193 6.88807 7 6.75 7H3.25ZM9.25 7C9.11193 7 9 7.11193 9 7.25V8.25C9 8.38807 9.11193 8.5 9.25 8.5H12.75C12.8881 8.5 13 8.38807 13 8.25V7.25C13 7.11193 12.8881 7 12.75 7H9.25Z" fill="white" fill-opacity="0.7"/>
<path fill-rule="evenodd" clip-rule="evenodd" d="M3.25 11C3.11193 11 3 11.1119 3 11.25V12.25C3 12.3881 3.11193 12.5 3.25 12.5H6.75C6.88807 12.5 7 12.3881 7 12.25V11.25C7 11.1119 6.88807 11 6.75 11H3.25ZM9.25 11C9.11193 11 9 11.1119 9 11.25V12.25C9 12.3881 9.11193 12.5 9.25 12.5H12.75C12.8881 12.5 13 12.3881 13 12.25V11.25C13 11.1119 12.8881 11 12.75 11H9.25Z" fill="white" fill-opacity="0.4"/>
</g>
<defs>
<clipPath id="clip0_8_26">
<rect width="16" height="16" fill="white"/>
</clipPath>
</defs>
</svg>
