<svg width="20" height="20" viewBox="0 0 20 20" fill="none" xmlns="http://www.w3.org/2000/svg">
<path d="M2.5 3.755C2.5 2.7167 3.3417 1.875 4.38 1.875H13.745C14.7833 1.875 15.625 2.7167 15.625 3.755V5.9375L16.5625 10L16.875 18.125H4.38C3.3417 18.125 2.5 17.2833 2.5 16.245V3.755Z" fill="url(#paint0_linear_6077_795)"/>
<rect x="5.29967" y="9.86462" width="3.98627" height="4.0022" rx="0.5" fill="#FDFFF5"/>
<path d="M6.7928 8.38867L6.7928 1.875L7.7928 1.875L7.7928 8.38867C7.79257 8.66462 7.5688 8.88867 7.2928 8.88867C7.0168 8.88867 6.79303 8.66462 6.7928 8.38867Z" fill="#D5F6EA"/>
<path d="M10.8073 11.3657H15.611V12.3657H10.8073C10.5312 12.3657 10.3073 12.1419 10.3073 11.8657C10.3073 11.5896 10.5312 11.3657 10.8073 11.3657Z" fill="#D5F6EA"/>
<path d="M3.78844 11.3657C4.06458 11.3657 4.28844 11.5896 4.28844 11.8657C4.28844 12.1419 4.06458 12.3657 3.78844 12.3657L2.50035 12.3657L2.50035 11.3657L3.78844 11.3657Z" fill="#D5F6EA"/>
<path d="M6.7928 15.3617C6.7928 15.0856 7.01666 14.8617 7.2928 14.8617C7.56894 14.8617 7.7928 15.0856 7.7928 15.3617V18.1371H6.7928V15.3617Z" fill="#D5F6EA"/>
<path d="M15.625 5.625H15.725C16.5651 5.625 16.9851 5.625 17.306 5.78849C17.5882 5.9323 17.8177 6.16177 17.9615 6.44401C18.125 6.76488 18.125 7.18492 18.125 8.025V16.875C18.125 17.5654 17.5654 18.125 16.875 18.125C16.1846 18.125 15.625 17.5654 15.625 16.875V5.625Z" fill="#15B379"/>
<defs>
<linearGradient id="paint0_linear_6077_795" x1="9.6875" y1="1.875" x2="9.6875" y2="18.125" gradientUnits="userSpaceOnUse">
<stop stop-color="#5CE6B3"/>
<stop offset="1" stop-color="#1ACC8A"/>
</linearGradient>
</defs>
</svg>
