<svg width="16" height="16" viewBox="0 0 16 16" fill="none" xmlns="http://www.w3.org/2000/svg">
<g clip-path="url(#clip0_90_644)">
<path d="M0 2C0 0.895431 0.895431 0 2 0H14C15.1046 0 16 0.895431 16 2V14C16 15.1046 15.1046 16 14 16H2C0.895431 16 0 15.1046 0 14V2Z" fill="#64AFFA"/>
<path d="M0 13V14C0 15.1046 0.895431 16 2 16H14C15.1046 16 16 15.1046 16 14V13C16 14.1046 15.1046 15 14 15H2C0.895431 15 0 14.1046 0 13Z" fill="black" fill-opacity="0.1"/>
<path fill-rule="evenodd" clip-rule="evenodd" d="M4.5805 12.1921C4.43125 12.1927 4.28786 12.1363 4.18193 12.0353C4.07601 11.9342 4.01624 11.7969 4.01581 11.6535C4.01581 11.3565 4.26898 11.1157 4.5805 11.1157H10.0101V2.5H4.01581C3.54893 2.5 3.17 2.8617 3.17 3.30791V11.6535C3.17109 12.0118 3.32033 12.355 3.58488 12.6075C3.84942 12.8601 4.20758 13.0012 4.5805 13H12.4069C12.5188 13.0004 12.6262 12.9581 12.7056 12.8824C12.785 12.8068 12.8298 12.7039 12.8302 12.5964C12.83 12.4888 12.7853 12.3858 12.7059 12.3099C12.6265 12.234 12.5189 12.1917 12.4069 12.1921H4.5805Z" fill="white"/>
<path fill-rule="evenodd" clip-rule="evenodd" d="M11.8973 2.5H10.6545V11.12H11.8973C12.4127 11.12 12.8302 10.7667 12.8302 10.33V3.29053C12.8302 2.85459 12.4127 2.5 11.8973 2.5Z" fill="white" fill-opacity="0.7"/>
</g>
<defs>
<clipPath id="clip0_90_644">
<rect width="16" height="16" rx="2" fill="white"/>
</clipPath>
</defs>
</svg>
