<svg width="16" height="16" viewBox="0 0 16 16" fill="none" xmlns="http://www.w3.org/2000/svg">
<g clip-path="url(#clip0_8_25)">
<path d="M7 1.25H13C14.1046 1.25 15 2.14543 15 3.25V5.25H7V1.25Z" fill="#E5A800"/>
<path d="M0 2C0 0.895431 0.895431 0 2 0H6.307C6.72384 0 7.09696 0.258573 7.24333 0.648877L8.5 4H15C15.5523 4 16 4.44772 16 5V14C16 15.1046 15.1046 16 14 16H2C0.895431 16 0 15.1046 0 14V2Z" fill="#FFCB00"/>
<path d="M0 13V14C0 15.1046 0.895431 16 2 16H14C15.1046 16 16 15.1046 16 14V13C16 14.1046 15.1046 15 14 15H2C0.895431 15 0 14.1046 0 13Z" fill="black" fill-opacity="0.1"/>
</g>
<defs>
<clipPath id="clip0_8_25">
<rect width="16" height="16" fill="white"/>
</clipPath>
</defs>
</svg>
