<svg width="16" height="16" viewBox="0 0 16 16" fill="none" xmlns="http://www.w3.org/2000/svg">
<g clip-path="url(#clip0_8_24)">
<path d="M0 2C0 0.895431 0.895431 0 2 0H14C15.1046 0 16 0.895431 16 2V14C16 15.1046 15.1046 16 14 16H2C0.895431 16 0 15.1046 0 14V2Z" fill="#5ACC78"/>
<path fill-rule="evenodd" clip-rule="evenodd" d="M4.89968 3.88574C5.10346 3.88574 5.17735 3.90696 5.25185 3.9468C5.32634 3.98664 5.38481 4.04511 5.42465 4.11961C5.46449 4.1941 5.48571 4.268 5.48571 4.47177V12.8997C5.48571 13.1035 5.46449 13.1774 5.42465 13.2519C5.38481 13.3264 5.32634 13.3848 5.25185 13.4247C5.17735 13.4645 5.10346 13.4857 4.89968 13.4857H3.10031C2.89654 13.4857 2.82264 13.4645 2.74815 13.4247C2.67365 13.3848 2.61518 13.3264 2.57534 13.2519C2.5355 13.1774 2.51428 13.1035 2.51428 12.8997V4.47177C2.51428 4.268 2.5355 4.1941 2.57534 4.11961C2.61518 4.04511 2.67365 3.98664 2.74815 3.9468C2.82264 3.90696 2.89654 3.88574 3.10031 3.88574H4.89968ZM4.57224 8.68771L3.49301 8.68574C3.39112 8.68574 3.35418 8.69635 3.31693 8.71627C3.27968 8.73619 3.25045 8.76542 3.23053 8.80267C3.21061 8.83992 3.2 8.87687 3.2 8.97876V9.30701C3.2 9.4089 3.21061 9.44585 3.23053 9.4831C3.25045 9.52034 3.27968 9.54958 3.31693 9.5695C3.35418 9.58942 3.39112 9.60003 3.49301 9.60003H4.50698C4.60887 9.60003 4.64582 9.58942 4.68306 9.5695C4.72031 9.54958 4.74955 9.52034 4.76947 9.4831C4.78441 9.45516 4.79411 9.42739 4.79803 9.37227L4.8 8.97876C4.8 8.87687 4.78939 8.83992 4.76947 8.80267C4.74955 8.76542 4.72031 8.73619 4.68306 8.71627C4.65513 8.70133 4.62736 8.69163 4.57224 8.68771ZM4.57224 6.85914L3.49301 6.85717C3.39112 6.85717 3.35418 6.86778 3.31693 6.8877C3.27968 6.90762 3.25045 6.93685 3.23053 6.9741C3.21061 7.01135 3.2 7.0483 3.2 7.15019V7.47844C3.2 7.58033 3.21061 7.61728 3.23053 7.65452C3.25045 7.69177 3.27968 7.72101 3.31693 7.74093C3.35418 7.76085 3.39112 7.77146 3.49301 7.77146H4.50698C4.60887 7.77146 4.64582 7.76085 4.68306 7.74093C4.72031 7.72101 4.74955 7.69177 4.76947 7.65452C4.78441 7.62659 4.79411 7.59882 4.79803 7.5437L4.8 7.15019C4.8 7.0483 4.78939 7.01135 4.76947 6.9741C4.74955 6.93685 4.72031 6.90762 4.68306 6.8877C4.65513 6.87276 4.62736 6.86306 4.57224 6.85914ZM4.57224 5.03057L3.49301 5.0286C3.39112 5.0286 3.35418 5.03921 3.31693 5.05913C3.27968 5.07905 3.25045 5.10828 3.23053 5.14553C3.21061 5.18278 3.2 5.21973 3.2 5.32161V5.64987C3.2 5.75176 3.21061 5.7887 3.23053 5.82595C3.25045 5.8632 3.27968 5.89243 3.31693 5.91236C3.35418 5.93228 3.39112 5.94288 3.49301 5.94288H4.50698C4.60887 5.94288 4.64582 5.93228 4.68306 5.91236C4.72031 5.89243 4.74955 5.8632 4.76947 5.82595C4.78441 5.79802 4.79411 5.77025 4.79803 5.71513L4.8 5.32161C4.8 5.21973 4.78939 5.18278 4.76947 5.14553C4.74955 5.10828 4.72031 5.07905 4.68306 5.05913C4.65513 5.04419 4.62736 5.03449 4.57224 5.03057Z" fill="white" fill-opacity="0.7"/>
<path fill-rule="evenodd" clip-rule="evenodd" d="M7.65714 6.62856C7.65714 6.88103 7.86181 7.0857 8.11429 7.0857C8.3352 7.0857 8.51951 6.929 8.56214 6.72069L8.57143 6.62856V2.22856C8.57143 2.13388 8.64818 2.05713 8.74286 2.05713H9.01397C9.21774 2.05713 9.29164 2.07835 9.36613 2.11819C9.44063 2.15803 9.4991 2.2165 9.53894 2.29099C9.57878 2.36549 9.6 2.43938 9.6 2.64316V12.8997C9.6 13.1034 9.57878 13.1773 9.53894 13.2518C9.4991 13.3263 9.44063 13.3848 9.36613 13.4246C9.29164 13.4645 9.21774 13.4857 9.01397 13.4857H7.2146C7.01083 13.4857 6.93693 13.4645 6.86243 13.4246C6.78794 13.3848 6.72947 13.3263 6.68963 13.2518C6.64979 13.1773 6.62857 13.1034 6.62857 12.8997V2.64316C6.62857 2.43938 6.64979 2.36549 6.68963 2.29099C6.72947 2.2165 6.78794 2.15803 6.86243 2.11819C6.93693 2.07835 7.01083 2.05713 7.2146 2.05713H7.48571C7.58039 2.05713 7.65714 2.13388 7.65714 2.22856V6.62856Z" fill="white"/>
<path fill-rule="evenodd" clip-rule="evenodd" d="M12.7443 5.08054C12.9473 5.06278 13.0228 5.07748 13.1005 5.11067C13.1782 5.14387 13.2415 5.19702 13.2877 5.26776C13.3339 5.3385 13.3614 5.41027 13.3792 5.61327L13.9942 12.6429C14.012 12.8459 13.9973 12.9214 13.9641 12.9991C13.9309 13.0768 13.8777 13.1401 13.807 13.1863C13.7362 13.2325 13.6645 13.26 13.4615 13.2778L11.669 13.4346C11.466 13.4524 11.3905 13.4377 11.3128 13.4045C11.2351 13.3713 11.1718 13.3181 11.1256 13.2474C11.0794 13.1767 11.0518 13.1049 11.0341 12.9019L10.4191 5.87224C10.4013 5.66924 10.416 5.59378 10.4492 5.51609C10.4824 5.43841 10.5356 5.37507 10.6063 5.32889C10.677 5.2827 10.7488 5.25513 10.9518 5.23737L12.7443 5.08054ZM12.7715 9.8965L11.7613 9.98487C11.6598 9.99375 11.624 10.0075 11.5886 10.0306C11.5532 10.0537 11.5267 10.0854 11.5101 10.1242C11.4976 10.1534 11.4904 10.1819 11.4913 10.2371L11.5236 10.6293C11.5325 10.7308 11.5463 10.7667 11.5694 10.8021C11.5924 10.8374 11.6241 10.864 11.663 10.8806C11.7018 10.8972 11.7395 10.9046 11.841 10.8957L12.8511 10.8073C12.9526 10.7984 12.9885 10.7846 13.0239 10.7615C13.0593 10.7385 13.0858 10.7068 13.1024 10.6679C13.1149 10.6388 13.1221 10.6103 13.1212 10.5551L13.0889 10.1629C13.08 10.0614 13.0662 10.0255 13.0431 9.99011C13.02 9.95474 12.9884 9.92817 12.9495 9.91157C12.9107 9.89497 12.873 9.88762 12.7715 9.8965ZM12.6121 8.07489L11.602 8.16326C11.5005 8.17214 11.4646 8.18593 11.4292 8.20902C11.3939 8.23211 11.3673 8.26378 11.3507 8.30262C11.3341 8.34147 11.3267 8.3792 11.3356 8.4807L11.3642 8.8077C11.3731 8.9092 11.3869 8.94509 11.41 8.98046C11.4331 9.01583 11.4647 9.0424 11.5036 9.059C11.5327 9.07145 11.5612 9.0787 11.6165 9.07779L12.6918 8.98569C12.7933 8.97681 12.8292 8.96303 12.8645 8.93993C12.8999 8.91684 12.9265 8.88517 12.9431 8.84633C12.9597 8.80749 12.967 8.76976 12.9581 8.66826L12.9295 8.34125C12.9206 8.23975 12.9069 8.20387 12.8838 8.1685C12.8607 8.13313 12.829 8.10655 12.7902 8.08995C12.7513 8.07336 12.7136 8.06601 12.6121 8.07489ZM12.4527 6.25327L11.4426 6.34165C11.3411 6.35053 11.3052 6.36432 11.2699 6.38741C11.2345 6.4105 11.2079 6.44217 11.1913 6.48101C11.1789 6.51014 11.1716 6.53865 11.1725 6.5939L11.2049 6.98609C11.2137 7.08759 11.2275 7.12347 11.2506 7.15884C11.2737 7.19422 11.3054 7.22079 11.3442 7.23739C11.3734 7.24984 11.4019 7.25708 11.4571 7.25618L12.5324 7.16408C12.6339 7.1552 12.6698 7.14141 12.7052 7.11832C12.7405 7.09523 12.7671 7.06356 12.7837 7.02472C12.7961 6.99558 12.8034 6.96708 12.8025 6.91182L12.7702 6.51964C12.7613 6.41814 12.7475 6.38225 12.7244 6.34688C12.7013 6.31151 12.6696 6.28494 12.6308 6.26834C12.5919 6.25174 12.5542 6.24439 12.4527 6.25327Z" fill="white" fill-opacity="0.4"/>
<path d="M0 13V14C0 15.1046 0.895431 16 2 16H14C15.1046 16 16 15.1046 16 14V13C16 14.1046 15.1046 15 14 15H2C0.895431 15 0 14.1046 0 13Z" fill="black" fill-opacity="0.1"/>
</g>
<defs>
<clipPath id="clip0_8_24">
<rect width="16" height="16" rx="2" fill="white"/>
</clipPath>
</defs>
</svg>
