<svg width="20" height="20" viewBox="0 0 20 20" fill="none" xmlns="http://www.w3.org/2000/svg">
<path d="M2.5 3.755C2.5 2.7167 3.3417 1.875 4.38 1.875H13.745C14.7833 1.875 15.625 2.7167 15.625 3.755V5.9375L16.5625 10L16.875 18.125H4.38C3.3417 18.125 2.5 17.2833 2.5 16.245V3.755Z" fill="url(#paint0_linear_5553_203)"/>
<path opacity="0.9" fill-rule="evenodd" clip-rule="evenodd" d="M12.95 13.125C13.23 13.125 13.37 13.125 13.477 13.1795C13.5711 13.2274 13.6476 13.3039 13.6955 13.398C13.75 13.505 13.75 13.645 13.75 13.925V14.2C13.75 14.48 13.75 14.62 13.6955 14.727C13.6476 14.8211 13.5711 14.8976 13.477 14.9455C13.37 15 13.23 15 12.95 15H10.8C10.52 15 10.38 15 10.273 14.9455C10.1789 14.8976 10.1024 14.8211 10.0545 14.727C10 14.62 10 14.48 10 14.2V13.925C10 13.645 10 13.505 10.0545 13.398C10.1024 13.3039 10.1789 13.2274 10.273 13.1795C10.38 13.125 10.52 13.125 10.8 13.125H12.95Z" fill="white"/>
<path opacity="0.9" fill-rule="evenodd" clip-rule="evenodd" d="M12.95 9.375C13.23 9.375 13.37 9.375 13.477 9.4295C13.5711 9.47743 13.6476 9.55392 13.6955 9.648C13.75 9.75496 13.75 9.89497 13.75 10.175V10.45C13.75 10.73 13.75 10.87 13.6955 10.977C13.6476 11.0711 13.5711 11.1476 13.477 11.1955C13.37 11.25 13.23 11.25 12.95 11.25H10.8C10.52 11.25 10.38 11.25 10.273 11.1955C10.1789 11.1476 10.1024 11.0711 10.0545 10.977C10 10.87 10 10.73 10 10.45V10.175C10 9.89497 10 9.75496 10.0545 9.648C10.1024 9.55392 10.1789 9.47743 10.273 9.4295C10.38 9.375 10.52 9.375 10.8 9.375H12.95Z" fill="white"/>
<path d="M6.875 11.8875C6.70931 11.8875 6.575 12.0218 6.575 12.1875C6.575 12.3532 6.70931 12.4875 6.875 12.4875V11.8875ZM6.875 12.1875V12.4875C7.39841 12.4875 7.80497 12.3553 8.13672 12.1494C8.46252 11.9472 8.70254 11.6818 8.90234 11.4421C9.11275 11.1896 9.26338 10.9874 9.44328 10.8332C9.60756 10.6924 9.77516 10.6125 10 10.6125V10.3125V10.0125C9.59984 10.0125 9.29869 10.1669 9.05281 10.3777C8.82255 10.5751 8.62162 10.8417 8.44141 11.0579C8.25059 11.2869 8.06091 11.4903 7.82031 11.6396C7.58566 11.7853 7.28909 11.8875 6.875 11.8875V12.1875Z" fill="white" fill-opacity="0.65"/>
<path d="M6.875 12.4875C6.70931 12.4875 6.575 12.3532 6.575 12.1875C6.575 12.0218 6.70931 11.8875 6.875 11.8875V12.4875ZM6.875 12.1875V11.8875C7.39841 11.8875 7.80497 12.0197 8.13672 12.2256C8.46252 12.4278 8.70254 12.6932 8.90234 12.9329C9.11275 13.1854 9.26338 13.3876 9.44328 13.5418C9.60756 13.6826 9.77516 13.7625 10 13.7625V14.0625V14.3625C9.59984 14.3625 9.29869 14.2081 9.05281 13.9973C8.82255 13.7999 8.62162 13.5333 8.44141 13.3171C8.25059 13.0881 8.06091 12.8847 7.82031 12.7354C7.58566 12.5897 7.28909 12.4875 6.875 12.4875V12.1875Z" fill="#F9E5BC"/>
<path fill-rule="evenodd" clip-rule="evenodd" d="M6.25 10.9375C6.94036 10.9375 7.5 11.4971 7.5 12.1875C7.5 12.8779 6.94036 13.4375 6.25 13.4375C5.55964 13.4375 5 12.8779 5 12.1875C5 11.4971 5.55964 10.9375 6.25 10.9375Z" fill="#FDFFF5"/>
<path d="M15.625 5.625H15.725C16.5651 5.625 16.9851 5.625 17.306 5.78849C17.5882 5.9323 17.8177 6.16177 17.9615 6.44401C18.125 6.76488 18.125 7.18492 18.125 8.025V16.875C18.125 17.5654 17.5654 18.125 16.875 18.125C16.1846 18.125 15.625 17.5654 15.625 16.875V5.625Z" fill="#E69B00"/>
<defs>
<linearGradient id="paint0_linear_5553_203" x1="9.6875" y1="1.875" x2="9.6875" y2="18.125" gradientUnits="userSpaceOnUse">
<stop stop-color="#FFC247"/>
<stop offset="1" stop-color="#FFAE0D"/>
</linearGradient>
</defs>
</svg>
