<svg width="16" height="16" viewBox="0 0 16 16" fill="none" xmlns="http://www.w3.org/2000/svg">
<g clip-path="url(#clip0_51_102)">
<path d="M0 2C0 0.895431 0.895431 0 2 0H14C15.1046 0 16 0.895431 16 2V14C16 15.1046 15.1046 16 14 16H2C0.895431 16 0 15.1046 0 14V2Z" fill="#BD96FF"/>
<path d="M0 13V14C0 15.1046 0.895431 16 2 16H14C15.1046 16 16 15.1046 16 14V13C16 14.1046 15.1046 15 14 15H2C0.895431 15 0 14.1046 0 13Z" fill="black" fill-opacity="0.1"/>
<path d="M7.74003 2.85402C7.90692 2.78727 8.09309 2.78727 8.25998 2.85402L12.3036 4.47149C12.5551 4.57207 12.5551 4.928 12.3036 5.02857L8.25998 6.64604C8.09309 6.7128 7.90692 6.7128 7.74003 6.64604L3.69636 5.02858C3.44492 4.928 3.44492 4.57207 3.69636 4.47149L7.74003 2.85402Z" fill="white"/>
<path d="M7.5 13.0046C7.5 13.1461 7.35709 13.2428 7.22572 13.1903L3.12572 11.5503C3.04979 11.5199 3 11.4464 3 11.3646V6.29541C3 6.15392 3.14291 6.05717 3.27428 6.10972L7.37428 7.74972C7.45021 7.78009 7.5 7.85363 7.5 7.93541V13.0046Z" fill="white" fill-opacity="0.7"/>
<path d="M8.5 13.0046C8.5 13.1461 8.64291 13.2428 8.77428 13.1903L12.8743 11.5503C12.9502 11.5199 13 11.4464 13 11.3646V6.29541C13 6.15392 12.8571 6.05717 12.7257 6.10972L8.62572 7.74972C8.54979 7.78009 8.5 7.85363 8.5 7.93541V13.0046Z" fill="white" fill-opacity="0.4"/>
</g>
<defs>
<clipPath id="clip0_51_102">
<rect width="16" height="16" rx="2" fill="white"/>
</clipPath>
</defs>
</svg>
