<svg width="20" height="20" viewBox="0 0 20 20" fill="none" xmlns="http://www.w3.org/2000/svg">
<path d="M5.81167 5.67C6.22667 6.00667 6.38167 5.98167 7.16 5.92834L14.4992 5.48834C14.655 5.48834 14.5258 5.33334 14.4742 5.3075L13.2542 4.42667C13.0208 4.245 12.71 4.0375 12.1125 4.08917L5.0075 4.6075C4.74917 4.63334 4.69583 4.76334 4.79917 4.86667L5.81167 5.67ZM6.2525 7.38084V15.1025C6.2525 15.5175 6.45917 15.6733 6.92667 15.6467L14.9925 15.18C15.4592 15.155 15.5117 14.8692 15.5117 14.5325V6.8625C15.5117 6.52584 15.3817 6.34417 15.0958 6.36917L6.6675 6.8625C6.35583 6.8875 6.2525 7.04334 6.2525 7.38V7.38084ZM14.215 7.795C14.2658 8.02834 14.215 8.26167 13.9817 8.2875L13.5925 8.36584V14.0658C13.255 14.2475 12.9442 14.3508 12.6842 14.3508C12.2692 14.3508 12.165 14.2217 11.8542 13.8333L9.3125 9.84167V13.7033L10.1167 13.885C10.1167 13.885 10.1167 14.3517 9.4675 14.3517L7.67833 14.455C7.62667 14.3517 7.67833 14.0925 7.86 14.0408L8.32667 13.9117V8.80584L7.68 8.75334C7.6275 8.52 7.7575 8.18417 8.12 8.1575L10.0392 8.02834L12.685 12.0708V8.49417L12.01 8.4175C11.9583 8.13167 12.1658 7.92417 12.425 7.89917L14.215 7.795ZM4.41083 3.90834L11.8025 3.36417C12.7108 3.28584 12.9442 3.3375 13.5142 3.7525L15.8742 5.41084C16.2625 5.69584 16.3925 5.77334 16.3925 6.085V15.18C16.3925 15.75 16.1858 16.0883 15.4592 16.1383L6.875 16.6583C6.33083 16.6842 6.07083 16.6067 5.785 16.2433L4.0475 13.9892C3.73666 13.5742 3.6075 13.2642 3.6075 12.9V4.81417C3.6075 4.34834 3.815 3.95917 4.41083 3.90834Z" fill="url(#paint0_linear_5553_178)"/>
<defs>
<linearGradient id="paint0_linear_5553_178" x1="10" y1="3.33344" x2="10" y2="16.6629" gradientUnits="userSpaceOnUse">
<stop stop-color="#6C75F5"/>
<stop offset="1" stop-color="#3F448F"/>
</linearGradient>
</defs>
</svg>
