<svg width="20" height="20" viewBox="0 0 20 20" fill="none" xmlns="http://www.w3.org/2000/svg">
<path d="M2.5 3.755C2.5 2.7167 3.3417 1.875 4.38 1.875H13.745C14.7833 1.875 15.625 2.7167 15.625 3.755V5.9375L16.5625 10L16.875 18.125H4.38C3.3417 18.125 2.5 17.2833 2.5 16.245V3.755Z" fill="url(#paint0_linear_5553_175)"/>
<path opacity="0.8" fill-rule="evenodd" clip-rule="evenodd" d="M12.95 13.125C13.23 13.125 13.37 13.125 13.477 13.1795C13.5711 13.2274 13.6476 13.3039 13.6955 13.398C13.75 13.505 13.75 13.645 13.75 13.925V14.2C13.75 14.48 13.75 14.62 13.6955 14.727C13.6476 14.8211 13.5711 14.8976 13.477 14.9455C13.37 15 13.23 15 12.95 15H11.1125C10.8325 15 10.6925 15 10.5855 14.9455C10.4914 14.8976 10.4149 14.8211 10.367 14.727C10.3125 14.62 10.3125 14.48 10.3125 14.2V13.925C10.3125 13.645 10.3125 13.505 10.367 13.398C10.4149 13.3039 10.4914 13.2274 10.5855 13.1795C10.6925 13.125 10.8325 13.125 11.1125 13.125H12.95Z" fill="white"/>
<path opacity="0.8" fill-rule="evenodd" clip-rule="evenodd" d="M7.6375 13.125C7.91753 13.125 8.05754 13.125 8.1645 13.1795C8.25858 13.2274 8.33507 13.3039 8.383 13.398C8.4375 13.505 8.4375 13.645 8.4375 13.925V14.2C8.4375 14.48 8.4375 14.62 8.383 14.727C8.33507 14.8211 8.25858 14.8976 8.1645 14.9455C8.05754 15 7.91753 15 7.6375 15H5.8C5.51997 15 5.37996 15 5.273 14.9455C5.17892 14.8976 5.10243 14.8211 5.0545 14.727C5 14.62 5 14.48 5 14.2V13.925C5 13.645 5 13.505 5.0545 13.398C5.10243 13.3039 5.17892 13.2274 5.273 13.1795C5.37996 13.125 5.51997 13.125 5.8 13.125H7.6375Z" fill="white"/>
<path fill-rule="evenodd" clip-rule="evenodd" d="M7.6375 9.375C7.91753 9.375 8.05754 9.375 8.1645 9.4295C8.25858 9.47743 8.33507 9.55392 8.383 9.648C8.4375 9.75496 8.4375 9.89497 8.4375 10.175V10.45C8.4375 10.73 8.4375 10.87 8.383 10.977C8.33507 11.0711 8.25858 11.1476 8.1645 11.1955C8.05754 11.25 7.91753 11.25 7.6375 11.25H5.8C5.51997 11.25 5.37996 11.25 5.273 11.1955C5.17892 11.1476 5.10243 11.0711 5.0545 10.977C5 10.87 5 10.73 5 10.45V10.175C5 9.89497 5 9.75496 5.0545 9.648C5.10243 9.55392 5.17892 9.47743 5.273 9.4295C5.37996 9.375 5.51997 9.375 5.8 9.375H7.6375Z" fill="#FDFFF5"/>
<path fill-rule="evenodd" clip-rule="evenodd" d="M12.95 9.375C13.23 9.375 13.37 9.375 13.477 9.4295C13.5711 9.47743 13.6476 9.55392 13.6955 9.648C13.75 9.75496 13.75 9.89497 13.75 10.175V10.45C13.75 10.73 13.75 10.87 13.6955 10.977C13.6476 11.0711 13.5711 11.1476 13.477 11.1955C13.37 11.25 13.23 11.25 12.95 11.25H11.1125C10.8325 11.25 10.6925 11.25 10.5855 11.1955C10.4914 11.1476 10.4149 11.0711 10.367 10.977C10.3125 10.87 10.3125 10.73 10.3125 10.45V10.175C10.3125 9.89497 10.3125 9.75496 10.367 9.648C10.4149 9.55392 10.4914 9.47743 10.5855 9.4295C10.6925 9.375 10.8325 9.375 11.1125 9.375H12.95Z" fill="#FDFFF5"/>
<path d="M15.625 5.625H15.725C16.5651 5.625 16.9851 5.625 17.306 5.78849C17.5882 5.9323 17.8177 6.16177 17.9615 6.44401C18.125 6.76488 18.125 7.18492 18.125 8.025V16.875C18.125 17.5654 17.5654 18.125 16.875 18.125C16.1846 18.125 15.625 17.5654 15.625 16.875V5.625Z" fill="#15B379"/>
<defs>
<linearGradient id="paint0_linear_5553_175" x1="9.6875" y1="1.875" x2="9.6875" y2="18.125" gradientUnits="userSpaceOnUse">
<stop stop-color="#5CE6B3"/>
<stop offset="1" stop-color="#1ACC8A"/>
</linearGradient>
</defs>
</svg>
