<svg width="20" height="20" viewBox="0 0 20 20" fill="none" xmlns="http://www.w3.org/2000/svg">
<path d="M2.5 3.755C2.5 2.7167 3.3417 1.875 4.38 1.875H13.745C14.7833 1.875 15.625 2.7167 15.625 3.755V5.9375L16.5625 10L16.875 18.125H4.38C3.3417 18.125 2.5 17.2833 2.5 16.245V3.755Z" fill="url(#paint0_linear_5553_166)"/>
<path d="M15.625 5.625H15.725C16.5651 5.625 16.9851 5.625 17.306 5.78849C17.5882 5.9323 17.8177 6.16177 17.9615 6.44401C18.125 6.76488 18.125 7.18492 18.125 8.025V16.875C18.125 17.5654 17.5654 18.125 16.875 18.125C16.1846 18.125 15.625 17.5654 15.625 16.875V5.625Z" fill="#CC5B52"/>
<path d="M13.125 11.25C13.125 12.0535 12.8867 12.8389 12.4403 13.507C11.994 14.1751 11.3595 14.6958 10.6172 15.0033C9.87483 15.3107 9.05799 15.3912 8.26995 15.2344C7.4819 15.0777 6.75803 14.6908 6.18988 14.1226C5.62173 13.5545 5.23481 12.8306 5.07806 12.0426C4.92131 11.2545 5.00176 10.4377 5.30924 9.69535C5.61672 8.95302 6.13742 8.31855 6.8055 7.87215C7.47357 7.42576 8.25901 7.1875 9.0625 7.1875V11.25H13.125Z" fill="white" fill-opacity="0.8"/>
<path d="M10.3125 6.5C10.805 6.5 11.2926 6.597 11.7476 6.78545C12.2025 6.97391 12.6159 7.25013 12.9642 7.59835C13.3124 7.94657 13.5886 8.35997 13.777 8.81494C13.9655 9.26991 14.0625 9.75754 14.0625 10.25L10.3125 10.25V6.5Z" fill="white"/>
<defs>
<linearGradient id="paint0_linear_5553_166" x1="9.6875" y1="1.875" x2="9.6875" y2="18.125" gradientUnits="userSpaceOnUse">
<stop stop-color="#FF936B"/>
<stop offset="1" stop-color="#FF7A6B"/>
</linearGradient>
</defs>
</svg>
