<svg width="20" height="20" viewBox="0 0 20 20" fill="none" xmlns="http://www.w3.org/2000/svg">
<path d="M2.59304 6.23109L9.16188 3.19932C9.69367 2.95388 10.3063 2.95388 10.8381 3.19932L17.407 6.23109C17.6897 6.36158 17.6897 6.76342 17.407 6.89391L10.8381 9.92568C10.3063 10.1711 9.69367 10.1711 9.16188 9.92568L2.59304 6.89391C2.31032 6.76342 2.31032 6.36158 2.59304 6.23109Z" fill="#5CBFE7"/>
<path d="M17.4074 13.3622C17.6897 13.4928 17.6898 13.8948 17.4074 14.0253L10.838 17.0566C10.3063 17.302 9.694 17.302 9.16224 17.0566L2.59291 14.0253C2.31029 13.8948 2.3103 13.4928 2.59291 13.3622L4.92201 12.287L9.16224 14.2441C9.694 14.4895 10.3063 14.4895 10.838 14.2441L15.0773 12.287L17.4074 13.3622Z" fill="#F76E3C"/>
<path d="M17.4065 9.80029C17.6892 9.93078 17.6892 10.3319 17.4065 10.4624L10.8381 13.4946C10.3063 13.74 9.69314 13.7401 9.16137 13.4946L2.59301 10.4624C2.31044 10.3319 2.3105 9.93085 2.59301 9.80029L4.92114 8.7251L9.16137 10.6821C9.69314 10.9276 10.3063 10.9275 10.8381 10.6821L15.0774 8.7251L17.4065 9.80029Z" fill="#95BF38"/>
</svg>
