<svg width="16" height="16" viewBox="0 0 16 16" fill="none" xmlns="http://www.w3.org/2000/svg">
<g clip-path="url(#clip0_89_525)">
<g filter="url(#filter0_d_89_525)">
<path d="M0 2C0 0.895431 0.895431 0 2 0H14C15.1046 0 16 0.895431 16 2V14C16 15.1046 15.1046 16 14 16H2C0.895431 16 0 15.1046 0 14V2Z" fill="#FA7769"/>
<path d="M0 13V14C0 15.1046 0.895431 16 2 16H14C15.1046 16 16 15.1046 16 14V13C16 14.1046 15.1046 15 14 15H2C0.895431 15 0 14.1046 0 13Z" fill="black" fill-opacity="0.1"/>
<path d="M7.47005 3.00291C7.61001 3.00436 7.74779 3.03772 7.87291 3.10045C7.99802 3.16318 8.10718 3.25363 8.19206 3.36492C8.55307 3.86592 8.52507 4.92494 8.05406 6.48496C8.4987 7.31831 9.0809 8.07056 9.77609 8.71C10.3591 8.6 10.9431 8.51599 11.5261 8.51599C12.8311 8.54399 13.0261 9.157 12.9971 9.51801C12.9971 10.464 12.0801 10.464 11.6081 10.464V10.465C10.8511 10.4143 10.1305 10.1212 9.55309 9.62901C8.41507 9.87901 7.33205 10.241 6.24903 10.687C5.39002 12.22 4.583 13.0001 3.88999 13.0001C3.74999 13.0001 3.58399 12.9721 3.47199 12.8881C3.32942 12.8213 3.2091 12.7148 3.1254 12.5815C3.0417 12.4481 2.99816 12.2935 2.99998 12.136C2.99998 11.886 3.05498 11.189 5.69302 10.049C6.29195 8.94687 6.78484 7.79033 7.16505 6.59497C6.83204 5.92696 6.10903 4.28493 6.60904 3.44892C6.77604 3.14191 7.10905 2.97591 7.47105 3.00291H7.47005ZM5.62002 10.438C4.95301 10.762 4.132 11.35 4.212 11.725C4.265 11.975 4.554 11.89 5.07801 11.469C5.40702 11.046 5.46102 10.827 5.62002 10.438ZM11.6561 9.191C11.3881 9.191 11.1501 9.191 10.8821 9.31101C11.1801 9.61101 11.3431 9.75801 11.6421 9.81801C11.8501 9.87801 12.2531 9.98602 12.3721 9.67301C12.4921 9.36101 12.2531 9.191 11.6561 9.191ZM7.72006 7.69998C7.48957 8.25066 7.24683 8.79614 6.99204 9.33601L8.62807 8.791C8.28807 8.44299 7.98206 8.11299 7.72006 7.69998ZM7.46005 4.20793C7.29605 4.23393 7.20705 4.44293 7.16505 4.59094C7.07905 5.01294 7.30505 5.48295 7.58805 5.81795C7.82106 5.46595 7.88006 5.14094 7.79006 4.66294C7.68106 4.34293 7.57105 4.19093 7.46005 4.20793Z" fill="white"/>
</g>
</g>
<defs>
<filter id="filter0_d_89_525" x="-4" y="0" width="24" height="24" filterUnits="userSpaceOnUse" color-interpolation-filters="sRGB">
<feFlood flood-opacity="0" result="BackgroundImageFix"/>
<feColorMatrix in="SourceAlpha" type="matrix" values="0 0 0 0 0 0 0 0 0 0 0 0 0 0 0 0 0 0 127 0" result="hardAlpha"/>
<feOffset dy="4"/>
<feGaussianBlur stdDeviation="2"/>
<feComposite in2="hardAlpha" operator="out"/>
<feColorMatrix type="matrix" values="0 0 0 0 0 0 0 0 0 0 0 0 0 0 0 0 0 0 0.25 0"/>
<feBlend mode="normal" in2="BackgroundImageFix" result="effect1_dropShadow_89_525"/>
<feBlend mode="normal" in="SourceGraphic" in2="effect1_dropShadow_89_525" result="shape"/>
</filter>
<clipPath id="clip0_89_525">
<rect width="16" height="16" rx="2" fill="white"/>
</clipPath>
</defs>
</svg>
