<svg width="16" height="16" viewBox="0 0 16 16" fill="none" xmlns="http://www.w3.org/2000/svg">
<g clip-path="url(#clip0_88_475)">
<path d="M0 2C0 0.895431 0.895431 0 2 0H14C15.1046 0 16 0.895431 16 2V14C16 15.1046 15.1046 16 14 16H2C0.895431 16 0 15.1046 0 14V2Z" fill="#5ACC78"/>
<path d="M0 13V14C0 15.1046 0.895431 16 2 16H14C15.1046 16 16 15.1046 16 14V13C16 14.1046 15.1046 15 14 15H2C0.895431 15 0 14.1046 0 13Z" fill="black" fill-opacity="0.1"/>
<path d="M7.00003 13.5H13.5C13.7762 13.5 14.0005 13.2759 13.9751 13.0009C13.7316 10.368 11.7613 5.5 10.5 5.5C9.15388 5.5 7.00003 11.0454 7.00003 13.5Z" fill="white" fill-opacity="0.7"/>
<path d="M7.00001 13.5H2.5C2.22386 13.5 2 13.2768 2.03597 13.003C2.29865 11.0038 3.94095 7.5 5 7.5C5.74684 7.5 6.78371 9.2424 7.42228 10.9708C7.16092 11.9272 7.00001 12.8291 7.00001 13.5Z" fill="white" fill-opacity="0.4"/>
<circle cx="6.25" cy="4.25" r="1.25" fill="white"/>
</g>
<defs>
<clipPath id="clip0_88_475">
<rect width="16" height="16" rx="2" fill="white"/>
</clipPath>
</defs>
</svg>
