<svg width="20" height="20" viewBox="0 0 20 20" fill="none" xmlns="http://www.w3.org/2000/svg">
<path d="M2.5 3.755C2.5 2.7167 3.3417 1.875 4.38 1.875H13.745C14.7833 1.875 15.625 2.7167 15.625 3.755V5.9375L16.5625 10L16.875 18.125H4.38C3.3417 18.125 2.5 17.2833 2.5 16.245V3.755Z" fill="url(#paint0_linear_5798_92)"/>
<path d="M8.12093 14.5516H13.3137C13.5344 14.5516 13.7136 14.3725 13.6933 14.1528C13.4987 12.0494 11.9247 8.1604 10.9171 8.1604C9.84162 8.1604 8.12093 12.5906 8.12093 14.5516Z" fill="white" fill-opacity="0.7"/>
<path d="M8.12091 14.5516H4.52588C4.30527 14.5516 4.12642 14.3732 4.15516 14.1545C4.36502 12.5573 5.67704 9.75818 6.52312 9.75818C7.11976 9.75818 7.94811 11.1502 8.45826 12.531C8.24946 13.2951 8.12091 14.0156 8.12091 14.5516Z" fill="white" fill-opacity="0.4"/>
<circle cx="7.52173" cy="7.16177" r="0.998619" fill="white"/>
<path d="M15.625 5.625H15.725C16.5651 5.625 16.9851 5.625 17.306 5.78849C17.5882 5.9323 17.8177 6.16177 17.9615 6.44401C18.125 6.76488 18.125 7.18492 18.125 8.025V16.875C18.125 17.5654 17.5654 18.125 16.875 18.125C16.1846 18.125 15.625 17.5654 15.625 16.875V5.625Z" fill="#15B379"/>
<defs>
<linearGradient id="paint0_linear_5798_92" x1="9.6875" y1="1.875" x2="9.6875" y2="18.125" gradientUnits="userSpaceOnUse">
<stop stop-color="#5CE6B3"/>
<stop offset="1" stop-color="#1ACC8A"/>
</linearGradient>
</defs>
</svg>
