<svg width="20" height="20" viewBox="0 0 20 20" fill="none" xmlns="http://www.w3.org/2000/svg">
<path d="M2.5 3.755C2.5 2.7167 3.3417 1.875 4.38 1.875H13.745C14.7833 1.875 15.625 2.7167 15.625 3.755V5.9375L16.5625 10L16.875 18.125H4.38C3.3417 18.125 2.5 17.2833 2.5 16.245V3.755Z" fill="url(#paint0_linear_5797_65)"/>
<path d="M5.98242 11.9735C5.81719 11.8082 5.66719 11.6324 5.53242 11.4449L4.16367 12.8149C4.12383 12.8547 4.1543 12.9332 4.21641 12.952L5.41875 13.327C5.49727 13.3516 5.56523 13.4172 5.59219 13.4957L6.04102 14.786C6.06211 14.8469 6.13828 14.875 6.17813 14.8364L7.92656 13.0879C7.72852 13.0364 7.53399 12.9707 7.34414 12.8899C6.8332 12.6742 6.37617 12.366 5.98242 11.9735ZM13.8 12.8149L12.4605 11.4766C12.3316 11.6524 12.1898 11.8176 12.034 11.9735C11.6414 12.366 11.1832 12.6742 10.6734 12.8899C10.4695 12.9766 10.2609 13.0457 10.0477 13.0996L11.7844 14.8364C11.823 14.875 11.9004 14.8469 11.9215 14.786L12.3703 13.4957C12.3973 13.4172 12.4652 13.3516 12.5438 13.327L13.7461 12.9531C13.8094 12.9332 13.8398 12.8547 13.8 12.8149Z" fill="#D6D6FF"/>
<path opacity="0.9" d="M12.6176 8.97224C12.6176 6.97771 11.0004 5.36169 9.00702 5.36169C7.01366 5.36169 5.39647 6.97888 5.39647 8.97224C5.39647 10.9656 7.01366 12.5828 9.00702 12.5828C11.0004 12.5828 12.6176 10.9656 12.6176 8.97224ZM11.032 8.68865L10.4578 9.47849C10.4203 9.53005 10.4015 9.59333 10.4039 9.65779L10.4437 10.634C10.4519 10.832 10.2598 10.9773 10.0711 10.9164L9.14178 10.614C9.08084 10.5941 9.01522 10.5953 8.95545 10.6176L8.03905 10.9574C7.85272 11.0265 7.65584 10.8883 7.65584 10.6902V9.71287C7.65584 9.64841 7.63475 9.5863 7.59491 9.53591L6.98905 8.76951C6.866 8.61365 6.93631 8.38396 7.12381 8.32302L8.05311 8.02185C8.11405 8.00193 8.16678 7.96208 8.20194 7.90935L8.74334 7.09607C8.8535 6.93084 9.09373 6.92615 9.21092 7.08669L9.78514 7.87771C9.82264 7.92927 9.87655 7.96677 9.93866 7.98435L10.8797 8.24802C11.0695 8.30076 11.1492 8.5281 11.032 8.68865Z" fill="white"/>
<path d="M15.625 5.625H15.725C16.5651 5.625 16.9851 5.625 17.306 5.78849C17.5882 5.9323 17.8177 6.16177 17.9615 6.44401C18.125 6.76488 18.125 7.18492 18.125 8.025V16.875C18.125 17.5654 17.5654 18.125 16.875 18.125C16.1846 18.125 15.625 17.5654 15.625 16.875V5.625Z" fill="#5255FF"/>
<defs>
<linearGradient id="paint0_linear_5797_65" x1="9.6875" y1="1.875" x2="9.6875" y2="18.125" gradientUnits="userSpaceOnUse">
<stop stop-color="#9294FF"/>
<stop offset="1" stop-color="#6164FF"/>
</linearGradient>
</defs>
</svg>
