<svg width="16" height="16" viewBox="0 0 16 16" fill="none" xmlns="http://www.w3.org/2000/svg">
<g clip-path="url(#clip0_289_197)">
<path d="M0 2C0 0.895431 0.895431 0 2 0H14C15.1046 0 16 0.895431 16 2V14C16 15.1046 15.1046 16 14 16H2C0.895431 16 0 15.1046 0 14V2Z" fill="#5ACC78"/>
<path d="M0 13V14C0 15.1046 0.895431 16 2 16H14C15.1046 16 16 15.1046 16 14V13C16 14.1046 15.1046 15 14 15H2C0.895431 15 0 14.1046 0 13Z" fill="black" fill-opacity="0.1"/>
<path d="M4.67125 4.5L7.22936 7.88235L4.5 11.5H6.03058L8 8.79412L9.96942 11.5H11.5L8.74924 7.88235L11.3287 4.5H9.79816L8 6.97059L6.20183 4.5H4.67125Z" fill="white"/>
</g>
<defs>
<clipPath id="clip0_289_197">
<rect width="16" height="16" rx="2" fill="white"/>
</clipPath>
</defs>
</svg>
