<svg width="16" height="16" viewBox="0 0 16 16" fill="none" xmlns="http://www.w3.org/2000/svg">
<g clip-path="url(#clip0_40_135)">
<path d="M0 2C0 0.895431 0.895431 0 2 0H14C15.1046 0 16 0.895431 16 2V14C16 15.1046 15.1046 16 14 16H2C0.895431 16 0 15.1046 0 14V2Z" fill="#5ACC78"/>
<path d="M0 13V14C0 15.1046 0.895431 16 2 16H14C15.1046 16 16 15.1046 16 14V13C16 14.1046 15.1046 15 14 15H2C0.895431 15 0 14.1046 0 13Z" fill="black" fill-opacity="0.1"/>
<path d="M3 3.25C3 3.11193 3.11193 3 3.25 3H4.95C5.08807 3 5.2 3.11193 5.2 3.25V4.25C5.2 4.38807 5.08807 4.5 4.95 4.5H3.25C3.11193 4.5 3 4.38807 3 4.25V3.25Z" fill="white"/>
<path d="M6.89999 3.25C6.89999 3.11193 7.01192 3 7.14999 3H8.84999C8.98806 3 9.09999 3.11193 9.09999 3.25V4.25C9.09999 4.38807 8.98807 4.5 8.84999 4.5H7.14999C7.01192 4.5 6.89999 4.38807 6.89999 4.25V3.25Z" fill="white"/>
<path d="M11.05 3C10.9119 3 10.8 3.11193 10.8 3.25V4.25C10.8 4.38807 10.9119 4.5 11.05 4.5H12.75C12.8881 4.5 13 4.38807 13 4.25V3.25C13 3.11193 12.8881 3 12.75 3H11.05Z" fill="white"/>
<path d="M3 7.25C3 7.11193 3.11193 7 3.25 7H4.95C5.08807 7 5.2 7.11193 5.2 7.25V8.25C5.2 8.38807 5.08807 8.5 4.95 8.5H3.25C3.11193 8.5 3 8.38807 3 8.25V7.25Z" fill="white" fill-opacity="0.7"/>
<path d="M6.89999 7.25C6.89999 7.11193 7.01192 7 7.14999 7H8.84999C8.98806 7 9.09999 7.11193 9.09999 7.25V8.25C9.09999 8.38807 8.98807 8.5 8.84999 8.5H7.14999C7.01192 8.5 6.89999 8.38807 6.89999 8.25V7.25Z" fill="white" fill-opacity="0.7"/>
<path d="M11.05 7C10.9119 7 10.8 7.11193 10.8 7.25V8.25C10.8 8.38807 10.9119 8.5 11.05 8.5H12.75C12.8881 8.5 13 8.38807 13 8.25V7.25C13 7.11193 12.8881 7 12.75 7H11.05Z" fill="white" fill-opacity="0.7"/>
<path d="M3 11.25C3 11.1119 3.11193 11 3.25 11H4.95C5.08807 11 5.2 11.1119 5.2 11.25V12.25C5.2 12.3881 5.08807 12.5 4.95 12.5H3.25C3.11193 12.5 3 12.3881 3 12.25V11.25Z" fill="white" fill-opacity="0.4"/>
<path d="M6.89999 11.25C6.89999 11.1119 7.01192 11 7.14999 11H8.84999C8.98806 11 9.09999 11.1119 9.09999 11.25V12.25C9.09999 12.3881 8.98807 12.5 8.84999 12.5H7.14999C7.01192 12.5 6.89999 12.3881 6.89999 12.25V11.25Z" fill="white" fill-opacity="0.4"/>
<path d="M11.05 11C10.9119 11 10.8 11.1119 10.8 11.25V12.25C10.8 12.3881 10.9119 12.5 11.05 12.5H12.75C12.8881 12.5 13 12.3881 13 12.25V11.25C13 11.1119 12.8881 11 12.75 11H11.05Z" fill="white" fill-opacity="0.4"/>
</g>
<defs>
<clipPath id="clip0_40_135">
<rect width="16" height="16" rx="2" fill="white"/>
</clipPath>
</defs>
</svg>
