<svg width="20" height="20" viewBox="0 0 20 20" fill="none" xmlns="http://www.w3.org/2000/svg">
<path d="M5.31314 11.2525C5.56001 11.2525 5.80001 11.2781 6.03189 11.3275L17.5175 13.235C17.8612 13.2931 18.1732 13.471 18.3982 13.7373C18.6233 14.0035 18.7467 14.3408 18.7467 14.6894C18.7467 15.038 18.6233 15.3753 18.3982 15.6415C18.1732 15.9077 17.8612 16.0857 17.5175 16.1438L6.13876 18.0275C5.66657 18.144 5.17505 18.1589 4.69667 18.0713C4.21828 17.9837 3.76393 17.7957 3.36362 17.5195C2.9633 17.2433 2.62615 16.8853 2.37443 16.4692C2.12271 16.0531 1.96215 15.5883 1.90336 15.1055C1.84458 14.6228 1.8889 14.133 2.0334 13.6686C2.1779 13.2043 2.4193 12.7758 2.74163 12.4117C3.06397 12.0475 3.45991 11.7559 3.9033 11.5561C4.34669 11.3562 4.82743 11.2528 5.31376 11.2525H5.31314ZM5.31314 13.565C5.01477 13.565 4.72862 13.6835 4.51764 13.8945C4.30666 14.1055 4.18814 14.3916 4.18814 14.69C4.18814 14.9884 4.30666 15.2745 4.51764 15.4855C4.72862 15.6965 5.01477 15.815 5.31314 15.815C5.6115 15.815 5.89765 15.6965 6.10863 15.4855C6.31961 15.2745 6.43814 14.9884 6.43814 14.69C6.43814 14.3916 6.31961 14.1055 6.10863 13.8945C5.89765 13.6835 5.6115 13.565 5.31314 13.565Z" fill="#00AAFF" fill-opacity="0.4"/>
<path d="M16.1844 6.7912C16.6087 7.37495 16.5481 8.1787 16.0419 8.69245L7.94312 16.905C7.61634 17.2922 7.20798 17.6025 6.74727 17.8135C6.28656 18.0245 5.7849 18.131 5.2782 18.1255C4.7715 18.1199 4.2723 18.0024 3.81633 17.7813C3.36036 17.5603 2.9589 17.2412 2.64069 16.8468C2.32249 16.4524 2.0954 15.9926 1.9757 15.5002C1.85599 15.0078 1.84662 14.4951 1.94827 13.9986C2.04991 13.5022 2.26005 13.0344 2.56365 12.6287C2.86724 12.223 3.25678 11.8894 3.70437 11.6518L14.3319 6.33933C14.6442 6.1832 15.0017 6.14293 15.341 6.22567C15.6802 6.30842 15.979 6.50881 16.1844 6.7912ZM5.31312 13.565C5.01475 13.565 4.7286 13.6835 4.51763 13.8945C4.30665 14.1054 4.18812 14.3916 4.18812 14.69C4.18812 14.9883 4.30665 15.2745 4.51763 15.4854C4.7286 15.6964 5.01475 15.815 5.31312 15.815C5.61149 15.815 5.89764 15.6964 6.10862 15.4854C6.31959 15.2745 6.43812 14.9883 6.43812 14.69C6.43812 14.3916 6.31959 14.1054 6.10862 13.8945C5.89764 13.6835 5.61149 13.565 5.31312 13.565Z" fill="#00AAFF" fill-opacity="0.7"/>
<path d="M9.46563 1.90995C9.79768 2.01781 10.0806 2.24005 10.2641 2.53708C10.4476 2.8341 10.5197 3.18662 10.4675 3.53182L8.74251 14.9362C8.70503 15.4516 8.55183 15.9519 8.2943 16.4C8.03676 16.848 7.68153 17.2322 7.25502 17.524C6.82851 17.8158 6.34169 18.0077 5.83079 18.0853C5.31989 18.163 4.79805 18.1245 4.30408 17.9727C3.81012 17.8209 3.35674 17.5596 2.97768 17.2084C2.59862 16.8571 2.30363 16.4249 2.11465 15.944C1.92567 15.463 1.84757 14.9456 1.88615 14.4303C1.92474 13.9149 2.07901 13.4149 2.33751 12.9674L7.70126 2.63307C7.86218 2.32321 8.12781 2.08048 8.45088 1.94807C8.77396 1.81566 9.13353 1.80215 9.46563 1.90995ZM5.31313 13.5649C5.01476 13.5649 4.72861 13.6835 4.51764 13.8945C4.30666 14.1054 4.18813 14.3916 4.18813 14.6899C4.18813 14.9883 4.30666 15.2745 4.51764 15.4854C4.72861 15.6964 5.01476 15.8149 5.31313 15.8149C5.6115 15.8149 5.89765 15.6964 6.10863 15.4854C6.3196 15.2745 6.43813 14.9883 6.43813 14.6899C6.43813 14.3916 6.3196 14.1054 6.10863 13.8945C5.89765 13.6835 5.6115 13.5649 5.31313 13.5649Z" fill="#00AAFF"/>
</svg>
