<svg width="16" height="16" viewBox="0 0 16 16" fill="none" xmlns="http://www.w3.org/2000/svg">
<g clip-path="url(#clip0_40_133)">
<path d="M0 2C0 0.895431 0.895431 0 2 0H14C15.1046 0 16 0.895431 16 2V14C16 15.1046 15.1046 16 14 16H2C0.895431 16 0 15.1046 0 14V2Z" fill="#5ACC78"/>
<path d="M0 13V14C0 15.1046 0.895431 16 2 16H14C15.1046 16 16 15.1046 16 14V13C16 14.1046 15.1046 15 14 15H2C0.895431 15 0 14.1046 0 13Z" fill="black" fill-opacity="0.1"/>
<path d="M2.75 9C2.61193 9 2.5 9.11193 2.5 9.25V10.25C2.5 10.3881 2.61193 10.5 2.75 10.5H13.25C13.3881 10.5 13.5 10.3881 13.5 10.25V9.25C13.5 9.11193 13.3881 9 13.25 9H2.75Z" fill="white" fill-opacity="0.4"/>
<path d="M2.75 12C2.61193 12 2.5 12.1119 2.5 12.25V13.25C2.5 13.3881 2.61193 13.5 2.75 13.5H13.25C13.3881 13.5 13.5 13.3881 13.5 13.25V12.25C13.5 12.1119 13.3881 12 13.25 12H2.75Z" fill="white" fill-opacity="0.4"/>
<path d="M9.25 3C9.11193 3 9 3.11193 9 3.25V4.25C9 4.38807 9.11193 4.5 9.25 4.5H13.25C13.3881 4.5 13.5 4.38807 13.5 4.25V3.25C13.5 3.11193 13.3881 3 13.25 3H9.25Z" fill="white" fill-opacity="0.7"/>
<path d="M9.25 6C9.11193 6 9 6.11193 9 6.25V7.25C9 7.38807 9.11193 7.5 9.25 7.5H13.25C13.3881 7.5 13.5 7.38807 13.5 7.25V6.25C13.5 6.11193 13.3881 6 13.25 6H9.25Z" fill="white" fill-opacity="0.7"/>
<path d="M2.75 3C2.61193 3 2.5 3.11193 2.5 3.25V4.25C2.5 4.38807 2.61193 4.5 2.75 4.5H4.25V7.25C4.25 7.38807 4.36193 7.5 4.5 7.5H5.5C5.63807 7.5 5.75 7.38807 5.75 7.25V4.5H7.25C7.38807 4.5 7.5 4.38807 7.5 4.25V3.25C7.5 3.11193 7.38807 3 7.25 3H2.75Z" fill="white"/>
</g>
<defs>
<clipPath id="clip0_40_133">
<rect width="16" height="16" rx="2" fill="white"/>
</clipPath>
</defs>
</svg>
