<svg width="20" height="20" viewBox="0 0 20 20" fill="none" xmlns="http://www.w3.org/2000/svg">
<rect x="1" y="1" width="18" height="18" rx="4" fill="white"/>
<rect x="1.5" y="1.5" width="17" height="17" rx="3.5" stroke="black" stroke-opacity="0.06"/>
<path fill-rule="evenodd" clip-rule="evenodd" d="M10.6124 11.7748V11.948L9.23137 11.9478V11.7745C9.23137 11.3045 9.3037 10.8964 9.47145 10.5623C9.62765 10.2285 10.096 9.7087 10.8767 8.9915L11.0205 8.81825C11.2369 8.546 11.345 8.24928 11.345 7.9399C11.345 7.5318 11.2248 7.21005 11.0087 6.9752C10.7804 6.74008 10.4562 6.6287 10.0481 6.6287C9.51957 6.6287 9.1475 6.7893 8.91925 7.1358C8.7152 7.42043 8.61895 7.82853 8.61895 8.34828H7.25C7.25 7.43308 7.50217 6.7156 8.03045 6.19585C8.5469 5.67638 9.24347 5.4165 10.132 5.4165C10.9127 5.4165 11.5491 5.6266 12.0295 6.0721C12.5099 6.50495 12.75 7.09868 12.75 7.85328C12.75 8.47203 12.5938 8.97913 12.3056 9.37513C12.1975 9.49888 11.8494 9.83273 11.273 10.3522C11.0718 10.5229 10.9082 10.7335 10.7925 10.9707C10.6724 11.2182 10.6124 11.4778 10.6124 11.7748ZM10.5698 14.3441C10.4034 14.5036 10.2038 14.5834 9.95983 14.5834C9.71563 14.5834 9.51626 14.4923 9.34988 14.3328C9.18351 14.1736 9.10596 13.9685 9.10596 13.7182C9.10596 13.468 9.18351 13.2631 9.34988 13.1039C9.51626 12.9444 9.71591 12.8646 9.95983 12.8646C10.2038 12.8646 10.4144 12.9441 10.5808 13.1036C10.7359 13.2631 10.8247 13.468 10.8247 13.7182C10.8247 13.9687 10.7359 14.1849 10.5698 14.3441Z" fill="#8991A2"/>
</svg>
