<svg width="20" height="20" viewBox="0 0 20 20" fill="none" xmlns="http://www.w3.org/2000/svg">
<rect x="1" y="1" width="18" height="18" rx="4" fill="white"/>
<rect x="1.5" y="1.5" width="17" height="17" rx="3.5" stroke="black" stroke-opacity="0.06"/>
<path d="M6.75 6H10.2167C12.2311 6 13.25 6.81793 13.25 8.45378C13.25 10.1008 12.2311 10.93 10.1932 10.93H8.12027V14H6.75V6ZM8.12027 7.12045V9.80952H10.1113C10.7203 9.80952 11.1653 9.69748 11.4464 9.4958C11.7275 9.28291 11.868 8.93558 11.868 8.45378C11.868 7.97199 11.7158 7.63585 11.4347 7.43417C11.1536 7.22129 10.7086 7.12045 10.1113 7.12045H8.12027Z" fill="#FA7769"/>
</svg>
