<svg width="20" height="20" viewBox="0 0 20 20" fill="none" xmlns="http://www.w3.org/2000/svg">
<rect x="1" y="1" width="18" height="18" rx="4" fill="white"/>
<rect x="1.5" y="1.5" width="17" height="17" rx="3.5" stroke="black" stroke-opacity="0.06"/>
<path d="M9.79995 6.03851C9.92831 5.98716 10.0715 5.98716 10.1999 6.03851L13.3101 7.28261C13.5035 7.35997 13.5035 7.63374 13.3101 7.7111L10.1999 8.95519C10.0715 9.00654 9.92831 9.00654 9.79995 8.95519L6.68973 7.7111C6.49633 7.63374 6.49633 7.35997 6.68973 7.28261L9.79995 6.03851Z" fill="#9C62FF"/>
<path d="M9.61539 13.8459C9.61539 13.9548 9.50547 14.0292 9.40442 13.9888L6.25087 12.7273C6.19247 12.704 6.15417 12.6474 6.15417 12.5845V8.68548C6.15417 8.57665 6.26409 8.50223 6.36514 8.54265L9.51869 9.80408C9.57709 9.82744 9.61539 9.884 9.61539 9.94691V13.8459Z" fill="#9C62FF" fill-opacity="0.8"/>
<path d="M10.3845 13.8459C10.3845 13.9548 10.4944 14.0292 10.5955 13.9888L13.749 12.7273C13.8074 12.704 13.8457 12.6474 13.8457 12.5845V8.68548C13.8457 8.57665 13.7358 8.50223 13.6348 8.54265L10.4812 9.80408C10.4228 9.82744 10.3845 9.884 10.3845 9.94691V13.8459Z" fill="#9C62FF" fill-opacity="0.5"/>
</svg>
