<svg width="20" height="20" viewBox="0 0 20 20" fill="none" xmlns="http://www.w3.org/2000/svg">
<rect x="1" y="1" width="18" height="18" rx="4" fill="white"/>
<rect x="1.5" y="1.5" width="17" height="17" rx="3.5" stroke="black" stroke-opacity="0.06"/>
<path opacity="0.7" d="M6.90586 10.9223L4.75123 13.2308L4.75122 13.2308C4.6719 13.3158 4.63224 13.3583 4.63027 13.3946C4.62856 13.426 4.64178 13.4565 4.66597 13.4767C4.69382 13.5 4.75194 13.5 4.86819 13.5H11.5954C11.7215 13.5 11.7846 13.5 11.8128 13.4754C11.8373 13.4541 11.8499 13.4222 11.8466 13.3899C11.8428 13.3527 11.7968 13.3095 11.7048 13.2233L9.16986 10.8467C8.76046 10.4629 8.55576 10.271 8.32477 10.2043C8.1216 10.1456 7.90505 10.1528 7.70624 10.2249C7.48021 10.3069 7.28876 10.512 6.90586 10.9223Z" fill="#5ACC78"/>
<path d="M12.1345 7.57243L9.59999 13.275C9.56667 13.35 9.55 13.3875 9.55546 13.4178C9.56024 13.4442 9.57545 13.4676 9.59768 13.4827C9.62312 13.5 9.66415 13.5 9.7462 13.5H15.2538C15.3359 13.5 15.3769 13.5 15.4023 13.4827C15.4245 13.4676 15.4398 13.4442 15.4445 13.4178C15.45 13.3875 15.4333 13.35 15.4 13.275L12.8655 7.57243C12.7498 7.31196 12.6919 7.18172 12.6112 7.14165C12.5412 7.10685 12.4588 7.10685 12.3888 7.14165C12.3081 7.18172 12.2502 7.31196 12.1345 7.57243Z" fill="#5ACC78"/>
<circle cx="7.5" cy="7" r="1" fill="#5ACC78"/>
</svg>
