<svg width="20" height="20" viewBox="0 0 20 20" fill="none" xmlns="http://www.w3.org/2000/svg">
<rect x="1" y="1" width="18" height="18" rx="4" fill="white"/>
<rect x="1.5" y="1.5" width="17" height="17" rx="3.5" stroke="black" stroke-opacity="0.06"/>
<path d="M9.52318 5.50257C9.64915 5.50387 9.77315 5.53389 9.88576 5.59035C9.99837 5.64681 10.0966 5.72822 10.173 5.82838C10.4979 6.27929 10.4727 7.23242 10.0488 8.63647C10.449 9.38649 10.973 10.0635 11.5987 10.639C12.1234 10.54 12.649 10.4644 13.1737 10.4644C14.3482 10.4896 14.5238 11.0413 14.4976 11.3663C14.4976 12.2177 13.6723 12.2177 13.2475 12.2177V12.2186C12.5662 12.1729 11.9177 11.9091 11.3979 11.4662C10.3737 11.6912 9.39898 12.017 8.42425 12.4184C7.65112 13.7981 6.9248 14.5002 6.30108 14.5002C6.17507 14.5002 6.02567 14.475 5.92486 14.3993C5.79655 14.3392 5.68826 14.2434 5.61293 14.1234C5.5376 14.0034 5.49841 13.8642 5.50005 13.7225C5.50005 13.4975 5.54955 12.8702 7.92383 11.8442C8.46287 10.8522 8.90648 9.81131 9.24867 8.73547C8.94896 8.13425 8.29824 6.6564 8.74826 5.90398C8.89856 5.62767 9.19827 5.47827 9.52408 5.50257H9.52318ZM7.85813 12.1943C7.25781 12.4859 6.51888 13.0151 6.59089 13.3526C6.63859 13.5776 6.8987 13.5011 7.37031 13.1222C7.66642 12.7415 7.71502 12.5444 7.85813 12.1943ZM13.2907 11.0719C13.0495 11.0719 12.8353 11.0719 12.5941 11.1799C12.8623 11.45 13.009 11.5823 13.2781 11.6363C13.4653 11.6903 13.828 11.7875 13.9351 11.5058C14.0431 11.2249 13.828 11.0719 13.2907 11.0719ZM9.74819 9.73C9.54075 10.2256 9.32228 10.7166 9.09297 11.2024L10.5654 10.7119C10.2594 10.3987 9.984 10.1017 9.74819 9.73ZM9.51418 6.5871C9.36658 6.6105 9.28648 6.79861 9.24867 6.93181C9.17127 7.31162 9.37468 7.73464 9.62939 8.03615C9.83909 7.71934 9.8922 7.42683 9.81119 6.99661C9.71309 6.7086 9.61409 6.5718 9.51418 6.5871Z" fill="#FA7769" stroke="#FA7769" stroke-width="0.2"/>
</svg>
