<svg width="20" height="20" viewBox="0 0 20 20" fill="none" xmlns="http://www.w3.org/2000/svg">
<rect x="1" y="1" width="18" height="18" rx="4" fill="white"/>
<rect x="1.5" y="1.5" width="17" height="17" rx="3.5" stroke="black" stroke-opacity="0.06"/>
<path fill-rule="evenodd" clip-rule="evenodd" d="M13.6337 6.32164C13.6335 5.9619 13.3051 5.69173 12.952 5.76084L7.83527 6.76242C7.56687 6.81495 7.37324 7.0502 7.37328 7.3237L7.37403 12.0003C7.15109 11.9724 6.90834 11.9877 6.66358 12.0532C5.87915 12.2634 5.37104 12.9107 5.52868 13.4991C5.68632 14.0874 6.45002 14.3939 7.23445 14.1837C7.76623 14.0413 8.17103 13.6979 8.3275 13.3082C8.38128 13.1742 8.39347 13.1169 8.39591 12.8962L8.39597 12.8861L8.39596 9.83046L12.6125 8.97747L12.6129 10.7749C12.39 10.747 12.1472 10.7623 11.9025 10.8279C11.118 11.0381 10.6099 11.6854 10.7676 12.2737C10.9252 12.862 11.6889 13.1686 12.4733 12.9584C13.0051 12.8159 13.4099 12.4725 13.5664 12.0828C13.6202 11.9488 13.6324 11.8916 13.6348 11.6708L13.6349 11.6548L13.6356 11.232L13.6356 11.1423C13.6357 9.53541 13.6347 7.92853 13.6337 6.32164ZM12.6123 8.14405L12.612 6.968L8.39596 7.78001L8.39596 8.997L12.6123 8.14405Z" fill="#9C62FF"/>
</svg>
