<svg width="16" height="16" viewBox="0 0 16 16" fill="none" xmlns="http://www.w3.org/2000/svg">
<g clip-path="url(#clip0_88_479)">
<path d="M0 2C0 0.895431 0.895431 0 2 0H14C15.1046 0 16 0.895431 16 2V14C16 15.1046 15.1046 16 14 16H2C0.895431 16 0 15.1046 0 14V2Z" fill="#BCC2CC"/>
<path d="M0 13V14C0 15.1046 0.895431 16 2 16H14C15.1046 16 16 15.1046 16 14V13C16 14.1046 15.1046 15 14 15H2C0.895431 15 0 14.1046 0 13Z" fill="black" fill-opacity="0.1"/>
<path d="M7.85982 12.7307C8.10544 12.7307 8.30648 12.6504 8.47402 12.4898C8.64127 12.3295 8.73072 12.1118 8.73072 11.8595C8.73072 11.6076 8.64127 11.4012 8.48509 11.2406C8.31756 11.08 8.10544 11 7.85982 11C7.6142 11 7.41316 11.0803 7.24562 11.2409C7.07809 11.4012 7 11.6076 7 11.8595C7 12.1115 7.07809 12.3181 7.24562 12.4784C7.41316 12.6391 7.61392 12.7307 7.85982 12.7307Z" fill="white" fill-opacity="0.7"/>
<path d="M8.51706 10.077V9.90254C8.51706 9.60347 8.57743 9.34207 8.69844 9.09284C8.81491 8.85404 8.97964 8.64198 9.18221 8.47006C9.76262 7.94697 10.1132 7.6108 10.222 7.48619C10.5122 7.08743 10.6695 6.5768 10.6695 5.95374C10.6695 5.19389 10.4278 4.59603 9.944 4.16016C9.46023 3.71156 8.81945 3.5 8.03329 3.5C7.13858 3.5 6.43715 3.76168 5.91711 4.28478C5.38516 4.80814 5.13123 5.53061 5.13123 6.45219H6.50971C6.50971 5.92882 6.60663 5.51788 6.8121 5.23127C7.04194 4.88236 7.4166 4.72064 7.94883 4.72064C8.35977 4.72064 8.68625 4.83279 8.91609 5.06955C9.13375 5.30604 9.25476 5.63003 9.25476 6.04097C9.25476 6.3525 9.14593 6.65129 8.928 6.92543L8.78317 7.09989C7.99701 7.82208 7.52543 8.34545 7.36814 8.68162C7.19922 9.01808 7.12639 9.42902 7.12639 9.90227V10.0767L8.51706 10.077Z" fill="white"/>
</g>
<defs>
<clipPath id="clip0_88_479">
<rect width="16" height="16" rx="2" fill="white"/>
</clipPath>
</defs>
</svg>
