<svg width="16" height="16" viewBox="0 0 16 16" fill="none" xmlns="http://www.w3.org/2000/svg">
<g clip-path="url(#clip0_88_476)">
<path d="M0 2C0 0.895431 0.895431 0 2 0H14C15.1046 0 16 0.895431 16 2V14C16 15.1046 15.1046 16 14 16H2C0.895431 16 0 15.1046 0 14V2Z" fill="#96A0FF"/>
<path d="M0 13V14C0 15.1046 0.895431 16 2 16H14C15.1046 16 16 15.1046 16 14V13C16 14.1046 15.1046 15 14 15H2C0.895431 15 0 14.1046 0 13Z" fill="black" fill-opacity="0.1"/>
<path d="M13.9019 5.4808L11.9091 6.47725V9.0227L13.9019 10.0191C14.1558 10.1461 14.4545 9.96147 14.4545 9.67763V5.82231C14.4545 5.53848 14.1558 5.35387 13.9019 5.4808Z" fill="white" fill-opacity="0.7"/>
<path fill-rule="evenodd" clip-rule="evenodd" d="M3.95455 4.25C3.42736 4.25 3 4.67736 3 5.20454V10.2955C3 10.8226 3.42736 11.25 3.95454 11.25H10.9545C11.4817 11.25 11.9091 10.8226 11.9091 10.2955V5.20455C11.9091 4.67736 11.4817 4.25 10.9545 4.25H3.95455ZM8.70711 7.96227C8.86455 7.86349 8.86455 7.63651 8.70711 7.53773L6.57282 6.19869C6.40335 6.09237 6.18181 6.21264 6.18181 6.41096V9.08904C6.18181 9.28736 6.40335 9.40763 6.57282 9.30131L8.70711 7.96227Z" fill="white"/>
</g>
<defs>
<clipPath id="clip0_88_476">
<rect width="16" height="16" rx="2" fill="white"/>
</clipPath>
</defs>
</svg>
