<svg width="16" height="16" viewBox="0 0 16 16" fill="none" xmlns="http://www.w3.org/2000/svg">
<g clip-path="url(#clip0_289_196)">
<path d="M0 2C0 0.895431 0.895431 0 2 0H14C15.1046 0 16 0.895431 16 2V14C16 15.1046 15.1046 16 14 16H2C0.895431 16 0 15.1046 0 14V2Z" fill="#47A3FF"/>
<path d="M0 13V14C0 15.1046 0.895431 16 2 16H14C15.1046 16 16 15.1046 16 14V13C16 14.1046 15.1046 15 14 15H2C0.895431 15 0 14.1046 0 13Z" fill="black" fill-opacity="0.1"/>
<path d="M3.5 4.5L5.45652 11.5H6.64952L7.98568 6.23529H8.02386L9.35048 11.5H10.5339L12.5 4.5H11.2402L9.96129 9.82353H9.92312L8.57741 4.5H7.42259L6.07688 9.82353H6.03871L4.75981 4.5H3.5Z" fill="white"/>
</g>
<defs>
<clipPath id="clip0_289_196">
<rect width="16" height="16" rx="2" fill="white"/>
</clipPath>
</defs>
</svg>
