<svg width="32" height="32" viewBox="0 0 32 32" fill="none" xmlns="http://www.w3.org/2000/svg">
<path d="M21.591 17.9341H12.405L11.4113 19.6628L11.2775 19.8881L10.4175 21.3828L9.27348 23.3622L5.17285 30.4606H14.3591L16.0044 27.6213L17.4572 25.0991L18.9272 22.5522L20.33 20.1219L20.5972 19.6628L21.591 17.9341Z" fill="#7854A0"/>
<path d="M26.8273 30.4606L22.727 23.3622L21.6164 21.4331L20.7311 19.9047L20.5973 19.6628L19.5954 17.9341H10.4092L11.4114 19.6628L11.6536 20.0969L13.0564 22.5188L14.5514 25.1075L16.0045 27.6213L17.6411 30.4606H26.8273Z" fill="#9D7CB6"/>
<path d="M29.3329 15.0273C29.4164 7.67011 23.5207 1.6323 16.1567 1.54043C8.7895 1.45699 2.75043 7.35293 2.66793 14.7189C2.6095 19.6792 5.27356 24.0467 9.27387 26.3851C10.8898 27.3339 12.6887 27.9288 14.5517 28.1304C14.9773 28.1723 15.4117 28.1973 15.8461 28.2057C16.3845 28.2157 16.9231 28.1877 17.4576 28.122C19.318 27.9258 21.1149 27.3336 22.7273 26.3851C26.6273 24.0967 29.2745 19.8795 29.3329 15.0273Z" fill="#D09680"/>
<path d="M27.1282 15.0105C27.2032 8.88928 22.3013 3.87865 16.1801 3.80334C10.0669 3.72834 5.04819 8.63021 4.98132 14.7515C4.93101 18.8521 7.11913 22.4596 10.4188 24.4055C11.2428 24.9021 12.1305 25.2841 13.0576 25.5412C14.9765 26.076 17.0036 26.0876 18.9285 25.5746C19.8696 25.3199 20.7736 24.9437 21.6176 24.4555C24.8735 22.5599 27.0863 19.044 27.1282 15.0105Z" fill="#F3C3AA"/>
<path d="M25.3655 14.9687C25.424 9.80776 21.2902 5.57401 16.1377 5.51526C10.9768 5.45682 6.74272 9.59057 6.68428 14.7515C6.64272 18.2174 8.49678 21.2571 11.278 22.9106C11.403 22.9774 11.528 23.0443 11.653 23.1193C12.99 23.8229 14.4774 24.1927 15.9882 24.197C17.4991 24.2014 18.9886 23.8402 20.3296 23.1443C20.4715 23.0778 20.5968 23.0024 20.7305 22.9256C23.4687 21.324 25.324 18.3749 25.3655 14.9687Z" fill="#A97B6A"/>
<path d="M16.2366 13.8192C16.3049 13.8106 16.403 13.8064 16.531 13.8064C17.0089 13.8064 17.4611 13.9216 17.8878 14.152C18.3145 14.3738 18.6558 14.7024 18.9118 15.1376C19.1763 15.5728 19.3086 16.089 19.3086 16.6864C19.3086 17.3008 19.1678 17.8426 18.8862 18.312C18.6131 18.7813 18.2249 19.144 17.7214 19.4C17.2265 19.656 16.659 19.784 16.019 19.784C15.2595 19.784 14.5939 19.609 14.0222 19.2592C13.4505 18.9008 13.0238 18.4144 12.7422 17.8L13.9326 16.9808C14.1715 17.4586 14.4617 17.817 14.803 18.056C15.1443 18.2864 15.5539 18.4016 16.0318 18.4016C16.5438 18.4016 16.9619 18.2437 17.2862 17.928C17.6105 17.6122 17.7726 17.1984 17.7726 16.6864C17.7726 16.1573 17.6062 15.7392 17.2734 15.432C16.9406 15.1248 16.4926 14.9712 15.9294 14.9712C15.6137 14.9712 15.2937 15.0693 14.9694 15.2656L14.1246 14.1648L16.787 11.3488H13.0622V9.92798H18.7966V11.1952L16.211 13.7552L16.2366 13.8192Z" fill="white"/>
</svg>
