<svg width="32" height="32" viewBox="0 0 32 32" fill="none" xmlns="http://www.w3.org/2000/svg">
<path d="M3.05176 8.90479C3.05176 7.80022 3.94719 6.90479 5.05176 6.90479H6.99302V15.4695H6.05176C4.3949 15.4695 3.05176 14.1264 3.05176 12.4695V8.90479Z" fill="url(#paint0_linear_1041_5346)"/>
<path d="M26.6621 8.90479C26.6621 7.80022 25.7667 6.90479 24.6621 6.90479H22.7208V15.4695H23.6621C25.319 15.4695 26.6621 14.1264 26.6621 12.4695V8.90479Z" fill="url(#paint1_linear_1041_5346)"/>
<path d="M19.9033 3.36963C22.2627 3.36972 24.1758 5.28267 24.1758 7.64209V10.9644C24.1758 15.5769 20.8216 19.4035 16.4199 20.145V22.9165H18.4492C19.3957 22.9168 20.163 23.6838 20.1631 24.6304C20.1631 25.5771 19.395 26.3442 18.4482 26.3442H10.9619C10.0152 26.3441 9.24805 25.5771 9.24805 24.6304C9.24808 23.6837 10.0153 22.9166 10.9619 22.9165H12.9912V20.0894C8.74436 19.2232 5.54883 15.4671 5.54883 10.9644V7.64209C5.54883 5.28261 7.46181 3.36963 9.82129 3.36963H19.9033Z" fill="url(#paint2_linear_1041_5346)"/>
<mask id="mask0_1041_5346" style="mask-type:alpha" maskUnits="userSpaceOnUse" x="5" y="3" width="20" height="24">
<path d="M19.9033 3.36963C22.2627 3.36972 24.1758 5.28267 24.1758 7.64209V10.9644C24.1758 15.5769 20.8216 19.4035 16.4199 20.145V22.9165H18.4492C19.3957 22.9168 20.163 23.6838 20.1631 24.6304C20.1631 25.5771 19.395 26.3442 18.4482 26.3442H10.9619C10.0152 26.3441 9.24805 25.5771 9.24805 24.6304C9.24808 23.6837 10.0153 22.9166 10.9619 22.9165H12.9912V20.0894C8.74436 19.2232 5.54883 15.4671 5.54883 10.9644V7.64209C5.54883 5.28261 7.46181 3.36963 9.82129 3.36963H19.9033Z" fill="url(#paint3_linear_1041_5346)"/>
</mask>
<g mask="url(#mask0_1041_5346)">
<g filter="url(#filter0_f_1041_5346)">
<circle cx="18.4614" cy="5.08514" r="5.71429" fill="white" fill-opacity="0.55"/>
</g>
</g>
<g filter="url(#filter1_d_1041_5346)">
<path d="M15.2584 10.7364L15.4721 10.7238C15.9414 10.7238 16.3814 10.8412 16.7921 11.0758C17.2111 11.3021 17.5464 11.6332 17.7978 12.069C18.0492 12.5048 18.1749 13.016 18.1749 13.6027C18.1749 14.2145 18.0325 14.7592 17.7475 15.237C17.4709 15.7063 17.0812 16.0709 16.5784 16.3307C16.0755 16.5905 15.4972 16.7204 14.8435 16.7204C14.0641 16.7204 13.3894 16.5402 12.8195 16.1798C12.258 15.8111 11.8348 15.3208 11.5498 14.709L12.9075 13.7787C13.1254 14.2312 13.3894 14.5749 13.6995 14.8095C14.018 15.0358 14.4035 15.149 14.8561 15.149C15.3254 15.149 15.7068 15.0065 16.0001 14.7215C16.2934 14.4366 16.4401 14.0636 16.4401 13.6027C16.4401 13.125 16.2934 12.7478 16.0001 12.4712C15.7151 12.1863 15.3254 12.0354 14.8309 12.0187C14.5041 12.0187 14.173 12.1192 13.8378 12.3204L12.8949 11.0884L15.4092 8.53639H11.8892V6.92725H17.6847V8.34782L15.2332 10.6735L15.2584 10.7364Z" fill="white"/>
</g>
<defs>
<filter id="filter0_f_1041_5346" x="8.74707" y="-4.62915" width="19.4287" height="19.4285" filterUnits="userSpaceOnUse" color-interpolation-filters="sRGB">
<feFlood flood-opacity="0" result="BackgroundImageFix"/>
<feBlend mode="normal" in="SourceGraphic" in2="BackgroundImageFix" result="shape"/>
<feGaussianBlur stdDeviation="2" result="effect1_foregroundBlur_1041_5346"/>
</filter>
<filter id="filter1_d_1041_5346" x="10.5498" y="5.92725" width="8.625" height="11.7932" filterUnits="userSpaceOnUse" color-interpolation-filters="sRGB">
<feFlood flood-opacity="0" result="BackgroundImageFix"/>
<feColorMatrix in="SourceAlpha" type="matrix" values="0 0 0 0 0 0 0 0 0 0 0 0 0 0 0 0 0 0 127 0" result="hardAlpha"/>
<feOffset/>
<feGaussianBlur stdDeviation="0.5"/>
<feComposite in2="hardAlpha" operator="out"/>
<feColorMatrix type="matrix" values="0 0 0 0 0.87451 0 0 0 0 0.682353 0 0 0 0 0.513726 0 0 0 1 0"/>
<feBlend mode="normal" in2="BackgroundImageFix" result="effect1_dropShadow_1041_5346"/>
<feBlend mode="normal" in="SourceGraphic" in2="effect1_dropShadow_1041_5346" result="shape"/>
</filter>
<linearGradient id="paint0_linear_1041_5346" x1="5.02239" y1="10.6631" x2="1.89756" y2="11.956" gradientUnits="userSpaceOnUse">
<stop stop-color="#EBD8C3"/>
<stop offset="1" stop-color="#E0C09F"/>
</linearGradient>
<linearGradient id="paint1_linear_1041_5346" x1="24.6915" y1="10.6631" x2="27.8163" y2="11.956" gradientUnits="userSpaceOnUse">
<stop stop-color="#EBD8C3"/>
<stop offset="1" stop-color="#E0C09F"/>
</linearGradient>
<linearGradient id="paint2_linear_1041_5346" x1="17.5216" y1="3.36963" x2="14.8625" y2="26.3443" gradientUnits="userSpaceOnUse">
<stop stop-color="#E0B38A"/>
<stop offset="1" stop-color="#D17C35"/>
</linearGradient>
<linearGradient id="paint3_linear_1041_5346" x1="17.5216" y1="3.36963" x2="14.8625" y2="26.3443" gradientUnits="userSpaceOnUse">
<stop stop-color="#FFC239"/>
<stop offset="1" stop-color="#FD9C0D"/>
</linearGradient>
</defs>
</svg>
