<svg width="32" height="32" viewBox="0 0 32 32" fill="none" xmlns="http://www.w3.org/2000/svg">
<path d="M21.591 17.9341H12.405L11.4113 19.6628L11.2775 19.8881L10.4175 21.3828L9.27348 23.3622L5.17285 30.4606H14.3591L16.0044 27.6213L17.4572 25.0991L18.9272 22.5522L20.33 20.1219L20.5972 19.6628L21.591 17.9341Z" fill="#286EA4"/>
<path d="M26.8273 30.4606L22.727 23.3622L21.6164 21.4331L20.7311 19.9047L20.5973 19.6628L19.5954 17.9341H10.4092L11.4114 19.6628L11.6536 20.0969L13.0564 22.5188L14.5514 25.1075L16.0045 27.6213L17.6411 30.4606H26.8273Z" fill="#7C9DB6"/>
<path d="M29.3329 15.0273C29.4164 7.67011 23.5207 1.6323 16.1567 1.54043C8.7895 1.45699 2.75043 7.35293 2.66793 14.7189C2.6095 19.6792 5.27356 24.0467 9.27387 26.3851C10.8898 27.3339 12.6887 27.9288 14.5517 28.1304C14.9773 28.1723 15.4117 28.1973 15.8461 28.2057C16.3845 28.2157 16.9231 28.1877 17.4576 28.122C19.318 27.9258 21.1149 27.3336 22.7273 26.3851C26.6273 24.0967 29.2745 19.8795 29.3329 15.0273Z" fill="#93B5D6"/>
<path d="M27.1282 15.0105C27.2032 8.88928 22.3013 3.87865 16.1801 3.80334C10.0669 3.72834 5.04819 8.63021 4.98132 14.7515C4.93101 18.8521 7.11913 22.4596 10.4188 24.4055C11.2428 24.9021 12.1305 25.2841 13.0576 25.5412C14.9765 26.076 17.0036 26.0876 18.9285 25.5746C19.8696 25.3199 20.7736 24.9437 21.6176 24.4555C24.8735 22.5599 27.0863 19.044 27.1282 15.0105Z" fill="#DEEAFF"/>
<path d="M25.3655 14.9687C25.424 9.80776 21.2902 5.57401 16.1377 5.51526C10.9768 5.45682 6.74272 9.59057 6.68428 14.7515C6.64272 18.2174 8.49678 21.2571 11.278 22.9106C11.403 22.9774 11.528 23.0443 11.653 23.1193C12.99 23.8229 14.4774 24.1927 15.9882 24.197C17.4991 24.2014 18.9886 23.8402 20.3296 23.1443C20.4715 23.0778 20.5968 23.0024 20.7305 22.9256C23.4687 21.324 25.324 18.3749 25.3655 14.9687Z" fill="#A5B8CA"/>
<path d="M16.2622 13.512C16.8766 13.512 17.4099 13.64 17.8622 13.896C18.323 14.152 18.6771 14.5146 18.9246 14.984C19.1806 15.4448 19.3086 15.9781 19.3086 16.584C19.3086 17.224 19.1721 17.7872 18.899 18.2736C18.6259 18.7514 18.2377 19.1226 17.7342 19.3872C17.2307 19.6517 16.6419 19.784 15.9678 19.784C15.1913 19.784 14.5214 19.609 13.9582 19.2592C13.4035 18.9008 12.9982 18.4314 12.7422 17.8512L13.9454 17.0192C14.1843 17.4629 14.4659 17.8042 14.7902 18.0432C15.123 18.2821 15.5241 18.4016 15.9934 18.4016C16.5225 18.4016 16.9491 18.2394 17.2734 17.9152C17.6062 17.5909 17.7726 17.1685 17.7726 16.648C17.7726 16.1189 17.6062 15.6965 17.2734 15.3808C16.9406 15.0565 16.5011 14.8944 15.955 14.8944C15.6222 14.8944 15.3107 14.9712 15.0206 15.1248C14.739 15.2698 14.5043 15.4874 14.3166 15.7776L13.0238 15.1888L13.4206 9.92798H18.7838V11.3232H14.8286L14.611 13.9856C14.8329 13.832 15.0846 13.7168 15.3662 13.64C15.6563 13.5546 15.955 13.512 16.2622 13.512Z" fill="white"/>
</svg>
