<svg width="32" height="32" viewBox="0 0 32 32" fill="none" xmlns="http://www.w3.org/2000/svg">
<path d="M21.591 17.9341H12.405L11.4113 19.6628L11.2775 19.8881L10.4175 21.3828L9.27348 23.3622L5.17285 30.4606H14.3591L16.0044 27.6213L17.4572 25.0991L18.9272 22.5522L20.33 20.1219L20.5972 19.6628L21.591 17.9341Z" fill="#497EC1"/>
<path d="M26.8273 30.4606L22.727 23.3622L21.6164 21.4331L20.7311 19.9047L20.5973 19.6628L19.5954 17.9341H10.4092L11.4114 19.6628L11.6536 20.0969L13.0564 22.5188L14.5514 25.1075L16.0045 27.6213L17.6411 30.4606H26.8273Z" fill="#73A1D5"/>
<path d="M29.3329 15.0273C29.4164 7.67011 23.5207 1.6323 16.1567 1.54043C8.7895 1.45699 2.75043 7.35293 2.66793 14.7189C2.6095 19.6792 5.27356 24.0467 9.27387 26.3851C10.8898 27.3339 12.6887 27.9288 14.5517 28.1304C14.9773 28.1723 15.4117 28.1973 15.8461 28.2057C16.3845 28.2157 16.9231 28.1877 17.4576 28.122C19.318 27.9258 21.1149 27.3336 22.7273 26.3851C26.6273 24.0967 29.2745 19.8795 29.3329 15.0273Z" fill="#B3C2C7"/>
<path d="M27.1282 15.0105C27.2032 8.88928 22.3013 3.87865 16.1801 3.80334C10.0669 3.72834 5.04819 8.63021 4.98132 14.7515C4.93101 18.8521 7.11913 22.4596 10.4188 24.4055C11.2428 24.9021 12.1305 25.2841 13.0576 25.5412C14.9765 26.076 17.0036 26.0876 18.9285 25.5746C19.8696 25.3199 20.7736 24.9437 21.6176 24.4555C24.8735 22.5599 27.0863 19.044 27.1282 15.0105Z" fill="#D9E8ED"/>
<path d="M25.3655 14.9687C25.424 9.80776 21.2902 5.57401 16.1377 5.51526C10.9768 5.45682 6.74272 9.59057 6.68428 14.7515C6.64272 18.2174 8.49678 21.2571 11.278 22.9106C11.403 22.9774 11.528 23.0443 11.653 23.1193C12.99 23.8229 14.4774 24.1927 15.9882 24.197C17.4991 24.2014 18.9885 23.8402 20.3296 23.1443C20.4715 23.0778 20.5968 23.0024 20.7305 22.9256C23.4687 21.324 25.324 18.3749 25.3655 14.9687Z" fill="#9AA6A8"/>
<path d="M15.0462 18.376H19.1934V19.784H12.8702V18.6576L16.1342 15.1248C16.6206 14.6042 16.9577 14.1818 17.1454 13.8576C17.3417 13.5248 17.4398 13.1792 17.4398 12.8208C17.4398 12.3685 17.3033 12.0058 17.0302 11.7328C16.7572 11.4597 16.3902 11.3232 15.9294 11.3232C15.5198 11.3232 15.1572 11.4426 14.8414 11.6816C14.5257 11.9205 14.2612 12.2661 14.0478 12.7184L12.8574 11.912C13.1049 11.3317 13.4932 10.8581 14.0222 10.4912C14.5598 10.1242 15.2084 9.93651 15.9678 9.92798C16.5737 9.92798 17.107 10.0432 17.5678 10.2736C18.0286 10.504 18.3828 10.8325 18.6302 11.2592C18.8777 11.6773 19.0014 12.168 19.0014 12.7312C19.0014 13.2602 18.8777 13.7594 18.6302 14.2288C18.3828 14.6896 17.9774 15.2229 17.4142 15.8288L15.0462 18.376Z" fill="white"/>
</svg>
