<svg width="32" height="32" viewBox="0 0 32 32" fill="none" xmlns="http://www.w3.org/2000/svg">
<circle cx="16" cy="19.5" r="12" fill="url(#paint0_linear_1041_5399)"/>
<path d="M14.776 24.788H19.96V26.548H12.056V25.14L16.136 20.724C16.744 20.0734 17.1654 19.5454 17.4 19.14C17.6454 18.724 17.768 18.292 17.768 17.844C17.768 17.2787 17.5974 16.8254 17.256 16.484C16.9147 16.1427 16.456 15.972 15.88 15.972C15.368 15.972 14.9147 16.1214 14.52 16.42C14.1254 16.7187 13.7947 17.1507 13.528 17.716L12.04 16.708C12.3494 15.9827 12.8347 15.3907 13.496 14.932C14.168 14.4734 14.9787 14.2387 15.928 14.228C16.6854 14.228 17.352 14.372 17.928 14.66C18.504 14.948 18.9467 15.3587 19.256 15.892C19.5654 16.4147 19.72 17.028 19.72 17.732C19.72 18.3934 19.5654 19.0174 19.256 19.604C18.9467 20.18 18.44 20.8467 17.736 21.604L14.776 24.788Z" fill="#754F2A"/>
<path d="M15.4215 1.11425C15.4215 1.27716 15.4862 1.4334 15.6014 1.54859C15.7166 1.66378 15.8728 1.7285 16.0358 1.7285C16.1987 1.7285 16.3549 1.66378 16.4701 1.54859C16.5853 1.4334 16.65 1.27716 16.65 1.11425C16.65 0.951341 16.5853 0.795104 16.4701 0.67991C16.3549 0.564715 16.1987 0.5 16.0358 0.5C15.8728 0.5 15.7166 0.564715 15.6014 0.67991C15.4862 0.795104 15.4215 0.951341 15.4215 1.11425Z" fill="url(#paint1_linear_1041_5399)"/>
<path d="M11.6669 8.80619L10.2223 3.89544L12.958 5.33925L16 1.7285L18.9518 5.33925L21.7777 3.89544L20.3331 8.80619H11.6669Z" fill="url(#paint2_linear_1041_5399)"/>
<path d="M21.5965 3.67784C21.5729 3.62086 21.5607 3.5598 21.5607 3.49812C21.5607 3.37357 21.6102 3.25412 21.6983 3.16605C21.7864 3.07798 21.9058 3.0285 22.0304 3.0285C22.1549 3.0285 22.2744 3.07798 22.3624 3.16605C22.4505 3.25412 22.5 3.37357 22.5 3.49812C22.5 3.5598 22.4878 3.62086 22.4642 3.67784C22.4406 3.73482 22.4061 3.78659 22.3624 3.8302C22.3188 3.87381 22.2671 3.9084 22.2101 3.932C22.1531 3.9556 22.092 3.96775 22.0304 3.96775C21.9687 3.96775 21.9076 3.9556 21.8507 3.932C21.7937 3.9084 21.7419 3.87381 21.6983 3.8302C21.6547 3.78659 21.6201 3.73482 21.5965 3.67784Z" fill="url(#paint3_linear_1041_5399)"/>
<path d="M9.5 3.49812C9.5 3.62268 9.54948 3.74213 9.63755 3.8302C9.72562 3.91827 9.84507 3.96775 9.96962 3.96775C10.0942 3.96775 10.2136 3.91827 10.3017 3.8302C10.3898 3.74213 10.4392 3.62268 10.4392 3.49812C10.4392 3.37357 10.3898 3.25412 10.3017 3.16605C10.2136 3.07798 10.0942 3.0285 9.96962 3.0285C9.84507 3.0285 9.72562 3.07798 9.63755 3.16605C9.54948 3.25412 9.5 3.37357 9.5 3.49812Z" fill="url(#paint4_linear_1041_5399)"/>
<path d="M20.3875 9.08162H11.6937V9.97537H20.3875V9.08162Z" fill="url(#paint5_linear_1041_5399)"/>
<defs>
<linearGradient id="paint0_linear_1041_5399" x1="16" y1="7.5" x2="16" y2="31.5" gradientUnits="userSpaceOnUse">
<stop stop-color="#FFF6EC"/>
<stop offset="1" stop-color="#FFD4A3"/>
</linearGradient>
<linearGradient id="paint1_linear_1041_5399" x1="11.5" y1="9.5" x2="21.5" y2="4.5" gradientUnits="userSpaceOnUse">
<stop stop-color="#EE9D3F"/>
<stop offset="0.5" stop-color="#FED0B2"/>
<stop offset="1" stop-color="#EE9D3F"/>
</linearGradient>
<linearGradient id="paint2_linear_1041_5399" x1="11.5" y1="9.5" x2="21.5" y2="4.5" gradientUnits="userSpaceOnUse">
<stop stop-color="#EE9D3F"/>
<stop offset="0.5" stop-color="#FED0B2"/>
<stop offset="1" stop-color="#EE9D3F"/>
</linearGradient>
<linearGradient id="paint3_linear_1041_5399" x1="11.5" y1="9.5" x2="21.5" y2="4.5" gradientUnits="userSpaceOnUse">
<stop stop-color="#EE9D3F"/>
<stop offset="0.5" stop-color="#FED0B2"/>
<stop offset="1" stop-color="#EE9D3F"/>
</linearGradient>
<linearGradient id="paint4_linear_1041_5399" x1="11.5" y1="9.5" x2="21.5" y2="4.5" gradientUnits="userSpaceOnUse">
<stop stop-color="#EE9D3F"/>
<stop offset="0.5" stop-color="#FED0B2"/>
<stop offset="1" stop-color="#EE9D3F"/>
</linearGradient>
<linearGradient id="paint5_linear_1041_5399" x1="11.5" y1="9.5" x2="21.5" y2="4.5" gradientUnits="userSpaceOnUse">
<stop stop-color="#EE9D3F"/>
<stop offset="0.5" stop-color="#FED0B2"/>
<stop offset="1" stop-color="#EE9D3F"/>
</linearGradient>
</defs>
</svg>
