<svg width="32" height="32" viewBox="0 0 32 32" fill="none" xmlns="http://www.w3.org/2000/svg">
<path d="M20.2864 30.3845C19.4365 29.7519 18.7472 28.9284 18.2741 27.9804C17.8009 27.0324 17.5571 25.9866 17.5624 24.9271C17.5589 23.5269 17.9886 22.1598 18.7926 21.0135C19.5716 19.896 20.6699 19.0398 21.9437 18.5572V13.7175H23.2979V4.49748C23.2977 4.29091 23.2155 4.09288 23.0694 3.94682C22.9233 3.80075 22.7253 3.71857 22.5188 3.71829H13.5123C13.3057 3.71857 13.1077 3.80075 12.9616 3.94682C12.8156 4.09288 12.7334 4.29091 12.7331 4.49748V5.9673C14.9967 6.71627 16.5217 8.11422 16.5217 9.71217V13.0716L1.35059 13.1227V9.71426C1.35059 7.32775 4.75274 5.38812 8.93617 5.38812C9.50277 5.38616 10.0689 5.42096 10.631 5.49229V4.49539C10.6321 3.73166 10.936 2.99953 11.4762 2.45958C12.0163 1.91964 12.7486 1.61595 13.5123 1.61512H22.5146C22.8934 1.61411 23.2686 1.68826 23.6185 1.83327C23.9684 1.97829 24.2861 2.19129 24.5532 2.45993C24.821 2.72674 25.0332 3.04403 25.1775 3.39342C25.3218 3.74282 25.3953 4.11737 25.3938 4.49539V13.7154H26.723V18.5551C27.9961 19.0384 29.094 19.8945 29.8731 21.0114C30.6774 22.1576 31.1075 23.5247 31.1044 24.925C31.1095 25.9845 30.8657 27.0303 30.3926 27.9783C29.9194 28.9262 29.2301 29.7497 28.3803 30.3824L20.2864 30.3845Z" fill="url(#paint0_linear_1041_6938)"/>
<mask id="mask0_1041_6938" style="mask-type:alpha" maskUnits="userSpaceOnUse" x="1" y="1" width="31" height="30">
<path d="M20.2864 30.3845C19.4365 29.7519 18.7472 28.9284 18.2741 27.9804C17.8009 27.0324 17.5571 25.9866 17.5624 24.9271C17.5589 23.5269 17.9886 22.1598 18.7926 21.0135C19.5716 19.896 20.6699 19.0398 21.9437 18.5572V13.7175H23.2979V4.49748C23.2977 4.29091 23.2155 4.09288 23.0694 3.94682C22.9233 3.80075 22.7253 3.71857 22.5188 3.71829H13.5123C13.3057 3.71857 13.1077 3.80075 12.9616 3.94682C12.8156 4.09288 12.7334 4.29091 12.7331 4.49748V5.9673C14.9967 6.71627 16.5217 8.11422 16.5217 9.71217V13.0716L1.35059 13.1227V9.71426C1.35059 7.32775 4.75274 5.38812 8.93617 5.38812C9.50277 5.38616 10.0689 5.42096 10.631 5.49229V4.49539C10.6321 3.73166 10.936 2.99953 11.4762 2.45958C12.0163 1.91964 12.7486 1.61595 13.5123 1.61512H22.5146C22.8934 1.61411 23.2686 1.68826 23.6185 1.83327C23.9684 1.97829 24.2861 2.19129 24.5532 2.45993C24.821 2.72674 25.0332 3.04403 25.1775 3.39342C25.3218 3.74282 25.3953 4.11737 25.3938 4.49539V13.7154H26.723V18.5551C27.9961 19.0384 29.094 19.8945 29.8731 21.0114C30.6774 22.1576 31.1075 23.5247 31.1044 24.925C31.1095 25.9845 30.8657 27.0303 30.3926 27.9783C29.9194 28.9262 29.2301 29.7497 28.3803 30.3824L20.2864 30.3845Z" fill="url(#paint1_linear_1041_6938)" fill-opacity="0.8"/>
</mask>
<g mask="url(#mask0_1041_6938)">
<ellipse cx="32.4044" cy="26.3737" rx="11.712" ry="7.75386" fill="url(#paint2_linear_1041_6938)" fill-opacity="0.8"/>
</g>
<path d="M16.5207 27.0592H1.35059V14.9662L16.5186 14.9665V27.0571L16.5207 27.0592Z" fill="url(#paint3_linear_1041_6938)"/>
<path d="M0.895508 29.1044C0.895508 28.4878 1.05905 27.8253 1.41635 27.8253L17.0417 27.8107C17.399 27.8107 17.5625 28.4742 17.5625 29.0909C17.5625 29.7076 17.399 30.3711 17.0417 30.3711L1.41635 30.3847C1.05905 30.3847 0.895508 29.7222 0.895508 29.1044Z" fill="url(#paint4_linear_1041_6938)"/>
<path d="M7.89648 22.996C7.89648 23.2723 8.00623 23.5373 8.20159 23.7326C8.39694 23.928 8.6619 24.0377 8.93817 24.0377C9.21445 24.0377 9.4794 23.928 9.67476 23.7326C9.87011 23.5373 9.97986 23.2723 9.97986 22.996C9.97986 22.7198 9.87011 22.4548 9.67476 22.2595C9.4794 22.0641 9.21445 21.9544 8.93817 21.9544C8.80138 21.9545 8.66595 21.9816 8.53962 22.034C8.41328 22.0865 8.29853 22.1634 8.20189 22.2602C8.10526 22.357 8.02864 22.4719 7.97642 22.5984C7.9242 22.7248 7.89739 22.8603 7.89753 22.9971L7.89648 22.996ZM7.89648 18.8293C7.89648 19.1056 8.00623 19.3705 8.20159 19.5659C8.39694 19.7612 8.6619 19.871 8.93817 19.871C9.21445 19.871 9.4794 19.7612 9.67476 19.5659C9.87011 19.3705 9.97986 19.1056 9.97986 18.8293C9.97986 18.553 9.87011 18.2881 9.67476 18.0927C9.4794 17.8973 9.21445 17.7876 8.93817 17.7876C8.80138 17.7877 8.66595 17.8148 8.53962 17.8673C8.41328 17.9198 8.29853 17.9966 8.20189 18.0934C8.10526 18.1903 8.02864 18.3052 7.97642 18.4316C7.9242 18.558 7.89739 18.6935 7.89753 18.8303L7.89648 18.8293Z" fill="#FEFAF0"/>
<defs>
<linearGradient id="paint0_linear_1041_6938" x1="1.35059" y1="4.18458" x2="34.1323" y2="22.3513" gradientUnits="userSpaceOnUse">
<stop stop-color="#FCC330"/>
<stop offset="1" stop-color="#FF8F0B"/>
</linearGradient>
<linearGradient id="paint1_linear_1041_6938" x1="-2.53187" y1="26.1427" x2="34.7984" y2="18.5943" gradientUnits="userSpaceOnUse">
<stop stop-color="#FFEFB3"/>
<stop offset="1" stop-color="#FFD25E"/>
</linearGradient>
<linearGradient id="paint2_linear_1041_6938" x1="17.6359" y1="31.8411" x2="45.7722" y2="23.5319" gradientUnits="userSpaceOnUse">
<stop stop-color="#FFEFB3"/>
<stop offset="1" stop-color="#FFD25E"/>
</linearGradient>
<linearGradient id="paint3_linear_1041_6938" x1="9.22893" y1="27.5126" x2="7.00358" y2="16.5969" gradientUnits="userSpaceOnUse">
<stop stop-color="#FFD776"/>
<stop offset="0.376403" stop-color="#FFBF1B"/>
</linearGradient>
<linearGradient id="paint4_linear_1041_6938" x1="7.17584" y1="27.8107" x2="6.77794" y2="32.4569" gradientUnits="userSpaceOnUse">
<stop stop-color="#FCC330"/>
<stop offset="1" stop-color="#FF8F0B"/>
</linearGradient>
</defs>
</svg>
