<svg width="32" height="32" viewBox="0 0 32 32" fill="none" xmlns="http://www.w3.org/2000/svg">
<path d="M6.13307 11.84C8.21307 11.84 9.91974 10.1333 9.91974 8.05333C9.91974 5.97333 8.21307 4.26666 6.13307 4.26666C4.05307 4.26666 2.34641 5.97333 2.34641 8.05333C2.34641 10.1333 4.05307 11.84 6.13307 11.84ZM8.26641 22.9333V16.4267C8.26641 15.1467 8.69307 13.9733 9.43974 13.0133C8.85307 12.64 8.15974 12.3733 7.35974 12.3733H4.85307C2.77307 12.3733 1.06641 14.08 1.06641 16.16V20.2667C1.06641 20.8533 1.49307 21.3867 2.07974 21.4933L2.71974 21.6L2.98641 25.6533C3.03974 26.2933 3.57307 26.8267 4.26641 26.8267H7.99974C8.69307 26.8267 9.22641 26.2933 9.27974 25.6533L9.33307 24.48C8.74641 24.2667 8.26641 23.6267 8.26641 22.9333Z" fill="url(#paint0_linear_1041_5195)"/>
<path d="M17.6535 12.0001H14.2935C11.6802 12.0001 9.54688 14.1334 9.54688 16.8001V22.2401C9.54688 22.9334 10.0269 23.5201 10.6669 23.6267L11.6802 23.8401L12.0535 29.4401C12.1069 30.1867 12.7469 30.7734 13.4935 30.7734H18.5069C19.2535 30.7734 19.8935 30.1867 19.9469 29.4401L20.2669 23.8401L21.2802 23.6267C21.9202 23.5201 22.4535 22.8801 22.4535 22.2401V16.8001C22.4535 14.1867 20.3202 12.0001 17.6535 12.0001ZM16.0002 10.7734C18.6135 10.7734 20.8002 8.64007 20.8002 5.9734C20.8002 3.36007 18.6669 1.22673 16.0002 1.1734C13.3869 1.1734 11.2535 3.30673 11.2002 5.9734C11.2535 8.64007 13.3869 10.7734 16.0002 10.7734Z" fill="url(#paint1_linear_1041_5195)"/>
<path d="M17.6535 12.0001H14.2935C11.6802 12.0001 9.54688 14.1334 9.54688 16.8001V22.2401C9.54688 22.9334 10.0269 23.5201 10.6669 23.6267L11.6802 23.8401L12.0535 29.4401C12.1069 30.1867 12.7469 30.7734 13.4935 30.7734H18.5069C19.2535 30.7734 19.8935 30.1867 19.9469 29.4401L20.2669 23.8401L21.2802 23.6267C21.9202 23.5201 22.4535 22.8801 22.4535 22.2401V16.8001C22.4535 14.1867 20.3202 12.0001 17.6535 12.0001ZM16.0002 10.7734C18.6135 10.7734 20.8002 8.64007 20.8002 5.9734C20.8002 3.36007 18.6669 1.22673 16.0002 1.1734C13.3869 1.1734 11.2535 3.30673 11.2002 5.9734C11.2535 8.64007 13.3869 10.7734 16.0002 10.7734Z" fill="url(#paint2_linear_1041_5195)"/>
<mask id="mask0_1041_5195" style="mask-type:alpha" maskUnits="userSpaceOnUse" x="9" y="1" width="14" height="30">
<path d="M17.6535 12.0001H14.2935C11.6802 12.0001 9.54688 14.1334 9.54688 16.8001V22.2401C9.54688 22.9334 10.0269 23.5201 10.6669 23.6267L11.6802 23.8401L12.0535 29.4401C12.1069 30.1867 12.7469 30.7734 13.4935 30.7734H18.5069C19.2535 30.7734 19.8935 30.1867 19.9469 29.4401L20.2669 23.8401L21.2802 23.6267C21.9202 23.5201 22.4535 22.8801 22.4535 22.2401V16.8001C22.4535 14.1867 20.3202 12.0001 17.6535 12.0001ZM16.0002 10.7734C18.6135 10.7734 20.8002 8.64007 20.8002 5.9734C20.8002 3.36007 18.6669 1.22673 16.0002 1.1734C13.3869 1.1734 11.2535 3.30673 11.2002 5.9734C11.2535 8.64007 13.3869 10.7734 16.0002 10.7734Z" fill="url(#paint3_linear_1041_5195)"/>
</mask>
<g mask="url(#mask0_1041_5195)">
<ellipse cx="19.4859" cy="23.2582" rx="10.3521" ry="6.98162" transform="rotate(-56.9166 19.4859 23.2582)" fill="url(#paint4_linear_1041_5195)"/>
</g>
<path d="M25.8667 11.8401C27.9467 11.8401 29.6534 10.1334 29.6534 8.05339C29.6534 5.97339 27.9467 4.26672 25.8667 4.26672C23.7867 4.26672 22.0801 5.97339 22.0801 8.05339C22.0801 10.1334 23.7867 11.8401 25.8667 11.8401ZM27.1467 12.3734H24.6401C23.8934 12.3734 23.1467 12.5867 22.5601 13.0134C23.3067 13.9734 23.7334 15.1467 23.7334 16.4267V22.9334C23.7334 23.6267 23.3067 24.2667 22.6667 24.5334L22.7201 25.7067C22.7734 26.3467 23.3067 26.8801 24.0001 26.8801H27.7867C28.4801 26.8801 29.0134 26.3467 29.0667 25.7067L29.3334 21.6534L29.9734 21.5467C30.5601 21.4401 30.9867 20.9067 30.9867 20.3201V16.2134C30.9334 14.0801 29.2267 12.3734 27.1467 12.3734Z" fill="url(#paint5_linear_1041_5195)"/>
<defs>
<linearGradient id="paint0_linear_1041_5195" x1="9.40985" y1="25.9613" x2="-5.10011" y2="19.8515" gradientUnits="userSpaceOnUse">
<stop offset="0.505078" stop-color="#2573FD"/>
<stop offset="1" stop-color="#A1C3FF"/>
</linearGradient>
<linearGradient id="paint1_linear_1041_5195" x1="21.7102" y1="29.6379" x2="1.27883" y2="20.0791" gradientUnits="userSpaceOnUse">
<stop offset="0.505078" stop-color="#2573FD"/>
<stop offset="1" stop-color="#A1C3FF"/>
</linearGradient>
<linearGradient id="paint2_linear_1041_5195" x1="21.7102" y1="29.6379" x2="1.27883" y2="20.0791" gradientUnits="userSpaceOnUse">
<stop offset="0.505078" stop-color="#2573FD"/>
<stop offset="1" stop-color="#A1C3FF"/>
</linearGradient>
<linearGradient id="paint3_linear_1041_5195" x1="23.0317" y1="25.1731" x2="9.75599" y2="28.0416" gradientUnits="userSpaceOnUse">
<stop stop-color="#87C1FF"/>
<stop offset="1" stop-color="#6CA1FD" stop-opacity="0.2"/>
</linearGradient>
<linearGradient id="paint4_linear_1041_5195" x1="30.7653" y1="27.598" x2="16.2901" y2="38.234" gradientUnits="userSpaceOnUse">
<stop stop-color="#87C1FF"/>
<stop offset="1" stop-color="#6CA1FD" stop-opacity="0.2"/>
</linearGradient>
<linearGradient id="paint5_linear_1041_5195" x1="30.4738" y1="26.0126" x2="15.8925" y2="19.8504" gradientUnits="userSpaceOnUse">
<stop offset="0.505078" stop-color="#2573FD"/>
<stop offset="1" stop-color="#A1C3FF"/>
</linearGradient>
</defs>
</svg>
