<svg width="32" height="32" viewBox="0 0 32 32" fill="none" xmlns="http://www.w3.org/2000/svg">
<path d="M3.09961 2.98682C3.09961 1.88225 3.99504 0.986816 5.09961 0.986816L19.9032 0.986816V8.60134C19.9032 9.42977 20.5748 10.1013 21.4032 10.1013H28.9008V29.0132C28.9008 30.1177 28.0054 31.0132 26.9008 31.0132H5.09961C3.99504 31.0132 3.09961 30.1177 3.09961 29.0132V2.98682Z" fill="url(#paint0_linear_1041_7059)"/>
<mask id="mask0_1041_7059" style="mask-type:alpha" maskUnits="userSpaceOnUse" x="3" y="0" width="26" height="32">
<path d="M3.09961 2.98682C3.09961 1.88225 3.99504 0.986816 5.09961 0.986816L19.9032 0.986816V8.60134C19.9032 9.42977 20.5748 10.1013 21.4032 10.1013H28.9008V29.0132C28.9008 30.1177 28.0054 31.0132 26.9008 31.0132H5.09961C3.99504 31.0132 3.09961 30.1177 3.09961 29.0132V2.98682Z" fill="url(#paint1_linear_1041_7059)"/>
</mask>
<g mask="url(#mask0_1041_7059)">
<path d="M24.3428 18.2225C29.7107 18.2226 34.0623 21.8058 34.0625 26.2264C34.0625 30.6472 29.7108 34.2312 24.3428 34.2313C22.8583 34.2313 21.4519 33.9557 20.1934 33.4657C19.4828 37.159 16.2356 39.9491 12.335 39.9491C7.91436 39.9489 4.33122 36.3658 4.33105 31.9452C4.33105 27.5244 7.91426 23.9405 12.335 23.9403C13.2287 23.9403 14.088 24.088 14.8906 24.3583C15.9128 20.839 19.7561 18.2225 24.3428 18.2225Z" fill="url(#paint2_linear_1041_7059)"/>
</g>
<path d="M22.8511 19.2283C23.3609 19.2283 23.7741 19.6416 23.7742 20.1514C23.7742 20.6612 23.3609 21.0745 22.8511 21.0745H8.94847C8.43867 21.0745 8.02539 20.6612 8.02539 20.1514C8.02543 19.6416 8.43869 19.2283 8.94847 19.2283H22.8511ZM17.1696 11.8185C17.6792 11.8187 18.0927 12.2319 18.0927 12.7416C18.0927 13.2512 17.6792 13.6644 17.1696 13.6646H8.94847C8.43867 13.6646 8.02539 13.2514 8.02539 12.7416C8.02543 12.2318 8.43869 11.8185 8.94847 11.8185H17.1696Z" fill="#E8F2FE"/>
<path d="M21.6523 0.986816C21.6909 1.01982 21.729 1.05403 21.7653 1.09041L28.7972 8.12225C28.8335 8.15862 28.8678 8.19669 28.9008 8.23524C28.3276 8.23524 25.2059 8.23524 23.2507 8.23524C22.6918 8.23524 22.4123 8.23524 22.1984 8.12624C22.0102 8.03037 21.8572 7.87739 21.7613 7.68923C21.6523 7.47531 21.6523 7.19529 21.6523 6.63523L21.6523 0.986816Z" fill="url(#paint3_linear_1041_7059)"/>
<defs>
<linearGradient id="paint0_linear_1041_7059" x1="27.4857" y1="29.8613" x2="0.714585" y2="6.35611" gradientUnits="userSpaceOnUse">
<stop offset="0.505078" stop-color="#2573FD"/>
<stop offset="1" stop-color="#A1C3FF"/>
</linearGradient>
<linearGradient id="paint1_linear_1041_7059" x1="27.4857" y1="29.8613" x2="0.714585" y2="6.35611" gradientUnits="userSpaceOnUse">
<stop offset="0.505078" stop-color="#2573FD"/>
<stop offset="1" stop-color="#A1C3FF"/>
</linearGradient>
<linearGradient id="paint2_linear_1041_7059" x1="35.3943" y1="35.8384" x2="7.75831" y2="35.9527" gradientUnits="userSpaceOnUse">
<stop stop-color="#87C1FF"/>
<stop offset="1" stop-color="#6CA1FD" stop-opacity="0.2"/>
</linearGradient>
<linearGradient id="paint3_linear_1041_7059" x1="28.4833" y1="7.95718" x2="21.9821" y2="0.981547" gradientUnits="userSpaceOnUse">
<stop offset="0.505078" stop-color="#2573FD"/>
<stop offset="1" stop-color="#A1C3FF"/>
</linearGradient>
</defs>
</svg>
