<svg width="32" height="32" viewBox="0 0 32 32" fill="none" xmlns="http://www.w3.org/2000/svg">
<path fill-rule="evenodd" clip-rule="evenodd" d="M11.8791 18.0604C13.017 18.0604 13.9394 18.9828 13.9394 20.1207V26.3018C13.9394 27.4397 13.017 28.3621 11.8791 28.3621H5.69804C4.56014 28.3621 3.6377 27.4397 3.6377 26.3018V20.1207C3.6377 18.9828 4.56014 18.0604 5.69804 18.0604H11.8791ZM26.3015 18.0604C27.4394 18.0604 28.3619 18.9828 28.3619 20.1207V26.3018C28.3619 27.4397 27.4394 28.3621 26.3015 28.3621H20.1205C18.9826 28.3621 18.0601 27.4397 18.0601 26.3018V20.1207C18.0601 18.9828 18.9826 18.0604 20.1205 18.0604H26.3015ZM11.8791 3.63794C13.017 3.63794 13.9394 4.56039 13.9394 5.69829V11.8793C13.9394 13.0172 13.017 13.9397 11.8791 13.9397H5.69804C4.56014 13.9397 3.6377 13.0172 3.6377 11.8793V5.69829C3.6377 4.56039 4.56014 3.63794 5.69804 3.63794H11.8791ZM26.3015 3.63794C27.4394 3.63794 28.3619 4.56039 28.3619 5.69829V11.8793C28.3619 13.0172 27.4394 13.9397 26.3015 13.9397H20.1205C18.9826 13.9397 18.0601 13.0172 18.0601 11.8793V5.69829C18.0601 4.56039 18.9826 3.63794 20.1205 3.63794H26.3015Z" fill="url(#paint0_linear_1041_7151)"/>
<path d="M28.04 19.0199C28.2423 19.3386 28.3623 19.7151 28.3623 20.1205V26.3021C28.3621 27.4398 27.4394 28.3616 26.3018 28.3617H20.1201C19.7618 28.3616 19.4253 28.2697 19.1318 28.1088C19.1729 25.445 20.361 22.8194 22.6064 21.0287C24.2178 19.7437 26.1272 19.0851 28.04 19.0199Z" fill="url(#paint1_linear_1041_7151)"/>
<defs>
<linearGradient id="paint0_linear_1041_7151" x1="23.3046" y1="16" x2="4.64234" y2="3.20301" gradientUnits="userSpaceOnUse">
<stop stop-color="#4F5DFC"/>
<stop offset="1" stop-color="#A5ACFE"/>
</linearGradient>
<linearGradient id="paint1_linear_1041_7151" x1="22.8504" y1="27.3463" x2="25.8966" y2="19.59" gradientUnits="userSpaceOnUse">
<stop stop-color="#8791FF"/>
<stop offset="1" stop-color="#6C78FD"/>
</linearGradient>
</defs>
</svg>
