<svg width="32" height="32" viewBox="0 0 32 32" fill="none" xmlns="http://www.w3.org/2000/svg">
<path d="M8.82058 11.2175V28.3962H3.60425C3.27867 28.3962 2.95627 28.3321 2.65548 28.2075C2.35468 28.0829 2.08137 27.9003 1.85115 27.6701C1.62093 27.4398 1.43832 27.1665 1.31372 26.8657C1.18913 26.5649 1.125 26.2425 1.125 25.917L1.125 11.2175H8.82058ZM10.8982 11.2175H28.3967V18.2338C26.9785 17.4145 25.3296 17.0862 23.7058 17.2999C22.082 17.5136 20.5742 18.2572 19.4162 19.4154C18.2583 20.5737 17.515 22.0817 17.3017 23.7056C17.0885 25.3294 17.4171 26.9783 18.2367 28.3962H10.9007V11.2175H10.8982ZM25.9175 1.12451C26.243 1.12451 26.5654 1.18864 26.8662 1.31323C27.167 1.43783 27.4403 1.62045 27.6705 1.85067C27.9008 2.08089 28.0834 2.35419 28.208 2.65499C28.3326 2.95579 28.3967 3.27818 28.3967 3.60376V9.13991H10.8982V1.12451H25.9175ZM8.82058 1.12451V9.13991H1.125V3.60376C1.125 2.94622 1.38621 2.31561 1.85115 1.85067C2.3161 1.38572 2.94671 1.12451 3.60425 1.12451H8.82058Z" fill="url(#paint0_linear_1041_6984)"/>
<ellipse cx="24.6796" cy="23.0518" rx="6.19621" ry="6.19621" fill="url(#paint1_linear_1041_6984)"/>
<path d="M26.7349 24.7409L24.8209 26.6251L25.1754 26.997L25.7779 26.4044L26.1324 26.7763L25.53 27.3664L25.8845 27.7358L26.487 27.1432L26.8415 27.5151L26.239 28.1052L26.3456 28.2168C26.5241 28.4027 26.8068 28.4746 27.02 28.2911L28.2249 27.1061C28.4009 26.8482 28.4728 26.4416 28.2968 26.2557L26.7349 24.7409ZM21.8433 25.7747L21.1343 27.9564C21.0996 28.1052 21.2062 28.2168 21.3475 28.1796L23.5094 27.4779L21.8433 25.7747ZM25.53 22.15L22.0913 25.5541L23.7573 27.2176L27.196 23.7789L25.53 22.15ZM22.2698 21.1534L21.0624 22.336C20.8863 22.5219 20.9582 22.7798 21.1343 22.9657L21.2756 23.0748L21.8433 22.4847L22.1979 22.8542L21.6301 23.4467L21.9846 23.8161L22.5524 23.1864L22.9069 23.5583L22.3392 24.1483L22.4458 24.4458L24.3251 22.5219L23.0482 21.079C22.835 20.8931 22.4458 20.9303 22.2698 21.1534ZM26.5241 21.1534L25.7804 21.8922L27.4439 23.5558L28.1877 22.817C28.2299 22.7761 28.2634 22.7271 28.2862 22.673C28.3091 22.619 28.3209 22.5608 28.3209 22.5021C28.3209 22.4434 28.3091 22.3853 28.2862 22.3312C28.2634 22.2771 28.2299 22.2281 28.1877 22.1872L27.1613 21.1534C27.1205 21.1098 27.0712 21.075 27.0164 21.0512C26.9616 21.0275 26.9025 21.0152 26.8427 21.0152C26.783 21.0152 26.7239 21.0275 26.6691 21.0512C26.6143 21.075 26.565 21.1098 26.5241 21.1534Z" fill="#E8F2FE"/>
<mask id="mask0_1041_6984" style="mask-type:alpha" maskUnits="userSpaceOnUse" x="1" y="1" width="28" height="28">
<path d="M8.82058 11.217V28.3957H3.60425C3.27867 28.3957 2.95627 28.3316 2.65548 28.207C2.35468 28.0824 2.08137 27.8998 1.85115 27.6696C1.62093 27.4393 1.43832 27.166 1.31372 26.8652C1.18913 26.5644 1.125 26.2421 1.125 25.9165L1.125 11.217H8.82058ZM10.8982 11.217H28.3967V18.2333C26.9785 17.414 25.3296 17.0857 23.7058 17.2994C22.082 17.5131 20.5742 18.2567 19.4162 19.4149C18.2583 20.5732 17.515 22.0812 17.3017 23.7051C17.0885 25.3289 17.4171 26.9778 18.2367 28.3957H10.9007V11.217H10.8982ZM25.9175 1.12402C26.243 1.12402 26.5654 1.18815 26.8662 1.31274C27.167 1.43734 27.4403 1.61996 27.6705 1.85018C27.9008 2.0804 28.0834 2.35371 28.208 2.6545C28.3326 2.9553 28.3967 3.27769 28.3967 3.60327V9.13942H10.8982V1.12402H25.9175ZM8.82058 1.12402V9.13942H1.125V3.60327C1.125 2.94573 1.38621 2.31513 1.85115 1.85018C2.3161 1.38523 2.94671 1.12402 3.60425 1.12402H8.82058Z" fill="url(#paint2_linear_1041_6984)"/>
</mask>
<g mask="url(#mask0_1041_6984)">
<ellipse cx="20.21" cy="4.80483" rx="11.4385" ry="11.1945" fill="url(#paint3_linear_1041_6984)"/>
</g>
<defs>
<linearGradient id="paint0_linear_1041_6984" x1="26.8261" y1="27.3501" x2="2.36552" y2="1.10468" gradientUnits="userSpaceOnUse">
<stop offset="0.505078" stop-color="#2573FD"/>
<stop offset="1" stop-color="#A1C3FF"/>
</linearGradient>
<linearGradient id="paint1_linear_1041_6984" x1="30.1621" y1="28.7726" x2="19.0471" y2="16.8466" gradientUnits="userSpaceOnUse">
<stop offset="0.505078" stop-color="#2573FD"/>
<stop offset="1" stop-color="#A1C3FF"/>
</linearGradient>
<linearGradient id="paint2_linear_1041_6984" x1="29.6928" y1="23.0958" x2="30.0303" y2="-3.19213" gradientUnits="userSpaceOnUse">
<stop stop-color="#87C1FF"/>
<stop offset="1" stop-color="#6CA1FD" stop-opacity="0.2"/>
</linearGradient>
<linearGradient id="paint3_linear_1041_6984" x1="32.7356" y1="11.6483" x2="33.0068" y2="-9.93318" gradientUnits="userSpaceOnUse">
<stop stop-color="#87C1FF"/>
<stop offset="1" stop-color="#6CA1FD" stop-opacity="0.2"/>
</linearGradient>
</defs>
</svg>
