<svg width="32" height="32" viewBox="0 0 32 32" fill="none" xmlns="http://www.w3.org/2000/svg">
<path d="M1.73047 3.62812C1.73047 3.3481 1.73047 3.20809 1.78497 3.10113C1.8329 3.00705 1.90939 2.93056 2.00347 2.88262C2.11043 2.82812 2.25044 2.82812 2.53047 2.82812H6.50735C6.75906 2.82812 6.88491 2.82812 6.98533 2.87492C7.0738 2.91615 7.14826 2.98237 7.19955 3.06541C7.25776 3.15968 7.27246 3.28467 7.30187 3.53465L9.33094 20.7818C9.36035 21.0317 9.37506 21.1567 9.43327 21.251C9.48455 21.334 9.55902 21.4003 9.64748 21.4415C9.7479 21.4883 9.87375 21.4883 10.1255 21.4883H21.8745C22.1262 21.4883 22.2521 21.4883 22.3525 21.4415C22.441 21.4003 22.5155 21.334 22.5667 21.251C22.6249 21.1567 22.6396 21.0317 22.6691 20.7818L24.6981 3.53465C24.7275 3.28467 24.7422 3.15968 24.8005 3.06541C24.8517 2.98237 24.9262 2.91615 25.0147 2.87492C25.1151 2.82812 25.2409 2.82812 25.4927 2.82812H29.4695C29.7496 2.82812 29.8896 2.82812 29.9965 2.88262C30.0906 2.93056 30.1671 3.00705 30.215 3.10113C30.2695 3.20809 30.2695 3.3481 30.2695 3.62812V28.3719C30.2695 28.6519 30.2695 28.7919 30.215 28.8989C30.1671 28.993 30.0906 29.0694 29.9965 29.1174C29.8896 29.1719 29.7496 29.1719 29.4695 29.1719H2.53047C2.25044 29.1719 2.11043 29.1719 2.00347 29.1174C1.90939 29.0694 1.8329 28.993 1.78497 28.8989C1.73047 28.7919 1.73047 28.6519 1.73047 28.3719V3.62812Z" fill="url(#paint0_linear_1041_6908)"/>
<path d="M9.55935 10.5117C9.45933 10.5117 9.40932 10.5117 9.36932 10.4932C9.33408 10.4769 9.30436 10.4506 9.28378 10.4177C9.26042 10.3803 9.25422 10.3307 9.24182 10.2314L8.9102 7.57844C8.89466 7.45413 8.88689 7.39198 8.90637 7.34379C8.92348 7.30147 8.95454 7.26628 8.99441 7.24406C9.03981 7.21875 9.10245 7.21875 9.22773 7.21875H22.7723C22.8976 7.21875 22.9602 7.21875 23.0056 7.24406C23.0455 7.26628 23.0765 7.30147 23.0936 7.34379C23.1131 7.39198 23.1053 7.45413 23.0898 7.57844L22.7582 10.2314C22.7458 10.3307 22.7396 10.3803 22.7162 10.4177C22.6956 10.4506 22.6659 10.4769 22.6307 10.4932C22.5907 10.5117 22.5407 10.5117 22.4407 10.5117H9.55935Z" fill="url(#paint1_linear_1041_6908)"/>
<path d="M10.1082 14.9023C10.0082 14.9023 9.95815 14.9023 9.91815 14.8838C9.88291 14.8675 9.85318 14.8412 9.83261 14.8083C9.80925 14.7709 9.80305 14.7213 9.79065 14.622L9.45902 11.9691C9.44349 11.8448 9.43572 11.7826 9.4552 11.7344C9.47231 11.6921 9.50337 11.6569 9.54324 11.6347C9.58864 11.6094 9.65128 11.6094 9.77655 11.6094H22.2234C22.3487 11.6094 22.4114 11.6094 22.4568 11.6347C22.4966 11.6569 22.5277 11.6921 22.5448 11.7344C22.5643 11.7826 22.5565 11.8448 22.541 11.9691L22.2094 14.622C22.197 14.7213 22.1907 14.7709 22.1674 14.8083C22.1468 14.8412 22.1171 14.8675 22.0818 14.8838C22.0418 14.9023 21.9918 14.9023 21.8918 14.9023H10.1082Z" fill="url(#paint2_linear_1041_6908)"/>
<path d="M10.3254 16C10.2001 16 10.1375 16 10.0921 16.0253C10.0522 16.0475 10.0211 16.0827 10.004 16.125C9.98454 16.1732 9.99231 16.2354 10.0079 16.3597L10.3395 19.0127C10.3519 19.1119 10.3581 19.1615 10.3814 19.1989C10.402 19.2319 10.4317 19.2581 10.467 19.2744C10.507 19.293 10.557 19.293 10.657 19.293H21.343C21.443 19.293 21.493 19.293 21.533 19.2744C21.5683 19.2581 21.598 19.2319 21.6186 19.1989C21.6419 19.1615 21.6481 19.1119 21.6605 19.0127L21.9921 16.3597C22.0077 16.2354 22.0155 16.1732 21.996 16.125C21.9789 16.0827 21.9478 16.0475 21.9079 16.0253C21.8625 16 21.7999 16 21.6746 16H10.3254Z" fill="url(#paint3_linear_1041_6908)"/>
<mask id="mask0_1041_6908" style="mask-type:alpha" maskUnits="userSpaceOnUse" x="1" y="2" width="30" height="28">
<path d="M1.73047 2.82812H7.21875L9.41406 21.4883H22.5859L24.7813 2.82812H30.2695V29.1719H1.73047V2.82812Z" fill="url(#paint4_linear_1041_6908)"/>
</mask>
<g mask="url(#mask0_1041_6908)">
<ellipse cx="25.2168" cy="15.3257" rx="16.4632" ry="11.103" transform="rotate(-99.8191 25.2168 15.3257)" fill="url(#paint5_linear_1041_6908)"/>
</g>
<defs>
<linearGradient id="paint0_linear_1041_6908" x1="28.6259" y1="28.1613" x2="5.20468" y2="0.936917" gradientUnits="userSpaceOnUse">
<stop offset="0.505078" stop-color="#2573FD"/>
<stop offset="1" stop-color="#A1C3FF"/>
</linearGradient>
<linearGradient id="paint1_linear_1041_6908" x1="22.3129" y1="18.8298" x2="11.7556" y2="5.44249" gradientUnits="userSpaceOnUse">
<stop stop-color="#A1C3FF"/>
<stop offset="0.494922" stop-color="#2573FD"/>
</linearGradient>
<linearGradient id="paint2_linear_1041_6908" x1="22.3129" y1="18.8298" x2="11.7556" y2="5.44249" gradientUnits="userSpaceOnUse">
<stop stop-color="#A1C3FF"/>
<stop offset="0.494922" stop-color="#2573FD"/>
</linearGradient>
<linearGradient id="paint3_linear_1041_6908" x1="22.3129" y1="18.8298" x2="11.7556" y2="5.44249" gradientUnits="userSpaceOnUse">
<stop stop-color="#A1C3FF"/>
<stop offset="0.494922" stop-color="#2573FD"/>
</linearGradient>
<linearGradient id="paint4_linear_1041_6908" x1="31.5479" y1="24.1876" x2="5.02011" y2="24.2745" gradientUnits="userSpaceOnUse">
<stop stop-color="#6CA1FD" stop-opacity="0.2"/>
<stop offset="1" stop-color="#87C1FF"/>
</linearGradient>
<linearGradient id="paint5_linear_1041_6908" x1="43.1548" y1="22.2273" x2="12.5493" y2="22.3645" gradientUnits="userSpaceOnUse">
<stop stop-color="#6CA1FD" stop-opacity="0.2"/>
<stop offset="1" stop-color="#87C1FF"/>
</linearGradient>
</defs>
</svg>
