<svg width="32" height="32" viewBox="0 0 32 32" fill="none" xmlns="http://www.w3.org/2000/svg">
<path d="M8.16451 1.44812C6.38325 1.44812 4.67494 2.15572 3.41539 3.41527C2.15585 4.67481 1.44825 6.38312 1.44825 8.16438C1.44825 9.94565 2.15585 11.654 3.41539 12.9135C4.67494 14.173 6.38325 14.8806 8.16451 14.8806H13.7614C14.0583 14.8806 14.343 14.7627 14.5529 14.5528C14.7628 14.3429 14.8808 14.0581 14.8808 13.7613V8.16438C14.8808 6.38312 14.1732 4.67481 12.9136 3.41527C11.6541 2.15572 9.94577 1.44812 8.16451 1.44812ZM13.7614 17.1194H8.16451C6.83616 17.1194 5.53764 17.5133 4.43315 18.2513C3.32867 18.9893 2.46783 20.0382 1.95949 21.2655C1.45115 22.4927 1.31815 23.8431 1.5773 25.1459C1.83644 26.4488 2.47611 27.6455 3.41539 28.5848C4.35468 29.5241 5.5514 30.1637 6.85423 30.4229C8.15706 30.682 9.50748 30.549 10.7347 30.0407C11.962 29.5323 13.0109 28.6715 13.7489 27.567C14.4869 26.4625 14.8808 25.164 14.8808 23.8357V18.2388C14.8808 17.9419 14.7628 17.6572 14.5529 17.4473C14.343 17.2373 14.0583 17.1194 13.7614 17.1194ZM23.8358 1.44812C22.0545 1.44812 20.3462 2.15572 19.0867 3.41527C17.8271 4.67481 17.1195 6.38312 17.1195 8.16438V13.7613C17.1195 14.0581 17.2375 14.3429 17.4474 14.5528C17.6573 14.7627 17.942 14.8806 18.2389 14.8806H23.8358C25.6171 14.8806 27.3254 14.173 28.5849 12.9135C29.8445 11.654 30.5521 9.94565 30.5521 8.16438C30.5521 6.38312 29.8445 4.67481 28.5849 3.41527C27.3254 2.15572 25.6171 1.44812 23.8358 1.44812Z" fill="url(#paint0_linear_1041_5124)"/>
<mask id="mask0_1041_5124" style="mask-type:alpha" maskUnits="userSpaceOnUse" x="1" y="1" width="30" height="30">
<path d="M8.16451 1.44812C6.38325 1.44812 4.67494 2.15572 3.41539 3.41527C2.15585 4.67481 1.44825 6.38312 1.44825 8.16439C1.44825 9.94565 2.15585 11.654 3.41539 12.9135C4.67494 14.173 6.38325 14.8807 8.16451 14.8807H13.7614C14.0583 14.8807 14.343 14.7627 14.5529 14.5528C14.7628 14.3429 14.8808 14.0582 14.8808 13.7613V8.16439C14.8808 6.38312 14.1732 4.67481 12.9136 3.41527C11.6541 2.15572 9.94578 1.44812 8.16451 1.44812ZM13.7614 17.1194H8.16451C6.83616 17.1194 5.53764 17.5133 4.43315 18.2513C3.32867 18.9893 2.46783 20.0382 1.95949 21.2655C1.45115 22.4927 1.31815 23.8431 1.5773 25.146C1.83644 26.4488 2.47611 27.6455 3.41539 28.5848C4.35468 29.5241 5.5514 30.1637 6.85423 30.4229C8.15706 30.682 9.50748 30.549 10.7347 30.0407C11.962 29.5324 13.0109 28.6715 13.7489 27.567C14.4869 26.4625 14.8808 25.164 14.8808 23.8357V18.2388C14.8808 17.9419 14.7628 17.6572 14.5529 17.4473C14.343 17.2373 14.0583 17.1194 13.7614 17.1194ZM23.8358 1.44812C22.0545 1.44812 20.3462 2.15572 19.0867 3.41527C17.8271 4.67481 17.1195 6.38312 17.1195 8.16439V13.7613C17.1195 14.0582 17.2375 14.3429 17.4474 14.5528C17.6573 14.7627 17.942 14.8807 18.2389 14.8807H23.8358C25.6171 14.8807 27.3254 14.173 28.5849 12.9135C29.8445 11.654 30.5521 9.94565 30.5521 8.16439C30.5521 6.38312 29.8445 4.67481 28.5849 3.41527C27.3254 2.15572 25.6171 1.44812 23.8358 1.44812Z" fill="url(#paint1_linear_1041_5124)"/>
</mask>
<g mask="url(#mask0_1041_5124)">
<ellipse cx="31.1549" cy="13.9335" rx="13.777" ry="8.95502" fill="url(#paint2_linear_1041_5124)"/>
</g>
<path d="M23.8825 17.2126H18.3245C18.0297 17.2126 17.7469 17.3298 17.5385 17.5382C17.33 17.7467 17.2129 18.0294 17.2129 18.3243V23.8823C17.2129 25.2014 17.6041 26.4909 18.3369 27.5877C19.0698 28.6845 20.1114 29.5394 21.3302 30.0442C22.5489 30.549 23.8899 30.6811 25.1837 30.4237C26.4775 30.1664 27.6659 29.5312 28.5986 28.5984C29.5314 27.6656 30.1666 26.4772 30.424 25.1834C30.6813 23.8897 30.5492 22.5486 30.0444 21.3299C29.5396 20.1112 28.6848 19.0695 27.588 18.3367C26.4911 17.6038 25.2016 17.2126 23.8825 17.2126Z" fill="url(#paint3_linear_1041_5124)"/>
<mask id="mask1_1041_5124" style="mask-type:alpha" maskUnits="userSpaceOnUse" x="17" y="17" width="14" height="14">
<path d="M23.9377 17.3229H18.4257C18.1333 17.3229 17.8529 17.439 17.6461 17.6458C17.4394 17.8525 17.3232 18.1329 17.3232 18.4253V23.9374C17.3232 25.2456 17.7112 26.5244 18.438 27.6122C19.1648 28.6999 20.1978 29.5477 21.4065 30.0484C22.6151 30.549 23.9451 30.68 25.2282 30.4248C26.5113 30.1696 27.6898 29.5396 28.6149 28.6145C29.54 27.6895 30.1699 26.5109 30.4252 25.2278C30.6804 23.9447 30.5494 22.6148 30.0487 21.4061C29.5481 20.1975 28.7003 19.1644 27.6126 18.4376C26.5248 17.7108 25.246 17.3229 23.9377 17.3229Z" fill="url(#paint4_linear_1041_5124)"/>
</mask>
<g mask="url(#mask1_1041_5124)">
<ellipse cx="16.3895" cy="28.235" rx="13.777" ry="8.95502" transform="rotate(-128.057 16.3895 28.235)" fill="url(#paint5_linear_1041_5124)"/>
</g>
<defs>
<linearGradient id="paint0_linear_1041_5124" x1="23.5775" y1="23.5773" x2="2.48401" y2="1.66378" gradientUnits="userSpaceOnUse">
<stop stop-color="#A1C3FF"/>
<stop offset="0.551112" stop-color="#2573FD"/>
</linearGradient>
<linearGradient id="paint1_linear_1041_5124" x1="23.5775" y1="6.35616" x2="22.9912" y2="15.9219" gradientUnits="userSpaceOnUse">
<stop stop-color="#87C1FF"/>
<stop offset="0.630441" stop-color="#6CA1FD" stop-opacity="0.2"/>
</linearGradient>
<linearGradient id="paint2_linear_1041_5124" x1="38.3287" y1="7.99879" x2="38.0936" y2="13.8981" gradientUnits="userSpaceOnUse">
<stop stop-color="#87C1FF"/>
<stop offset="0.630441" stop-color="#6CA1FD" stop-opacity="0.2"/>
</linearGradient>
<linearGradient id="paint3_linear_1041_5124" x1="29.7839" y1="30.0402" x2="17.8197" y2="17.2029" gradientUnits="userSpaceOnUse">
<stop offset="0.505078" stop-color="#2573FD"/>
<stop offset="1" stop-color="#A1C3FF"/>
</linearGradient>
<linearGradient id="paint4_linear_1041_5124" x1="29.7904" y1="30.0444" x2="17.925" y2="17.3133" gradientUnits="userSpaceOnUse">
<stop offset="0.505078" stop-color="#2573FD"/>
<stop offset="1" stop-color="#A1C3FF"/>
</linearGradient>
<linearGradient id="paint5_linear_1041_5124" x1="28.9206" y1="29.7248" x2="12.4773" y2="30.7584" gradientUnits="userSpaceOnUse">
<stop offset="0.153348" stop-color="#87C1FF"/>
<stop offset="0.630441" stop-color="#6CA1FD" stop-opacity="0.2"/>
</linearGradient>
</defs>
</svg>
