<svg width="32" height="32" viewBox="0 0 32 32" fill="none" xmlns="http://www.w3.org/2000/svg">
<path d="M11.5212 3.00598C12.0571 3.00598 12.5157 3.19149 12.897 3.56249C13.2783 3.9335 13.469 4.38696 13.469 4.92286V12.6522C13.469 13.1881 13.2783 13.6467 12.897 14.028C12.5157 14.4093 12.0571 14.6 11.5212 14.6H3.79188C3.25597 14.6 2.80252 14.4093 2.43151 14.028C2.0605 13.6467 1.875 13.1881 1.875 12.6522V4.92286C1.875 4.38696 2.0605 3.9335 2.43151 3.56249C2.80252 3.19149 3.25597 3.00598 3.79188 3.00598H11.5212ZM11.5212 18.4647C12.0571 18.4647 12.5157 18.6502 12.897 19.0212C13.2783 19.3922 13.469 19.8456 13.469 20.3815V28.1418C13.469 28.6777 13.2783 29.1311 12.897 29.5022C12.5157 29.8732 12.0571 30.0587 11.5212 30.0587H3.79188C3.25597 30.0587 2.80252 29.8732 2.43151 29.5022C2.0605 29.1311 1.875 28.6777 1.875 28.1418V20.3815C1.875 19.8456 2.0605 19.3922 2.43151 19.0212C2.80252 18.6502 3.25597 18.4647 3.79188 18.4647H11.5212ZM27.0108 18.4647C27.5467 18.4647 28.0002 18.6502 28.3712 19.0212C28.7422 19.3922 28.9277 19.8456 28.9277 20.3815V28.1418C28.9277 28.6777 28.7422 29.1311 28.3712 29.5022C28.0002 29.8732 27.5467 30.0587 27.0108 30.0587H19.2815C18.7456 30.0587 18.287 29.8732 17.9056 29.5022C17.5243 29.1311 17.3337 28.6777 17.3337 28.1418V20.3815C17.3337 19.8456 17.5243 19.3922 17.9056 19.0212C18.287 18.6502 18.7456 18.4647 19.2815 18.4647H27.0108Z" fill="url(#paint0_linear_1041_7215)"/>
<path d="M1.90918 19.9944C8.13944 20.0068 13.1843 23.4167 13.1846 27.6213C13.1846 28.2999 13.0503 28.957 12.8037 29.5833C12.4411 29.8985 12.0145 30.0588 11.5205 30.0588H3.79102C3.2553 30.0587 2.80158 29.8731 2.43066 29.5022C2.05978 29.1312 1.87503 28.6776 1.875 28.1418V20.3811C1.87502 20.2471 1.88594 20.1181 1.90918 19.9944Z" fill="url(#paint1_linear_1041_7215)"/>
<path d="M29.5875 7.44909C29.9457 7.80732 30.1248 8.22823 30.1248 8.71183C30.1248 9.19544 29.9457 9.60739 29.5875 9.94771L24.5903 14.9449C24.2321 15.3031 23.8156 15.4823 23.341 15.4823C22.8663 15.4823 22.4499 15.3031 22.0917 14.9449L17.0945 9.94771C16.7541 9.60739 16.584 9.19544 16.584 8.71183C16.584 8.22823 16.7541 7.80732 17.0945 7.44909L22.0917 2.45187C22.4499 2.11156 22.8663 1.94141 23.341 1.94141C23.8156 1.94141 24.2321 2.11156 24.5903 2.45187L29.5875 7.44909Z" fill="url(#paint2_linear_1041_7215)"/>
<defs>
<linearGradient id="paint0_linear_1041_7215" x1="30.1959" y1="28.9083" x2="3.30138" y2="-0.00822412" gradientUnits="userSpaceOnUse">
<stop offset="0.505078" stop-color="#2573FD"/>
<stop offset="1" stop-color="#A1C3FF"/>
</linearGradient>
<linearGradient id="paint1_linear_1041_7215" x1="13.6899" y1="28.1544" x2="3.1785" y2="28.1901" gradientUnits="userSpaceOnUse">
<stop stop-color="#87C1FF"/>
<stop offset="1" stop-color="#6CA1FD" stop-opacity="0.2"/>
</linearGradient>
<linearGradient id="paint2_linear_1041_7215" x1="26.0649" y1="2.46084" x2="19.3104" y2="14.6436" gradientUnits="userSpaceOnUse">
<stop offset="0.505078" stop-color="#2573FD"/>
<stop offset="1" stop-color="#A1C3FF"/>
</linearGradient>
</defs>
</svg>
