<svg width="32" height="32" viewBox="0 0 32 32" fill="none" xmlns="http://www.w3.org/2000/svg">
<path d="M28.0805 4.57167H18.9265C17.9101 4.57167 16.9776 4.01484 16.4945 3.11923L16.3906 2.92467C16.149 2.47854 15.6828 2.19678 15.1763 2.19678H4.95889C3.436 2.19678 2.19824 3.11923 2.19824 4.24965V28.0791C2.19824 29.0317 2.96975 29.8032 3.92239 29.8032H28.0772C29.0298 29.8032 29.8013 29.0317 29.8013 28.0791V6.29917C29.8047 5.34653 29.0332 4.57167 28.0805 4.57167Z" fill="url(#paint0_linear_1041_6268)"/>
<mask id="mask0_1041_6268" style="mask-type:alpha" maskUnits="userSpaceOnUse" x="2" y="2" width="28" height="28">
<path d="M28.0805 4.57167H18.9265C17.9101 4.57167 16.9776 4.01484 16.4945 3.11923L16.3906 2.92467C16.149 2.47854 15.6828 2.19678 15.1763 2.19678H4.95889C3.436 2.19678 2.19824 3.11923 2.19824 4.24965V28.0791C2.19824 29.0317 2.96975 29.8032 3.92239 29.8032H28.0772C29.0298 29.8032 29.8013 29.0317 29.8013 28.0791V6.29917C29.8047 5.34653 29.0332 4.57167 28.0805 4.57167Z" fill="url(#paint1_linear_1041_6268)"/>
</mask>
<g mask="url(#mask0_1041_6268)">
<ellipse cx="13.2508" cy="24.9354" rx="12.9234" ry="9.30193" transform="rotate(-23.396 13.2508 24.9354)" fill="url(#paint2_linear_1041_6268)"/>
</g>
<path d="M27.8627 11.976H4.14062V9.57766C4.14062 8.62502 4.91213 7.85352 5.86477 7.85352H26.1386C27.0912 7.85352 27.8627 8.62502 27.8627 9.57766V11.976Z" fill="#F3FDFF"/>
<path d="M22.1278 21.5784C22.1281 21.8548 21.9042 22.079 21.6278 22.079H14.4676V23.0518C14.4709 23.2866 14.3736 23.5147 14.2026 23.6757C14.0382 23.83 13.8235 23.9139 13.6021 23.9139C13.4042 23.9139 13.2097 23.8434 13.0554 23.716L10.184 21.3444C9.98612 21.1801 9.87207 20.9352 9.87207 20.6803C9.87207 20.422 9.98612 20.1805 10.184 20.0161L13.0554 17.6446C13.2097 17.5171 13.4009 17.4467 13.6021 17.4467C14.0784 17.4467 14.4642 17.8324 14.4676 18.3087V19.2815H21.6257C21.9016 19.2815 22.1253 19.505 22.1257 19.7809L22.1278 21.5784Z" fill="#F3FDFF"/>
<defs>
<linearGradient id="paint0_linear_1041_6268" x1="2.19824" y1="2.19678" x2="31.1181" y2="5.03855" gradientUnits="userSpaceOnUse">
<stop stop-color="#A1EFFF"/>
<stop offset="1" stop-color="#00AFD1"/>
</linearGradient>
<linearGradient id="paint1_linear_1041_6268" x1="29.8013" y1="26.7989" x2="10.1647" y2="16.5562" gradientUnits="userSpaceOnUse">
<stop stop-color="#00B4D8"/>
<stop offset="1" stop-color="#1FDAFF"/>
</linearGradient>
<linearGradient id="paint2_linear_1041_6268" x1="17.1513" y1="36.014" x2="11.5321" y2="23.6132" gradientUnits="userSpaceOnUse">
<stop stop-color="#00B4D8"/>
<stop offset="1" stop-color="#1FDAFF"/>
</linearGradient>
</defs>
</svg>
