<svg width="32" height="32" viewBox="0 0 32 32" fill="none" xmlns="http://www.w3.org/2000/svg">
<path d="M29.2808 3.69196H10.465C9.30133 3.69196 8.34277 4.6708 8.34277 5.87426V19.8462C8.34277 20.9543 9.44482 22.154 10.6468 22.154H19.8635L24.8013 26.0709L26.0085 22.154H29.0803C30.2424 22.154 31.4031 21.7356 31.385 20.5314V5.87426C31.403 4.6708 30.443 3.69196 29.2808 3.69196Z" fill="url(#paint0_linear_1041_7167)"/>
<path d="M31.3849 20.5319C31.4027 21.7358 30.2422 22.1539 29.0802 22.1539H26.0089L24.8019 26.0709L19.8634 22.1539H19.7716C18.8677 18.8544 20.5175 14.6298 24.1388 11.7418C26.4061 9.93371 29.0126 8.99558 31.3849 8.94299V20.5319Z" fill="url(#paint1_linear_1041_7167)"/>
<path d="M9.87776 23.6928C8.12515 23.6928 6.80601 22.3744 6.80601 20.6158V11.3848H2.19726C1.36865 11.3848 0.601676 12.1277 0.614433 12.9879V24.4087C0.601676 25.2689 1.28753 25.9682 2.11614 25.9682H4.53281L5.05039 28.3083L8.04476 26.0005H15.255C16.1129 26.0005 16.7905 25.2546 16.7905 24.462V23.6928H9.87776Z" fill="url(#paint2_linear_1041_7167)"/>
<path fill-rule="evenodd" clip-rule="evenodd" d="M20.2403 7.92188C21.4752 7.92191 22.4995 8.34165 23.2908 9.19111C24.0845 10.0394 24.471 11.1524 24.4711 12.5024C24.471 13.4276 24.2902 14.2522 23.9242 14.9675L23.7559 15.268C23.3385 15.9456 22.7664 16.4455 22.0456 16.768C22.2981 17.0104 22.5393 17.1933 22.7716 17.3197C23.0656 17.4787 23.4564 17.5673 23.953 17.5673C24.244 17.5673 24.4963 17.522 24.7103 17.4375L25.0468 17.3041V19.3822L24.8713 19.4339C24.4882 19.5475 24.0348 19.6033 23.5204 19.6034C22.8956 19.6034 22.3002 19.4282 21.7403 19.0865C21.1951 18.7546 20.5248 18.1149 19.7259 17.1911C18.56 17.1296 17.6046 16.6829 16.8809 15.8425C16.1426 14.9836 15.7764 13.9223 15.7764 12.6767C15.7764 11.3655 16.1268 10.2697 16.8425 9.41106L16.9903 9.24159C17.8076 8.35639 18.9018 7.92188 20.2403 7.92188ZM23.1045 19.3281C23.1711 19.3374 23.2379 19.345 23.3052 19.3498L23.5204 19.3582L23.8809 19.3474C23.7652 19.3541 23.6449 19.3582 23.5204 19.3582C23.3803 19.3582 23.2415 19.3472 23.1045 19.3281ZM22.042 18.9748C22.047 18.9775 22.0526 18.9793 22.0576 18.982C21.9946 18.9485 21.9312 18.9142 21.8689 18.8762L22.042 18.9748ZM22.929 17.6575C22.9619 17.6692 22.9957 17.6795 23.03 17.6899C22.9455 17.6641 22.8648 17.6348 22.7884 17.601L22.929 17.6575ZM23.1778 15.637C23.2433 15.562 23.3077 15.4853 23.3677 15.4038L23.5468 15.1394C23.4359 15.3194 23.3116 15.4837 23.1778 15.637ZM20.1694 9.98437C19.5508 9.98439 19.0731 10.2135 18.7127 10.6719C18.3478 11.1356 18.1514 11.7653 18.1514 12.5793C18.1514 13.3975 18.3443 14.0224 18.7018 14.4772C19.0542 14.9264 19.5206 15.1502 20.1213 15.1502C20.7398 15.1502 21.2114 14.9316 21.5576 14.5012L21.6826 14.3281C21.9549 13.9053 22.0996 13.3398 22.0997 12.6106C22.0997 11.7396 21.9132 11.0925 21.572 10.6454C21.2367 10.2062 20.7793 9.98437 20.1694 9.98437ZM24.2247 12.5024L24.2091 12.0553C24.2086 12.0488 24.2071 12.0425 24.2067 12.0361C24.2178 12.1877 24.2247 12.3431 24.2247 12.5024Z" fill="#FEF0FB"/>
<defs>
<linearGradient id="paint0_linear_1041_7167" x1="19.864" y1="3.69196" x2="19.864" y2="21.1788" gradientUnits="userSpaceOnUse">
<stop stop-color="#FFA8E9"/>
<stop offset="1" stop-color="#FC56D2"/>
</linearGradient>
<linearGradient id="paint1_linear_1041_7167" x1="30.0733" y1="16.239" x2="33.1701" y2="25.0062" gradientUnits="userSpaceOnUse">
<stop stop-color="#FFABEA"/>
<stop offset="1" stop-color="#FC57D2"/>
</linearGradient>
<linearGradient id="paint2_linear_1041_7167" x1="16.7905" y1="23.6642" x2="0.782176" y2="11.8622" gradientUnits="userSpaceOnUse">
<stop stop-color="#FC4FD0"/>
<stop offset="1" stop-color="#FEA5E8"/>
</linearGradient>
</defs>
</svg>
