<svg width="32" height="32" viewBox="0 0 32 32" fill="none" xmlns="http://www.w3.org/2000/svg">
<path d="M24.7657 29.1967H7.23365C5.78059 29.1967 4.38705 28.6194 3.35958 27.592C2.33211 26.5645 1.75488 25.171 1.75488 23.7179C1.75488 22.2648 2.33211 20.8713 3.35958 19.8438C4.38705 18.8164 5.78059 18.2391 7.23365 18.2391H24.7657C26.2188 18.2391 27.6123 18.8164 28.6398 19.8438C29.6672 20.8713 30.2445 22.2648 30.2445 23.7179C30.2445 25.171 29.6672 26.5645 28.6398 27.592C27.6123 28.6194 26.2188 29.1967 24.7657 29.1967ZM7.23365 20.4306C6.36181 20.4306 5.52569 20.777 4.90921 21.3935C4.29273 22.0099 3.94639 22.8461 3.94639 23.7179C3.94639 24.5897 4.29273 25.4259 4.90921 26.0423C5.52569 26.6588 6.36181 27.0052 7.23365 27.0052H24.7657C25.6375 27.0052 26.4737 26.6588 27.0902 26.0423C27.7066 25.4259 28.053 24.5897 28.053 23.7179C28.053 22.8461 27.7066 22.0099 27.0902 21.3935C26.4737 20.777 25.6375 20.4306 24.7657 20.4306H7.23365Z" fill="url(#paint0_linear_1041_7037)"/>
<path d="M7.2336 19.3353H16.5397C19.4617 19.3353 20.9227 20.7963 20.9227 23.7183C20.9227 26.6404 19.4617 28.1014 16.5397 28.1014H7.2336C4.31159 28.1014 2.85059 26.6404 2.85059 23.7183C2.85059 20.7963 4.31159 19.3353 7.2336 19.3353Z" fill="url(#paint1_linear_1041_7037)"/>
<path d="M16.5397 29.1976H7.23365C5.78059 29.1976 4.38705 28.6204 3.35958 27.5929C2.33211 26.5655 1.75488 25.1719 1.75488 23.7189C1.75488 22.2658 2.33211 20.8723 3.35958 19.8448C4.38705 18.8173 5.78059 18.2401 7.23365 18.2401H16.5397C17.9928 18.2401 19.3863 18.8173 20.4138 19.8448C21.4413 20.8723 22.0185 22.2658 22.0185 23.7189C22.0185 25.1719 21.4413 26.5655 20.4138 27.5929C19.3863 28.6204 17.9928 29.1976 16.5397 29.1976ZM7.23365 20.4316C6.36182 20.4316 5.52569 20.7779 4.90921 21.3944C4.29273 22.0109 3.94639 22.847 3.94639 23.7189C3.94639 24.5907 4.29273 25.4268 4.90921 26.0433C5.52569 26.6598 6.36182 27.0061 7.23365 27.0061H16.5397C17.4116 27.0061 18.2477 26.6598 18.8642 26.0433C19.4807 25.4268 19.827 24.5907 19.827 23.7189C19.827 22.847 19.4807 22.0109 18.8642 21.3944C18.2477 20.7779 17.4116 20.4316 16.5397 20.4316H7.23365ZM11.6167 9.47408C10.9665 9.47408 10.3309 9.28128 9.79036 8.92007C9.24977 8.55886 8.82844 8.04546 8.57963 7.4448C8.33083 6.84413 8.26573 6.18317 8.39257 5.5455C8.51941 4.90784 8.83249 4.3221 9.29222 3.86237C9.75195 3.40264 10.3377 3.08956 10.9754 2.96272C11.613 2.83588 12.274 2.90098 12.8746 3.14978C13.4753 3.39859 13.9887 3.81992 14.3499 4.36051C14.7111 4.9011 14.9039 5.53666 14.9039 6.18681C14.9039 7.05865 14.5576 7.89478 13.9411 8.51126C13.3246 9.12774 12.4885 9.47408 11.6167 9.47408ZM11.6167 5.09106C11.3999 5.09106 11.1881 5.15533 11.0079 5.27573C10.8277 5.39613 10.6873 5.56727 10.6043 5.76749C10.5214 5.96771 10.4997 6.18803 10.542 6.40059C10.5842 6.61314 10.6886 6.80839 10.8419 6.96163C10.9951 7.11487 11.1903 7.21923 11.4029 7.26151C11.6154 7.30379 11.8358 7.28209 12.036 7.19916C12.2362 7.11622 12.4073 6.97578 12.5278 6.79558C12.6482 6.61539 12.7124 6.40353 12.7124 6.18681C12.7124 5.8962 12.597 5.61749 12.3915 5.412C12.186 5.20651 11.9073 5.09106 11.6167 5.09106ZM20.3827 16.0486C19.7325 16.0486 19.097 15.8558 18.5564 15.4946C18.0158 15.1334 17.5945 14.62 17.3457 14.0193C17.0969 13.4186 17.0318 12.7577 17.1586 12.12C17.2854 11.4824 17.5985 10.8966 18.0582 10.4369C18.518 9.97716 19.1037 9.66408 19.7414 9.53724C20.379 9.4104 21.04 9.4755 21.6407 9.7243C22.2413 9.97311 22.7547 10.3944 23.116 10.935C23.4772 11.4756 23.67 12.1112 23.67 12.7613C23.67 13.6332 23.3236 14.4693 22.7071 15.0858C22.0907 15.7023 21.2545 16.0486 20.3827 16.0486ZM20.3827 11.6656C20.166 11.6656 19.9541 11.7298 19.7739 11.8503C19.5937 11.9707 19.4533 12.1418 19.3704 12.342C19.2874 12.5422 19.2657 12.7626 19.308 12.9751C19.3503 13.1877 19.4546 13.3829 19.6079 13.5362C19.7611 13.6894 19.9564 13.7938 20.1689 13.836C20.3815 13.8783 20.6018 13.8566 20.802 13.7737C21.0022 13.6907 21.1734 13.5503 21.2938 13.3701C21.4142 13.1899 21.4784 12.9781 21.4784 12.7613C21.4784 12.4707 21.363 12.192 21.1575 11.9865C20.952 11.781 20.6733 11.6656 20.3827 11.6656ZM9.42516 17.1443C9.28095 17.1452 9.138 17.1175 9.00449 17.063C8.87099 17.0085 8.74956 16.9281 8.64717 16.8266C8.54447 16.7247 8.46295 16.6035 8.40732 16.47C8.35169 16.3365 8.32305 16.1932 8.32305 16.0486C8.32305 15.9039 8.35169 15.7607 8.40732 15.6272C8.46295 15.4937 8.54447 15.3725 8.64717 15.2706L21.7962 2.12157C22.0026 1.91523 22.2824 1.79932 22.5742 1.79932C22.866 1.79932 23.1459 1.91523 23.3522 2.12157C23.5585 2.3279 23.6744 2.60775 23.6744 2.89955C23.6744 3.19135 23.5585 3.4712 23.3522 3.67754L10.2031 16.8266C10.1008 16.9281 9.97933 17.0085 9.84582 17.063C9.71232 17.1175 9.56937 17.1452 9.42516 17.1443Z" fill="url(#paint2_linear_1041_7037)"/>
<defs>
<linearGradient id="paint0_linear_1041_7037" x1="19.5677" y1="22.5035" x2="13.4782" y2="11.9385" gradientUnits="userSpaceOnUse">
<stop stop-color="#00AFD1"/>
<stop offset="1" stop-color="#A1EFFF"/>
</linearGradient>
<linearGradient id="paint1_linear_1041_7037" x1="19.4208" y1="25.1803" x2="7.82299" y2="14.3673" gradientUnits="userSpaceOnUse">
<stop stop-color="#00AFD1"/>
<stop offset="1" stop-color="#A1EFFF"/>
</linearGradient>
<linearGradient id="paint2_linear_1041_7037" x1="21.7769" y1="4.78946" x2="21.6283" y2="29.2937" gradientUnits="userSpaceOnUse">
<stop offset="0.747174" stop-color="#00AFD1"/>
<stop offset="1" stop-color="#A1EFFF"/>
</linearGradient>
</defs>
</svg>
