<svg width="32" height="32" viewBox="0 0 32 32" fill="none" xmlns="http://www.w3.org/2000/svg">
<path fill-rule="evenodd" clip-rule="evenodd" d="M17.0317 1.55566C18.7411 1.55566 20.1269 2.94143 20.1269 4.65086V5.68053L24.2538 5.6826C25.3934 5.6826 26.3173 6.60644 26.3173 7.74606V28.3807C26.3173 29.5203 25.3934 30.4442 24.2538 30.4442H7.74608C6.60646 30.4442 5.68262 29.5203 5.68262 28.3807V7.74606C5.68262 6.60644 6.60646 5.6826 7.74608 5.6826L11.873 5.68053V4.65086C11.873 2.94143 13.2588 1.55566 14.9682 1.55566H17.0317ZM17.0317 3.61913H14.9682C14.3984 3.61913 13.9365 4.08105 13.9365 4.65086V5.68053H18.0634V4.65086C18.0634 4.08105 17.6015 3.61913 17.0317 3.61913Z" fill="url(#paint0_linear_1041_5998)"/>
<mask id="mask0_1041_5998" style="mask-type:alpha" maskUnits="userSpaceOnUse" x="5" y="1" width="22" height="30">
<path fill-rule="evenodd" clip-rule="evenodd" d="M17.0317 1.55566C18.7411 1.55566 20.1269 2.94143 20.1269 4.65086V5.68053L24.2538 5.6826C25.3934 5.6826 26.3173 6.60644 26.3173 7.74606V28.3807C26.3173 29.5203 25.3934 30.4442 24.2538 30.4442H7.74608C6.60646 30.4442 5.68262 29.5203 5.68262 28.3807V7.74606C5.68262 6.60644 6.60646 5.6826 7.74608 5.6826L11.873 5.68053V4.65086C11.873 2.94143 13.2588 1.55566 14.9682 1.55566H17.0317ZM17.0317 3.61913H14.9682C14.3984 3.61913 13.9365 4.08105 13.9365 4.65086V5.68053H18.0634V4.65086C18.0634 4.08105 17.6015 3.61913 17.0317 3.61913Z" fill="url(#paint1_linear_1041_5998)" fill-opacity="0.9"/>
</mask>
<g mask="url(#mask0_1041_5998)">
<ellipse cx="19.1516" cy="26.4757" rx="10.7645" ry="15.5315" transform="rotate(65.9166 19.1516 26.4757)" fill="url(#paint2_linear_1041_5998)" fill-opacity="0.9"/>
</g>
<path fill-rule="evenodd" clip-rule="evenodd" d="M17.6752 12.0992C18.0707 12.4156 18.1717 12.9637 17.9392 13.3941L17.8364 13.5493L15.0498 17.0317H19.0942C19.9016 17.0317 20.3744 17.9035 19.9945 18.5689L19.8998 18.708L15.7729 23.8667C15.4169 24.3116 14.7677 24.3838 14.3227 24.0278C13.9272 23.7114 13.8263 23.1632 14.0587 22.7328L14.1616 22.5776L16.9461 19.0952H12.9038C12.0963 19.0952 11.6235 18.2235 12.0035 17.558L12.0981 17.419L16.2251 12.2603C16.581 11.8154 17.2303 11.7432 17.6752 12.0992Z" fill="#FEF7F7"/>
<defs>
<linearGradient id="paint0_linear_1041_5998" x1="19.2816" y1="26.2451" x2="-0.00407893" y2="1.99855" gradientUnits="userSpaceOnUse">
<stop stop-color="#FE6C6C"/>
<stop offset="1" stop-color="#FFC7C7"/>
</linearGradient>
<linearGradient id="paint1_linear_1041_5998" x1="15.8032" y1="30.3051" x2="24.734" y2="13.6399" gradientUnits="userSpaceOnUse">
<stop offset="0.417479" stop-color="#FF7272"/>
<stop offset="1" stop-color="#FBA9A9"/>
</linearGradient>
<linearGradient id="paint2_linear_1041_5998" x1="18.9463" y1="41.8576" x2="28.7079" y2="24.1831" gradientUnits="userSpaceOnUse">
<stop stop-color="#FF7272"/>
<stop offset="1" stop-color="#FBA9A9"/>
</linearGradient>
</defs>
</svg>
