<svg width="32" height="32" viewBox="0 0 32 32" fill="none" xmlns="http://www.w3.org/2000/svg">
<path d="M4.17511 2.60198C3.55369 2.90433 3.20117 3.54179 3.20117 4.23286V27.7092C3.20117 28.4409 3.59986 29.1211 4.25773 29.4415C14.4915 34.4262 24.5187 30.8285 27.7351 29.4055C28.405 29.1092 28.7997 28.4403 28.7997 27.7077V4.39695C28.7997 3.61906 28.3477 2.90564 27.631 2.60304C16.1116 -2.26119 7.06477 1.19602 4.17511 2.60198Z" fill="url(#paint0_linear_1041_6843)"/>
<mask id="mask0_1041_6843" style="mask-type:alpha" maskUnits="userSpaceOnUse" x="3" y="0" width="26" height="32">
<path d="M4.17511 2.60185C3.55369 2.90421 3.20117 3.54167 3.20117 4.23274V27.709C3.20117 28.4408 3.59986 29.1209 4.25773 29.4414C14.4915 34.4261 24.5187 30.8283 27.7351 29.4054C28.405 29.109 28.7997 28.4401 28.7997 27.7076V4.39683C28.7997 3.61894 28.3477 2.90552 27.631 2.60292C16.1116 -2.26131 7.06477 1.19589 4.17511 2.60185Z" fill="url(#paint1_linear_1041_6843)"/>
</mask>
<g mask="url(#mask0_1041_6843)">
<path d="M22.1211 17.5643C27.3643 17.5645 31.6149 21.0648 31.6152 25.3827C31.6152 29.7008 27.3645 33.2019 22.1211 33.202C20.6709 33.202 19.2968 32.9328 18.0674 32.454C17.3731 36.0612 14.2023 38.7868 10.3926 38.787C6.07437 38.787 2.57324 35.2859 2.57324 30.9677C2.57343 26.6496 6.07448 23.1493 10.3926 23.1493C11.2657 23.1493 12.1046 23.2944 12.8887 23.5585C13.887 20.1207 17.6407 17.5643 22.1211 17.5643Z" fill="url(#paint2_linear_1041_6843)"/>
</g>
<path d="M25.5358 25.7444C24.4959 26.4324 21.952 27.7603 19.0082 25.7444C16.3683 23.9525 15.0404 25.3604 13.5685 26.2724C12.0966 27.1843 9.37676 27.0723 8.12882 26.2724C6.88089 25.4724 6.78489 25.6324 6.49692 25.2164C6.49692 25.2164 6.52892 23.3605 7.58486 23.6325C8.64079 23.9045 10.7847 26.0804 13.0245 24.1605C15.6004 21.9686 18.6242 23.2486 20.1122 24.1605C21.1361 24.7845 22.784 25.9364 24.4639 24.1605C26.1278 22.3846 26.5598 25.0564 25.5358 25.7444ZM8.09682 18.3848C9.68073 19.7927 11.8246 19.5527 12.9925 18.3848C14.1765 17.2168 16.8483 16.2729 20.0802 18.9127C22.048 20.5287 23.6159 19.2807 24.1919 18.6727C24.3679 18.4968 24.6239 18.4328 24.8639 18.5128C26.5438 19.0887 24.8319 20.2407 24.4959 20.4647C24.4479 20.4967 24.4159 20.5126 24.3839 20.5606C22.016 22.8645 18.9922 20.5286 18.9922 20.5286C18.9922 20.5286 16.3523 18.2888 13.5525 20.4966C10.1927 23.1685 6.46492 19.9687 6.46492 19.9687C6.17692 17.6808 8.09682 18.3848 8.09682 18.3848ZM16.0004 5.7615C10.1287 5.7615 5.37695 4.92954 5.37695 3.9216C5.37695 2.89766 10.1287 1.74573 16.0004 1.74573C21.8721 1.74573 26.6238 2.89766 26.6238 3.9216C26.6238 4.92954 21.8721 5.7615 16.0004 5.7615Z" fill="#F0F2FE"/>
<defs>
<linearGradient id="paint0_linear_1041_6843" x1="23.5636" y1="15.9983" x2="1.72772" y2="4.01915" gradientUnits="userSpaceOnUse">
<stop stop-color="#4F5DFC"/>
<stop offset="1" stop-color="#A5ACFE"/>
</linearGradient>
<linearGradient id="paint1_linear_1041_6843" x1="23.5636" y1="15.9982" x2="1.72772" y2="4.01902" gradientUnits="userSpaceOnUse">
<stop stop-color="#4F5DFC"/>
<stop offset="1" stop-color="#A5ACFE"/>
</linearGradient>
<linearGradient id="paint2_linear_1041_6843" x1="32.9982" y1="35.893" x2="2.57324" y2="35.893" gradientUnits="userSpaceOnUse">
<stop stop-color="#8791FF"/>
<stop offset="1" stop-color="#6C78FD"/>
</linearGradient>
</defs>
</svg>
