<svg width="32" height="32" viewBox="0 0 32 32" fill="none" xmlns="http://www.w3.org/2000/svg">
<path d="M22.4021 30.3329C22.2605 30.333 22.1227 30.2876 22.0088 30.2035C21.8949 30.1194 21.8111 30.0009 21.7696 29.8656L18.031 17.6965L13.5645 21.4803L13.6188 28.0605C13.6195 28.1474 13.6031 28.2335 13.5705 28.3141C13.5379 28.3946 13.4898 28.4679 13.4288 28.5298L12.3234 29.6551C12.246 29.7339 12.15 29.792 12.0443 29.8242C11.9386 29.8564 11.8265 29.8616 11.7183 29.8392C11.6101 29.8169 11.5092 29.7678 11.4248 29.6964C11.3405 29.6251 11.2753 29.5337 11.2354 29.4306L8.84301 23.245L2.42149 20.4866C2.32266 20.4443 2.23562 20.3786 2.16792 20.2951C2.10021 20.2117 2.05389 20.1129 2.03295 20.0075C2.01201 19.9021 2.01708 19.7932 2.04774 19.6901C2.0784 19.5871 2.13372 19.4931 2.2089 19.4163L3.30977 18.2873C3.37531 18.2201 3.45435 18.1676 3.54168 18.1332C3.629 18.0989 3.72263 18.0834 3.81637 18.0879L10.5514 18.4178L14.3439 13.7634L2.09129 9.87242C1.9834 9.83842 1.88604 9.7773 1.80852 9.69492C1.731 9.61253 1.67592 9.51162 1.64855 9.40186C1.62118 9.2921 1.62243 9.17715 1.65219 9.06801C1.68195 8.95887 1.73921 8.85919 1.81851 8.77851L3.92214 6.63C3.99164 6.55909 4.07619 6.50471 4.16954 6.47086C4.26288 6.43702 4.36264 6.42458 4.46144 6.43446L19.572 7.95599L23.854 3.66419C25.5589 1.93842 27.1942 1.66772 28.0171 1.66772H28.0293C28.793 1.66772 29.4684 1.89354 29.8386 2.2627C30.7286 3.15411 30.683 5.69614 28.2822 8.14526C28.2822 8.147 28.2788 8.15014 28.277 8.15188L23.9574 12.4663L25.1658 27.4711C25.1734 27.5655 25.1607 27.6605 25.1285 27.7496C25.0963 27.8386 25.0452 27.9198 24.9789 27.9874L22.8743 30.1359C22.8125 30.1984 22.739 30.248 22.6579 30.2818C22.5769 30.3156 22.4899 30.3329 22.4021 30.3329Z" fill="url(#paint0_linear_1041_6702)"/>
<path d="M4.46189 6.43434L19.5722 7.95582L19.5752 7.95192C19.8026 8.36678 19.9921 8.80495 20.1386 9.26539C21.037 12.0889 20.1516 15.1519 18.0312 17.698V17.6961L14.3125 20.8455C13.221 21.501 12.0132 22.0545 10.709 22.4695C9.92472 22.719 9.13925 22.9056 8.36228 23.0379L2.42185 20.4861C2.32318 20.4438 2.23654 20.3781 2.16892 20.2947C2.10125 20.2112 2.05412 20.113 2.03318 20.0076C2.01224 19.9022 2.01815 19.7932 2.0488 19.6902C2.07946 19.5872 2.13476 19.4926 2.20994 19.4158L3.31052 18.2869C3.37591 18.2199 3.45491 18.1679 3.54197 18.1336C3.62929 18.0992 3.72362 18.0832 3.81736 18.0877L10.5517 18.4177L14.3447 13.7634L2.09177 9.87184C1.98414 9.83786 1.88694 9.77723 1.80955 9.69508C1.73212 9.61279 1.67679 9.51173 1.64939 9.40211C1.62203 9.29238 1.62356 9.17724 1.6533 9.06813C1.68305 8.95899 1.74001 8.85877 1.81931 8.77809L3.92283 6.62965C3.99226 6.55886 4.07668 6.5043 4.1699 6.47047C4.26318 6.43665 4.36316 6.42449 4.46189 6.43434Z" fill="url(#paint1_linear_1041_6702)"/>
<defs>
<linearGradient id="paint0_linear_1041_6702" x1="30.3703" y1="22.4667" x2="2.89818" y2="1.22086" gradientUnits="userSpaceOnUse">
<stop stop-color="#FC4FD0"/>
<stop offset="1" stop-color="#FEA5E8"/>
</linearGradient>
<linearGradient id="paint1_linear_1041_6702" x1="25.1672" y1="19.8952" x2="6.97678" y2="25.1129" gradientUnits="userSpaceOnUse">
<stop stop-color="#FFABEA"/>
<stop offset="1" stop-color="#FD68D8"/>
</linearGradient>
</defs>
</svg>
