<svg width="32" height="32" viewBox="0 0 32 32" fill="none" xmlns="http://www.w3.org/2000/svg">
<path d="M14.9559 1.6459C15.689 1.27935 16.5515 1.81244 16.5515 2.63206V29.3692C16.5515 29.9781 16.0579 30.4717 15.449 30.4717H6.07721C4.25043 30.4717 2.76953 28.9909 2.76953 27.164V9.78334C2.76953 8.53048 3.47739 7.38515 4.59798 6.82487L14.9559 1.6459ZM11.59 12.8308C10.9811 12.8308 10.4875 13.3244 10.4875 13.9333V17.241C10.4875 17.8499 10.9811 18.3436 11.59 18.3436C12.1989 18.3436 12.6926 17.8499 12.6926 17.241V13.9333C12.6926 13.3244 12.1989 12.8308 11.59 12.8308Z" fill="url(#paint0_linear_1041_6678)"/>
<path d="M2.76953 21.1024C5.66665 19.9619 9.67079 20.7912 12.9092 23.4881C14.6169 24.9104 15.8517 26.6365 16.5508 28.3983V29.369C16.5507 29.9779 16.0571 30.4715 15.4482 30.4715H6.07715C4.25041 30.4715 2.76961 28.9907 2.76953 27.1639V21.1024Z" fill="url(#paint1_linear_1041_6678)"/>
<path d="M18.7568 8.42079C18.7568 7.64076 19.5446 7.10739 20.2689 7.39708L27.152 10.1503C28.4077 10.6527 29.2312 11.8689 29.2312 13.2214V27.1643C29.2312 28.9911 27.7503 30.472 25.9231 30.472L19.859 30.4698C19.2502 30.4696 18.7568 29.976 18.7568 29.3672V8.42079Z" fill="url(#paint2_linear_1041_6678)"/>
<defs>
<linearGradient id="paint0_linear_1041_6678" x1="14.652" y1="39.0011" x2="-7.08053" y2="20.411" gradientUnits="userSpaceOnUse">
<stop stop-color="#A1FFC3"/>
<stop offset="1" stop-color="#00D14D"/>
</linearGradient>
<linearGradient id="paint1_linear_1041_6678" x1="11.4766" y1="27.9339" x2="4.64727" y2="28.8919" gradientUnits="userSpaceOnUse">
<stop stop-color="#89FFB4"/>
<stop offset="1" stop-color="#45E580"/>
</linearGradient>
<linearGradient id="paint2_linear_1041_6678" x1="25.0727" y1="27.2807" x2="24.9932" y2="1.74116" gradientUnits="userSpaceOnUse">
<stop stop-color="#00D14D"/>
<stop offset="1" stop-color="#A1FFC3"/>
</linearGradient>
</defs>
</svg>
