<svg width="32" height="32" viewBox="0 0 32 32" fill="none" xmlns="http://www.w3.org/2000/svg">
<path d="M14.0208 23.9785C14.0211 23.9785 14.0212 23.9783 14.0211 23.9781L11.5102 19.6268C11.4343 19.4939 11.3249 19.3832 11.1929 19.3059C11.0609 19.2285 10.9108 19.1872 10.7578 19.186H5.73866C5.58568 19.1856 5.43534 19.2259 5.30297 19.3025C5.17061 19.3792 5.06095 19.4897 4.98521 19.6226L2.47511 23.9806C2.39865 24.1128 2.3584 24.2629 2.3584 24.4156C2.3584 24.5683 2.39865 24.7183 2.47511 24.8506L4.98521 29.2054C5.06169 29.3377 5.17151 29.4476 5.30371 29.5242C5.43591 29.6008 5.58587 29.6414 5.73866 29.642H10.7568C10.9096 29.6422 11.0597 29.6019 11.1918 29.5252C11.324 29.4485 11.4335 29.3382 11.5092 29.2054L14.0203 24.8506C14.0973 24.7181 14.1378 24.5677 14.1378 24.4145C14.1378 24.2616 14.0973 24.1113 14.0206 23.979C14.0205 23.9788 14.0206 23.9785 14.0208 23.9785ZM8.24876 26.9871C7.74004 26.9874 7.24273 26.8364 6.82006 26.5533C6.39738 26.2702 6.06845 25.8678 5.87508 25.3973C5.68096 24.9267 5.63029 24.4093 5.72943 23.91C5.82858 23.4107 6.07311 22.9519 6.43229 22.5913C6.79141 22.2307 7.2496 21.985 7.74865 21.8855C8.2477 21.7859 8.76508 21.8369 9.23507 22.032C9.70506 22.2272 10.1064 22.5576 10.3882 22.9813C10.67 23.4051 10.8195 23.903 10.8176 24.4119C10.8176 25.094 10.5469 25.7499 10.0652 26.2326C9.58251 26.7153 8.9298 26.9871 8.24876 26.9871Z" fill="url(#paint0_linear_1041_6482)"/>
<path d="M13.4834 2.35828C13.8286 2.35835 14.1598 2.49443 14.4053 2.73718L16.7803 5.11804C17.0242 5.36392 17.1611 5.69652 17.1611 6.04285C17.1611 6.38898 17.024 6.72087 16.7803 6.96667L15.1064 8.64636C14.842 8.91172 14.8396 9.34042 15.1016 9.60828L15.3545 9.86609C15.5813 10.098 15.9813 10.0183 16.1973 9.77625C16.3885 9.58468 16.6345 9.45667 16.9014 9.41101C17.1682 9.3654 17.4425 9.40431 17.6865 9.52136C17.9979 9.67202 18.2373 9.93999 18.3516 10.2665C18.4658 10.5929 18.4463 10.9516 18.2969 11.2635L17.9775 11.9198C17.8639 12.1536 17.911 12.4341 18.0947 12.618L18.5254 13.0487C18.6123 13.1353 18.7582 13.1105 18.8115 12.9999C18.8859 12.8453 18.9903 12.707 19.1182 12.5927C19.2461 12.4783 19.3957 12.3896 19.5576 12.3329C19.7195 12.2763 19.8913 12.252 20.0625 12.2616C20.2337 12.2712 20.4012 12.3151 20.5557 12.3895C20.867 12.5402 21.1064 12.8082 21.2207 13.1346C21.3348 13.4608 21.3152 13.819 21.166 14.1307L20.8467 14.788C20.7331 15.0219 20.7803 15.302 20.9639 15.4862L21.3955 15.9198C21.4823 16.0064 21.6284 15.9815 21.6816 15.871C21.756 15.7162 21.8603 15.5772 21.9883 15.4628C22.1162 15.3484 22.2658 15.2607 22.4277 15.204C22.5897 15.1473 22.7613 15.1231 22.9326 15.1327C23.104 15.1424 23.2721 15.186 23.4268 15.2606C23.738 15.4115 23.9768 15.6793 24.0908 16.0057C24.2048 16.3321 24.1846 16.6901 24.0352 17.0018L23.7168 17.6591C23.6032 17.8929 23.6503 18.1734 23.834 18.3573L24.2637 18.788C24.3505 18.8749 24.4974 18.8498 24.5508 18.7391C24.625 18.5847 24.7288 18.4462 24.8564 18.3319C24.9842 18.2175 25.1341 18.1289 25.2959 18.0721C25.4575 18.0155 25.6288 17.9914 25.7998 18.0009C25.9709 18.0103 26.1385 18.0536 26.293 18.1278C26.4474 18.202 26.5859 18.3059 26.7002 18.4335C26.8145 18.5611 26.9032 18.7103 26.96 18.8719C27.0167 19.0338 27.0407 19.2056 27.0312 19.3768C27.0218 19.548 26.9785 19.7155 26.9043 19.87C26.5996 20.4964 26.7252 21.2476 27.2168 21.7411L29.2695 23.8026C29.5094 24.051 29.643 24.3831 29.6416 24.7284C29.6402 25.0736 29.5045 25.4048 29.2627 25.6512L26.8828 28.0272C26.6372 28.2701 26.3053 28.4061 25.96 28.4061C25.6148 28.4061 25.2836 28.2699 25.0381 28.0272L23.8174 26.8036C23.7303 26.7163 23.5822 26.7406 23.5283 26.8514C23.4544 27.0059 23.3511 27.1444 23.2236 27.2587C23.0961 27.3729 22.9468 27.4609 22.7852 27.5175C22.6235 27.574 22.4522 27.5986 22.2812 27.5887C22.1104 27.5789 21.9431 27.5354 21.7891 27.4608C21.478 27.3094 21.2397 27.0405 21.126 26.7137C21.0123 26.387 21.0327 26.0285 21.1826 25.7167L21.502 25.0594C21.6153 24.8259 21.5681 24.546 21.3848 24.3622L20.9541 23.9305C20.8672 23.8438 20.7203 23.8688 20.667 23.9794C20.5928 24.1338 20.4891 24.2725 20.3613 24.3866C20.2335 24.5008 20.0838 24.5881 19.9219 24.6444C19.6783 24.7281 19.4152 24.738 19.166 24.6727C18.9171 24.6074 18.6926 24.4704 18.5215 24.2782C18.3503 24.0858 18.2401 23.8467 18.2041 23.5917C18.1682 23.3368 18.2081 23.0767 18.3193 22.8446L18.6348 22.1698C18.744 21.9364 18.6957 21.6598 18.5137 21.4774L18.0801 21.0428C17.993 20.9557 17.8462 20.9806 17.793 21.0917C17.6885 21.3096 17.5255 21.4942 17.3223 21.6249C17.1188 21.7555 16.8823 21.8276 16.6406 21.8319C16.399 21.8362 16.161 21.7725 15.9531 21.6493C15.7452 21.526 15.5751 21.3477 15.4629 21.1337C15.3693 20.9527 15.3189 20.7524 15.3154 20.5487C15.312 20.3448 15.3558 20.1421 15.4434 19.9579L15.7627 19.3016C15.8763 19.0678 15.829 18.7875 15.6455 18.6034L15.2168 18.1727C15.1295 18.0854 14.9815 18.1104 14.9277 18.2216C14.7976 18.4936 14.5771 18.7124 14.3037 18.8397C14.0305 18.9668 13.7214 18.9952 13.4297 18.9198C13.2432 18.8705 13.0696 18.7802 12.9219 18.6561C12.7743 18.5321 12.656 18.3771 12.5752 18.202C12.4944 18.027 12.4536 17.8362 12.4551 17.6434C12.4566 17.4506 12.5005 17.2597 12.584 17.0858C12.8884 16.459 12.7626 15.7081 12.2705 15.2147L11.8213 14.7645C11.0397 13.9814 9.77052 13.982 8.98926 14.7655L8.25391 15.5028C8.00765 15.744 7.67674 15.8797 7.33203 15.8798C6.98714 15.8798 6.65554 15.7442 6.40918 15.5028L4.03418 13.121C3.79182 12.8743 3.65625 12.542 3.65625 12.1962C3.65625 11.8504 3.79182 11.518 4.03418 11.2714L8.41406 6.87976L10.3506 4.93933L12.5605 2.73718C12.8061 2.49431 13.138 2.35828 13.4834 2.35828Z" fill="url(#paint1_linear_1041_6482)"/>
<path d="M9.91211 5.37708C12.4054 6.52239 14.1367 9.03404 14.1367 11.9503C14.1367 13.5454 13.6174 15.0189 12.7402 16.215C12.7048 15.8457 12.545 15.4902 12.2705 15.215L11.8213 14.7648C11.0397 13.9815 9.77055 13.9822 8.98926 14.7657L8.25391 15.5031C8.00766 15.7442 7.67669 15.8789 7.33203 15.879C6.98718 15.879 6.65553 15.7444 6.40918 15.5031L4.03418 13.1202C3.79211 12.8737 3.65631 12.542 3.65625 12.1964C3.65625 11.8507 3.79189 11.5183 4.03418 11.2716L8.41406 6.88L9.91211 5.37708Z" fill="url(#paint2_linear_1041_6482)"/>
<defs>
<linearGradient id="paint0_linear_1041_6482" x1="14.1378" y1="27.1919" x2="6.31957" y2="21.6392" gradientUnits="userSpaceOnUse">
<stop stop-color="#FFC7C7"/>
<stop offset="1" stop-color="#FE6C6C"/>
</linearGradient>
<linearGradient id="paint1_linear_1041_6482" x1="27.4958" y1="26.9706" x2="6.34806" y2="-3.07548" gradientUnits="userSpaceOnUse">
<stop stop-color="#FE6C6C"/>
<stop offset="1" stop-color="#FFC7C7"/>
</linearGradient>
<linearGradient id="paint2_linear_1041_6482" x1="2.98229" y1="14.7556" x2="12.4804" y2="8.387" gradientUnits="userSpaceOnUse">
<stop stop-color="#FBA9A9"/>
<stop offset="1" stop-color="#FF7272"/>
</linearGradient>
</defs>
</svg>
