<svg width="32" height="32" viewBox="0 0 32 32" fill="none" xmlns="http://www.w3.org/2000/svg">
<path d="M24.5842 1.75517C26.2296 1.75517 27.568 3.08051 27.5841 4.72584L27.6693 13.444L26.1193 12.7227C25.7654 12.558 25.3702 12.5035 24.985 12.5665C24.5998 12.6295 24.2424 12.807 23.9595 13.0759L16.1304 20.5149L15.8284 20.8117L15.7681 20.8707L14.802 26.853C14.802 27.3863 15.2245 27.86 15.8284 27.86L21.9261 26.9126L21.987 26.853L22.289 26.5569L27.6693 21.1992V27.2449C27.6693 28.9018 26.3262 30.2449 24.6693 30.2449H6.60032C4.94817 30.2449 3.60697 28.9091 3.60034 27.257L3.51013 4.76721C3.50346 3.10566 4.84855 1.75517 6.51011 1.75517H24.5842Z" fill="url(#paint0_linear_1041_6225)"/>
<mask id="mask0_1041_6225" style="mask-type:alpha" maskUnits="userSpaceOnUse" x="3" y="1" width="25" height="30">
<path d="M24.5852 1.75517C26.2306 1.75517 27.569 3.08051 27.585 4.72584L27.6703 13.444L26.1203 12.7227C25.7664 12.558 25.3712 12.5035 24.986 12.5665C24.6007 12.6295 24.2434 12.807 23.9605 13.0759L16.1314 20.5149L15.8294 20.8117L15.7691 20.8707L14.803 26.853C14.803 27.3863 15.2255 27.86 15.8294 27.86L21.9271 26.9126L21.988 26.853L22.2899 26.5569L27.6703 21.1992V27.2449C27.6703 28.9018 26.3271 30.2449 24.6703 30.2449H6.6013C4.94914 30.2449 3.60795 28.9091 3.60132 27.257L3.51111 4.76721C3.50444 3.10566 4.84953 1.75517 6.51108 1.75517H24.5852Z" fill="url(#paint1_linear_1041_6225)"/>
</mask>
<g mask="url(#mask0_1041_6225)">
<ellipse cx="8.06925" cy="5.24183" rx="10.9621" ry="11.1187" transform="rotate(53.488 8.06925 5.24183)" fill="url(#paint2_linear_1041_6225)"/>
</g>
<path fill-rule="evenodd" clip-rule="evenodd" d="M10.0539 5.73198C10.4317 5.73593 10.7698 5.96967 10.9061 6.32212L13.6525 13.4387C13.8356 13.9139 13.5998 14.4484 13.1248 14.6322C12.6495 14.8157 12.1152 14.5785 11.9313 14.1034L11.4121 12.7596H8.5479L7.99261 14.1202C7.79981 14.5916 7.26111 14.8171 6.78948 14.625C6.31761 14.4323 6.09085 13.8938 6.28347 13.4219L9.18972 6.3065C9.33276 5.95633 9.67567 5.72831 10.0539 5.73198ZM9.3015 10.9135H10.6993L10.0203 9.15385L9.3015 10.9135Z" fill="#FEF0FB"/>
<path d="M17.7486 6.79207C18.2582 6.79207 18.6714 7.20562 18.6717 7.71515V9.28967H20.2474C20.7569 9.29006 21.1705 9.70319 21.1705 10.2127C21.1704 10.7223 20.7568 11.1354 20.2474 11.1358H18.6717V12.7091C18.6717 13.2189 18.2584 13.6322 17.7486 13.6322C17.2389 13.6321 16.8255 13.2189 16.8255 12.7091V11.1358H15.2534C14.7437 11.1358 14.3304 10.7225 14.3304 10.2127C14.3304 9.70294 14.7436 9.28967 15.2534 9.28967H16.8255V7.71515C16.8259 7.20566 17.2391 6.79214 17.7486 6.79207Z" fill="#FEF0FB"/>
<path d="M17.2393 21.6756L21.0679 25.5042L20.8397 25.7325L17.0111 26.3611C16.8449 26.3599 16.6858 26.2934 16.5682 26.1761C16.4505 26.0587 16.3836 25.8999 16.3818 25.7337L17.0099 21.9051L17.2393 21.6756ZM27.358 15.0565L27.8151 15.5137C28.73 16.4279 28.73 17.9702 27.8151 18.8845L21.696 24.8762L17.8674 21.0476L23.9871 15.0565C24.9014 14.1416 26.4437 14.1416 27.358 15.0565Z" fill="url(#paint3_linear_1041_6225)"/>
<defs>
<linearGradient id="paint0_linear_1041_6225" x1="20.2928" y1="21.8507" x2="2.35036" y2="5.65221" gradientUnits="userSpaceOnUse">
<stop stop-color="#FC4FD0"/>
<stop offset="1" stop-color="#FEA5E8"/>
</linearGradient>
<linearGradient id="paint1_linear_1041_6225" x1="20.2938" y1="21.8507" x2="2.35133" y2="5.65221" gradientUnits="userSpaceOnUse">
<stop stop-color="#FC4FD0"/>
<stop offset="1" stop-color="#FEA5E8"/>
</linearGradient>
<linearGradient id="paint2_linear_1041_6225" x1="19.0314" y1="3.76097" x2="4.35868" y2="8.91495" gradientUnits="userSpaceOnUse">
<stop stop-color="#FFABEA"/>
<stop offset="1" stop-color="#FD68D8"/>
</linearGradient>
<linearGradient id="paint3_linear_1041_6225" x1="18.1165" y1="25.3175" x2="30.6301" y2="13.0946" gradientUnits="userSpaceOnUse">
<stop stop-color="#FC4FD0"/>
<stop offset="1" stop-color="#FEA5E8"/>
</linearGradient>
</defs>
</svg>
