<svg width="32" height="32" viewBox="0 0 32 32" fill="none" xmlns="http://www.w3.org/2000/svg">
<path d="M29.3118 6.2239V8.16525C29.3118 8.71993 28.8958 9.13593 28.3411 9.13593H19.4664V23.0028H23.4877C24.0424 23.0028 24.4584 23.4188 24.4584 23.9734V25.9148H27.3705C27.9251 25.9148 28.3411 26.3308 28.3411 26.8855V28.8268C28.3411 29.3815 27.9251 29.7975 27.3705 29.7975H5.59953C5.04486 29.7975 4.62886 29.3815 4.62886 28.8268V26.8855C4.62886 26.3308 5.04486 25.9148 5.59953 25.9148H8.51157V23.9734C8.51157 23.4188 8.92758 23.0028 9.48225 23.0028H13.5036V9.13593H7.54089V14.128C7.54089 14.6827 7.12489 15.0987 6.57021 15.0987H6.15421V16.9014C7.12489 17.1787 7.81823 18.1494 7.81823 19.1201C7.81823 19.6747 7.67956 20.3681 7.12489 20.7841C6.57021 21.2001 6.01554 21.3387 5.46087 21.3387C4.49019 21.3387 3.65818 20.7841 3.24217 19.9521C3.1035 19.8134 3.1035 19.5361 3.24217 19.3974C3.38084 19.2587 3.38084 19.1201 3.65818 18.9814C3.79685 18.8427 4.07418 18.8427 4.21285 18.9814C4.35152 19.1201 4.49019 19.1201 4.62886 19.3974C4.76752 19.8134 5.18353 19.9521 5.46087 19.9521C6.01554 19.9521 6.43155 19.5361 6.43155 18.9814C6.43155 18.4267 6.01554 18.0107 5.46087 18.0107C5.04486 18.0107 4.76752 17.7334 4.76752 17.3174V14.96H4.62886C4.07418 14.96 3.65818 14.544 3.65818 13.9893V9.13593C2.96484 9.13593 2.6875 8.71993 2.6875 8.16525V6.2239C2.6875 5.66922 3.1035 5.25322 3.65818 5.25322H13.5036V3.17319C13.5036 2.61852 13.9196 2.20251 14.4743 2.20251H18.4957C19.0504 2.20251 19.4664 2.61852 19.4664 3.17319V5.11455H28.3411C29.0345 5.11455 29.3118 5.53055 29.3118 6.2239Z" fill="url(#paint0_linear_1041_6654)"/>
<path d="M10.6807 5.25281C14.4474 7.73776 16.957 12.179 16.957 17.245C16.957 22.7175 14.0292 27.4619 9.75098 29.7977H5.59961C5.04515 29.7976 4.62908 29.3815 4.62891 28.827V26.8856C4.62891 26.331 5.04503 25.915 5.59961 25.9149H8.51172V23.9735C8.51172 23.4189 8.9278 23.0029 9.48242 23.0028H13.5039V9.13562H7.54102V14.1278C7.54102 14.6825 7.12499 15.0985 6.57031 15.0985H6.1543V16.9012C7.12498 17.1786 7.81836 18.1493 7.81836 19.12C7.81834 19.6747 7.67964 20.3681 7.125 20.7841C6.57038 21.2 6.01556 21.3387 5.46094 21.3387C4.49034 21.3387 3.65816 20.784 3.24219 19.952C3.10365 19.8134 3.10372 19.536 3.24219 19.3973C3.38082 19.2587 3.3811 19.12 3.6582 18.9813C3.79685 18.8427 4.0742 18.8427 4.21289 18.9813C4.35156 19.12 4.49024 19.12 4.62891 19.3973C4.76755 19.8132 5.18361 19.952 5.46094 19.952C6.01558 19.952 6.43159 19.5359 6.43164 18.9813C6.43164 18.4266 6.01561 18.0106 5.46094 18.0106C5.04506 18.0105 4.7676 17.7332 4.76758 17.3173V14.9598H4.62891C4.07434 14.9597 3.6582 14.5437 3.6582 13.9891V9.13562C2.96504 9.13552 2.6875 8.71953 2.6875 8.16492V6.22351C2.68762 5.66903 3.10373 5.25293 3.6582 5.25281H10.6807Z" fill="url(#paint1_linear_1041_6654)"/>
<defs>
<linearGradient id="paint0_linear_1041_6654" x1="19.3341" y1="12.9417" x2="3.20089" y2="2.55488" gradientUnits="userSpaceOnUse">
<stop stop-color="#7AD100"/>
<stop offset="1" stop-color="#D8FFA1"/>
</linearGradient>
<linearGradient id="paint1_linear_1041_6654" x1="26.0358" y1="26.0033" x2="10.749" y2="27.0891" gradientUnits="userSpaceOnUse">
<stop stop-color="#CDFF87"/>
<stop offset="1" stop-color="#C1FD6C" stop-opacity="0.1"/>
</linearGradient>
</defs>
</svg>
