<svg width="32" height="32" viewBox="0 0 32 32" fill="none" xmlns="http://www.w3.org/2000/svg">
<path d="M14.3306 7.93583C14.7678 7.95386 15.2042 7.88433 15.6141 7.73134C16.0241 7.57834 16.3993 7.34497 16.7178 7.04492C17.0363 6.74487 17.2916 6.3842 17.4688 5.9841C17.6459 5.58399 17.7413 5.15252 17.7494 4.71502C17.7574 4.27753 17.678 3.84283 17.5157 3.43648C17.3534 3.03012 17.1115 2.66029 16.8043 2.34872C16.4971 2.03715 16.1307 1.79011 15.7266 1.62213C15.3226 1.45415 14.8891 1.3686 14.4515 1.37051C13.5935 1.37427 12.771 1.71368 12.16 2.31612C11.5491 2.91857 11.1982 3.7362 11.1824 4.59408C11.1666 5.45196 11.4871 6.28196 12.0755 6.90649C12.6639 7.53102 13.4733 7.90048 14.3306 7.93583ZM10.6317 21.0609C10.6317 21.0609 6.68823 19.1348 5.11549 18.7683C4.95095 18.7308 4.7783 18.7581 4.63336 18.8445C4.48841 18.931 4.3823 19.0699 4.33704 19.2324C3.85246 21.0116 1.87234 27.5677 1.26968 29.7357C1.24284 29.8328 1.23885 29.9348 1.25801 30.0337C1.27717 30.1326 1.31897 30.2258 1.38013 30.3059C1.44129 30.3859 1.52015 30.4508 1.61055 30.4953C1.70094 30.5398 1.80041 30.5628 1.90118 30.5625H3.05169C3.18062 30.5632 3.30681 30.5253 3.41404 30.4537C3.52126 30.3821 3.60463 30.28 3.65343 30.1607C4.31657 28.5712 6.25574 22.7286 6.54965 22.7286C8.75392 22.7146 10.6075 25.5634 10.5359 26.4172C10.4439 27.47 9.84209 28.7386 9.37146 29.5915C9.31683 29.6911 9.28902 29.8032 9.29077 29.9169C9.29252 30.0305 9.32376 30.1417 9.38144 30.2396C9.43911 30.3375 9.52124 30.4187 9.61977 30.4753C9.71829 30.5319 9.82984 30.562 9.94347 30.5625H11.2614C11.4902 30.5625 11.7059 30.4416 11.8231 30.2426C13.0127 28.241 13.4089 27.0059 13.4126 26.2628C13.4275 24.4185 11.6297 21.5213 10.6317 21.0609Z" fill="url(#paint0_linear_1041_6572)"/>
<path d="M9.38956 7.29522C9.62383 7.28343 9.8574 7.33523 10.0644 7.44561L14.1435 9.60675C14.1981 9.63265 14.2484 9.66823 14.2909 9.71124C15.6088 11.0075 17.4098 19.0733 17.8153 21.431C17.8493 21.6145 17.8537 21.8028 17.8271 21.9876L19.0888 23.181L21.4726 19.8411C22.3646 18.2946 24.2244 17.1998 25.1181 18.7464L30.621 29.1595C30.7075 29.3085 30.7528 29.4783 30.7528 29.6507C30.7529 29.8229 30.7072 29.9919 30.621 30.1409C30.5346 30.2901 30.4102 30.4146 30.2607 30.5003C30.1112 30.5859 29.9416 30.6301 29.7694 30.6292H15.7421C15.6274 30.6291 15.5143 30.5988 15.415 30.5413C15.3159 30.4839 15.2339 30.4013 15.1767 30.3021C15.1194 30.2026 15.0887 30.0897 15.0888 29.9749C15.0889 29.8602 15.1192 29.7471 15.1767 29.6478L18.039 24.7806L10.8652 19.2874L10.9921 19.4573C10.8675 19.7679 10.9232 20.0983 10.5995 20.0071C9.44884 19.6804 6.46072 18.107 5.34269 17.6985C5.19076 17.643 5.06462 17.5331 4.98917 17.3899C4.91378 17.2469 4.89357 17.0808 4.93351 16.9241C5.01535 16.6033 4.82328 17.0996 5.038 16.4173C5.11984 16.155 5.02913 15.8708 4.81339 15.7034L2.37687 13.8235L1.67374 13.2562C1.48836 13.0727 1.3627 12.8373 1.31242 12.5814C1.26217 12.3253 1.29017 12.0597 1.39249 11.8196C1.91891 10.5771 2.86737 8.98453 3.20402 8.33721C3.25278 8.24657 3.32217 8.16819 3.40617 8.1087C3.49011 8.0493 3.58679 8.01034 3.68839 7.99444C4.72717 7.8382 7.9673 7.36412 9.38956 7.29522ZM13.7714 15.178C13.5881 14.5895 12.7678 14.5573 12.539 15.1292L11.663 17.2903L15.6122 20.5569C14.9063 19.0112 14.242 16.7061 13.7714 15.178ZM5.2382 9.9671C5.11686 9.96322 4.99668 9.99338 4.89152 10.054C4.78647 10.1146 4.6999 10.203 4.64249 10.3099C4.30115 10.9404 3.75024 12.1339 3.81535 12.1898L5.11906 13.4153C5.19652 13.4895 5.29118 13.5436 5.39445 13.5726C5.49782 13.6015 5.60704 13.6046 5.71183 13.5814C5.81666 13.5581 5.91453 13.5097 5.99601 13.4398C6.07751 13.3698 6.14074 13.2801 6.1796 13.18C6.55242 12.2186 6.83992 11.5455 7.15421 10.9671C7.3858 10.5384 7.08512 10.0155 6.60148 10.0062L5.2382 9.9671Z" fill="url(#paint1_linear_1041_6572)"/>
<path d="M23.9736 18.0001C24.4149 18.0094 24.821 18.2304 25.1191 18.7462L30.6211 29.1603C30.7075 29.3092 30.7528 29.4783 30.7529 29.6505C30.753 29.8229 30.7075 29.9926 30.6211 30.1417C30.5416 30.2789 30.4287 30.3924 30.2949 30.4767C29.8158 30.576 29.3192 30.629 28.8105 30.629C24.8022 30.6288 21.5527 27.3897 21.5527 23.3937C21.5528 21.2503 22.4882 19.325 23.9736 18.0001Z" fill="url(#paint2_linear_1041_6572)"/>
<defs>
<linearGradient id="paint0_linear_1041_6572" x1="16.3213" y1="4.55638" x2="16.0972" y2="30.6639" gradientUnits="userSpaceOnUse">
<stop offset="0.747174" stop-color="#00AFD1"/>
<stop offset="1" stop-color="#A1EFFF"/>
</linearGradient>
<linearGradient id="paint1_linear_1041_6572" x1="19.7107" y1="16.3751" x2="4.94072" y2="3.9307" gradientUnits="userSpaceOnUse">
<stop stop-color="#00AFD1"/>
<stop offset="1" stop-color="#A1EFFF"/>
</linearGradient>
<linearGradient id="paint2_linear_1041_6572" x1="27.3684" y1="29.8059" x2="15.0894" y2="29.8059" gradientUnits="userSpaceOnUse">
<stop stop-color="#00B4D8"/>
<stop offset="1" stop-color="#1FDAFF"/>
</linearGradient>
</defs>
</svg>
