<svg width="32" height="32" viewBox="0 0 32 32" fill="none" xmlns="http://www.w3.org/2000/svg">
<path d="M15.3601 24.2667C15.3601 20 18.8321 16.5333 23.0934 16.5333C24.2881 16.5333 25.4187 16.816 26.4321 17.3013V3.99998C26.4321 2.38398 25.1147 1.06665 23.4987 1.06665H5.15208C4.37455 1.06806 3.62926 1.37756 3.07946 1.92736C2.52966 2.47716 2.22016 3.22245 2.21875 3.99998V28C2.21875 29.616 3.53608 30.9333 5.15208 30.9333H19.1947C16.9067 29.5893 15.3601 27.1093 15.3601 24.2667Z" fill="url(#paint0_linear_1041_5007)"/>
<mask id="mask0_1041_5007" style="mask-type:alpha" maskUnits="userSpaceOnUse" x="2" y="1" width="25" height="30">
<path d="M15.3601 24.2667C15.3601 20 18.8321 16.5333 23.0934 16.5333C24.2881 16.5333 25.4187 16.816 26.4321 17.3013V3.99998C26.4321 2.38398 25.1147 1.06665 23.4987 1.06665H5.15208C4.37455 1.06806 3.62926 1.37756 3.07946 1.92736C2.52966 2.47716 2.22016 3.22245 2.21875 3.99998V28C2.21875 29.616 3.53608 30.9333 5.15208 30.9333H19.1947C16.9067 29.5893 15.3601 27.1093 15.3601 24.2667Z" fill="url(#paint1_linear_1041_5007)"/>
</mask>
<g mask="url(#mask0_1041_5007)">
<ellipse cx="7.6716" cy="26.0146" rx="14.7561" ry="7.90968" transform="rotate(42.7999 7.6716 26.0146)" fill="url(#paint2_linear_1041_5007)"/>
</g>
<path d="M20.7144 6.6181C21.2241 6.61822 21.6375 7.03145 21.6375 7.54118C21.6375 8.05091 21.2241 8.46414 20.7144 8.46426H7.93675C7.42695 8.46426 7.01367 8.05098 7.01367 7.54118C7.01367 7.03138 7.42695 6.6181 7.93675 6.6181H20.7144Z" fill="#E8F2FE"/>
<path d="M15.6567 12.1566C16.1665 12.1566 16.5798 12.5698 16.5798 13.0796C16.5798 13.5894 16.1665 14.0027 15.6567 14.0027H7.93675C7.42695 14.0027 7.01367 13.5894 7.01367 13.0796C7.01367 12.5698 7.42695 12.1566 7.93675 12.1566H15.6567Z" fill="#E8F2FE"/>
<path d="M23.0934 30.9333C19.4188 30.9333 16.4268 27.9413 16.4268 24.2666C16.4268 20.592 19.4188 17.6 23.0934 17.6C26.7681 17.6 29.7601 20.592 29.7601 24.2666C29.7601 27.9413 26.7734 30.9333 23.0934 30.9333ZM23.0934 19.4506C20.4374 19.4506 18.2774 21.6106 18.2774 24.2666C18.2774 26.9226 20.4374 29.0826 23.0934 29.0826C25.7494 29.0826 27.9094 26.9226 27.9094 24.2666C27.9094 21.6106 25.7494 19.4506 23.0934 19.4506Z" fill="url(#paint3_linear_1041_5007)"/>
<path fill-rule="evenodd" clip-rule="evenodd" d="M20.9535 20.9219C21.2145 20.7044 21.6025 20.7393 21.8201 21L23.0929 22.5265L24.3658 21C24.5833 20.739 24.9713 20.7044 25.2323 20.9219C25.4934 21.1395 25.5292 21.5274 25.3117 21.7885L24.4078 22.8726H25.1879C25.5276 22.8726 25.8031 23.1483 25.8033 23.488C25.8033 23.8279 25.5277 24.1034 25.1879 24.1034H23.7095V24.9676H25.1879C25.5277 24.9676 25.8033 25.2431 25.8033 25.583C25.8033 25.9228 25.5277 26.1983 25.1879 26.1983H23.7095V27.6767C23.7095 28.0165 23.4338 28.2919 23.0941 28.2921C22.7543 28.2921 22.4787 28.0166 22.4787 27.6767V26.1983H20.9992C20.6593 26.1983 20.3838 25.9228 20.3838 25.583C20.3838 25.2431 20.6593 24.9676 20.9992 24.9676H22.4787V24.1034H20.9992C20.6593 24.1034 20.3838 23.8279 20.3838 23.488C20.384 23.1483 20.6594 22.8726 20.9992 22.8726H21.7792L20.8754 21.7885C20.658 21.5277 20.6932 21.1396 20.9535 20.9219Z" fill="url(#paint4_linear_1041_5007)"/>
<defs>
<linearGradient id="paint0_linear_1041_5007" x1="25.0376" y1="29.7876" x2="-1.55804" y2="6.65288" gradientUnits="userSpaceOnUse">
<stop stop-color="#A1C3FF"/>
<stop offset="0.494922" stop-color="#2573FD"/>
</linearGradient>
<linearGradient id="paint1_linear_1041_5007" x1="2.91332" y1="32.2837" x2="4.06326" y2="14.9367" gradientUnits="userSpaceOnUse">
<stop stop-color="#6CA1FD" stop-opacity="0.2"/>
<stop offset="1" stop-color="#87C1FF" stop-opacity="0.6"/>
</linearGradient>
<linearGradient id="paint2_linear_1041_5007" x1="-6.23792" y1="34.6396" x2="-5.97229" y2="25.4187" gradientUnits="userSpaceOnUse">
<stop stop-color="#6CA1FD" stop-opacity="0.2"/>
<stop offset="1" stop-color="#87C1FF" stop-opacity="0.6"/>
</linearGradient>
<linearGradient id="paint3_linear_1041_5007" x1="28.9922" y1="30.4218" x2="17.0333" y2="17.5903" gradientUnits="userSpaceOnUse">
<stop stop-color="#A1C3FF"/>
<stop offset="0.494922" stop-color="#2573FD"/>
</linearGradient>
<linearGradient id="paint4_linear_1041_5007" x1="25.4911" y1="28.0039" x2="18.9516" y2="22.9425" gradientUnits="userSpaceOnUse">
<stop offset="0.505078" stop-color="#2573FD"/>
<stop offset="1" stop-color="#A1C3FF"/>
</linearGradient>
</defs>
</svg>
