<svg width="32" height="32" viewBox="0 0 32 32" fill="none" xmlns="http://www.w3.org/2000/svg">
<path d="M15.9976 30.9625C9.2334 30.9625 3.75684 28.3507 3.75684 20.0872C3.75684 11.8238 15.9976 1.03748 15.9976 1.03748C15.9976 1.03748 28.2429 11.8238 28.2429 20.0872C28.2429 28.3507 22.7626 30.9625 15.9994 30.9625H15.9976Z" fill="url(#paint0_linear_1041_5143)"/>
<mask id="mask0_1041_5143" style="mask-type:alpha" maskUnits="userSpaceOnUse" x="3" y="1" width="26" height="30">
<path d="M15.9976 30.9625C9.2334 30.9625 3.75684 28.3507 3.75684 20.0872C3.75684 11.8238 15.9976 1.03748 15.9976 1.03748C15.9976 1.03748 28.2429 11.8238 28.2429 20.0872C28.2429 28.3507 22.7626 30.9625 15.9994 30.9625H15.9976Z" fill="url(#paint1_linear_1041_5143)"/>
</mask>
<g mask="url(#mask0_1041_5143)">
<ellipse cx="21.4728" cy="12.9887" rx="13.6776" ry="10.5064" transform="rotate(49.3245 21.4728 12.9887)" fill="url(#paint2_linear_1041_5143)"/>
</g>
<path d="M14.4425 10.3728C14.4716 10.2943 14.5464 10.2422 14.6301 10.2422H19.0883C19.2408 10.2422 19.3372 10.4061 19.2631 10.5394L16.576 15.3762C16.502 15.5095 16.5984 15.6733 16.7509 15.6733H20.156C20.3149 15.6733 20.4103 15.8496 20.3235 15.9826L14.4896 24.9211C14.3701 25.1042 14.0855 24.9901 14.1255 24.7752L15.2698 18.6254C15.2926 18.5024 15.1982 18.3888 15.0731 18.3888H11.761C11.6217 18.3888 11.5251 18.25 11.5734 18.1194L14.4425 10.3728Z" fill="#F3FDFF"/>
<defs>
<linearGradient id="paint0_linear_1041_5143" x1="15.9998" y1="24.7979" x2="32.3711" y2="0.543778" gradientUnits="userSpaceOnUse">
<stop stop-color="#00AFD1"/>
<stop offset="1" stop-color="#A1EFFF"/>
</linearGradient>
<linearGradient id="paint1_linear_1041_5143" x1="34.9372" y1="17.7014" x2="10.2192" y2="10.3869" gradientUnits="userSpaceOnUse">
<stop offset="0.0532928" stop-color="#00B4D8"/>
<stop offset="1" stop-color="#1FDAFF"/>
</linearGradient>
<linearGradient id="paint2_linear_1041_5143" x1="42.6292" y1="14.1834" x2="18.0458" y2="2.60947" gradientUnits="userSpaceOnUse">
<stop offset="0.0532928" stop-color="#00B4D8"/>
<stop offset="1" stop-color="#1FDAFF"/>
</linearGradient>
</defs>
</svg>
