<svg width="32" height="32" viewBox="0 0 32 32" fill="none" xmlns="http://www.w3.org/2000/svg">
<path d="M28.8255 8.45803C29.3352 8.45803 29.743 8.05025 29.743 7.55752V3.22487C29.743 2.71515 29.3352 2.30737 28.8255 2.30737H24.4929C23.9831 2.30737 23.5754 2.71515 23.5754 3.22487V4.21034H8.50456V3.22487C8.50456 2.71515 8.09678 2.30737 7.58706 2.30737H3.25442C2.74469 2.30737 2.33691 2.71515 2.33691 3.22487V7.54053C2.33691 8.05025 2.74469 8.45803 3.25442 8.45803H4.30784V23.4609H3.25442C2.74469 23.4609 2.33691 23.8687 2.33691 24.3784V28.711C2.33691 29.2207 2.74469 29.6285 3.25442 29.6285H7.58706C8.07979 29.6285 8.48757 29.2207 8.50456 28.711V27.6236H23.5754V28.711C23.5754 29.2207 23.9831 29.6285 24.4929 29.6285H28.8255C29.3352 29.6285 29.743 29.2207 29.743 28.711V24.3784C29.743 23.8687 29.3352 23.4609 28.8255 23.4609H27.7211V8.45803H28.8255ZM25.4104 4.12538H27.908V6.62303H25.4104V4.12538ZM4.17192 4.12538H6.66956V6.62303H4.17192V4.12538ZM6.66956 27.7935H4.17192V25.2959H6.66956V27.7935ZM27.908 27.7935H25.4104V25.2959H27.908V27.7935Z" fill="url(#paint0_linear_1041_6043)"/>
<mask id="mask0_1041_6043" style="mask-type:alpha" maskUnits="userSpaceOnUse" x="2" y="2" width="28" height="28">
<path d="M28.8255 8.45803C29.3352 8.45803 29.743 8.05025 29.743 7.55752V3.22487C29.743 2.71515 29.3352 2.30737 28.8255 2.30737H24.4929C23.9831 2.30737 23.5754 2.71515 23.5754 3.22487V4.21034H8.50456V3.22487C8.50456 2.71515 8.09678 2.30737 7.58706 2.30737H3.25442C2.74469 2.30737 2.33691 2.71515 2.33691 3.22487V7.54053C2.33691 8.05025 2.74469 8.45803 3.25442 8.45803H4.30784V23.4609H3.25442C2.74469 23.4609 2.33691 23.8687 2.33691 24.3784V28.711C2.33691 29.2207 2.74469 29.6285 3.25442 29.6285H7.58706C8.07979 29.6285 8.48757 29.2207 8.50456 28.711V27.6236H23.5754V28.711C23.5754 29.2207 23.9831 29.6285 24.4929 29.6285H28.8255C29.3352 29.6285 29.743 29.2207 29.743 28.711V24.3784C29.743 23.8687 29.3352 23.4609 28.8255 23.4609H27.7211V8.45803H28.8255ZM25.4104 4.12538H27.908V6.62303H25.4104V4.12538ZM4.17192 4.12538H6.66956V6.62303H4.17192V4.12538ZM6.66956 27.7935H4.17192V25.2959H6.66956V27.7935ZM27.908 27.7935H25.4104V25.2959H27.908V27.7935Z" fill="url(#paint1_linear_1041_6043)"/>
</mask>
<g mask="url(#mask0_1041_6043)">
<ellipse cx="23.0249" cy="23.9651" rx="16.9048" ry="12.9216" transform="rotate(-51.8918 23.0249 23.9651)" fill="url(#paint2_linear_1041_6043)"/>
</g>
<path d="M20.9818 13.7797V22.3089H19.7362V21.6049H12.4119V22.3089H11.1664V13.7797H20.9818ZM12.4119 20.4H15.4445V18.288H12.4119V20.4ZM16.6901 20.4H19.7362V18.288H16.6901V20.4ZM12.4119 17.1101H15.4445V14.971H12.4119V17.1101ZM16.6901 14.971V17.1101H19.7362V14.971H16.6901ZM10.0156 11.3292H15.4716C15.3092 10.9682 15.088 10.571 14.8082 10.1378L16.0267 9.69104C16.2884 10.1333 16.5457 10.6793 16.7984 11.3292H22.0649V12.5747H10.0156V11.3292Z" fill="#E8F2FE"/>
<defs>
<linearGradient id="paint0_linear_1041_6043" x1="19.5103" y1="27.1043" x2="8.9309" y2="-1.12064" gradientUnits="userSpaceOnUse">
<stop offset="0.416179" stop-color="#2573FD"/>
<stop offset="1" stop-color="#A1C3FF"/>
</linearGradient>
<linearGradient id="paint1_linear_1041_6043" x1="19.5103" y1="27.1043" x2="10.1958" y2="1.74733" gradientUnits="userSpaceOnUse">
<stop offset="0.416179" stop-color="#2573FD"/>
<stop offset="1" stop-color="#A1C3FF"/>
</linearGradient>
<linearGradient id="paint2_linear_1041_6043" x1="37.3279" y1="36.8867" x2="9.94685" y2="32.8009" gradientUnits="userSpaceOnUse">
<stop stop-color="#6CA1FD" stop-opacity="0.2"/>
<stop offset="1" stop-color="#87C1FF"/>
</linearGradient>
</defs>
</svg>
