<svg width="32" height="32" viewBox="0 0 32 32" fill="none" xmlns="http://www.w3.org/2000/svg">
<path d="M24.4227 4.48877L22.8449 4.49926C22.2923 4.50212 21.8406 4.058 21.8355 3.50292C21.8301 2.95325 22.2768 2.5015 22.8293 2.49609L26.8512 2.46685C27.1103 2.4643 27.3694 2.56222 27.5675 2.76028C27.6654 2.8582 27.7391 2.97169 27.7868 3.09059C27.8316 3.19614 27.8609 3.32839 27.8609 3.46859V7.49622C27.8609 8.04875 27.4117 8.49796 26.8595 8.49796C26.3073 8.49796 25.8577 8.04875 25.8577 7.49622V5.88949L16.8777 14.8692C16.5842 15.1627 16.1404 15.2447 15.7624 15.0753L3.73293 9.73178C3.22808 9.50702 2.99823 8.91506 3.223 8.40768C3.44744 7.90283 4.03971 7.67298 4.5471 7.89774L15.9452 12.9637L24.4227 4.48877Z" fill="url(#paint0_linear_1041_6005)"/>
<path d="M26.8589 12.1579C27.9662 12.1579 28.8646 13.0563 28.8646 14.1636V27.5277C28.8646 28.635 27.9662 29.5334 26.8589 29.5334H24.1872C23.0799 29.5334 22.1811 28.635 22.1811 27.5277V14.1611C22.1811 13.0538 23.0795 12.155 24.1872 12.155H26.8589V12.1579ZM8.14815 14.8296C9.25544 14.8296 10.1539 15.728 10.1539 16.8353V27.5251C10.1539 28.6324 9.25544 29.5312 8.14815 29.5312H5.47641C4.36912 29.5312 3.4707 28.6328 3.4707 27.5251V16.8328C3.4707 15.7255 4.36912 14.8268 5.47641 14.8268H8.14815V14.8296ZM17.5034 17.5014C18.6106 17.5014 19.5091 18.3998 19.5091 19.5071V27.5251C19.5091 28.6324 18.6106 29.5312 17.5034 29.5312H14.8316C13.7243 29.5312 12.8256 28.6328 12.8256 27.5251V19.5071C12.8256 18.3998 13.724 17.5014 14.8316 17.5014H17.5034Z" fill="url(#paint1_linear_1041_6005)"/>
<mask id="mask0_1041_6005" style="mask-type:alpha" maskUnits="userSpaceOnUse" x="3" y="12" width="26" height="18">
<path d="M26.8579 12.1579C27.9652 12.1579 28.8636 13.0563 28.8636 14.1636V27.5277C28.8636 28.635 27.9652 29.5334 26.8579 29.5334H24.1862C23.0789 29.5334 22.1801 28.635 22.1801 27.5277V14.1611C22.1801 13.0538 23.0786 12.155 24.1862 12.155H26.8579V12.1579ZM8.14717 14.8296C9.25446 14.8296 10.1529 15.728 10.1529 16.8353V27.5251C10.1529 28.6324 9.25446 29.5312 8.14717 29.5312H5.47544C4.36815 29.5312 3.46973 28.6328 3.46973 27.5251V16.8328C3.46973 15.7255 4.36815 14.8268 5.47544 14.8268H8.14717V14.8296ZM17.5024 17.5014C18.6097 17.5014 19.5081 18.3998 19.5081 19.5071V27.5251C19.5081 28.6324 18.6097 29.5312 17.5024 29.5312H14.8306C13.7234 29.5312 12.8246 28.6328 12.8246 27.5251V19.5071C12.8246 18.3998 13.723 17.5014 14.8306 17.5014H17.5024Z" fill="url(#paint2_linear_1041_6005)"/>
</mask>
<g mask="url(#mask0_1041_6005)">
<ellipse cx="14.1993" cy="7.60674" rx="14.1993" ry="7.60674" transform="matrix(-0.994626 -0.103533 -0.085992 0.996296 24.7158 22.272)" fill="url(#paint3_linear_1041_6005)"/>
</g>
<defs>
<linearGradient id="paint0_linear_1041_6005" x1="27.8609" y1="11.6786" x2="16.2627" y2="-5.74278" gradientUnits="userSpaceOnUse">
<stop stop-color="#FC4FD0"/>
<stop offset="1" stop-color="#FEA5E8"/>
</linearGradient>
<linearGradient id="paint1_linear_1041_6005" x1="28.8646" y1="24.7645" x2="11.7787" y2="5.50771" gradientUnits="userSpaceOnUse">
<stop stop-color="#FC4FD0"/>
<stop offset="1" stop-color="#FEA5E8"/>
</linearGradient>
<linearGradient id="paint2_linear_1041_6005" x1="28.8636" y1="24.7645" x2="11.7778" y2="5.50771" gradientUnits="userSpaceOnUse">
<stop stop-color="#FC4FD0"/>
<stop offset="1" stop-color="#FEA5E8"/>
</linearGradient>
<linearGradient id="paint3_linear_1041_6005" x1="18.7874" y1="5.45631" x2="14.8642" y2="14.6728" gradientUnits="userSpaceOnUse">
<stop offset="0.0604203" stop-color="#FFA7E9"/>
<stop offset="1" stop-color="#FE82DF"/>
</linearGradient>
</defs>
</svg>
