<svg width="32" height="32" viewBox="0 0 32 32" fill="none" xmlns="http://www.w3.org/2000/svg">
<path d="M25.5826 5.90326C25.5803 5.90087 25.577 5.89954 25.5737 5.89954H25.446C25.2688 5.89954 25.1251 6.04322 25.1251 6.22047V7.67774C25.1251 7.92839 25.3283 8.13159 25.5789 8.13159C25.8137 8.13159 26.0389 8.22487 26.205 8.39091C26.371 8.55695 26.4643 8.78215 26.4643 9.01697V13.5704C26.4643 14.0465 25.9881 14.1507 25.5789 14.1507H13.2952C12.9327 14.1507 12.5848 14.2936 12.3271 14.5486C12.0694 14.8035 11.9227 15.1498 11.9188 15.5122V20.6683C11.9188 20.9806 11.6656 21.2337 11.3533 21.2337C11.153 21.2206 10.9521 21.2482 10.7628 21.3148C10.5734 21.3813 10.3995 21.4855 10.2514 21.621C10.1033 21.7566 9.98425 21.9207 9.90127 22.1035C9.81829 22.2862 9.77314 22.4839 9.76855 22.6846V28.7037C9.78408 29.1102 9.95907 29.4943 10.2557 29.7728C10.5523 30.0513 10.9466 30.2018 11.3533 30.1917H14.8204C15.2297 30.2058 15.6278 30.0571 15.9277 29.7782C16.2275 29.4993 16.4046 29.1129 16.4201 28.7037V22.6771C16.4143 22.4745 16.3685 22.2751 16.2851 22.0903C16.2018 21.9056 16.0826 21.7392 15.9345 21.6008C15.7865 21.4624 15.6124 21.3548 15.4224 21.2841C15.2325 21.2134 15.0304 21.1811 14.8279 21.1891C14.5197 21.1891 14.2699 20.9393 14.2699 20.6311V17.1268C14.2699 17.0291 14.2891 16.9323 14.3265 16.842C14.3639 16.7518 14.4187 16.6697 14.4878 16.6007C14.5569 16.5316 14.6389 16.4768 14.7292 16.4394C14.8194 16.402 14.9162 16.3827 15.0139 16.3827H25.6533C26.4136 16.3997 27.1575 16.1613 27.7663 15.7057C28.0893 15.4524 28.3493 15.1278 28.5261 14.7574C28.7029 14.387 28.7918 13.9808 28.7856 13.5704V9.02441C28.7837 8.61307 28.7007 8.20614 28.5415 7.82685C28.3823 7.44757 28.1499 7.10336 27.8577 6.81388C27.5655 6.5244 27.2191 6.29531 26.8383 6.13971C26.4575 5.9841 26.0498 5.90502 25.6384 5.90698H25.5916C25.5883 5.90698 25.585 5.90564 25.5826 5.90326Z" fill="url(#paint0_linear_1041_6623)"/>
<path d="M8.18751 14.4768V16.298C8.18751 16.5325 7.99869 16.7264 7.76697 16.7264C7.53602 16.7264 7.34721 16.5326 7.34721 16.298V14.3195C7.19244 14.4818 7.01179 14.6163 6.81292 14.7172V19.5557C6.81292 20.0029 6.45392 20.3686 6.01486 20.3686C5.5757 20.3686 5.2168 20.0029 5.2168 19.5557V14.7827C4.49437 14.4885 3.98438 13.7702 3.98438 12.9295C3.98438 12.8596 3.98793 12.7912 3.99474 12.7227H11.6274C11.6295 12.749 11.6303 12.7752 11.6303 12.8014C11.6303 13.5692 11.0195 14.1913 10.2671 14.1913C9.9355 14.1917 9.61521 14.0683 9.36675 13.8446C9.12005 14.2263 8.69597 14.4783 8.21458 14.4783L8.18751 14.4768Z" fill="url(#paint1_linear_1041_6623)"/>
<path d="M24.6234 10.0884C24.6213 10.0884 24.6196 10.0867 24.6196 10.0846V3.78658C24.6316 3.27277 24.4394 2.77517 24.0852 2.40281C23.731 2.03045 23.2436 1.81369 22.7298 1.80005H5.13379C4.87716 1.80392 4.62381 1.85843 4.3883 1.96046C4.15279 2.06249 3.93974 2.21003 3.76139 2.3946C3.58304 2.57917 3.44289 2.79715 3.34899 3.03602C3.2551 3.2749 3.2093 3.52996 3.21423 3.78658V10.0884C3.21029 10.3444 3.25682 10.5987 3.35116 10.8367C3.4455 11.0747 3.58581 11.2918 3.76406 11.4756C3.94231 11.6593 4.15503 11.8062 4.39005 11.9078C4.62507 12.0093 4.87779 12.0636 5.13379 12.0675H22.7224C22.9774 12.0627 23.229 12.0076 23.4627 11.9055C23.6965 11.8034 23.9078 11.6563 24.0847 11.4725C24.2616 11.2887 24.4005 11.0719 24.4936 10.8344C24.5862 10.5981 24.6315 10.3459 24.6271 10.0921C24.6271 10.09 24.6254 10.0884 24.6234 10.0884Z" fill="url(#paint2_linear_1041_6623)"/>
<mask id="mask0_1041_6623" style="mask-type:alpha" maskUnits="userSpaceOnUse" x="3" y="1" width="22" height="12">
<path d="M24.6234 10.0884C24.6213 10.0884 24.6196 10.0867 24.6196 10.0846V3.78658C24.6316 3.27277 24.4394 2.77517 24.0852 2.40281C23.731 2.03045 23.2436 1.81369 22.7298 1.80005H5.13379C4.87716 1.80392 4.62381 1.85843 4.3883 1.96046C4.15279 2.06249 3.93974 2.21003 3.76139 2.3946C3.58304 2.57917 3.44289 2.79715 3.34899 3.03602C3.2551 3.2749 3.2093 3.52996 3.21423 3.78658V10.0884C3.21029 10.3444 3.25682 10.5987 3.35116 10.8367C3.4455 11.0747 3.58581 11.2918 3.76406 11.4756C3.94231 11.6593 4.15503 11.8062 4.39005 11.9078C4.62507 12.0093 4.87779 12.0636 5.13379 12.0675H22.7224C22.9774 12.0627 23.229 12.0076 23.4627 11.9055C23.6965 11.8034 23.9078 11.6563 24.0847 11.4725C24.2616 11.2887 24.4005 11.0719 24.4936 10.8344C24.5862 10.5981 24.6315 10.3459 24.6271 10.0921C24.6271 10.09 24.6254 10.0884 24.6234 10.0884Z" fill="url(#paint3_linear_1041_6623)"/>
</mask>
<g mask="url(#mask0_1041_6623)">
<path d="M18.8203 3.98547C22.6217 3.98547 25.703 6.52288 25.7031 9.65344C25.7031 12.7841 22.6218 15.3224 18.8203 15.3224C17.9622 15.3224 17.1414 15.1905 16.3838 14.9542C16.0909 17.8097 13.6789 20.0371 10.7461 20.0372C7.61558 20.0372 5.07733 17.4997 5.07715 14.3693C5.07715 11.2386 7.61547 8.70032 10.7461 8.70032C11.1799 8.70034 11.602 8.75059 12.0078 8.8429C12.4855 6.09639 15.3532 3.98552 18.8203 3.98547Z" fill="url(#paint4_linear_1041_6623)"/>
</g>
<defs>
<linearGradient id="paint0_linear_1041_6623" x1="17.0921" y1="22.5533" x2="7.7258" y2="8.24935" gradientUnits="userSpaceOnUse">
<stop stop-color="#FC944F"/>
<stop offset="1" stop-color="#FEC9A5"/>
</linearGradient>
<linearGradient id="paint1_linear_1041_6623" x1="6.92879" y1="17.9642" x2="4.31769" y2="12.8704" gradientUnits="userSpaceOnUse">
<stop stop-color="#FC944F"/>
<stop offset="1" stop-color="#FEC9A5"/>
</linearGradient>
<linearGradient id="paint2_linear_1041_6623" x1="20.2895" y1="6.77547" x2="11.4736" y2="-8.22194" gradientUnits="userSpaceOnUse">
<stop stop-color="#FC944F"/>
<stop offset="1" stop-color="#FEC9A5"/>
</linearGradient>
<linearGradient id="paint3_linear_1041_6623" x1="20.2474" y1="6.93377" x2="9.34461" y2="-2.84811" gradientUnits="userSpaceOnUse">
<stop stop-color="#FC944F"/>
<stop offset="1" stop-color="#FEC9A5"/>
</linearGradient>
<linearGradient id="paint4_linear_1041_6623" x1="26.0926" y1="18.9344" x2="5.31367" y2="18.9344" gradientUnits="userSpaceOnUse">
<stop stop-color="#FFC39C"/>
<stop offset="1" stop-color="#FDB17F" stop-opacity="0.6"/>
</linearGradient>
</defs>
</svg>
