<svg width="32" height="32" viewBox="0 0 32 32" fill="none" xmlns="http://www.w3.org/2000/svg">
<path d="M11.1608 6.35724H20.8391C21.5053 6.35724 22.049 5.81381 22.049 5.1476V2.72807H18.4196V2.28269C18.4196 1.86183 18.076 1.51819 17.6551 1.51819H14.3449C13.924 1.51819 13.5803 1.86183 13.5803 2.28269V2.72807H9.95117V5.1476C9.95117 5.81039 10.4946 6.35724 11.1608 6.35724Z" fill="url(#paint0_linear_1041_6209)"/>
<path d="M25.8142 2.69202H23.5268V6.68749C23.5268 7.63097 22.7555 8.40233 21.812 8.40233H10.1912C9.24774 8.40233 8.47638 7.63097 8.47638 6.68749V2.69202H6.18907C4.93445 2.69202 3.9082 3.71804 3.9082 4.97271V28.201C3.9082 29.4556 4.93445 30.4818 6.18907 30.4818L25.8109 30.4818C27.0655 30.4818 28.0918 29.4556 28.0918 28.201V4.97271C28.095 3.71807 27.0687 2.69202 25.8142 2.69202Z" fill="url(#paint1_linear_1041_6209)"/>
<path d="M18.7725 24.5552C22.1969 22.3399 25.8859 21.639 28.0918 22.5787V28.2008C28.0917 29.4553 27.0651 30.482 25.8105 30.482H13.5146C14.2672 28.4635 16.1445 26.2554 18.7725 24.5552Z" fill="url(#paint2_linear_1041_6209)"/>
<path d="M11.9556 11.6923C14.2061 11.8284 14.886 12.3902 13.9952 13.3775H16.4567V14.1947H10.0567V13.3775H12.7292C12.5886 13.3095 12.4479 13.0882 12.3072 12.7136C12.2135 12.3051 12.0494 12.0327 11.8149 11.8965L11.9556 11.6923ZM14.0655 14.5011H15.7534C15.4252 15.5905 14.8391 16.4247 13.9952 17.0035H16.4567V17.9227H9.8457V17.0035H13.5028C13.8779 16.0502 14.0655 15.216 14.0655 14.5011ZM11.1116 14.5011C12.3307 14.9777 12.9402 15.5225 12.9402 16.1353C12.8933 16.5438 12.6354 16.7822 12.1666 16.8503C11.6977 16.8843 11.4398 16.697 11.393 16.2885C11.393 15.6757 11.2289 15.1139 10.9006 14.6032L11.1116 14.5011ZM14.4875 18.3823L16.3864 18.7398L15.8941 19.2505V23.5403H13.9952V23.0807H12.5182V23.5403H10.549V18.5355H12.5182V18.9952H13.9248L14.4875 18.3823ZM12.5182 19.8633V22.3147H13.9952V19.8633H12.5182ZM16.949 11.8965H18.7776V12.4072H19.7622L20.3248 11.8965L22.1534 12.254L21.6611 12.6626C21.1922 14.3308 20.6765 15.6757 20.1138 16.697C21.286 17.1056 21.8955 17.7184 21.9424 18.5355V21.2933C22.0831 22.1785 21.4032 22.6381 19.9028 22.6722C19.5278 22.7402 19.3402 22.6551 19.3402 22.4168C19.3871 22.1785 19.223 21.9402 18.8479 21.7018V24H16.949V11.8965ZM19.8325 13.2754H18.8479V21.5486C19.8325 21.6848 20.2545 21.5657 20.1138 21.1911V18.2802C20.1607 17.7695 19.8794 17.3439 19.2699 17.0035C19.3168 16.8332 19.3637 16.5268 19.4105 16.0842C19.645 14.9607 19.7856 14.0244 19.8325 13.2754Z" fill="#F3FDFF"/>
<defs>
<linearGradient id="paint0_linear_1041_6209" x1="19.5405" y1="2.63588" x2="19.0973" y2="7.23807" gradientUnits="userSpaceOnUse">
<stop stop-color="#A1EFFF"/>
<stop offset="1" stop-color="#00AFD1"/>
</linearGradient>
<linearGradient id="paint1_linear_1041_6209" x1="19.6156" y1="10.1991" x2="2.5908" y2="1.43845" gradientUnits="userSpaceOnUse">
<stop stop-color="#00AFD1"/>
<stop offset="1" stop-color="#A1EFFF"/>
</linearGradient>
<linearGradient id="paint2_linear_1041_6209" x1="29.0175" y1="28.2996" x2="19.1426" y2="22.2159" gradientUnits="userSpaceOnUse">
<stop stop-color="#00B4D8"/>
<stop offset="1" stop-color="#1FDAFF"/>
</linearGradient>
</defs>
</svg>
