<svg width="32" height="32" viewBox="0 0 32 32" fill="none" xmlns="http://www.w3.org/2000/svg">
<path d="M27.553 23.7107C28.3159 23.7107 28.9389 24.3167 28.9389 25.0571C28.9389 25.7981 28.3159 26.4041 27.553 26.4041H23.047L24.5028 28.2891C24.6118 28.4298 24.6913 28.591 24.7365 28.7632C24.7817 28.9353 24.7917 29.1148 24.7658 29.2909C24.7399 29.467 24.6787 29.6361 24.5859 29.7879C24.4931 29.9398 24.3705 30.0713 24.2256 30.1747C23.9764 30.3564 23.6834 30.4439 23.3947 30.4439C23.1809 30.4449 22.9698 30.3968 22.7775 30.3035C22.5852 30.2101 22.4168 30.0739 22.2853 29.9054L19.5816 26.4041H12.4179L9.71478 29.9054C9.58329 30.0739 9.41494 30.2101 9.22264 30.3035C9.03034 30.3968 8.8192 30.4449 8.60544 30.4439C8.30673 30.4445 8.01556 30.3502 7.77389 30.1747C7.62925 30.0711 7.50696 29.9395 7.41433 29.7876C7.3217 29.6357 7.26063 29.4668 7.23476 29.2908C7.20888 29.1148 7.21875 28.9354 7.26375 28.7633C7.30876 28.5912 7.38799 28.4299 7.4967 28.2891L8.95253 26.4041H4.44647C3.6836 26.4041 3.06055 25.7981 3.06055 25.0571C3.06055 24.3167 3.6836 23.7107 4.44647 23.7107H27.553Z" fill="url(#paint0_linear_1041_4902)"/>
<rect x="3.05566" y="1.5589" width="25.8831" height="20.1969" rx="2" fill="url(#paint1_linear_1041_4902)"/>
<mask id="mask0_1041_4902" style="mask-type:alpha" maskUnits="userSpaceOnUse" x="3" y="1" width="26" height="21">
<rect x="3.05566" y="1.5589" width="25.8831" height="20.1969" rx="2" fill="url(#paint2_linear_1041_4902)"/>
</mask>
<g mask="url(#mask0_1041_4902)">
<ellipse cx="24.1299" cy="19.5751" rx="13.6748" ry="9.22251" fill="url(#paint3_linear_1041_4902)"/>
</g>
<path d="M12.4365 6.0285C12.7393 5.72681 13.2145 5.70301 13.5439 5.95819L13.623 6.02752L15.002 7.40838L14.0938 8.31756L14.6875 8.91034L15.5957 8.00213L17.3301 9.7326L16.4189 10.6437L17.0137 11.2365L17.9238 10.3264L18.9727 11.3742L19.6543 12.0607L18.7461 12.9689L19.3398 13.5627L20.248 12.6545L21.6289 14.0353C21.9309 14.338 21.9539 14.8136 21.6982 15.1428L21.6289 15.2219L19.5635 17.2873C19.2602 17.5881 18.7856 17.6113 18.4561 17.3566L18.377 17.2873L10.3711 9.28045C10.0688 8.97783 10.045 8.50134 10.3008 8.17205L10.3711 8.09295L12.4365 6.0285ZM14.9766 15.2219L12.8174 17.382L10.125 17.384L10.127 14.6916L12.2861 12.5314L14.9766 15.2219ZM18.791 6.0285C19.0937 5.72615 19.5703 5.70302 19.8994 5.95916L19.9775 6.02948L21.4805 7.53241C21.7827 7.83509 21.8059 8.3108 21.5498 8.63983L21.4805 8.71893L19.418 10.7814L16.7275 8.09198L18.791 6.0285Z" fill="url(#paint4_linear_1041_4902)"/>
<defs>
<linearGradient id="paint0_linear_1041_4902" x1="12.8589" y1="30.444" x2="16.5524" y2="21.6276" gradientUnits="userSpaceOnUse">
<stop stop-color="#FFA8E9"/>
<stop offset="0.878282" stop-color="#FF7BDD"/>
</linearGradient>
<linearGradient id="paint1_linear_1041_4902" x1="28.9387" y1="16.2135" x2="8.9409" y2="-3.55353" gradientUnits="userSpaceOnUse">
<stop stop-color="#FC4FD0"/>
<stop offset="1" stop-color="#FEA5E8"/>
</linearGradient>
<linearGradient id="paint2_linear_1041_4902" x1="28.9387" y1="10.3124" x2="2.7987" y2="20.8781" gradientUnits="userSpaceOnUse">
<stop stop-color="#FFABEA"/>
<stop offset="1" stop-color="#FD68D8"/>
</linearGradient>
<linearGradient id="paint3_linear_1041_4902" x1="37.8047" y1="18.3468" x2="11.4377" y2="30.6777" gradientUnits="userSpaceOnUse">
<stop stop-color="#FFABEA"/>
<stop offset="1" stop-color="#FD68D8"/>
</linearGradient>
<linearGradient id="paint4_linear_1041_4902" x1="15.9996" y1="5.78296" x2="15.9996" y2="17.5317" gradientUnits="userSpaceOnUse">
<stop stop-color="white"/>
<stop offset="1" stop-color="white" stop-opacity="0.8"/>
</linearGradient>
</defs>
</svg>
