<svg width="32" height="32" viewBox="0 0 32 32" fill="none" xmlns="http://www.w3.org/2000/svg">
<path d="M21.4651 16.0253C21.4651 14.3525 21.9672 12.7954 22.8286 11.4985C22.8301 11.4963 22.8309 11.4936 22.8309 11.4909C22.8309 11.4809 22.8412 11.4742 22.8504 11.4783L22.94 11.5189C23.9666 11.9696 25.1189 12.0452 26.1956 11.7325C27.2723 11.4198 28.2048 10.7387 28.8302 9.80825C29.4556 8.8778 29.7342 7.75717 29.6171 6.6422C29.5001 5.52724 28.9949 4.48887 28.1899 3.70856C27.3849 2.92826 26.3312 2.45565 25.2131 2.37333C24.0949 2.29102 22.9834 2.60423 22.0728 3.25824C21.1622 3.91225 20.5104 4.86544 20.2313 5.95124C19.9532 7.03334 20.0628 8.17854 20.5411 9.18803C20.5434 9.19284 20.5399 9.19839 20.5345 9.19839C20.5331 9.19839 20.5317 9.19881 20.5305 9.1996C19.2333 10.0616 17.6755 10.5624 16.0018 10.5624C14.3907 10.5653 12.8149 10.0911 11.473 9.1996C11.4719 9.19881 11.4705 9.19839 11.469 9.19839C11.4637 9.19839 11.4602 9.19284 11.4625 9.18803C11.9414 8.17823 12.0516 7.03248 11.7736 5.94975C11.4947 4.86332 10.8428 3.90946 9.9319 3.25493C9.02096 2.6004 7.90894 2.28685 6.79023 2.36908C5.67152 2.45131 4.6173 2.92409 3.81187 3.70479C3.00644 4.48548 2.50105 5.5244 2.38404 6.63993C2.26703 7.75547 2.54585 8.87664 3.17176 9.80744C3.79767 10.7382 4.73085 11.4195 5.80815 11.732C6.88545 12.0445 8.03834 11.9685 9.06527 11.5172L9.1523 11.4778C9.16265 11.4731 9.1744 11.4807 9.1744 11.492C9.1744 11.4951 9.1753 11.4981 9.17701 11.5007C10.0365 12.7957 10.5385 14.3527 10.5385 16.0253C10.5385 17.7014 10.0355 19.2581 9.1744 20.5556C9.17988 20.5465 9.17627 20.5346 9.16662 20.5301C8.15402 20.056 7.00706 19.9515 5.92512 20.2352C4.83676 20.5206 3.88386 21.1805 3.23397 22.099C2.58409 23.0174 2.27882 24.1356 2.37185 25.2568C2.46488 26.378 2.95025 27.4306 3.74262 28.2294C4.53498 29.0282 5.58362 29.5221 6.70413 29.6242C7.82465 29.7264 8.94532 29.4302 9.86908 28.7879C10.7928 28.1456 11.4606 27.1981 11.7548 26.1122C11.9738 25.3042 11.9756 24.4581 11.7673 23.6573C11.643 23.1796 11.7789 22.6426 12.2166 22.4142C13.3812 21.8062 14.6796 21.4866 16.0018 21.4882C17.6779 21.4882 19.2364 21.9912 20.5341 22.854C20.5295 22.8512 20.5236 22.8531 20.5214 22.8579C20.0511 23.8758 19.9536 25.0266 20.246 26.1093C20.5393 27.1951 21.206 28.1428 22.129 28.7857C23.0519 29.4286 24.172 29.7255 25.2923 29.6242C26.4126 29.523 27.4612 29.03 28.254 28.2321C29.0467 27.4341 29.5326 26.3822 29.6264 25.2614C29.7202 24.1406 29.4158 23.0226 28.7667 22.104C28.1177 21.1854 27.1655 20.525 26.0776 20.239C25.271 20.0269 24.428 20.0308 23.6314 20.2429C23.1509 20.3708 22.609 20.2351 22.3802 19.7937C21.7786 18.6332 21.4627 17.3409 21.4651 16.0253Z" fill="url(#paint0_linear_1041_6031)"/>
<mask id="mask0_1041_6031" style="mask-type:alpha" maskUnits="userSpaceOnUse" x="2" y="2" width="28" height="28">
<path d="M21.4651 16.0253C21.4651 14.3525 21.9672 12.7954 22.8286 11.4985C22.8301 11.4963 22.8309 11.4936 22.8309 11.4909C22.8309 11.4809 22.8412 11.4742 22.8504 11.4783L22.94 11.5189C23.9666 11.9696 25.1189 12.0452 26.1956 11.7325C27.2723 11.4198 28.2048 10.7387 28.8302 9.80825C29.4556 8.8778 29.7342 7.75717 29.6171 6.6422C29.5001 5.52724 28.9949 4.48887 28.1899 3.70856C27.3849 2.92826 26.3312 2.45565 25.2131 2.37333C24.0949 2.29102 22.9834 2.60423 22.0728 3.25824C21.1622 3.91225 20.5104 4.86544 20.2313 5.95124C19.9532 7.03334 20.0628 8.17854 20.5411 9.18803C20.5434 9.19284 20.5399 9.19839 20.5345 9.19839C20.5331 9.19839 20.5317 9.19881 20.5305 9.1996C19.2333 10.0616 17.6755 10.5624 16.0018 10.5624C14.3907 10.5653 12.8149 10.0911 11.473 9.1996C11.4719 9.19881 11.4705 9.19839 11.469 9.19839C11.4637 9.19839 11.4602 9.19284 11.4625 9.18803C11.9414 8.17823 12.0516 7.03248 11.7736 5.94975C11.4947 4.86332 10.8428 3.90946 9.9319 3.25493C9.02096 2.6004 7.90894 2.28685 6.79023 2.36908C5.67152 2.45131 4.6173 2.92409 3.81187 3.70479C3.00644 4.48548 2.50105 5.5244 2.38404 6.63993C2.26703 7.75547 2.54585 8.87664 3.17176 9.80744C3.79767 10.7382 4.73085 11.4195 5.80815 11.732C6.88545 12.0445 8.03834 11.9685 9.06527 11.5172L9.1523 11.4778C9.16265 11.4731 9.1744 11.4807 9.1744 11.492C9.1744 11.4951 9.1753 11.4981 9.17701 11.5007C10.0365 12.7957 10.5385 14.3527 10.5385 16.0253C10.5385 17.7014 10.0355 19.2581 9.1744 20.5556C9.17988 20.5465 9.17627 20.5346 9.16662 20.5301C8.15402 20.056 7.00706 19.9515 5.92512 20.2352C4.83676 20.5206 3.88386 21.1805 3.23397 22.099C2.58409 23.0174 2.27882 24.1356 2.37185 25.2568C2.46488 26.378 2.95025 27.4306 3.74262 28.2294C4.53498 29.0282 5.58362 29.5221 6.70413 29.6242C7.82465 29.7264 8.94532 29.4302 9.86908 28.7879C10.7928 28.1456 11.4606 27.1981 11.7548 26.1122C11.9738 25.3042 11.9756 24.4581 11.7673 23.6573C11.643 23.1796 11.7789 22.6426 12.2166 22.4142C13.3812 21.8062 14.6796 21.4866 16.0018 21.4882C17.6779 21.4882 19.2364 21.9912 20.5341 22.854C20.5295 22.8512 20.5236 22.8531 20.5214 22.8579C20.0511 23.8758 19.9536 25.0266 20.246 26.1093C20.5393 27.1951 21.206 28.1428 22.129 28.7857C23.0519 29.4286 24.172 29.7255 25.2923 29.6242C26.4126 29.523 27.4612 29.03 28.254 28.2321C29.0467 27.4341 29.5326 26.3822 29.6264 25.2614C29.7202 24.1406 29.4158 23.0226 28.7667 22.104C28.1177 21.1854 27.1655 20.525 26.0776 20.239C25.271 20.0269 24.428 20.0308 23.6314 20.2429C23.1509 20.3708 22.609 20.2351 22.3802 19.7937C21.7786 18.6332 21.4627 17.3409 21.4651 16.0253Z" fill="url(#paint1_linear_1041_6031)"/>
</mask>
<g mask="url(#mask0_1041_6031)">
<ellipse cx="22.0371" cy="21.9063" rx="11.0229" ry="9.75625" transform="rotate(-51.8918 22.0371 21.9063)" fill="url(#paint2_linear_1041_6031)"/>
</g>
<path d="M9.7195 21.2074C10.0088 20.9204 10.4766 20.9221 10.764 21.211C11.0512 21.5003 11.0495 21.9681 10.7604 22.2555L7.00195 25.9874C6.71254 26.2748 6.24483 26.2732 5.95748 25.9838C5.67054 25.6944 5.67193 25.2266 5.96108 24.9394L9.7195 21.2074Z" fill="#E8F2FE"/>
<path d="M21.2243 21.211C21.5116 20.922 21.9794 20.9205 22.2688 21.2074L26.0272 24.9394C26.3164 25.2267 26.3179 25.6945 26.0308 25.9838C25.7434 26.2732 25.2757 26.2748 24.9863 25.9874L21.2279 22.2555C20.939 21.9681 20.9371 21.5002 21.2243 21.211Z" fill="#E8F2FE"/>
<path d="M5.95748 5.98383C6.24477 5.69454 6.71254 5.69311 7.00195 5.98023L10.7604 9.7122C11.0496 9.99956 11.0513 10.4673 10.764 10.7567C10.4766 11.0459 10.0089 11.0476 9.7195 10.7603L5.96108 7.0283C5.67201 6.74092 5.67025 6.27313 5.95748 5.98383Z" fill="#E8F2FE"/>
<path d="M24.9863 5.98023C25.2757 5.69299 25.7434 5.69465 26.0308 5.98383C26.3181 6.27319 26.3164 6.74094 26.0272 7.0283L22.2688 10.7603C21.9794 11.0476 21.5117 11.0459 21.2243 10.7567C20.9372 10.4673 20.9387 9.99951 21.2279 9.7122L24.9863 5.98023Z" fill="#E8F2FE"/>
<defs>
<linearGradient id="paint0_linear_1041_6031" x1="28.0717" y1="28.5972" x2="3.59672" y2="2.33636" gradientUnits="userSpaceOnUse">
<stop offset="0.505078" stop-color="#2573FD"/>
<stop offset="1" stop-color="#A1C3FF"/>
</linearGradient>
<linearGradient id="paint1_linear_1041_6031" x1="28.0717" y1="28.5972" x2="3.59672" y2="2.33636" gradientUnits="userSpaceOnUse">
<stop offset="0.505078" stop-color="#2573FD"/>
<stop offset="1" stop-color="#A1C3FF"/>
</linearGradient>
<linearGradient id="paint2_linear_1041_6031" x1="31.3635" y1="31.6626" x2="13.41" y2="29.349" gradientUnits="userSpaceOnUse">
<stop stop-color="#6CA1FD" stop-opacity="0.2"/>
<stop offset="1" stop-color="#87C1FF"/>
</linearGradient>
</defs>
</svg>
