<svg width="32" height="32" viewBox="0 0 32 32" fill="none" xmlns="http://www.w3.org/2000/svg">
<path d="M12.477 6.42938C12.4633 6.16116 12.2426 5.95654 11.974 5.95654H7.16072C6.89214 5.95654 6.67139 6.16116 6.65769 6.42939C6.49679 9.58107 5.36956 27.4212 0.46875 27.4212H18.6659C13.7651 27.4212 12.6379 9.58107 12.477 6.42938Z" fill="url(#paint0_linear_1041_5150)"/>
<path d="M24.5092 14.3973C24.4945 14.1291 24.2737 13.9244 24.0051 13.9244H21.3356C21.067 13.9244 20.8462 14.1291 20.8315 14.3973C20.7006 16.787 19.9496 27.4211 16.9492 27.4211H28.3914C25.3911 27.4211 24.6401 16.787 24.5092 14.3973Z" fill="url(#paint1_linear_1041_5150)"/>
<mask id="mask0_1041_5150" style="mask-type:alpha" maskUnits="userSpaceOnUse" x="0" y="7" width="19" height="21">
<path d="M12.5683 7.28052H6.73855C6.73855 7.28052 5.89524 27.4211 0.46875 27.4211H18.838C13.4116 27.4211 12.5683 7.28052 12.5683 7.28052Z" fill="url(#paint2_linear_1041_5150)"/>
</mask>
<g mask="url(#mask0_1041_5150)">
<ellipse cx="19.3318" cy="23.187" rx="13.4197" ry="8.96565" fill="url(#paint3_linear_1041_5150)"/>
</g>
<path d="M0.46875 27.6211C0.46875 27.5106 0.558293 27.4211 0.66875 27.4211H28.5997C28.7101 27.4211 28.7997 27.5106 28.7997 27.6211V29.6183C28.7997 29.7288 28.7101 29.8183 28.5997 29.8183H0.668751C0.558294 29.8183 0.46875 29.7288 0.46875 29.6183V27.6211ZM9.29491 3.33215C9.29491 3.33215 10.3369 2.18164 12.2471 2.18164C14.1573 2.18164 15.3513 3.54921 17.8259 3.54921C20.3006 3.54921 21.2991 2.18164 21.2991 2.18164V5.11212C21.2991 5.11212 19.5191 5.85016 17.9995 5.85016C16.48 5.85016 15.2862 4.37408 12.4859 4.37408C9.68559 4.37408 9.45771 5.6982 9.45771 5.6982L9.29491 3.33215ZM22.0884 11.1596C22.0884 11.1596 22.9081 10.0091 24.4109 10.0091C25.9137 10.0091 26.8529 11.3767 28.7997 11.3767C30.7465 11.3767 31.532 10.0091 31.532 10.0091V12.9396C31.532 12.9396 30.1317 13.6777 28.9363 13.6777C27.7409 13.6777 26.8017 12.2016 24.5987 12.2016C22.3958 12.2016 22.2164 13.5257 22.2164 13.5257L22.0884 11.1596Z" fill="url(#paint4_linear_1041_5150)"/>
<defs>
<linearGradient id="paint0_linear_1041_5150" x1="18.6659" y1="21.531" x2="-0.805092" y2="8.799" gradientUnits="userSpaceOnUse">
<stop stop-color="#FC4FD0"/>
<stop offset="1" stop-color="#FEA5E8"/>
</linearGradient>
<linearGradient id="paint1_linear_1041_5150" x1="28.3914" y1="23.7174" x2="16.1482" y2="15.7117" gradientUnits="userSpaceOnUse">
<stop stop-color="#FC4FD0"/>
<stop offset="1" stop-color="#FEA5E8"/>
</linearGradient>
<linearGradient id="paint2_linear_1041_5150" x1="14.5676" y1="17.8885" x2="9.50844" y2="25.7309" gradientUnits="userSpaceOnUse">
<stop stop-color="#FFABEA"/>
<stop offset="1" stop-color="#FD68D8"/>
</linearGradient>
<linearGradient id="paint3_linear_1041_5150" x1="26.5119" y1="23.6657" x2="23.1453" y2="32.2301" gradientUnits="userSpaceOnUse">
<stop stop-color="#FFABEA"/>
<stop offset="1" stop-color="#FD68D8"/>
</linearGradient>
<linearGradient id="paint4_linear_1041_5150" x1="16.0144" y1="4.57462" x2="16.0144" y2="29.8183" gradientUnits="userSpaceOnUse">
<stop stop-color="#FFA8E9"/>
<stop offset="0.383173" stop-color="#FF86E0"/>
</linearGradient>
</defs>
</svg>
