<svg width="32" height="32" viewBox="0 0 32 32" fill="none" xmlns="http://www.w3.org/2000/svg">
<path d="M27.294 28.2604H4.70666C4.18272 28.2604 3.75684 27.8345 3.75684 27.3105V19.6132C3.75684 18.5086 4.65227 17.6132 5.75684 17.6132H27.294C27.818 17.6132 28.2439 18.039 28.2439 18.563V27.3075C28.2439 27.8345 27.821 28.2604 27.294 28.2604Z" fill="url(#paint0_linear_1041_7078)"/>
<path d="M13.4502 3.73962C13.9772 3.73962 14.4033 4.16589 14.4033 4.68982V27.2269C14.4032 27.7791 13.9555 28.2269 13.4033 28.2269H4.70605C4.18212 28.2269 3.75586 27.8007 3.75586 27.2767V4.68982C3.75586 4.16589 4.18212 3.73962 4.70605 3.73962H13.4502ZM26.7998 4.33533C27.3879 4.33533 27.8661 4.80973 27.8633 5.39783V13.9164C27.8631 14.5014 27.3879 14.9789 26.7998 14.9789H18.2822C17.6973 14.9788 17.2199 14.5044 17.2197 13.9164V5.39783C17.2199 4.81288 17.6942 4.33546 18.2822 4.33533H26.7998Z" fill="url(#paint1_linear_1041_7078)"/>
<path d="M6.37012 17.382C9.92038 17.382 12.983 19.481 14.4033 22.5128V27.2267C14.4033 27.779 13.9556 28.2267 13.4033 28.2267H4.70605C4.18212 28.2267 3.75586 27.8004 3.75586 27.2765V17.7765C4.58235 17.5204 5.46021 17.382 6.37012 17.382Z" fill="url(#paint2_linear_1041_7078)"/>
<path d="M22.1334 6.98047C22.3259 6.64714 22.807 6.64714 22.9995 6.98047L25.7371 11.7222C25.9296 12.0556 25.689 12.4722 25.3041 12.4722H19.8288C19.4439 12.4722 19.2033 12.0556 19.3958 11.7222L22.1334 6.98047Z" fill="#F0F2FE"/>
<defs>
<linearGradient id="paint0_linear_1041_7078" x1="18.6017" y1="17.6132" x2="15.5803" y2="25.3875" gradientUnits="userSpaceOnUse">
<stop stop-color="#4F5DFC"/>
<stop offset="1" stop-color="#A5ACFE"/>
</linearGradient>
<linearGradient id="paint1_linear_1041_7078" x1="17.084" y1="17.2835" x2="8.76895" y2="1.93956" gradientUnits="userSpaceOnUse">
<stop stop-color="#4F5DFC"/>
<stop offset="1" stop-color="#A5ACFE"/>
</linearGradient>
<linearGradient id="paint2_linear_1041_7078" x1="4.38881" y1="18.4934" x2="12.7377" y2="27.7698" gradientUnits="userSpaceOnUse">
<stop stop-color="#8791FF"/>
<stop offset="1" stop-color="#6C78FD" stop-opacity="0.5"/>
</linearGradient>
</defs>
</svg>
