<svg width="32" height="32" viewBox="0 0 32 32" fill="none" xmlns="http://www.w3.org/2000/svg">
<path d="M27.2832 16.0951H4.68379C4.30687 16.0951 3.95401 16.2555 3.68535 16.5001C3.4207 16.7647 3.27634 17.1256 3.28035 17.4985V28.0965C3.27634 28.8664 3.89386 29.4959 4.66775 29.5039H27.3152C27.6922 29.5039 28.045 29.3435 28.3137 29.0989C28.5783 28.8343 28.7267 28.4734 28.7187 28.1005V17.4985C28.7187 17.1216 28.5583 16.7687 28.3137 16.5001C28.041 16.2555 27.6641 16.0911 27.2832 16.0951ZM21.6614 13.0917C18.3092 10.5776 13.6578 10.5776 10.3056 13.0917C9.73617 13.5248 8.92619 13.4686 8.441 12.9554C7.84755 12.3339 7.92774 11.3354 8.60139 10.8181C12.9521 7.54613 18.9828 7.54613 23.3616 10.8181C24.0392 11.3314 24.1475 12.3339 23.5219 12.9554C23.0408 13.5007 22.2308 13.5248 21.6614 13.0917Z" fill="url(#paint0_linear_1041_6497)"/>
<path d="M5.59963 17.334C14.7371 17.3341 22.1446 22.675 22.1446 29.2627C22.1446 29.3433 22.1419 29.4237 22.1397 29.5039H4.66799C3.89416 29.4959 3.27639 28.8665 3.2803 28.0967V17.498C3.28013 17.4821 3.2809 17.4661 3.28127 17.4502C4.03872 17.3736 4.81291 17.334 5.59963 17.334Z" fill="url(#paint1_linear_1041_6497)"/>
<path d="M10.5498 20.2921C10.8259 20.2921 11.0498 20.516 11.0498 20.7921V24.0382C11.0498 24.3144 10.8259 24.5382 10.5498 24.5382H7.30762C7.03151 24.5382 6.80762 24.3143 6.80762 24.0382V20.7921C6.80767 20.516 7.03154 20.2922 7.30762 20.2921H10.5498ZM24.6895 20.2921C24.9652 20.2921 25.1889 20.5154 25.1895 20.7911L25.1914 21.9288C25.1917 22.2052 24.9678 22.4298 24.6914 22.4298H14.3887C14.1128 22.4296 13.8889 22.2057 13.8887 21.9298V20.7921C13.8887 20.5161 14.1127 20.2923 14.3887 20.2921H24.6895Z" fill="#F9FEF0"/>
<path d="M24.4206 8.27988C19.5006 4.33421 12.4714 4.33421 7.55131 8.27988C6.98192 8.74101 6.14386 8.68487 5.65867 8.17161C5.13339 7.60222 5.16948 6.71605 5.73887 6.19477C5.75491 6.17873 5.77496 6.16269 5.79501 6.14665C11.7416 1.30679 20.2825 1.27872 26.2571 6.06646C26.9348 6.60778 26.9589 7.60623 26.3654 8.20369C25.8281 8.70893 24.9981 8.74502 24.4206 8.27988Z" fill="url(#paint2_linear_1041_6497)"/>
<defs>
<linearGradient id="paint0_linear_1041_6497" x1="19.1856" y1="16.5911" x2="5.92904" y2="5.94631" gradientUnits="userSpaceOnUse">
<stop stop-color="#7AD100"/>
<stop offset="1" stop-color="#D8FFA1"/>
</linearGradient>
<linearGradient id="paint1_linear_1041_6497" x1="29.5305" y1="27.6645" x2="12.7134" y2="30.4349" gradientUnits="userSpaceOnUse">
<stop stop-color="#CDFF87"/>
<stop offset="1" stop-color="#C1FD6C" stop-opacity="0.1"/>
</linearGradient>
<linearGradient id="paint2_linear_1041_6497" x1="18.7311" y1="4.87424" x2="15.9014" y2="-1.76988" gradientUnits="userSpaceOnUse">
<stop stop-color="#7AD100"/>
<stop offset="1" stop-color="#D8FFA1"/>
</linearGradient>
</defs>
</svg>
