<svg width="32" height="32" viewBox="0 0 32 32" fill="none" xmlns="http://www.w3.org/2000/svg">
<path d="M5.97009 2.21154C6.60578 1.40572 8.01202 1.27103 8.78222 1.94229L13.3941 7.15491L6.60671 14.1039L6.22138 13.0293L8.27245 10.898L6.99203 9.5542L4.94097 11.829L3.66055 10.4948L5.71041 8.35395L4.42999 7.01969L2.38013 9.15092L1.86916 8.75723C1.23347 8.08562 0.973739 7.15395 1.60948 6.48239L5.97009 2.21154Z" fill="url(#paint0_linear_1041_6992)"/>
<path d="M10.4483 25.0565L2.64019 27.591C2.12976 27.7253 1.74417 27.3217 1.86954 26.7845L4.43038 18.9045L10.4483 25.0565ZM23.7647 11.6959L11.3434 24.1159L5.32667 18.1075L17.7467 5.81191L23.7647 11.6959ZM22.4879 1.71338C22.7035 1.71338 22.917 1.75803 23.1149 1.84381C23.3129 1.92966 23.4916 2.05486 23.639 2.21238L27.3463 5.94594C27.4985 6.09368 27.6191 6.27114 27.7017 6.46648C27.7843 6.66183 27.8273 6.87185 27.8273 7.08396C27.8273 7.29598 27.7843 7.50615 27.7017 7.70143C27.6191 7.89658 27.4983 8.07316 27.3463 8.22078L24.6598 10.8893L18.6514 4.88092L21.3379 2.21238C21.4852 2.05502 21.6631 1.92964 21.8608 1.84381C22.0586 1.75801 22.2722 1.71343 22.4879 1.71338Z" fill="url(#paint1_linear_1041_6992)"/>
<mask id="mask0_1041_6992" style="mask-type:alpha" maskUnits="userSpaceOnUse" x="1" y="1" width="27" height="27">
<path d="M10.4474 25.056L2.63921 27.5905C2.12878 27.7248 1.7432 27.3213 1.86856 26.784L4.4294 18.904L10.4474 25.056ZM23.7637 11.6954L11.3425 24.1154L5.32569 18.107L17.7458 5.81143L23.7637 11.6954ZM22.4869 1.71289C22.7026 1.71289 22.9161 1.75754 23.1139 1.84333C23.3119 1.92918 23.4906 2.05437 23.6381 2.21189L27.3453 5.94545C27.4975 6.09319 27.6181 6.27065 27.7007 6.466C27.7833 6.66135 27.8264 6.87137 27.8264 7.08347C27.8263 7.29549 27.7833 7.50566 27.7007 7.70094C27.6181 7.89609 27.4973 8.07267 27.3453 8.22029L24.6588 10.8888L18.6504 4.88043L21.3369 2.21189C21.4842 2.05454 21.6621 1.92915 21.8598 1.84333C22.0577 1.75753 22.2713 1.71294 22.4869 1.71289Z" fill="url(#paint2_linear_1041_6992)"/>
</mask>
<g mask="url(#mask0_1041_6992)">
<ellipse cx="29.523" cy="6.01893" rx="6.68222" ry="7.10621" fill="url(#paint3_linear_1041_6992)"/>
</g>
<path d="M30.205 20.0741C29.8568 19.4154 29.3614 18.815 28.744 18.3035C28.1098 17.8067 27.3735 17.4042 26.5687 17.1143C25.7381 16.825 24.8422 16.6809 23.9388 16.6915C23.0271 16.6989 22.1248 16.8422 21.2765 17.1143C20.4609 17.3881 19.7212 17.7925 19.1013 18.3035C18.4839 18.815 17.9885 19.4154 17.6403 20.0741C17.2848 20.7501 17.1078 21.4794 17.1208 22.2147C17.1159 22.941 17.2885 23.6608 17.6285 24.3322C17.9685 25.0037 18.4692 25.6134 19.1013 26.1259C19.7355 26.6227 20.4717 27.0252 21.2766 27.3152C22.1099 27.6157 23.0113 27.7709 23.9227 27.7709C24.8341 27.7709 25.7355 27.6157 26.5688 27.3152C27.378 27.0317 28.1156 26.6285 28.7441 26.1259C29.3719 25.6214 29.8688 25.0192 30.2051 24.3553C30.5648 23.6794 30.7525 22.9512 30.757 22.2147C30.7493 21.4784 30.5616 20.7508 30.205 20.0741Z" fill="url(#paint4_linear_1041_6992)"/>
<path d="M26.8324 20.8696C27.1208 20.5812 27.5885 20.5812 27.8769 20.8696C28.1652 21.158 28.1652 21.6245 27.8769 21.9129L23.3216 26.4694C23.1831 26.6079 22.9946 26.6857 22.7988 26.6857C22.6031 26.6856 22.4155 26.6077 22.2771 26.4694L19.9995 24.1917C19.7111 23.9033 19.7111 23.4356 19.9995 23.1473C20.2878 22.8591 20.7544 22.8591 21.0428 23.1473L22.7988 24.9021L26.8324 20.8696Z" fill="#F0F2FE"/>
<defs>
<linearGradient id="paint0_linear_1041_6992" x1="22.6114" y1="14.9458" x2="2.33314" y2="1.04228" gradientUnits="userSpaceOnUse">
<stop stop-color="#4F5DFC"/>
<stop offset="1" stop-color="#A5ACFE"/>
</linearGradient>
<linearGradient id="paint1_linear_1041_6992" x1="14.8365" y1="4.92863" x2="34.9974" y2="12.6355" gradientUnits="userSpaceOnUse">
<stop stop-color="#4F5DFC"/>
<stop offset="1" stop-color="#A5ACFE"/>
</linearGradient>
<linearGradient id="paint2_linear_1041_6992" x1="23.7717" y1="10.5953" x2="24.3151" y2="5.34554" gradientUnits="userSpaceOnUse">
<stop stop-color="#8791FF"/>
<stop offset="1" stop-color="#6C78FD"/>
</linearGradient>
<linearGradient id="paint3_linear_1041_6992" x1="34.1196" y1="3.78618" x2="34.4372" y2="0.910026" gradientUnits="userSpaceOnUse">
<stop stop-color="#8791FF"/>
<stop offset="1" stop-color="#6C78FD"/>
</linearGradient>
<linearGradient id="paint4_linear_1041_6992" x1="27.9677" y1="22.2309" x2="19.1294" y2="14.7718" gradientUnits="userSpaceOnUse">
<stop stop-color="#4F5DFC"/>
<stop offset="1" stop-color="#A5ACFE"/>
</linearGradient>
</defs>
</svg>
