<svg width="32" height="32" viewBox="0 0 32 32" fill="none" xmlns="http://www.w3.org/2000/svg">
<path d="M18.0774 30.8168H2.69654C2.56828 30.8158 2.44161 30.7884 2.32442 30.7362C2.20724 30.6841 2.10206 30.6083 2.01545 30.5137C1.92884 30.4191 1.86265 30.3077 1.82103 30.1864C1.7794 30.065 1.76323 29.9364 1.77351 29.8086L2.26927 23.8435C2.31463 23.3244 2.49962 22.8272 2.80463 22.4047C3.10964 21.9821 3.5233 21.65 4.00175 21.4435L9.55462 19.3132L16.57 19.2848C15.6648 20.7322 15.1879 22.4063 15.1943 24.1134C15.1921 25.3683 15.4466 26.6105 15.9425 27.7633C16.4383 28.9162 17.1648 29.9553 18.0774 30.8168Z" fill="url(#paint0_linear_1041_5214)"/>
<mask id="mask0_1041_5214" style="mask-type:alpha" maskUnits="userSpaceOnUse" x="1" y="19" width="18" height="12">
<path d="M18.0774 30.8169H2.69654C2.56828 30.8159 2.44161 30.7884 2.32442 30.7363C2.20724 30.6841 2.10206 30.6084 2.01545 30.5138C1.92884 30.4192 1.86265 30.3077 1.82103 30.1864C1.7794 30.0651 1.76323 29.9365 1.77351 29.8087L2.26927 23.8435C2.31463 23.3244 2.49962 22.8272 2.80463 22.4047C3.10964 21.9822 3.5233 21.6501 4.00175 21.4436L9.55462 19.3132L16.57 19.2849C15.6648 20.7322 15.1879 22.4063 15.1943 24.1135C15.1921 25.3684 15.4466 26.6105 15.9425 27.7634C16.4383 28.9162 17.1648 29.9554 18.0774 30.8169Z" fill="url(#paint1_linear_1041_5214)"/>
</mask>
<g mask="url(#mask0_1041_5214)">
<path d="M-0.0448386 23.5309C1.61116 21.1861 6.89464 22.0685 11.7559 25.5016C16.617 28.9348 19.2156 33.6188 17.5597 35.9635C15.9036 38.3082 10.6201 37.4259 5.75887 33.9928C0.8977 30.5598 -1.70056 25.8759 -0.0448386 23.5309Z" fill="url(#paint2_linear_1041_5214)"/>
</g>
<path d="M15.4199 17.7243C19.0021 17.7243 21.9061 14.3542 21.9061 10.1961H8.93393C8.93393 14.3529 11.8376 17.7243 15.4199 17.7243ZM8.14854 9.09501H22.6932C22.9405 9.09501 23.1778 8.99674 23.3527 8.82183C23.5276 8.64691 23.6259 8.40967 23.6259 8.1623C23.6259 7.91492 23.5276 7.67768 23.3527 7.50277C23.1778 7.32785 22.9405 7.22958 22.6932 7.22958H22.3053C21.9713 4.7675 20.356 2.71967 18.1569 1.7669V4.53967C18.1522 4.78385 18.052 5.01647 17.8777 5.18752C17.7034 5.35857 17.4689 5.4544 17.2247 5.4544C16.9804 5.4544 16.7459 5.35857 16.5716 5.18752C16.3973 5.01647 16.2971 4.78385 16.2924 4.53967V1.2648C16.0045 1.22839 15.7185 1.18329 15.4199 1.18329C15.1212 1.18329 14.8356 1.22839 14.5476 1.2648V4.54033C14.543 4.78452 14.4427 5.01714 14.2684 5.18819C14.0941 5.35924 13.8596 5.45507 13.6154 5.45507C13.3712 5.45507 13.1367 5.35924 12.9624 5.18819C12.788 5.01714 12.6878 4.78452 12.6832 4.54033V1.76757C10.4837 2.72067 8.86845 4.76817 8.53505 7.23025H8.14854C7.90117 7.23025 7.66393 7.32851 7.48901 7.50343C7.31409 7.67835 7.21582 7.91559 7.21582 8.16296C7.21582 8.41033 7.31409 8.64758 7.48901 8.82249C7.66393 8.99741 7.90117 9.09501 8.14854 9.09501Z" fill="url(#paint3_linear_1041_5214)"/>
<path d="M29.6946 21.5623C29.3573 20.7786 28.8776 20.0643 28.2796 19.4557C27.6654 18.8646 26.9524 18.3858 26.173 18.0408C25.3686 17.6965 24.5009 17.5251 23.6261 17.5377C22.7431 17.5466 21.8692 17.7171 21.0477 18.0408C20.2578 18.3665 19.5415 18.8477 18.9411 19.4557C18.3432 20.0643 17.8635 20.7786 17.5262 21.5623C17.1819 22.3667 17.0105 23.2344 17.0231 24.1092C17.0184 24.9733 17.1855 25.8297 17.5148 26.6286C17.8441 27.4275 18.3289 28.153 18.9411 28.7628C19.5553 29.3539 20.2684 29.8328 21.0478 30.1777C21.8548 30.5353 22.7278 30.72 23.6104 30.72C24.4931 30.72 25.366 30.5353 26.173 30.1777C26.9567 29.8405 27.6711 29.3607 28.2797 28.7628C28.8877 28.1625 29.3689 27.4461 29.6947 26.6561C30.043 25.8519 30.2248 24.9856 30.2292 24.1092C30.2217 23.2332 30.0399 22.3674 29.6946 21.5623Z" fill="url(#paint4_linear_1041_5214)"/>
<path d="M24.3629 20.9568C24.6753 20.6445 25.1827 20.6444 25.4951 20.9568L28.0997 23.5625C28.1366 23.5995 28.1691 23.6404 28.1982 23.6839C28.2093 23.7005 28.2174 23.7185 28.2271 23.7356C28.2434 23.7643 28.2601 23.7926 28.2728 23.8234C28.2805 23.8421 28.2846 23.8619 28.2908 23.8811C28.3164 23.9593 28.3341 24.0419 28.3341 24.1287C28.334 24.2759 28.2906 24.4116 28.2211 24.5301C28.2132 24.5435 28.207 24.5579 28.1982 24.571C28.1672 24.6174 28.1323 24.6606 28.0925 24.6996L25.4951 27.2993C25.1828 27.6117 24.6753 27.6116 24.3629 27.2993C24.0509 26.987 24.0509 26.4807 24.3629 26.1683L25.6009 24.9291H19.7175C19.2759 24.929 18.9172 24.5702 18.917 24.1287C18.917 23.6869 19.2758 23.3283 19.7175 23.3282H25.6033L24.3629 22.089C24.0505 21.7766 24.0505 21.2692 24.3629 20.9568Z" fill="#F3FDFF"/>
<defs>
<linearGradient id="paint0_linear_1041_5214" x1="11.9662" y1="23.7727" x2="4.57229" y2="16.796" gradientUnits="userSpaceOnUse">
<stop stop-color="#00AFD1"/>
<stop offset="1" stop-color="#A1EFFF"/>
</linearGradient>
<linearGradient id="paint1_linear_1041_5214" x1="12.0785" y1="30.0653" x2="10.0706" y2="19.595" gradientUnits="userSpaceOnUse">
<stop stop-color="#00B4D8"/>
<stop offset="1" stop-color="#1FDAFF"/>
</linearGradient>
<linearGradient id="paint2_linear_1041_5214" x1="11.3898" y1="35.8946" x2="8.51589" y2="22.6238" gradientUnits="userSpaceOnUse">
<stop stop-color="#00B4D8"/>
<stop offset="1" stop-color="#1FDAFF"/>
</linearGradient>
<linearGradient id="paint3_linear_1041_5214" x1="17.4761" y1="7.62059" x2="7.69648" y2="1.14644" gradientUnits="userSpaceOnUse">
<stop stop-color="#00AFD1"/>
<stop offset="1" stop-color="#A1EFFF"/>
</linearGradient>
<linearGradient id="paint4_linear_1041_5214" x1="25.2798" y1="22.6675" x2="17.4562" y2="17.4375" gradientUnits="userSpaceOnUse">
<stop stop-color="#00AFD1"/>
<stop offset="1" stop-color="#A1EFFF"/>
</linearGradient>
</defs>
</svg>
