<svg width="32" height="32" viewBox="0 0 32 32" fill="none" xmlns="http://www.w3.org/2000/svg">
<path d="M9.26678 24.5886C7.67517 24.5886 6.40185 25.861 6.40185 27.3722C6.40185 28.8833 7.67517 30.1559 9.26682 30.1559C10.8584 30.1559 12.1318 28.8833 12.1318 27.3722C12.1318 25.7815 10.8584 24.5886 9.26678 24.5886ZM24.1486 24.5886C22.557 24.5886 21.2837 25.861 21.2837 27.3722C21.2837 28.8833 22.557 30.1559 24.1486 30.1559C25.7402 30.1559 27.0136 28.8833 27.0136 27.3722C27.0136 25.7815 25.7403 24.5886 24.1486 24.5886ZM9.26678 26.0202C10.0626 26.0202 10.6993 26.6564 10.6993 27.3722C10.6993 28.088 10.0626 28.7243 9.26678 28.7243C8.47098 28.7243 7.83433 28.088 7.83433 27.3722C7.83433 26.5768 8.47098 25.9406 9.26678 26.0202ZM24.1486 26.0202C24.9444 26.0202 25.5811 26.6564 25.5811 27.3722C25.5811 28.088 24.9444 28.7243 24.1486 28.7243C23.3528 28.7243 22.7161 28.088 22.7161 27.3722C22.7161 26.5768 23.3528 25.9406 24.1486 26.0202ZM0.512784 24.509C0.274078 24.509 0.0353037 24.7476 0.0353037 24.9862V26.3383C0.0353037 26.5769 0.274078 26.8155 0.512784 26.8155H5.60604C5.68562 25.9406 6.16311 25.1452 6.87933 24.509H0.512784ZM17.2457 10.7648C16.7671 10.7648 16.2885 11.1616 16.2885 11.6379V24.4174H11.5821C12.3001 24.973 12.6989 25.7668 12.8585 26.6399H20.3567C20.596 24.8936 22.1913 23.5442 24.1058 23.5442C26.0202 23.5442 27.5358 24.8936 27.8549 26.6399H31.5243C31.7636 26.6399 32.0029 26.4811 32.0029 26.1636V24.8936C32.0029 24.6555 31.7636 24.4174 31.5243 24.4174H30.4075V18.3848C30.4075 17.6704 30.1683 16.9561 29.7694 16.4004L26.9775 12.3523C26.2596 11.3998 25.1428 10.7648 23.9463 10.7648H17.2457ZM7.68743 20.6152C7.22484 20.6152 6.80941 20.8038 6.50441 21.1092C6.19942 21.4141 6.01225 21.8348 6.01225 22.2958C6.01225 22.7601 6.19999 23.1769 6.50441 23.4829C6.8088 23.7883 7.22766 23.9763 7.68743 23.9763H13.2926C13.7555 23.9763 14.1709 23.7878 14.4757 23.4829C14.7804 23.1774 14.9678 22.7567 14.9678 22.2958C14.9678 21.8314 14.7801 21.4146 14.4756 21.1092C14.1712 20.8032 13.7524 20.6152 13.2926 20.6152H7.68743ZM0.456831 17.0614C0.279048 17.1342 0.137 17.2736 0.0612061 17.4496C0.0612061 17.4527 0.0583938 17.4527 0.0583938 17.4558L0.0550087 17.4617C0.0550087 17.4647 0.0521588 17.4678 0.0521588 17.4706H0.049377C-0.0206524 17.6527 -0.0149845 17.8471 0.0555439 18.0148C0.121781 18.1781 0.244609 18.3122 0.401698 18.3929L0.437697 18.8934C0.439286 18.9174 0.444451 18.941 0.453021 18.9634C0.444468 18.9729 0.435914 18.9827 0.427325 18.9929L0.774583 22.0709C0.81628 22.4412 1.09476 22.7433 1.46347 22.8171L3.14339 23.1539C3.33228 23.1919 3.52843 23.1338 3.66486 22.9984L6.00095 20.6891C6.02419 20.577 6.02672 20.4927 6.00701 20.4372L6.00434 20.4301C5.98797 20.3889 5.96361 20.3513 5.93266 20.3196C5.90171 20.2878 5.86478 20.2624 5.82397 20.2449C5.80366 20.236 5.78224 20.2293 5.76079 20.2236L0.883993 18.7762L0.86129 18.46C0.910674 18.4511 0.958985 18.4371 1.00542 18.4181C1.17345 18.3495 1.31693 18.2166 1.39733 18.0387L1.40388 18.0238C1.40727 18.0176 1.40727 18.0115 1.41013 18.0087C1.55517 17.6409 1.38243 17.2239 1.02009 17.0676C1.01728 17.0676 1.01728 17.0645 1.01446 17.0645L1.01108 17.0614H1.00827C0.831277 16.9909 0.633819 16.9909 0.456831 17.0614ZM10.49 21.5612L10.5058 21.5614C10.6948 21.5653 10.8749 21.642 11.0084 21.7755L11.0189 21.7864C11.1497 21.9239 11.2225 22.1063 11.2223 22.2958C11.2223 22.4983 11.14 22.684 11.0084 22.816C10.9404 22.884 10.8597 22.9379 10.7708 22.9747C10.6819 23.0115 10.5865 23.0304 10.4903 23.0303C10.3939 23.0304 10.2985 23.0115 10.2095 22.9747C10.1205 22.9379 10.0397 22.884 9.97164 22.816L9.96105 22.8052C9.83014 22.6677 9.75724 22.4853 9.75741 22.2958C9.75713 22.101 9.83401 21.914 9.97135 21.7755C10.0394 21.7075 10.1202 21.6535 10.2092 21.6167C10.2982 21.58 10.3936 21.5611 10.49 21.5612ZM8.0327 21.5612C8.129 21.5611 8.22436 21.58 8.31331 21.6168C8.40226 21.6536 8.48304 21.7075 8.55102 21.7755C8.68838 21.914 8.76528 22.101 8.76499 22.2958C8.76527 22.4905 8.68837 22.6775 8.55102 22.816C8.48305 22.884 8.40226 22.9379 8.31331 22.9747C8.22436 23.0115 8.129 23.0304 8.0327 23.0303C7.93635 23.0304 7.84093 23.0115 7.75193 22.9747C7.66293 22.938 7.58209 22.884 7.51405 22.816C7.38212 22.6834 7.3004 22.4983 7.3004 22.2958C7.3004 22.0932 7.38212 21.9081 7.51405 21.7755C7.58209 21.7075 7.66292 21.6536 7.75193 21.6168C7.84093 21.58 7.93635 21.5611 8.0327 21.5612ZM12.9468 21.5584C13.1489 21.5584 13.3335 21.6401 13.4654 21.7727C13.6027 21.9111 13.6795 22.0979 13.6791 22.2924C13.6794 22.4876 13.6024 22.6751 13.4652 22.8127C13.3973 22.8807 13.3166 22.9347 13.2276 22.9716C13.1387 23.0085 13.0434 23.0275 12.9471 23.0275L12.9307 23.0273C12.7418 23.0235 12.5619 22.9467 12.4287 22.8132C12.2913 22.6748 12.2144 22.4877 12.2148 22.2929C12.2148 22.0904 12.2971 21.9053 12.4287 21.7733C12.4966 21.7052 12.5773 21.6512 12.6662 21.6143C12.7552 21.5774 12.8505 21.5585 12.9468 21.5584ZM4.08942 12.2564C4.07477 12.5147 3.96654 12.756 3.78221 12.941C3.68783 13.0363 3.57607 13.1128 3.45291 13.1664L3.45658 13.1583C3.33071 13.2115 3.19528 13.2378 3.05476 13.2378C2.77311 13.2378 2.50672 13.1261 2.30693 12.9261C2.20755 12.8256 2.12893 12.7067 2.07553 12.576L2.07214 12.5816L0.430887 16.8175C0.645986 16.7508 0.877345 16.758 1.08784 16.8379H1.09009L1.10253 16.841H1.10477C1.10816 16.841 1.11154 16.8441 1.11717 16.8469C1.32487 16.9413 1.4953 17.1001 1.59466 17.3032L3.31392 13.4759L6.66557 17.0227L6.52309 17.2728C6.49848 17.316 6.48564 17.3649 6.48585 17.4146V19.7841C6.48585 19.9408 6.55014 20.0818 6.65278 20.1852C6.75542 20.2886 6.89637 20.3538 7.05086 20.3538H8.88502C8.90249 20.3538 8.91995 20.3538 8.9434 20.3504C8.97551 20.3531 8.9949 20.3536 9.00887 20.3537L9.01599 20.3538H13.1481C13.2195 20.3537 13.2908 20.3533 13.3621 20.3526C13.4384 20.3522 13.5114 20.3218 13.5652 20.2679C13.619 20.214 13.6492 20.141 13.6492 20.065V18.5644C13.6492 18.4054 13.52 18.2768 13.3604 18.2768H12.3595C12.201 18.2768 12.0725 18.1493 12.0708 17.9919L12.0457 15.2028V14.9236C12.0457 14.7648 11.9165 14.6359 11.7572 14.6359H11.6031L11.5901 14.6359H11.5653C11.5334 14.636 11.5061 14.6361 11.4835 14.6362L8.19193 14.6387C8.14093 14.6388 8.09087 14.6524 8.04682 14.678C8.00276 14.7036 7.96627 14.7403 7.94103 14.7845L7.52014 15.523L4.08942 12.2564ZM18.8411 13.2254H24.744C24.9035 13.2254 25.0631 13.3048 25.1428 13.3842L27.3764 16.4798C27.4506 16.5537 27.4557 16.6276 27.4561 16.7015L27.4561 16.7179C27.4561 17.1148 27.2168 17.2736 26.9775 17.2736H18.8411C18.6018 17.2736 18.3625 17.0354 18.3625 16.7973V13.7017C18.3625 13.4635 18.6018 13.2254 18.8411 13.2254ZM3.02921 11.3685C2.82368 11.3685 2.6182 11.4435 2.46128 11.596L2.4493 11.6079C2.37303 11.6836 2.31256 11.7737 2.27136 11.8728C2.23016 11.9719 2.20905 12.0782 2.20924 12.1855C2.20924 12.3954 2.28872 12.6054 2.4493 12.7631C2.59906 12.9124 2.80107 12.9981 3.01289 13.0021L3.02921 13.0022C3.13689 13.0028 3.2436 12.982 3.34309 12.9409C3.44258 12.8998 3.53283 12.8394 3.60855 12.7631C3.68478 12.6873 3.74523 12.5972 3.78642 12.498C3.82762 12.3989 3.84875 12.2926 3.84861 12.1853C3.84861 11.9753 3.76974 11.7651 3.60855 11.6079C3.53253 11.532 3.44224 11.4717 3.34282 11.4307C3.24341 11.3896 3.13683 11.3685 3.02921 11.3685Z" fill="url(#paint0_linear_1041_5181)"/>
<path d="M24.7139 2.12331C24.5172 1.92717 24.2221 1.90266 24.0254 2.09879C23.927 2.17233 23.8778 2.3194 23.8778 2.44199V3.83931H18.6154C18.3449 3.83931 18.1236 4.05991 18.1236 4.32957V5.77591C18.1236 6.04557 18.3449 6.26617 18.6154 6.26617H23.8778V7.688C23.8778 7.95766 24.0992 8.1783 24.3697 8.1783C24.4926 8.1783 24.6156 8.12928 24.7139 8.0312L28.4764 5.40819C28.6485 5.23657 28.6485 4.94244 28.4764 4.74635L24.7139 2.12331Z" fill="url(#paint1_linear_1041_5181)"/>
<path d="M23.9463 10.765C25.1427 10.7651 26.2597 11.3995 26.9775 12.3519L29.7695 16.4007C30.1682 16.9563 30.4072 17.6708 30.4072 18.3851V24.18C28.8585 24.2936 27.1925 24.0267 25.585 23.3245C22.7177 22.0721 20.7364 19.7467 20.1074 17.2737H26.9775C27.2167 17.2736 27.456 17.1147 27.4561 16.7181V16.7015C27.4557 16.6276 27.4502 16.5536 27.376 16.4798L25.1426 13.3841C25.0629 13.3048 24.9035 13.226 24.7441 13.2259H20.3711C20.38 13.2049 20.3874 13.1833 20.3965 13.1624C20.8174 12.1988 21.4697 11.3942 22.2812 10.765H23.9463Z" fill="url(#paint2_linear_1041_5181)"/>
<defs>
<linearGradient id="paint0_linear_1041_5181" x1="16.0013" y1="26.1613" x2="9.11657" y2="5.58825" gradientUnits="userSpaceOnUse">
<stop stop-color="#00AFD1"/>
<stop offset="1" stop-color="#A1EFFF"/>
</linearGradient>
<linearGradient id="paint1_linear_1041_5181" x1="23.3645" y1="6.89802" x2="21.196" y2="0.275996" gradientUnits="userSpaceOnUse">
<stop stop-color="#00AFD1"/>
<stop offset="1" stop-color="#A1EFFF"/>
</linearGradient>
<linearGradient id="paint2_linear_1041_5181" x1="27.9759" y1="23.5955" x2="23.3807" y2="13.3642" gradientUnits="userSpaceOnUse">
<stop stop-color="#00B4D8"/>
<stop offset="1" stop-color="#1FDAFF"/>
</linearGradient>
</defs>
</svg>
