<svg width="32" height="32" viewBox="0 0 32 32" fill="none" xmlns="http://www.w3.org/2000/svg">
<path d="M5.80407 2.09374C6.43977 1.28792 7.84601 1.15323 8.61621 1.82449L13.2281 7.03711L6.44069 13.9861L6.05537 12.9115L8.10643 10.7802L6.82601 9.4364L4.77495 11.7112L3.49453 10.377L5.5444 8.23616L4.26398 6.90189L2.21411 9.03313L1.70314 8.63943C1.06746 7.96782 0.807724 7.03615 1.44347 6.36459L5.80407 2.09374Z" fill="url(#paint0_linear_1041_7087)"/>
<path d="M10.2814 24.9387L2.47319 27.4732C1.96277 27.6075 1.57718 27.2039 1.70255 26.6667L4.26339 18.7867L10.2814 24.9387ZM23.5977 11.5781L11.1765 23.9981L5.15968 17.9897L17.5797 5.69412L23.5977 11.5781ZM22.3209 1.59558C22.5365 1.59558 22.7501 1.64023 22.9479 1.72602C23.1459 1.81187 23.3246 1.93706 23.4721 2.09459L27.1793 5.82814C27.3315 5.97588 27.4521 6.15334 27.5347 6.34869C27.6173 6.54404 27.6603 6.75406 27.6603 6.96616C27.6603 7.17818 27.6173 7.38835 27.5347 7.58363C27.4521 7.77878 27.3313 7.95536 27.1793 8.10298L24.4928 10.7715L18.4844 4.76312L21.1709 2.09459C21.3182 1.93723 21.4961 1.81184 21.6938 1.72602C21.8916 1.64022 22.1053 1.59563 22.3209 1.59558Z" fill="url(#paint1_linear_1041_7087)"/>
<mask id="mask0_1041_7087" style="mask-type:alpha" maskUnits="userSpaceOnUse" x="1" y="1" width="27" height="27">
<path d="M10.2814 24.9382L2.47319 27.4727C1.96277 27.607 1.57718 27.2035 1.70255 26.6662L4.26339 18.7862L10.2814 24.9382ZM23.5977 11.5776L11.1765 23.9976L5.15968 17.9892L17.5797 5.69363L23.5977 11.5776ZM22.3209 1.59509C22.5365 1.59509 22.7501 1.63974 22.9479 1.72553C23.1459 1.81138 23.3246 1.93657 23.4721 2.0941L27.1793 5.82765C27.3315 5.97539 27.4521 6.15285 27.5347 6.3482C27.6173 6.54355 27.6603 6.75357 27.6603 6.96567C27.6603 7.17769 27.6173 7.38786 27.5347 7.58314C27.4521 7.77829 27.3313 7.95487 27.1793 8.10249L24.4928 10.771L18.4844 4.76263L21.1709 2.0941C21.3182 1.93674 21.4961 1.81135 21.6938 1.72553C21.8916 1.63973 22.1053 1.59515 22.3209 1.59509Z" fill="url(#paint2_linear_1041_7087)"/>
</mask>
<g mask="url(#mask0_1041_7087)">
<ellipse cx="29.358" cy="5.90113" rx="6.68222" ry="7.10621" fill="url(#paint3_linear_1041_7087)"/>
</g>
<path d="M30.3713 21.1321C30.023 20.3213 29.5276 19.5824 28.9101 18.9528C28.2758 18.3414 27.5395 17.8461 26.7346 17.4892C25.904 17.1331 25.0079 16.9558 24.1045 16.9688C23.1927 16.978 22.2903 17.1544 21.4419 17.4892C20.6262 17.8262 19.8864 18.3239 19.2665 18.9528C18.6491 19.5824 18.1536 20.3213 17.8054 21.1321C17.4498 21.9641 17.2728 22.8617 17.2858 23.7667C17.281 24.6605 17.4536 25.5464 17.7936 26.3728C18.1336 27.1992 18.6343 27.9497 19.2665 28.5805C19.9008 29.1919 20.6371 29.6873 21.442 30.0441C22.2754 30.414 23.1768 30.6051 24.0884 30.6051C24.9999 30.6051 25.9013 30.414 26.7347 30.0441C27.544 29.6953 28.2817 29.199 28.9102 28.5805C29.5381 27.9595 30.035 27.2184 30.3714 26.4012C30.731 25.5694 30.9188 24.6732 30.9233 23.7666C30.9156 22.8604 30.7279 21.9649 30.3713 21.1321Z" fill="url(#paint4_linear_1041_7087)"/>
<path d="M24.8831 20.6539C25.1715 20.3655 25.638 20.3655 25.9264 20.6539L28.5273 23.2537C28.6612 23.3872 28.7437 23.5726 28.7437 23.7765C28.7435 23.9802 28.661 24.1648 28.5273 24.2981L25.9264 26.8991C25.6383 27.1869 25.1715 27.1865 24.8831 26.8991C24.5947 26.6107 24.5947 26.143 24.8831 25.8546L26.2221 24.5145H20.2028C19.7952 24.5145 19.4652 24.1841 19.4648 23.7765C19.4648 23.3687 19.795 23.0385 20.2028 23.0385H26.2233L24.8831 21.6972C24.5947 21.4088 24.5947 20.9423 24.8831 20.6539Z" fill="#F3FDFF"/>
<defs>
<linearGradient id="paint0_linear_1041_7087" x1="7.92395" y1="1.87174" x2="8.34258" y2="24.715" gradientUnits="userSpaceOnUse">
<stop stop-color="#00AFD1"/>
<stop offset="1" stop-color="#A1EFFF"/>
</linearGradient>
<linearGradient id="paint1_linear_1041_7087" x1="14.6695" y1="22.163" x2="27.5822" y2="-1.28688" gradientUnits="userSpaceOnUse">
<stop stop-color="#00AFD1"/>
<stop offset="1" stop-color="#A1EFFF"/>
</linearGradient>
<linearGradient id="paint2_linear_1041_7087" x1="21.5273" y1="26.3236" x2="23.0931" y2="10.0463" gradientUnits="userSpaceOnUse">
<stop stop-color="#00B4D8"/>
<stop offset="1" stop-color="#1FDAFF"/>
</linearGradient>
<linearGradient id="paint3_linear_1041_7087" x1="32.8855" y1="12.3626" x2="33.8007" y2="3.44305" gradientUnits="userSpaceOnUse">
<stop stop-color="#00B4D8"/>
<stop offset="1" stop-color="#1FDAFF"/>
</linearGradient>
<linearGradient id="paint4_linear_1041_7087" x1="21.2492" y1="17.2664" x2="21.532" y2="31.5515" gradientUnits="userSpaceOnUse">
<stop stop-color="#00AFD1"/>
<stop offset="1" stop-color="#A1EFFF"/>
</linearGradient>
</defs>
</svg>
