<svg width="32" height="32" viewBox="0 0 32 32" fill="none" xmlns="http://www.w3.org/2000/svg">
<path d="M27.553 23.7107C28.3159 23.7107 28.9389 24.3167 28.9389 25.0571C28.9389 25.7981 28.3159 26.4041 27.553 26.4041H23.047L24.5028 28.2891C24.6118 28.4298 24.6913 28.591 24.7365 28.7632C24.7817 28.9353 24.7917 29.1148 24.7658 29.2909C24.7399 29.467 24.6787 29.6361 24.5859 29.7879C24.4931 29.9398 24.3705 30.0713 24.2256 30.1747C23.9764 30.3564 23.6834 30.4439 23.3947 30.4439C23.1809 30.4449 22.9698 30.3968 22.7775 30.3035C22.5852 30.2101 22.4168 30.0739 22.2853 29.9054L19.5816 26.4041H12.4179L9.71478 29.9054C9.58329 30.0739 9.41494 30.2101 9.22264 30.3035C9.03034 30.3968 8.8192 30.4449 8.60544 30.4439C8.30673 30.4445 8.01556 30.3502 7.77389 30.1747C7.62925 30.0711 7.50696 29.9395 7.41433 29.7876C7.3217 29.6357 7.26063 29.4668 7.23476 29.2908C7.20888 29.1148 7.21875 28.9354 7.26375 28.7633C7.30876 28.5912 7.38799 28.4299 7.4967 28.2891L8.95253 26.4041H4.44647C3.6836 26.4041 3.06055 25.7981 3.06055 25.0571C3.06055 24.3167 3.6836 23.7107 4.44647 23.7107H27.553Z" fill="url(#paint0_linear_1041_4892)"/>
<rect x="3.05566" y="1.5589" width="25.8831" height="20.1969" rx="2" fill="url(#paint1_linear_1041_4892)"/>
<mask id="mask0_1041_4892" style="mask-type:alpha" maskUnits="userSpaceOnUse" x="3" y="1" width="26" height="21">
<rect x="3.05566" y="1.5589" width="25.8831" height="20.1969" rx="2" fill="url(#paint2_linear_1041_4892)"/>
</mask>
<g mask="url(#mask0_1041_4892)">
<path d="M24.9668 11.6559C29.7477 11.6559 33.6239 14.8476 33.624 18.7848C33.624 22.7221 29.7478 25.9137 24.9668 25.9137C23.5755 25.9137 22.2615 25.6421 21.0967 25.1617C21.0211 29.0334 17.8614 32.1488 13.9717 32.149C10.0344 32.149 6.84189 28.9574 6.8418 25.0201C6.8418 21.0828 10.0344 17.8912 13.9717 17.8912C14.7991 17.8913 15.5932 18.0333 16.332 18.2926C16.6392 14.5851 20.3869 11.6559 24.9668 11.6559Z" fill="url(#paint3_linear_1041_4892)"/>
</g>
<path d="M12.9831 7.64938C13.0899 7.64395 13.1964 7.6678 13.2908 7.71852L15.1526 8.71317C15.1776 8.72509 15.2007 8.7415 15.2201 8.76129C15.8216 9.35778 16.6434 13.0704 16.8284 14.1555C16.844 14.24 16.8461 14.3266 16.8339 14.4116L17.4099 14.9609L18.4977 13.4242C18.9047 12.7123 19.7535 12.2079 20.1614 12.9197L22.6727 17.7125C22.7122 17.7811 22.733 17.8595 22.733 17.9388C22.733 18.018 22.7126 18.0959 22.6732 18.1645C22.6338 18.2331 22.5769 18.2899 22.5087 18.3293C22.4404 18.3688 22.363 18.3895 22.2843 18.3891H15.8827C15.8304 18.389 15.7788 18.3751 15.7335 18.3487C15.6883 18.3223 15.6505 18.2843 15.6244 18.2386C15.5983 18.1929 15.5843 18.1409 15.5843 18.0881C15.5844 18.0354 15.5982 17.9834 15.6244 17.9377L16.9305 15.6967L13.6567 13.1686L13.7149 13.2471C13.658 13.3901 13.6832 13.5419 13.5355 13.5C13.0104 13.3496 11.6464 12.6258 11.1361 12.4378C11.0668 12.4123 11.0093 12.3615 10.9749 12.2957C10.9404 12.2298 10.9314 12.1532 10.9496 12.081C10.987 11.9334 10.8993 12.1617 10.9974 11.8476C11.0346 11.7269 10.9926 11.5965 10.8942 11.5195L9.78286 10.6543L9.46196 10.3927C9.37735 10.3082 9.3198 10.2001 9.29685 10.0823C9.27392 9.96447 9.28635 9.84208 9.33305 9.7316C9.57331 9.1597 10.0066 8.42692 10.1603 8.12899C10.1825 8.08728 10.2141 8.05126 10.2524 8.02389C10.2908 7.99651 10.3349 7.97864 10.3813 7.97133C10.8554 7.89943 12.334 7.68109 12.9831 7.64938ZM11.0325 12.9302C11.7502 13.0988 13.5503 13.9851 13.5503 13.9851C14.0058 14.1972 14.8259 15.5306 14.8191 16.3793C14.8174 16.7214 14.6368 17.2898 14.0939 18.211C14.0404 18.3025 13.9416 18.3581 13.8372 18.3581H13.236C13.1842 18.3579 13.1333 18.3443 13.0884 18.3183C13.0435 18.2922 13.0056 18.2549 12.9793 18.2098C12.9529 18.1648 12.9389 18.1133 12.9381 18.061C12.9373 18.0088 12.95 17.957 12.9749 17.9111C13.1896 17.5186 13.4644 16.9346 13.5064 16.4501C13.5387 16.0568 12.6927 14.7465 11.6869 14.7529C11.5521 14.7553 10.668 17.442 10.3654 18.1733C10.3432 18.2283 10.3047 18.2754 10.2557 18.3083C10.2068 18.3412 10.1493 18.3584 10.0906 18.3581H9.56564C9.51965 18.3583 9.47415 18.3476 9.43289 18.3271C9.39167 18.3066 9.35546 18.2771 9.32757 18.2403C9.29966 18.2034 9.28091 18.1602 9.27217 18.1147C9.26346 18.0692 9.26487 18.0221 9.2771 17.9775C9.55218 16.9796 10.4558 13.9628 10.677 13.1437C10.6977 13.0689 10.7463 13.0048 10.8125 12.965C10.8786 12.9252 10.9574 12.9129 11.0325 12.9302ZM14.9831 11.2778C14.8995 11.0068 14.5253 10.9918 14.4209 11.2551L14.021 12.2497L15.8229 13.7533C15.5008 13.0419 15.1979 11.9811 14.9831 11.2778ZM11.0884 8.87913C11.0331 8.87736 10.9784 8.8911 10.9304 8.91896C10.8825 8.94682 10.8431 8.98766 10.8169 9.03679C10.6614 9.32652 10.4102 9.87458 10.4389 9.90198L11.0341 10.4662C11.0694 10.5004 11.1126 10.5254 11.1597 10.5387C11.2069 10.552 11.2572 10.5533 11.3051 10.5426C11.3528 10.5318 11.3974 10.5094 11.4345 10.4773C11.4717 10.4451 11.5002 10.4039 11.5179 10.3578C11.6881 9.91535 11.8194 9.60558 11.9628 9.33938C12.0685 9.14213 11.9316 8.90129 11.711 8.89683L11.0884 8.87913ZM15.2936 4.92268C15.4932 4.92183 15.6913 4.96101 15.8756 5.0383C16.0598 5.11558 16.227 5.22917 16.3671 5.37243C16.5073 5.51577 16.6178 5.68614 16.6918 5.87307C16.7659 6.06006 16.8019 6.26035 16.7983 6.46167C16.7946 6.66301 16.7513 6.8617 16.6705 7.04584C16.5896 7.22999 16.473 7.39621 16.3276 7.53431C16.1823 7.67234 16.0111 7.77979 15.824 7.85018C15.6369 7.9206 15.4377 7.95252 15.2382 7.94423C14.847 7.92795 14.4776 7.75802 14.2091 7.47069C13.9406 7.1833 13.7944 6.80112 13.8015 6.40635C13.8087 6.0115 13.9687 5.63477 14.2475 5.35749C14.5263 5.08025 14.902 4.92441 15.2936 4.92268Z" fill="url(#paint4_linear_1041_4892)"/>
<defs>
<linearGradient id="paint0_linear_1041_4892" x1="26.6987" y1="24.4455" x2="25.6783" y2="30.9992" gradientUnits="userSpaceOnUse">
<stop offset="0.130769" stop-color="#00AFD1"/>
<stop offset="1" stop-color="#70E7FF"/>
</linearGradient>
<linearGradient id="paint1_linear_1041_4892" x1="19.2388" y1="9.41897" x2="6.42462" y2="-1.53915" gradientUnits="userSpaceOnUse">
<stop stop-color="#00AFD1"/>
<stop offset="1" stop-color="#A1EFFF"/>
</linearGradient>
<linearGradient id="paint2_linear_1041_4892" x1="19.2388" y1="9.41897" x2="6.42462" y2="-1.53915" gradientUnits="userSpaceOnUse">
<stop stop-color="#00AFD1"/>
<stop offset="1" stop-color="#A1EFFF"/>
</linearGradient>
<linearGradient id="paint3_linear_1041_4892" x1="23.7716" y1="30.8134" x2="-2.14948" y2="15.1781" gradientUnits="userSpaceOnUse">
<stop stop-color="#00B4D8"/>
<stop offset="1" stop-color="#1FDAFF"/>
</linearGradient>
<linearGradient id="paint4_linear_1041_4892" x1="15.9998" y1="4.92267" x2="15.9998" y2="18.3891" gradientUnits="userSpaceOnUse">
<stop stop-color="white"/>
<stop offset="1" stop-color="white" stop-opacity="0.8"/>
</linearGradient>
</defs>
</svg>
