<svg width="32" height="32" viewBox="0 0 32 32" fill="none" xmlns="http://www.w3.org/2000/svg">
<path d="M19.1341 26.8358C19.559 28.0598 20.2808 29.1444 21.2142 30.0037C20.8093 30.0529 20.4033 30.0994 19.9964 30.1317C15.5348 30.4847 11.0761 30.4561 6.6214 30.0164C5.15598 29.872 5.15558 29.8716 5.15558 28.4852C5.15902 27.9494 5.15851 27.4133 5.15851 26.8358H19.1341ZM5.83429 20.2283C5.85498 20.2187 5.87663 20.231 6.00421 20.2567C6.00421 21.7007 6.01375 23.1354 5.98273 24.5731C5.97928 24.695 5.71074 24.8975 5.54523 24.9168C3.72826 25.1094 3.14161 25.6966 3.13117 27.3875C3.12772 28.0454 3.13117 28.7039 3.13117 29.5448C2.09005 29.2078 1.14883 28.9192 0.224915 28.5887C0.104233 28.547 -0.00659036 28.2962 0.000305751 28.1453C0.169258 24.6056 1.76943 21.4191 5.83429 20.2283ZM9.14484 18.8963C12.0929 22.4232 16.1236 22.0478 18.6097 18.9735C19.7372 19.1564 19.7444 19.1561 19.7444 20.199C19.7446 20.2683 19.7434 20.3377 19.7435 20.4071C19.0838 21.5489 18.7054 22.8735 18.7054 24.2869C18.7054 24.5053 18.716 24.7216 18.7337 24.9354C15.3927 24.9182 12.0516 24.92 8.70734 24.9324C8.2453 24.9357 8.05884 24.8172 8.06574 24.3582C8.08987 22.821 8.0928 21.2802 8.06867 19.743C8.05862 18.9606 8.81383 19.2106 9.14484 18.8963ZM20.6478 9.92952C20.7546 10.6098 20.6161 11.354 20.2093 12.1658C21.554 12.7403 21.3821 13.7292 19.9857 14.4256C19.5995 14.6182 19.2991 14.9196 19.0198 15.202C18.2509 15.9818 17.6372 16.8715 16.7269 17.5487C15.0443 18.7968 12.7858 18.7937 11.1136 17.5262C10.1723 16.8137 9.54141 15.8793 8.74835 15.0545C8.54148 14.8395 8.26525 14.6596 8.00324 14.4735C7.68273 14.2426 7.29011 14.0532 7.02472 13.7967C6.42131 13.2126 6.65915 12.5574 7.64874 12.2108C7.242 11.3829 7.10677 10.6226 7.22394 9.92952H20.6478ZM16.6859 10.3719C16.5169 10.5131 16.3446 10.6455 16.1653 10.7674C12.9467 12.991 8.36339 12.479 8.34503 12.4774C8.4108 12.4847 9.03068 14.2913 9.13409 14.4774C9.42372 15.0004 9.79698 15.4812 10.2142 15.953C10.99 16.8291 12.0038 17.7859 13.5071 17.9657C15.9826 18.2638 17.5862 16.1421 18.431 14.8778C18.5196 14.7415 19.6915 12.5562 19.5306 12.5291C17.8102 12.2564 17.1028 11.3098 16.8372 10.7674C16.72 10.5331 16.6859 10.3719 16.6859 10.3719ZM13.0862 1.65901C13.5482 1.62693 14.0135 1.61382 14.472 1.63948C14.4858 1.63948 14.4963 1.64018 14.5101 1.64338C14.548 1.64659 14.5898 1.64604 14.6312 1.64924C14.7726 1.65906 15.0208 1.77792 15.0208 1.84846C15.0277 2.22069 15.2863 2.33897 15.5862 2.40315C15.6137 2.40953 15.6413 2.41362 15.6653 2.41682C15.7342 2.42645 15.7962 2.43915 15.8548 2.45198C15.8582 2.45198 15.8655 2.45491 15.8724 2.45491C16.3927 2.54159 16.5376 2.78232 16.5032 3.19612C16.5032 3.21201 16.4994 3.22808 16.4993 3.24397C16.4648 3.67722 16.489 4.11416 16.4993 4.55061C16.4993 4.59233 16.5027 4.63417 16.5062 4.67268C16.5372 4.90373 16.6514 5.09023 17.0169 5.08381C17.4442 5.07737 17.5061 4.81723 17.5062 4.53499C17.5096 4.11457 17.5101 3.69328 17.5101 3.19905C17.6892 3.28242 17.8855 3.37574 18.0784 3.47835C18.0819 3.47835 18.0896 3.48197 18.0931 3.48518C18.2652 3.57813 18.3544 3.65543 18.4026 3.71956C19.1819 4.32611 19.7507 5.0322 20.0989 5.83772C20.261 6.21317 20.3748 6.61099 20.4368 7.02815C20.461 7.18213 20.4998 7.31667 20.5618 7.43538C20.5756 7.45784 20.5891 7.4842 20.6028 7.50667C20.6061 7.5067 20.6058 7.50932 20.6058 7.5096H20.6097C20.8786 7.5096 21.1134 7.62804 21.2444 7.80452C21.3134 7.89759 21.3543 8.00734 21.3577 8.12288V8.17073C21.3577 8.24116 21.3408 8.3052 21.3099 8.36604C21.2237 8.53292 21.0302 8.65566 20.7991 8.6717C20.782 8.67487 20.7645 8.67463 20.7474 8.67463H10.5003C9.63855 8.72276 8.95223 8.69709 8.59699 8.67463H7.06964C6.82483 8.66822 6.6173 8.54255 6.52765 8.36604C6.49676 8.30519 6.4798 8.24116 6.4798 8.17073V8.12288C6.4798 8.10689 6.47932 8.08737 6.48273 8.06819C6.5172 7.75699 6.83449 7.50977 7.22394 7.5096H7.25909C7.27285 7.48716 7.28295 7.461 7.29327 7.43538C7.33453 7.33606 7.35906 7.22406 7.37628 7.10237C7.4349 6.66911 7.54476 6.25437 7.71027 5.86604C8.09986 4.94521 8.78624 4.15287 9.73761 3.48225C9.8514 3.39881 9.9935 3.34025 10.2142 3.22151C10.221 3.21826 10.2309 3.21197 10.2376 3.20881V3.2762C10.2445 3.75437 10.2551 4.1655 10.262 4.57307C10.2689 4.85549 10.3345 5.11575 10.762 5.11897C11.1241 5.12218 11.2383 4.9357 11.2659 4.70784C11.2694 4.66618 11.2728 4.62449 11.2728 4.58284C11.2762 4.13033 11.2932 3.67765 11.2484 3.22835C11.2449 3.19948 11.2415 3.1703 11.2415 3.14143C11.2278 2.77897 11.383 2.56399 11.8655 2.47737C11.8896 2.47416 11.9137 2.46788 11.9378 2.46467C11.9791 2.45506 12.0205 2.4457 12.0687 2.43928C12.072 2.43617 12.0788 2.43538 12.0823 2.43538H12.0862C12.4103 2.36798 12.6995 2.25582 12.6995 1.86116C12.6997 1.79054 12.9449 1.66863 13.0862 1.65901Z" fill="url(#paint0_linear_1041_5224)"/>
<path d="M25.957 18.2852C29.2952 18.2853 32.001 20.992 32.001 24.3301C32.0008 27.6682 29.2951 30.374 25.957 30.3741C22.6189 30.3741 19.9123 27.6683 19.9121 24.3301C19.9121 20.9919 22.6188 18.2852 25.957 18.2852Z" fill="url(#paint1_linear_1041_5224)"/>
<mask id="mask0_1041_5224" style="mask-type:alpha" maskUnits="userSpaceOnUse" x="19" y="18" width="14" height="13">
<circle cx="25.9566" cy="24.3298" r="6.04444" fill="url(#paint2_linear_1041_5224)"/>
</mask>
<g mask="url(#mask0_1041_5224)">
<ellipse cx="30.2676" cy="24.0892" rx="8.06542" ry="5.43946" fill="url(#paint3_linear_1041_5224)"/>
</g>
<path d="M27.2375 23.0902C27.3817 22.946 27.615 22.9461 27.7592 23.0902C27.9033 23.2343 27.9033 23.4676 27.7592 23.6118L25.7039 25.6683C25.5597 25.8125 25.3252 25.8125 25.181 25.6683L24.1534 24.6406C24.0092 24.4964 24.0092 24.262 24.1534 24.1178C24.2975 23.974 24.5309 23.974 24.675 24.1178L25.4419 24.8846L27.2375 23.0902Z" fill="#FEF0FB"/>
<path fill-rule="evenodd" clip-rule="evenodd" d="M26.1161 20.0697L26.3349 20.1743C27.3465 20.659 28.385 21.0876 29.4443 21.4567L29.6919 21.5433V24.7344C29.6918 25.3545 29.4702 25.9541 29.0693 26.4267C28.3462 27.2759 27.356 27.9948 26.1161 28.589L25.9563 28.6659L25.7976 28.589C24.5576 27.9948 23.5676 27.2771 22.8445 26.4279L22.8433 26.4267C22.4424 25.9541 22.2208 25.3545 22.2207 24.7344V21.5433L22.4695 21.4567C23.5287 21.0876 24.5674 20.659 25.5789 20.1743L25.7976 20.0697L25.9563 19.9928L26.1161 20.0697ZM25.8974 20.8402C24.9403 21.2988 23.959 21.706 22.9599 22.0637V24.7344C22.96 25.1793 23.1189 25.6101 23.407 25.9495C24.0178 26.6667 24.8638 27.2987 25.9563 27.8426C27.0491 27.2986 27.8959 26.6669 28.5068 25.9495C28.7947 25.6101 28.9538 25.1791 28.9539 24.7344V22.0637C27.9547 21.706 26.9736 21.2988 26.0164 20.8402L25.9563 20.8113L25.8974 20.8402Z" fill="#FEF0FB"/>
<defs>
<linearGradient id="paint0_linear_1041_5224" x1="23.7795" y1="9.59657" x2="1.70501" y2="16.0517" gradientUnits="userSpaceOnUse">
<stop stop-color="#FFABEA"/>
<stop offset="1" stop-color="#FD68D8"/>
</linearGradient>
<linearGradient id="paint1_linear_1041_5224" x1="32.001" y1="23.5246" x2="22.2735" y2="26.7858" gradientUnits="userSpaceOnUse">
<stop stop-color="#FFABEA"/>
<stop offset="1" stop-color="#FD68D8"/>
</linearGradient>
<linearGradient id="paint2_linear_1041_5224" x1="32.001" y1="23.5248" x2="31.8599" y2="27.8024" gradientUnits="userSpaceOnUse">
<stop stop-color="#FFABEA"/>
<stop offset="1" stop-color="#FD68D8"/>
</linearGradient>
<linearGradient id="paint3_linear_1041_5224" x1="38.333" y1="23.3647" x2="38.2473" y2="27.2165" gradientUnits="userSpaceOnUse">
<stop stop-color="#FFABEA"/>
<stop offset="1" stop-color="#FD68D8"/>
</linearGradient>
</defs>
</svg>
