<svg width="32" height="32" viewBox="0 0 32 32" fill="none" xmlns="http://www.w3.org/2000/svg">
<g clip-path="url(#clip0_1041_6768)">
<path d="M26.0566 14.8231C25.7124 15.5115 10.5665 16.8884 8.15692 16.5442C6.09158 16.2 2.30511 15.1673 0.928209 12.0693C0.583985 11.3808 0.583984 10.3481 0.583984 9.31547C1.27243 3.80788 8.84537 0.709854 13.3203 0.365629C15.0414 0.365629 21.5817 -0.322819 25.7124 4.1521C26.745 5.18477 27.4335 6.21745 27.7777 7.25012C28.8104 11.0366 26.4008 14.1346 26.0566 14.8231Z" fill="url(#paint0_linear_1041_6768)"/>
<path d="M26.3499 14.8223C26.0016 15.5108 10.6787 16.8877 8.24095 16.5435C6.15146 16.1992 2.32073 15.1666 0.927734 12.0685C2.66898 11.7243 25.6534 7.93784 27.7429 7.24939C29.1359 11.0359 26.6981 14.1339 26.3499 14.8223Z" fill="url(#paint1_linear_1041_6768)"/>
<path d="M23.9908 17.5769C22.6139 17.5769 16.7621 16.8884 15.7294 14.4789C15.041 12.0693 17.1063 10.3482 18.139 10.0039C19.1717 9.65971 21.5813 8.62703 24.3351 8.97126C25.0235 8.97126 29.8426 8.62703 30.5311 12.7577V13.4462C30.8753 17.9211 25.3677 17.5769 23.9908 17.5769Z" fill="url(#paint2_linear_1041_6768)"/>
<mask id="mask0_1041_6768" style="mask-type:alpha" maskUnits="userSpaceOnUse" x="15" y="8" width="16" height="10">
<path d="M23.9918 17.5769C22.6149 17.5769 16.7631 16.8884 15.7304 14.4789C15.042 12.0693 17.1073 10.3482 18.14 10.0039C19.1727 9.65971 21.5822 8.62703 24.336 8.97126C25.0245 8.97126 29.8436 8.62703 30.5321 12.7577V13.4462C30.8763 17.9211 25.3687 17.5769 23.9918 17.5769Z" fill="url(#paint3_linear_1041_6768)"/>
</mask>
<g mask="url(#mask0_1041_6768)">
<ellipse cx="28.0338" cy="7.95764" rx="7.45475" ry="7.43176" fill="url(#paint4_linear_1041_6768)"/>
</g>
<path d="M11.9819 23.3471C11.9819 24.0816 11.0025 24.8162 10.0232 25.5507C9.04376 26.0404 8.55406 26.2853 6.84011 26.2853C5.86072 26.2853 2.18798 25.7956 1.45344 24.3265V24.0816C0.718888 22.3677 2.67768 20.4089 4.14677 19.9192C5.37102 19.6744 8.79891 19.1847 10.268 19.9192C11.2474 20.4089 11.7371 21.1434 11.9819 21.878V23.3471ZM26.1832 31.672C23.4898 31.672 18.8377 31.1823 18.1032 27.5095V27.2647C17.6135 23.3471 23.4898 22.1228 23.9795 22.1228C24.9589 22.1228 29.3662 21.6331 30.8353 25.061C30.8353 25.3059 31.0802 25.3059 31.0802 25.5507C32.5493 28.9786 28.8765 31.672 26.1832 31.672Z" fill="url(#paint5_linear_1041_6768)"/>
<path d="M21.2368 14.8236C18.483 15.8562 11.2543 15.1678 9.5332 14.8236V13.7909C9.87743 11.7255 13.3197 10.6929 15.0408 10.6929C16.0735 10.6929 20.5484 11.7255 21.2368 14.8236Z" fill="url(#paint6_linear_1041_6768)"/>
<path d="M15.0408 19.2971C12.9754 18.9529 9.87743 16.8875 9.5332 15.1664C11.2543 15.5106 18.483 16.1991 21.2368 15.1664V15.5106C21.9253 18.2644 17.4504 19.6413 15.0408 19.2971Z" fill="#EAEAEA"/>
<path d="M15.0408 19.2971C12.9754 18.9529 9.87743 16.8875 9.5332 15.1664C11.2543 15.5106 18.483 16.1991 21.2368 15.1664V15.5106C21.9253 18.2644 17.4504 19.6413 15.0408 19.2971Z" fill="url(#paint7_linear_1041_6768)"/>
<path d="M11.9826 23.3476C11.9826 24.0822 11.0032 24.8167 10.0238 25.5513C9.04442 26.041 8.55472 26.2858 6.84078 26.2858C5.86138 26.2858 2.18865 25.7961 1.4541 24.327C3.16804 24.327 6.59593 24.0822 7.82018 23.5925C8.79957 23.1028 11.0032 22.3682 11.9826 21.8785V23.3476ZM26.1839 31.6725C23.4905 31.6725 18.8384 31.1828 18.1038 27.5101C20.5523 27.7549 24.2251 27.2652 25.2045 27.2652C25.939 27.0204 29.8566 26.2858 31.0808 25.7961C32.5499 28.9792 28.8772 31.6725 26.1839 31.6725Z" fill="url(#paint8_linear_1041_6768)"/>
</g>
<defs>
<linearGradient id="paint0_linear_1041_6768" x1="17.7463" y1="6.65973" x2="7.36917" y2="-5.02198" gradientUnits="userSpaceOnUse">
<stop stop-color="#00AFD1"/>
<stop offset="1" stop-color="#A1EFFF"/>
</linearGradient>
<linearGradient id="paint1_linear_1041_6768" x1="25.8109" y1="8.26964" x2="25.797" y2="16.6309" gradientUnits="userSpaceOnUse">
<stop stop-color="#A1EFFF"/>
<stop offset="1" stop-color="#00AFD1"/>
</linearGradient>
<linearGradient id="paint2_linear_1041_6768" x1="32.2866" y1="18.9122" x2="24.3129" y2="4.45401" gradientUnits="userSpaceOnUse">
<stop stop-color="#A1EFFF"/>
<stop offset="1" stop-color="#00AFD1"/>
</linearGradient>
<linearGradient id="paint3_linear_1041_6768" x1="25.0461" y1="17.0172" x2="24.1597" y2="12.0239" gradientUnits="userSpaceOnUse">
<stop stop-color="#1FDAFF"/>
<stop offset="1" stop-color="#00B4D8"/>
</linearGradient>
<linearGradient id="paint4_linear_1041_6768" x1="30.0038" y1="14.4206" x2="27.5439" y2="6.35178" gradientUnits="userSpaceOnUse">
<stop stop-color="#00B4D8"/>
<stop offset="1" stop-color="#1FDAFF"/>
</linearGradient>
<linearGradient id="paint5_linear_1041_6768" x1="20.1272" y1="24.2561" x2="13.2257" y2="12.8301" gradientUnits="userSpaceOnUse">
<stop stop-color="#00AFD1"/>
<stop offset="1" stop-color="#A1EFFF"/>
</linearGradient>
<linearGradient id="paint6_linear_1041_6768" x1="16.8508" y1="12.5127" x2="14.2035" y2="8.09134" gradientUnits="userSpaceOnUse">
<stop stop-color="#00AFD1"/>
<stop offset="1" stop-color="#A1EFFF"/>
</linearGradient>
<linearGradient id="paint7_linear_1041_6768" x1="20.2887" y1="15.6229" x2="20.2822" y2="19.3639" gradientUnits="userSpaceOnUse">
<stop stop-color="#A1EFFF"/>
<stop offset="1" stop-color="#00AFD1"/>
</linearGradient>
<linearGradient id="paint8_linear_1041_6768" x1="28.8225" y1="22.9474" x2="28.8086" y2="31.7072" gradientUnits="userSpaceOnUse">
<stop stop-color="#A1EFFF"/>
<stop offset="1" stop-color="#00AFD1"/>
</linearGradient>
<clipPath id="clip0_1041_6768">
<rect width="32" height="32" fill="white"/>
</clipPath>
</defs>
</svg>
