<svg width="32" height="32" viewBox="0 0 32 32" fill="none" xmlns="http://www.w3.org/2000/svg">
<path d="M21.7624 2.80193C21.6939 2.59853 21.5032 2.46155 21.2886 2.46155H17.8467C17.5521 2.46155 17.3214 2.71482 17.3488 3.00805L17.7997 7.83463C17.8228 8.09975 17.6122 8.32821 17.341 8.32821H14.6324C14.3612 8.32821 14.1478 8.09975 14.1737 7.83463L14.6477 3.01044C14.6766 2.71639 14.4456 2.46155 14.1501 2.46155H9.87929C9.65946 2.46155 9.46541 2.60513 9.40114 2.81535L1.42805 28.8923C1.32979 29.2136 1.57016 29.5385 1.90619 29.5385H11.5831C11.8402 29.5385 12.0555 29.3434 12.0807 29.0875L12.5785 24.0357C12.6247 23.5731 13.0228 23.2205 13.4987 23.2205H18.3939C18.8699 23.2205 19.2709 23.5759 19.3141 24.0413L19.7826 29.0847C19.8064 29.3418 20.0222 29.5385 20.2804 29.5385H30.0729C30.4148 29.5385 30.6559 29.2029 30.5467 28.8789L21.7624 2.80193ZM13.1497 18.2141L13.5997 13.659C13.6459 13.1964 14.0439 12.8439 14.5199 12.8439H17.4247C17.9007 12.8439 18.3016 13.1992 18.3449 13.6646L18.7689 18.2141C18.792 18.4792 18.5814 18.7077 18.3103 18.7077H13.6112C13.3372 18.7077 13.1237 18.4792 13.1497 18.2141Z" fill="url(#paint0_linear_1041_6733)"/>
<path d="M23.9453 17.131C24.9062 17.131 25.8333 17.2506 26.7051 17.4738L30.5479 28.879C30.6568 29.203 30.4151 29.5382 30.0732 29.5382H20.2812C20.0231 29.5382 19.8073 29.342 19.7832 29.0851L19.3145 24.0411C19.2711 23.5758 18.8704 23.2208 18.3945 23.2208H13.499C13.0234 23.221 12.6254 23.573 12.5791 24.0353L12.0811 29.087C12.0558 29.3429 11.841 29.5381 11.584 29.5382H4.86133C5.21626 25.6444 8.48835 22.5939 12.4746 22.5939C13.3285 22.5939 14.1492 22.736 14.916 22.9943C15.4191 21.2615 16.6388 19.7589 18.3018 18.7081H18.3105C18.492 18.7081 18.6444 18.6043 18.7197 18.4572C20.2081 17.6205 22.0071 17.131 23.9453 17.131Z" fill="url(#paint1_linear_1041_6733)"/>
<defs>
<linearGradient id="paint0_linear_1041_6733" x1="24.727" y1="16" x2="3.7085" y2="0.277104" gradientUnits="userSpaceOnUse">
<stop stop-color="#4F5DFC"/>
<stop offset="1" stop-color="#A5ACFE"/>
</linearGradient>
<linearGradient id="paint1_linear_1041_6733" x1="31.1803" y1="28.0622" x2="17.8289" y2="28.0622" gradientUnits="userSpaceOnUse">
<stop stop-color="#8791FF"/>
<stop offset="1" stop-color="#6C78FD"/>
</linearGradient>
</defs>
</svg>
