<svg width="32" height="32" viewBox="0 0 32 32" fill="none" xmlns="http://www.w3.org/2000/svg">
<rect x="3.7373" y="1.97961" width="24.5246" height="26.7542" rx="2" fill="url(#paint0_linear_1041_6580)"/>
<path d="M22.1211 17.5637C24.4635 17.5639 26.607 18.2639 28.2627 19.4221V26.7336C28.2627 27.8382 27.3672 28.7336 26.2627 28.7336H5.68945C4.64908 28.7336 3.7941 27.9394 3.69824 26.9241C5.06837 24.6611 7.55428 23.1487 10.3926 23.1487C11.2655 23.1488 12.1048 23.2938 12.8887 23.5579C13.8871 20.1203 17.6409 17.5637 22.1211 17.5637Z" fill="url(#paint1_linear_1041_6580)"/>
<path d="M14.8037 14.077C15.3134 14.077 15.7267 14.4903 15.7268 15C15.7268 15.5098 15.3135 15.9231 14.8037 15.9231H8.60179C8.09199 15.9231 7.67871 15.5098 7.67871 15C7.67883 14.4903 8.09206 14.077 8.60179 14.077H14.8037Z" fill="#F0F2FE"/>
<path d="M19.9179 7.15149C20.4273 7.15174 20.8407 7.56513 20.841 8.07457C20.841 8.58421 20.4275 8.99739 19.9179 8.99764H8.60179C8.09199 8.99764 7.67871 8.58437 7.67871 8.07457C7.67895 7.56497 8.09214 7.15149 8.60179 7.15149H19.9179Z" fill="#F0F2FE"/>
<defs>
<linearGradient id="paint0_linear_1041_6580" x1="23.2455" y1="15.3567" x2="3.7373" y2="3.09437" gradientUnits="userSpaceOnUse">
<stop stop-color="#4F5DFC"/>
<stop offset="1" stop-color="#A5ACFE"/>
</linearGradient>
<linearGradient id="paint1_linear_1041_6580" x1="29.4324" y1="27.2105" x2="3.69824" y2="27.2105" gradientUnits="userSpaceOnUse">
<stop stop-color="#8791FF"/>
<stop offset="1" stop-color="#6C78FD"/>
</linearGradient>
</defs>
</svg>
