<svg width="32" height="32" viewBox="0 0 32 32" fill="none" xmlns="http://www.w3.org/2000/svg">
<path fill-rule="evenodd" clip-rule="evenodd" d="M4.33301 4C4.33301 3.44772 4.78072 3 5.33301 3H26.6663C27.2186 3 27.6663 3.44772 27.6663 4V12C27.6663 12.5523 27.2186 13 26.6663 13H16.9995V16.3333H26.6663C27.2186 16.3333 27.6663 16.781 27.6663 17.3333V21.6667H29.3328C29.8851 21.6667 30.3328 22.1144 30.3328 22.6667V28C30.3328 28.5523 29.8851 29 29.3328 29H23.9995C23.4472 29 22.9995 28.5523 22.9995 28V22.6667C22.9995 22.1144 23.4472 21.6667 23.9995 21.6667H25.6663V18.3333H16.9995V21.6667H18.6663C19.2186 21.6667 19.6663 22.1144 19.6663 22.6667V28C19.6663 28.5523 19.2186 29 18.6663 29H13.333C12.7807 29 12.333 28.5523 12.333 28V22.6667C12.333 22.1144 12.7807 21.6667 13.333 21.6667H14.9995V18.3333H6.33301V21.6667H7.99935C8.55163 21.6667 8.99935 22.1144 8.99935 22.6667V28C8.99935 28.5523 8.55163 29 7.99935 29H2.66602C2.11373 29 1.66602 28.5523 1.66602 28V22.6667C1.66602 22.1144 2.11373 21.6667 2.66602 21.6667H4.33301V17.3333C4.33301 16.781 4.78072 16.3333 5.33301 16.3333H14.9995V13H5.33301C4.78072 13 4.33301 12.5523 4.33301 12V4ZM9.33301 7C8.78072 7 8.33301 7.44772 8.33301 8C8.33301 8.55228 8.78072 9 9.33301 9H10.6663C11.2186 9 11.6663 8.55228 11.6663 8C11.6663 7.44772 11.2186 7 10.6663 7H9.33301Z" fill="url(#paint0_linear_1041_7135)"/>
<mask id="mask0_1041_7135" style="mask-type:alpha" maskUnits="userSpaceOnUse" x="1" y="3" width="30" height="26">
<path fill-rule="evenodd" clip-rule="evenodd" d="M4.33301 4C4.33301 3.44772 4.78072 3 5.33301 3H26.6663C27.2186 3 27.6663 3.44772 27.6663 4V12C27.6663 12.5523 27.2186 13 26.6663 13H16.9995V16.3333H26.6663C27.2186 16.3333 27.6663 16.781 27.6663 17.3333V21.6667H29.3328C29.8851 21.6667 30.3328 22.1144 30.3328 22.6667V28C30.3328 28.5523 29.8851 29 29.3328 29H23.9995C23.4472 29 22.9995 28.5523 22.9995 28V22.6667C22.9995 22.1144 23.4472 21.6667 23.9995 21.6667H25.6663V18.3333H16.9995V21.6667H18.6663C19.2186 21.6667 19.6663 22.1144 19.6663 22.6667V28C19.6663 28.5523 19.2186 29 18.6663 29H13.333C12.7807 29 12.333 28.5523 12.333 28V22.6667C12.333 22.1144 12.7807 21.6667 13.333 21.6667H14.9995V18.3333H6.33301V21.6667H7.99935C8.55163 21.6667 8.99935 22.1144 8.99935 22.6667V28C8.99935 28.5523 8.55163 29 7.99935 29H2.66602C2.11373 29 1.66602 28.5523 1.66602 28V22.6667C1.66602 22.1144 2.11373 21.6667 2.66602 21.6667H4.33301V17.3333C4.33301 16.781 4.78072 16.3333 5.33301 16.3333H14.9995V13H5.33301C4.78072 13 4.33301 12.5523 4.33301 12V4ZM9.33301 7C8.78072 7 8.33301 7.44772 8.33301 8C8.33301 8.55228 8.78072 9 9.33301 9H10.6663C11.2186 9 11.6663 8.55228 11.6663 8C11.6663 7.44772 11.2186 7 10.6663 7H9.33301Z" fill="url(#paint1_linear_1041_7135)"/>
</mask>
<g mask="url(#mask0_1041_7135)">
<ellipse cx="24.2032" cy="4.8516" rx="7.38461" ry="9.23077" transform="rotate(-50.6969 24.2032 4.8516)" fill="url(#paint2_linear_1041_7135)"/>
<ellipse cx="2.70454" cy="26.9436" rx="3.70151" ry="5.11191" transform="rotate(-50.6969 2.70454 26.9436)" fill="url(#paint3_linear_1041_7135)"/>
</g>
<path d="M10.9838 6.94702C11.5616 6.9471 12.0295 7.41497 12.0295 7.99269C12.0295 8.57042 11.5616 9.03829 10.9838 9.03837H9.12087C8.54309 9.03837 8.0752 8.57047 8.0752 7.99269C8.0752 7.41492 8.54309 6.94702 9.12087 6.94702H10.9838Z" fill="#EEFDF8"/>
<defs>
<linearGradient id="paint0_linear_1041_7135" x1="29.796" y1="-6.56213" x2="7.12472" y2="13.0473" gradientUnits="userSpaceOnUse">
<stop stop-color="#A1FFC3"/>
<stop offset="1" stop-color="#00D14D"/>
</linearGradient>
<linearGradient id="paint1_linear_1041_7135" x1="26.6211" y1="20.9653" x2="24.7256" y2="5.32467" gradientUnits="userSpaceOnUse">
<stop stop-color="#89FFB4"/>
<stop offset="1" stop-color="#45E580"/>
</linearGradient>
<linearGradient id="paint2_linear_1041_7135" x1="25.3769" y1="8.18857" x2="23.8641" y2="-0.101044" gradientUnits="userSpaceOnUse">
<stop stop-color="#89FFB4"/>
<stop offset="1" stop-color="#45EE83"/>
</linearGradient>
<linearGradient id="paint3_linear_1041_7135" x1="3.4165" y1="32.63" x2="5.18953" y2="25.2814" gradientUnits="userSpaceOnUse">
<stop stop-color="#89FFB4"/>
<stop offset="1" stop-color="#45E580" stop-opacity="0.8"/>
</linearGradient>
</defs>
</svg>
