<svg width="32" height="32" viewBox="0 0 32 32" fill="none" xmlns="http://www.w3.org/2000/svg">
<g clip-path="url(#clip0_1041_6309)">
<path fill-rule="evenodd" clip-rule="evenodd" d="M16 0C7.08571 0 0 7.08571 0 16C0 24.9143 7.08571 32 16 32C24.9143 32 32 24.9143 32 16C32 7.08571 24.9143 0 16 0Z" fill="url(#paint0_linear_1041_6309)"/>
<mask id="mask0_1041_6309" style="mask-type:alpha" maskUnits="userSpaceOnUse" x="0" y="0" width="32" height="32">
<path fill-rule="evenodd" clip-rule="evenodd" d="M16 0C7.08571 0 0 7.08571 0 16C0 24.9143 7.08571 32 16 32C24.9143 32 32 24.9143 32 16C32 7.08571 24.9143 0 16 0Z" fill="url(#paint1_linear_1041_6309)"/>
</mask>
<g mask="url(#mask0_1041_6309)">
<ellipse cx="11.3612" cy="10.7727" rx="11.3612" ry="10.7727" transform="matrix(-0.645253 -0.763969 -0.752482 0.658613 21.9756 6.53857)" fill="url(#paint2_linear_1041_6309)"/>
</g>
<path d="M16.0002 22.1154C16.6117 22.1154 17.108 22.6121 17.1083 23.2236V25.631C17.1083 26.2428 16.6119 26.7392 16.0002 26.7392C15.3884 26.7392 14.892 26.2428 14.892 25.631V23.2236C14.8923 22.6121 15.3886 22.1154 16.0002 22.1154Z" fill="#EEFDF8"/>
<path d="M10.1095 20.3245C10.542 19.8926 11.2432 19.8925 11.6756 20.3245C12.1078 20.7571 12.1078 21.4593 11.6756 21.8919L9.97371 23.5938C9.54123 24.0263 8.83901 24.0261 8.4064 23.5938C7.97428 23.1612 7.97416 22.4601 8.4064 22.0277L10.1095 20.3245Z" fill="#EEFDF8"/>
<path d="M20.3247 20.3245C20.7573 19.892 21.4594 19.892 21.892 20.3245L23.5939 22.0277C24.0265 22.4603 24.0265 23.1612 23.5939 23.5938C23.1613 24.0264 22.4604 24.0264 22.0278 23.5938L20.3247 21.8919C19.8921 21.4593 19.8921 20.7571 20.3247 20.3245Z" fill="#EEFDF8"/>
<path d="M8.77539 14.8919C9.38715 14.8919 9.88356 15.3883 9.88356 16C9.88356 16.6118 9.38715 17.1082 8.77539 17.1082H6.36794C5.75618 17.1082 5.25977 16.6118 5.25977 16C5.25977 15.3883 5.75618 14.8919 6.36794 14.8919H8.77539Z" fill="#EEFDF8"/>
<path d="M25.6324 14.8919C26.2438 14.8922 26.7405 15.3885 26.7405 16C26.7405 16.6116 26.2438 17.1079 25.6324 17.1082H23.2249C22.6131 17.1082 22.1167 16.6118 22.1167 16C22.1167 15.3883 22.6131 14.8919 23.2249 14.8919H25.6324Z" fill="#EEFDF8"/>
<path d="M8.4064 8.40508C8.83902 7.97302 9.5413 7.97267 9.97371 8.40508L11.6756 10.1082C12.108 10.5406 12.1077 11.2417 11.6756 11.6743C11.2431 12.1069 10.5421 12.1068 10.1095 11.6743L8.4064 9.97238C7.97382 9.5398 7.97382 8.83766 8.4064 8.40508Z" fill="#EEFDF8"/>
<path d="M22.0278 8.40508C22.4602 7.97314 23.1614 7.97326 23.5939 8.40508C24.0264 8.83758 24.0263 9.53978 23.5939 9.97238L21.892 11.6743C21.4594 12.1069 20.7573 12.1069 20.3247 11.6743C19.8928 11.2417 19.8925 10.5406 20.3247 10.1082L22.0278 8.40508Z" fill="#EEFDF8"/>
<path d="M16.0002 5.25964C16.6119 5.25964 17.1082 5.75612 17.1083 6.36782V8.77527C17.1083 9.38703 16.6119 9.88344 16.0002 9.88344C15.3884 9.88344 14.892 9.38703 14.892 8.77527V6.36782C14.8921 5.75612 15.3884 5.25964 16.0002 5.25964Z" fill="#EEFDF8"/>
</g>
<defs>
<linearGradient id="paint0_linear_1041_6309" x1="21.2654" y1="14.0371" x2="4.76166" y2="4.4845" gradientUnits="userSpaceOnUse">
<stop stop-color="#00D14D"/>
<stop offset="1" stop-color="#A1FFC3"/>
</linearGradient>
<linearGradient id="paint1_linear_1041_6309" x1="17.3174" y1="8.52581" x2="0.558527" y2="26.3373" gradientUnits="userSpaceOnUse">
<stop stop-color="#89FFB4"/>
<stop offset="1" stop-color="#45E580"/>
</linearGradient>
<linearGradient id="paint2_linear_1041_6309" x1="12.2967" y1="5.74039" x2="1.06527" y2="18.3294" gradientUnits="userSpaceOnUse">
<stop stop-color="#89FFB4"/>
<stop offset="1" stop-color="#45E580"/>
</linearGradient>
<clipPath id="clip0_1041_6309">
<rect width="32" height="32" fill="white"/>
</clipPath>
</defs>
</svg>
