<svg width="32" height="32" viewBox="0 0 32 32" fill="none" xmlns="http://www.w3.org/2000/svg">
<g clip-path="url(#clip0_1041_5117)">
<path d="M16.0001 17.4222C15.4668 17.4222 15.1112 17.7778 15.1112 18.3111V27.2C15.1112 28.8889 13.7779 30.2222 12.1779 30.2222C10.5779 30.2222 9.24458 28.8889 9.24458 27.2C9.24458 26.6667 8.88902 26.3111 8.35569 26.3111C7.82235 26.3111 7.4668 26.6667 7.4668 27.2C7.4668 29.8667 9.60013 32 12.1779 32C14.6668 32 16.7112 29.9556 16.889 27.4667C16.889 27.3778 16.9779 27.2889 16.9779 27.2V18.3111C16.889 17.8667 16.5335 17.4222 16.0001 17.4222Z" fill="url(#paint0_linear_1041_5117)"/>
<path d="M16.8887 3.2V0.888889C16.8887 0.355556 16.5331 0 15.9998 0C15.4664 0 15.1109 0.355556 15.1109 0.888889V3.2C7.19978 3.64444 0.888672 9.51111 0.888672 16.8V17.2444C0.888672 17.9556 1.77756 18.2222 2.22201 17.6C3.11089 16.2667 4.71089 15.2889 6.39978 15.2889C8.17756 15.2889 9.68867 16.1778 10.5776 17.5111C10.9331 17.9556 11.5553 17.9556 11.9109 17.5111C12.7998 16.1778 14.3998 15.2889 16.0887 15.2889C17.7776 15.2889 19.2887 16.0889 20.1776 17.4222C20.5331 17.8667 21.1553 17.8667 21.5109 17.4222C22.3998 16.1778 23.9109 15.2889 25.5998 15.2889C27.3776 15.2889 28.8887 16.1778 29.7776 17.6C30.1331 18.1333 31.022 17.9556 31.1109 17.2444V16.8C31.1109 9.51111 24.7998 3.64444 16.8887 3.2Z" fill="url(#paint1_linear_1041_5117)"/>
<mask id="mask0_1041_5117" style="mask-type:alpha" maskUnits="userSpaceOnUse" x="0" y="0" width="32" height="18">
<path d="M16.8887 3.2V0.888889C16.8887 0.355556 16.5331 0 15.9998 0C15.4664 0 15.1109 0.355556 15.1109 0.888889V3.2C7.19978 3.64444 0.888672 9.51111 0.888672 16.8V17.2444C0.888672 17.9556 1.77756 18.2222 2.22201 17.6C3.11089 16.2667 4.71089 15.2889 6.39978 15.2889C8.17756 15.2889 9.68867 16.1778 10.5776 17.5111C10.9331 17.9556 11.5553 17.9556 11.9109 17.5111C12.7998 16.1778 14.3998 15.2889 16.0887 15.2889C17.7776 15.2889 19.2887 16.0889 20.1776 17.4222C20.5331 17.8667 21.1553 17.8667 21.5109 17.4222C22.3998 16.1778 23.9109 15.2889 25.5998 15.2889C27.3776 15.2889 28.8887 16.1778 29.7776 17.6C30.1331 18.1333 31.022 17.9556 31.1109 17.2444V16.8C31.1109 9.51111 24.7998 3.64444 16.8887 3.2Z" fill="url(#paint2_linear_1041_5117)"/>
</mask>
<g mask="url(#mask0_1041_5117)">
<ellipse opacity="0.5" cx="26.6414" cy="17.5026" rx="10.1492" ry="10.118" fill="url(#paint3_linear_1041_5117)"/>
</g>
</g>
<defs>
<linearGradient id="paint0_linear_1041_5117" x1="16.7998" y1="12.0609" x2="6.38013" y2="17.394" gradientUnits="userSpaceOnUse">
<stop stop-color="#A1FFC3"/>
<stop offset="1" stop-color="#00D14D"/>
</linearGradient>
<linearGradient id="paint1_linear_1041_5117" x1="30.5449" y1="-6.60109" x2="15.3225" y2="13.5064" gradientUnits="userSpaceOnUse">
<stop stop-color="#A1FFC3"/>
<stop offset="1" stop-color="#00D14D"/>
</linearGradient>
<linearGradient id="paint2_linear_1041_5117" x1="30.5449" y1="-6.60109" x2="15.3225" y2="13.5064" gradientUnits="userSpaceOnUse">
<stop stop-color="#A1FFC3"/>
<stop offset="1" stop-color="#00D14D"/>
</linearGradient>
<linearGradient id="paint3_linear_1041_5117" x1="36.7904" y1="15.2493" x2="14.0405" y2="22.2076" gradientUnits="userSpaceOnUse">
<stop stop-color="#89FFB4"/>
<stop offset="1" stop-color="#45EE83"/>
</linearGradient>
<clipPath id="clip0_1041_5117">
<rect width="32" height="32" fill="white"/>
</clipPath>
</defs>
</svg>
