<svg width="32" height="32" viewBox="0 0 32 32" fill="none" xmlns="http://www.w3.org/2000/svg">
<path d="M13.8163 1.40167C20.7637 1.40167 26.3963 7.03419 26.3963 13.9816C26.3963 16.8936 25.4071 19.5744 23.7459 21.7064L24.9224 22.883C25.2013 22.8672 25.4804 22.9107 25.7414 23.0104C26.0024 23.1101 26.2393 23.2639 26.4366 23.4616L30.1822 27.2072C30.3666 27.3916 30.513 27.6106 30.6128 27.8516C30.7126 28.0926 30.764 28.3509 30.764 28.6118C30.764 28.8727 30.7126 29.131 30.6128 29.372C30.513 29.613 30.3666 29.832 30.1822 30.0165C29.9977 30.2009 29.7787 30.3472 29.5377 30.4471C29.2967 30.5469 29.0384 30.5983 28.7775 30.5983C28.5166 30.5983 28.2583 30.5469 28.0173 30.4471C27.7763 30.3472 27.5573 30.2009 27.3729 30.0165L23.6273 26.2709C23.4294 26.0734 23.2755 25.8363 23.1758 25.5751C23.0761 25.3139 23.0327 25.0345 23.0487 24.7554L21.9079 23.6146C19.6436 25.5221 16.777 26.5661 13.8163 26.5616C6.86884 26.5616 1.23633 20.9291 1.23633 13.9816C1.23633 7.03419 6.86884 1.40167 13.8163 1.40167ZM13.8163 4.05009C8.33143 4.05009 3.88474 8.49677 3.88474 13.9816C3.88474 19.4665 8.33143 23.9132 13.8163 23.9132C19.3012 23.9132 23.7478 19.4665 23.7478 13.9816C23.7478 8.49677 19.3012 4.05009 13.8163 4.05009Z" fill="url(#paint0_linear_1041_7069)"/>
<path d="M13.7425 7.36743H13.8259C14.3165 7.37227 14.8045 7.43803 15.2788 7.5632C16.2589 7.82589 17.153 8.34073 17.8722 9.05645C18.5914 9.77216 19.1106 10.6638 19.378 11.6425C19.6205 12.5409 19.6434 13.4979 19.4446 14.4052C19.2908 15.1089 19.006 15.7774 18.6049 16.3758C18.4445 16.6234 18.259 16.8538 18.0514 17.0635C16.7029 18.4199 15.3494 19.7724 13.9959 21.1269C13.9678 21.1549 13.9344 21.177 13.8977 21.1919C13.8609 21.2067 13.8216 21.2141 13.782 21.2136C13.7423 21.213 13.7032 21.2045 13.6669 21.1886C13.6306 21.1727 13.5978 21.1497 13.5706 21.1209C12.2369 19.7834 10.9013 18.4478 9.56872 17.1102C9.48326 17.0227 9.39084 16.9382 9.31631 16.8428C8.77779 16.1875 8.3891 15.4223 8.17747 14.6009C7.828 13.2415 7.98421 11.8014 8.61705 10.5485C9.24989 9.29564 10.3163 8.31527 11.6178 7.78978C12.2933 7.51701 13.014 7.37374 13.7425 7.36743ZM13.4453 10.5405C13.1159 10.5864 12.7991 10.698 12.5137 10.8687C12.2283 11.0394 11.9801 11.2657 11.7838 11.5342C11.4726 11.9545 11.3037 12.4632 11.3018 12.9861C11.2967 13.5213 11.4647 14.0439 11.7808 14.4758C12.0969 14.9078 12.5441 15.226 13.0558 15.383C13.5833 15.5454 14.1497 15.5287 14.6667 15.3353C15.1304 15.1586 15.5309 14.8476 15.8169 14.442C16.103 14.0365 16.2615 13.5548 16.2723 13.0586C16.2831 12.5625 16.1456 12.0744 15.8774 11.6568C15.6093 11.2392 15.2227 10.9111 14.767 10.7144C14.3501 10.5389 13.8935 10.4788 13.4453 10.5405Z" fill="url(#paint1_linear_1041_7069)"/>
<path d="M17.5459 15.3361C18.0795 15.3361 18.5802 15.4518 19.0146 15.6525C18.8953 15.9025 18.7594 16.1451 18.6045 16.3762C18.4441 16.6236 18.2592 16.8542 18.0518 17.0637C16.7033 18.4201 15.3495 19.7727 13.9961 21.1271C13.968 21.1551 13.9342 21.1767 13.8975 21.1916C13.8608 21.2064 13.8217 21.2146 13.7822 21.2141C13.7426 21.2135 13.7033 21.2045 13.667 21.1887C13.6307 21.1728 13.5976 21.15 13.5703 21.1213C12.8578 20.4066 12.1455 19.6918 11.4326 18.9777C11.7021 17.9022 12.6719 17.1049 13.8311 17.1047C14.1085 17.1047 14.375 17.1523 14.624 17.2365C14.9395 16.147 16.1263 15.3361 17.5459 15.3361Z" fill="url(#paint2_linear_1041_7069)"/>
<defs>
<linearGradient id="paint0_linear_1041_7069" x1="24.7242" y1="16" x2="2.59755" y2="0.655348" gradientUnits="userSpaceOnUse">
<stop stop-color="#4F5DFC"/>
<stop offset="1" stop-color="#A5ACFE"/>
</linearGradient>
<linearGradient id="paint1_linear_1041_7069" x1="17.2092" y1="14.2905" x2="7.53739" y2="8.74227" gradientUnits="userSpaceOnUse">
<stop stop-color="#4F5DFC"/>
<stop offset="1" stop-color="#A5ACFE"/>
</linearGradient>
<linearGradient id="paint2_linear_1041_7069" x1="14.4871" y1="20.5752" x2="16.0411" y2="15.4096" gradientUnits="userSpaceOnUse">
<stop stop-color="#8791FF"/>
<stop offset="1" stop-color="#6C78FD"/>
</linearGradient>
</defs>
</svg>
