<svg width="32" height="32" viewBox="0 0 32 32" fill="none" xmlns="http://www.w3.org/2000/svg">
<rect x="3.84863" y="2.13" width="24.3538" height="26.5678" rx="2" fill="url(#paint0_linear_1041_6326)"/>
<path d="M22.1104 17.5602C24.4462 17.5603 26.5834 18.2587 28.2344 19.4137V26.6979C28.2342 27.8023 27.3388 28.6978 26.2344 28.6979H5.85449C4.75559 28.6978 3.86354 27.8113 3.85449 26.7145C5.24125 24.5578 7.66166 23.1285 10.416 23.1285C11.2862 23.1286 12.1228 23.2736 12.9043 23.5367C13.8998 20.1091 17.6432 17.5602 22.1104 17.5602Z" fill="url(#paint1_linear_1041_6326)"/>
<path d="M13.5826 15.7584C14.0922 15.7586 14.5056 16.1719 14.5057 16.6815C14.5057 17.1911 14.0922 17.6043 13.5826 17.6045H8.73167C8.22187 17.6045 7.80859 17.1913 7.80859 16.6815C7.80872 16.1718 8.22194 15.7584 8.73167 15.7584H13.5826Z" fill="#F2FFFC"/>
<path d="M20.8579 8.48315C21.3677 8.48315 21.781 8.89643 21.781 9.40623C21.7807 9.91583 21.3675 10.3293 20.8579 10.3293H8.73167C8.22202 10.3293 7.80884 9.91583 7.80859 9.40623C7.80859 8.89643 8.22187 8.48315 8.73167 8.48315H20.8579Z" fill="#F2FFFC"/>
<defs>
<linearGradient id="paint0_linear_1041_6326" x1="6.7479" y1="6.96051" x2="21.549" y2="15.4888" gradientUnits="userSpaceOnUse">
<stop stop-color="#77DEC8"/>
<stop offset="1" stop-color="#09B6A3"/>
</linearGradient>
<linearGradient id="paint1_linear_1041_6326" x1="29.4029" y1="27.1791" x2="3.69438" y2="27.1791" gradientUnits="userSpaceOnUse">
<stop stop-color="#51D5BF"/>
<stop offset="1" stop-color="#55D3BF"/>
</linearGradient>
</defs>
</svg>
