<svg width="32" height="32" viewBox="0 0 32 32" fill="none" xmlns="http://www.w3.org/2000/svg">
<path d="M17.5492 14.7589C16.0387 15.5633 14.7756 16.7635 13.8951 18.231C13.0147 19.6985 12.5502 21.3779 12.5513 23.0892C12.5506 24.5304 12.8804 25.9525 13.5151 27.2463C14.1499 28.5401 15.0729 29.6712 16.2131 30.5526H4.48476C3.40649 30.5526 2.53223 29.6783 2.53223 28.6044V3.38033C2.53223 2.30353 3.40649 1.42926 4.48476 1.42926H25.3025C25.8199 1.43003 26.3158 1.63609 26.6813 2.00217C27.0468 2.36826 27.2522 2.86445 27.2522 3.38179V15.2631C25.8328 14.3064 24.1799 13.7541 22.4706 13.6653C20.7613 13.5765 19.0601 13.9545 17.5492 14.7589Z" fill="url(#paint0_linear_1041_4962)"/>
<path d="M22.7801 6.10913C23.3577 6.10932 23.8258 6.57715 23.8258 7.1548C23.8258 7.73246 23.3577 8.20028 22.7801 8.20048H7.00368C6.42591 8.20048 5.95801 7.73258 5.95801 7.1548C5.95801 6.57703 6.42591 6.10913 7.00368 6.10913H22.7801Z" fill="#FEF7F7"/>
<path d="M14.3306 11.5766C14.9083 11.5767 15.3763 12.0446 15.3763 12.6223C15.3763 13.2 14.9083 13.6678 14.3306 13.6679H7.00368C6.42591 13.6679 5.95801 13.2 5.95801 12.6223C5.95801 12.0445 6.42591 11.5766 7.00368 11.5766H14.3306Z" fill="#FEF7F7"/>
<path d="M8.89062 19.1923C10.3907 19.1923 11.8104 19.4788 13.0732 19.9902C12.7288 20.9824 12.5511 22.0294 12.5518 23.0888C12.5511 24.5299 12.8809 25.9523 13.5156 27.246C14.1504 28.5398 15.0728 29.6713 16.2129 30.5527H4.48535C3.40709 30.5527 2.53223 29.6783 2.53223 28.6044V21.206C4.2199 19.9542 6.44768 19.1924 8.89062 19.1923Z" fill="url(#paint1_linear_1041_4962)"/>
<path d="M14.3262 23.0878C14.3263 22.0906 14.5257 21.1034 14.9128 20.1844C15.2999 19.2653 15.8668 18.433 16.5802 17.7361C17.2936 17.0393 18.139 16.4921 19.0669 16.1267C19.9948 15.7614 20.9863 15.5851 21.9833 15.6084L21.9862 15.6041C23.9706 15.6041 25.8738 16.3924 27.277 17.7956C28.6802 19.1988 29.4685 21.1019 29.4685 23.0863C29.4685 25.0708 28.6802 26.9739 27.277 28.3771C25.8738 29.7803 23.9706 30.5686 21.9862 30.5686C20.9891 30.5921 19.9973 30.416 19.0692 30.0508C18.141 29.6855 17.2953 29.1384 16.5816 28.4415C15.868 27.7447 15.3008 26.9123 14.9135 25.9931C14.5262 25.074 14.3265 24.0867 14.3262 23.0893V23.0878Z" fill="url(#paint2_linear_1041_4962)"/>
<path d="M20.3496 19.6082C20.3496 19.0984 20.7629 18.6851 21.2727 18.6851C21.7825 18.6851 22.1958 19.0984 22.1958 19.6082V22.589H25.2198C25.7296 22.589 26.1429 23.0023 26.1429 23.512C26.1427 24.0217 25.7295 24.4351 25.2198 24.4351H21.2727C20.763 24.4351 20.3498 24.0217 20.3496 23.512V19.6082Z" fill="#FEF7F7"/>
<defs>
<linearGradient id="paint0_linear_1041_4962" x1="11.9849" y1="28.2757" x2="0.47351" y2="-2.19537" gradientUnits="userSpaceOnUse">
<stop stop-color="#FFC7C7"/>
<stop offset="1" stop-color="#FE6C6C"/>
</linearGradient>
<linearGradient id="paint1_linear_1041_4962" x1="10.9579" y1="31.0596" x2="11.7034" y2="22.4152" gradientUnits="userSpaceOnUse">
<stop stop-color="#FBA9A9"/>
<stop offset="1" stop-color="#FF7272"/>
</linearGradient>
<linearGradient id="paint2_linear_1041_4962" x1="29.4685" y1="27.0637" x2="18.721" y2="20.2086" gradientUnits="userSpaceOnUse">
<stop stop-color="#FFC7C7"/>
<stop offset="1" stop-color="#FE6C6C"/>
</linearGradient>
</defs>
</svg>
