<svg width="32" height="32" viewBox="0 0 32 32" fill="none" xmlns="http://www.w3.org/2000/svg">
<path d="M14.7576 12.3936L15.9267 15.1135H26.8912V4.78686C26.8912 3.41741 25.7377 2.30634 24.3203 2.30634H9.53424C8.1168 2.30634 6.96387 3.41462 6.96387 4.78686V11.3439H13.1258C13.4705 11.3404 13.8086 11.4379 14.0984 11.6245C14.3882 11.8111 14.6181 12.0784 14.7576 12.3936Z" fill="url(#paint0_linear_1041_4997)"/>
<path d="M22.9286 5.37158C23.4384 5.37158 23.8517 5.78486 23.8517 6.29466C23.8517 6.80446 23.4384 7.21774 22.9286 7.21774H10.925C10.4152 7.21774 10.002 6.80446 10.002 6.29466C10.002 5.78486 10.4152 5.37158 10.925 5.37158H22.9286Z" fill="#EEFDF8"/>
<path d="M12.3535 13.0356C12.7035 13.0349 13.0459 13.139 13.3369 13.3335C13.6279 13.528 13.8541 13.8047 13.9873 14.1284L15.1572 16.9478H27.5195C28.0153 16.9491 28.491 17.1454 28.8438 17.4937C29.1953 17.8458 29.3926 18.3241 29.3926 18.8208V27.8169C29.3925 28.3146 29.1952 28.7926 28.8438 29.144C28.4916 29.4961 28.0137 29.6929 27.5166 29.6929H4.4834C3.9862 29.6929 3.5074 29.4966 3.15527 29.145C2.80323 28.7924 2.60751 28.3146 2.60742 27.8169V18.8149C2.60742 18.7798 2.60951 18.7428 2.6123 18.7065L2.61621 18.6567C2.60953 18.6044 2.60646 18.5498 2.60645 18.4985V14.8032C2.60659 14.3348 2.79287 13.8855 3.12402 13.5542C3.4553 13.2229 3.90455 13.0358 4.37305 13.0356H12.3535Z" fill="url(#paint1_linear_1041_4997)"/>
<path d="M27.3691 19.254C28.0569 19.254 28.7328 19.2892 29.3936 19.3546V27.8175C29.3934 28.3151 29.1962 28.7932 28.8447 29.1447C28.4927 29.4967 28.0147 29.6934 27.5176 29.6935H13.6504C13.5852 29.3263 13.5508 28.9524 13.5508 28.5734C13.5509 23.4266 19.7377 19.254 27.3691 19.254Z" fill="url(#paint2_linear_1041_4997)"/>
<path d="M6.11471 20.9681L8.85941 24.1692C8.89797 24.2136 8.94979 24.2444 9.00719 24.257C9.0646 24.2697 9.12455 24.2635 9.17819 24.2394C9.21329 24.2226 9.24559 24.1987 9.27087 24.1692L12.0163 20.9681C12.0501 20.9287 12.072 20.8803 12.0792 20.8288C12.0864 20.7773 12.0786 20.7248 12.0569 20.6776C12.0352 20.6304 12.0003 20.5904 11.9565 20.5623C11.9127 20.5343 11.8618 20.5194 11.8098 20.5195H10.5137V17.7691C10.5137 17.449 10.2539 17.1885 9.9344 17.1885H8.19588C8.04212 17.1888 7.89478 17.2502 7.78619 17.359C7.67759 17.4679 7.61661 17.6154 7.61661 17.7691V20.5181H6.32044C6.26837 20.5182 6.21744 20.5333 6.17367 20.5615C6.1299 20.5897 6.09513 20.6299 6.07349 20.6772C6.05184 20.7246 6.04422 20.7772 6.05152 20.8287C6.05883 20.8803 6.08076 20.9286 6.11471 20.9681Z" fill="#EEFDF8"/>
<defs>
<linearGradient id="paint0_linear_1041_4997" x1="9.98757" y1="0.153635" x2="17.9556" y2="12.2082" gradientUnits="userSpaceOnUse">
<stop stop-color="#89FFB4"/>
<stop offset="1" stop-color="#45E580"/>
</linearGradient>
<linearGradient id="paint1_linear_1041_4997" x1="13.5509" y1="29.2028" x2="-5.63094" y2="8.99305" gradientUnits="userSpaceOnUse">
<stop stop-color="#00D14D"/>
<stop offset="1" stop-color="#A1FFC3"/>
</linearGradient>
<linearGradient id="paint2_linear_1041_4997" x1="29.3933" y1="23.3113" x2="13.4006" y2="30.7117" gradientUnits="userSpaceOnUse">
<stop stop-color="#89FFB4"/>
<stop offset="1" stop-color="#45EE83"/>
</linearGradient>
</defs>
</svg>
