<svg width="32" height="32" viewBox="0 0 32 32" fill="none" xmlns="http://www.w3.org/2000/svg">
<path d="M11.1608 6.35724H20.8391C21.5053 6.35724 22.049 5.81381 22.049 5.1476V2.72807H18.4196V2.28269C18.4196 1.86183 18.076 1.51819 17.6551 1.51819H14.3449C13.924 1.51819 13.5803 1.86183 13.5803 2.28269V2.72807H9.95117V5.1476C9.95117 5.81039 10.4946 6.35724 11.1608 6.35724Z" fill="url(#paint0_linear_1041_6217)"/>
<path d="M25.8142 2.69202H23.5268V6.68749C23.5268 7.63097 22.7555 8.40233 21.812 8.40233H10.1912C9.24774 8.40233 8.47638 7.63097 8.47638 6.68749V2.69202H6.18907C4.93445 2.69202 3.9082 3.71804 3.9082 4.97271V28.201C3.9082 29.4556 4.93445 30.4818 6.18907 30.4818L25.8109 30.4818C27.0655 30.4818 28.0918 29.4556 28.0918 28.201V4.97271C28.095 3.71807 27.0687 2.69202 25.8142 2.69202Z" fill="url(#paint1_linear_1041_6217)"/>
<path d="M18.7725 24.5549C22.197 22.3395 25.886 21.6395 28.0918 22.5793V28.2004C28.0918 29.455 27.0652 30.4817 25.8105 30.4817H13.5146C14.2673 28.4632 16.1445 26.255 18.7725 24.5549Z" fill="url(#paint2_linear_1041_6217)"/>
<path d="M14.6834 11.6923H22.0823V12.5869H18.7385C18.4065 13.3938 17.8137 14.0252 16.96 14.4813H19.5923L20.1614 13.7972L22.1534 14.1656L21.6554 14.7444V21.1645H19.7345V15.3233H16.6043V21.1645H14.6834V13.9024H16.3908C16.5331 13.4113 16.6043 12.9728 16.6043 12.5869H14.6834V11.6923ZM14.2566 12.3237V13.3236H13.1894V19.7963C13.5214 19.5507 13.8534 19.3402 14.1854 19.1648L14.3277 19.2174C13.474 20.9014 12.2171 22.1819 10.5571 23.0589C10.4148 22.7081 10.1777 22.1819 9.8457 21.4802C10.0828 21.4101 10.486 21.2346 11.0551 20.954C11.1974 20.9189 11.2923 20.8838 11.3397 20.8487V13.3236H10.0591V12.3237H14.2566ZM17.3157 16.2705H19.1654C19.0705 19.0069 18.8334 20.6382 18.454 21.1645C20.114 21.6205 21.11 22.1819 21.442 22.8484C21.6317 23.2694 21.5131 23.6027 21.0863 23.8483C20.612 24.0939 20.2325 24.0412 19.948 23.6904C19.8531 23.5852 19.7345 23.3922 19.5923 23.1115C19.2603 22.5502 18.8334 22.0065 18.3117 21.4802C17.5528 22.4976 16.0351 23.322 13.7586 23.9535L13.6874 23.8483C15.3 22.9712 16.296 22.1117 16.6754 21.2697C17.1023 20.4979 17.3157 18.8315 17.3157 16.2705Z" fill="#F0F2FE"/>
<defs>
<linearGradient id="paint0_linear_1041_6217" x1="17.9042" y1="5.731" x2="17.2584" y2="0.602407" gradientUnits="userSpaceOnUse">
<stop stop-color="#4F5DFC"/>
<stop offset="1" stop-color="#A5ACFE"/>
</linearGradient>
<linearGradient id="paint1_linear_1041_6217" x1="17.2785" y1="18.0625" x2="7.24063" y2="1.68924" gradientUnits="userSpaceOnUse">
<stop stop-color="#4F5DFC"/>
<stop offset="1" stop-color="#A5ACFE"/>
</linearGradient>
<linearGradient id="paint2_linear_1041_6217" x1="14.3812" y1="23.0239" x2="19.5499" y2="33.2855" gradientUnits="userSpaceOnUse">
<stop stop-color="#8791FF"/>
<stop offset="1" stop-color="#6C78FD" stop-opacity="0.5"/>
</linearGradient>
</defs>
</svg>
