<svg width="32" height="32" viewBox="0 0 32 32" fill="none" xmlns="http://www.w3.org/2000/svg">
<path fill-rule="evenodd" clip-rule="evenodd" d="M27.3986 2.52917C28.5431 2.52917 29.471 3.45704 29.471 4.60161V27.3984C29.471 28.543 28.5431 29.4709 27.3986 29.4709H4.60174C3.45716 29.4709 2.5293 28.543 2.5293 27.3984V4.60161C2.5293 3.45704 3.45716 2.52917 4.60174 2.52917H27.3986Z" fill="url(#paint0_linear_1041_5134)"/>
<mask id="mask0_1041_5134" style="mask-type:alpha" maskUnits="userSpaceOnUse" x="2" y="2" width="28" height="28">
<path fill-rule="evenodd" clip-rule="evenodd" d="M27.3986 2.52917C28.5431 2.52917 29.471 3.45704 29.471 4.60161V27.3984C29.471 28.543 28.5431 29.4709 27.3986 29.4709H4.60174C3.45716 29.4709 2.5293 28.543 2.5293 27.3984V4.60161C2.5293 3.45704 3.45716 2.52917 4.60174 2.52917H27.3986Z" fill="url(#paint1_linear_1041_5134)"/>
</mask>
<g mask="url(#mask0_1041_5134)">
<path d="M23.9971 13.688C30.6951 13.6882 36.1247 18.1602 36.125 23.6763C36.125 29.1925 30.6953 33.6644 23.9971 33.6646C22.1444 33.6646 20.389 33.3212 18.8184 32.7095C17.9314 37.3176 13.8807 40.7993 9.01367 40.7993C3.49748 40.7991 -0.974609 36.3273 -0.974609 30.811C-0.974552 25.2948 3.49751 20.8229 9.01367 20.8228C10.1292 20.8228 11.2014 21.0088 12.2031 21.3462C13.4782 16.9544 18.2734 13.688 23.9971 13.688Z" fill="url(#paint2_linear_1041_5134)"/>
</g>
<path d="M22.1525 17.8643C22.5129 17.5041 23.0973 17.5042 23.4578 17.8643C23.8181 18.2247 23.8181 18.8091 23.4578 19.1696L21.9782 20.6492L23.4578 22.1287C23.8181 22.4891 23.8181 23.0735 23.4578 23.434C23.0973 23.7944 22.513 23.7944 22.1525 23.434L20.6729 21.9544L19.1934 23.434C18.8329 23.7944 18.2485 23.7944 17.8881 23.434C17.528 23.0735 17.5278 22.4891 17.8881 22.1287L19.3676 20.6492L17.8881 19.1696C17.5279 18.8091 17.5278 18.2247 17.8881 17.8643C18.2485 17.5041 18.8329 17.5042 19.1934 17.8643L20.6729 19.3439L22.1525 17.8643Z" fill="#F0F2FE"/>
<path d="M20.5611 10.5746C20.9241 10.2173 21.5087 10.2216 21.8664 10.5842C22.2241 10.9471 22.2205 11.5316 21.858 11.8895L11.8352 21.7681C11.4721 22.1258 10.8877 22.1215 10.5299 21.7585C10.1722 21.3954 10.1765 20.8111 10.5395 20.4532L20.5611 10.5746Z" fill="#F0F2FE"/>
<path d="M15.4241 8.5578C15.7894 8.20233 16.3739 8.20945 16.7294 8.57463C17.0846 8.93995 17.0765 9.52446 16.7114 9.87992L12.1176 14.3511C11.763 14.6956 11.1994 14.699 10.84 14.3595L8.55995 12.2044C8.18969 11.8542 8.17392 11.2696 8.52389 10.8992C8.87419 10.5288 9.45879 10.5128 9.82918 10.8631L11.465 12.41L15.4241 8.5578Z" fill="#F0F2FE"/>
<defs>
<linearGradient id="paint0_linear_1041_5134" x1="23.9602" y1="16" x2="3.62405" y2="2.05524" gradientUnits="userSpaceOnUse">
<stop stop-color="#4F5DFC"/>
<stop offset="1" stop-color="#A5ACFE"/>
</linearGradient>
<linearGradient id="paint1_linear_1041_5134" x1="30.7539" y1="25.797" x2="2.5293" y2="25.797" gradientUnits="userSpaceOnUse">
<stop stop-color="#8791FF"/>
<stop offset="1" stop-color="#6C78FD"/>
</linearGradient>
<linearGradient id="paint2_linear_1041_5134" x1="34.0558" y1="35.2408" x2="2.52886" y2="35.2408" gradientUnits="userSpaceOnUse">
<stop stop-color="#8791FF"/>
<stop offset="0.524082" stop-color="#6C78FD"/>
</linearGradient>
</defs>
</svg>
