<svg width="32" height="32" viewBox="0 0 32 32" fill="none" xmlns="http://www.w3.org/2000/svg">
<path d="M14.5264 1.91459C14.9564 1.56136 15.4957 1.36829 16.0522 1.36829C16.6088 1.36829 17.148 1.56136 17.5781 1.91459L27.5981 10.4337C28.9403 11.6507 27.964 13.5966 25.8857 13.5966H25.399V23.3312C25.399 24.063 24.7887 24.5475 24.0554 24.5475H7.80613C7.07431 24.5475 6.46251 24.0623 6.46251 23.3312V13.5951H5.97292C4.01897 13.5951 3.04273 11.6485 4.50929 10.4322L14.5264 1.91459Z" fill="url(#paint0_linear_1041_6062)"/>
<mask id="mask0_1041_6062" style="mask-type:alpha" maskUnits="userSpaceOnUse" x="3" y="1" width="26" height="24">
<path d="M14.5264 1.91459C14.9564 1.56136 15.4957 1.36829 16.0522 1.36829C16.6088 1.36829 17.148 1.56136 17.5781 1.91459L27.5981 10.4337C28.9403 11.6507 27.964 13.5966 25.8857 13.5966H25.399V23.3312C25.399 24.063 24.7887 24.5475 24.0554 24.5475H7.80613C7.07431 24.5475 6.46251 24.0623 6.46251 23.3312V13.5951H5.97292C4.01897 13.5951 3.04273 11.6485 4.50929 10.4322L14.5264 1.91459Z" fill="url(#paint1_linear_1041_6062)"/>
</mask>
<g mask="url(#mask0_1041_6062)">
<ellipse cx="30.5007" cy="22.0182" rx="16.157" ry="10.6966" fill="url(#paint2_linear_1041_6062)"/>
</g>
<path d="M5.06248 20.8971V23.9385C5.06248 24.9126 5.91241 25.7651 6.87983 25.7651H25.0374C25.5144 25.754 25.9689 25.5581 26.3067 25.2181C26.6445 24.878 26.8397 24.4199 26.8519 23.9385V20.8971H27.4589C28.0637 20.8971 28.5488 21.3845 28.6685 21.8711L30.4851 29.1703C30.6055 29.9021 30.0007 30.6317 29.274 30.6317H2.64248C1.91728 30.6317 1.31101 29.8999 1.55323 29.1703L3.37058 21.8719C3.49024 21.2637 3.9754 20.8978 4.58022 20.8978H5.06465L5.06248 20.8971Z" fill="url(#paint3_linear_1041_6062)"/>
<path d="M10.4862 10.7713H15.3723C15.1426 10.279 14.9169 9.86871 14.6954 9.54051L16 9.31897C16.238 9.76205 16.4595 10.2461 16.6646 10.7713H21.4523V11.8913H10.4862V10.7713ZM17.9938 12.039C19.3477 13.0892 20.4964 14.1477 21.44 15.2144L20.5785 16.0759C19.7908 15.0831 18.6626 13.9959 17.1938 12.8144L17.9938 12.039ZM18.9785 14.8451C18.4041 15.9282 17.719 16.8677 16.9231 17.6636C18.1949 18.5415 19.758 19.2103 21.6123 19.6697L20.8862 20.7651C18.958 20.2236 17.3333 19.4564 16.0123 18.4636C14.6503 19.5303 13.0133 20.3138 11.1015 20.8144L10.3877 19.7313C12.2338 19.28 13.7928 18.5949 15.0646 17.6759C14.2195 16.8964 13.5221 16.0103 12.9723 15.0174L13.9815 14.439C14.4985 15.3908 15.1631 16.2195 15.9754 16.9251C16.7549 16.1949 17.3949 15.3415 17.8954 14.3651L18.9785 14.8451ZM14.6954 12.802C13.7764 14.0164 12.6195 15.0831 11.2246 16.002L10.4615 15.0174C11.799 14.1805 12.9272 13.1918 13.8462 12.0513L14.6954 12.802Z" fill="white"/>
<defs>
<linearGradient id="paint0_linear_1041_6062" x1="7.56909" y1="24.5475" x2="30.6618" y2="-5.61539" gradientUnits="userSpaceOnUse">
<stop stop-color="#7AD100"/>
<stop offset="1" stop-color="#D8FFA1"/>
</linearGradient>
<linearGradient id="paint1_linear_1041_6062" x1="20.3089" y1="18.768" x2="10.2241" y2="28.2314" gradientUnits="userSpaceOnUse">
<stop stop-color="#CDFF87"/>
<stop offset="1" stop-color="#C1FD6C" stop-opacity="0.1"/>
</linearGradient>
<linearGradient id="paint2_linear_1041_6062" x1="36.1932" y1="27.3805" x2="27.2634" y2="39.3987" gradientUnits="userSpaceOnUse">
<stop stop-color="#CDFF87"/>
<stop offset="1" stop-color="#C1FD6C" stop-opacity="0.1"/>
</linearGradient>
<linearGradient id="paint3_linear_1041_6062" x1="19.6319" y1="24.6855" x2="14.6123" y2="14.7065" gradientUnits="userSpaceOnUse">
<stop stop-color="#7AD100"/>
<stop offset="1" stop-color="#D8FFA1"/>
</linearGradient>
</defs>
</svg>
