<svg width="32" height="32" viewBox="0 0 32 32" fill="none" xmlns="http://www.w3.org/2000/svg">
<path d="M21.8383 26.5726V28.0318C21.8383 29.6463 20.5317 30.9529 18.9198 30.9529H13.0777C12.3034 30.9522 11.5611 30.6442 11.0138 30.0964C10.4666 29.5487 10.1592 28.8061 10.1592 28.0318V26.5726H21.8383Z" fill="url(#paint0_linear_1041_6821)"/>
<path d="M10.0718 24.4093C9.6388 22.5521 7.68394 21.0302 6.88047 20.029C5.50505 18.3108 4.64299 16.2391 4.3936 14.0524C4.14422 11.8657 4.51764 9.65301 5.47086 7.66927C6.42408 5.68553 7.91831 4.01142 9.78143 2.83982C11.6445 1.66821 13.8007 1.04676 16.0016 1.04706C18.2025 1.04736 20.3585 1.6694 22.2213 2.84152C24.0841 4.01364 25.5779 5.68816 26.5305 7.67216C27.4832 9.65616 27.856 11.8689 27.606 14.0556C27.356 16.2422 26.4934 18.3137 25.1175 20.0315C24.3141 21.0327 22.3592 22.5521 21.9262 24.4118H10.0718V24.4093Z" fill="url(#paint1_linear_1041_6821)"/>
<path d="M17.2144 11.5188V6.65137L11.7471 13.9473H14.7858V18.8065L20.2531 11.5167H17.2144V11.5188Z" fill="#F3FDFF"/>
<path d="M18.5112 1.32037C19.8202 1.60852 21.076 2.12131 22.2211 2.84186C24.0838 4.01395 25.578 5.68801 26.5307 7.67194C27.2921 9.25757 27.6814 10.9896 27.6801 12.7374C25.0496 12.4625 22.3271 10.8321 20.477 8.13483C18.9903 5.96742 18.3477 3.52203 18.5112 1.32037Z" fill="url(#paint2_linear_1041_6821)"/>
<defs>
<linearGradient id="paint0_linear_1041_6821" x1="17.4615" y1="28.2773" x2="15.0583" y2="24.0015" gradientUnits="userSpaceOnUse">
<stop stop-color="#00AFD1"/>
<stop offset="1" stop-color="#A1EFFF"/>
</linearGradient>
<linearGradient id="paint1_linear_1041_6821" x1="18.926" y1="12.9805" x2="3.01391" y2="4.89038" gradientUnits="userSpaceOnUse">
<stop stop-color="#00AFD1"/>
<stop offset="1" stop-color="#A1EFFF"/>
</linearGradient>
<linearGradient id="paint2_linear_1041_6821" x1="17.6738" y1="5.37266" x2="26.1649" y2="11.2403" gradientUnits="userSpaceOnUse">
<stop stop-color="#00AFD2"/>
<stop offset="1" stop-color="#07D6FF"/>
</linearGradient>
</defs>
</svg>
