<svg width="32" height="32" viewBox="0 0 32 32" fill="none" xmlns="http://www.w3.org/2000/svg">
<g clip-path="url(#clip0_1041_5073)">
<path d="M25.096 2.93214C25.5921 3.2208 25.7616 3.85783 25.4759 4.35364L23.5766 7.65476L21.7808 6.61608L23.6802 3.31495C23.9627 2.81917 24.5969 2.64973 25.0898 2.93214H25.096ZM16.2147 0.487671C16.8363 0.487671 17.3386 0.955233 17.3386 1.53576V5.27617H15.0907V1.53264C15.0907 0.955265 15.593 0.487671 16.2147 0.487671ZM7.33956 2.93214C7.83246 2.64658 8.46659 2.81601 8.75231 3.3087C8.75231 3.3087 8.75231 3.31183 8.75543 3.31183L10.6548 6.61295L8.85902 7.65161L6.95965 4.35048C6.67403 3.85467 6.84356 3.2208 7.33956 2.93214ZM0.840901 9.45595C1.12343 8.96011 1.75759 8.78751 2.25365 9.07308C2.25365 9.07308 2.25678 9.07308 2.25678 9.07623L5.54687 10.9841L4.51087 12.7853L1.22074 10.8742C0.724745 10.5887 0.555182 9.95173 0.840901 9.45595ZM31.5946 9.45595C31.8804 9.9517 31.7108 10.5887 31.2148 10.8774L27.9246 12.7821L26.8886 10.981L30.1787 9.07308C30.6716 8.78755 31.3058 8.95698 31.5915 9.44964C31.5915 9.45276 31.5946 9.45283 31.5946 9.45595Z" fill="url(#paint0_linear_1041_5073)"/>
<path d="M5.50618 28.7623V18.8792C5.50618 12.9673 10.3001 8.17255 16.2179 8.17255C22.1357 8.17255 26.9296 12.9673 26.9296 18.8792V28.7623H30.5862C31.3456 28.7623 31.9612 29.3779 31.9612 30.1373C31.9612 30.8967 31.3456 31.5123 30.5862 31.5123H1.41309C0.65368 31.5123 0.0380859 30.8967 0.0380859 30.1373C0.0380859 29.3779 0.65368 28.7623 1.41309 28.7623H5.50618Z" fill="url(#paint1_linear_1041_5073)"/>
<path d="M16.2188 8.17285C16.9888 8.17286 17.7393 8.25577 18.4629 8.4109C18.8958 8.5037 19.2071 8.88345 19.2071 9.32617C19.2071 14.9142 14.663 19.4443 9.05768 19.4443C8.17715 19.4443 7.32306 19.3319 6.50856 19.1214C5.89842 18.9637 5.50037 18.3857 5.56557 17.7588C6.12576 12.3733 10.6797 8.17285 16.2188 8.17285Z" fill="url(#paint2_linear_1041_5073)"/>
<path d="M13.3486 25.9106H11.3379V15.9189H13.3486V25.9106ZM17.0045 25.9106H14.9949V15.9189H17.0045V25.9106ZM20.6615 25.9106H18.6519V15.9189H20.6615V25.9106ZM15.2179 16.1419H16.7826V16.1408H15.2179V16.1419Z" fill="#FEFAF0"/>
</g>
<defs>
<linearGradient id="paint0_linear_1041_5073" x1="14.733" y1="-2.07261" x2="16.5732" y2="13.0926" gradientUnits="userSpaceOnUse">
<stop stop-color="#FFD978"/>
<stop offset="1" stop-color="#F5AB00"/>
</linearGradient>
<linearGradient id="paint1_linear_1041_5073" x1="14.4722" y1="3.31338" x2="20.6982" y2="31.1255" gradientUnits="userSpaceOnUse">
<stop stop-color="#FFD978"/>
<stop offset="1" stop-color="#F5AB00"/>
</linearGradient>
<linearGradient id="paint2_linear_1041_5073" x1="11.8853" y1="17.7883" x2="4.98098" y2="9.71919" gradientUnits="userSpaceOnUse">
<stop stop-color="#FFD776"/>
<stop offset="0.656332" stop-color="#FFBF1B"/>
</linearGradient>
<clipPath id="clip0_1041_5073">
<rect width="32" height="32" fill="white"/>
</clipPath>
</defs>
</svg>
