<svg width="32" height="32" viewBox="0 0 32 32" fill="none" xmlns="http://www.w3.org/2000/svg">
<g clip-path="url(#clip0_1041_5081)">
<path d="M25.096 2.93214C25.5921 3.2208 25.7616 3.85783 25.4759 4.35364L23.5766 7.65476L21.7808 6.61608L23.6802 3.31495C23.9627 2.81917 24.5969 2.64973 25.0898 2.93214H25.096ZM16.2147 0.487671C16.8363 0.487671 17.3386 0.955233 17.3386 1.53576V5.27617H15.0907V1.53264C15.0907 0.955265 15.593 0.487671 16.2147 0.487671ZM7.33956 2.93214C7.83246 2.64658 8.46659 2.81601 8.75231 3.3087C8.75231 3.3087 8.75231 3.31183 8.75543 3.31183L10.6548 6.61295L8.85902 7.65161L6.95965 4.35048C6.67403 3.85467 6.84356 3.2208 7.33956 2.93214ZM0.840901 9.45595C1.12343 8.96011 1.75759 8.78751 2.25365 9.07308C2.25365 9.07308 2.25678 9.07308 2.25678 9.07623L5.54687 10.9841L4.51087 12.7853L1.22074 10.8742C0.724745 10.5887 0.555182 9.95173 0.840901 9.45595ZM31.5946 9.45595C31.8804 9.9517 31.7108 10.5887 31.2148 10.8774L27.9246 12.7821L26.8886 10.981L30.1787 9.07308C30.6716 8.78755 31.3058 8.95698 31.5915 9.44964C31.5915 9.45276 31.5946 9.45283 31.5946 9.45595Z" fill="url(#paint0_linear_1041_5081)"/>
<path d="M5.50618 28.7623V18.8792C5.50618 12.9673 10.3001 8.17255 16.2179 8.17255C22.1357 8.17255 26.9296 12.9673 26.9296 18.8792V28.7623H30.5862C31.3456 28.7623 31.9612 29.3779 31.9612 30.1373C31.9612 30.8967 31.3456 31.5123 30.5862 31.5123H1.41309C0.65368 31.5123 0.0380859 30.8967 0.0380859 30.1373C0.0380859 29.3779 0.65368 28.7623 1.41309 28.7623H5.50618Z" fill="url(#paint1_linear_1041_5081)"/>
<path d="M24.4766 17.2793C25.2925 17.2793 26.0855 17.3773 26.8457 17.5586C26.899 17.9914 26.9297 18.4317 26.9297 18.8789V28.7627H30.5869C31.3461 28.7629 31.9619 29.3784 31.9619 30.1377C31.9617 30.8968 31.346 31.5125 30.5869 31.5127H15.2051C14.6425 30.2551 14.3272 28.8633 14.3271 27.3975C14.3271 21.8095 18.8713 17.2793 24.4766 17.2793Z" fill="url(#paint2_linear_1041_5081)"/>
<path d="M12.8555 25.9106H10.8447V15.9189H12.8555V25.9106ZM15.765 16.0701L18.1935 23.284L20.6232 16.0701L20.6743 15.9189H22.8483L22.7427 16.2159L19.3469 25.7626L19.2946 25.9106H17.0946L17.0413 25.7626L13.6454 16.2159L13.5399 15.9189H15.7138L15.765 16.0701ZM18.2142 23.9227L20.8353 16.1419L22.5327 16.1408H20.8353L18.2142 23.9227Z" fill="#E8F2FE"/>
</g>
<defs>
<linearGradient id="paint0_linear_1041_5081" x1="13.9793" y1="12.1817" x2="14.7468" y2="1.25368" gradientUnits="userSpaceOnUse">
<stop stop-color="#2573FD"/>
<stop offset="1" stop-color="#A1C3FF"/>
</linearGradient>
<linearGradient id="paint1_linear_1041_5081" x1="13.6969" y1="30.3667" x2="16.3527" y2="9.86817" gradientUnits="userSpaceOnUse">
<stop stop-color="#2573FD"/>
<stop offset="1" stop-color="#A1C3FF"/>
</linearGradient>
<linearGradient id="paint2_linear_1041_5081" x1="29.6808" y1="32.7999" x2="19.0763" y2="22.0507" gradientUnits="userSpaceOnUse">
<stop offset="0.440974" stop-color="#6CA1FD" stop-opacity="0.2"/>
<stop offset="1" stop-color="#6CB3FF"/>
</linearGradient>
<clipPath id="clip0_1041_5081">
<rect width="32" height="32" fill="white"/>
</clipPath>
</defs>
</svg>
