<svg width="32" height="32" viewBox="0 0 32 32" fill="none" xmlns="http://www.w3.org/2000/svg">
<g clip-path="url(#clip0_1041_5057)">
<path d="M25.096 2.93214C25.5921 3.2208 25.7616 3.85783 25.4759 4.35364L23.5766 7.65476L21.7808 6.61608L23.6802 3.31495C23.9627 2.81917 24.5969 2.64973 25.0898 2.93214H25.096ZM16.2147 0.487671C16.8363 0.487671 17.3386 0.955233 17.3386 1.53576V5.27617H15.0907V1.53264C15.0907 0.955265 15.593 0.487671 16.2147 0.487671ZM7.33956 2.93214C7.83246 2.64658 8.46659 2.81601 8.75231 3.3087C8.75231 3.3087 8.75231 3.31183 8.75543 3.31183L10.6548 6.61295L8.85902 7.65161L6.95965 4.35048C6.67403 3.85467 6.84356 3.2208 7.33956 2.93214ZM0.840901 9.45595C1.12343 8.96011 1.75759 8.78751 2.25365 9.07308C2.25365 9.07308 2.25678 9.07308 2.25678 9.07623L5.54687 10.9841L4.51087 12.7853L1.22074 10.8742C0.724745 10.5887 0.555182 9.95173 0.840901 9.45595ZM31.5946 9.45595C31.8804 9.9517 31.7108 10.5887 31.2148 10.8774L27.9246 12.7821L26.8886 10.981L30.1787 9.07308C30.6716 8.78755 31.3058 8.95698 31.5915 9.44964C31.5915 9.45276 31.5946 9.45283 31.5946 9.45595Z" fill="url(#paint0_linear_1041_5057)"/>
<path d="M5.50618 28.7623V18.8792C5.50618 12.9673 10.3001 8.17255 16.2179 8.17255C22.1357 8.17255 26.9296 12.9673 26.9296 18.8792V28.7623H30.5862C31.3456 28.7623 31.9612 29.3779 31.9612 30.1373C31.9612 30.8967 31.3456 31.5123 30.5862 31.5123H1.41309C0.65368 31.5123 0.0380859 30.8967 0.0380859 30.1373C0.0380859 29.3779 0.65368 28.7623 1.41309 28.7623H5.50618Z" fill="url(#paint1_linear_1041_5057)"/>
<path d="M17.04 8.20605C22.2622 8.60204 26.4326 12.7373 26.8857 17.9385C25.8691 18.479 24.7092 18.787 23.4766 18.7871C19.4681 18.7871 16.2178 15.5478 16.2178 11.5518C16.2178 10.3445 16.5156 9.20671 17.04 8.20605Z" fill="url(#paint2_linear_1041_5057)"/>
<path d="M17.0049 25.9324H14.9941V15.9407H17.0049V25.9324Z" fill="#FEF7F7"/>
</g>
<defs>
<linearGradient id="paint0_linear_1041_5057" x1="18.027" y1="12.8053" x2="19.0072" y2="-5.32376" gradientUnits="userSpaceOnUse">
<stop stop-color="#FE6C6C"/>
<stop offset="1" stop-color="#FFC7C7"/>
</linearGradient>
<linearGradient id="paint1_linear_1041_5057" x1="17.8609" y1="31.5502" x2="21.2691" y2="-2.61763" gradientUnits="userSpaceOnUse">
<stop stop-color="#FE6C6C"/>
<stop offset="1" stop-color="#FFC7C7"/>
</linearGradient>
<linearGradient id="paint2_linear_1041_5057" x1="25.899" y1="12.9474" x2="18.3519" y2="14.817" gradientUnits="userSpaceOnUse">
<stop stop-color="#FBA9A9"/>
<stop offset="1" stop-color="#FF7272"/>
</linearGradient>
<clipPath id="clip0_1041_5057">
<rect width="32" height="32" fill="white"/>
</clipPath>
</defs>
</svg>
