<svg width="32" height="32" viewBox="0 0 32 32" fill="none" xmlns="http://www.w3.org/2000/svg">
<g clip-path="url(#clip0_1041_5065)">
<path d="M25.096 2.93214C25.5921 3.2208 25.7616 3.85783 25.4759 4.35364L23.5766 7.65476L21.7808 6.61608L23.6802 3.31495C23.9627 2.81917 24.5969 2.64973 25.0898 2.93214H25.096ZM16.2147 0.487671C16.8363 0.487671 17.3386 0.955233 17.3386 1.53576V5.27617H15.0907V1.53264C15.0907 0.955265 15.593 0.487671 16.2147 0.487671ZM7.33956 2.93214C7.83246 2.64658 8.46659 2.81601 8.75231 3.3087C8.75231 3.3087 8.75231 3.31183 8.75543 3.31183L10.6548 6.61295L8.85902 7.65161L6.95965 4.35048C6.67403 3.85467 6.84356 3.2208 7.33956 2.93214ZM0.840901 9.45595C1.12343 8.96011 1.75759 8.78751 2.25365 9.07308C2.25365 9.07308 2.25678 9.07308 2.25678 9.07623L5.54687 10.9841L4.51087 12.7853L1.22074 10.8742C0.724745 10.5887 0.555182 9.95173 0.840901 9.45595ZM31.5946 9.45595C31.8804 9.9517 31.7108 10.5887 31.2148 10.8774L27.9246 12.7821L26.8886 10.981L30.1787 9.07308C30.6716 8.78755 31.3058 8.95698 31.5915 9.44964C31.5915 9.45276 31.5946 9.45283 31.5946 9.45595Z" fill="url(#paint0_linear_1041_5065)"/>
<path d="M5.50618 29.25V19.3669C5.50618 13.455 10.3001 8.66028 16.2179 8.66028C22.1357 8.66028 26.9296 13.4551 26.9296 19.3669V29.25H30.5862C31.3456 29.25 31.9612 29.8657 31.9612 30.625C31.9612 31.3844 31.3456 32 30.5862 32H1.41309C0.65368 32 0.0380859 31.3844 0.0380859 30.625C0.0380859 29.8657 0.65368 29.25 1.41309 29.25H5.50618Z" fill="url(#paint1_linear_1041_5065)"/>
<path d="M7.14648 19.0752C13.05 19.0753 17.8359 23.8461 17.8359 29.7314C17.8359 30.5101 17.7499 31.2689 17.5908 32H1.41309C0.653835 31.9998 0.0380859 31.3843 0.0380859 30.625C0.0380864 29.8657 0.653835 29.2502 1.41309 29.25H5.50684V19.3672C5.50684 19.3109 5.50987 19.2544 5.51074 19.1982C6.04392 19.1166 6.59041 19.0752 7.14648 19.0752Z" fill="url(#paint2_linear_1041_5065)"/>
<path d="M15.1777 25.9106H13.167V15.9189H15.1777V25.9106ZM18.8336 25.9106H16.824V15.9189H18.8336V25.9106ZM17.047 16.1419H18.6117V16.1408H17.047V16.1419Z" fill="white"/>
</g>
<defs>
<linearGradient id="paint0_linear_1041_5065" x1="14.4863" y1="12.7853" x2="16.1132" y2="-3.9805" gradientUnits="userSpaceOnUse">
<stop offset="0.204736" stop-color="#FC944F"/>
<stop offset="1" stop-color="#FEC9A5"/>
</linearGradient>
<linearGradient id="paint1_linear_1041_5065" x1="14.2184" y1="32" x2="19.7899" y2="0.877902" gradientUnits="userSpaceOnUse">
<stop offset="0.204736" stop-color="#FC944F"/>
<stop offset="1" stop-color="#FEC9A5"/>
</linearGradient>
<linearGradient id="paint2_linear_1041_5065" x1="14.3983" y1="19.5394" x2="0.66246" y2="31.4558" gradientUnits="userSpaceOnUse">
<stop stop-color="#FDBD91"/>
<stop offset="0.654614" stop-color="#FC9450"/>
</linearGradient>
<clipPath id="clip0_1041_5065">
<rect width="32" height="32" fill="white"/>
</clipPath>
</defs>
</svg>
