<svg width="32" height="32" viewBox="0 0 32 32" fill="none" xmlns="http://www.w3.org/2000/svg">
<path d="M18.2275 8.98352C18.38 9.03072 18.3981 9.17692 18.3799 9.31751C18.3358 9.63286 18.2388 9.93897 18.0918 10.2218C17.6081 11.1717 17.112 12.1145 16.6455 13.0714C16.2568 13.8697 16.2716 14.1753 17.043 14.9093C17.2196 15.0636 17.4132 15.1979 17.6191 15.3107C19.1883 16.2446 20.8756 16.9416 22.5205 17.7208C22.9236 17.9112 23.2764 18.1124 23.5322 18.4327C20.4248 18.8189 17.9621 21.2772 17.5703 24.3829C17.4441 24.3764 17.3162 24.3732 17.1875 24.3732C16.8838 24.3742 16.4955 24.4491 16.3076 24.2599C15.6755 23.6192 14.9926 23.7495 14.2686 23.9855C14.1698 24.0124 14.0681 24.0276 13.9658 24.0314C11.7089 24.2151 9.45212 24.3922 7.19922 24.588C6.85728 24.618 6.73994 24.505 6.74903 24.1808C6.76215 23.6477 6.7627 23.1133 6.7627 22.5792C6.76268 22.4056 6.73871 22.2293 6.51563 22.2052C6.27268 22.1793 6.19529 22.3434 6.167 22.5441C6.09227 23.0723 5.99339 23.5988 5.95704 24.13C5.8803 25.335 6.01014 25.4586 7.19239 25.3351C9.69067 25.075 12.1893 24.8172 14.6865 24.546C15.2167 24.4878 15.6482 24.6048 15.9512 25.0607C16.1279 25.3237 16.3213 25.576 16.501 25.837C16.7575 26.2136 16.6477 26.4831 16.2529 26.6759C14.6282 27.4692 12.9256 28.0589 11.209 28.6183C10.0518 28.9959 8.87712 29.324 7.71485 29.6906C6.30422 30.1344 4.88333 30.4972 3.38184 30.3888C2.84666 30.3456 2.34198 30.2344 2.04004 29.7404C1.6896 29.2259 1.49641 28.6214 1.48438 28.0001C1.48338 26.9648 1.63797 25.9403 1.77833 24.921C2.00653 23.2733 2.35066 21.6435 2.67579 20.0118C2.91712 18.7938 3.34623 17.7462 4.63965 17.2872C5.33104 17.0415 6.01763 16.7811 6.69825 16.506C7.68877 16.1043 8.70225 15.7423 9.53223 15.0324C10.1886 14.466 10.3202 13.8453 9.93653 13.0831C9.79523 12.8011 9.63822 12.5254 9.50196 12.2404C9.06779 11.3256 8.55414 10.4405 8.42481 9.40931C8.40562 9.25566 8.35316 9.07458 8.542 9.0304C8.76093 8.97937 8.80761 9.1702 8.8379 9.34388C9.12774 11.0158 9.96517 12.4291 10.9951 13.7345C11.9342 14.9265 13.82 15.1209 15.0147 14.1769C15.5968 13.7225 16.0785 13.1533 16.4287 12.505C17.0023 11.4376 17.7288 10.4412 17.957 9.21204C17.9782 9.09961 18.048 8.9285 18.2275 8.98352ZM17.7178 26.9171C18.0472 28.2409 18.7606 29.4123 19.7324 30.3077C18.723 30.2979 17.7508 30.1644 16.7744 30.1105C15.338 30.0279 13.9141 29.7952 12.5264 29.4171C12.3699 29.375 12.1365 29.3979 12.1123 29.2091C12.0843 28.9855 12.3478 28.9494 12.4941 28.8722C13.4186 28.4041 14.3802 28.0121 15.3691 27.7003C16.153 27.4423 16.9303 27.1619 17.7178 26.9171ZM9.54883 19.8732C9.39131 19.581 9.01869 19.579 8.83692 19.8732C8.60062 20.2548 8.29227 20.3023 7.89844 20.2882C7.35837 20.2681 7.12848 20.4976 7.11524 21.0275C7.10312 21.5114 7.09929 21.9957 7.10938 22.4796C7.12251 23.0791 7.30783 23.2579 7.89454 23.2579H9.14942C9.61898 23.2579 10.0899 23.2486 10.5625 23.2687C10.9249 23.2747 11.1233 23.1179 11.2041 22.7726C11.3456 22.1367 11.3527 21.4781 11.2266 20.839C11.1548 20.4394 10.9123 20.268 10.5195 20.2911C10.127 20.3142 9.78503 20.3066 9.54883 19.8732ZM16.4033 15.4591C16.2588 14.679 15.6216 14.3381 14.9229 14.7277C13.7464 15.3814 12.6129 15.2257 11.4678 14.6925C10.7772 14.3723 10.2387 14.7136 10.2275 15.4767C10.2155 16.3613 10.5742 17.1686 10.7813 18.004C11.0074 18.9207 11.3498 19.8055 11.6416 20.7091C11.7001 20.8888 11.7589 21.0738 12.0029 21.049C12.221 21.0269 12.3065 20.8614 12.3701 20.6827C12.5862 20.0572 12.6061 19.4092 12.5859 18.8068C12.597 18.1732 12.5833 17.6115 12.3643 17.0402C12.0411 16.2026 12.2936 15.9015 13.1943 15.9015C14.4522 15.8965 14.5388 16.0636 14.1914 17.2745C13.8785 18.3831 13.9581 19.5148 14.2822 20.6193C14.3236 20.7629 14.3303 20.9864 14.5606 20.9884C14.7906 20.9903 14.9125 20.8129 14.9922 20.6222C15.2755 19.9836 15.518 19.3277 15.7168 18.6583C15.9258 17.9062 16.1217 17.1497 16.3398 16.3995C16.4345 16.0955 16.4562 15.7731 16.4033 15.4591Z" fill="url(#paint0_linear_1041_5248)"/>
<path d="M13.3219 8.43882C14.4619 8.43882 15.603 8.43882 16.7441 8.43882C16.9781 8.45087 17.2096 8.3867 17.4035 8.25605C17.7432 8.03164 18.154 7.93908 18.5577 7.99596C18.8859 8.0301 19.0202 7.89553 19.0091 7.57318C18.9546 5.83586 18.4598 4.23512 17.448 2.81112C17.3638 2.7083 17.2701 2.61349 17.1682 2.52793C16.9925 2.36022 16.7886 2.21963 16.5401 2.29294C16.2655 2.37328 16.2523 2.65547 16.2291 2.87238C16.1463 3.64162 15.8454 4.35061 15.6515 5.08871C15.6 5.28353 15.5233 5.57576 15.2476 5.51852C14.9719 5.46128 15.0638 5.16503 15.0709 4.96319C15.1102 3.89669 15.3637 2.8543 15.3445 1.77576C15.3314 0.990456 15.1113 0.705255 14.3125 0.661069C13.6609 0.611526 13.0065 0.60817 12.3545 0.651027C11.4456 0.728352 11.1134 1.06979 11.1033 1.95652C11.0912 2.89447 11.2376 3.81636 11.3457 4.74426C11.3749 4.99532 11.5305 5.42513 11.172 5.47333C10.8337 5.51852 10.7822 5.09976 10.7236 4.80351C10.5631 3.98808 10.3894 3.17465 10.2328 2.35822C10.1712 2.03586 10.0178 2.14331 9.84608 2.24875C9.29473 2.58618 8.96452 3.11641 8.66763 3.65467C8.03145 4.81155 7.50534 6.00758 7.46999 7.36329C7.45787 7.8172 7.64974 8.02508 8.09305 7.98792C8.54705 7.93736 9.00317 8.0629 9.36642 8.3384C9.50477 8.43882 9.67745 8.43882 9.84911 8.43882C11.0064 8.43882 12.1636 8.43882 13.3219 8.43882V8.43882Z" fill="url(#paint1_linear_1041_5248)"/>
<circle cx="24.3887" cy="25.2517" r="6.127" fill="url(#paint2_linear_1041_5248)"/>
<mask id="mask0_1041_5248" style="mask-type:alpha" maskUnits="userSpaceOnUse" x="18" y="19" width="13" height="13">
<circle cx="24.3887" cy="25.2517" r="6.127" fill="url(#paint3_linear_1041_5248)"/>
</mask>
<g mask="url(#mask0_1041_5248)">
<ellipse cx="28.3306" cy="26.1185" rx="6.16085" ry="6.12293" transform="rotate(-59.7453 28.3306 26.1185)" fill="url(#paint4_linear_1041_5248)"/>
</g>
<path d="M28.1449 27.8544H27.644V23.3468C27.644 22.6457 27.2433 22.3452 26.9929 22.295L25.3902 21.7942V21.2433C25.3902 21.1431 25.3401 21.093 25.2901 21.043C25.2399 20.9929 25.1398 20.9929 25.0897 20.9929L21.7341 21.9445C21.7341 21.9445 21.1331 22.0947 21.1331 22.896V27.8544H20.6323C20.482 27.8544 20.3818 27.9546 20.3818 28.1048C20.3818 28.255 20.482 28.3552 20.6323 28.3552H28.1449C28.2951 28.3552 28.3953 28.2551 28.3953 28.1048C28.3953 27.9545 28.2951 27.8544 28.1449 27.8544ZM24.8218 27.7245H21.7015V22.9719C21.7015 22.6359 21.8935 22.5399 21.9415 22.5399L24.8218 21.7238V27.7245ZM26.9929 27.7397H25.4264V22.295L26.7244 22.7855H26.7692C26.8139 22.7855 26.9929 22.8346 26.9929 23.3251V27.7397V27.7397ZM23.0362 22.7959H22.5354V23.2967H23.0362V22.7959ZM24.1882 22.7959H23.6874V23.2967H24.1882V22.7959ZM23.0362 23.5972H22.5354V24.0981H23.0362V23.5972ZM24.1882 23.5972H23.6874V24.0981H24.1882V23.5972ZM23.0362 24.4487H22.5354V24.9495H23.0362V24.4487ZM24.1882 24.4487H23.6874V24.9495H24.1882V24.4487ZM23.0362 25.3001H22.5354V25.8009H23.0362V25.3001ZM24.1882 25.3001H23.6874V25.8009H24.1882V25.3001ZM23.0362 26.1014H22.5354V26.6023H23.0362V26.1014ZM24.1882 26.1014H23.6874V26.6023H24.1882V26.1014ZM23.0362 26.9529H22.5354V27.4537H23.0362V26.9529ZM24.1882 26.9529H23.6874V27.4537H24.1882V26.9529ZM26.0413 24.0981H26.5421V23.5972H26.0413V24.0981ZM26.0413 24.9494H26.5421V24.4486H26.0413V24.9494ZM26.0413 25.8009H26.5421V25.3001H26.0413V25.8009V25.8009ZM26.0413 26.6023H26.5421V26.1014H26.0413V26.6023ZM26.0413 27.4536H26.5421V26.9528H26.0413V27.4536Z" fill="#EEFDF8"/>
<defs>
<linearGradient id="paint0_linear_1041_5248" x1="20.4934" y1="36.7249" x2="6.85451" y2="11.5232" gradientUnits="userSpaceOnUse">
<stop stop-color="#A1FFC3"/>
<stop offset="1" stop-color="#00D14D"/>
</linearGradient>
<linearGradient id="paint1_linear_1041_5248" x1="9.06003" y1="10.7444" x2="12.9845" y2="0.339134" gradientUnits="userSpaceOnUse">
<stop stop-color="#A1FFC3"/>
<stop offset="1" stop-color="#00D14D"/>
</linearGradient>
<linearGradient id="paint2_linear_1041_5248" x1="28.8268" y1="34.9898" x2="20.9109" y2="20.7694" gradientUnits="userSpaceOnUse">
<stop stop-color="#A1FFC3"/>
<stop offset="1" stop-color="#00D14D"/>
</linearGradient>
<linearGradient id="paint3_linear_1041_5248" x1="27.3824" y1="28.1335" x2="20.183" y2="28.9607" gradientUnits="userSpaceOnUse">
<stop stop-color="#89FFB4"/>
<stop offset="1" stop-color="#45E580"/>
</linearGradient>
<linearGradient id="paint4_linear_1041_5248" x1="31.3408" y1="28.9984" x2="24.1028" y2="29.8351" gradientUnits="userSpaceOnUse">
<stop stop-color="#89FFB4"/>
<stop offset="1" stop-color="#45E580"/>
</linearGradient>
</defs>
</svg>
