<svg width="32" height="32" viewBox="0 0 32 32" fill="none" xmlns="http://www.w3.org/2000/svg">
<g clip-path="url(#clip0_1041_7025)">
<path d="M31.7105 28.79L18.2705 1.06998C18.0826 0.744796 17.8125 0.474776 17.4872 0.287047C17.162 0.0993172 16.793 0.000488281 16.4175 0.000488281C16.0419 0.000488281 15.673 0.0993172 15.3477 0.287047C15.0225 0.474776 14.7523 0.744796 14.5645 1.06998L5.77217 14.346C5.67789 14.5085 5.62814 14.6929 5.62793 14.8808C5.62772 15.0687 5.67707 15.2533 5.771 15.416C5.86492 15.5786 6.0001 15.7137 6.16289 15.8074C6.32568 15.9012 6.51032 15.9504 6.69817 15.95H15.3665C17.3645 15.95 19.1225 17.452 19.2525 19.448C19.3079 20.2729 19.0869 21.0927 18.6245 21.778C18.5061 21.9514 18.4424 22.1564 18.4417 22.3664C18.441 22.5764 18.5033 22.7817 18.6205 22.956C19.0394 23.5717 19.2634 24.2992 19.2634 25.044C19.2634 25.7887 19.0394 26.5162 18.6205 27.132C18.5032 27.3049 18.4405 27.509 18.4405 27.718C18.4405 27.9269 18.5032 28.1311 18.6205 28.304C19.1125 29.03 19.3325 29.908 19.2405 30.78C19.2204 30.9312 19.2326 31.0849 19.2763 31.231C19.32 31.3771 19.3942 31.5123 19.494 31.6276C19.5938 31.7429 19.7169 31.8357 19.8553 31.8999C19.9936 31.9641 20.144 31.9982 20.2965 32H29.8565C30.2322 32.0001 30.6013 31.9013 30.9267 31.7135C31.2521 31.5258 31.5224 31.2556 31.7103 30.9303C31.8982 30.6049 31.9972 30.2359 31.9972 29.8602C31.9972 29.4844 31.8983 29.1154 31.7105 28.79Z" fill="url(#paint0_linear_1041_7025)"/>
<mask id="mask0_1041_7025" style="mask-type:alpha" maskUnits="userSpaceOnUse" x="9" y="0" width="23" height="33">
<path d="M31.7096 28.7901L18.2696 1.0701C18.0817 0.744918 17.8116 0.474898 17.4863 0.287169C17.1611 0.0994393 16.7921 0.000610352 16.4166 0.000610352C16.041 0.000610352 15.6721 0.0994393 15.3468 0.287169C15.0216 0.474898 14.7514 0.744918 14.5636 1.0701L9.46358 14.3461C9.3693 14.5086 9.31954 14.6931 9.31934 14.8809C9.31913 15.0688 9.36848 15.2534 9.4624 15.4161C9.55633 15.5788 9.69151 15.7138 9.85429 15.8076C10.0171 15.9013 10.2017 15.9505 10.3896 15.9501H15.3656C17.3636 15.9501 19.1216 17.4521 19.2516 19.4481C19.307 20.273 19.086 21.0928 18.6236 21.7781C18.5052 21.9515 18.4415 22.1565 18.4408 22.3665C18.4401 22.5765 18.5024 22.7819 18.6196 22.9561C19.0385 23.5718 19.2625 24.2994 19.2625 25.0441C19.2625 25.7888 19.0385 26.5164 18.6196 27.1321C18.5023 27.305 18.4396 27.5092 18.4396 27.7181C18.4396 27.927 18.5023 28.1312 18.6196 28.3041C19.1116 29.0301 19.3316 29.9081 19.2396 30.7801C19.2195 30.9313 19.2317 31.085 19.2754 31.2311C19.3191 31.3772 19.3933 31.5124 19.4931 31.6277C19.5929 31.743 19.716 31.8358 19.8544 31.9C19.9927 31.9642 20.1431 31.9983 20.2956 32.0001H29.8556C30.2313 32.0002 30.6004 31.9014 30.9258 31.7137C31.2512 31.5259 31.5215 31.2557 31.7094 30.9304C31.8973 30.6051 31.9963 30.236 31.9963 29.8603C31.9963 29.4846 31.8974 29.1155 31.7096 28.7901Z" fill="url(#paint1_linear_1041_7025)"/>
</mask>
<g mask="url(#mask0_1041_7025)">
<ellipse cx="30.8625" cy="25.72" rx="9.07247" ry="6.28007" fill="url(#paint2_linear_1041_7025)"/>
</g>
<path d="M15.514 18.4615H1.604C1.17873 18.4631 0.771367 18.6329 0.470844 18.9338C0.170321 19.2347 0.00105362 19.6423 0 20.0675C0.002 20.9535 0.72 21.6695 1.604 21.6715H15.514C15.9393 21.6705 16.3468 21.5012 16.6477 21.2007C16.9486 20.9002 17.1184 20.4928 17.12 20.0675C17.1184 19.6421 16.9487 19.2345 16.6479 18.9337C16.347 18.6328 15.9395 18.4631 15.514 18.4615ZM15.514 23.8115H1.604C1.17873 23.8131 0.771367 23.9829 0.470844 24.2838C0.170321 24.5847 0.00105362 24.9923 0 25.4175C0.002 26.3035 0.72 27.0195 1.604 27.0215H15.514C15.9391 27.0205 16.3465 26.8512 16.647 26.5506C16.9476 26.25 17.1169 25.8426 17.118 25.4175C17.1169 24.9923 16.9477 24.5847 16.6472 24.2838C16.3466 23.9829 15.9393 23.8131 15.514 23.8115ZM15.514 29.1615H1.604C1.17873 29.1631 0.771367 29.3329 0.470844 29.6338C0.170321 29.9347 0.00105362 30.3423 0 30.7675C0.002 31.6515 0.72 32.3695 1.604 32.3715H15.514C15.9391 32.3705 16.3465 32.2012 16.647 31.9006C16.9476 31.6 17.1169 31.1926 17.118 30.7675C17.1175 30.3421 16.9484 29.9342 16.6477 29.6332C16.3471 29.3322 15.9394 29.1626 15.514 29.1615Z" fill="url(#paint3_linear_1041_7025)"/>
</g>
<defs>
<linearGradient id="paint0_linear_1041_7025" x1="30.1246" y1="30.2365" x2="2.52727" y2="2.38322" gradientUnits="userSpaceOnUse">
<stop offset="0.316871" stop-color="#FE6C6C"/>
<stop offset="1" stop-color="#FFC7C7"/>
</linearGradient>
<linearGradient id="paint1_linear_1041_7025" x1="7.86107" y1="27.6914" x2="31.8582" y2="15.8998" gradientUnits="userSpaceOnUse">
<stop stop-color="#FBA9A9"/>
<stop offset="1" stop-color="#FF7272"/>
</linearGradient>
<linearGradient id="paint2_linear_1041_7025" x1="20.6232" y1="30.3089" x2="32.5218" y2="18.3902" gradientUnits="userSpaceOnUse">
<stop stop-color="#FBA9A9"/>
<stop offset="1" stop-color="#FF7272"/>
</linearGradient>
<linearGradient id="paint3_linear_1041_7025" x1="17.12" y1="29.1121" x2="6.44952" y2="20.8328" gradientUnits="userSpaceOnUse">
<stop stop-color="#FFC7C7"/>
<stop offset="1" stop-color="#FE6C6C"/>
</linearGradient>
<clipPath id="clip0_1041_7025">
<rect width="32" height="32" fill="white"/>
</clipPath>
</defs>
</svg>
