<svg width="32" height="32" viewBox="0 0 32 32" fill="none" xmlns="http://www.w3.org/2000/svg">
<path d="M27.553 23.7107C28.3159 23.7107 28.9389 24.3167 28.9389 25.0571C28.9389 25.7981 28.3159 26.4041 27.553 26.4041H23.047L24.5028 28.2891C24.6118 28.4298 24.6913 28.591 24.7365 28.7632C24.7817 28.9353 24.7917 29.1148 24.7658 29.2909C24.7399 29.467 24.6787 29.6361 24.5859 29.7879C24.4931 29.9398 24.3705 30.0713 24.2256 30.1747C23.9764 30.3564 23.6834 30.4439 23.3947 30.4439C23.1809 30.4449 22.9698 30.3968 22.7775 30.3035C22.5852 30.2101 22.4168 30.0739 22.2853 29.9054L19.5816 26.4041H12.4179L9.71478 29.9054C9.58329 30.0739 9.41494 30.2101 9.22264 30.3035C9.03034 30.3968 8.8192 30.4449 8.60544 30.4439C8.30673 30.4445 8.01556 30.3502 7.77389 30.1747C7.62925 30.0711 7.50696 29.9395 7.41433 29.7876C7.3217 29.6357 7.26063 29.4668 7.23476 29.2908C7.20888 29.1148 7.21875 28.9354 7.26375 28.7633C7.30876 28.5912 7.38799 28.4299 7.4967 28.2891L8.95253 26.4041H4.44647C3.6836 26.4041 3.06055 25.7981 3.06055 25.0571C3.06055 24.3167 3.6836 23.7107 4.44647 23.7107H27.553Z" fill="url(#paint0_linear_1041_4946)"/>
<path d="M3.05566 4.02044C3.05566 2.66097 4.15773 1.5589 5.5172 1.5589H26.4772C27.8367 1.5589 28.9387 2.66097 28.9387 4.02044V19.2943C28.9387 20.6538 27.8367 21.7558 26.4772 21.7558H5.5172C4.15773 21.7558 3.05566 20.6538 3.05566 19.2943V4.02044Z" fill="url(#paint1_linear_1041_4946)"/>
<mask id="mask0_1041_4946" style="mask-type:alpha" maskUnits="userSpaceOnUse" x="3" y="1" width="26" height="21">
<path d="M3.05566 4.02044C3.05566 2.66097 4.15773 1.5589 5.5172 1.5589H26.4772C27.8367 1.5589 28.9387 2.66097 28.9387 4.02044V19.2943C28.9387 20.6538 27.8367 21.7558 26.4772 21.7558H5.5172C4.15773 21.7558 3.05566 20.6538 3.05566 19.2943V4.02044Z" fill="url(#paint2_linear_1041_4946)"/>
</mask>
<g mask="url(#mask0_1041_4946)">
<path d="M24.1667 10.163C29.4101 10.163 33.6605 13.6634 33.6607 17.9815C33.6607 22.2997 29.4102 25.8 24.1667 25.8C22.9828 25.8 21.8501 25.62 20.8049 25.294C20.4005 29.2325 17.0738 32.3048 13.0285 32.3048C8.71049 32.3046 5.21011 28.8043 5.20996 24.4863C5.20996 20.1682 8.7104 16.6679 13.0285 16.6678C13.6271 16.6678 14.21 16.7363 14.7701 16.8637C15.4289 13.0753 19.3843 10.163 24.1667 10.163Z" fill="url(#paint3_linear_1041_4946)"/>
</g>
<path d="M14.763 7.69952C15.0711 7.66158 15.3779 7.78044 15.5791 8.01683L19.4902 12.6154H23.6308C24.1406 12.6154 24.5539 13.0287 24.5539 13.5385C24.5539 14.0483 24.1406 14.4615 23.6308 14.4615H19.0635C18.793 14.4615 18.5357 14.3429 18.3604 14.137L15.0803 10.2813L13.2666 13.9483C13.1108 14.2626 12.7905 14.4615 12.4397 14.4615H8.86155C8.35175 14.4615 7.93848 14.0483 7.93848 13.5385C7.93848 13.0287 8.35175 12.6154 8.86155 12.6154H11.8664L14.0491 8.20553L14.1055 8.10577C14.2534 7.88225 14.4932 7.73278 14.763 7.69952Z" fill="white"/>
<defs>
<linearGradient id="paint0_linear_1041_4946" x1="6.14131" y1="24.9349" x2="9.20575" y2="32.3381" gradientUnits="userSpaceOnUse">
<stop stop-color="#77DEC8"/>
<stop offset="1" stop-color="#09B6A3"/>
</linearGradient>
<linearGradient id="paint1_linear_1041_4946" x1="6.13698" y1="5.23107" x2="18.8443" y2="15.4673" gradientUnits="userSpaceOnUse">
<stop stop-color="#77DEC8"/>
<stop offset="1" stop-color="#09B6A3"/>
</linearGradient>
<linearGradient id="paint2_linear_1041_4946" x1="30.1747" y1="19.0017" x2="2.98445" y2="19.0017" gradientUnits="userSpaceOnUse">
<stop stop-color="#51D5BF"/>
<stop offset="1" stop-color="#55D3BF"/>
</linearGradient>
<linearGradient id="paint3_linear_1041_4946" x1="35.0192" y1="29.2854" x2="5.13169" y2="29.2855" gradientUnits="userSpaceOnUse">
<stop stop-color="#51D5BF"/>
<stop offset="1" stop-color="#55D3BF"/>
</linearGradient>
</defs>
</svg>
