<svg width="32" height="32" viewBox="0 0 32 32" fill="none" xmlns="http://www.w3.org/2000/svg">
<path fill-rule="evenodd" clip-rule="evenodd" d="M8.12999 17.8528L13.8311 23.5539L9.25599 28.1297L3.55176 28.1341L3.55568 22.4293L8.12999 17.8528ZM24.2617 3.9256L24.4292 4.07362L27.6137 7.25847C28.2542 7.89986 28.3029 8.90837 27.7602 9.60559L27.6122 9.77301L23.2415 14.1434L17.5423 8.4441L21.9144 4.07228C22.5557 3.43161 23.5644 3.38283 24.2617 3.9256Z" fill="url(#paint0_linear_1041_7189)"/>
<path fill-rule="evenodd" clip-rule="evenodd" d="M10.7951 3.92392L10.9628 4.07139L13.8854 6.99554L11.9611 8.92256L13.2195 10.1799L15.1436 8.25373L18.8185 11.9211L16.8886 13.8513L18.1476 15.1087L20.0767 13.1792L22.2981 15.4006L23.7441 16.8542L21.8197 18.7799L23.077 20.038L25.0022 18.1124L27.9269 21.0382C28.5674 21.6794 28.6167 22.6876 28.0747 23.3853L27.9269 23.5529L23.5518 27.9294C22.9093 28.5674 21.9028 28.6165 21.2042 28.0767L21.0364 27.9294L4.07227 10.963C3.43164 10.3218 3.38236 9.31335 3.92443 8.6156L4.07227 8.44803L8.44827 4.07184C9.08985 3.43254 10.0971 3.3832 10.7951 3.92392Z" fill="url(#paint1_linear_1041_7189)"/>
<path d="M12.1641 19.0548C14.629 17.0777 18.8163 16.3694 23.3115 17.2872L21.8203 18.7804L23.0781 20.0382L25.0029 18.1124L27.9277 21.0382C28.5682 21.6794 28.6181 22.6881 28.0762 23.3858L27.9277 23.5528L23.5527 27.9298C22.9102 28.5676 21.9035 28.616 21.2051 28.0763L21.0371 27.9298L12.1641 19.0548Z" fill="url(#paint2_linear_1041_7189)"/>
<defs>
<linearGradient id="paint0_linear_1041_7189" x1="14.0695" y1="26.9275" x2="17.8411" y2="5.64395" gradientUnits="userSpaceOnUse">
<stop stop-color="#2573FD"/>
<stop offset="1" stop-color="#A1C3FF"/>
</linearGradient>
<linearGradient id="paint1_linear_1041_7189" x1="14.2037" y1="27.2258" x2="18.0235" y2="5.67064" gradientUnits="userSpaceOnUse">
<stop stop-color="#2573FD"/>
<stop offset="1" stop-color="#A1C3FF"/>
</linearGradient>
<linearGradient id="paint2_linear_1041_7189" x1="27.1953" y1="28.4476" x2="14.053" y2="26.3356" gradientUnits="userSpaceOnUse">
<stop stop-color="#6CA1FD" stop-opacity="0.2"/>
<stop offset="1" stop-color="#87C1FF"/>
</linearGradient>
</defs>
</svg>
