<svg width="32" height="32" viewBox="0 0 32 32" fill="none" xmlns="http://www.w3.org/2000/svg">
<path d="M4.01367 3.6319C4.01367 3.07961 4.46139 2.6319 5.01367 2.6319H26.9857C27.538 2.6319 27.9857 3.07961 27.9857 3.6319V18.4123C27.9857 18.9646 27.538 19.4123 26.9857 19.4123H5.01367C4.46139 19.4123 4.01367 18.9646 4.01367 18.4123V3.6319Z" fill="url(#paint0_linear_1041_4875)"/>
<path d="M2.46191 6.75269C2.46191 5.64812 3.35734 4.75269 4.46191 4.75269H27.5388C28.6434 4.75269 29.5388 5.64812 29.5388 6.75269V27.3681C29.5388 28.4726 28.6434 29.3681 27.5388 29.3681H4.46192C3.35735 29.3681 2.46191 28.4726 2.46191 27.3681V6.75269Z" fill="#639DFC"/>
<path d="M2.46191 6.75269C2.46191 5.64812 3.35734 4.75269 4.46191 4.75269H27.5388C28.6434 4.75269 29.5388 5.64812 29.5388 6.75269V27.3681C29.5388 28.4726 28.6434 29.3681 27.5388 29.3681H7.48595L5.64821 26.9104C3.5797 24.1442 2.46191 20.7828 2.46191 17.3287V6.75269Z" fill="url(#paint1_linear_1041_4875)"/>
<path d="M2.46191 6.25269C2.46191 5.42426 3.13349 4.75269 3.96191 4.75269H28.0388C28.8673 4.75269 29.5388 5.42426 29.5388 6.25269V27.8681C29.5388 28.6965 28.8673 29.3681 28.0388 29.3681H15.4619C8.28222 29.3681 2.46191 23.5478 2.46191 16.3681V6.25269Z" fill="url(#paint2_linear_1041_4875)"/>
<mask id="mask0_1041_4875" style="mask-type:alpha" maskUnits="userSpaceOnUse" x="2" y="4" width="28" height="26">
<path d="M2.46191 6.25269C2.46191 5.42426 3.13349 4.75269 3.96191 4.75269H28.0388C28.8673 4.75269 29.5388 5.42426 29.5388 6.25269V27.8681C29.5388 28.6965 28.8673 29.3681 28.0388 29.3681H15.4619C8.28222 29.3681 2.46191 23.5478 2.46191 16.3681V6.25269Z" fill="url(#paint3_linear_1041_4875)"/>
</mask>
<g mask="url(#mask0_1041_4875)">
<ellipse cx="21.2031" cy="26.9065" rx="11.3095" ry="7.62735" fill="url(#paint4_linear_1041_4875)"/>
</g>
<path d="M11.3039 11.2315C12.3868 11.2315 13.248 11.4877 13.888 11.9995C14.528 12.5214 14.8483 13.2355 14.8483 14.1414C14.8482 15.2931 14.2626 16.0615 13.0911 16.4454C13.7309 16.6424 14.2088 16.9272 14.5238 17.3012C14.8782 17.695 15.055 18.2073 15.0551 18.8373C15.0551 19.812 14.7152 20.61 14.0358 21.2303C13.3171 21.8702 12.3869 22.1906 11.245 22.1906C10.152 22.1906 9.27027 21.9093 8.60074 21.3481C7.86246 20.7278 7.44895 19.8218 7.36035 18.6305H9.11756C9.1471 19.3198 9.36413 19.8468 9.7678 20.2111C10.1418 20.5556 10.629 20.7278 11.2293 20.7279C11.889 20.7279 12.416 20.5407 12.8099 20.1666C13.1544 19.8221 13.3266 19.404 13.3267 18.9118C13.3267 18.3114 13.1451 17.868 12.781 17.5825C12.4364 17.2969 11.9186 17.1534 11.2293 17.1534H10.4914V15.8541H11.2293C11.8496 15.8541 12.3227 15.7209 12.6476 15.4551C12.9626 15.1892 13.12 14.7953 13.12 14.2736C13.1199 13.7619 12.9774 13.3735 12.6921 13.1077C12.3869 12.8419 11.9287 12.7087 11.3183 12.7087C10.6981 12.7087 10.2203 12.8614 9.88559 13.1666C9.53141 13.4718 9.32451 13.9441 9.2654 14.5837H7.56708C7.65577 13.5107 8.04963 12.6837 8.74857 12.1029C9.39842 11.522 10.2503 11.2315 11.3039 11.2315Z" fill="#E8F2FE"/>
<path fill-rule="evenodd" clip-rule="evenodd" d="M20.0563 11.2315C21.287 11.2315 22.2469 11.7436 22.9361 12.7676C23.5859 13.7423 23.9108 15.0569 23.9108 16.7111C23.9108 18.3651 23.5859 19.6799 22.9361 20.6546C22.237 21.6784 21.277 22.1906 20.0563 22.1906C18.8158 22.1906 17.8558 21.6784 17.1765 20.6546C16.5266 19.6799 16.2017 18.3651 16.2017 16.7111C16.2017 15.0569 16.5266 13.7423 17.1765 12.7676C17.846 11.7436 18.8058 11.2315 20.0563 11.2315ZM20.0563 12.6942C19.2095 12.6942 18.6182 13.1615 18.2834 14.0969C18.0472 14.727 17.9289 15.5986 17.9289 16.7111C17.9289 17.8039 18.0471 18.6754 18.2834 19.3253C18.628 20.2606 19.2194 20.7279 20.0563 20.7279C20.8832 20.7279 21.4734 20.2604 21.8279 19.3253C22.0642 18.6754 22.1825 17.8039 22.1825 16.7111C22.1825 15.5985 22.0642 14.727 21.8279 14.0969C21.4734 13.1616 20.8833 12.6943 20.0563 12.6942Z" fill="#E8F2FE"/>
<defs>
<linearGradient id="paint0_linear_1041_4875" x1="6.46413" y1="2.6319" x2="37.4553" y2="11.0221" gradientUnits="userSpaceOnUse">
<stop stop-color="#619BFF"/>
<stop offset="1" stop-color="#BBD4FF" stop-opacity="0.5"/>
</linearGradient>
<linearGradient id="paint1_linear_1041_4875" x1="16.0004" y1="-11.225" x2="16.0004" y2="29.3681" gradientUnits="userSpaceOnUse">
<stop stop-color="#93BBFE"/>
<stop offset="1" stop-color="#BBD4FF" stop-opacity="0.5"/>
</linearGradient>
<linearGradient id="paint2_linear_1041_4875" x1="27.9794" y1="28.4238" x2="6.14714" y2="2.65596" gradientUnits="userSpaceOnUse">
<stop offset="0.505078" stop-color="#2573FD"/>
<stop offset="1" stop-color="#A1C3FF"/>
</linearGradient>
<linearGradient id="paint3_linear_1041_4875" x1="27.9794" y1="28.4238" x2="6.14714" y2="2.65596" gradientUnits="userSpaceOnUse">
<stop offset="0.505078" stop-color="#2573FD"/>
<stop offset="1" stop-color="#A1C3FF"/>
</linearGradient>
<linearGradient id="paint4_linear_1041_4875" x1="33.5258" y1="31.6477" x2="12.501" y2="31.7419" gradientUnits="userSpaceOnUse">
<stop stop-color="#87C1FF"/>
<stop offset="1" stop-color="#6CA1FD" stop-opacity="0.2"/>
</linearGradient>
</defs>
</svg>
