<svg width="32" height="32" viewBox="0 0 32 32" fill="none" xmlns="http://www.w3.org/2000/svg">
<path d="M3.33496 2.79578C3.33496 2.24349 3.78268 1.79578 4.33496 1.79578H27.6649C28.2172 1.79578 28.6649 2.24349 28.6649 2.79578V16.627C28.6649 17.1793 28.2172 17.627 27.6649 17.627H4.33496C3.78268 17.627 3.33496 17.1793 3.33496 16.627V2.79578Z" fill="url(#paint0_linear_1041_6692)"/>
<path d="M2.06836 6.69897C2.06836 5.5944 2.96379 4.69897 4.06836 4.69897H27.9313C29.0359 4.69897 29.9313 5.59441 29.9313 6.69897V28.0289C29.9313 29.1335 29.0359 30.0289 27.9313 30.0289H4.06836C2.96379 30.0289 2.06836 29.1335 2.06836 28.0289V6.69897Z" fill="#FF9B9B"/>
<path d="M2.06836 6.69898C2.06836 5.59441 2.96379 4.69897 4.06836 4.69897H27.9313C29.0359 4.69897 29.9313 5.59441 29.9313 6.69897V28.0289C29.9313 29.1335 29.0359 30.0289 27.9313 30.0289H7.23824L5.25466 27.3763C3.18615 24.61 2.06836 21.2487 2.06836 17.7946V6.69898Z" fill="url(#paint1_linear_1041_6692)"/>
<path d="M2.06836 6.69897C2.06836 5.5944 2.96379 4.69897 4.06836 4.69897H27.9313C29.0359 4.69897 29.9313 5.59441 29.9313 6.69897V28.0289C29.9313 29.1335 29.0359 30.0289 27.9313 30.0289H15.0684C7.88867 30.0289 2.06836 24.2086 2.06836 17.0289V6.69897Z" fill="url(#paint2_linear_1041_6692)"/>
<mask id="mask0_1041_6692" style="mask-type:alpha" maskUnits="userSpaceOnUse" x="2" y="4" width="28" height="27">
<path d="M2.06836 6.37427C2.06836 5.54584 2.73993 4.87427 3.56836 4.87427H28.4313C29.2597 4.87427 29.9313 5.54584 29.9313 6.37427V28.7042C29.9313 29.5326 29.2597 30.2042 28.4313 30.2042H15.0684C7.88867 30.2042 2.06836 24.3839 2.06836 17.2042V6.37427Z" fill="url(#paint3_linear_1041_6692)"/>
</mask>
<g mask="url(#mask0_1041_6692)">
<ellipse cx="21.3537" cy="27.6712" rx="11.6378" ry="7.84877" fill="url(#paint4_linear_1041_6692)"/>
</g>
<path fill-rule="evenodd" clip-rule="evenodd" d="M18.3642 13.9406V14.9333C18.3642 15.3446 18.0543 15.6779 17.672 15.6779H15.5954C15.2131 15.6779 14.9032 15.3446 14.9032 14.9333V13.9406C14.9032 13.5294 15.2131 13.196 15.5954 13.196H17.672C18.0543 13.196 18.3642 13.5294 18.3642 13.9406ZM10.8653 20.1453V21.138C10.8653 21.5492 10.5554 21.8826 10.1731 21.8826H8.0965C7.71421 21.8826 7.4043 21.5492 7.4043 21.138V20.1453C7.4043 19.734 7.71421 19.4007 8.0965 19.4007H10.1731C10.5554 19.4007 10.8653 19.734 10.8653 20.1453ZM18.3642 20.1453V21.138C18.3642 21.5492 18.0543 21.8826 17.672 21.8826H15.5954C15.2131 21.8826 14.9032 21.5492 14.9032 21.138V20.1453C14.9032 19.734 15.2131 19.4007 15.5954 19.4007H17.672C18.0543 19.4007 18.3642 19.734 18.3642 20.1453ZM25.8631 21.138V20.1453C25.8631 19.734 25.5532 19.4007 25.1709 19.4007H23.0943C22.712 19.4007 22.4021 19.734 22.4021 20.1453V21.138C22.4021 21.5492 22.712 21.8826 23.0943 21.8826H25.1709C25.5532 21.8826 25.8631 21.5492 25.8631 21.138ZM25.8631 14.9333V13.9406C25.8631 13.5294 25.5532 13.196 25.1709 13.196H23.0943C22.712 13.196 22.4021 13.5294 22.4021 13.9406V14.9333C22.4021 15.3446 22.712 15.6779 23.0943 15.6779H25.1709C25.5532 15.6779 25.8631 15.3446 25.8631 14.9333ZM10.8653 13.9406V14.9333C10.8653 15.3446 10.5554 15.6779 10.1731 15.6779H8.0965C7.71421 15.6779 7.4043 15.3446 7.4043 14.9333V13.9406C7.4043 13.5294 7.71421 13.196 8.0965 13.196H10.1731C10.5554 13.196 10.8653 13.5294 10.8653 13.9406Z" fill="#FEF7F7"/>
<defs>
<linearGradient id="paint0_linear_1041_6692" x1="28.0624" y1="6.65603" x2="12.6669" y2="-8.9862" gradientUnits="userSpaceOnUse">
<stop stop-color="#FFC7C7"/>
<stop offset="0.754872" stop-color="#FE6C6C"/>
</linearGradient>
<linearGradient id="paint1_linear_1041_6692" x1="15.9998" y1="-11.7426" x2="15.9998" y2="30.029" gradientUnits="userSpaceOnUse">
<stop stop-color="#FE93AF"/>
<stop offset="1" stop-color="#FFBBC0" stop-opacity="0.5"/>
</linearGradient>
<linearGradient id="paint2_linear_1041_6692" x1="27.6304" y1="28.633" x2="7.81463" y2="-2.4106" gradientUnits="userSpaceOnUse">
<stop offset="0.245128" stop-color="#FE6C6C"/>
<stop offset="1" stop-color="#FFC7C7"/>
</linearGradient>
<linearGradient id="paint3_linear_1041_6692" x1="28.3266" y1="29.2326" x2="5.86057" y2="2.71667" gradientUnits="userSpaceOnUse">
<stop offset="0.505078" stop-color="#2573FD"/>
<stop offset="1" stop-color="#A1C3FF"/>
</linearGradient>
<linearGradient id="paint4_linear_1041_6692" x1="34.0341" y1="32.5499" x2="12.399" y2="32.6469" gradientUnits="userSpaceOnUse">
<stop stop-color="#FEC7CA"/>
<stop offset="1" stop-color="#FEC7CA" stop-opacity="0.2"/>
</linearGradient>
</defs>
</svg>
