<svg width="32" height="32" viewBox="0 0 32 32" fill="none" xmlns="http://www.w3.org/2000/svg">
<path d="M14.9829 1.89119C15.6966 1.53435 16.5363 2.05332 16.5363 2.85125V28.8806C16.5363 29.4734 16.0558 29.9539 15.4629 29.9539H6.33926C4.56084 29.9539 3.11914 28.5123 3.11914 26.7338V9.81322C3.11914 8.59352 3.80826 7.47852 4.89919 6.93307L14.9829 1.89119ZM11.7061 12.78C11.1133 12.78 10.6328 13.2605 10.6328 13.8533V17.0735C10.6328 17.6663 11.1133 18.1468 11.7061 18.1468C12.2989 18.1468 12.7795 17.6663 12.7795 17.0735V13.8533C12.7795 13.2605 12.2989 12.78 11.7061 12.78Z" fill="url(#paint0_linear_1041_6671)"/>
<path d="M3.11914 20.8327C5.93963 19.7222 9.83844 20.5292 12.9912 23.1549C14.6536 24.5395 15.8556 26.2201 16.5361 27.9352V28.8805C16.536 29.4732 16.0556 29.9538 15.4629 29.9538H6.33887C4.56063 29.9535 3.11914 28.5114 3.11914 26.7331V20.8327Z" fill="url(#paint1_linear_1041_6671)"/>
<path d="M18.6836 8.48666C18.6836 7.72729 19.4505 7.20804 20.1556 7.49006L26.8565 10.1704C28.0789 10.6595 28.8806 11.8435 28.8806 13.1602V26.734C28.8806 28.5125 27.439 29.9541 25.6601 29.9541L19.7566 29.952C19.1639 29.9518 18.6836 29.4713 18.6836 28.8786V8.48666Z" fill="url(#paint2_linear_1041_6671)"/>
<defs>
<linearGradient id="paint0_linear_1041_6671" x1="14.6871" y1="38.2576" x2="-6.47017" y2="20.1596" gradientUnits="userSpaceOnUse">
<stop stop-color="#A1FFC3"/>
<stop offset="1" stop-color="#00D14D"/>
</linearGradient>
<linearGradient id="paint1_linear_1041_6671" x1="11.596" y1="27.4833" x2="4.94726" y2="28.4159" gradientUnits="userSpaceOnUse">
<stop stop-color="#89FFB4"/>
<stop offset="1" stop-color="#45E580"/>
</linearGradient>
<linearGradient id="paint2_linear_1041_6671" x1="24.8322" y1="26.8473" x2="24.7548" y2="1.98386" gradientUnits="userSpaceOnUse">
<stop stop-color="#00D14D"/>
<stop offset="1" stop-color="#A1FFC3"/>
</linearGradient>
</defs>
</svg>
