<svg width="33" height="32" viewBox="0 0 33 32" fill="none" xmlns="http://www.w3.org/2000/svg">
<path fill-rule="evenodd" clip-rule="evenodd" d="M9.13954 26.3383C9.13954 24.6875 7.81332 23.3491 6.17776 23.3491C4.5422 23.3491 3.21598 24.6892 3.21598 26.3383C3.21598 27.9891 4.5422 29.3258 6.17776 29.3258C7.81332 29.3258 9.13954 27.9874 9.13954 26.3383ZM25.92 26.3383C25.92 24.6875 24.5955 23.3491 22.96 23.3491C21.3244 23.3491 19.9982 24.6892 19.9982 26.3383C19.9982 27.9891 21.3244 29.3258 22.96 29.3258C24.5955 29.3258 25.92 27.9874 25.92 26.3383ZM5.77089 25.3653C5.89942 25.3108 6.03768 25.2817 6.17776 25.2794C6.31784 25.2817 6.4561 25.3108 6.58463 25.3653C6.71315 25.4197 6.82944 25.4984 6.92685 25.5967C7.02425 25.695 7.10086 25.8111 7.1523 25.9384C7.20374 26.0656 7.229 26.2015 7.22665 26.3383C7.229 26.4751 7.20374 26.611 7.1523 26.7382C7.10086 26.8655 7.02425 26.9816 6.92685 27.0799C6.82944 27.1782 6.71315 27.2569 6.58463 27.3113C6.4561 27.3658 6.31784 27.3949 6.17776 27.3972C6.03768 27.3949 5.89942 27.3658 5.77089 27.3113C5.64236 27.2569 5.52608 27.1782 5.42868 27.0799C5.33127 26.9816 5.25466 26.8655 5.20322 26.7382C5.15178 26.611 5.12652 26.4751 5.12887 26.3383C5.12652 26.2015 5.15178 26.0656 5.20322 25.9384C5.25466 25.8111 5.33127 25.695 5.42868 25.5967C5.52608 25.4984 5.64236 25.4197 5.77089 25.3653ZM22.5531 25.3653C22.6816 25.3108 22.8199 25.2817 22.96 25.2794C23.1001 25.2817 23.2383 25.3108 23.3669 25.3653C23.4954 25.4197 23.6117 25.4984 23.7091 25.5967C23.8065 25.695 23.8831 25.8111 23.9345 25.9384C23.986 26.0656 24.0112 26.2015 24.0089 26.3383C24.0112 26.4751 23.986 26.611 23.9345 26.7382C23.8831 26.8655 23.8065 26.9816 23.7091 27.0799C23.6117 27.1782 23.4954 27.2569 23.3669 27.3113C23.2383 27.3658 23.1001 27.3949 22.96 27.3972C22.8199 27.3949 22.6816 27.3658 22.5531 27.3113C22.4246 27.2569 22.3083 27.1782 22.2109 27.0799C22.1135 26.9816 22.0369 26.8655 21.9855 26.7382C21.934 26.611 21.9087 26.4751 21.9111 26.3383C21.9087 26.2015 21.934 26.0656 21.9855 25.9384C22.0369 25.8111 22.1135 25.695 22.2109 25.5967C22.3083 25.4984 22.4246 25.4197 22.5531 25.3653ZM10.3804 10.3581C10.3804 10.2878 10.3207 10.2308 10.2471 10.2308H5.11034C5.056 10.2308 5.00709 10.2623 4.98673 10.3104L2.54286 16.0819C2.53541 16.0995 2.52392 16.1153 2.50924 16.1281L0.22116 18.1263C0.182783 18.1598 0.168319 18.2116 0.184116 18.2589L1.84146 23.223C1.86888 23.3051 1.8047 23.389 1.71443 23.389H0.291538C0.217899 23.389 0.158203 23.446 0.158203 23.5163V24.2824C0.158203 24.3527 0.217901 24.4097 0.291538 24.4097H2.64022C2.69027 24.4097 2.73595 24.3829 2.75964 24.3408C3.08981 23.7543 3.57161 23.262 4.15761 22.9132C4.76643 22.5508 5.46476 22.3571 6.17776 22.3527C6.89076 22.3571 7.58909 22.5508 8.19791 22.9132C8.78391 23.262 9.26571 23.7543 9.59588 24.3408C9.61957 24.3829 9.66525 24.4097 9.7153 24.4097H19.4224C19.4725 24.4097 19.5182 24.3829 19.5419 24.3408C19.872 23.7543 20.3538 23.262 20.9398 22.9132C21.5487 22.5508 22.247 22.3571 22.96 22.3527C23.673 22.3571 24.3713 22.5508 24.9801 22.9132C25.5661 23.262 26.0479 23.7543 26.3781 24.3408C26.4018 24.3829 26.4475 24.4097 26.4975 24.4097H32.0249C32.0985 24.4097 32.1582 24.3527 32.1582 24.2824V18.3086C32.1582 18.2383 32.0985 18.1813 32.0249 18.1813H10.5138C10.4401 18.1813 10.3804 18.1243 10.3804 18.054V10.3581ZM17.0346 13.2409C17.0346 12.4966 16.4362 11.8928 15.699 11.8921C15.6986 11.8921 15.6983 11.8915 15.6987 11.8912C15.699 11.8909 15.6988 11.8904 15.6983 11.8904H12.4515C12.2749 11.8907 12.1001 11.9257 11.9376 11.9934C11.7751 12.0611 11.6282 12.1601 11.5058 12.2844C11.2535 12.5411 11.1133 12.8834 11.1146 13.2392V16.0235C11.1089 16.3755 11.2465 16.7152 11.4972 16.9681C11.7479 17.221 12.0911 17.3664 12.4515 17.3723H15.6978C16.4355 17.3723 17.0346 16.7683 17.0346 16.0235V13.2409ZM23.9467 13.2409C23.9467 12.4966 23.3482 11.8928 22.611 11.8921C22.6102 11.8921 22.6094 11.8918 22.6089 11.8912C22.6083 11.8907 22.6075 11.8904 22.6067 11.8904H19.36C19.1833 11.8907 19.0085 11.9257 18.846 11.9934C18.6835 12.0611 18.5367 12.1601 18.4142 12.2844C18.162 12.5411 18.0217 12.8834 18.0231 13.2392V16.0235C18.0174 16.3755 18.155 16.7152 18.4057 16.9681C18.6563 17.221 18.9996 17.3664 19.36 17.3723H22.6098C23.3475 17.3723 23.9467 16.7683 23.9467 16.0235V13.2409ZM30.8551 13.2409C30.8551 12.4962 30.2578 11.8921 29.5182 11.8921L26.2684 11.8904C26.0921 11.8909 25.9176 11.9261 25.7554 11.9938C25.5933 12.0615 25.4467 12.1603 25.3244 12.2844C25.0722 12.5411 24.9319 12.8834 24.9333 13.2392V16.0235C24.9276 16.3752 25.065 16.7146 25.3153 16.9675C25.5656 17.2204 25.9083 17.366 26.2684 17.3723H29.5182C30.2578 17.3723 30.8551 16.7683 30.8551 16.0235V13.2409ZM9.26931 11.3748C9.34295 11.3748 9.40265 11.4318 9.40265 11.5021V15.7157C9.40265 15.786 9.34295 15.843 9.26931 15.843H4.23384C4.14361 15.843 4.07944 15.7592 4.10677 15.6771L5.50999 11.4635C5.52759 11.4107 5.57898 11.3748 5.63706 11.3748H9.26931Z" fill="url(#paint0_linear_1041_5188)"/>
<path d="M24.4703 7.32384C24.636 7.32384 24.7703 7.18953 24.7703 7.02384V5.46932C24.7703 5.30363 24.636 5.16932 24.4703 5.16932H22.2752V2.97422C22.2752 2.80854 22.1409 2.67422 21.9752 2.67422H20.4206C20.255 2.67422 20.1206 2.80854 20.1206 2.97422V5.16932H17.926C17.7603 5.16932 17.626 5.30363 17.626 5.46932V7.02384C17.626 7.18953 17.7603 7.32384 17.926 7.32384H20.1207V9.51854C20.1207 9.68423 20.255 9.81854 20.4207 9.81854H21.9752C22.1409 9.81854 22.2752 9.68423 22.2752 9.51854V7.32384H24.4703Z" fill="url(#paint1_linear_1041_5188)"/>
<path d="M6.01953 22.8477C7.65504 22.8477 8.98138 24.1862 8.98145 25.837C8.98145 27.4861 7.65509 28.8243 6.01953 28.8243C4.38404 28.8242 3.05762 27.4878 3.05762 25.837C3.05768 24.188 4.38408 22.8478 6.01953 22.8477ZM6.01953 24.7784C5.87961 24.7807 5.74168 24.81 5.61328 24.8643C5.48475 24.9188 5.36791 24.9974 5.27051 25.0958C5.17319 25.1941 5.09633 25.3104 5.04492 25.4376C4.99361 25.5646 4.96837 25.7004 4.9707 25.837C4.96835 25.9738 4.99348 26.1101 5.04492 26.2374C5.09636 26.3645 5.17316 26.4809 5.27051 26.5792C5.36787 26.6774 5.48483 26.7552 5.61328 26.8096C5.7417 26.864 5.87958 26.8933 6.01953 26.8956C6.15961 26.8933 6.29823 26.8641 6.42676 26.8096C6.555 26.7553 6.67131 26.6772 6.76855 26.5792C6.86587 26.4809 6.9427 26.3645 6.99414 26.2374C7.04558 26.1101 7.07071 25.9738 7.06836 25.837C7.0707 25.7003 7.04548 25.5647 6.99414 25.4376C6.94271 25.3103 6.86594 25.1941 6.76855 25.0958C6.67122 24.9975 6.55518 24.9188 6.42676 24.8643C6.29823 24.8099 6.15961 24.7806 6.01953 24.7784ZM4.00586 16.4102C10.0126 16.4104 15.021 19.6317 16.1592 23.9083H9.55762C9.50762 23.9083 9.46122 23.8819 9.4375 23.8399C9.10737 23.2535 8.62593 22.761 8.04004 22.4122C7.43122 22.0498 6.73253 21.856 6.01953 21.8516C5.30669 21.856 4.60871 22.0499 4 22.4122C3.414 22.761 2.93173 23.2535 2.60156 23.8399C2.57787 23.8818 2.53226 23.9082 2.48242 23.9083H0.133789C0.0601875 23.9083 5.84687e-05 23.8516 0 23.7813V23.0147C0.000216349 22.9446 0.0602839 22.8878 0.133789 22.8878H1.55664C1.64676 22.8876 1.71098 22.8038 1.68359 22.7217L0.0263672 17.7579C0.0105705 17.7106 0.0250994 17.6586 0.0634766 17.6251L1.16992 16.6573C2.08065 16.4966 3.03016 16.4102 4.00586 16.4102Z" fill="url(#paint2_linear_1041_5188)"/>
<defs>
<linearGradient id="paint0_linear_1041_5188" x1="32.1582" y1="24.0858" x2="13.8562" y2="0.429036" gradientUnits="userSpaceOnUse">
<stop stop-color="#FC4FD0"/>
<stop offset="1" stop-color="#FEA5E8"/>
</linearGradient>
<linearGradient id="paint1_linear_1041_5188" x1="24.7703" y1="4.63473" x2="17.9279" y2="9.9123" gradientUnits="userSpaceOnUse">
<stop stop-color="#FC4FD0"/>
<stop offset="1" stop-color="#FEA5E8"/>
</linearGradient>
<linearGradient id="paint2_linear_1041_5188" x1="16.1592" y1="21.7906" x2="-0.088122" y2="28.4609" gradientUnits="userSpaceOnUse">
<stop stop-color="#FFABEA"/>
<stop offset="1" stop-color="#FD68D8"/>
</linearGradient>
</defs>
</svg>
