<svg width="32" height="32" viewBox="0 0 32 32" fill="none" xmlns="http://www.w3.org/2000/svg">
<rect x="1.65137" y="1.65173" width="28.6964" height="28.6964" rx="3" fill="url(#paint0_linear_1041_6249)"/>
<mask id="mask0_1041_6249" style="mask-type:alpha" maskUnits="userSpaceOnUse" x="1" y="1" width="30" height="30">
<rect x="1.65137" y="1.65173" width="28.6964" height="28.6964" rx="3" fill="url(#paint1_linear_1041_6249)"/>
</mask>
<g mask="url(#mask0_1041_6249)">
<ellipse cx="23.8924" cy="7.72711" rx="11.7026" ry="11.5317" transform="rotate(-33.0036 23.8924 7.72711)" fill="url(#paint2_linear_1041_6249)"/>
</g>
<path d="M15.9937 8.52759C16.6733 8.52759 17.2243 9.07879 17.2245 9.75836V14.7692H22.2413C22.9208 14.7694 23.4721 15.3203 23.4721 15.9999C23.4721 16.6796 22.9208 17.2305 22.2413 17.2307H17.2245V22.2415C17.2243 22.9212 16.6734 23.4723 15.9937 23.4723C15.314 23.4723 14.763 22.9212 14.7629 22.2415V17.2307H9.75811C9.07838 17.2307 8.52734 16.6797 8.52734 15.9999C8.52734 15.3202 9.07838 14.7692 9.75811 14.7692H14.7629V9.75836C14.7631 9.07879 15.3141 8.52759 15.9937 8.52759Z" fill="#E8F2FE"/>
<defs>
<linearGradient id="paint0_linear_1041_6249" x1="28.6951" y1="29.2473" x2="2.95669" y2="1.63087" gradientUnits="userSpaceOnUse">
<stop offset="0.335197" stop-color="#2573FD"/>
<stop offset="1" stop-color="#A1C3FF"/>
</linearGradient>
<linearGradient id="paint1_linear_1041_6249" x1="12.9455" y1="1.58768" x2="33.4213" y2="9.0116" gradientUnits="userSpaceOnUse">
<stop stop-color="#87C1FF"/>
<stop offset="1" stop-color="#6CA1FD" stop-opacity="0.2"/>
</linearGradient>
<linearGradient id="paint2_linear_1041_6249" x1="21.4014" y1="-3.85608" x2="45.407" y2="0.480864" gradientUnits="userSpaceOnUse">
<stop stop-color="#87C1FF"/>
<stop offset="1" stop-color="#6CA1FD" stop-opacity="0.2"/>
</linearGradient>
</defs>
</svg>
