<svg width="32" height="32" viewBox="0 0 32 32" fill="none" xmlns="http://www.w3.org/2000/svg">
<path fill-rule="evenodd" clip-rule="evenodd" d="M23.655 29.8742C27.3736 29.8742 30.3881 26.8597 30.3881 23.1411C30.3881 19.4225 27.3736 16.408 23.655 16.408C19.9364 16.408 16.9219 19.4225 16.9219 23.1411C16.9219 26.8597 19.9364 29.8742 23.655 29.8742Z" fill="url(#paint0_linear_1041_6233)"/>
<path fill-rule="evenodd" clip-rule="evenodd" d="M24.5529 19.9989C24.5529 19.5031 24.1509 19.1012 23.6551 19.1012C23.1593 19.1012 22.7574 19.5031 22.7574 19.9989V22.2432H20.513C20.0172 22.2432 19.6152 22.6452 19.6152 23.141C19.6152 23.6368 20.0172 24.0387 20.513 24.0387H22.7574V26.2832C22.7574 26.779 23.1593 27.181 23.6551 27.181C24.1509 27.181 24.5529 26.779 24.5529 26.2832V24.0387H26.7972C27.2931 24.0387 27.695 23.6368 27.695 23.141C27.695 22.6452 27.2931 22.2432 26.7972 22.2432H24.5529V19.9989Z" fill="#F0F2FE"/>
<path fill-rule="evenodd" clip-rule="evenodd" d="M18.778 14.6759C18.8627 14.3924 18.9476 14.0763 19.0324 13.7277C19.2231 13.6622 19.4033 13.5531 19.573 13.4007C19.7214 13.2697 19.8591 13.0845 19.9864 12.8447C20.1135 12.6049 20.1983 12.278 20.2406 11.8638C20.2831 11.5368 20.2831 11.2642 20.2406 11.0463C20.1983 10.8284 20.1346 10.6539 20.0498 10.5231C19.9651 10.3705 19.8591 10.2397 19.7319 10.1308C19.7532 9.34591 19.7108 8.56123 19.6047 7.77652C19.4987 7.10069 19.3345 6.38142 19.112 5.6184C18.8893 4.85556 18.5343 4.1579 18.0468 3.52578C17.8349 3.24237 17.5593 2.96444 17.2201 2.69208C16.881 2.41957 16.4942 2.17431 16.0596 1.95639C15.6251 1.7383 15.1535 1.56392 14.6447 1.43319C14.136 1.30243 13.6061 1.23694 13.055 1.23694C12.6311 1.23694 12.1859 1.27511 11.7196 1.35139C11.2533 1.42774 10.7869 1.56389 10.3206 1.76014C9.85439 1.95636 9.40389 2.22875 8.96938 2.5776C8.53495 2.92627 8.12684 3.37316 7.74538 3.91825C7.34265 4.48487 7.05113 5.12795 6.87102 5.84737C6.69077 6.56659 6.55835 7.24247 6.47357 7.8745C6.38879 8.61582 6.34626 9.35696 6.34626 10.0981C6.19796 10.2724 6.08139 10.4795 5.99661 10.7193C5.91183 10.9156 5.85342 11.1554 5.82166 11.4388C5.78982 11.7221 5.82691 12.0273 5.93296 12.3542C6.039 12.7031 6.15557 12.9647 6.28272 13.1389C6.40992 13.3133 6.52651 13.4442 6.63256 13.5314C6.75954 13.6186 6.89897 13.6848 7.0458 13.7276C7.10946 14.0763 7.19427 14.3924 7.30012 14.6759C7.38501 14.9156 7.49089 15.1663 7.61806 15.4278C7.74535 15.6895 7.89359 15.8855 8.06329 16.0164C8.36 16.2779 8.64086 16.5395 8.90583 16.8012C9.17087 17.0627 9.32435 17.4224 9.3668 17.8801C9.38801 18.1854 9.39859 18.4688 9.39859 18.7303C9.39859 18.9919 9.3562 19.2427 9.27141 19.4824C9.18663 19.7222 9.03825 19.9565 8.82633 20.1854C8.6144 20.4142 8.30706 20.6595 7.90434 20.9212C7.39559 21.2481 6.80734 21.5042 6.13964 21.6894C5.47193 21.8747 4.83071 22.0764 4.21612 22.2944C3.60133 22.5125 3.06613 22.8121 2.61038 23.1935C2.15471 23.5752 1.87383 24.1255 1.76784 24.8448C1.5983 26.131 1.56646 27.172 1.67251 27.9675C1.77853 28.7631 1.9268 29.2481 2.11757 29.4226C2.22359 29.5098 2.49392 29.6079 2.92829 29.7169C3.36281 29.8258 3.89282 29.9295 4.51804 30.0275C5.14336 30.1256 5.83235 30.2182 6.5847 30.3054C7.34661 30.3935 8.10976 30.4698 8.87391 30.5343C9.64766 30.5997 10.4 30.6542 11.1314 30.6978C11.8626 30.7414 12.5037 30.7632 13.0549 30.7632C14.1359 30.7632 15.0951 30.736 15.9324 30.6814C16.7696 30.6269 17.4743 30.5671 18.0467 30.5016C18.7249 30.4144 19.3184 30.3162 19.8272 30.2073C19.064 29.8149 18.4282 29.4062 17.9195 28.9812C17.4107 28.556 16.9921 28.1201 16.6635 27.6733C16.3351 27.2264 16.0861 26.7903 15.9164 26.3653C15.7469 25.9402 15.6197 25.5314 15.5349 25.1392C15.4077 24.616 15.3229 24.0765 15.2805 23.5206C15.2382 22.9649 15.2647 22.4034 15.3601 21.8367C15.4555 21.2698 15.625 20.6813 15.8688 20.0709C16.1125 19.4606 16.4781 18.8284 16.9658 18.1744C17.114 17.9783 17.22 17.7821 17.2837 17.5859C17.3453 17.3962 17.4036 17.2055 17.4585 17.0137C17.5109 16.8299 17.5746 16.6497 17.6493 16.4742C17.7235 16.2999 17.856 16.1364 18.0468 15.9838C18.1951 15.853 18.3328 15.6622 18.46 15.4115C18.5872 15.1609 18.6932 14.9156 18.778 14.6759Z" fill="url(#paint1_linear_1041_6233)"/>
<mask id="mask0_1041_6233" style="mask-type:alpha" maskUnits="userSpaceOnUse" x="1" y="1" width="20" height="30">
<path fill-rule="evenodd" clip-rule="evenodd" d="M18.778 14.6759C18.8627 14.3924 18.9476 14.0763 19.0324 13.7277C19.2231 13.6622 19.4033 13.5531 19.573 13.4007C19.7214 13.2697 19.8591 13.0845 19.9864 12.8447C20.1135 12.6049 20.1983 12.278 20.2406 11.8638C20.2831 11.5368 20.2831 11.2642 20.2406 11.0463C20.1983 10.8284 20.1346 10.6539 20.0498 10.5231C19.9651 10.3705 19.8591 10.2397 19.7319 10.1308C19.7532 9.34591 19.7108 8.56123 19.6047 7.77652C19.4987 7.10069 19.3345 6.38142 19.112 5.6184C18.8893 4.85556 18.5343 4.1579 18.0468 3.52578C17.8349 3.24237 17.5593 2.96444 17.2201 2.69208C16.881 2.41957 16.4942 2.17431 16.0596 1.95639C15.6251 1.7383 15.1535 1.56392 14.6447 1.43319C14.136 1.30243 13.6061 1.23694 13.055 1.23694C12.6311 1.23694 12.1859 1.27511 11.7196 1.35139C11.2533 1.42774 10.7869 1.56389 10.3206 1.76014C9.85439 1.95636 9.40389 2.22875 8.96938 2.5776C8.53495 2.92627 8.12684 3.37316 7.74538 3.91825C7.34265 4.48487 7.05113 5.12795 6.87102 5.84737C6.69077 6.56659 6.55835 7.24247 6.47357 7.8745C6.38879 8.61582 6.34626 9.35696 6.34626 10.0981C6.19796 10.2724 6.08139 10.4795 5.99661 10.7193C5.91183 10.9156 5.85342 11.1554 5.82166 11.4388C5.78982 11.7221 5.82691 12.0273 5.93296 12.3542C6.039 12.7031 6.15557 12.9647 6.28272 13.1389C6.40992 13.3133 6.52651 13.4442 6.63256 13.5314C6.75954 13.6186 6.89897 13.6848 7.0458 13.7276C7.10946 14.0763 7.19427 14.3924 7.30012 14.6759C7.38501 14.9156 7.49089 15.1663 7.61806 15.4278C7.74535 15.6895 7.89359 15.8855 8.06329 16.0164C8.36 16.2779 8.64086 16.5395 8.90583 16.8012C9.17087 17.0627 9.32435 17.4224 9.3668 17.8801C9.38801 18.1854 9.39859 18.4688 9.39859 18.7303C9.39859 18.9919 9.3562 19.2427 9.27141 19.4824C9.18663 19.7222 9.03825 19.9565 8.82633 20.1854C8.6144 20.4142 8.30706 20.6595 7.90434 20.9212C7.39559 21.2481 6.80734 21.5042 6.13964 21.6894C5.47193 21.8747 4.83071 22.0764 4.21612 22.2944C3.60133 22.5125 3.06613 22.8121 2.61038 23.1935C2.15471 23.5752 1.87383 24.1255 1.76784 24.8448C1.5983 26.131 1.56646 27.172 1.67251 27.9675C1.77853 28.7631 1.9268 29.2481 2.11757 29.4226C2.22359 29.5098 2.49392 29.6079 2.92829 29.7169C3.36281 29.8258 3.89282 29.9295 4.51804 30.0275C5.14336 30.1256 5.83235 30.2182 6.5847 30.3054C7.34661 30.3935 8.10976 30.4698 8.87391 30.5343C9.64766 30.5997 10.4 30.6542 11.1314 30.6978C11.8626 30.7414 12.5037 30.7632 13.0549 30.7632C14.1359 30.7632 15.0951 30.736 15.9324 30.6814C16.7696 30.6269 17.4743 30.5671 18.0467 30.5016C18.7249 30.4144 19.3184 30.3162 19.8272 30.2073C19.064 29.8149 18.4282 29.4062 17.9195 28.9812C17.4107 28.556 16.9921 28.1201 16.6635 27.6733C16.3351 27.2264 16.0861 26.7903 15.9164 26.3653C15.7469 25.9402 15.6197 25.5314 15.5349 25.1392C15.4077 24.616 15.3229 24.0765 15.2805 23.5206C15.2382 22.9649 15.2647 22.4034 15.3601 21.8367C15.4555 21.2698 15.625 20.6813 15.8688 20.0709C16.1125 19.4606 16.4781 18.8284 16.9658 18.1744C17.114 17.9783 17.22 17.7821 17.2837 17.5859C17.3453 17.3962 17.4036 17.2055 17.4585 17.0137C17.5109 16.8299 17.5746 16.6497 17.6493 16.4742C17.7235 16.2999 17.856 16.1364 18.0468 15.9838C18.1951 15.853 18.3328 15.6622 18.46 15.4115C18.5872 15.1609 18.6932 14.9156 18.778 14.6759Z" fill="url(#paint2_linear_1041_6233)"/>
</mask>
<g mask="url(#mask0_1041_6233)">
<ellipse cx="10.7119" cy="9.14016" rx="10.7119" ry="9.14016" transform="matrix(0.501474 0.865173 -0.852554 0.522639 8.87305 13.0345)" fill="url(#paint3_linear_1041_6233)"/>
</g>
<defs>
<linearGradient id="paint0_linear_1041_6233" x1="24.3669" y1="23.8561" x2="19.8335" y2="15.3587" gradientUnits="userSpaceOnUse">
<stop stop-color="#4F5DFC"/>
<stop offset="1" stop-color="#A5ACFE"/>
</linearGradient>
<linearGradient id="paint1_linear_1041_6233" x1="11.9284" y1="17.5678" x2="0.13087" y2="3.59184" gradientUnits="userSpaceOnUse">
<stop stop-color="#4F5DFC"/>
<stop offset="1" stop-color="#A5ACFE"/>
</linearGradient>
<linearGradient id="paint2_linear_1041_6233" x1="6.24059" y1="22.5766" x2="20.0857" y2="11.6922" gradientUnits="userSpaceOnUse">
<stop offset="0.157147" stop-color="#8791FF"/>
<stop offset="1" stop-color="#6C78FD" stop-opacity="0.5"/>
</linearGradient>
<linearGradient id="paint3_linear_1041_6233" x1="5.31461" y1="13.2118" x2="8.12305" y2="-4.99797" gradientUnits="userSpaceOnUse">
<stop offset="0.157147" stop-color="#8791FF"/>
<stop offset="1" stop-color="#6C78FD" stop-opacity="0.5"/>
</linearGradient>
</defs>
</svg>
