<svg width="32" height="32" viewBox="0 0 32 32" fill="none" xmlns="http://www.w3.org/2000/svg">
<path d="M15.8971 0.493896H16.0407C16.8844 0.502219 17.7239 0.615336 18.5398 0.830649C20.2256 1.28252 21.7637 2.16812 23.0008 3.39926C24.238 4.6304 25.131 6.16413 25.5911 7.84774C26.0082 9.39304 26.0475 11.0392 25.7056 12.5999C25.4411 13.8104 24.951 14.9603 24.2612 15.9896C23.9852 16.4155 23.6661 16.8119 23.309 17.1725C20.9894 19.5059 18.6612 21.8324 16.333 24.1623C16.2847 24.2104 16.2272 24.2484 16.164 24.274C16.1008 24.2996 16.0332 24.3123 15.965 24.3113C15.8968 24.3104 15.8295 24.2958 15.7671 24.2684C15.7046 24.2411 15.6483 24.2015 15.6013 24.152C13.3073 21.8512 11.0099 19.5537 8.71757 17.2529C8.57057 17.1024 8.41159 16.9571 8.28339 16.793C7.35706 15.6658 6.68845 14.3495 6.32441 12.9366C5.72327 10.5982 5.99199 8.121 7.08057 5.96585C8.16915 3.8107 10.0035 2.12432 12.2424 1.22039C13.4043 0.751196 14.644 0.504746 15.8971 0.493896ZM15.3859 5.95202C14.8193 6.03096 14.2744 6.22295 13.7834 6.5166C13.2924 6.81024 12.8654 7.19956 12.5278 7.66142C11.9925 8.38433 11.702 9.25931 11.6988 10.1589C11.69 11.0795 11.9789 11.9784 12.5227 12.7214C13.0664 13.4644 13.8357 14.0118 14.7159 14.2819C15.6232 14.5613 16.5976 14.5324 17.4868 14.1999C18.2845 13.8959 18.9735 13.3609 19.4655 12.6633C19.9575 11.9656 20.2302 11.1371 20.2487 10.2836C20.2672 9.43016 20.0308 8.59056 19.5695 7.87222C19.1083 7.15389 18.4432 6.58947 17.6595 6.25116C16.9422 5.94927 16.1569 5.84594 15.3859 5.95202Z" fill="url(#paint0_linear_1041_7008)"/>
<path d="M22.4395 14.2002C23.3584 14.2002 24.2209 14.399 24.9688 14.7451C24.7633 15.1754 24.5273 15.5915 24.2607 15.9893C23.9848 16.4152 23.6657 16.8122 23.3086 17.1729C20.9891 19.506 18.6611 21.8324 16.333 24.1621C16.2847 24.2102 16.2273 24.2488 16.1641 24.2744C16.1009 24.3 16.033 24.3125 15.9648 24.3115C15.8967 24.3106 15.8291 24.2959 15.7666 24.2686C15.7044 24.2413 15.6484 24.2016 15.6016 24.1523C14.3745 22.9216 13.1467 21.6908 11.9189 20.4609C12.3838 18.6124 14.0571 17.2433 16.0498 17.2432C16.5251 17.2432 16.9823 17.3222 17.4092 17.4658C17.9532 15.5932 19.9989 14.2002 22.4395 14.2002Z" fill="url(#paint1_linear_1041_7008)"/>
<path d="M6.49013 22.9402C7.61303 22.546 8.77201 22.2621 9.94304 22.05C10.5776 21.9351 11.2227 22.1588 11.671 22.6223C12.6289 23.6128 13.5857 24.6022 14.5414 25.5949C14.6937 25.7927 14.8852 25.9568 15.104 26.0769C15.3229 26.197 15.5642 26.2704 15.8128 26.2926C16.0614 26.3147 16.3119 26.2851 16.5486 26.2057C16.7852 26.1262 17.0027 25.9985 17.1876 25.8308C18.2095 24.756 19.2474 23.6936 20.278 22.6244C20.7234 22.1622 21.3634 21.9338 21.9952 22.0467C22.944 22.2162 23.8841 22.4402 24.8047 22.7231C25.8508 23.0513 26.8816 23.4581 27.8098 24.0479C28.3294 24.3761 28.8252 24.7778 29.1841 25.2855C29.4559 25.6735 29.6337 26.1436 29.6012 26.6257C29.5722 27.1761 29.2867 27.6821 28.9226 28.0838C28.2713 28.7898 27.42 29.2701 26.5517 29.665C24.8542 30.4137 23.0337 30.8428 21.2081 31.1248C19.9144 31.3149 18.6125 31.4437 17.3023 31.4739C17.2923 31.4741 17.2907 31.4884 17.3004 31.4908C17.3102 31.4933 17.3084 31.5077 17.2983 31.5077H15.326C15.0406 31.4821 14.7568 31.4923 14.473 31.4752C12.2884 31.3829 10.1055 31.1146 7.98928 30.5607C6.87304 30.2599 5.76535 29.8838 4.74142 29.3436C4.14483 29.024 3.57048 28.6513 3.10381 28.1641C2.77389 27.8171 2.49697 27.4034 2.3927 26.9299C2.29693 26.4943 2.35491 26.0388 2.5568 25.6411C2.8303 25.0872 3.29013 24.653 3.78244 24.2906C4.60295 23.6975 5.53971 23.2821 6.49013 22.9402Z" fill="url(#paint2_linear_1041_7008)"/>
<circle cx="15.9733" cy="10.1794" r="4.28093" fill="#FEF0FB"/>
<defs>
<linearGradient id="paint0_linear_1041_7008" x1="15.9733" y1="0.493896" x2="15.9733" y2="19.1048" gradientUnits="userSpaceOnUse">
<stop stop-color="#FFA8E9"/>
<stop offset="1" stop-color="#FC56D2"/>
</linearGradient>
<linearGradient id="paint1_linear_1041_7008" x1="23.5109" y1="18.8386" x2="10.9681" y2="21.4707" gradientUnits="userSpaceOnUse">
<stop stop-color="#FFABEA"/>
<stop offset="1" stop-color="#FC57D2"/>
</linearGradient>
<linearGradient id="paint2_linear_1041_7008" x1="29.6051" y1="28.8668" x2="22.3919" y2="13.1093" gradientUnits="userSpaceOnUse">
<stop stop-color="#FC4FD0"/>
<stop offset="1" stop-color="#FEA5E8"/>
</linearGradient>
</defs>
</svg>
