<svg width="32" height="32" viewBox="0 0 32 32" fill="none" xmlns="http://www.w3.org/2000/svg">
<path fill-rule="evenodd" clip-rule="evenodd" d="M15.173 1.55715C15.3476 1.47349 15.4349 1.43166 15.5225 1.40225C15.8322 1.29834 16.1673 1.29834 16.4769 1.40225C16.5645 1.43166 16.6518 1.47349 16.8264 1.55715C20.1838 3.16588 23.6167 4.61108 27.1132 5.88777C27.7008 6.10233 27.9946 6.20961 28.2041 6.392C28.3914 6.55507 28.5308 6.75434 28.6197 6.98623C28.7192 7.24558 28.7192 7.55238 28.7192 8.16597V17.5287C28.7192 19.542 28.0027 21.4897 26.6998 23.0246C24.3208 25.8191 21.0978 28.2541 17.031 30.3298C16.6711 30.5134 16.4912 30.6053 16.2812 30.6454C16.1052 30.679 15.8943 30.679 15.7182 30.6454C15.5083 30.6053 15.3283 30.5134 14.9684 30.3297C10.9016 28.2541 7.67869 25.8191 5.29963 23.0246C3.99674 21.4897 3.28027 19.542 3.28027 17.5287V8.16597C3.28027 7.55238 3.28027 7.24558 3.37974 6.98623C3.46867 6.75434 3.60805 6.55507 3.79537 6.392C4.00487 6.20961 4.29868 6.10233 4.88629 5.88777C8.38271 4.61108 11.8156 3.16588 15.173 1.55715Z" fill="url(#paint0_linear_1041_6781)"/>
<mask id="mask0_1041_6781" style="mask-type:alpha" maskUnits="userSpaceOnUse" x="3" y="1" width="26" height="30">
<path fill-rule="evenodd" clip-rule="evenodd" d="M15.9997 1.16101L16.8264 1.55715C20.6964 3.41152 24.6668 5.04861 28.7192 6.46078V17.5287C28.7192 19.542 28.0027 21.4897 26.6998 23.0246C24.1231 26.0513 20.5564 28.6563 15.9997 30.8397C11.4431 28.6563 7.87637 26.0513 5.29963 23.0246C3.99674 21.4897 3.28027 19.542 3.28027 17.5287V6.46078C7.3326 5.04861 11.303 3.41152 15.173 1.55715L15.9997 1.16101Z" fill="url(#paint1_linear_1041_6781)" fill-opacity="0.6"/>
</mask>
<g mask="url(#mask0_1041_6781)">
<path d="M24.3086 19.9655C28.3859 19.9655 31.6911 22.6869 31.6914 26.0446C31.6914 29.4025 28.386 32.1246 24.3086 32.1246C23.6263 32.1246 22.9661 32.0466 22.3389 31.9039C22.339 31.92 22.3408 31.9366 22.3408 31.9528C22.3406 35.3104 19.6184 38.0317 16.2607 38.0319C12.903 38.0319 10.1809 35.3104 10.1807 31.9528C10.1807 28.5949 12.9028 25.8727 16.2607 25.8727C16.4869 25.8727 16.71 25.8857 16.9297 25.9098C17.017 22.6144 20.2861 19.9655 24.3086 19.9655Z" fill="url(#paint2_linear_1041_6781)" fill-opacity="0.6"/>
</g>
<mask id="mask1_1041_6781" style="mask-type:alpha" maskUnits="userSpaceOnUse" x="3" y="1" width="26" height="30">
<path fill-rule="evenodd" clip-rule="evenodd" d="M15.3083 1.4923C15.5623 1.37063 15.6892 1.30979 15.8219 1.28582C15.9395 1.26457 16.0599 1.26457 16.1775 1.28582C16.3102 1.30979 16.4372 1.37063 16.6911 1.4923L16.8264 1.55715C20.3547 3.24777 23.9664 4.75778 27.6475 6.08141C28.0375 6.22163 28.2325 6.29174 28.3732 6.41335C28.4984 6.52163 28.5928 6.65588 28.6523 6.81038C28.7192 6.9839 28.7192 7.18846 28.7192 7.59758V17.5287C28.7192 19.542 28.0027 21.4897 26.6998 23.0246C24.2544 25.897 20.9174 28.3897 16.6888 30.5026C16.444 30.6249 16.3215 30.6861 16.184 30.7119C16.0666 30.7339 15.9329 30.7339 15.8154 30.7119C15.6779 30.6861 15.5555 30.6249 15.3106 30.5026C11.082 28.3897 7.74503 25.897 5.29963 23.0246C3.99674 21.4897 3.28027 19.542 3.28027 17.5287V7.59757C3.28027 7.18846 3.28027 6.9839 3.34711 6.81038C3.40663 6.65588 3.50102 6.52163 3.62627 6.41335C3.76694 6.29174 3.96192 6.22163 4.35189 6.08141C8.03305 4.75778 11.6448 3.24777 15.173 1.55715L15.3083 1.4923Z" fill="url(#paint3_linear_1041_6781)"/>
</mask>
<g mask="url(#mask1_1041_6781)">
<path d="M6.77927 -3.31603C14.453 -2.90401 20.4212 2.13951 20.1093 7.94862C19.7973 13.7576 13.323 18.1331 5.64938 17.7211C-2.02423 17.309 -7.99158 12.2655 -7.67972 6.45643C-7.36784 0.647299 -0.894522 -3.72801 6.77927 -3.31603Z" fill="url(#paint4_linear_1041_6781)" fill-opacity="0.8"/>
</g>
<path d="M20.5432 10.6848C20.9517 10.2763 21.6142 10.2763 22.0228 10.6848C22.4308 11.0933 22.4308 11.7547 22.0228 12.1632L14.9795 19.2077C14.5711 19.6161 13.9085 19.6158 13.4999 19.2077L9.97829 15.686C9.56974 15.2775 9.56974 14.615 9.97829 14.2065C10.3868 13.798 11.0481 13.798 11.4567 14.2065L14.2391 16.9877L20.5432 10.6848Z" fill="#FEFAF0"/>
<defs>
<linearGradient id="paint0_linear_1041_6781" x1="3.28027" y1="3.8117" x2="33.5336" y2="17.7067" gradientUnits="userSpaceOnUse">
<stop stop-color="#FCC330"/>
<stop offset="1" stop-color="#FF8F0B"/>
</linearGradient>
<linearGradient id="paint1_linear_1041_6781" x1="-0.0391436" y1="26.4639" x2="32.2749" y2="21.0485" gradientUnits="userSpaceOnUse">
<stop stop-color="#FFEFB3"/>
<stop offset="1" stop-color="#FFD25E"/>
</linearGradient>
<linearGradient id="paint2_linear_1041_6781" x1="7.37382" y1="35.3681" x2="34.0214" y2="29.1648" gradientUnits="userSpaceOnUse">
<stop stop-color="#FFEFB3"/>
<stop offset="1" stop-color="#FFD25E"/>
</linearGradient>
<linearGradient id="paint3_linear_1041_6781" x1="27.306" y1="25.484" x2="1.97536" y2="3.93128" gradientUnits="userSpaceOnUse">
<stop stop-color="#4F5DFC"/>
<stop offset="1" stop-color="#A5ACFE"/>
</linearGradient>
<linearGradient id="paint4_linear_1041_6781" x1="-11.3205" y1="14.6383" x2="6.15633" y2="13.6556" gradientUnits="userSpaceOnUse">
<stop stop-color="#FFEFB3"/>
<stop offset="1" stop-color="#FFC839"/>
</linearGradient>
</defs>
</svg>
