<svg width="32" height="32" viewBox="0 0 32 32" fill="none" xmlns="http://www.w3.org/2000/svg">
<g clip-path="url(#clip0_1041_6976)">
<path d="M22.0295 8.40286C22.0221 7.20255 21.75 6.01866 21.2326 4.93555C20.7152 3.85245 19.9653 2.8968 19.0363 2.13672L18.0006 6.90106L16.7991 6.65248L17.9073 1.38064C16.6527 0.638912 15.2219 0.24762 13.7644 0.24762C12.3069 0.24762 10.8762 0.638912 9.62154 1.38064L10.7194 6.55927L9.51796 6.80784L8.58581 2.13672C7.67891 2.89876 6.94948 3.84976 6.44855 4.92318C5.94762 5.9966 5.68729 7.16652 5.68578 8.35107H4.19434V10.4225H6.10007C6.20291 12.4133 7.06618 14.2887 8.51167 15.6614C9.95717 17.0342 11.8745 17.7996 13.868 17.7996C15.8615 17.7996 17.7789 17.0342 19.2243 15.6614C20.6698 14.2887 21.5331 12.4133 21.636 10.4225H23.521V8.40286H22.0295ZM13.8577 16.4815C12.2488 16.4815 10.7055 15.8438 9.56596 14.7081C8.42639 13.5725 7.78343 12.0314 7.77795 10.4225H19.9374C19.9319 12.0314 19.2889 13.5725 18.1493 14.7081C17.0098 15.8438 15.4665 16.4815 13.8577 16.4815Z" fill="url(#paint0_linear_1041_6976)"/>
<path d="M14.9662 24.7466L14.7694 21.0698H15.0905L15.567 18.6876H12.1491L12.6255 21.0698H12.9466L12.7498 24.7466C11.9175 22.2542 10.8203 19.8584 9.47689 17.6001C1.5018 18.6358 0 22.8512 0 27.9574H19.1298C18.839 27.1751 18.6882 26.3476 18.6845 25.513C18.6829 24.1048 19.1047 22.7286 19.8952 21.5632C20.6857 20.3977 21.8084 19.4969 23.1174 18.9776C21.5779 18.2594 19.929 17.8043 18.2391 17.6312C16.8977 19.8796 15.8005 22.2649 14.9662 24.7466Z" fill="url(#paint1_linear_1041_6976)"/>
<path d="M5.8877 18.416C7.83314 19.9247 9.08681 22.2831 9.08691 24.9355C9.08691 26.0027 8.88164 27.0219 8.5127 27.958H0C0 23.7371 1.02701 20.1267 5.8877 18.416Z" fill="url(#paint2_linear_1041_6976)"/>
<path d="M25.7171 19.1951C24.4733 19.1931 23.2568 19.5601 22.2215 20.2496C21.1863 20.9392 20.3789 21.9203 19.9015 23.0689C19.424 24.2175 19.2981 25.4819 19.5395 26.7021C19.7809 27.9223 20.3788 29.0435 21.2576 29.9238C22.1365 30.8041 23.2566 31.4039 24.4765 31.6473C25.6963 31.8907 26.9609 31.7668 28.1103 31.2913C29.2596 30.8157 30.2421 30.0099 30.9334 28.9759C31.6247 27.9418 31.9936 26.7259 31.9936 25.482C31.9936 23.8164 31.3327 22.2189 30.1559 21.0402C28.9791 19.8615 27.3827 19.1979 25.7171 19.1951ZM29.6115 21.4737C29.4385 22.4934 29.1139 23.4814 28.6482 24.4048C29.0857 25.5294 29.4085 26.6954 29.6115 27.8849H28.2961C28.157 26.7032 27.9037 25.5377 27.54 24.4048C27.8983 23.4583 28.1518 22.4754 28.2961 21.4737H29.6115ZM27.7886 21.4737C27.6141 22.4944 27.2858 23.4826 26.815 24.4048C27.2413 25.5392 27.5873 26.7021 27.8507 27.8849H26.5043C26.3445 26.704 26.0811 25.5395 25.7171 24.4048C26.1195 23.4735 26.3712 22.4841 26.4629 21.4737H27.7886ZM24.6814 21.4737H26.0071C25.8275 22.4877 25.5141 23.4734 25.075 24.4048C25.4934 25.5357 25.8157 26.6998 26.0382 27.8849H24.6814C24.5166 26.7049 24.2533 25.5408 23.8943 24.4048C24.2486 23.4578 24.4986 22.475 24.64 21.4737H24.6814ZM23.1485 21.4737C23.3977 22.0496 23.5852 22.6502 23.7078 23.2655H22.2475C22.1356 22.6535 21.9657 22.0535 21.7399 21.4737H23.1485ZM29.6943 29.3452H24.5157C24.2497 29.367 23.9822 29.3269 23.7342 29.2281C23.4862 29.1293 23.2645 28.9744 23.0864 28.7756C22.6544 29.2007 22.0766 29.4452 21.4707 29.4592V28.672C21.669 28.6184 21.8407 28.4939 21.9534 28.3221C22.066 28.1503 22.1117 27.9431 22.0817 27.7399V24.9227H21.4707V23.887H23.6146V27.2531C23.5985 27.3984 23.6134 27.5454 23.6582 27.6845C23.703 27.8236 23.7767 27.9517 23.8745 28.0603C23.9724 28.1689 24.0921 28.2555 24.2258 28.3145C24.3595 28.3736 24.5042 28.4036 24.6503 28.4027H29.6633L29.6943 29.3452Z" fill="url(#paint3_linear_1041_6976)"/>
</g>
<defs>
<linearGradient id="paint0_linear_1041_6976" x1="18.6446" y1="13.533" x2="6.90584" y2="-4.75865" gradientUnits="userSpaceOnUse">
<stop stop-color="#2573FD"/>
<stop offset="1" stop-color="#A1C3FF"/>
</linearGradient>
<linearGradient id="paint1_linear_1041_6976" x1="13.8216" y1="23.2145" x2="9.10715" y2="11.3003" gradientUnits="userSpaceOnUse">
<stop stop-color="#2573FD"/>
<stop offset="1" stop-color="#A1C3FF"/>
</linearGradient>
<linearGradient id="paint2_linear_1041_6976" x1="10.5221" y1="22.095" x2="6.09685" y2="29.5329" gradientUnits="userSpaceOnUse">
<stop offset="0.0277979" stop-color="#87C1FF"/>
<stop offset="1" stop-color="#6CA1FD" stop-opacity="0.2"/>
</linearGradient>
<linearGradient id="paint3_linear_1041_6976" x1="38.6234" y1="33.7601" x2="21.8998" y2="18.4978" gradientUnits="userSpaceOnUse">
<stop stop-color="#A1C3FF"/>
<stop offset="0.722802" stop-color="#2573FD"/>
</linearGradient>
<clipPath id="clip0_1041_6976">
<rect width="32" height="32" fill="white"/>
</clipPath>
</defs>
</svg>
