<svg width="32" height="32" viewBox="0 0 32 32" fill="none" xmlns="http://www.w3.org/2000/svg">
<path d="M1.43359 7.01538H27.5196C29.2017 7.01538 30.5667 8.38041 30.5667 10.0625V26.6685C30.5667 28.3506 29.2017 29.7156 27.5196 29.7156H4.48072C2.79862 29.7156 1.43359 28.3506 1.43359 26.6685V7.01538Z" fill="url(#paint0_linear_1041_7051)"/>
<path d="M3.14794 2.28442H16.1938C16.5646 2.28442 16.9247 2.40265 17.2203 2.62837L20.1922 5.55906H1.43366L1.43359 3.99877C1.43359 3.05292 2.20209 2.28442 3.14794 2.28442Z" fill="url(#paint1_linear_1041_7051)"/>
<path d="M27.5194 7.01562C29.2015 7.01562 30.5663 8.38043 30.5663 10.0625V16.4707C26.7598 17.6814 22.6522 15.6644 21.3046 11.8721C20.7246 10.2396 20.7505 8.53964 21.2626 7.01562H27.5194Z" fill="url(#paint2_linear_1041_7051)"/>
<path fill-rule="evenodd" clip-rule="evenodd" d="M15.5355 11.9177C18.6832 11.9177 21.2358 14.4696 21.2362 17.6172L21.2278 17.9105C21.1738 18.9759 20.8265 19.9639 20.2662 20.7963L22.2879 22.818C22.648 23.1785 22.6482 23.7629 22.2879 24.1233C21.9275 24.4833 21.343 24.4833 20.9826 24.1233L19.0006 22.1413C18.0401 22.8784 16.8397 23.318 15.5355 23.318L15.2422 23.3096C12.2307 23.1567 9.83594 20.6667 9.83594 17.6172C9.83635 14.4698 12.3879 11.9179 15.5355 11.9177ZM15.5355 13.7639C13.4075 13.7641 11.6825 15.4894 11.6821 17.6172C11.6821 19.7455 13.4073 21.4716 15.5355 21.4718C17.6638 21.4718 19.39 19.7456 19.39 17.6172C19.3896 15.4892 17.6636 13.7639 15.5355 13.7639Z" fill="white"/>
<defs>
<linearGradient id="paint0_linear_1041_7051" x1="19.6488" y1="13.2334" x2="3.21034" y2="1.39036" gradientUnits="userSpaceOnUse">
<stop stop-color="#00AFD1"/>
<stop offset="1" stop-color="#A1EFFF"/>
</linearGradient>
<linearGradient id="paint1_linear_1041_7051" x1="16.3026" y1="3.04077" x2="16.1708" y2="6.17847" gradientUnits="userSpaceOnUse">
<stop stop-color="#A1EFFF"/>
<stop offset="1" stop-color="#00AFD1"/>
</linearGradient>
<linearGradient id="paint2_linear_1041_7051" x1="29.4034" y1="7.67562" x2="23.4321" y2="13.4651" gradientUnits="userSpaceOnUse">
<stop stop-color="#00B4D8"/>
<stop offset="1" stop-color="#1FDAFF"/>
</linearGradient>
</defs>
</svg>
