<svg width="32" height="32" viewBox="0 0 32 32" fill="none" xmlns="http://www.w3.org/2000/svg">
<path d="M27.6677 24.0135C28.5507 24.0135 29.3583 24.3834 29.9372 24.9686C29.9521 24.9846 29.9671 24.9852 29.9675 24.9998C30.5312 25.5849 30.8794 26.3886 30.8796 27.2508C30.8796 28.1451 30.5147 28.9632 29.9372 29.5496C29.9221 29.5648 29.9067 29.579 29.8904 29.5955C29.3127 30.1499 28.5355 30.5047 27.6677 30.5047H15.9616C15.0799 30.5047 14.2721 30.1349 13.6931 29.5496C13.6781 29.5332 13.663 29.5177 13.6628 29.5037C13.1004 28.9172 12.7497 28.1297 12.7497 27.2508C12.7499 26.358 13.1158 25.5548 13.6931 24.9686C14.272 24.3834 15.08 24.0135 15.9616 24.0135H27.6677ZM17.112 26.0008C16.504 26.001 16.0008 26.5257 16.0007 27.1571C16.0009 27.8036 16.504 28.3132 17.112 28.3133C17.7337 28.3132 18.2232 27.8036 18.2234 27.1571C18.2232 26.5257 17.7337 26.0009 17.112 26.0008ZM20.4021 26.0008C19.7806 26.001 19.2909 26.5258 19.2907 27.1571C19.2908 27.8036 19.7806 28.3131 20.4021 28.3133C21.0102 28.3132 21.5153 27.8037 21.5154 27.1571C21.5152 26.5257 21.0101 26.0009 20.4021 26.0008ZM23.6775 26.0008C23.072 26.0011 22.5663 26.5259 22.5661 27.1571C22.5662 27.8036 23.072 28.313 23.6775 28.3133C24.3016 28.3132 24.7907 27.8037 24.7907 27.1571C24.7906 26.5257 24.3016 26.0009 23.6775 26.0008ZM26.862 26.0057C26.2419 26.0636 25.8046 26.632 25.863 27.2606C25.9233 27.9042 26.4567 28.3662 27.0769 28.3084C27.6835 28.2518 28.1378 27.6974 28.0779 27.0535C28.019 26.425 27.4686 25.9493 26.862 26.0057ZM3.14621 16.9041C3.46415 16.6886 3.88962 16.7821 4.0886 17.1053L5.92942 19.9578C6.00655 20.0489 6.03844 20.1581 6.05246 20.2645C6.26525 21.7004 6.73773 22.6554 7.49778 23.3035C8.2895 23.9824 9.43219 24.3825 10.9079 24.7059C11.0611 24.7368 11.2127 24.8145 11.3191 24.953C11.5471 25.2468 11.5014 25.6949 11.2126 25.9246C8.44221 28.1932 5.54867 28.3458 3.40403 27.3602C2.59597 26.974 1.88033 26.4332 1.34836 25.7557C0.784713 25.0923 0.38792 24.2901 0.20676 23.4266C-0.355403 20.6984 1.12041 18.6767 3.05344 16.9803C3.08375 16.9496 3.11464 16.9194 3.14621 16.9041ZM21.5642 9.56233C23.1326 9.54697 24.8671 9.53282 26.1618 9.56233H26.1921C26.5721 9.56233 26.8922 9.85657 26.8923 10.242C26.9226 11.1358 26.9075 12.0464 26.8923 12.9569C26.8923 13.6188 26.8759 14.2833 26.8923 14.9305H29.4343C30.6984 14.9307 31.4583 16.0568 31.7624 17.4901C31.8549 17.9827 31.9157 18.508 31.9157 19.0467C31.9157 19.587 31.8545 20.1265 31.7468 20.6219C31.444 22.0999 30.6679 23.2555 29.4343 23.2557C24.7624 23.2557 20.0267 23.334 15.3523 23.2557C15.1255 23.2557 14.911 23.1492 14.7741 22.949L10.7253 16.6727C10.2389 15.9015 9.9184 15.438 9.73606 15.3455C9.6907 15.3165 9.72035 15.4703 9.55246 15.6854C8.95959 16.4105 8.3956 17.1195 7.84836 17.828C7.60523 18.1383 7.36206 18.4463 7.04172 18.8631C6.99619 18.9234 6.93375 18.9864 6.8591 19.0467C6.55505 19.2636 6.12791 19.2016 5.91379 18.8924C5.4442 18.2308 5.17044 17.7676 4.91086 17.3045C4.74373 17.0134 4.59159 16.7341 4.37766 16.411C4.19536 16.1478 4.21008 15.7931 4.40891 15.5467L7.94114 11.3983C8.57938 10.6434 9.17329 10.2258 9.79758 10.1795C10.4817 10.1192 11.0916 10.4881 11.7009 11.3055C12.233 12.0459 13.0231 13.1408 13.7995 14.2508C14.3164 14.9758 14.821 15.7002 15.2771 16.3328C15.4759 15.9787 15.6725 15.6229 15.8864 15.2547C16.8757 13.4802 18.0476 11.4134 18.947 9.94905C19.0521 9.71831 19.2801 9.56253 19.5534 9.56233H21.5642ZM20.8601 11.5731C20.5496 11.5731 20.2719 11.7442 20.1511 11.991L18.2693 14.9666C18.0621 15.3063 18.1814 15.7222 18.5622 15.9071C18.6829 15.9686 18.8208 15.9998 18.9431 15.9998H24.3689C24.8002 15.9998 25.1452 15.6915 25.1452 15.3065V12.2674C25.1451 11.898 24.8002 11.5731 24.3689 11.5731H20.8601Z" fill="url(#paint0_linear_1041_5164)"/>
<path d="M5.92676 19.9599C6.00398 20.0511 6.03581 20.1601 6.0498 20.2665C6.26261 21.7022 6.73496 22.6567 7.49512 23.3046C8.28687 23.9833 9.42943 24.3837 10.9053 24.707C11.0585 24.7379 11.211 24.8145 11.3174 24.9531C11.5454 25.2468 11.4996 25.6951 11.2109 25.9247C9.19728 27.5734 7.11846 28.1037 5.30957 27.8925C3.98465 27.0876 3.0909 25.5718 3.09082 23.8329C3.09082 21.9377 4.15209 20.3066 5.67676 19.5732L5.92676 19.9599Z" fill="url(#paint1_linear_1041_5164)"/>
<path d="M21.4191 9.44835C21.0921 9.44835 19.0645 7.87085 19.0645 6.57042C19.0645 5.27 20.1187 4.21576 21.4191 4.21576C22.7195 4.21576 23.7738 5.27 23.7738 6.57042C23.7738 7.87085 21.7462 9.44835 21.4191 9.44835ZM21.4191 7.28991C21.8165 7.28991 22.1386 6.96777 22.1386 6.57042C22.1386 6.17308 21.8165 5.85094 21.4191 5.85094C21.0218 5.85094 20.6996 6.17308 20.6996 6.57042C20.6996 6.96777 21.0218 7.28991 21.4191 7.28991Z" fill="url(#paint2_linear_1041_5164)"/>
<defs>
<linearGradient id="paint0_linear_1041_5164" x1="24.7411" y1="20.028" x2="7.78338" y2="2.83129" gradientUnits="userSpaceOnUse">
<stop stop-color="#4F5DFC"/>
<stop offset="1" stop-color="#A5ACFE"/>
</linearGradient>
<linearGradient id="paint1_linear_1041_5164" x1="9.04359" y1="24.1117" x2="3.15679" y2="21.1295" gradientUnits="userSpaceOnUse">
<stop stop-color="#8791FF"/>
<stop offset="1" stop-color="#6C78FD"/>
</linearGradient>
<linearGradient id="paint2_linear_1041_5164" x1="22.7124" y1="6.83267" x2="18.9736" y2="4.58579" gradientUnits="userSpaceOnUse">
<stop stop-color="#4F5DFC"/>
<stop offset="1" stop-color="#A5ACFE"/>
</linearGradient>
</defs>
</svg>
