<svg width="32" height="32" viewBox="0 0 32 32" fill="none" xmlns="http://www.w3.org/2000/svg">
<path d="M11.1608 6.35724H20.8391C21.5053 6.35724 22.049 5.81381 22.049 5.1476V2.72807H18.4196V2.28269C18.4196 1.86183 18.076 1.51819 17.6551 1.51819H14.3449C13.924 1.51819 13.5803 1.86183 13.5803 2.28269V2.72807H9.95117V5.1476C9.95117 5.81039 10.4946 6.35724 11.1608 6.35724Z" fill="url(#paint0_linear_1041_6201)"/>
<path d="M25.8142 2.69202H23.5268V6.68749C23.5268 7.63097 22.7555 8.40233 21.812 8.40233H10.1912C9.24774 8.40233 8.47638 7.63097 8.47638 6.68749V2.69202H6.18907C4.93445 2.69202 3.9082 3.71804 3.9082 4.97271V28.201C3.9082 29.4556 4.93445 30.4818 6.18907 30.4818L25.8109 30.4818C27.0655 30.4818 28.0918 29.4556 28.0918 28.201V4.97271C28.095 3.71807 27.0687 2.69202 25.8142 2.69202Z" fill="url(#paint1_linear_1041_6201)"/>
<path d="M18.7725 24.5549C22.197 22.3395 25.886 21.6395 28.0918 22.5793V28.2004C28.0918 29.455 27.0652 30.4817 25.8105 30.4817H13.5146C14.2673 28.4632 16.1445 26.255 18.7725 24.5549Z" fill="url(#paint2_linear_1041_6201)"/>
<path d="M18.3609 11.6923H21.0801C20.2214 12.6796 19.1003 13.4797 17.7169 14.0925H19.148L19.792 13.5818L21.7956 13.9904L21.0801 14.7564V20.0166H19.0765V19.5569H17.0729V20.7826H22.1534V21.6508H17.0729V24H14.9978V21.6508H9.8457V20.7826H14.9978V19.5569H13.0657V20.0676H10.9906V13.7861H13.0657V14.0925H16.7151C17.5261 13.2414 18.0747 12.4413 18.3609 11.6923ZM10.919 11.6923C13.3997 11.7944 14.8546 12.203 15.284 12.9179C15.4748 13.2924 15.3794 13.5988 14.9978 13.8372C14.5207 14.0755 14.0914 14.0585 13.7097 13.7861C12.8988 12.969 11.9685 12.3221 10.919 11.8455V11.6923ZM17.0729 14.9607V16.3906H19.0765V14.9607H17.0729ZM14.9978 14.9607H13.0657V16.3906H14.9978V14.9607ZM13.0657 17.2588V18.6887H14.9978V17.2588H13.0657ZM19.0765 17.2588H17.0729V18.6887H19.0765V17.2588Z" fill="#EEFDF8"/>
<defs>
<linearGradient id="paint0_linear_1041_6201" x1="16.0001" y1="7.217" x2="16.9051" y2="1.57185" gradientUnits="userSpaceOnUse">
<stop stop-color="#00D14D"/>
<stop offset="1" stop-color="#A1FFC3"/>
</linearGradient>
<linearGradient id="paint1_linear_1041_6201" x1="16" y1="31.4091" x2="2.58196" y2="2.09967" gradientUnits="userSpaceOnUse">
<stop stop-color="#00D14D"/>
<stop offset="1" stop-color="#A1FFC3"/>
</linearGradient>
<linearGradient id="paint2_linear_1041_6201" x1="28.0918" y1="27.5283" x2="16.1014" y2="30.2317" gradientUnits="userSpaceOnUse">
<stop stop-color="#89FFB4"/>
<stop offset="1" stop-color="#45E580"/>
</linearGradient>
</defs>
</svg>
