<svg width="32" height="32" viewBox="0 0 32 32" fill="none" xmlns="http://www.w3.org/2000/svg">
<rect x="3.42871" y="2.28577" width="25.1429" height="27.4286" rx="3" fill="url(#paint0_linear_1041_6411)"/>
<path d="M22.2852 18.2861C24.6822 18.2862 26.8762 19.0023 28.5703 20.1875V26.7139C28.5703 28.3707 27.2272 29.7139 25.5703 29.7139H6.42773C5.09578 29.7139 3.96782 28.8458 3.57617 27.6445C5.00279 25.4514 7.47386 24.0001 10.2852 24C11.1782 24 12.0369 24.148 12.8389 24.418C13.8606 20.901 17.7015 18.2863 22.2852 18.2861Z" fill="url(#paint1_linear_1041_6411)"/>
<rect x="6.85742" y="8" width="12.5714" height="2.85714" rx="1.42857" fill="#E8F2FE" fill-opacity="0.9"/>
<rect x="6.85742" y="13.7142" width="6.85714" height="2.85714" rx="1.42857" fill="#E8F2FE" fill-opacity="0.9"/>
<defs>
<linearGradient id="paint0_linear_1041_6411" x1="23.4287" y1="16.0001" x2="3.42871" y2="3.42863" gradientUnits="userSpaceOnUse">
<stop stop-color="#387FFC"/>
<stop offset="1" stop-color="#A5C7FE"/>
</linearGradient>
<linearGradient id="paint1_linear_1041_6411" x1="29.7605" y1="28.1555" x2="3.57617" y2="28.1555" gradientUnits="userSpaceOnUse">
<stop stop-color="#87C1FF"/>
<stop offset="1" stop-color="#6CA1FD"/>
</linearGradient>
</defs>
</svg>
