<svg width="32" height="32" viewBox="0 0 32 32" fill="none" xmlns="http://www.w3.org/2000/svg">
<path d="M10.2862 10.8053C11.4338 10.8053 12.3641 11.7356 12.3641 12.8832V21.1948C12.3641 22.3424 11.4338 23.2727 10.2862 23.2727H9.24726V29.7453C9.24726 30.0253 9.24726 30.1653 9.19276 30.2723C9.14482 30.3664 9.06833 30.4429 8.97425 30.4908C8.8673 30.5453 8.72728 30.5453 8.44726 30.5453H5.89146C5.61143 30.5453 5.47142 30.5453 5.36446 30.4908C5.27038 30.4429 5.19389 30.3664 5.14596 30.2723C5.09146 30.1653 5.09146 30.0253 5.09146 29.7453V23.2727H4.05251C2.90492 23.2727 1.97461 22.3424 1.97461 21.1948V12.8832C1.97461 11.7356 2.90492 10.8053 4.05251 10.8053H10.2862Z" fill="url(#paint0_linear_1041_4954)"/>
<path d="M7.16936 1.45471C9.46454 1.45471 11.3252 3.31533 11.3252 5.61051C11.3252 7.9057 9.46454 9.76631 7.16936 9.76631C4.87417 9.76631 3.01356 7.9057 3.01356 5.61051C3.01356 3.31533 4.87417 1.45471 7.16936 1.45471Z" fill="url(#paint1_linear_1041_4954)"/>
<mask id="mask0_1041_4954" style="mask-type:alpha" maskUnits="userSpaceOnUse" x="1" y="1" width="12" height="30">
<path d="M10.2862 10.8053C11.4338 10.8053 12.3641 11.7356 12.3641 12.8832V21.1948C12.3641 22.3424 11.4338 23.2727 10.2862 23.2727H9.24726V30.5453H5.09146V23.2727H4.05251C2.90492 23.2727 1.97461 22.3424 1.97461 21.1948V12.8832C1.97461 11.7356 2.90492 10.8053 4.05251 10.8053H10.2862Z" fill="url(#paint2_linear_1041_4954)"/>
<path d="M7.16936 1.45471C9.46454 1.45471 11.3252 3.31533 11.3252 5.61051C11.3252 7.9057 9.46454 9.76631 7.16936 9.76631C4.87417 9.76631 3.01356 7.9057 3.01356 5.61051C3.01356 3.31533 4.87417 1.45471 7.16936 1.45471Z" fill="url(#paint3_linear_1041_4954)"/>
</mask>
<g mask="url(#mask0_1041_4954)">
<ellipse cx="-2.61759" cy="24.8121" rx="13.4967" ry="8.55813" transform="rotate(18.1112 -2.61759 24.8121)" fill="url(#paint4_linear_1041_4954)"/>
</g>
<path fill-rule="evenodd" clip-rule="evenodd" d="M27.9484 7.68842C29.096 7.68842 30.0263 8.61872 30.0263 9.76632V18.0779C30.0263 19.2255 29.096 20.1558 27.9484 20.1558H24.8315V27.4285C24.8315 28.0023 24.3664 28.4674 23.7926 28.4674C23.2188 28.4674 22.7536 28.0023 22.7536 27.4285V20.1558H18.5978V27.4285C18.5978 28.0023 18.1327 28.4674 17.5589 28.4674C16.9851 28.4674 16.5199 28.0023 16.5199 27.4285V20.1558H13.4031V11.8442C13.4031 10.6966 12.4728 9.76632 11.3252 9.76632C11.3252 8.61872 12.2555 7.68842 13.4031 7.68842H27.9484Z" fill="url(#paint5_linear_1041_4954)"/>
<path d="M19.1141 11.9428C19.3622 11.9427 19.6002 12.0421 19.7739 12.2193L22.2763 14.7733L24.1237 12.9272C24.4841 12.5667 25.0685 12.5668 25.429 12.9272C25.7894 13.2877 25.7894 13.872 25.429 14.2325L22.923 16.7385C22.7487 16.9127 22.5119 17.0102 22.2655 17.0089C22.0191 17.0076 21.7829 16.9085 21.6105 16.7325L19.1153 14.1856L17.3172 16.0257C16.9608 16.3899 16.3763 16.3964 16.0119 16.0402C15.6475 15.6838 15.6412 15.0994 15.9975 14.7349L18.4542 12.2205L18.596 12.1027C18.7477 11.9996 18.9279 11.9429 19.1141 11.9428Z" fill="#E8F2FE"/>
<defs>
<linearGradient id="paint0_linear_1041_4954" x1="11.7657" y1="29.4294" x2="-5.71407" y2="22.7311" gradientUnits="userSpaceOnUse">
<stop offset="0.505078" stop-color="#2573FD"/>
<stop offset="1" stop-color="#A1C3FF"/>
</linearGradient>
<linearGradient id="paint1_linear_1041_4954" x1="11.7657" y1="29.4294" x2="-5.71407" y2="22.7311" gradientUnits="userSpaceOnUse">
<stop offset="0.505078" stop-color="#2573FD"/>
<stop offset="1" stop-color="#A1C3FF"/>
</linearGradient>
<linearGradient id="paint2_linear_1041_4954" x1="7.36099" y1="30.371" x2="2.0548" y2="28.3663" gradientUnits="userSpaceOnUse">
<stop stop-color="#6CA1FD" stop-opacity="0.2"/>
<stop offset="1" stop-color="#87C1FF"/>
</linearGradient>
<linearGradient id="paint3_linear_1041_4954" x1="7.36099" y1="30.371" x2="2.0548" y2="28.3663" gradientUnits="userSpaceOnUse">
<stop stop-color="#6CA1FD" stop-opacity="0.2"/>
<stop offset="1" stop-color="#87C1FF"/>
</linearGradient>
<linearGradient id="paint4_linear_1041_4954" x1="-2.11971" y1="33.2676" x2="-6.28393" y2="26.3205" gradientUnits="userSpaceOnUse">
<stop stop-color="#6CA1FD" stop-opacity="0.2"/>
<stop offset="1" stop-color="#87C1FF"/>
</linearGradient>
<linearGradient id="paint5_linear_1041_4954" x1="19.3267" y1="27.4475" x2="29.8104" y2="4.6831" gradientUnits="userSpaceOnUse">
<stop stop-color="#2573FD"/>
<stop offset="1" stop-color="#A1C3FF"/>
</linearGradient>
</defs>
</svg>
