<svg width="32" height="32" viewBox="0 0 32 32" fill="none" xmlns="http://www.w3.org/2000/svg">
<path d="M27.553 23.7107C28.3159 23.7107 28.9389 24.3167 28.9389 25.0571C28.9389 25.7981 28.3159 26.4041 27.553 26.4041H23.047L24.5028 28.2891C24.6118 28.4298 24.6913 28.591 24.7365 28.7632C24.7817 28.9353 24.7917 29.1148 24.7658 29.2909C24.7399 29.467 24.6787 29.6361 24.5859 29.7879C24.4931 29.9398 24.3705 30.0713 24.2256 30.1747C23.9764 30.3564 23.6834 30.4439 23.3947 30.4439C23.1809 30.4449 22.9698 30.3968 22.7775 30.3035C22.5852 30.2101 22.4168 30.0739 22.2853 29.9054L19.5816 26.4041H12.4179L9.71478 29.9054C9.58329 30.0739 9.41494 30.2101 9.22264 30.3035C9.03034 30.3968 8.8192 30.4449 8.60544 30.4439C8.30673 30.4445 8.01556 30.3502 7.77389 30.1747C7.62925 30.0711 7.50696 29.9395 7.41433 29.7876C7.3217 29.6357 7.26063 29.4668 7.23476 29.2908C7.20888 29.1148 7.21875 28.9354 7.26375 28.7633C7.30876 28.5912 7.38799 28.4299 7.4967 28.2891L8.95253 26.4041H4.44647C3.6836 26.4041 3.06055 25.7981 3.06055 25.0571C3.06055 24.3167 3.6836 23.7107 4.44647 23.7107H27.553Z" fill="url(#paint0_linear_1041_4936)"/>
<path d="M3.05566 3.5589C3.05566 2.45433 3.95109 1.5589 5.05566 1.5589H26.9387C28.0433 1.5589 28.9387 2.45433 28.9387 3.5589V19.7558C28.9387 20.8604 28.0433 21.7558 26.9387 21.7558H5.05567C3.9511 21.7558 3.05566 20.8604 3.05566 19.7558V3.5589Z" fill="url(#paint1_linear_1041_4936)"/>
<mask id="mask0_1041_4936" style="mask-type:alpha" maskUnits="userSpaceOnUse" x="3" y="1" width="26" height="21">
<rect x="3.05566" y="1.5589" width="25.8831" height="20.1969" fill="url(#paint2_linear_1041_4936)"/>
</mask>
<g mask="url(#mask0_1041_4936)">
<path d="M24.167 10.163C29.4103 10.163 33.6608 13.6634 33.6611 17.9813C33.6611 22.2995 29.4104 25.8006 24.167 25.8007C22.9834 25.8007 21.8506 25.6207 20.8057 25.2948C20.4009 29.233 17.0734 32.3046 13.0283 32.3046C8.71038 32.3043 5.21007 28.8042 5.20996 24.4862C5.20996 20.1681 8.71032 16.6671 13.0283 16.6669C13.6272 16.6669 14.2103 16.7366 14.7705 16.8641C15.4291 13.0755 19.3844 10.163 24.167 10.163Z" fill="url(#paint3_linear_1041_4936)"/>
</g>
<path d="M14.763 7.69952C15.0711 7.66158 15.3779 7.78044 15.5791 8.01683L19.4902 12.6154H23.6308C24.1406 12.6154 24.5539 13.0287 24.5539 13.5385C24.5539 14.0483 24.1406 14.4615 23.6308 14.4615H19.0635C18.793 14.4615 18.5357 14.3429 18.3604 14.137L15.0803 10.2813L13.2666 13.9483C13.1108 14.2626 12.7905 14.4615 12.4397 14.4615H8.86155C8.35175 14.4615 7.93848 14.0483 7.93848 13.5385C7.93848 13.0287 8.35175 12.6154 8.86155 12.6154H11.8664L14.0491 8.20553L14.1055 8.10577C14.2534 7.88225 14.4932 7.73278 14.763 7.69952Z" fill="#FEF6F0"/>
<defs>
<linearGradient id="paint0_linear_1041_4936" x1="20.2394" y1="33.1223" x2="22.9301" y2="26.2722" gradientUnits="userSpaceOnUse">
<stop offset="0.0919247" stop-color="#FDB17E"/>
<stop offset="1" stop-color="#FC8C41"/>
</linearGradient>
<linearGradient id="paint1_linear_1041_4936" x1="25.7466" y1="20.5368" x2="10.114" y2="-2.40842" gradientUnits="userSpaceOnUse">
<stop offset="0.285688" stop-color="#FB8B41"/>
<stop offset="1" stop-color="#FEBF95"/>
</linearGradient>
<linearGradient id="paint2_linear_1041_4936" x1="29.4275" y1="20.3683" x2="3.35246" y2="20.3683" gradientUnits="userSpaceOnUse">
<stop stop-color="#FFC39C"/>
<stop offset="1" stop-color="#FDB17F" stop-opacity="0.6"/>
</linearGradient>
<linearGradient id="paint3_linear_1041_4936" x1="34.1984" y1="30.7834" x2="5.53621" y2="30.7834" gradientUnits="userSpaceOnUse">
<stop stop-color="#FFC39C"/>
<stop offset="1" stop-color="#FDB17F" stop-opacity="0.6"/>
</linearGradient>
</defs>
</svg>
