<svg width="32" height="32" viewBox="0 0 32 32" fill="none" xmlns="http://www.w3.org/2000/svg">
<g clip-path="url(#clip0_1041_6382)">
<path d="M15.2257 0.76821C15.0979 0.593802 15.0292 0.76821 15.0292 0.76821L11.2891 31.9145L15.3283 32.0001L15.2257 0.76821ZM27.6843 3.93796C27.6843 3.93796 24.5367 1.89867 18.5793 3.32993C18.5793 3.32993 26.1914 2.5939 28.1112 8.49338C28.1112 8.49338 29.4369 14.4777 24.9021 19.0771C24.9021 19.0771 21.6235 22.7653 19.437 23.6741L16.5261 0.122579C16.5261 0.122579 16.2957 -0.26624 16.2957 0.34179V31.6561C16.2957 31.6561 19.837 30.3992 20.1669 29.7896L19.7045 25.887C19.7045 25.887 29.4376 20.9412 31.4222 12.7448C31.4222 12.7448 33.2765 6.7141 27.6843 3.93956V3.93796Z" fill="url(#paint0_linear_1041_6382)"/>
<mask id="mask0_1041_6382" style="mask-type:alpha" maskUnits="userSpaceOnUse" x="11" y="0" width="21" height="32">
<path d="M15.235 0.769516C15.1072 0.595116 15.0385 0.769516 15.0385 0.769516L11.2979 31.9143L15.3376 31.9999L15.235 0.769516ZM27.6953 3.93912C27.6953 3.93912 24.5473 1.89992 18.589 3.33112C18.589 3.33112 26.2022 2.59512 28.1222 8.49432C28.1222 8.49432 29.448 14.4783 24.9126 19.0775C24.9126 19.0775 21.6336 22.7655 19.4468 23.6743L16.5356 0.123916C16.5356 0.123916 16.3051 -0.264884 16.3051 0.343116V31.6559C16.3051 31.6559 19.847 30.3991 20.1768 29.7895L19.7144 25.8871C19.7144 25.8871 29.4488 20.9415 31.4336 12.7455C31.4336 12.7455 33.2881 6.71512 27.6953 3.94072V3.93912Z" fill="url(#paint1_linear_1041_6382)"/>
</mask>
<g mask="url(#mask0_1041_6382)">
<ellipse cx="13.7339" cy="9.27981" rx="13.7339" ry="9.27981" transform="matrix(0.749834 -0.661627 0.651446 0.758695 6.23242 29.2504)" fill="url(#paint2_linear_1041_6382)"/>
</g>
<path d="M8.70337 24.2262L8.40981 22.5093L7.38641 23.9157L5.31352 23.8609L6.63048 25.1029L5.80279 26.7394L7.65633 25.8949L9.0426 27.077L8.94638 25.2994L10.7494 24.5688L8.70256 24.2277L8.70337 24.2262ZM12.3077 13.6473L10.212 14.2383L9.23831 12.5769L8.60389 14.9462L6.36056 15.9873L8.13989 16.3541L7.72727 18.7541L9.45767 16.7486L11.5045 17.317L10.773 15.4518L12.3077 13.6473ZM2.67796 17.6239L1.51186 19.0346L0 19.2589L0.923913 20.1634L0.0733911 21.7152L1.58443 20.6441L2.6535 21.5756L2.7277 20.0823L4.04548 19.1223L2.65757 19.0638L2.67796 17.6239ZM5.4603 12.745L6.14121 11.9822L5.26459 12.1802L4.79978 11.4467L4.3839 12.5748L3.24226 13.0832L4.02102 13.2535L3.82694 14.2683L4.75167 13.3382L5.67721 13.6465L5.4603 12.745ZM9.45604 8.73989L9.89639 8.9671L10.0921 8.39943L10.7714 7.92017L10.2364 7.83542V7.38464L9.67458 7.97861L8.91947 8.09258L9.18531 8.54044L8.72376 9.13294L9.45604 8.73989Z" fill="url(#paint3_linear_1041_6382)"/>
</g>
<defs>
<linearGradient id="paint0_linear_1041_6382" x1="30.5405" y1="30.7726" x2="3.71167" y2="12.3961" gradientUnits="userSpaceOnUse">
<stop offset="0.505078" stop-color="#2573FD"/>
<stop offset="1" stop-color="#A1C3FF"/>
</linearGradient>
<linearGradient id="paint1_linear_1041_6382" x1="32.6436" y1="25.9458" x2="13.6527" y2="25.9824" gradientUnits="userSpaceOnUse">
<stop stop-color="#87C1FF"/>
<stop offset="1" stop-color="#6CA1FD" stop-opacity="0.2"/>
</linearGradient>
<linearGradient id="paint2_linear_1041_6382" x1="28.6982" y1="15.0481" x2="3.1664" y2="15.1624" gradientUnits="userSpaceOnUse">
<stop stop-color="#87C1FF"/>
<stop offset="1" stop-color="#6CA1FD" stop-opacity="0.2"/>
</linearGradient>
<linearGradient id="paint3_linear_1041_6382" x1="11.5989" y1="26.3216" x2="-1.33459" y2="18.9473" gradientUnits="userSpaceOnUse">
<stop stop-color="#A1C3FF"/>
<stop offset="0.360576" stop-color="#2573FD"/>
</linearGradient>
<clipPath id="clip0_1041_6382">
<rect width="32" height="32" fill="white"/>
</clipPath>
</defs>
</svg>
