<svg width="32" height="32" viewBox="0 0 32 32" fill="none" xmlns="http://www.w3.org/2000/svg">
<path fill-rule="evenodd" clip-rule="evenodd" d="M16 2C12.134 2 9 5.13401 9 9C9 12.866 12.134 16 16 16C19.866 16 23 12.866 23 9C23 5.13401 19.866 2 16 2Z" fill="url(#paint0_linear_1041_6346)"/>
<path fill-rule="evenodd" clip-rule="evenodd" d="M5 27.6C5 26.1136 5 25.3704 5.09849 24.7485C5.64067 21.3254 8.32538 18.6407 11.7485 18.0985C12.3704 18 13.1136 18 14.6 18H17.4C18.8864 18 19.6296 18 20.2515 18.0985C23.6746 18.6407 26.3593 21.3254 26.9015 24.7485C27 25.3704 27 26.1136 27 27.6C27 27.9716 27 28.1574 26.9754 28.3129C26.8398 29.1687 26.1687 29.8398 25.3129 29.9754C25.1574 30 24.9716 30 24.6 30H7.4C7.0284 30 6.8426 30 6.68713 29.9754C5.83135 29.8398 5.16017 29.1687 5.02462 28.3129C5 28.1574 5 27.9716 5 27.6Z" fill="url(#paint1_linear_1041_6346)"/>
<mask id="mask0_1041_6346" style="mask-type:alpha" maskUnits="userSpaceOnUse" x="5" y="2" width="22" height="28">
<path fill-rule="evenodd" clip-rule="evenodd" d="M16 2C12.134 2 9 5.13401 9 9C9 12.866 12.134 16 16 16C19.866 16 23 12.866 23 9C23 5.13401 19.866 2 16 2Z" fill="url(#paint2_linear_1041_6346)"/>
<path fill-rule="evenodd" clip-rule="evenodd" d="M5 27.6C5 26.1136 5 25.3704 5.09849 24.7485C5.64067 21.3254 8.32538 18.6407 11.7485 18.0985C12.3704 18 13.1136 18 14.6 18H17.4C18.8864 18 19.6296 18 20.2515 18.0985C23.6746 18.6407 26.3593 21.3254 26.9015 24.7485C27 25.3704 27 26.1136 27 27.6C27 27.9716 27 28.1574 26.9754 28.3129C26.8398 29.1687 26.1687 29.8398 25.3129 29.9754C25.1574 30 24.9716 30 24.6 30H7.4C7.0284 30 6.8426 30 6.68713 29.9754C5.83135 29.8398 5.16017 29.1687 5.02462 28.3129C5 28.1574 5 27.9716 5 27.6Z" fill="url(#paint3_linear_1041_6346)"/>
</mask>
<g mask="url(#mask0_1041_6346)">
<ellipse cx="25.7949" cy="31.0076" rx="15.7949" ry="13.0076" fill="url(#paint4_linear_1041_6346)"/>
</g>
<defs>
<linearGradient id="paint0_linear_1041_6346" x1="25.7934" y1="28.9259" x2="1.21247" y2="9.19157" gradientUnits="userSpaceOnUse">
<stop offset="0.505078" stop-color="#4085FF"/>
<stop offset="1" stop-color="#A1C3FF"/>
</linearGradient>
<linearGradient id="paint1_linear_1041_6346" x1="25.7934" y1="28.9259" x2="1.21247" y2="9.19157" gradientUnits="userSpaceOnUse">
<stop offset="0.505078" stop-color="#4085FF"/>
<stop offset="1" stop-color="#A1C3FF"/>
</linearGradient>
<linearGradient id="paint2_linear_1041_6346" x1="24" y1="19" x2="16.7933" y2="32.8928" gradientUnits="userSpaceOnUse">
<stop stop-color="#87C1FF"/>
<stop offset="1" stop-color="#6CA1FD" stop-opacity="0.2"/>
</linearGradient>
<linearGradient id="paint3_linear_1041_6346" x1="24" y1="19" x2="16.7933" y2="32.8928" gradientUnits="userSpaceOnUse">
<stop stop-color="#87C1FF"/>
<stop offset="1" stop-color="#6CA1FD" stop-opacity="0.2"/>
</linearGradient>
<linearGradient id="paint4_linear_1041_6346" x1="37.2821" y1="33.7949" x2="32.3404" y2="48.5175" gradientUnits="userSpaceOnUse">
<stop stop-color="#87C1FF"/>
<stop offset="1" stop-color="#6CA1FD" stop-opacity="0.2"/>
</linearGradient>
</defs>
</svg>
