<svg width="32" height="32" viewBox="0 0 32 32" fill="none" xmlns="http://www.w3.org/2000/svg">
<path d="M18.0774 30.8168H2.69654C2.56828 30.8158 2.44161 30.7884 2.32442 30.7362C2.20724 30.6841 2.10206 30.6083 2.01545 30.5137C1.92884 30.4191 1.86265 30.3077 1.82103 30.1864C1.7794 30.065 1.76323 29.9364 1.77351 29.8086L2.26927 23.8435C2.31463 23.3244 2.49962 22.8272 2.80463 22.4047C3.10964 21.9821 3.5233 21.65 4.00175 21.4435L9.55462 19.3132L16.57 19.2848C15.6648 20.7322 15.1879 22.4063 15.1943 24.1134C15.1921 25.3683 15.4466 26.6105 15.9425 27.7633C16.4383 28.9162 17.1648 29.9553 18.0774 30.8168Z" fill="url(#paint0_linear_1041_5204)"/>
<mask id="mask0_1041_5204" style="mask-type:alpha" maskUnits="userSpaceOnUse" x="1" y="19" width="18" height="12">
<path d="M18.0774 30.8169H2.69654C2.56828 30.8159 2.44161 30.7884 2.32442 30.7363C2.20724 30.6841 2.10206 30.6084 2.01545 30.5138C1.92884 30.4192 1.86265 30.3077 1.82103 30.1864C1.7794 30.0651 1.76323 29.9365 1.77351 29.8087L2.26927 23.8435C2.31463 23.3244 2.49962 22.8272 2.80463 22.4047C3.10964 21.9822 3.5233 21.6501 4.00175 21.4436L9.55462 19.3132L16.57 19.2849C15.6648 20.7322 15.1879 22.4063 15.1943 24.1135C15.1921 25.3684 15.4466 26.6105 15.9425 27.7634C16.4383 28.9162 17.1648 29.9554 18.0774 30.8169Z" fill="url(#paint1_linear_1041_5204)"/>
</mask>
<g mask="url(#mask0_1041_5204)">
<path d="M-0.0343592 23.5159C1.61598 21.1795 6.89449 22.0682 11.7557 25.5013C16.6168 28.9344 19.2193 33.6119 17.5692 35.9485C15.9188 38.2849 10.6403 37.3963 5.77912 33.9632C0.917878 30.53 -1.68455 25.8526 -0.0343592 23.5159Z" fill="url(#paint2_linear_1041_5204)"/>
</g>
<path d="M15.4199 17.7243C19.0021 17.7243 21.9061 14.3542 21.9061 10.1961H8.93393C8.93393 14.3529 11.8376 17.7243 15.4199 17.7243ZM8.14854 9.09501H22.6932C22.9405 9.09501 23.1778 8.99674 23.3527 8.82183C23.5276 8.64691 23.6259 8.40967 23.6259 8.1623C23.6259 7.91492 23.5276 7.67768 23.3527 7.50277C23.1778 7.32785 22.9405 7.22958 22.6932 7.22958H22.3053C21.9713 4.7675 20.356 2.71967 18.1569 1.7669V4.53967C18.1522 4.78385 18.052 5.01647 17.8777 5.18752C17.7034 5.35857 17.4689 5.4544 17.2247 5.4544C16.9804 5.4544 16.7459 5.35857 16.5716 5.18752C16.3973 5.01647 16.2971 4.78385 16.2924 4.53967V1.2648C16.0045 1.22839 15.7185 1.18329 15.4199 1.18329C15.1212 1.18329 14.8356 1.22839 14.5476 1.2648V4.54033C14.543 4.78452 14.4427 5.01714 14.2684 5.18819C14.0941 5.35924 13.8596 5.45507 13.6154 5.45507C13.3712 5.45507 13.1367 5.35924 12.9624 5.18819C12.788 5.01714 12.6878 4.78452 12.6832 4.54033V1.76757C10.4837 2.72067 8.86845 4.76817 8.53505 7.23025H8.14854C7.90117 7.23025 7.66393 7.32851 7.48901 7.50343C7.31409 7.67835 7.21582 7.91559 7.21582 8.16296C7.21582 8.41033 7.31409 8.64758 7.48901 8.82249C7.66393 8.99741 7.90117 9.09501 8.14854 9.09501Z" fill="url(#paint3_linear_1041_5204)"/>
<path d="M29.6946 21.5623C29.3573 20.7786 28.8776 20.0643 28.2796 19.4557C27.6654 18.8646 26.9524 18.3858 26.173 18.0408C25.3686 17.6965 24.5009 17.5251 23.6261 17.5377C22.7431 17.5466 21.8692 17.7171 21.0477 18.0408C20.2578 18.3665 19.5415 18.8477 18.9411 19.4557C18.3432 20.0643 17.8635 20.7786 17.5262 21.5623C17.1819 22.3667 17.0105 23.2344 17.0231 24.1092C17.0184 24.9733 17.1855 25.8297 17.5148 26.6286C17.8441 27.4275 18.3289 28.153 18.9411 28.7628C19.5553 29.3539 20.2684 29.8328 21.0478 30.1777C21.8548 30.5353 22.7278 30.72 23.6104 30.72C24.4931 30.72 25.366 30.5353 26.173 30.1777C26.9567 29.8405 27.6711 29.3607 28.2797 28.7628C28.8877 28.1625 29.3689 27.4461 29.6947 26.6561C30.043 25.8519 30.2248 24.9856 30.2292 24.1092C30.2217 23.2332 30.0399 22.3674 29.6946 21.5623Z" fill="url(#paint4_linear_1041_5204)"/>
<path d="M26.0844 21.4737C26.4208 21.1373 26.9667 21.1374 27.3031 21.4737C27.6396 21.8102 27.6396 22.356 27.3031 22.6925L23.213 26.7826C23.0515 26.9441 22.832 27.0349 22.6036 27.035C22.3751 27.035 22.1558 26.9442 21.9942 26.7826L19.9485 24.7381C19.6121 24.4018 19.6123 23.8559 19.9485 23.5194C20.285 23.1829 20.8308 23.1829 21.1673 23.5194L22.6024 24.9545L26.0844 21.4737Z" fill="#F0F2FE"/>
<defs>
<linearGradient id="paint0_linear_1041_5204" x1="14.7419" y1="25.0508" x2="5.41476" y2="16.0069" gradientUnits="userSpaceOnUse">
<stop stop-color="#4F5DFC"/>
<stop offset="1" stop-color="#A5ACFE"/>
</linearGradient>
<linearGradient id="paint1_linear_1041_5204" x1="14.7419" y1="25.0509" x2="5.41476" y2="16.007" gradientUnits="userSpaceOnUse">
<stop stop-color="#4F5DFC"/>
<stop offset="1" stop-color="#A5ACFE"/>
</linearGradient>
<linearGradient id="paint2_linear_1041_5204" x1="16.9795" y1="25.0302" x2="6.88011" y2="31.5537" gradientUnits="userSpaceOnUse">
<stop stop-color="#8791FF"/>
<stop offset="0.61511" stop-color="#6C78FD"/>
</linearGradient>
<linearGradient id="paint3_linear_1041_5204" x1="20.2693" y1="9.4538" x2="7.81983" y2="0.984616" gradientUnits="userSpaceOnUse">
<stop stop-color="#4F5DFC"/>
<stop offset="1" stop-color="#A5ACFE"/>
</linearGradient>
<linearGradient id="paint4_linear_1041_5204" x1="27.5278" y1="24.1285" x2="17.5706" y2="17.2884" gradientUnits="userSpaceOnUse">
<stop stop-color="#4F5DFC"/>
<stop offset="1" stop-color="#A5ACFE"/>
</linearGradient>
</defs>
</svg>
