<svg width="32" height="32" viewBox="0 0 32 32" fill="none" xmlns="http://www.w3.org/2000/svg">
<path d="M8.70335 26.6426C8.55163 26.3114 8.79364 25.9343 9.15792 25.9343H22.8733C23.2376 25.9343 23.4796 26.3114 23.3279 26.6426L22.5552 28.3293C22.4738 28.507 22.2962 28.621 22.1007 28.621H9.93059C9.73505 28.621 9.55746 28.507 9.47602 28.3293L8.70335 26.6426Z" fill="url(#paint0_linear_1041_6472)"/>
<path d="M3.31738 5.37903C3.31738 4.27446 4.21281 3.37903 5.31738 3.37903H26.6828C27.7873 3.37903 28.6828 4.27446 28.6828 5.37903V22.3599C28.6828 23.4644 27.7873 24.3599 26.6828 24.3599H5.31739C4.21282 24.3599 3.31738 23.4644 3.31738 22.3599V5.37903Z" fill="url(#paint1_linear_1041_6472)"/>
<path d="M21.5312 13.3138C24.3849 13.3139 26.9432 14.3524 28.6836 15.9935V22.3597C28.6836 23.4643 27.7881 24.3597 26.6836 24.3597H5.31836C4.66466 24.3597 4.08565 24.0449 3.7207 23.5599C5.09484 21.3159 7.56871 19.8179 10.3926 19.8177C10.9913 19.8178 11.5746 19.8875 12.1348 20.015C12.7936 16.2265 16.7488 13.3138 21.5312 13.3138Z" fill="url(#paint2_linear_1041_6472)"/>
<path d="M14.3247 10.2785C14.6259 10.2408 14.9268 10.3536 15.1288 10.5802L19.6227 15.6211H24.4112C24.9209 15.6211 25.3341 16.0345 25.3343 16.5441C25.3343 17.0539 24.921 17.4672 24.4112 17.4672H19.2081C18.945 17.4671 18.6944 17.3547 18.5194 17.1583L14.642 12.8086L12.4845 16.9696C12.3258 17.2756 12.0095 17.4672 11.6648 17.4672H7.58909C7.07929 17.4672 6.66602 17.0539 6.66602 16.5441C6.66624 16.0345 7.07943 15.6211 7.58909 15.6211H11.1035L13.6203 10.7689L13.678 10.6728C13.8262 10.4564 14.061 10.3116 14.3247 10.2785Z" fill="#FEF6F0"/>
<defs>
<linearGradient id="paint0_linear_1041_6472" x1="20.5282" y1="27.2777" x2="19.4817" y2="23.1981" gradientUnits="userSpaceOnUse">
<stop stop-color="#FEC9A5"/>
<stop offset="1" stop-color="#FC944F"/>
</linearGradient>
<linearGradient id="paint1_linear_1041_6472" x1="23.4944" y1="13.8695" x2="6.81118" y2="0.0388347" gradientUnits="userSpaceOnUse">
<stop stop-color="#FC944F"/>
<stop offset="1" stop-color="#FEC9A5"/>
</linearGradient>
<linearGradient id="paint2_linear_1041_6472" x1="29.155" y1="23.6009" x2="4.00695" y2="23.6009" gradientUnits="userSpaceOnUse">
<stop stop-color="#FFC39C"/>
<stop offset="1" stop-color="#FDB17F" stop-opacity="0.6"/>
</linearGradient>
</defs>
</svg>
