<svg width="32" height="32" viewBox="0 0 32 32" fill="none" xmlns="http://www.w3.org/2000/svg">
<path d="M17.5492 14.759C16.0387 15.5634 14.7756 16.7636 13.8951 18.2311C13.0147 19.6986 12.5502 21.378 12.5513 23.0893C12.5506 24.5304 12.8804 25.9526 13.5151 27.2464C14.1499 28.5402 15.0729 29.6713 16.2131 30.5526H4.48476C3.40649 30.5526 2.53223 29.6784 2.53223 28.6045V3.3804C2.53223 2.30359 3.40649 1.42932 4.48476 1.42932H25.3025C25.8199 1.43009 26.3158 1.63615 26.6813 2.00223C27.0468 2.36832 27.2522 2.86451 27.2522 3.38185V15.2632C25.8328 14.3065 24.1799 13.7541 22.4706 13.6653C20.7613 13.5765 19.06 13.9546 17.5492 14.759Z" fill="url(#paint0_linear_1041_6525)"/>
<path d="M14.3306 11.5769C14.9083 11.577 15.3763 12.0449 15.3763 12.6226C15.3761 13.2002 14.9082 13.6682 14.3306 13.6683H7.00368C6.42614 13.6681 5.95817 13.2001 5.95801 12.6226C5.95801 12.0449 6.42604 11.5771 7.00368 11.5769H14.3306ZM22.7801 6.10938C23.3577 6.10957 23.8258 6.57739 23.8258 7.15505C23.8257 7.7326 23.3577 8.20053 22.7801 8.20072H7.00368C6.42612 8.20056 5.95813 7.73262 5.95801 7.15505C5.95801 6.57737 6.42604 6.10954 7.00368 6.10938H22.7801Z" fill="#F3FDFF"/>
<path d="M8.89062 19.1924C10.3907 19.1924 11.8104 19.4789 13.0732 19.9902C12.7288 20.9824 12.5511 22.0295 12.5518 23.0889C12.5511 24.53 12.8809 25.9523 13.5156 27.2461C14.1504 28.5398 15.0728 29.6714 16.2129 30.5527H4.48535C3.40709 30.5527 2.53223 29.6784 2.53223 28.6045V21.2061C4.2199 19.9543 6.44768 19.1924 8.89062 19.1924Z" fill="url(#paint1_linear_1041_6525)"/>
<path d="M14.3262 23.0879C14.3263 22.0906 14.5257 21.1035 14.9128 20.1844C15.2999 19.2654 15.8668 18.433 16.5802 17.7362C17.2936 17.0394 18.139 16.4922 19.0669 16.1268C19.9948 15.7614 20.9863 15.5852 21.9833 15.6085L21.9862 15.6041C23.9706 15.6041 25.8738 16.3924 27.277 17.7956C28.6802 19.1988 29.4685 21.102 29.4685 23.0864C29.4685 25.0708 28.6802 26.974 27.277 28.3772C25.8738 29.7804 23.9706 30.5687 21.9862 30.5687C20.9891 30.5922 19.9973 30.4161 19.0692 30.0508C18.141 29.6855 17.2953 29.1384 16.5816 28.4416C15.868 27.7448 15.3008 26.9123 14.9135 25.9932C14.5262 25.074 14.3265 24.0867 14.3262 23.0893V23.0879Z" fill="url(#paint2_linear_1041_6525)"/>
<path d="M24.8057 20.0472C24.9984 20.0473 25.1829 20.124 25.3193 20.2601L26.0439 20.9847C26.18 21.1212 26.2568 21.3057 26.2568 21.4984C26.2568 21.6912 26.1801 21.8766 26.0439 22.0131L20.8525 27.2035L18.8076 27.4955L19.0996 25.4506L24.291 20.2601C24.4275 20.124 24.6129 20.0472 24.8057 20.0472ZM24.1904 24.4144C24.2295 24.3755 24.2929 24.3755 24.332 24.4144L26.3184 26.39C26.3575 26.4291 26.3574 26.4934 26.3184 26.5326L25.4258 27.4301C25.3867 27.4693 25.3225 27.4691 25.2832 27.4301L23.2979 25.4545C23.2586 25.4154 23.2578 25.3512 23.2969 25.3119L24.1904 24.4144ZM18.6807 18.7982C19.379 18.5216 20.2131 18.6628 20.7793 19.2318C21.3351 19.7906 21.4854 20.6221 21.2148 21.3168L21.1914 21.3773L21.2383 21.4222L21.7363 21.8998V21.9008C21.816 21.9809 21.8208 22.0983 21.7676 22.1732L21.7412 22.2025L21.7363 22.2074L20.9951 22.9525H20.9941L20.9902 22.9574C20.9211 23.0368 20.7823 23.0438 20.6914 22.9525L20.6895 22.9515L20.1895 22.4711L20.1445 22.4281L20.0859 22.4506C19.3952 22.7221 18.5686 22.5716 18.0127 22.0131C17.4468 21.4444 17.3065 20.6067 17.5811 19.9047L18.8535 21.183L18.9219 21.2523L18.9912 21.183L19.9541 20.2152L20.0234 20.1459L19.9541 20.0775L18.6807 18.7982Z" fill="#F3FDFF" stroke="#F3FDFF" stroke-width="0.195312"/>
<defs>
<linearGradient id="paint0_linear_1041_6525" x1="5.83891" y1="2.04467" x2="31.1712" y2="13.1561" gradientUnits="userSpaceOnUse">
<stop stop-color="#A1EFFF"/>
<stop offset="0.638059" stop-color="#00AFD1"/>
</linearGradient>
<linearGradient id="paint1_linear_1041_6525" x1="3.45795" y1="31.9792" x2="13.7439" y2="23.3755" gradientUnits="userSpaceOnUse">
<stop stop-color="#00B4D8"/>
<stop offset="1" stop-color="#1FDAFF"/>
</linearGradient>
<linearGradient id="paint2_linear_1041_6525" x1="17.7319" y1="16.8564" x2="30.4186" y2="23.2519" gradientUnits="userSpaceOnUse">
<stop offset="0.389944" stop-color="#00AFD1"/>
<stop offset="1" stop-color="#A1EFFF"/>
</linearGradient>
</defs>
</svg>
