<svg width="32" height="32" viewBox="0 0 32 32" fill="none" xmlns="http://www.w3.org/2000/svg">
<path d="M17.5492 14.759C16.0387 15.5634 14.7756 16.7636 13.8951 18.2311C13.0147 19.6986 12.5502 21.378 12.5513 23.0893C12.5506 24.5305 12.8804 25.9526 13.5151 27.2464C14.1499 28.5402 15.0729 29.6713 16.2131 30.5526H4.48476C3.40649 30.5526 2.53223 29.6784 2.53223 28.6045V3.3804C2.53223 2.30359 3.40649 1.42932 4.48476 1.42932H25.3025C25.8199 1.43009 26.3158 1.63615 26.6813 2.00223C27.0468 2.36832 27.2522 2.86451 27.2522 3.38185V15.2632C25.8328 14.3065 24.1799 13.7541 22.4706 13.6653C20.7613 13.5765 19.0601 13.9546 17.5492 14.759Z" fill="url(#paint0_linear_1041_6615)"/>
<path d="M8.89062 19.1924C10.3907 19.1924 11.8104 19.4789 13.0732 19.9902C12.7288 20.9824 12.5511 22.0295 12.5518 23.0889C12.5511 24.53 12.8809 25.9523 13.5156 27.2461C14.1504 28.5398 15.0728 29.6714 16.2129 30.5527H4.48535C3.40709 30.5527 2.53223 29.6784 2.53223 28.6045V21.2061C4.2199 19.9543 6.44768 19.1924 8.89062 19.1924Z" fill="url(#paint1_linear_1041_6615)"/>
<path d="M14.3262 23.0879C14.3263 22.0906 14.5257 21.1035 14.9128 20.1844C15.2999 19.2654 15.8668 18.433 16.5802 17.7362C17.2936 17.0394 18.139 16.4922 19.0669 16.1268C19.9948 15.7614 20.9863 15.5852 21.9833 15.6085L21.9862 15.6041C23.9706 15.6041 25.8738 16.3924 27.277 17.7956C28.6802 19.1988 29.4685 21.102 29.4685 23.0864C29.4685 25.0708 28.6802 26.974 27.277 28.3772C25.8738 29.7804 23.9706 30.5687 21.9862 30.5687C20.9891 30.5922 19.9973 30.4161 19.0692 30.0508C18.141 29.6855 17.2953 29.1384 16.5816 28.4416C15.868 27.7448 15.3008 26.9123 14.9135 25.9932C14.5262 25.074 14.3265 24.0867 14.3262 23.0893V23.0879Z" fill="url(#paint2_linear_1041_6615)"/>
<path d="M21.2729 18.6851C21.7826 18.6853 22.196 19.0985 22.196 19.6082V22.5889H25.22C25.7297 22.5891 26.1431 23.0023 26.1431 23.512C26.143 24.0216 25.7296 24.4349 25.22 24.4351H21.2729C20.7632 24.4351 20.35 24.0217 20.3498 23.512V19.6082C20.3498 19.0984 20.7631 18.6851 21.2729 18.6851ZM14.3306 11.5769C14.9083 11.577 15.3763 12.0449 15.3763 12.6226C15.3761 13.2002 14.9082 13.6682 14.3306 13.6683H7.00368C6.42614 13.6681 5.95817 13.2001 5.95801 12.6226C5.95801 12.0449 6.42604 11.5771 7.00368 11.5769H14.3306ZM22.7801 6.10938C23.3577 6.10957 23.8258 6.57739 23.8258 7.15505C23.8257 7.7326 23.3577 8.20053 22.7801 8.20072H7.00368C6.42612 8.20056 5.95813 7.73262 5.95801 7.15505C5.95801 6.57737 6.42604 6.10954 7.00368 6.10938H22.7801Z" fill="#E8F2FE"/>
<defs>
<linearGradient id="paint0_linear_1041_6615" x1="25.8285" y1="29.4355" x2="-0.243588" y2="5.69067" gradientUnits="userSpaceOnUse">
<stop offset="0.505078" stop-color="#2573FD"/>
<stop offset="1" stop-color="#A1C3FF"/>
</linearGradient>
<linearGradient id="paint1_linear_1041_6615" x1="16.2129" y1="21.82" x2="4.05928" y2="28.4544" gradientUnits="userSpaceOnUse">
<stop stop-color="#87C1FF"/>
<stop offset="1" stop-color="#6CA1FD" stop-opacity="0.2"/>
</linearGradient>
<linearGradient id="paint2_linear_1041_6615" x1="28.5964" y1="29.9966" x2="15.1845" y2="15.4371" gradientUnits="userSpaceOnUse">
<stop stop-color="#A1C3FF"/>
<stop offset="0.494922" stop-color="#2573FD"/>
</linearGradient>
</defs>
</svg>
