<svg width="32" height="32" viewBox="0 0 32 32" fill="none" xmlns="http://www.w3.org/2000/svg">
<path d="M4.77556 29.7143C4.1156 29.7128 3.48308 29.4333 3.0165 28.9369C2.54992 28.4406 2.2873 27.7678 2.28613 27.066V16C4.46119 17.5863 8.68625 18.6239 13.9143 18.8543V22.2414C13.9152 22.4259 14.0552 22.5739 14.2287 22.5748H17.7748C17.8577 22.5741 17.9369 22.5387 17.9954 22.4763C18.0539 22.4139 18.087 22.3295 18.0874 22.2414V18.858C21.1961 18.7893 24.2801 18.2559 27.2491 17.2736C28.1191 16.9664 28.9486 16.5403 29.7147 16.0056V27.066C29.7138 27.7673 29.4517 28.4396 28.9858 28.9359C28.52 29.4322 27.8882 29.7121 27.2288 29.7143H4.77556Z" fill="url(#paint0_linear_1041_6660)"/>
<mask id="mask0_1041_6660" style="mask-type:alpha" maskUnits="userSpaceOnUse" x="2" y="16" width="28" height="14">
<path d="M4.77524 29.6932C4.11536 29.6917 3.48293 29.4126 3.01641 28.917C2.54989 28.4214 2.2873 27.7497 2.28613 27.049V16C4.46091 17.5839 8.68544 18.6199 13.9128 18.8499V22.2318C13.9137 22.416 14.0537 22.5638 14.2272 22.5647H17.7728C17.8557 22.564 17.9349 22.5286 17.9934 22.4663C18.0519 22.404 18.0849 22.3198 18.0854 22.2318V18.8536C21.1936 18.785 24.2773 18.2525 27.2459 17.2716C28.1158 16.9649 28.9452 16.5395 29.7112 16.0056V27.049C29.7103 27.7492 29.4483 28.4205 28.9824 28.916C28.5166 29.4115 27.885 29.691 27.2256 29.6932H4.77524Z" fill="url(#paint1_linear_1041_6660)"/>
</mask>
<g mask="url(#mask0_1041_6660)">
<path d="M27.5752 11.3099C35.0555 11.3099 41.1198 16.613 41.1201 23.1547C41.1201 29.6966 35.0556 35.0004 27.5752 35.0004C20.0949 35.0002 14.0312 29.6965 14.0312 23.1547C14.0315 16.6131 20.0951 11.3101 27.5752 11.3099Z" fill="url(#paint2_linear_1041_6660)"/>
</g>
<path d="M14.0405 17.0984C9.14944 16.9083 5.13447 16.0396 3.2934 14.7761C2.64889 14.3328 2.28613 13.8742 2.28613 13.4138V9.26456C2.2873 8.62532 2.54995 8.01257 3.01661 7.5604C3.48327 7.10823 4.11593 6.85348 4.77612 6.8519H8.64493V3.92944C8.64493 3.10931 9.26126 2.41194 10.0977 2.28577H21.9049C22.7413 2.41279 23.3586 3.10931 23.3612 3.92944V6.85361H27.2282C27.8873 6.85406 28.5192 7.10762 28.9853 7.55866C29.4515 8.00969 29.7138 8.62136 29.7147 9.25944V13.4113C29.6907 13.6388 29.6158 13.8585 29.4952 14.0552C29.3746 14.2519 29.2113 14.4208 29.0165 14.5502C28.3009 15.088 27.4916 15.4971 26.6269 15.7583C23.1752 16.7456 19.5865 17.21 15.9881 17.1351C15.3393 17.1371 14.6887 17.1249 14.0405 17.0984ZM20.549 6.85361V5.25086C20.5487 5.13652 20.5017 5.02693 20.4182 4.94608C20.3347 4.86523 20.2215 4.8197 20.1034 4.81948H11.8965C11.7789 4.8206 11.6664 4.86646 11.5834 4.94716C11.5004 5.02787 11.4535 5.13695 11.4528 5.25086V6.85361H20.549Z" fill="url(#paint3_linear_1041_6660)"/>
<mask id="mask1_1041_6660" style="mask-type:alpha" maskUnits="userSpaceOnUse" x="2" y="2" width="28" height="16">
<path d="M14.0405 17.1196C9.14945 16.9294 5.13448 16.0607 3.2934 14.7973C2.64889 14.354 2.28613 13.8953 2.28613 13.4349V9.28568C2.2873 8.64644 2.54995 8.03369 3.01661 7.58152C3.48327 7.12935 4.11593 6.8746 4.77612 6.87302H8.64494V3.95056C8.64494 3.13043 9.26127 2.43306 10.0977 2.30688H21.9049C22.7414 2.43391 23.3586 3.13043 23.3612 3.95056V6.87473H27.2283C27.8873 6.87518 28.5192 7.12874 28.9853 7.57978C29.4515 8.03081 29.7138 8.64248 29.7147 9.28056V13.4324C29.6907 13.6599 29.6158 13.8797 29.4953 14.0764C29.3747 14.273 29.2113 14.442 29.0165 14.5713C28.301 15.1091 27.4916 15.5182 26.6269 15.7794C23.1752 16.7667 19.5865 17.2312 15.9881 17.1562C15.3393 17.1582 14.6887 17.146 14.0405 17.1196ZM20.549 6.87473V5.27198C20.5487 5.15764 20.5017 5.04804 20.4182 4.96719C20.3347 4.88634 20.2215 4.84082 20.1035 4.8406H11.8965C11.7789 4.84171 11.6664 4.88758 11.5834 4.96828C11.5004 5.04899 11.4535 5.15807 11.4528 5.27198V6.87473H20.549Z" fill="url(#paint4_linear_1041_6660)"/>
</mask>
<g mask="url(#mask1_1041_6660)">
<ellipse cx="27.6511" cy="19.9749" rx="13.6199" ry="13.1875" fill="url(#paint5_linear_1041_6660)"/>
</g>
<defs>
<linearGradient id="paint0_linear_1041_6660" x1="16.0004" y1="16" x2="16.0004" y2="26.7163" gradientUnits="userSpaceOnUse">
<stop stop-color="#FFA8E9"/>
<stop offset="1" stop-color="#FF6FDB"/>
</linearGradient>
<linearGradient id="paint1_linear_1041_6660" x1="25.9714" y1="24.3137" x2="24.2865" y2="32.5932" gradientUnits="userSpaceOnUse">
<stop stop-color="#87C1FF"/>
<stop offset="1" stop-color="#6CA1FD" stop-opacity="0.2"/>
</linearGradient>
<linearGradient id="paint2_linear_1041_6660" x1="41.1201" y1="20.1406" x2="23.079" y2="35.1964" gradientUnits="userSpaceOnUse">
<stop stop-color="#FFABEA"/>
<stop offset="1" stop-color="#FD68D8"/>
</linearGradient>
<linearGradient id="paint3_linear_1041_6660" x1="16.0004" y1="2.28577" x2="16.0004" y2="13.8951" gradientUnits="userSpaceOnUse">
<stop stop-color="#FFA8E9"/>
<stop offset="1" stop-color="#FF6FDB"/>
</linearGradient>
<linearGradient id="paint4_linear_1041_6660" x1="25.9745" y1="11.3273" x2="24.0051" y2="20.2478" gradientUnits="userSpaceOnUse">
<stop stop-color="#87C1FF"/>
<stop offset="1" stop-color="#6CA1FD" stop-opacity="0.2"/>
</linearGradient>
<linearGradient id="paint5_linear_1041_6660" x1="41.271" y1="16.6187" x2="21.6453" y2="31.4117" gradientUnits="userSpaceOnUse">
<stop stop-color="#FFABEA"/>
<stop offset="1" stop-color="#FD68D8"/>
</linearGradient>
</defs>
</svg>
