<svg width="32" height="32" viewBox="0 0 32 32" fill="none" xmlns="http://www.w3.org/2000/svg">
<path d="M15.2714 2.00117C15.6408 2.25169 15.8964 2.50051 15.8964 3.01169V14.9347C15.5123 15.2267 15.2 15.6068 14.9844 16.0447C14.7688 16.4826 14.6559 16.9661 14.6547 17.4568V28.5335C14.6547 28.8906 14.7256 29.2308 14.8311 29.5508C14.7025 29.5558 14.5755 29.5626 14.3875 29.5626H2.24434C1.74634 29.5626 1.61937 29.5626 1.37367 29.4357C1.2467 29.307 1.001 29.1868 1.001 29.0565C0.874023 28.8077 0.874023 28.679 0.874023 28.1865V12.3179C0.874023 10.9299 1.001 10.5524 1.12302 9.93294C1.2467 9.43191 1.49899 8.92073 1.87167 8.54327C2.23774 8.1675 2.61866 7.79512 3.73833 7.04019L14.1402 2.00117C14.3047 1.87892 14.5027 1.81311 14.7058 1.81311C14.9089 1.81311 15.1069 1.87892 15.2714 2.00117Z" fill="url(#paint0_linear_1041_6741)"/>
<mask id="mask0_1041_6741" style="mask-type:alpha" maskUnits="userSpaceOnUse" x="0" y="1" width="16" height="29">
<path d="M15.2714 2.00117C15.6408 2.25169 15.8964 2.50051 15.8964 3.01169V14.9347C15.5123 15.2267 15.2 15.6068 14.9844 16.0447C14.7688 16.4826 14.6559 16.9661 14.6547 17.4568V28.5335C14.6547 28.8906 14.7256 29.2308 14.8311 29.5508C14.7025 29.5558 14.5755 29.5626 14.3875 29.5626H2.24434C1.74634 29.5626 1.61937 29.5626 1.37367 29.4357C1.2467 29.307 1.001 29.1868 1.001 29.0565C0.874023 28.8077 0.874023 28.679 0.874023 28.1865V12.3179C0.874023 10.9299 1.001 10.5524 1.12302 9.93294C1.2467 9.43191 1.49899 8.92073 1.87167 8.54327C2.23774 8.1675 2.61866 7.79512 3.73833 7.04019L14.1402 2.00117C14.3047 1.87892 14.5027 1.81311 14.7058 1.81311C14.9089 1.81311 15.1069 1.87892 15.2714 2.00117Z" fill="url(#paint1_linear_1041_6741)"/>
</mask>
<g mask="url(#mask0_1041_6741)">
<ellipse cx="12.4352" cy="7.58621" rx="12.4352" ry="7.58621" transform="matrix(0.782043 -0.623224 0.603232 0.797566 -2.74805 26.3788)" fill="url(#paint2_linear_1041_6741)"/>
</g>
<path d="M10.0116 21.6454C10.5213 21.6454 10.9345 22.0589 10.9347 22.5685C10.9347 23.0783 10.5214 23.4915 10.0116 23.4915H6.75804C6.24824 23.4915 5.83496 23.0783 5.83496 22.5685C5.8352 22.0589 6.24839 21.6454 6.75804 21.6454H10.0116ZM10.0116 17.3713C10.5213 17.3713 10.9346 17.7848 10.9347 18.2944C10.9347 18.8042 10.5214 19.2175 10.0116 19.2175H6.75804C6.24824 19.2175 5.83496 18.8042 5.83496 18.2944C5.83512 17.7848 6.24834 17.3713 6.75804 17.3713H10.0116ZM10.0116 13.0516C10.5214 13.0516 10.9347 13.4649 10.9347 13.9747C10.9346 14.4844 10.5214 14.8978 10.0116 14.8978H6.75804C6.24829 14.8978 5.83504 14.4844 5.83496 13.9747C5.83496 13.4649 6.24824 13.0516 6.75804 13.0516H10.0116Z" fill="#E8F2FE"/>
<path d="M24.4495 12.3291C24.5627 12.6599 24.5783 13.0186 24.5801 13.8386H19.2959V8.70244C19.2959 8.18534 19.564 7.79708 19.9575 7.66476C20.1618 7.60549 20.3776 7.59801 20.5855 7.643C20.7935 7.68798 20.9869 7.78402 21.1484 7.92244L22.7276 9.60781C23.5302 10.5132 23.6608 10.7708 23.922 11.1574C24.1866 11.5578 24.3172 11.9443 24.4478 12.3291H24.4495Z" fill="url(#paint3_linear_1041_6741)"/>
<path d="M29.4577 16.0845C30.3799 16.0845 31.1255 16.8301 31.1255 17.7508V28.5222C31.1255 29.4445 30.3783 30.1869 29.4577 30.1869H18.6878C18.469 30.1871 18.2524 30.1442 18.0502 30.0607C17.8481 29.9771 17.6644 29.8545 17.5096 29.6999C17.3549 29.5453 17.2321 29.3617 17.1484 29.1596C17.0646 28.9576 17.0215 28.741 17.0215 28.5222V17.7523C17.0215 16.8301 17.7671 16.0845 18.6878 16.0845H29.4577Z" fill="url(#paint4_linear_1041_6741)"/>
<path d="M23.6709 25.7574C24.0356 26.0569 24.4239 26.4584 24.6445 26.7672L24.0791 27.2028C23.8649 26.8839 23.4766 26.4579 23.127 26.1334L23.6406 25.7614L23.6592 25.7477L23.6709 25.7574ZM22.1084 18.7399C22.028 18.9389 21.9413 19.1374 21.8467 19.3278L21.7803 19.4615H24.2598V19.9889H22.7295L22.8105 20.1285C22.9104 20.3002 22.9952 20.4799 23.0703 20.6637L22.4082 20.8629C22.3309 20.6241 22.1857 20.3072 22.0303 20.0358L22.0029 19.9889H21.4795L21.4521 20.0319C21.1888 20.4455 20.8967 20.8287 20.6143 21.1403L20.5137 21.2506L20.5098 21.2477C20.3317 21.1297 20.0707 20.984 19.8594 20.8883C20.5031 20.3014 21.0649 19.4441 21.3926 18.569L22.1084 18.7399ZM26.1074 18.734C26.0488 18.9358 25.9699 19.1277 25.874 19.3287L25.8105 19.4615H28.8076V19.9889H27.0596L27.1846 20.1412C27.3337 20.3221 27.4612 20.5194 27.5674 20.7281L26.9414 20.9918C26.8046 20.7126 26.571 20.3332 26.3262 20.024L26.2979 19.9889H25.5469L25.5195 20.0338C25.315 20.3681 25.0925 20.6806 24.8652 20.9293C24.7558 20.8382 24.6096 20.7422 24.4648 20.6471L24.3477 20.5699L24.3457 20.5787C24.3112 20.5546 24.2787 20.5325 24.248 20.5143C24.2464 20.5133 24.2448 20.5123 24.2432 20.5114C24.7404 20.0087 25.1509 19.2974 25.3828 18.5699L26.1074 18.734ZM20.5508 21.2955H23.457L23.4717 21.2194C23.5064 21.0355 23.5409 20.8488 23.5703 20.6549L24.3076 20.7643L24.3145 20.7467C24.2862 20.9022 24.2604 21.0335 24.2314 21.1871L24.2109 21.2965H28.083V21.8239H24.083L24.0674 21.8981C24.0371 22.0481 23.9969 22.2084 23.957 22.3492L23.9229 22.4664H27.5713V22.9752H23.7559L23.7344 23.0367C23.6717 23.2125 23.6217 23.3621 23.5615 23.524L23.5146 23.649H28.8291V24.1871H23.2539L23.2285 24.2379C23.1169 24.4599 22.9862 24.6913 22.8545 24.8903L22.7598 25.0348H26.0596V24.5055H26.8154V25.0348H28.2354V25.5934H26.8154V26.9489C26.8154 27.1611 26.7967 27.3078 26.749 27.4137C26.7154 27.4883 26.6651 27.5469 26.585 27.5944L26.4941 27.6383L26.4883 27.6412C26.3552 27.7053 26.1918 27.7391 25.9863 27.7565C25.7981 27.7724 25.5807 27.7729 25.3252 27.7731C25.2815 27.5822 25.1975 27.3429 25.1123 27.149C25.3472 27.1598 25.5824 27.164 25.8174 27.1549L25.8164 27.1539C25.8747 27.1537 25.9425 27.1471 25.9932 27.1041C26.0487 27.0568 26.0595 26.9884 26.0596 26.9293V25.5934H22.707V25.1188L22.54 25.3463C21.99 26.0958 21.286 26.7175 20.4775 27.1754C20.3424 27.0155 20.106 26.7786 19.918 26.6129C20.9284 26.0946 21.7749 25.3037 22.3574 24.3268L22.4404 24.1871H19.9385V23.649H22.7031L22.7285 23.5973C22.8087 23.4353 22.8787 23.2682 22.9375 23.0973L22.9795 22.9752H21.083V22.4664H23.1494L23.1719 22.4059C23.2261 22.2584 23.268 22.0906 23.3076 21.9401L23.3379 21.8239H20.5508V21.2955Z" fill="#E8F2FE" stroke="#E8F2FE" stroke-width="0.185185"/>
<defs>
<linearGradient id="paint0_linear_1041_6741" x1="15.0312" y1="28.4981" x2="-6.6421" y2="15.909" gradientUnits="userSpaceOnUse">
<stop offset="0.505078" stop-color="#2573FD"/>
<stop offset="1" stop-color="#A1C3FF"/>
</linearGradient>
<linearGradient id="paint1_linear_1041_6741" x1="16.5693" y1="24.3124" x2="1.41749" y2="26.4411" gradientUnits="userSpaceOnUse">
<stop stop-color="#87C1FF"/>
<stop offset="1" stop-color="#6CA1FD" stop-opacity="0.2"/>
</linearGradient>
<linearGradient id="paint2_linear_1041_6741" x1="25.9844" y1="12.3018" x2="4.32441" y2="21.5161" gradientUnits="userSpaceOnUse">
<stop stop-color="#87C1FF"/>
<stop offset="1" stop-color="#6CA1FD" stop-opacity="0.2"/>
</linearGradient>
<linearGradient id="paint3_linear_1041_6741" x1="19.7557" y1="13.4463" x2="22.9128" y2="9.30452" gradientUnits="userSpaceOnUse">
<stop offset="0.505078" stop-color="#2573FD"/>
<stop offset="1" stop-color="#A1C3FF"/>
</linearGradient>
<linearGradient id="paint4_linear_1041_6741" x1="30.3132" y1="29.646" x2="17.6645" y2="16.0728" gradientUnits="userSpaceOnUse">
<stop stop-color="#A1C3FF"/>
<stop offset="0.592673" stop-color="#2573FD"/>
</linearGradient>
</defs>
</svg>
