<svg width="32" height="32" viewBox="0 0 32 32" fill="none" xmlns="http://www.w3.org/2000/svg">
<path d="M11.1608 6.35718H20.8391C21.5053 6.35718 22.049 5.81375 22.049 5.14754V2.72801H18.4196V2.28263C18.4196 1.86177 18.076 1.51813 17.6551 1.51813H14.3449C13.924 1.51813 13.5803 1.86177 13.5803 2.28263V2.72801H9.95117V5.14754C9.95117 5.81033 10.4946 6.35718 11.1608 6.35718Z" fill="url(#paint0_linear_1041_4978)"/>
<path d="M25.8142 2.69208H23.5268V6.68755C23.5268 7.63103 22.7555 8.40239 21.812 8.40239H10.1912C9.24774 8.40239 8.47638 7.63103 8.47638 6.68755V2.69208H6.18907C4.93445 2.69208 3.9082 3.7181 3.9082 4.97277V28.201C3.9082 29.4556 4.93445 30.4819 6.18907 30.4819L25.8109 30.4819C27.0655 30.4819 28.0918 29.4556 28.0918 28.201V4.97277C28.095 3.71813 27.0687 2.69208 25.8142 2.69208Z" fill="url(#paint1_linear_1041_4978)"/>
<path d="M18.7725 24.5548C22.197 22.3394 25.886 21.6394 28.0918 22.5793V28.2004C28.0918 29.455 27.0652 30.4816 25.8105 30.4816H13.5146C14.2673 28.4631 16.1445 26.255 18.7725 24.5548Z" fill="url(#paint2_linear_1041_4978)"/>
<path d="M11.6932 18.3773C11.3 18.0016 11.2858 17.3787 11.6615 16.9856C12.0372 16.5924 12.6601 16.5782 13.0532 16.9539L15.41 19.2058L19.8531 14.5558C20.2287 14.1627 20.8517 14.1486 21.2449 14.5241C21.638 14.8998 21.6522 15.5227 21.2765 15.9159L16.1533 21.2776C15.7777 21.6707 15.1547 21.6849 14.7616 21.3092L11.6932 18.3773Z" fill="#F3FDFF"/>
<defs>
<linearGradient id="paint0_linear_1041_4978" x1="19.5405" y1="2.63582" x2="19.0973" y2="7.23801" gradientUnits="userSpaceOnUse">
<stop stop-color="#A1EFFF"/>
<stop offset="1" stop-color="#00AFD1"/>
</linearGradient>
<linearGradient id="paint1_linear_1041_4978" x1="19.6156" y1="10.1992" x2="2.5908" y2="1.43851" gradientUnits="userSpaceOnUse">
<stop stop-color="#00AFD1"/>
<stop offset="1" stop-color="#A1EFFF"/>
</linearGradient>
<linearGradient id="paint2_linear_1041_4978" x1="29.0175" y1="28.2993" x2="19.1431" y2="22.2154" gradientUnits="userSpaceOnUse">
<stop stop-color="#00B4D8"/>
<stop offset="1" stop-color="#1FDAFF"/>
</linearGradient>
</defs>
</svg>
