<svg width="32" height="32" viewBox="0 0 32 32" fill="none" xmlns="http://www.w3.org/2000/svg">
<path d="M28.3537 2.57239C28.3525 2.91921 28.214 3.25174 27.9688 3.497C27.7233 3.7424 27.3902 3.88093 27.0431 3.8819H26.1762V4.9199C26.1753 5.26708 26.0368 5.60011 25.7913 5.8456C25.546 6.09094 25.2137 6.22944 24.8667 6.2305H24.737C24.7354 9.6032 23.603 12.7715 20.7191 14.8191C20.7146 14.8254 20.7096 14.8315 20.7038 14.8366C20.3229 15.1606 19.8446 15.6482 19.8708 16.0349C19.8817 16.1961 20.0432 16.4242 20.2448 16.652C20.5093 16.9113 21.0307 17.3823 21.2501 17.5799C23.7443 19.6279 24.737 22.6095 24.737 25.7684H24.8646C25.2116 25.7694 25.5437 25.9078 25.7892 26.1533C26.0346 26.3987 26.173 26.7308 26.1741 27.0779V28.118H27.0431C27.3902 28.1191 27.7233 28.2575 27.9688 28.5029C28.2142 28.7484 28.3526 29.0815 28.3537 29.4286V30.495H3.64647V29.4286C3.64764 29.0816 3.78701 28.7494 4.03245 28.504C4.27789 28.2587 4.61002 28.1202 4.95706 28.1191H5.85878V27.0779C5.85979 26.7309 5.99836 26.3987 6.24367 26.1533C6.48916 25.9078 6.8222 25.7693 7.16937 25.7684H7.29476C7.29557 22.6529 8.28373 19.7185 10.7032 17.6737L10.6966 17.6693C10.7052 17.6616 11.4634 16.982 11.8022 16.652C12.0051 16.4242 12.1649 16.1962 12.1762 16.0349C12.2024 15.6482 11.7241 15.159 11.3432 14.8366C11.3303 14.8261 11.3204 14.8119 11.3149 14.7962C8.44806 12.7474 7.29479 9.59675 7.29476 6.23268H7.16937C6.82226 6.23161 6.48913 6.09321 6.24367 5.84779C5.9982 5.60232 5.85984 5.26922 5.85878 4.92208V3.8819H4.95706C4.61014 3.88081 4.27786 3.7422 4.03245 3.497C3.78699 3.25154 3.64753 2.91844 3.64647 2.5713V1.50495H28.3537V2.57239ZM9.27373 6.23159C9.2951 7.11789 9.50277 10.6947 11.4293 12.3113C11.4293 12.3113 11.6753 12.6059 12.2253 13.0495C12.2571 13.0817 12.289 13.113 12.3212 13.1444C12.2898 13.1399 12.4484 13.2898 13.0158 13.7713C14.3311 14.8875 14.1999 16.2699 14.1225 16.6902H14.0941C13.9953 17.1805 13.4977 17.7641 13.0452 18.2101C12.7545 18.4316 12.4806 18.6747 12.2253 18.9363C11.6754 19.3794 11.4293 19.6733 11.4293 19.6733L11.4283 19.6744C9.50862 21.2862 9.29635 24.8446 9.27373 25.7455H12.8348C12.8461 25.5983 12.9138 25.2615 13.2666 24.8405C13.6958 24.3283 14.8188 22.9876 15.1997 22.0165V14.4201C13.1087 13.2721 10.2575 10.718 10.2572 7.721H21.7429C21.4629 10.7583 20.0237 12.7882 16.9334 14.4201V22.397C17.4105 23.3104 18.3146 24.3915 18.6899 24.8394C19.0429 25.2606 19.1097 25.598 19.1206 25.7455H22.7198C22.6972 24.8442 22.4854 21.2873 20.5653 19.6744C20.5653 19.6744 20.3194 19.3798 19.7694 18.9363C19.514 18.6747 19.2392 18.4327 18.9484 18.2112C18.4963 17.7652 17.9997 17.1816 17.9005 16.6913H17.8722C17.7948 16.272 17.6635 14.8884 18.9789 13.7724C19.5462 13.2909 19.7037 13.141 19.6734 13.1455C19.7056 13.1141 19.7376 13.0828 19.7694 13.0506C20.3194 12.607 20.5653 12.3124 20.5653 12.3124C22.4919 10.6959 22.6985 7.12004 22.7198 6.23268H11.7226L9.27373 6.23159Z" fill="url(#paint0_linear_1041_4972)"/>
<path d="M21.7432 7.72058C21.5456 9.86443 20.7698 11.5059 19.2441 12.8602C18.1166 12.7319 16.881 12.2256 15.7695 11.3573C14.4377 10.3168 13.5674 8.97771 13.2812 7.72058H21.7432Z" fill="url(#paint1_linear_1041_4972)"/>
<defs>
<linearGradient id="paint0_linear_1041_4972" x1="29.5119" y1="29.2622" x2="0.725551" y2="2.88414" gradientUnits="userSpaceOnUse">
<stop offset="0.505078" stop-color="#2573FD"/>
<stop offset="1" stop-color="#A1C3FF"/>
</linearGradient>
<linearGradient id="paint1_linear_1041_4972" x1="20.6688" y1="11.5759" x2="14.144" y2="9.67304" gradientUnits="userSpaceOnUse">
<stop stop-color="#87C1FF"/>
<stop offset="1" stop-color="#6CA1FD" stop-opacity="0.2"/>
</linearGradient>
</defs>
</svg>
