<svg width="32" height="32" viewBox="0 0 32 32" fill="none" xmlns="http://www.w3.org/2000/svg">
<path d="M24.9846 29.5994H7.01537C6.24739 29.6033 5.50922 29.3024 4.96279 28.7628C4.41635 28.2232 4.10628 27.4888 4.10059 26.7209V5.28044C4.10598 4.51229 4.41592 3.77765 4.96239 3.23777C5.50886 2.69789 6.2472 2.39687 7.01537 2.40079H8.44443C8.67929 2.40122 8.90517 2.4911 9.07612 2.65215C9.24706 2.8132 9.35024 3.03333 9.36464 3.26775V5.05719C9.38481 5.5199 9.58292 5.95694 9.91762 6.27707C10.2523 6.5972 10.6977 6.77567 11.1609 6.77523H20.7404C21.214 6.77765 21.6691 6.59217 22.006 6.25947C22.343 5.92678 22.5342 5.47403 22.5378 5.00053V3.30741C22.5399 3.06545 22.6378 2.83418 22.8101 2.66425C22.9823 2.49432 23.2149 2.39959 23.4569 2.40079H24.9857C25.7537 2.39717 26.4917 2.69832 27.0379 3.23817C27.5842 3.77802 27.8939 4.51248 27.8993 5.28044V26.7209C27.8936 27.4888 27.5836 28.2232 27.0371 28.7628C26.4907 29.3024 25.7525 29.6033 24.9846 29.5994Z" fill="url(#paint0_linear_1041_6915)"/>
<path d="M24.9854 2.4014C25.7533 2.39778 26.4919 2.69847 27.0381 3.23831C27.5842 3.77809 27.894 4.51246 27.8994 5.28031V11.1475C24.789 13.1282 20.8134 13.2168 17.8262 11.0498C16.3244 9.96027 15.287 8.45567 14.7432 6.77542H20.7402C21.2136 6.77784 21.6689 6.59235 22.0059 6.2598C22.3427 5.92719 22.5344 5.47438 22.5381 5.00101V3.30765C22.5402 3.06569 22.6383 2.83402 22.8105 2.66409C22.9828 2.49438 23.2152 2.40019 23.457 2.4014H24.9854Z" fill="url(#paint1_linear_1041_6915)"/>
<path fill-rule="evenodd" clip-rule="evenodd" d="M10.8576 11.1674C11.2432 10.7816 11.8685 10.7816 12.2542 11.1674L15.9997 14.9143L19.7452 11.1674C20.1309 10.7816 20.7562 10.7816 21.1418 11.1674C21.5275 11.5532 21.5275 12.1787 21.1418 12.5645L17.3963 16.3114L21.1418 20.0583C21.5275 20.4441 21.5275 21.0696 21.1418 21.4554C20.7562 21.8412 20.1309 21.8412 19.7452 21.4554L15.9997 17.7085L12.2542 21.4554C11.8685 21.8412 11.2432 21.8412 10.8576 21.4554C10.4719 21.0696 10.4719 20.4441 10.8576 20.0583L14.6031 16.3114L10.8576 12.5645C10.4719 12.1787 10.4719 11.5532 10.8576 11.1674Z" fill="white"/>
<path d="M12.8218 4.21419H19.3948C19.6425 4.22121 19.8829 4.12972 20.0633 3.95976C20.2437 3.78981 20.3493 3.55527 20.357 3.30757C20.3493 3.05947 20.2434 2.82458 20.0625 2.65456C19.8816 2.48455 19.6407 2.39332 19.3926 2.40096H12.8196C12.5719 2.39394 12.3315 2.48543 12.1511 2.65538C11.9707 2.82534 11.8651 3.05988 11.8574 3.30757C11.86 3.4308 11.8872 3.55226 11.9373 3.66487C11.9874 3.77747 12.0595 3.87895 12.1493 3.96337C12.2391 4.04779 12.3448 4.11345 12.4603 4.15652C12.5758 4.19959 12.6987 4.21919 12.8218 4.21419Z" fill="url(#paint2_linear_1041_6915)"/>
<defs>
<linearGradient id="paint0_linear_1041_6915" x1="19.9159" y1="14.3317" x2="6.07131" y2="3.27306" gradientUnits="userSpaceOnUse">
<stop stop-color="#8396B3"/>
<stop offset="1" stop-color="#C9D1DE"/>
</linearGradient>
<linearGradient id="paint1_linear_1041_6915" x1="20.023" y1="19.9727" x2="22.5602" y2="27.8188" gradientUnits="userSpaceOnUse">
<stop stop-color="#9DADC9"/>
<stop offset="1" stop-color="#9DADC9" stop-opacity="0"/>
</linearGradient>
<linearGradient id="paint2_linear_1041_6915" x1="17.5058" y1="3.19644" x2="17.0858" y2="1.40065" gradientUnits="userSpaceOnUse">
<stop stop-color="#8396B3"/>
<stop offset="1" stop-color="#C9D1DE"/>
</linearGradient>
</defs>
</svg>
