<svg width="32" height="32" viewBox="0 0 32 32" fill="none" xmlns="http://www.w3.org/2000/svg">
<path d="M27.9133 3.20668L3.19076 13.1148C2.23951 13.5079 2.13014 14.8117 3.00232 15.3582L10.1779 19.8507H10.1929C10.6408 20.0679 11.0751 20.0679 11.5226 19.6364L11.5364 19.6201C11.5498 19.6067 11.5633 19.6067 11.5633 19.5929C11.5795 19.5779 23.5298 9.6548 23.557 9.66824C23.572 9.66824 13.3698 20.2092 13.1254 20.4832L13.1104 20.4982C12.8948 20.7126 12.8948 20.942 12.8948 21.1576V26.497C12.8948 26.9407 13.1104 27.3711 13.5583 27.6001C14.0061 27.8173 14.4401 27.6001 14.6711 27.3845L16.3889 25.1895C16.6792 24.9029 16.9536 24.6154 17.2276 24.3292C17.2576 24.2992 17.2845 24.2707 17.3145 24.2707C17.3567 24.2557 17.4148 24.2857 17.4448 24.3154C18.1095 24.7517 21.2686 27.1348 23.2417 28.6301C23.9879 29.1957 25.067 28.7823 25.2473 27.8632L29.5679 4.56168C29.7542 3.61168 28.8079 2.83668 27.9133 3.20668Z" fill="url(#paint0_linear_1041_6953)"/>
<path d="M25.2477 27.8629C25.0674 28.7819 23.9881 29.196 23.2418 28.6305C21.2687 27.1352 18.1096 24.7513 17.4449 24.3151C17.4149 24.2855 17.3571 24.2563 17.315 24.2711C17.2852 24.2711 17.258 24.2989 17.2281 24.3287C16.9542 24.6149 16.6795 24.9026 16.3893 25.1891L14.6715 27.3844C14.5658 27.4831 14.4164 27.5798 14.2438 27.6373C14.1613 24.5365 16.0837 20.8319 19.525 18.0875C22.1318 16.0087 25.0821 14.9012 27.6656 14.8209L25.2477 27.8629Z" fill="url(#paint1_linear_1041_6953)"/>
<defs>
<linearGradient id="paint0_linear_1041_6953" x1="19.4044" y1="13.1436" x2="3.82188" y2="2.17759" gradientUnits="userSpaceOnUse">
<stop stop-color="#00AFD1"/>
<stop offset="1" stop-color="#A1EFFF"/>
</linearGradient>
<linearGradient id="paint1_linear_1041_6953" x1="15.2078" y1="25.6602" x2="28.7391" y2="19.6551" gradientUnits="userSpaceOnUse">
<stop stop-color="#00AFD2"/>
<stop offset="1" stop-color="#07D6FF"/>
</linearGradient>
</defs>
</svg>
