<svg width="32" height="32" viewBox="0 0 32 32" fill="none" xmlns="http://www.w3.org/2000/svg">
<path fill-rule="evenodd" clip-rule="evenodd" d="M26 27.0012V28.0028C25.9987 29.0279 25.2272 29.8726 24.2331 29.9891L24 30.0028H8C6.97486 30.0015 6.13025 29.23 6.01372 28.2359L6 28.0028V27.0012H26ZM19.7852 3.3462C22.093 5.2151 22.6781 8.49527 21.1587 11.0468C20.5196 12.0575 20.1329 13.2042 20.0277 14.3905L20 14.901V18.0028H26C27.0252 18.0038 27.87 18.7754 27.9863 19.7697L28 20.0028V23.0028C27.9987 24.0279 27.2272 24.8726 26.2331 24.9891L26 25.0028H6C4.97486 25.0015 4.13025 24.23 4.01372 23.2359L4 23.0028V20.0028C4.00102 18.9776 4.77262 18.1328 5.76686 18.0165L6 18.0028H12V14.797C11.9656 13.47 11.5678 12.1779 10.8501 11.0612C10.0928 9.81 9.8264 8.32246 10.1023 6.8862C10.4931 4.80737 11.9501 3.08817 13.9368 2.36186C15.9234 1.63556 18.1458 2.0096 19.7852 3.3462ZM18 16.0028H14V18.0028H18V16.0028Z" fill="url(#paint0_linear_1041_6947)"/>
<path d="M13.9375 2.36228C15.9241 1.63608 18.1458 2.01013 19.7852 3.34665C22.093 5.21553 22.6785 8.49533 21.1592 11.0468C20.9769 11.335 20.8173 11.6353 20.6768 11.9433C16.2824 11.7616 12.7754 8.14305 12.7754 3.70408C12.7754 3.43724 12.7887 3.17341 12.8135 2.91306C13.1642 2.69337 13.5401 2.50757 13.9375 2.36228Z" fill="url(#paint1_linear_1041_6947)"/>
<defs>
<linearGradient id="paint0_linear_1041_6947" x1="18.3493" y1="17.1784" x2="-0.27217" y2="-0.890037" gradientUnits="userSpaceOnUse">
<stop stop-color="#2573FD"/>
<stop offset="1" stop-color="#A1C3FF"/>
</linearGradient>
<linearGradient id="paint1_linear_1041_6947" x1="22.0006" y1="6.02607" x2="17.2622" y2="12.9448" gradientUnits="userSpaceOnUse">
<stop offset="0.0277979" stop-color="#87C1FF"/>
<stop offset="1" stop-color="#6CA1FD" stop-opacity="0.2"/>
</linearGradient>
</defs>
</svg>
