<svg width="32" height="32" viewBox="0 0 32 32" fill="none" xmlns="http://www.w3.org/2000/svg">
<path fill-rule="evenodd" clip-rule="evenodd" d="M1.82232 15.8519L8.87124 4.39739C9.2535 3.77622 9.93066 3.39783 10.66 3.39783H28.3896C29.5496 3.39783 30.49 4.33819 30.49 5.49819V26.5018C30.49 27.6618 29.5496 28.6022 28.3896 28.6022H10.5559C9.88393 28.6022 9.25252 28.2806 8.85728 27.7372L1.91247 18.1881C1.41175 17.4996 1.37614 16.5769 1.82232 15.8519ZM12.8992 10.5316C13.3093 10.1215 13.9742 10.1215 14.3844 10.5316L18.3676 14.5148L22.3508 10.5316C22.7609 10.1215 23.4259 10.1215 23.836 10.5316C24.2461 10.9417 24.2461 11.6067 23.836 12.0168L19.8528 16L23.836 19.9832C24.2461 20.3933 24.2461 21.0583 23.836 21.4684C23.4259 21.8785 22.7609 21.8785 22.3508 21.4684L18.3676 17.4852L14.3844 21.4684C13.9742 21.8785 13.3093 21.8785 12.8992 21.4684C12.4891 21.0583 12.4891 20.3933 12.8992 19.9832L16.8824 16L12.8992 12.0168C12.4891 11.6066 12.4891 10.9417 12.8992 10.5316Z" fill="url(#paint0_linear_1041_7206)"/>
<path fill-rule="evenodd" clip-rule="evenodd" d="M12.8472 10.4705C13.2619 10.0557 13.9343 10.0557 14.349 10.4705L18.3768 14.4983L22.4046 10.4705C22.8193 10.0557 23.4917 10.0557 23.9064 10.4705C24.3211 10.8852 24.3211 11.5575 23.9064 11.9723L19.8786 16.0001L23.9064 20.0279C24.3211 20.4426 24.3211 21.1149 23.9064 21.5297C23.4917 21.9444 22.8193 21.9444 22.4046 21.5297L18.3768 17.5019L14.349 21.5297C13.9343 21.9444 13.2619 21.9444 12.8472 21.5297C12.4325 21.1149 12.4325 20.4426 12.8472 20.0279L16.875 16.0001L12.8472 11.9723C12.4325 11.5575 12.4325 10.8852 12.8472 10.4705Z" fill="#FEF7F7"/>
<path d="M5.03046 13.9132C8.91411 12.889 12.8803 14.8512 14.5012 18.38L12.8986 19.9835C12.4885 20.3936 12.4885 21.0587 12.8986 21.4688C13.3088 21.8786 13.974 21.8788 14.384 21.4688L15.1711 20.6798C15.6082 23.8347 14.1529 26.9096 11.5617 28.6026H10.5549C9.88306 28.6025 9.25184 28.2807 8.85663 27.7374L1.91132 18.1885C1.4106 17.5001 1.37531 16.5767 1.82148 15.8516L2.14179 15.3292C2.9757 14.6874 3.94919 14.1983 5.03046 13.9132Z" fill="url(#paint1_linear_1041_7206)" fill-opacity="0.9"/>
<defs>
<linearGradient id="paint0_linear_1041_7206" x1="28.0969" y1="27.2131" x2="8.75873" y2="-4.45298" gradientUnits="userSpaceOnUse">
<stop stop-color="#FE6C6C"/>
<stop offset="1" stop-color="#FFC7C7"/>
</linearGradient>
<linearGradient id="paint1_linear_1041_7206" x1="5.10652" y1="29.0808" x2="6.1019" y2="16.761" gradientUnits="userSpaceOnUse">
<stop stop-color="#FBA9A9"/>
<stop offset="1" stop-color="#FF7272"/>
</linearGradient>
</defs>
</svg>
