<svg width="32" height="32" viewBox="0 0 32 32" fill="none" xmlns="http://www.w3.org/2000/svg">
<path d="M1.32617 8.29785H30.673V27.2599C30.673 28.3644 29.7776 29.2599 28.673 29.2599H3.32617C2.2216 29.2599 1.32617 28.3644 1.32617 27.2599V8.29785Z" fill="url(#paint0_linear_1041_6603)"/>
<path d="M21.9131 19.7819C25.4459 19.7819 28.5999 20.8752 30.6738 22.5865V27.2604C30.6736 28.3647 29.7782 29.2603 28.6738 29.2604H10.9404C10.7213 28.6677 10.6036 28.0482 10.6035 27.4098C10.6035 23.1973 15.667 19.7819 21.9131 19.7819Z" fill="url(#paint1_linear_1041_6603)"/>
<path fill-rule="evenodd" clip-rule="evenodd" d="M17.458 14.6709C17.6798 14.2887 18.1696 14.1583 18.5518 14.38C18.9338 14.6018 19.0632 15.0917 18.8415 15.4738L14.541 22.887C14.3192 23.2689 13.8292 23.3993 13.4472 23.1779C13.0652 22.9562 12.935 22.4662 13.1563 22.0842L17.458 14.6709ZM9.89072 14.8908C10.2228 14.5997 10.728 14.6321 11.0193 14.9642C11.3102 15.2961 11.2774 15.8014 10.946 16.0927L7.91716 18.7501L10.952 21.47C11.2806 21.7649 11.308 22.2709 11.0133 22.5998C10.7185 22.9285 10.2125 22.9556 9.88351 22.6611L6.17797 19.339C6.00767 19.1863 5.90998 18.968 5.91114 18.7393C5.91245 18.5106 6.01206 18.2928 6.18398 18.142L9.89072 14.8908ZM20.9797 14.9642C21.271 14.6322 21.7762 14.5997 22.1083 14.8908L25.815 18.142C25.9869 18.2928 26.0866 18.5106 26.0879 18.7393C26.089 18.968 25.9913 19.1863 25.821 19.339L22.1155 22.6611C21.7865 22.9556 21.2805 22.9285 20.9857 22.5998C20.6911 22.2709 20.7184 21.7649 21.047 21.47L24.0818 18.7501L21.053 16.0927C20.7216 15.8013 20.6888 15.296 20.9797 14.9642Z" fill="#E8F2FE"/>
<path d="M1.32617 8.29785H30.673V5.40671C30.673 4.30214 29.7776 3.40671 28.673 3.40671H3.32617C2.2216 3.40671 1.32617 4.30214 1.32617 5.40671V8.29785Z" fill="#639DFC"/>
<path d="M4.08398 4.95166C4.32311 4.95176 4.55262 5.04649 4.72168 5.21533C4.89073 5.38418 4.98527 5.61333 4.98535 5.85205C4.98535 6.09074 4.89062 6.31988 4.72168 6.48877C4.55262 6.65761 4.32311 6.75332 4.08398 6.75342C3.84473 6.75342 3.61446 6.65769 3.44531 6.48877C3.27645 6.31989 3.18164 6.09068 3.18164 5.85205C3.18172 5.61339 3.27633 5.38417 3.44531 5.21533C3.61446 5.04641 3.84473 4.95166 4.08398 4.95166Z" fill="#E8F2FE" stroke="#E8F2FE" stroke-width="0.195312"/>
<path d="M7.54297 4.854C7.80803 4.85402 8.06256 4.95883 8.25 5.146C8.43741 5.33316 8.5429 5.58737 8.54297 5.85205C8.54297 6.11673 8.43734 6.3709 8.25 6.55811C8.06255 6.74531 7.80806 6.85106 7.54297 6.85107C7.27785 6.85107 7.0234 6.74533 6.83594 6.55811C6.64855 6.37089 6.54297 6.11677 6.54297 5.85205C6.54304 5.58737 6.64853 5.33316 6.83594 5.146C7.02339 4.95885 7.27791 4.854 7.54297 4.854Z" fill="#E8F2FE"/>
<path d="M11.0039 4.95166C11.243 4.95176 11.4725 5.04649 11.6416 5.21533C11.8107 5.38418 11.9052 5.61333 11.9053 5.85205C11.9053 6.09073 11.8105 6.31988 11.6416 6.48877C11.4725 6.65761 11.243 6.75332 11.0039 6.75342C10.7646 6.75342 10.5344 6.65769 10.3652 6.48877C10.1964 6.31989 10.1016 6.09068 10.1016 5.85205C10.1016 5.61339 10.1963 5.38417 10.3652 5.21533C10.5344 5.04641 10.7646 4.95166 11.0039 4.95166Z" fill="#E8F2FE" stroke="#E8F2FE" stroke-width="0.195312"/>
<defs>
<linearGradient id="paint0_linear_1041_6603" x1="24.6702" y1="18.7789" x2="7.7222" y2="2.50874" gradientUnits="userSpaceOnUse">
<stop stop-color="#2573FD"/>
<stop offset="1" stop-color="#A1C3FF"/>
</linearGradient>
<linearGradient id="paint1_linear_1041_6603" x1="31.5728" y1="27.467" x2="12.9175" y2="27.5865" gradientUnits="userSpaceOnUse">
<stop stop-color="#87C1FF"/>
<stop offset="1" stop-color="#6CA1FD" stop-opacity="0.2"/>
</linearGradient>
</defs>
</svg>
