<svg width="32" height="32" viewBox="0 0 32 32" fill="none" xmlns="http://www.w3.org/2000/svg">
<path d="M5.78125 4.40674C5.78125 3.30217 6.67668 2.40674 7.78125 2.40674H24.221C25.3256 2.40674 26.221 3.30217 26.221 4.40674V22.243C26.221 23.3476 25.3256 24.243 24.221 24.243H7.78125C6.67668 24.243 5.78125 23.3476 5.78125 22.243V4.40674Z" fill="url(#paint0_linear_1041_4986)"/>
<path d="M26.2197 22.743C26.2197 23.5715 25.5482 24.243 24.7197 24.243H16.2422C16.0832 23.6447 16 23.0288 16 22.4003C16.0002 17.9056 20.2423 14.0694 26.2197 12.5448V22.743Z" fill="url(#paint1_linear_1041_4986)"/>
<path d="M22.7202 6.07318C23.23 6.07318 23.6433 6.48646 23.6433 6.99626C23.6433 7.50606 23.23 7.91934 22.7202 7.91934H9.28148C8.77167 7.91934 8.3584 7.50606 8.3584 6.99626C8.3584 6.48646 8.77167 6.07318 9.28148 6.07318H22.7202Z" fill="#F0F2FE"/>
<path d="M17.4017 10.4706C17.9114 10.4706 18.3247 10.8839 18.3247 11.3937C18.3247 11.9034 17.9114 12.3167 17.4017 12.3167H9.28148C8.77167 12.3167 8.3584 11.9035 8.3584 11.3937C8.3584 10.8839 8.77167 10.4706 9.28148 10.4706H17.4017Z" fill="#F0F2FE"/>
<path d="M13.3735 14.9129C13.8833 14.9185 14.282 15.336 14.2642 15.8455C14.2463 16.355 13.8186 16.7635 13.3088 16.7579L9.24897 16.7135C8.7392 16.7079 8.34043 16.2904 8.35829 15.7809C8.37615 15.2714 8.80388 14.8629 9.31365 14.8685L13.3735 14.9129Z" fill="#F0F2FE"/>
<path d="M11.4424 20.0406C11.9867 20.0407 12.5077 20.2622 12.8848 20.6548L14.5566 22.397C15.3438 23.2169 16.6553 23.2169 17.4424 22.397L19.1143 20.6548C19.4914 20.262 20.013 20.0406 20.5576 20.0406H27.1016C28.2061 20.0406 29.1016 20.936 29.1016 22.0406V27.5933C29.1016 28.6979 28.2061 29.5933 27.1016 29.5933H4.89746C3.79312 29.5931 2.89844 28.6977 2.89844 27.5933V22.0406C2.89844 20.936 3.79387 20.0406 4.89844 20.0406H11.4424Z" fill="url(#paint2_linear_1041_4986)"/>
<defs>
<linearGradient id="paint0_linear_1041_4986" x1="21.5389" y1="17.231" x2="3.43185" y2="-1.57189" gradientUnits="userSpaceOnUse">
<stop stop-color="#A5ACFE"/>
<stop offset="1" stop-color="#4F5DFC"/>
</linearGradient>
<linearGradient id="paint1_linear_1041_4986" x1="36.3066" y1="14.1546" x2="15.9999" y2="22.6476" gradientUnits="userSpaceOnUse">
<stop stop-color="#6C78FD"/>
<stop offset="1" stop-color="#8791FF"/>
</linearGradient>
<linearGradient id="paint2_linear_1041_4986" x1="23.7418" y1="24.817" x2="17.3338" y2="12.764" gradientUnits="userSpaceOnUse">
<stop stop-color="#4F5DFC"/>
<stop offset="1" stop-color="#A5ACFE"/>
</linearGradient>
</defs>
</svg>
