<svg width="32" height="32" viewBox="0 0 32 32" fill="none" xmlns="http://www.w3.org/2000/svg">
<path d="M3.09961 2.98682C3.09961 1.88225 3.99504 0.986816 5.09961 0.986816L19.9032 0.986816V8.60134C19.9032 9.42977 20.5748 10.1013 21.4032 10.1013H28.9008V29.0132C28.9008 30.1177 28.0054 31.0132 26.9008 31.0132H5.09961C3.99504 31.0132 3.09961 30.1177 3.09961 29.0132V2.98682Z" fill="url(#paint0_linear_1041_6506)"/>
<mask id="mask0_1041_6506" style="mask-type:alpha" maskUnits="userSpaceOnUse" x="3" y="0" width="26" height="32">
<path d="M3.09961 2.98682C3.09961 1.88225 3.99504 0.986816 5.09961 0.986816L19.9032 0.986816V8.60134C19.9032 9.42977 20.5748 10.1013 21.4032 10.1013H28.9008V29.0132C28.9008 30.1177 28.0054 31.0132 26.9008 31.0132H5.09961C3.99504 31.0132 3.09961 30.1177 3.09961 29.0132V2.98682Z" fill="url(#paint1_linear_1041_6506)"/>
</mask>
<g mask="url(#mask0_1041_6506)">
<ellipse cx="21.3608" cy="26.0313" rx="10.8268" ry="10.9815" transform="rotate(53.488 21.3608 26.0313)" fill="url(#paint2_linear_1041_6506)"/>
</g>
<path d="M15.6435 26.1225C15.9833 26.1226 16.2589 26.3981 16.2589 26.7379C16.2587 27.0776 15.9831 27.3532 15.6435 27.3533H8.31656C7.97695 27.3531 7.70137 27.0775 7.70117 26.7379C7.70117 26.3982 7.97683 26.1227 8.31656 26.1225H15.6435ZM12.7456 23.9338C13.0855 23.9338 13.361 24.2094 13.361 24.5492C13.361 24.8891 13.0855 25.1646 12.7456 25.1646H8.31656C7.97683 25.1644 7.70117 24.889 7.70117 24.5492C7.70117 24.2095 7.97683 23.934 8.31656 23.9338H12.7456Z" fill="#F3FDFF"/>
<path fill-rule="evenodd" clip-rule="evenodd" d="M21.8948 14.1183L20.8901 13.1135C20.6755 12.8994 20.3848 12.7792 20.0817 12.7792C19.7786 12.7792 19.4878 12.8994 19.2732 13.1135L12.0451 20.3414L11.6081 23.4002L14.6669 22.9632L21.8948 15.7351C22.1089 15.5205 22.2291 15.2298 22.2291 14.9267C22.2291 14.6236 22.1089 14.3328 21.8948 14.1183ZM15.9235 15.3885L15.2306 14.7233C15.6245 13.7117 15.4057 12.5021 14.596 11.6884C13.7206 10.8087 12.4075 10.6328 11.3571 11.1386L13.261 13.0519L11.9261 14.3935L10.0221 12.4801C9.5188 13.5358 9.69388 14.8553 10.5692 15.735C11.379 16.5487 12.5826 16.7686 13.5893 16.3727L14.2821 17.0379C14.4572 17.2139 14.7417 17.2139 14.8949 17.0379L15.9234 16.0043C16.0985 15.8504 16.0985 15.5645 15.9235 15.3885ZM19.5207 18.8727C19.4133 18.7658 19.2395 18.7663 19.1326 18.8737L17.8948 20.1179C17.7879 20.2253 17.7884 20.3991 17.8958 20.506L20.649 23.2451C20.7564 23.352 20.9302 23.3516 21.0371 23.2441L22.2749 22C22.3818 21.8925 22.3814 21.7188 22.2739 21.6119L19.5207 18.8727Z" fill="#F3FDFF"/>
<path d="M21.6523 0.986816C21.6909 1.01982 21.729 1.05403 21.7653 1.09041L28.7972 8.12225C28.8335 8.15862 28.8678 8.19669 28.9008 8.23523C28.3276 8.23523 25.2059 8.23523 23.2507 8.23523C22.6918 8.23523 22.4123 8.23523 22.1984 8.12624C22.0102 8.03037 21.8572 7.87739 21.7613 7.68923C21.6523 7.47531 21.6523 7.19529 21.6523 6.63523L21.6523 0.986816Z" fill="url(#paint3_linear_1041_6506)"/>
<defs>
<linearGradient id="paint0_linear_1041_6506" x1="19.2316" y1="12.6722" x2="2.58853" y2="3.12923" gradientUnits="userSpaceOnUse">
<stop stop-color="#00AFD1"/>
<stop offset="1" stop-color="#A1EFFF"/>
</linearGradient>
<linearGradient id="paint1_linear_1041_6506" x1="19.2316" y1="12.6722" x2="2.58853" y2="3.12923" gradientUnits="userSpaceOnUse">
<stop stop-color="#00AFD1"/>
<stop offset="1" stop-color="#A1EFFF"/>
</linearGradient>
<linearGradient id="paint2_linear_1041_6506" x1="24.421" y1="32.1037" x2="9.76651" y2="19.1501" gradientUnits="userSpaceOnUse">
<stop stop-color="#00B4D8"/>
<stop offset="1" stop-color="#1FDAFF"/>
</linearGradient>
<linearGradient id="paint3_linear_1041_6506" x1="28.4833" y1="7.95718" x2="21.9821" y2="0.981547" gradientUnits="userSpaceOnUse">
<stop offset="0.505078" stop-color="#00AFD1"/>
<stop offset="1" stop-color="#86E4F7"/>
</linearGradient>
</defs>
</svg>
