<svg width="32" height="32" viewBox="0 0 32 32" fill="none" xmlns="http://www.w3.org/2000/svg">
<path d="M27.5631 28.5449H4.43543C3.89896 28.5449 3.46289 28.0936 3.46289 27.5384V19.2622C3.46289 18.1576 4.35832 17.2622 5.46289 17.2622H27.5631C28.0995 17.2622 28.5356 17.7135 28.5356 18.2687V27.5352C28.5356 28.0936 28.1027 28.5449 27.5631 28.5449Z" fill="url(#paint0_linear_1041_6443)"/>
<path d="M13.3896 3.45471C13.9293 3.45471 14.3662 3.89089 14.3662 4.42737V27.528C14.3662 28.0801 13.9183 28.5277 13.3662 28.528H4.43652C3.90005 28.528 3.46387 28.0918 3.46387 27.5553V4.42737C3.46387 3.89089 3.90005 3.45471 4.43652 3.45471H13.3896ZM27.0596 4.06409C27.6618 4.06418 28.1515 4.55071 28.1484 5.15295V13.8746C28.1484 14.4738 27.6618 14.9634 27.0596 14.9635H18.3379C17.7387 14.9635 17.249 14.477 17.249 13.8746V5.15295C17.2491 4.55378 17.7356 4.06409 18.3379 4.06409H27.0596Z" fill="url(#paint1_linear_1041_6443)"/>
<path d="M6.14062 17.4244C9.77589 17.4245 12.912 19.5729 14.3662 22.6774V27.528C14.3661 28.0801 13.9183 28.5278 13.3662 28.528H4.43652C3.90005 28.528 3.46387 28.0918 3.46387 27.5553V17.8278C4.3101 17.5656 5.209 17.4244 6.14062 17.4244Z" fill="url(#paint2_linear_1041_6443)"/>
<path d="M22.4615 6.72949C22.654 6.39616 23.1351 6.39616 23.3276 6.72949L26.2614 11.8111C26.4539 12.1444 26.2133 12.5611 25.8284 12.5611H19.9607C19.5758 12.5611 19.3352 12.1444 19.5277 11.8111L22.4615 6.72949Z" fill="#F0F2FE"/>
<defs>
<linearGradient id="paint0_linear_1041_6443" x1="18.6628" y1="17.2622" x2="15.3798" y2="25.4245" gradientUnits="userSpaceOnUse">
<stop stop-color="#4F5DFC"/>
<stop offset="1" stop-color="#A5ACFE"/>
</linearGradient>
<linearGradient id="paint1_linear_1041_6443" x1="17.1111" y1="17.3227" x2="8.59714" y2="1.61149" gradientUnits="userSpaceOnUse">
<stop stop-color="#4F5DFC"/>
<stop offset="1" stop-color="#A5ACFE"/>
</linearGradient>
<linearGradient id="paint2_linear_1041_6443" x1="4.11197" y1="18.5624" x2="12.6601" y2="28.0608" gradientUnits="userSpaceOnUse">
<stop stop-color="#8791FF"/>
<stop offset="1" stop-color="#6C78FD" stop-opacity="0.5"/>
</linearGradient>
</defs>
</svg>
