<svg width="32" height="32" viewBox="0 0 32 32" fill="none" xmlns="http://www.w3.org/2000/svg">
<path d="M23.8613 17.9316C26.9623 17.9318 29.4763 20.446 29.4766 23.5469C29.4766 26.648 26.9624 29.1629 23.8613 29.1631H8.1377C5.03662 29.1629 2.52246 26.648 2.52246 23.5469C2.52271 20.446 5.03677 17.9318 8.1377 17.9316H23.8613ZM23.8623 2.83691C26.9632 2.83713 29.4773 5.35123 29.4775 8.45215C29.4775 11.5533 26.9634 14.0681 23.8623 14.0684H8.13867C5.03758 14.0682 2.52344 11.5533 2.52344 8.45215C2.52367 5.35121 5.03773 2.83711 8.13867 2.83691H23.8623Z" fill="url(#paint0_linear_1041_6012)"/>
<mask id="mask0_1041_6012" style="mask-type:alpha" maskUnits="userSpaceOnUse" x="2" y="2" width="28" height="28">
<path d="M23.8613 17.9316C26.9623 17.9318 29.4763 20.446 29.4766 23.5469C29.4766 26.648 26.9624 29.1629 23.8613 29.1631H8.1377C5.03662 29.1629 2.52246 26.648 2.52246 23.5469C2.52271 20.446 5.03677 17.9318 8.1377 17.9316H23.8613ZM23.8623 2.83691C26.9632 2.83713 29.4773 5.35123 29.4775 8.45215C29.4775 11.5533 26.9634 14.0681 23.8623 14.0684H8.13867C5.03758 14.0682 2.52344 11.5533 2.52344 8.45215C2.52367 5.35121 5.03773 2.83711 8.13867 2.83691H23.8623Z" fill="url(#paint1_linear_1041_6012)"/>
</mask>
<g mask="url(#mask0_1041_6012)">
<ellipse cx="6.01728" cy="12.7564" rx="12.3111" ry="12.487" transform="rotate(53.488 6.01728 12.7564)" fill="url(#paint2_linear_1041_6012)"/>
</g>
<circle cx="8.7287" cy="8.45257" r="3.40057" fill="#F3FDFF"/>
<circle cx="23.3371" cy="23.5475" r="3.40057" fill="#F3FDFF"/>
<defs>
<linearGradient id="paint0_linear_1041_6012" x1="26.2435" y1="4.60882" x2="10.2045" y2="20.7173" gradientUnits="userSpaceOnUse">
<stop stop-color="#00B4D8"/>
<stop offset="1" stop-color="#1FDAFF"/>
</linearGradient>
<linearGradient id="paint1_linear_1041_6012" x1="26.2435" y1="4.60882" x2="10.2045" y2="20.7173" gradientUnits="userSpaceOnUse">
<stop stop-color="#00B4D8"/>
<stop offset="1" stop-color="#1FDAFF"/>
</linearGradient>
<linearGradient id="paint2_linear_1041_6012" x1="18.669" y1="8.35992" x2="10.4446" y2="6.48019" gradientUnits="userSpaceOnUse">
<stop stop-color="#00B4D8"/>
<stop offset="1" stop-color="#1FDAFF"/>
</linearGradient>
</defs>
</svg>
