<svg width="32" height="32" viewBox="0 0 32 32" fill="none" xmlns="http://www.w3.org/2000/svg">
<path d="M21.9954 8.47162C21.988 7.2834 21.7176 6.11143 21.2035 5.03923C20.6894 3.96703 19.9442 3.02101 19.021 2.26858L17.9918 6.98494L16.7979 6.73887L17.8992 1.52011C16.6524 0.785851 15.2307 0.398499 13.7823 0.398499C12.334 0.398499 10.9123 0.785851 9.66551 1.52011L10.7565 6.64659L9.56259 6.89266L8.6363 2.26858C7.73511 3.02294 7.01026 3.96436 6.51249 5.02698C6.01471 6.08959 5.75602 7.24773 5.75452 8.42036H4.27246V10.4709H6.1662C6.26839 12.4417 7.12623 14.2982 8.56263 15.6571C9.99903 17.016 11.9043 17.7737 13.8853 17.7737C15.8662 17.7737 17.7715 17.016 19.2079 15.6571C20.6443 14.2982 21.5021 12.4417 21.6043 10.4709H23.4775V8.47162H21.9954ZM13.875 16.4689C12.2762 16.4689 10.7427 15.8377 9.61028 14.7134C8.47788 13.5892 7.83897 12.0636 7.83352 10.4709H19.9164C19.911 12.0636 19.2721 13.5892 18.1397 14.7134C17.0073 15.8377 15.4737 16.4689 13.875 16.4689V16.4689Z" fill="url(#paint0_linear_1041_5236)"/>
<path d="M14.9756 24.6508L14.78 21.011H15.0991L15.5725 18.6528H12.1761L12.6496 21.011H12.9686L12.7731 24.6508C11.946 22.1835 10.8557 19.8118 9.52076 17.5762C1.59587 18.6015 0.103516 25.236 0.103516 30.2907H20.3437C19.6183 29.1598 18.4729 27.0218 18.6704 25.4095C18.6688 24.0154 19.088 22.6531 19.8735 21.4994C20.6591 20.3457 21.7746 19.4539 23.0754 18.9399C21.5457 18.2289 19.9071 17.7784 18.2279 17.607C16.8949 19.8328 15.8046 22.1941 14.9756 24.6508Z" fill="url(#paint1_linear_1041_5236)"/>
<path d="M25.659 19.1552C24.4229 19.1531 23.2141 19.5164 22.1853 20.199C21.1566 20.8816 20.3543 21.8529 19.8799 22.9899C19.4055 24.127 19.2803 25.3786 19.5202 26.5866C19.76 27.7945 20.3542 28.9044 21.2275 29.7758C22.1008 30.6472 23.2139 31.241 24.4261 31.4819C25.6382 31.7229 26.8949 31.6002 28.037 31.1295C29.1792 30.6588 30.1555 29.8611 30.8424 28.8374C31.5293 27.8137 31.8959 26.61 31.8959 25.3787C31.8959 23.7299 31.2392 22.1485 30.0698 20.9816C28.9004 19.8148 27.3141 19.1579 25.659 19.1552Z" fill="url(#paint2_linear_1041_5236)"/>
<mask id="mask0_1041_5236" style="mask-type:alpha" maskUnits="userSpaceOnUse" x="19" y="19" width="13" height="13">
<path d="M25.659 19.1552C24.4229 19.1532 23.2141 19.5165 22.1853 20.1991C21.1566 20.8817 20.3543 21.853 19.8799 22.99C19.4055 24.127 19.2803 25.3787 19.5202 26.5866C19.76 27.7946 20.3542 28.9044 21.2275 29.7759C22.1008 30.6473 23.2139 31.241 24.4261 31.482C25.6382 31.7229 26.8949 31.6003 28.037 31.1296C29.1792 30.6588 30.1555 29.8611 30.8424 28.8375C31.5293 27.8138 31.8959 26.6101 31.8959 25.3788C31.8959 23.73 31.2392 22.1485 30.0698 20.9817C28.9004 19.8148 27.3141 19.1579 25.659 19.1552Z" fill="url(#paint3_linear_1041_5236)" fill-opacity="0.8"/>
</mask>
<g mask="url(#mask0_1041_5236)">
<path d="M28.8386 16.4793C27.6026 16.4772 26.3937 16.8405 25.365 17.5231C24.3363 18.2057 23.534 19.177 23.0596 20.314C22.5851 21.4511 22.46 22.7027 22.6998 23.9107C22.9397 25.1186 23.5339 26.2285 24.4072 27.0999C25.2805 27.9713 26.3936 28.565 27.6058 28.806C28.8179 29.047 30.0746 28.9243 31.2167 28.4536C32.3588 27.9829 33.3351 27.1852 34.0221 26.1615C34.709 25.1378 35.0756 23.9341 35.0756 22.7028C35.0756 21.054 34.4189 19.4726 33.2495 18.3057C32.0801 17.1389 30.4937 16.482 28.8386 16.4793Z" fill="url(#paint4_linear_1041_5236)" fill-opacity="0.8"/>
</g>
<path fill-rule="evenodd" clip-rule="evenodd" d="M28.4316 21.977V25.6879H27.8132H28.9629C29.1008 25.6879 29.1508 25.7023 29.2012 25.7292C29.2516 25.7562 29.2911 25.7957 29.3181 25.8461C29.345 25.8965 29.3594 25.9465 29.3594 26.0844V29.0024C29.3594 29.1403 29.345 29.1903 29.3181 29.2407C29.2911 29.2911 29.2516 29.3306 29.2012 29.3576C29.1508 29.3845 29.1008 29.3989 28.9629 29.3989H22.3339C22.1961 29.3989 22.1461 29.3845 22.0957 29.3576C22.0453 29.3306 22.0058 29.2911 21.9788 29.2407C21.9563 29.1987 21.9426 29.157 21.9387 29.0645L21.9375 26.0844C21.9375 25.9465 21.9519 25.8965 21.9788 25.8461C22.0058 25.7957 22.0453 25.7562 22.0957 25.7292C22.1377 25.7068 22.1794 25.6931 22.2719 25.6891L23.4837 25.6879H22.8652V21.9782C22.8654 21.6367 23.1422 21.3598 23.4837 21.3596L27.8132 21.3586C28.1547 21.3584 28.4316 21.6354 28.4316 21.977C28.4318 21.977 28.4316 21.977 28.4316 21.977ZM23.4837 26.3064H22.556V28.7804H28.7409V26.3064H27.8132L26.9782 27.4197C26.9616 27.4418 26.9424 27.4613 26.9211 27.4779L26.8823 27.5033L26.8392 27.5237L26.8133 27.5322C26.7868 27.5396 26.759 27.5434 26.7308 27.5434H24.5661C24.4687 27.5434 24.3771 27.4976 24.3187 27.4197L23.4837 26.3064ZM27.8132 21.977H23.4831L23.4837 25.6879H23.6383C23.7357 25.6879 23.8273 25.7338 23.8857 25.8117L24.1022 26.1005L24.7207 26.9249H26.5756L27.1947 26.0999L27.4111 25.8115C27.4695 25.7337 27.5612 25.6879 27.6584 25.6879H27.8132V21.977ZM26.8854 24.7602V25.3787H24.4115V24.7602H26.8854ZM26.8854 23.214V23.8325H24.4115V23.214H26.8854Z" fill="#FEFAF0"/>
<path d="M6.74184 21.9872C6.82194 21.8857 6.97624 21.8857 7.0563 21.9872L8.59926 23.9462C8.64103 23.9992 8.64879 24.0618 8.63442 24.1181C8.64901 24.1746 8.64118 24.2378 8.59926 24.291L7.0563 26.2499C6.9763 26.3515 6.82198 26.3513 6.74184 26.2499L5.1979 24.291C5.15605 24.2379 5.14729 24.1745 5.16176 24.1181C5.14751 24.0619 5.1562 23.9991 5.1979 23.9462L6.74184 21.9872Z" fill="#FEF2CA"/>
<defs>
<linearGradient id="paint0_linear_1041_5236" x1="4.27246" y1="1.95033" x2="18.4907" y2="-7.0307" gradientUnits="userSpaceOnUse">
<stop stop-color="#FCC330"/>
<stop offset="1" stop-color="#FF8F0B"/>
</linearGradient>
<linearGradient id="paint1_linear_1041_5236" x1="0.103516" y1="18.492" x2="13.6545" y2="34.7606" gradientUnits="userSpaceOnUse">
<stop stop-color="#FCC330"/>
<stop offset="1" stop-color="#FF8F0B"/>
</linearGradient>
<linearGradient id="paint2_linear_1041_5236" x1="19.4014" y1="20.2668" x2="33.3574" y2="27.7735" gradientUnits="userSpaceOnUse">
<stop stop-color="#FCC330"/>
<stop offset="1" stop-color="#FF8F0B"/>
</linearGradient>
<linearGradient id="paint3_linear_1041_5236" x1="17.771" y1="29.7671" x2="33.4829" y2="26.6835" gradientUnits="userSpaceOnUse">
<stop stop-color="#FFEFB3"/>
<stop offset="1" stop-color="#FFD25E"/>
</linearGradient>
<linearGradient id="paint4_linear_1041_5236" x1="20.9507" y1="27.0911" x2="36.6626" y2="24.0075" gradientUnits="userSpaceOnUse">
<stop stop-color="#FFEFB3"/>
<stop offset="1" stop-color="#FFD25E"/>
</linearGradient>
</defs>
</svg>
