<svg width="32" height="32" viewBox="0 0 32 32" fill="none" xmlns="http://www.w3.org/2000/svg">
<path d="M20.3008 0.986816C20.3393 1.01982 20.3774 1.05403 20.4138 1.09041L27.4456 8.12225C27.482 8.15862 27.5162 8.19669 27.5492 8.23524C26.976 8.23524 23.8543 8.23524 21.8992 8.23524C21.3402 8.23524 21.0607 8.23524 20.8468 8.12624C20.6586 8.03037 20.5056 7.87739 20.4098 7.68923C20.3008 7.47531 20.3008 7.19529 20.3008 6.63523L20.3008 0.986816Z" fill="url(#paint0_linear_1041_6589)"/>
<path d="M18.5518 8.60156C18.5519 9.42978 19.2235 10.1014 20.0518 10.1016H27.5498V17.8477C26.4098 17.1668 25.0767 16.7754 23.6523 16.7754C19.4487 16.7756 16.0412 20.1831 16.041 24.3867C16.041 27.2286 17.5993 29.7053 19.9072 31.0127H3.74805C2.64365 31.0125 1.74805 30.1171 1.74805 29.0127V2.98633C1.74829 1.88209 2.6438 0.986535 3.74805 0.986328H18.5518V8.60156Z" fill="url(#paint1_linear_1041_6589)"/>
<mask id="mask0_1041_6589" style="mask-type:alpha" maskUnits="userSpaceOnUse" x="1" y="0" width="27" height="32">
<path d="M18.5518 8.60156C18.5519 9.42978 19.2235 10.1014 20.0518 10.1016H27.5498V17.8477C26.4098 17.1668 25.0767 16.7754 23.6523 16.7754C19.4487 16.7756 16.0412 20.1831 16.041 24.3867C16.041 27.2286 17.5993 29.7053 19.9072 31.0127H3.74805C2.64365 31.0125 1.74805 30.1171 1.74805 29.0127V2.98633C1.74829 1.88209 2.6438 0.986535 3.74805 0.986328H18.5518V8.60156Z" fill="url(#paint2_linear_1041_6589)"/>
</mask>
<g mask="url(#mask0_1041_6589)">
<ellipse cx="13.6525" cy="27.3753" rx="12.2898" ry="12.2043" transform="rotate(-56.9246 13.6525 27.3753)" fill="url(#paint3_linear_1041_6589)"/>
</g>
<path d="M11.9775 18.9314C12.5552 18.9316 13.0232 19.3994 13.0232 19.9771C13.0231 20.5547 12.5551 21.0227 11.9775 21.0228H6.42946C5.85179 21.0228 5.38395 20.5548 5.38379 19.9771C5.38379 19.3993 5.85169 18.9314 6.42946 18.9314H11.9775Z" fill="#E8F2FE"/>
<path d="M18.6266 11.9735C19.2041 11.9738 19.6723 12.4416 19.6723 13.0192C19.6723 13.5968 19.2041 14.0646 18.6266 14.0649H6.42946C5.85183 14.0647 5.38379 13.5969 5.38379 13.0192C5.38379 12.4415 5.85183 11.9737 6.42946 11.9735H18.6266Z" fill="#E8F2FE"/>
<path d="M23.9253 31.0133C27.4189 31.0133 30.2511 28.1811 30.2511 24.6875C30.2511 21.1939 27.4189 18.3618 23.9253 18.3618C20.4317 18.3618 17.5996 21.1939 17.5996 24.6875C17.5996 28.1811 20.4317 31.0133 23.9253 31.0133Z" fill="url(#paint4_linear_1041_6589)"/>
<path d="M23.1348 22.3149V25.4778H26.2976" stroke="#E8F2FE" stroke-width="1.5" stroke-linecap="round" stroke-linejoin="round"/>
<defs>
<linearGradient id="paint0_linear_1041_6589" x1="27.1317" y1="7.95718" x2="20.6305" y2="0.981547" gradientUnits="userSpaceOnUse">
<stop offset="0.505078" stop-color="#2573FD"/>
<stop offset="1" stop-color="#A1C3FF"/>
</linearGradient>
<linearGradient id="paint1_linear_1041_6589" x1="26.0638" y1="29.8609" x2="-0.845488" y2="5.05036" gradientUnits="userSpaceOnUse">
<stop offset="0.505078" stop-color="#2573FD"/>
<stop offset="1" stop-color="#A1C3FF"/>
</linearGradient>
<linearGradient id="paint2_linear_1041_6589" x1="28.7055" y1="25.3317" x2="4.72207" y2="25.394" gradientUnits="userSpaceOnUse">
<stop stop-color="#87C1FF"/>
<stop offset="1" stop-color="#6CA1FD" stop-opacity="0.2"/>
</linearGradient>
<linearGradient id="paint3_linear_1041_6589" x1="27.0433" y1="34.9615" x2="4.19587" y2="35.031" gradientUnits="userSpaceOnUse">
<stop stop-color="#87C1FF"/>
<stop offset="1" stop-color="#6CA1FD" stop-opacity="0.2"/>
</linearGradient>
<linearGradient id="paint4_linear_1041_6589" x1="29.5224" y1="30.5279" x2="18.1751" y2="18.3526" gradientUnits="userSpaceOnUse">
<stop stop-color="#A1C3FF"/>
<stop offset="0.494922" stop-color="#2573FD"/>
</linearGradient>
</defs>
</svg>
