<svg width="32" height="32" viewBox="0 0 32 32" fill="none" xmlns="http://www.w3.org/2000/svg">
<path d="M20.3008 0.986816C20.3393 1.01982 20.3774 1.05403 20.4138 1.09041L27.4456 8.12225C27.482 8.15862 27.5162 8.19669 27.5492 8.23523C26.976 8.23523 23.8543 8.23523 21.8992 8.23523C21.3402 8.23523 21.0607 8.23523 20.8468 8.12624C20.6586 8.03037 20.5056 7.87739 20.4098 7.68923C20.3008 7.47531 20.3008 7.19529 20.3008 6.63523L20.3008 0.986816Z" fill="url(#paint0_linear_1041_6559)"/>
<path d="M18.5518 8.60156C18.5519 9.42978 19.2235 10.1014 20.0518 10.1016H27.5498V17.8477C26.4098 17.1668 25.0767 16.7754 23.6523 16.7754C19.4487 16.7756 16.0412 20.1831 16.041 24.3867C16.041 27.2286 17.5993 29.7053 19.9072 31.0127H3.74805C2.64365 31.0125 1.74805 30.1171 1.74805 29.0127V2.98633C1.74829 1.88209 2.6438 0.986531 3.74805 0.986328H18.5518V8.60156Z" fill="url(#paint1_linear_1041_6559)"/>
<mask id="mask0_1041_6559" style="mask-type:alpha" maskUnits="userSpaceOnUse" x="1" y="0" width="27" height="32">
<path d="M18.5518 8.60156C18.5519 9.42978 19.2235 10.1014 20.0518 10.1016H27.5498V17.8477C26.4098 17.1668 25.0767 16.7754 23.6523 16.7754C19.4487 16.7756 16.0412 20.1831 16.041 24.3867C16.041 27.2286 17.5993 29.7053 19.9072 31.0127H3.74805C2.64365 31.0125 1.74805 30.1171 1.74805 29.0127V2.98633C1.74829 1.88209 2.6438 0.986531 3.74805 0.986328H18.5518V8.60156Z" fill="url(#paint2_linear_1041_6559)"/>
</mask>
<g mask="url(#mask0_1041_6559)">
<ellipse cx="6.49915" cy="6.44207" rx="12.2898" ry="12.2043" transform="rotate(-56.9246 6.49915 6.44207)" fill="url(#paint3_linear_1041_6559)"/>
</g>
<path d="M23.9253 31.0133C27.4189 31.0133 30.2511 28.1811 30.2511 24.6875C30.2511 21.1939 27.4189 18.3618 23.9253 18.3618C20.4317 18.3618 17.5996 21.1939 17.5996 24.6875C17.5996 28.1811 20.4317 31.0133 23.9253 31.0133Z" fill="url(#paint4_linear_1041_6559)"/>
<path d="M26.5657 22.0433C26.9262 21.6832 27.5106 21.6831 27.871 22.0433C28.231 22.4037 28.231 22.9882 27.871 23.3486L24.2244 26.9952C23.864 27.3556 23.2796 27.3553 22.9191 26.9952L20.6823 24.7585C20.3218 24.398 20.3218 23.8137 20.6823 23.4532C21.0428 23.0927 21.6271 23.0927 21.9876 23.4532L23.5717 25.0373L26.5657 22.0433ZM11.2412 18.9303C11.8189 18.9305 12.2869 19.3983 12.2869 19.976C12.2869 20.5537 11.8189 21.0216 11.2412 21.0217H5.69313C5.11536 21.0217 4.64746 20.5538 4.64746 19.976C4.64746 19.3982 5.11536 18.9303 5.69313 18.9303H11.2412ZM17.8902 11.9724C18.4678 11.9727 18.9359 12.4405 18.9359 13.0181C18.9359 13.5957 18.4678 14.0635 17.8902 14.0638H5.69313C5.11536 14.0638 4.64746 13.5959 4.64746 13.0181C4.64746 12.4403 5.11536 11.9724 5.69313 11.9724H17.8902Z" fill="#EEFDF8"/>
<defs>
<linearGradient id="paint0_linear_1041_6559" x1="24.7916" y1="6.99605" x2="21.5836" y2="2.07956" gradientUnits="userSpaceOnUse">
<stop stop-color="#00D14D"/>
<stop offset="1" stop-color="#A1FFC3"/>
</linearGradient>
<linearGradient id="paint1_linear_1041_6559" x1="14.6489" y1="32.0146" x2="1.69079" y2="9.86563" gradientUnits="userSpaceOnUse">
<stop stop-color="#00D14D"/>
<stop offset="1" stop-color="#A1FFC3"/>
</linearGradient>
<linearGradient id="paint2_linear_1041_6559" x1="24.7426" y1="25.616" x2="18.3882" y2="10.342" gradientUnits="userSpaceOnUse">
<stop stop-color="#89FFB4"/>
<stop offset="1" stop-color="#45E580"/>
</linearGradient>
<linearGradient id="paint3_linear_1041_6559" x1="16.1147" y1="14.2594" x2="11.5227" y2="1.32423" gradientUnits="userSpaceOnUse">
<stop stop-color="#89FFB4"/>
<stop offset="1" stop-color="#45E580"/>
</linearGradient>
<linearGradient id="paint4_linear_1041_6559" x1="28.5073" y1="34.7415" x2="20.3347" y2="20.0599" gradientUnits="userSpaceOnUse">
<stop stop-color="#A1FFC3"/>
<stop offset="1" stop-color="#00D14D"/>
</linearGradient>
</defs>
</svg>
