<svg width="32" height="32" viewBox="0 0 32 32" fill="none" xmlns="http://www.w3.org/2000/svg">
<path fill-rule="evenodd" clip-rule="evenodd" d="M15.9998 0L16.8912 0.427134C21.064 2.4266 25.3451 4.19177 29.7144 5.71443V17.6483C29.7144 19.8192 28.9419 21.9192 27.5371 23.5742C24.7587 26.8377 20.913 29.6466 15.9998 32.0008C11.0866 29.6466 7.24086 26.8377 4.46251 23.5742C3.05768 21.9192 2.28516 19.8192 2.28516 17.6483V5.71443C6.65454 4.19177 10.9356 2.4266 15.1084 0.427134L15.9998 0Z" fill="url(#paint0_linear_1041_6459)"/>
<mask id="mask0_1041_6459" style="mask-type:alpha" maskUnits="userSpaceOnUse" x="2" y="0" width="28" height="33">
<path fill-rule="evenodd" clip-rule="evenodd" d="M15.9998 0L16.8912 0.427134C21.064 2.4266 25.3451 4.19177 29.7144 5.71443V17.6483C29.7144 19.8192 28.9419 21.9192 27.5371 23.5742C24.7587 26.8377 20.913 29.6466 15.9998 32.0008C11.0866 29.6466 7.24086 26.8377 4.46251 23.5742C3.05768 21.9192 2.28516 19.8192 2.28516 17.6483V5.71443C6.65454 4.19177 10.9356 2.4266 15.1084 0.427134L15.9998 0Z" fill="url(#paint1_linear_1041_6459)" fill-opacity="0.8"/>
</mask>
<g mask="url(#mask0_1041_6459)">
<path d="M24.958 20.2747C29.3545 20.2747 32.9189 23.2107 32.9189 26.8313C32.9187 30.4517 29.3543 33.387 24.958 33.387C24.2223 33.387 23.5103 33.3025 22.834 33.1487C22.8341 33.1659 22.8359 33.1832 22.8359 33.2004C22.8359 36.821 19.9008 39.7561 16.2803 39.7561C12.6597 39.7561 9.72466 36.821 9.72461 33.2004C9.72461 29.5798 12.6597 26.6448 16.2803 26.6448C16.5242 26.6448 16.7649 26.6589 17.002 26.6848C17.0963 23.1317 20.6209 20.2747 24.958 20.2747Z" fill="url(#paint2_linear_1041_6459)" fill-opacity="0.8"/>
</g>
<mask id="mask1_1041_6459" style="mask-type:alpha" maskUnits="userSpaceOnUse" x="2" y="0" width="28" height="33">
<path fill-rule="evenodd" clip-rule="evenodd" d="M15.9998 0L16.8912 0.427134C21.064 2.4266 25.3451 4.19177 29.7144 5.71443V17.6483C29.7144 19.8192 28.9419 21.9192 27.5371 23.5742C24.7587 26.8377 20.913 29.6466 15.9998 32.0008C11.0866 29.6466 7.24086 26.8377 4.46251 23.5742C3.05768 21.9192 2.28516 19.8192 2.28516 17.6483V5.71443C6.65454 4.19177 10.9356 2.4266 15.1084 0.427134L15.9998 0Z" fill="url(#paint3_linear_1041_6459)"/>
</mask>
<g mask="url(#mask1_1041_6459)">
<path d="M6.05653 -4.82726C14.3307 -4.38304 20.7659 1.0546 20.4296 7.31825C20.0932 13.5818 13.1129 18.2996 4.83876 17.8554C-3.43508 17.411 -9.86935 11.9732 -9.53331 5.70985C-9.19704 -0.553686 -2.21747 -5.27128 6.05653 -4.82726Z" fill="url(#paint4_linear_1041_6459)"/>
</g>
<path fill-rule="evenodd" clip-rule="evenodd" d="M15.9999 8.979L14.4394 14.4399L8.97852 16.0004L14.4394 17.5592L15.9999 23.0219L17.5587 17.5592L23.0214 16.0004L17.5587 14.4399L15.9999 8.979Z" fill="#F3FDFF"/>
<defs>
<linearGradient id="paint0_linear_1041_6459" x1="19.4351" y1="8.76563" x2="0.344633" y2="-0.420157" gradientUnits="userSpaceOnUse">
<stop stop-color="#00AFD1"/>
<stop offset="1" stop-color="#A1EFFF"/>
</linearGradient>
<linearGradient id="paint1_linear_1041_6459" x1="26.4235" y1="2.15384" x2="7.21672" y2="18.3024" gradientUnits="userSpaceOnUse">
<stop stop-color="#00B4D8"/>
<stop offset="1" stop-color="#1FDAFF"/>
</linearGradient>
<linearGradient id="paint2_linear_1041_6459" x1="30.1361" y1="21.5859" x2="18.4086" y2="35.2818" gradientUnits="userSpaceOnUse">
<stop stop-color="#00B4D8"/>
<stop offset="1" stop-color="#1FDAFF"/>
</linearGradient>
<linearGradient id="paint3_linear_1041_6459" x1="26.4235" y1="2.15384" x2="7.21672" y2="18.3024" gradientUnits="userSpaceOnUse">
<stop stop-color="#00B4D8"/>
<stop offset="1" stop-color="#1FDAFF"/>
</linearGradient>
<linearGradient id="paint4_linear_1041_6459" x1="16.8441" y1="-3.32563" x2="3.43597" y2="14.0179" gradientUnits="userSpaceOnUse">
<stop stop-color="#00B4D8"/>
<stop offset="1" stop-color="#1FDAFF"/>
</linearGradient>
</defs>
</svg>
