<svg width="32" height="32" viewBox="0 0 32 32" fill="none" xmlns="http://www.w3.org/2000/svg">
<path d="M4.4375 30.2331C4.54817 30.0118 4.64039 29.8273 4.73261 29.6613C6.96437 25.8064 9.19614 21.9516 11.4095 18.0967C11.6308 17.6909 11.889 17.5434 12.3501 17.5618C13.383 17.5987 14.4159 17.5803 15.5226 17.5803C15.541 18.0967 15.5779 18.5578 15.5963 19.0743H16.7952V17.5987C18.0863 17.5987 19.3036 17.5987 20.521 17.6172C20.6132 17.6172 20.7423 17.7647 20.7976 17.8569C23.177 21.9516 25.5378 26.0462 27.954 30.2331H16.8321V26.6549H15.5779V30.2331H4.4375ZM15.5963 21.8594V24.0542H16.7583V21.8594H15.5963Z" fill="url(#paint0_linear_1041_6639)"/>
<path d="M3.89106 28.3296C3.83912 28.3161 3.80996 28.2715 3.80996 28.2179V26.0833C3.80996 22.376 3.79151 18.6686 3.80996 14.9613C3.8284 8.67181 8.34726 3.52583 14.5815 2.6774C20.9448 1.81051 27.1421 6.36626 28.1565 12.7296C28.3963 14.2789 28.3778 15.8835 28.3963 17.4698C28.4332 21.0295 28.4147 24.5708 28.4147 28.1306V28.5004C28.4147 28.5439 28.3866 28.5827 28.3461 28.5988C28.3006 28.617 28.2501 28.5972 28.2269 28.554C27.8924 27.9321 27.5868 27.2963 27.1789 26.7288C26.0538 25.1795 25.7218 23.4826 25.8325 21.5644C25.9616 19.388 25.8694 17.1931 25.8509 15.0167C25.8141 9.13292 21.1292 4.78005 15.2823 5.16738C10.3946 5.49938 6.42905 9.77847 6.37372 14.8322C6.33683 17.7464 6.37372 20.6606 6.35527 23.5748C6.35527 23.9806 6.22616 24.4417 6.02328 24.8106C5.38928 25.988 4.68412 27.1299 4.01263 28.2886C3.9909 28.3261 3.93301 28.3405 3.89106 28.3296Z" fill="url(#paint1_linear_1041_6639)"/>
<path d="M24.522 21.8168C24.474 21.8495 24.41 21.8227 24.3812 21.7723C23.438 20.1234 22.4776 18.4914 21.535 16.8237C21.4427 16.6577 21.4612 16.4364 21.4427 16.2519C21.4243 15.5695 21.4427 14.887 21.4243 14.2046C21.3136 11.4564 19.0819 9.22462 16.389 9.11395C13.4932 9.00329 11.1324 10.9768 10.7819 13.7988C10.745 14.1493 10.6897 14.4997 10.7266 14.8501C10.8926 16.1966 10.4868 17.3401 9.73059 18.4283C9.13232 19.3027 8.6106 20.2282 8.02748 21.2365C7.91996 21.4224 7.62793 21.3544 7.62793 21.1397V14.9793C7.64637 10.6264 10.8557 6.90063 14.9872 6.47641C19.543 5.99686 23.4163 8.76351 24.3938 13.1533C24.4676 13.5222 24.5598 13.891 24.5598 14.2599C24.5782 16.7515 24.5601 19.2432 24.5598 21.7348C24.5598 21.7671 24.5487 21.7986 24.522 21.8168Z" fill="url(#paint2_linear_1041_6639)"/>
<defs>
<linearGradient id="paint0_linear_1041_6639" x1="26.0121" y1="29.5347" x2="18.7767" y2="10.4128" gradientUnits="userSpaceOnUse">
<stop stop-color="#FE6C6C"/>
<stop offset="1" stop-color="#FFC7C7"/>
</linearGradient>
<linearGradient id="paint1_linear_1041_6639" x1="20.7243" y1="33.4613" x2="25.4691" y2="3.37464" gradientUnits="userSpaceOnUse">
<stop stop-color="#FFC7C7"/>
<stop offset="1" stop-color="#FE6C6C"/>
</linearGradient>
<linearGradient id="paint2_linear_1041_6639" x1="19.2729" y1="24.7219" x2="21.708" y2="6.7857" gradientUnits="userSpaceOnUse">
<stop stop-color="#FFC7C7"/>
<stop offset="1" stop-color="#FE6C6C"/>
</linearGradient>
</defs>
</svg>
