<svg width="32" height="32" viewBox="0 0 32 32" fill="none" xmlns="http://www.w3.org/2000/svg">
<path d="M28.7222 19.7529L28.7408 19.7715L28.1589 20.3534C27.057 19.1927 25.4969 18.4653 23.7698 18.4653C22.1076 18.4653 20.6064 19.1339 19.5076 20.2172C18.4614 19.5858 17.2264 19.2979 15.9883 19.4217L16.0842 19.3351C17.1273 18.2982 17.7247 16.9022 17.765 15.435V15.4258C17.7681 15.3112 17.7681 15.1936 17.765 15.0791V15.076C17.7557 14.8438 17.7402 14.6086 17.7 14.3796V14.3672C17.6659 14.1443 17.6164 13.9215 17.5545 13.7048L17.5514 13.68C17.4895 13.4664 17.4121 13.2498 17.3285 13.0424L17.2976 12.9712C17.2635 12.8938 17.2264 12.8133 17.1892 12.7391L17.149 12.6617C17.1057 12.575 17.0623 12.4914 17.0128 12.4079L16.9911 12.3676C16.9354 12.2717 16.8735 12.1757 16.8116 12.0829L16.7683 12.0179C16.6538 11.8507 16.5268 11.6898 16.3968 11.535L16.3257 11.4576C16.143 11.2533 15.9418 11.0583 15.7314 10.8788C15.5921 10.7612 15.4435 10.6467 15.2949 10.5414L15.264 10.5197C15.1278 10.4269 14.9885 10.3433 14.8492 10.2628L14.7935 10.2319C13.5802 9.5695 12.1718 9.36521 10.8223 9.65307L17.3935 3.07562L17.4121 3.09419C19.3343 1.51251 22.1355 1.6487 23.8936 3.40682C25.6548 5.16803 25.7879 7.96925 24.2093 9.88831L24.2279 9.90689L19.1138 14.8809C19.154 15.1037 19.1788 15.3266 19.1881 15.5494L21.9436 12.9712C23.8595 11.3833 26.6762 11.5133 28.4344 13.2776C30.1801 15.0203 30.3101 17.837 28.7222 19.7529Z" fill="url(#paint0_linear_1041_6515)"/>
<path d="M16.8101 19.8611C17.6891 19.8611 18.513 20.0933 19.228 20.4988C18.2747 21.5697 17.6958 22.9783 17.6958 24.5291C17.6958 26.2097 18.3802 27.7294 19.479 28.822C18.7114 29.3204 17.7913 29.6111 16.8101 29.6111C14.1173 29.6109 11.9351 27.4257 11.9351 24.7361C11.9352 22.0434 14.1205 19.8613 16.8101 19.8611ZM7.14111 18.3357C8.06043 19.7933 9.58958 20.7592 11.3042 20.9666C11.4744 21.3038 11.6072 21.6571 11.6938 22.0222C10.9203 23.2169 10.8846 24.6093 11.1167 26.0144C9.73931 27.8406 7.00774 28.5032 4.93701 27.5251C2.86627 26.5501 1.76692 24.2563 2.29931 22.0339C2.83482 19.8116 4.85682 18.2645 7.14111 18.3357ZM11.9292 10.1023C14.6252 10.1023 16.8042 12.2875 16.8042 14.9773C16.804 17.67 14.6189 19.8523 11.9292 19.8523C9.23953 19.8523 7.0544 17.67 7.05419 14.9773C7.05419 12.2813 9.2394 10.1023 11.9292 10.1023Z" fill="url(#paint1_linear_1041_6515)"/>
<path d="M11.9297 10.1023C14.6256 10.1024 16.8047 12.2875 16.8047 14.9773C16.8047 15.3689 16.7562 15.7492 16.6689 16.114C15.6082 16.7192 14.381 17.068 13.0713 17.0681C10.6259 17.0681 8.46442 15.861 7.14941 14.0134C7.5967 11.7802 9.56905 10.1023 11.9297 10.1023Z" fill="url(#paint2_linear_1041_6515)"/>
<path d="M23.8559 19.0007C20.8133 19.0007 18.3525 21.4615 18.3525 24.5041C18.3525 27.5468 20.8133 30.0075 23.8559 30.0075C26.8924 30.0075 29.3531 27.5468 29.3593 24.5041C29.3562 21.4677 26.8924 19.0007 23.8559 19.0007Z" fill="url(#paint3_linear_1041_6515)"/>
<path d="M25.9174 23.6261C26.4272 23.6316 26.826 24.0492 26.8081 24.5587C26.7903 25.0682 26.3625 25.4767 25.8528 25.4711L21.7929 25.4267C21.2831 25.4211 20.8844 25.0035 20.9022 24.494C20.9201 23.9846 21.3478 23.5761 21.8576 23.5816L25.9174 23.6261Z" fill="#EEFDF8"/>
<defs>
<linearGradient id="paint0_linear_1041_6515" x1="27.2131" y1="25.7642" x2="15.5726" y2="4.11251" gradientUnits="userSpaceOnUse">
<stop stop-color="#A1FFC3"/>
<stop offset="1" stop-color="#00D14D"/>
</linearGradient>
<linearGradient id="paint1_linear_1041_6515" x1="12.6055" y1="26.9223" x2="12.5713" y2="5.40418" gradientUnits="userSpaceOnUse">
<stop stop-color="#00D14D"/>
<stop offset="1" stop-color="#A1FFC3"/>
</linearGradient>
<linearGradient id="paint2_linear_1041_6515" x1="14.3359" y1="15.2234" x2="8.7305" y2="16.1161" gradientUnits="userSpaceOnUse">
<stop stop-color="#89FFB4"/>
<stop offset="1" stop-color="#45E580"/>
</linearGradient>
<linearGradient id="paint3_linear_1041_6515" x1="27.8618" y1="29.7956" x2="20.4189" y2="20.4768" gradientUnits="userSpaceOnUse">
<stop stop-color="#A1FFC3"/>
<stop offset="1" stop-color="#00D14D"/>
</linearGradient>
</defs>
</svg>
