<svg width="32" height="32" viewBox="0 0 32 32" fill="none" xmlns="http://www.w3.org/2000/svg">
<g clip-path="url(#clip0_1041_7196)">
<path d="M11.1113 26.4793C11.1113 27.5712 11.4351 28.6386 12.0417 29.5464C12.6484 30.4543 13.5106 31.1619 14.5193 31.5798C15.5281 31.9976 16.6381 32.1069 17.709 31.8939C18.78 31.6809 19.7637 31.1551 20.5357 30.383C21.3078 29.6109 21.8336 28.6272 22.0466 27.5563C22.2596 26.4854 22.1503 25.3754 21.7325 24.3666C21.3146 23.3579 20.607 22.4956 19.6991 21.889C18.7913 21.2824 17.7239 20.9586 16.632 20.9586C15.1678 20.9586 13.7636 21.5403 12.7283 22.5756C11.693 23.6109 11.1113 25.0151 11.1113 26.4793Z" fill="url(#paint0_linear_1041_7196)"/>
<path d="M10.6633 21.7105C9.69718 21.5933 8.76927 21.2627 7.94675 20.7426C7.12422 20.2226 6.42768 19.526 5.9076 18.7035C4.95563 18.6696 4.011 18.8818 3.16508 19.3198C2.31917 19.7578 1.60059 20.4067 1.07887 21.2037C0.557145 22.0007 0.249924 22.9188 0.186925 23.8693C0.123926 24.8198 0.307279 25.7705 0.719251 26.6294C1.13122 27.4883 1.75787 28.2263 2.53858 28.7721C3.31929 29.3179 4.22764 29.653 5.17576 29.745C6.12389 29.8369 7.07971 29.6827 7.95077 29.2971C8.82182 28.9115 9.57864 28.3077 10.148 27.544C9.8838 25.9358 10.2265 24.2868 11.1097 22.9171C11.0079 22.4994 10.8581 22.0937 10.6633 21.7105Z" fill="url(#paint1_linear_1041_7196)"/>
<path d="M30.2056 12.9056C29.2338 11.9346 27.9349 11.3608 26.5626 11.2963C25.1904 11.2319 23.8434 11.6814 22.7848 12.557L22.7664 12.5386L20.9351 14.3698C20.9251 14.1132 20.8973 13.8576 20.852 13.6048L25.4016 9.05531L25.3831 9.0369C26.2528 7.97752 26.6973 6.6325 26.6302 5.2635C26.5631 3.89451 25.9891 2.59944 25.0199 1.63025C24.0507 0.66105 22.7556 0.0870382 21.3866 0.0198804C20.0177 -0.0472774 18.6726 0.397221 17.6132 1.2669L17.5948 1.2485L10.0762 8.76718C11.4489 8.47341 12.8795 8.62536 14.1599 9.20093C14.3141 9.27106 14.4655 9.3466 14.6142 9.42756L14.6804 9.46331C14.8434 9.55445 15.0022 9.6526 15.1568 9.75775L15.1925 9.78353C15.3669 9.90407 15.5352 10.0332 15.6968 10.1705C15.8371 10.2888 15.9749 10.4118 16.1069 10.5443C16.199 10.6372 16.2886 10.7327 16.3755 10.8309C16.4017 10.8602 16.4273 10.89 16.4523 10.9203C16.5396 11.0223 16.6241 11.1274 16.7057 11.2357C16.765 11.3143 16.8224 11.3942 16.8782 11.4755L16.9308 11.5486C17.0009 11.6537 17.069 11.7624 17.1353 11.8745L17.1605 11.9198C17.2152 12.0151 17.2678 12.1118 17.3183 12.21C17.3335 12.2394 17.3477 12.2694 17.3624 12.2994C17.4059 12.3881 17.4474 12.4778 17.487 12.5686C17.4986 12.5954 17.5107 12.6212 17.5217 12.6485C17.6213 12.8858 17.7068 13.1288 17.7778 13.3762L17.7862 13.4082C17.823 13.5397 17.8558 13.6722 17.8845 13.8057C17.9101 13.9246 17.9325 14.0439 17.9518 14.1638V14.178C17.9928 14.4416 18.0177 14.7074 18.0265 14.974V14.9782C18.0307 15.1097 18.0307 15.2411 18.0265 15.3726V15.382C18.0149 15.7838 17.9667 16.1836 17.8824 16.5766C17.6183 17.8134 17.0011 18.947 16.1058 19.8401C16.0706 19.8753 16.0343 19.9079 16.0006 19.9421C17.0297 19.843 18.0676 19.988 19.03 20.3653C19.9925 20.7427 20.8524 21.3418 21.5398 22.1139C22.2272 22.8861 22.7228 23.8095 22.9862 24.8091C23.2497 25.8088 23.2736 26.8565 23.056 27.8672L30.2067 20.7166L30.5747 20.3485L30.5563 20.3301C31.4321 19.2715 31.8816 17.9244 31.8172 16.552C31.7527 15.1796 31.1788 13.8806 30.2077 12.9087L30.2056 12.9056Z" fill="url(#paint2_linear_1041_7196)"/>
<path d="M5.93945 15.1887C5.93946 16.2806 6.26325 17.348 6.86987 18.2559C7.4765 19.1637 8.33871 19.8713 9.34749 20.2892C10.3563 20.707 11.4663 20.8163 12.5372 20.6033C13.6081 20.3903 14.5918 19.8645 15.3639 19.0924C16.1359 18.3203 16.6617 17.3366 16.8748 16.2657C17.0878 15.1948 16.9784 14.0848 16.5606 13.076C16.1427 12.0673 15.4351 11.2051 14.5273 10.5984C13.6194 9.99181 12.552 9.66803 11.4601 9.66803C10.7352 9.66803 10.0173 9.81083 9.34746 10.0883C8.67766 10.3657 8.06906 10.7724 7.55641 11.285C7.04377 11.7977 6.63712 12.4063 6.35968 13.0761C6.08224 13.7459 5.93945 14.4638 5.93945 15.1887Z" fill="url(#paint3_linear_1041_7196)"/>
<path d="M5.93945 15.189C5.93946 16.2809 6.26325 17.3482 6.86987 18.2561C7.4765 19.164 8.33871 19.8716 9.34749 20.2894C10.3563 20.7073 11.4663 20.8166 12.5372 20.6036C13.6081 20.3905 14.5918 19.8647 15.3639 19.0927C16.1359 18.3206 16.6617 17.3369 16.8748 16.266C17.0878 15.1951 16.9784 14.085 16.5606 13.0763C16.1427 12.0675 15.4351 11.2053 14.5273 10.5987C13.6194 9.99206 12.552 9.66827 11.4601 9.66827C10.7352 9.66827 10.0173 9.81107 9.34746 10.0885C8.67766 10.366 8.06906 10.7726 7.55641 11.2853C7.04377 11.7979 6.63712 12.4065 6.35968 13.0763C6.08224 13.7461 5.93945 14.464 5.93945 15.189Z" fill="url(#paint4_linear_1041_7196)"/>
<mask id="mask0_1041_7196" style="mask-type:alpha" maskUnits="userSpaceOnUse" x="5" y="9" width="12" height="12">
<path d="M5.93945 15.189C5.93946 16.2809 6.26325 17.3482 6.86987 18.2561C7.4765 19.164 8.33871 19.8716 9.34749 20.2894C10.3563 20.7073 11.4663 20.8166 12.5372 20.6036C13.6081 20.3905 14.5918 19.8647 15.3639 19.0927C16.1359 18.3206 16.6617 17.3369 16.8748 16.266C17.0878 15.1951 16.9784 14.085 16.5606 13.0763C16.1427 12.0675 15.4351 11.2053 14.5273 10.5987C13.6194 9.99206 12.552 9.66827 11.4601 9.66827C10.7352 9.66827 10.0173 9.81107 9.34746 10.0885C8.67766 10.366 8.06906 10.7726 7.55641 11.2853C7.04377 11.7979 6.63712 12.4065 6.35968 13.0763C6.08224 13.7461 5.93945 14.464 5.93945 15.189Z" fill="url(#paint5_linear_1041_7196)"/>
</mask>
<g mask="url(#mask0_1041_7196)">
<circle cx="9.84623" cy="11.0769" r="6.15385" fill="url(#paint6_linear_1041_7196)"/>
</g>
</g>
<defs>
<linearGradient id="paint0_linear_1041_7196" x1="21.5168" y1="31.5764" x2="11.6136" y2="20.9506" gradientUnits="userSpaceOnUse">
<stop offset="0.309311" stop-color="#2573FD"/>
<stop offset="1" stop-color="#A1C3FF"/>
</linearGradient>
<linearGradient id="paint1_linear_1041_7196" x1="30.0004" y1="28.6295" x2="2.52073" y2="11.1575" gradientUnits="userSpaceOnUse">
<stop stop-color="#A1C3FF"/>
<stop offset="0.97143" stop-color="#2573FD"/>
</linearGradient>
<linearGradient id="paint2_linear_1041_7196" x1="30.0005" y1="28.6296" x2="7.10951" y2="8.581" gradientUnits="userSpaceOnUse">
<stop stop-color="#A1C3FF"/>
<stop offset="0.559292" stop-color="#2573FD"/>
</linearGradient>
<linearGradient id="paint3_linear_1041_7196" x1="16.3449" y1="20.2859" x2="6.44169" y2="9.66" gradientUnits="userSpaceOnUse">
<stop offset="0.309311" stop-color="#2573FD"/>
<stop offset="1" stop-color="#A1C3FF"/>
</linearGradient>
<linearGradient id="paint4_linear_1041_7196" x1="16.3449" y1="20.2861" x2="6.44169" y2="9.66025" gradientUnits="userSpaceOnUse">
<stop offset="0.309311" stop-color="#2573FD"/>
<stop offset="1" stop-color="#A1C3FF"/>
</linearGradient>
<linearGradient id="paint5_linear_1041_7196" x1="16.4863" y1="18.0657" x2="6.42437" y2="18.9826" gradientUnits="userSpaceOnUse">
<stop stop-color="#87C1FF"/>
<stop offset="1" stop-color="#6CA1FD" stop-opacity="0.2"/>
</linearGradient>
<linearGradient id="paint6_linear_1041_7196" x1="15.4488" y1="14.2836" x2="4.23292" y2="15.3057" gradientUnits="userSpaceOnUse">
<stop stop-color="#87C1FF"/>
<stop offset="1" stop-color="#6CA1FD" stop-opacity="0.2"/>
</linearGradient>
<clipPath id="clip0_1041_7196">
<rect width="32" height="32" fill="white"/>
</clipPath>
</defs>
</svg>
