<svg width="32" height="32" viewBox="0 0 32 32" fill="none" xmlns="http://www.w3.org/2000/svg">
<path fill-rule="evenodd" clip-rule="evenodd" d="M31.2087 20.9187C32.0827 21.1879 32.4346 23.0051 30.9766 23.4839C30.3215 23.6998 29.6954 23.8973 29.0869 24.08L28.7238 24.1879C28.0015 24.4002 27.3011 24.5923 26.6031 24.7706L26.2542 24.8586C25.7889 24.9744 25.3233 25.0846 24.8513 25.1909L24.496 25.27L24.1379 25.3478C24.0779 25.3606 24.0178 25.3735 23.9575 25.3862L23.594 25.4625L23.2261 25.5379C23.1027 25.5629 22.9785 25.5878 22.8534 25.6127L22.4754 25.687C22.4119 25.6993 22.3482 25.7117 22.2842 25.724L21.8971 25.7979L21.5032 25.8718L21.102 25.9459L20.693 26.0203C19.1025 26.3068 17.9108 26.623 16.9315 26.9342L16.7092 27.0059C16.6727 27.0178 16.6366 27.0297 16.6007 27.0416L16.3888 27.1129L16.1831 27.1837L15.9832 27.254L15.693 27.3583L15.413 27.4609L14.7026 27.7238L14.5305 27.7866L14.3596 27.848L14.1894 27.908C12.914 28.3518 11.6533 28.6641 9.44196 28.6641C7.58951 28.6641 6.08968 28.3668 4.75249 27.8831L4.58618 27.8217L4.42148 27.7583C4.06631 27.6191 3.72191 27.4669 3.38451 27.304L3.22927 27.228C3.17768 27.2024 3.12624 27.1766 3.07494 27.1505L2.92143 27.0716C2.89591 27.0583 2.87043 27.045 2.84497 27.0316L2.69255 26.9507L2.54076 26.8684L2.38951 26.7848L2.23872 26.7001L2.0883 26.6141L1.93817 26.5271L1.78826 26.4389L1.5636 26.3048L1.41385 26.2142C0.0643971 25.3943 -0.362465 24.0234 0.427734 23.281L0.454226 23.2568L2.63135 21.3096C5.92124 23.5292 14.147 26.1962 30.7043 21.0762L31.2087 20.9187ZM16.862 3.33623C18.6304 3.32428 20.4013 3.68349 22.0806 4.40321C15.4775 5.51101 11.1227 12.3863 9.67663 19.4906C9.54652 20.1327 10.3579 20.3322 10.5087 19.716C13.0571 9.38317 21.1184 3.7069 24.5027 5.72989C29.0313 8.86769 31.5421 14.1174 31.0455 19.9217C13.6688 25.4316 5.5798 22.2266 2.8679 20.254C2.8567 20.0984 2.84693 19.9352 2.8381 19.7667L2.82549 19.51L2.81391 19.2467L2.79237 18.7061C1.71331 17.7955 1.00905 16.298 1.00905 14.5924C1.00905 11.8292 2.85322 9.6 5.15942 9.5557L5.22945 9.55502H6.47825C7.2014 9.55502 7.87761 9.77203 8.47121 10.1508C8.19238 9.10533 7.37955 8.42416 6.59976 8.21578C7.37748 7.33207 8.26384 6.5335 9.24848 5.8328C11.534 4.20871 14.1364 3.37684 16.7501 3.33715L16.862 3.33623ZM4.33009 11.3658C3.15223 11.3658 2.19668 12.8105 2.19694 14.5927C2.19694 14.9787 2.24172 15.3489 2.32385 15.6921L2.34833 15.7893C2.66257 16.9799 3.43171 17.8211 4.33009 17.8211C5.50796 17.8211 6.4615 16.3759 6.4615 14.5927C6.4615 12.8294 5.5253 11.3981 4.36638 11.3663L4.33009 11.3658Z" fill="url(#paint0_linear_1041_6405)"/>
<mask id="mask0_1041_6405" style="mask-type:alpha" maskUnits="userSpaceOnUse" x="0" y="3" width="32" height="26">
<path fill-rule="evenodd" clip-rule="evenodd" d="M31.2087 20.9187C32.0827 21.1879 32.4346 23.0051 30.9766 23.4839C30.3215 23.6998 29.6954 23.8973 29.0869 24.08L28.7238 24.1879C28.0015 24.4002 27.3011 24.5923 26.6031 24.7706L26.2542 24.8586C25.7889 24.9744 25.3233 25.0846 24.8513 25.1909L24.496 25.27L24.1379 25.3478C24.0779 25.3606 24.0178 25.3735 23.9575 25.3862L23.594 25.4625L23.2261 25.5379C23.1027 25.5629 22.9785 25.5878 22.8534 25.6127L22.4754 25.687C22.4119 25.6993 22.3482 25.7117 22.2842 25.724L21.8971 25.7979L21.5032 25.8718L21.102 25.9459L20.693 26.0203C19.1025 26.3068 17.9108 26.623 16.9315 26.9342L16.7092 27.0059C16.6727 27.0178 16.6366 27.0297 16.6007 27.0416L16.3888 27.1129L16.1831 27.1837L15.9832 27.254L15.693 27.3583L15.413 27.4609L14.7026 27.7238L14.5305 27.7866L14.3596 27.848L14.1894 27.908C12.914 28.3518 11.6533 28.6641 9.44196 28.6641C7.58951 28.6641 6.08968 28.3668 4.75249 27.8831L4.58618 27.8217L4.42148 27.7583C4.06631 27.6191 3.72191 27.4669 3.38451 27.304L3.22927 27.228C3.17768 27.2024 3.12624 27.1766 3.07494 27.1505L2.92143 27.0716C2.89591 27.0583 2.87043 27.045 2.84497 27.0316L2.69255 26.9507L2.54076 26.8684L2.38951 26.7848L2.23872 26.7001L2.0883 26.6141L1.93817 26.5271L1.78826 26.4389L1.5636 26.3048L1.41385 26.2142C0.0643971 25.3943 -0.362465 24.0234 0.427734 23.281L0.454226 23.2568L2.63135 21.3096C5.92124 23.5292 14.147 26.1962 30.7043 21.0762L31.2087 20.9187ZM16.862 3.33623C18.6304 3.32428 20.4013 3.68349 22.0806 4.40321C15.4775 5.51101 11.1227 12.3863 9.67663 19.4906C9.54652 20.1327 10.3579 20.3322 10.5087 19.716C13.0571 9.38317 21.1184 3.7069 24.5027 5.72989C29.0313 8.86769 31.5421 14.1174 31.0455 19.9217C13.6688 25.4316 5.5798 22.2266 2.8679 20.254C2.8567 20.0984 2.84693 19.9352 2.8381 19.7667L2.82549 19.51L2.81391 19.2467L2.79237 18.7061C1.71331 17.7955 1.00905 16.298 1.00905 14.5924C1.00905 11.8292 2.85322 9.6 5.15942 9.5557L5.22945 9.55502H6.47825C7.2014 9.55502 7.87761 9.77203 8.47121 10.1508C8.19238 9.10533 7.37955 8.42416 6.59976 8.21578C7.37748 7.33207 8.26384 6.5335 9.24848 5.8328C11.534 4.20871 14.1364 3.37684 16.7501 3.33715L16.862 3.33623ZM4.33009 11.3658C3.15223 11.3658 2.19668 12.8105 2.19694 14.5927C2.19694 14.9787 2.24172 15.3489 2.32385 15.6921L2.34833 15.7893C2.66257 16.9799 3.43171 17.8211 4.33009 17.8211C5.50796 17.8211 6.4615 16.3759 6.4615 14.5927C6.4615 12.8294 5.5253 11.3981 4.36638 11.3663L4.33009 11.3658Z" fill="url(#paint1_linear_1041_6405)"/>
</mask>
<g mask="url(#mask0_1041_6405)">
<ellipse cx="25.519" cy="19.4433" rx="12.7187" ry="9.32082" transform="rotate(-42.4988 25.519 19.4433)" fill="url(#paint2_linear_1041_6405)"/>
</g>
<defs>
<linearGradient id="paint0_linear_1041_6405" x1="24.9231" y1="11.77" x2="-0.317346" y2="4.00119" gradientUnits="userSpaceOnUse">
<stop stop-color="#4F5DFC"/>
<stop offset="1" stop-color="#A5ACFE"/>
</linearGradient>
<linearGradient id="paint1_linear_1041_6405" x1="11.1631" y1="12.7286" x2="22.9961" y2="23.7865" gradientUnits="userSpaceOnUse">
<stop stop-color="#6C78FD" stop-opacity="0.5"/>
<stop offset="1" stop-color="#8791FF"/>
</linearGradient>
<linearGradient id="paint2_linear_1041_6405" x1="16.8125" y1="14.6026" x2="23.9497" y2="27.2168" gradientUnits="userSpaceOnUse">
<stop stop-color="#9FA8FE"/>
<stop offset="0.670005" stop-color="#5260FC"/>
</linearGradient>
</defs>
</svg>
