<svg width="32" height="32" viewBox="0 0 32 32" fill="none" xmlns="http://www.w3.org/2000/svg">
<path d="M5.30903 28.7472C5.30903 29.4108 5.83992 29.9417 6.50353 29.9417C7.16714 29.9417 7.69803 29.4108 7.69803 28.7472C7.69803 28.0836 7.16714 27.5527 6.50353 27.5527C5.83992 27.5527 5.30903 28.0836 5.30903 28.7472ZM10.0539 28.7472C10.0539 29.4108 10.5847 29.9417 11.2484 29.9417C11.912 29.9417 12.4429 29.4108 12.4429 28.7472C12.4429 28.0836 11.912 27.5527 11.2484 27.5527C10.5847 27.5527 10.0539 28.0836 10.0539 28.7472ZM14.5664 28.7472C14.5664 29.4108 15.0973 29.9417 15.7609 29.9417C16.4245 29.9417 16.9554 29.4108 16.9554 28.7472C16.9554 28.0836 16.4245 27.5527 15.7609 27.5527C15.0973 27.5527 14.5664 28.0836 14.5664 28.7472ZM19.2117 28.7472C19.2117 29.4108 19.7426 29.9417 20.4062 29.9417C21.0698 29.9417 21.6007 29.4108 21.6007 28.7472C21.6007 28.0836 21.0698 27.5527 20.4062 27.5527C19.7426 27.5527 19.2117 28.0836 19.2117 28.7472ZM23.8902 28.7472C23.8902 29.4108 24.421 29.9417 25.0847 29.9417C25.7483 29.9417 26.2792 29.4108 26.2792 28.7472C26.2792 28.0836 25.7483 27.5527 25.0847 27.5527C24.421 27.5527 23.8902 28.0836 23.8902 28.7472ZM3.58364 25.2632C3.58364 25.9268 4.11453 26.4577 4.77814 26.4577C5.44175 26.4577 5.97264 25.9268 5.97264 25.2632C5.97264 24.5996 5.44175 24.0687 4.77814 24.0687C4.11453 24.0687 3.58364 24.6328 3.58364 25.2632ZM0.199219 23.7701C0.199219 24.4337 0.730108 24.9646 1.39372 24.9646C2.05733 24.9646 2.58822 24.4337 2.58822 23.7701C2.58822 23.1065 2.05733 22.5756 1.39372 22.5756C0.730108 22.5756 0.199219 23.1065 0.199219 23.7701ZM7.53213 25.2632C7.53213 25.9268 8.06302 26.4577 8.72663 26.4577C9.39024 26.4577 9.92113 25.9268 9.92113 25.2632C9.92113 24.5996 9.39024 24.0687 8.72663 24.0687C8.06302 24.0687 7.53213 24.6328 7.53213 25.2632ZM12.111 25.2632C12.111 25.9268 12.6419 26.4577 13.3055 26.4577C13.9692 26.4577 14.5 25.9268 14.5 25.2632C14.5 24.5996 13.9692 24.0687 13.3055 24.0687C12.6419 24.1019 12.111 24.6328 12.111 25.2632ZM16.69 25.2632C16.69 25.9268 17.2209 26.4577 17.8845 26.4577C18.5481 26.4577 19.079 25.9268 19.079 25.2632C19.079 24.5996 18.5481 24.0687 17.8845 24.0687C17.2209 24.1019 16.69 24.6328 16.69 25.2632ZM21.3353 25.2632C21.3353 25.9268 21.8661 26.4577 22.5297 26.4577C23.1934 26.4577 23.7243 25.9268 23.7243 25.2632C23.7243 24.5996 23.1934 24.0687 22.5297 24.0687C21.8661 24.1019 21.3353 24.6328 21.3353 25.2632ZM25.4496 25.2632C25.4496 25.9268 25.9805 26.4577 26.6441 26.4577C27.3078 26.4577 27.8386 25.9268 27.8386 25.2632C27.8386 24.5996 27.3078 24.0687 26.6441 24.0687C25.9805 24.1019 25.4496 24.6328 25.4496 25.2632ZM28.4691 23.4715C28.4691 24.1351 29 24.666 29.6636 24.666C30.3272 24.666 30.8581 24.1351 30.8581 23.4715C30.8581 22.8079 30.3272 22.277 29.6636 22.277C29 22.277 28.4691 22.8079 28.4691 23.4715Z" fill="url(#paint0_linear_1041_7114)"/>
<path d="M31.5063 16.9408L25.8304 7.73068C25.0596 6.48805 23.3078 6.48805 22.6071 7.73068L21.3809 9.70428L27.4421 19.5723C27.5472 19.7185 27.5822 19.8647 27.6173 20.0109H29.8596C31.3661 20.0109 32.3121 18.2931 31.5063 16.9408Z" fill="url(#paint1_linear_1041_7114)"/>
<path d="M14.7935 2.46785L3.51196 20.9247C3.1616 21.5094 3.547 22.2769 4.21268 22.2769H26.7408C27.4065 22.2769 27.7919 21.546 27.4415 20.9247L16.23 2.46785C15.9848 2.06582 15.4592 1.91963 15.0738 2.21201C14.9687 2.28511 14.8636 2.3582 14.7935 2.46785Z" fill="url(#paint2_linear_1041_7114)"/>
<mask id="mask0_1041_7114" style="mask-type:alpha" maskUnits="userSpaceOnUse" x="3" y="2" width="25" height="21">
<path d="M14.7935 2.46785L3.51196 20.9247C3.1616 21.5094 3.547 22.2769 4.21268 22.2769H26.7408C27.4065 22.2769 27.7919 21.546 27.4415 20.9247L16.23 2.46785C15.9848 2.06582 15.4592 1.91963 15.0738 2.21201C14.9687 2.28511 14.8636 2.3582 14.7935 2.46785Z" fill="url(#paint3_linear_1041_7114)"/>
</mask>
<g mask="url(#mask0_1041_7114)">
<ellipse cx="24.0445" cy="18.9708" rx="10.6617" ry="9.5477" fill="url(#paint4_linear_1041_7114)"/>
</g>
<defs>
<linearGradient id="paint0_linear_1041_7114" x1="30.8581" y1="26.5545" x2="20.8307" y2="7.34381" gradientUnits="userSpaceOnUse">
<stop stop-color="#FC4FD0"/>
<stop offset="1" stop-color="#FEA5E8"/>
</linearGradient>
<linearGradient id="paint1_linear_1041_7114" x1="26.5908" y1="6.79871" x2="26.5908" y2="22.2768" gradientUnits="userSpaceOnUse">
<stop stop-color="#FFA8E9"/>
<stop offset="0.56025" stop-color="#FF6BD9"/>
</linearGradient>
<linearGradient id="paint2_linear_1041_7114" x1="27.5736" y1="16.7286" x2="7.61703" y2="-1.69023" gradientUnits="userSpaceOnUse">
<stop stop-color="#FC4FD0"/>
<stop offset="1" stop-color="#FEA5E8"/>
</linearGradient>
<linearGradient id="paint3_linear_1041_7114" x1="27.5736" y1="10.8212" x2="2.69188" y2="20.2117" gradientUnits="userSpaceOnUse">
<stop offset="0.0870256" stop-color="#FFABEA"/>
<stop offset="1" stop-color="#FD68D8"/>
</linearGradient>
<linearGradient id="paint4_linear_1041_7114" x1="34.7062" y1="17.6992" x2="12.4176" y2="25.5492" gradientUnits="userSpaceOnUse">
<stop offset="0.0870256" stop-color="#FFABEA"/>
<stop offset="1" stop-color="#FD68D8"/>
</linearGradient>
</defs>
</svg>
