<svg width="32" height="32" viewBox="0 0 32 32" fill="none" xmlns="http://www.w3.org/2000/svg">
<path d="M28.0421 24.037C28.8373 24.037 29.4867 24.6687 29.4867 25.4404C29.4867 26.2128 28.8373 26.8444 28.0421 26.8444H23.3453L24.8628 28.8092C24.9764 28.9559 25.0593 29.1239 25.1064 29.3034C25.1535 29.4828 25.1639 29.6699 25.1369 29.8535C25.1099 30.037 25.0462 30.2132 24.9494 30.3715C24.8526 30.5298 24.7249 30.6669 24.5738 30.7746C24.3141 30.9641 24.0087 31.0553 23.7077 31.0553C23.4849 31.0563 23.2648 31.0062 23.0644 30.9089C22.864 30.8116 22.6885 30.6696 22.5514 30.494L19.7332 26.8444H12.2663L9.44866 30.494C9.31161 30.6696 9.13612 30.8116 8.93568 30.9089C8.73524 31.0062 8.51516 31.0563 8.29235 31.0553C7.981 31.0559 7.67749 30.9576 7.42559 30.7746C7.27483 30.6667 7.14737 30.5295 7.05082 30.3712C6.95426 30.2129 6.8906 30.0368 6.86364 29.8533C6.83667 29.6699 6.84695 29.4829 6.89386 29.3035C6.94077 29.1241 7.02335 28.956 7.13667 28.8092L8.65413 26.8444H3.95729C3.16213 26.8444 2.5127 26.2128 2.5127 25.4404C2.5127 24.6687 3.16213 24.037 3.95729 24.037H28.0421Z" fill="url(#paint0_linear_1041_6276)"/>
<rect x="2.50781" y="0.947388" width="26.9789" height="21.052" rx="2" fill="url(#paint1_linear_1041_6276)"/>
<mask id="mask0_1041_6276" style="mask-type:alpha" maskUnits="userSpaceOnUse" x="2" y="0" width="28" height="22">
<rect x="2.50684" y="0.947388" width="26.9789" height="21.052" rx="2" fill="url(#paint2_linear_1041_6276)"/>
</mask>
<g mask="url(#mask0_1041_6276)">
<ellipse cx="24.8471" cy="5.97895" rx="8.29054" ry="9.50978" transform="rotate(-56.2128 24.8471 5.97895)" fill="url(#paint3_linear_1041_6276)"/>
</g>
<path d="M13.1308 8.60334C13.4913 8.2433 14.0757 8.243 14.4361 8.60334L18.87 13.0372C19.2302 13.3976 19.23 13.982 18.87 14.3425C18.5095 14.703 17.9252 14.7029 17.5647 14.3425L13.1308 9.90863C12.7703 9.54814 12.7703 8.96382 13.1308 8.60334Z" fill="white"/>
<path fill-rule="evenodd" clip-rule="evenodd" d="M16.001 4.02161C20.1161 4.022 23.4529 7.35826 23.4529 11.4735C23.4528 15.5887 20.1161 18.9251 16.001 18.9255C11.8855 18.9255 8.54796 15.5889 8.54785 11.4735C8.54785 7.35802 11.8855 4.02161 16.001 4.02161ZM16.001 5.86776C12.9051 5.86776 10.3952 8.37762 10.3952 11.4735C10.3953 14.5693 12.9051 17.0793 16.001 17.0793C19.0965 17.0789 21.6066 14.5691 21.6067 11.4735C21.6067 8.37787 19.0965 5.86816 16.001 5.86776Z" fill="white"/>
<defs>
<linearGradient id="paint0_linear_1041_6276" x1="20.4381" y1="27.1157" x2="18.507" y2="20.34" gradientUnits="userSpaceOnUse">
<stop stop-color="#8396B3"/>
<stop offset="1" stop-color="#C9D1DE"/>
</linearGradient>
<linearGradient id="paint1_linear_1041_6276" x1="23.0541" y1="3.99634" x2="6.6607" y2="16.1096" gradientUnits="userSpaceOnUse">
<stop stop-color="#C9D1DE"/>
<stop offset="1" stop-color="#8396B3"/>
</linearGradient>
<linearGradient id="paint2_linear_1041_6276" x1="20.643" y1="12.4639" x2="29.4875" y2="4.56992" gradientUnits="userSpaceOnUse">
<stop stop-color="#9DADC9"/>
<stop offset="1" stop-color="#9DADC9" stop-opacity="0"/>
</linearGradient>
<linearGradient id="paint3_linear_1041_6276" x1="27.703" y1="6.8738" x2="35.2577" y2="1.21486" gradientUnits="userSpaceOnUse">
<stop stop-color="#9DADC9"/>
<stop offset="1" stop-color="#989DA7"/>
</linearGradient>
</defs>
</svg>
