<svg width="32" height="32" viewBox="0 0 32 32" fill="none" xmlns="http://www.w3.org/2000/svg">
<path d="M26.4036 8.19849H5.60116C4.94809 8.19849 4.42701 8.70531 4.44069 9.32444L4.94516 29.1424C4.9592 29.7167 5.20923 30.2629 5.64183 30.6645C6.07442 31.066 6.65526 31.291 7.26023 31.2913H24.7465C25.3518 31.2917 25.9331 31.067 26.3661 30.6653C26.799 30.2636 27.049 29.717 27.0625 29.1424L27.5592 9.32444C27.5632 9.17796 27.5363 9.03218 27.4801 8.89573C27.4238 8.75927 27.3393 8.6349 27.2316 8.52995C27.1239 8.425 26.9951 8.3416 26.8529 8.28467C26.7107 8.22774 26.5579 8.19844 26.4036 8.19849Z" fill="url(#paint0_linear_1041_6284)"/>
<mask id="mask0_1041_6284" style="mask-type:alpha" maskUnits="userSpaceOnUse" x="4" y="8" width="24" height="24">
<path d="M26.4036 8.19849H5.60116C4.94809 8.19849 4.42701 8.70531 4.44069 9.32444L4.94516 29.1424C4.9592 29.7167 5.20923 30.2629 5.64183 30.6645C6.07442 31.066 6.65526 31.291 7.26023 31.2913H24.7465C25.3518 31.2917 25.9331 31.067 26.3661 30.6653C26.799 30.2636 27.049 29.717 27.0625 29.1424L27.5592 9.32444C27.5632 9.17796 27.5363 9.03218 27.4801 8.89573C27.4238 8.75927 27.3393 8.6349 27.2316 8.52995C27.1239 8.425 26.9951 8.3416 26.8529 8.28467C26.7107 8.22774 26.5579 8.19844 26.4036 8.19849Z" fill="url(#paint1_linear_1041_6284)"/>
</mask>
<g mask="url(#mask0_1041_6284)">
<ellipse cx="7.63378" cy="8.61187" rx="7.63378" ry="8.61187" transform="matrix(0.625942 0.77987 -0.810168 0.586197 11.9023 2.71631)" fill="url(#paint2_linear_1041_6284)"/>
</g>
<path d="M21.0648 21.1166C21.0769 21.1166 21.0889 21.1173 21.1009 21.1178C21.1121 21.1182 21.1233 21.1181 21.1346 21.119C21.1426 21.1196 21.1506 21.1206 21.1586 21.1214C21.1899 21.1245 21.2209 21.1284 21.2511 21.1346C21.2606 21.1365 21.2695 21.1408 21.2788 21.143C21.3232 21.1537 21.3676 21.1662 21.411 21.1839C21.4208 21.1879 21.4302 21.1928 21.4398 21.1971C21.4514 21.2022 21.4633 21.2071 21.4747 21.2127C21.5088 21.2297 21.5411 21.2488 21.5721 21.2692C21.5783 21.2733 21.584 21.2782 21.5901 21.2824C21.6197 21.303 21.6465 21.3263 21.673 21.3497C21.6965 21.3705 21.7191 21.3917 21.7403 21.4146C21.7582 21.434 21.7748 21.4541 21.7908 21.4747C21.8122 21.5022 21.8327 21.5302 21.8509 21.5601C21.8623 21.5788 21.8721 21.5983 21.8822 21.6178C21.8999 21.652 21.9157 21.687 21.929 21.7235C21.9359 21.7424 21.9402 21.7619 21.9459 21.7812C21.9699 21.8636 21.9879 21.9495 21.9879 22.0396V24.5625C21.9876 25.072 21.5744 25.4855 21.0648 25.4856C20.5811 25.4856 20.1847 25.113 20.1454 24.6394C19.0258 25.5582 17.6 26.1153 16.0216 26.1154C13.4296 26.1152 11.188 24.621 10.1093 22.4507C9.88246 21.9942 10.0687 21.4396 10.5252 21.2127C10.9817 20.9859 11.5363 21.1721 11.7632 21.6286C12.542 23.1955 14.1571 24.269 16.0216 24.2692C17.2851 24.2692 18.4185 23.7745 19.2608 22.9627H18.9266C18.4169 22.9627 18.0037 22.5493 18.0035 22.0396C18.0035 21.5298 18.4168 21.1166 18.9266 21.1166H21.0648Z" fill="#E3FAFF"/>
<path d="M15.9783 13.3738C18.5705 13.3738 20.8119 14.8691 21.8906 17.0396C22.1174 17.4961 21.9311 18.0495 21.4747 18.2764C21.0182 18.503 20.4647 18.317 20.2379 17.8606C19.4591 16.2936 17.8429 15.22 15.9783 15.2199C14.7144 15.22 13.5812 15.7153 12.7391 16.5276H13.0745C13.5841 16.5278 13.9975 16.941 13.9975 17.4507C13.9972 17.9601 13.5839 18.3736 13.0745 18.3738H10.9362C10.9177 18.3738 10.8992 18.3713 10.881 18.3702H10.8773C10.8242 18.3668 10.7727 18.3581 10.7223 18.3461C10.6787 18.3357 10.6351 18.3236 10.5925 18.3065C10.5793 18.3012 10.5669 18.2943 10.554 18.2884C10.5446 18.2841 10.5345 18.2811 10.5252 18.2764C10.4906 18.2592 10.458 18.2395 10.4266 18.2187C10.4213 18.2152 10.4162 18.2115 10.411 18.2079C10.3826 18.1883 10.3573 18.1653 10.3317 18.143C10.307 18.1215 10.283 18.0997 10.2608 18.0757C10.2401 18.0534 10.2213 18.03 10.2031 18.006C10.1853 17.9826 10.1681 17.959 10.1526 17.9339C10.1379 17.9101 10.1253 17.8855 10.1129 17.8606C10.0984 17.8315 10.0847 17.8023 10.0733 17.7716C10.0628 17.7436 10.0545 17.7152 10.0468 17.6863C10.0389 17.6562 10.0301 17.6262 10.0252 17.5949C10.0231 17.5821 10.0207 17.5694 10.0192 17.5565C10.0152 17.5218 10.0132 17.4865 10.0132 17.4507V14.9279C10.0132 14.4181 10.4264 14.0048 10.9362 14.0048C11.4189 14.0049 11.8137 14.3753 11.8545 14.8473C12.9738 13.929 14.4006 13.3739 15.9783 13.3738Z" fill="#E3FAFF"/>
<path d="M28.3069 3.62061H22.4167L21.1118 1.54936C20.7853 1.0313 20.193 0.70874 19.5664 0.70874H12.4319C11.8053 0.70874 11.213 1.0313 10.8865 1.54936L9.58354 3.62061H3.69235C3.13323 3.62061 2.67773 4.0722 2.67773 4.63229V6.91964H29.3215V4.63229C29.3215 4.0722 28.866 3.62061 28.3069 3.62061ZM10.995 3.60595L11.8913 2.18374C11.9503 2.09441 12.0308 2.02141 12.1255 1.97151C12.2201 1.92162 12.3259 1.89644 12.4329 1.89832H19.5674C19.7912 1.89832 19.9975 2.00584 20.1089 2.18374L21.0052 3.60595H10.995Z" fill="url(#paint3_linear_1041_6284)"/>
<defs>
<linearGradient id="paint0_linear_1041_6284" x1="28.0523" y1="31.2913" x2="6.4096" y2="7.37846" gradientUnits="userSpaceOnUse">
<stop stop-color="#A1EFFF"/>
<stop offset="1" stop-color="#00AFD1"/>
</linearGradient>
<linearGradient id="paint1_linear_1041_6284" x1="6.00482" y1="34.191" x2="25.9192" y2="20.3429" gradientUnits="userSpaceOnUse">
<stop stop-color="#00B4D8"/>
<stop offset="1" stop-color="#1FDAFF"/>
</linearGradient>
<linearGradient id="paint2_linear_1041_6284" x1="1.0331" y1="19.3865" x2="15.1805" y2="10.6759" gradientUnits="userSpaceOnUse">
<stop stop-color="#00B4D8"/>
<stop offset="1" stop-color="#4FE1FE"/>
</linearGradient>
<linearGradient id="paint3_linear_1041_6284" x1="24.789" y1="5.83017" x2="22.2928" y2="-4.00877" gradientUnits="userSpaceOnUse">
<stop stop-color="#00AFD1"/>
<stop offset="1" stop-color="#A1EFFF"/>
</linearGradient>
</defs>
</svg>
