<svg width="32" height="32" viewBox="0 0 32 32" fill="none" xmlns="http://www.w3.org/2000/svg">
<path d="M27.553 23.7107C28.3159 23.7107 28.9389 24.3167 28.9389 25.0571C28.9389 25.7981 28.3159 26.4041 27.553 26.4041H23.047L24.5028 28.2891C24.6118 28.4298 24.6913 28.591 24.7365 28.7632C24.7817 28.9353 24.7917 29.1148 24.7658 29.2909C24.7399 29.467 24.6787 29.6361 24.5859 29.7879C24.4931 29.9398 24.3705 30.0713 24.2256 30.1747C23.9764 30.3564 23.6834 30.4439 23.3947 30.4439C23.1809 30.4449 22.9698 30.3968 22.7775 30.3035C22.5852 30.2101 22.4168 30.0739 22.2853 29.9054L19.5816 26.4041H12.4179L9.71478 29.9054C9.58329 30.0739 9.41494 30.2101 9.22264 30.3035C9.03034 30.3968 8.8192 30.4449 8.60544 30.4439C8.30673 30.4445 8.01556 30.3502 7.77389 30.1747C7.62925 30.0711 7.50696 29.9395 7.41433 29.7876C7.3217 29.6357 7.26063 29.4668 7.23476 29.2908C7.20888 29.1148 7.21875 28.9354 7.26375 28.7633C7.30876 28.5912 7.38799 28.4299 7.4967 28.2891L8.95253 26.4041H4.44647C3.6836 26.4041 3.06055 25.7981 3.06055 25.0571C3.06055 24.3167 3.6836 23.7107 4.44647 23.7107H27.553Z" fill="url(#paint0_linear_1041_4928)"/>
<rect x="3.05566" y="1.5589" width="25.8831" height="20.1969" rx="2" fill="url(#paint1_linear_1041_4928)"/>
<mask id="mask0_1041_4928" style="mask-type:alpha" maskUnits="userSpaceOnUse" x="3" y="1" width="26" height="21">
<rect x="3.05566" y="1.5589" width="25.8831" height="20.1969" rx="2" fill="url(#paint2_linear_1041_4928)"/>
</mask>
<g mask="url(#mask0_1041_4928)">
<ellipse cx="23.094" cy="6.76036" rx="8.90556" ry="8.71196" fill="url(#paint3_linear_1041_4928)"/>
</g>
<path fill-rule="evenodd" clip-rule="evenodd" d="M15.9971 5.74487L16.1285 5.75112C16.7772 5.8131 17.2933 6.32923 17.3553 6.97788L17.3615 7.10928V9.38329C17.3615 9.63447 17.5651 9.83809 17.8163 9.83809C18.0396 9.83809 18.2253 9.6772 18.2638 9.46504L18.2711 9.38329L18.2718 7.59502C18.2718 7.46943 18.3736 7.36766 18.4992 7.3677C18.5393 7.36772 18.5787 7.37833 18.6134 7.39846L18.7391 7.47149C20.0623 8.33903 20.926 9.80488 20.9954 11.4434L20.9999 11.6573V13.029C21.8097 13.4557 22.2964 14.0255 22.3577 14.6958L22.3643 14.8409C22.3643 16.4967 19.5372 17.5697 15.9971 17.5697C12.457 17.5697 9.62988 16.4967 9.62988 14.8409C9.62988 14.1565 10.0628 13.5695 10.8236 13.1236L10.9943 13.0281V11.6573C10.9943 9.92634 11.8812 8.36765 13.2652 7.46482L13.3816 7.39741C13.4903 7.33447 13.6294 7.37155 13.6923 7.48023C13.7124 7.51485 13.7229 7.55416 13.7229 7.59417L13.7231 9.38329C13.7231 9.63447 13.9267 9.83809 14.1779 9.83809C14.4012 9.83809 14.5869 9.6772 14.6254 9.46504L14.6327 9.38329V7.10928L14.6389 6.97788C14.7051 6.28599 15.2879 5.74487 15.9971 5.74487ZM20.912 14.3984C20.7627 14.1963 20.478 14.1535 20.2759 14.3027C19.4174 14.9368 17.8663 15.2969 15.9971 15.2969C14.1275 15.2969 12.5761 14.9367 11.7178 14.3023C11.5158 14.1531 11.231 14.1958 11.0817 14.3978C10.9324 14.5998 10.9752 14.8846 11.1772 15.0339C12.2202 15.8047 13.9508 16.2065 15.9971 16.2065C18.0429 16.2065 19.7733 15.8048 20.8163 15.0344C21.0184 14.8852 21.0612 14.6004 20.912 14.3984Z" fill="url(#paint4_linear_1041_4928)"/>
<defs>
<linearGradient id="paint0_linear_1041_4928" x1="20.2394" y1="33.1223" x2="22.9301" y2="26.2722" gradientUnits="userSpaceOnUse">
<stop offset="0.0919247" stop-color="#FFB8B8"/>
<stop offset="1" stop-color="#FE6C6C"/>
</linearGradient>
<linearGradient id="paint1_linear_1041_4928" x1="17.5937" y1="21.1254" x2="9.38256" y2="-0.809505" gradientUnits="userSpaceOnUse">
<stop offset="0.393535" stop-color="#FE6C6C"/>
<stop offset="1" stop-color="#FFC7C7"/>
</linearGradient>
<linearGradient id="paint2_linear_1041_4928" x1="1.39123" y1="19.0363" x2="20.3917" y2="2.15264" gradientUnits="userSpaceOnUse">
<stop stop-color="#FBA9A9"/>
<stop offset="1" stop-color="#FF7272"/>
</linearGradient>
<linearGradient id="paint3_linear_1041_4928" x1="13.0431" y1="13.1262" x2="28.6176" y2="2.08714" gradientUnits="userSpaceOnUse">
<stop stop-color="#FBA9A9"/>
<stop offset="1" stop-color="#FF7272"/>
</linearGradient>
<linearGradient id="paint4_linear_1041_4928" x1="15.9971" y1="5.74487" x2="15.9971" y2="17.5697" gradientUnits="userSpaceOnUse">
<stop stop-color="white"/>
<stop offset="1" stop-color="white" stop-opacity="0.8"/>
</linearGradient>
</defs>
</svg>
