<svg width="32" height="32" viewBox="0 0 32 32" fill="none" xmlns="http://www.w3.org/2000/svg">
<path d="M21.9883 26.9348C20.9856 27.4212 19.8502 26.7985 19.5391 25.7283L19.386 25.2015C19.0892 24.1807 19.6609 23.1258 20.5629 22.5632C21.5129 21.9707 22.3428 21.1945 23.0007 20.2735C24.0282 18.8348 24.5856 17.1136 24.5963 15.3457C24.5298 13.0586 23.5736 10.8877 21.9312 9.29485C20.2887 7.70195 18.0896 6.81273 15.8016 6.81634C13.5136 6.81995 11.3172 7.71611 9.67981 9.31419C8.04239 10.9123 7.09308 13.0861 7.03383 15.3734C7.05114 17.2019 7.65312 18.9769 8.75171 20.4387C9.45167 21.37 10.3298 22.1431 11.328 22.7174C12.2775 23.2636 12.8963 24.3445 12.594 25.3974L12.4953 25.7413C12.1876 26.8132 11.0532 27.4396 10.0486 26.9555C8.18473 26.0573 6.553 24.7222 5.29902 23.052C3.63719 20.8385 2.72566 18.1522 2.69728 15.3845C2.68619 8.23084 8.63092 2.4303 15.9786 2.41921C23.3264 2.40811 29.2933 8.19203 29.3044 15.3401C29.2863 18.1081 28.3838 20.7979 26.7287 23.0167C25.4794 24.6914 23.8507 26.0316 21.9883 26.9348ZM20.537 15.3568C20.5032 14.1495 19.9995 13.003 19.1332 12.1616C18.2668 11.3201 17.1062 10.85 15.8984 10.8515C14.6906 10.8529 13.5311 11.3257 12.6668 12.1693C11.8024 13.0128 11.3014 14.1605 11.2706 15.3678C11.2788 16.2916 11.5704 17.1905 12.106 17.9432C12.4302 18.3989 12.8343 18.7877 13.2958 19.0925C13.8055 19.4292 14.1345 20.0338 13.9667 20.6213C13.785 21.2573 13.1017 21.62 12.5222 21.301C11.6435 20.8173 10.8774 20.1438 10.2828 19.3239C9.44909 18.1742 8.99387 16.7935 8.98028 15.3734C9.02869 13.5454 9.78811 11.8085 11.0971 10.5316C12.4061 9.25484 14.1615 8.5389 15.99 8.53601C17.8186 8.53312 19.5762 9.24351 20.8893 10.5162C22.2023 11.7888 22.9672 13.5234 23.0214 15.3512C23.0122 16.7713 22.5616 18.1534 21.732 19.306C21.1526 20.1109 20.4083 20.776 19.5544 21.2605C18.9494 21.6038 18.229 21.2248 18.0356 20.5567C17.8624 19.9585 18.1819 19.3393 18.6848 18.972C19.1034 18.6664 19.4684 18.2893 19.7619 17.8555C20.2612 17.1173 20.5309 16.2479 20.537 15.3568ZM15.9565 13.3604C15.6902 13.3566 15.4257 13.4054 15.1783 13.504C14.9309 13.6027 14.7054 13.7492 14.5148 13.9352C14.3241 14.1212 14.1721 14.343 14.0674 14.5879C13.9627 14.8328 13.9074 15.096 13.9046 15.3623C13.9062 15.7236 14.0061 16.0776 14.1937 16.3863C14.3069 16.5727 14.4494 16.7382 14.615 16.8771C14.8058 17.0372 14.9205 17.2863 14.8523 17.5257C14.7647 17.8329 14.4223 17.9937 14.1618 17.8088C13.8561 17.5918 13.5921 17.3187 13.3845 17.0023C13.0659 16.5164 12.8941 15.9489 12.8898 15.3678C12.91 14.5571 13.2459 13.7862 13.8259 13.2194C14.406 12.6525 15.1844 12.3345 15.9954 12.3331C16.8065 12.3316 17.586 12.6469 18.1681 13.2116C18.7502 13.7764 19.0888 14.5461 19.1118 15.3568C19.1091 15.9382 18.9387 16.5064 18.6209 16.9933C18.4203 17.3008 18.1663 17.5676 17.8726 17.7821C17.5997 17.9814 17.2367 17.8126 17.1425 17.4881C17.0712 17.2425 17.1825 16.9857 17.3704 16.8123C17.5173 16.6768 17.6436 16.5194 17.7446 16.3451C17.9186 16.0446 18.0114 15.704 18.0138 15.3568C18.0041 14.8197 17.7822 14.3084 17.3968 13.9344C17.0113 13.5603 16.4935 13.354 15.9565 13.3604ZM14.0595 29.5802C13.7441 29.5805 13.5071 29.2923 13.5685 28.9829L15.5147 19.1671C15.621 18.6311 16.3872 18.6297 16.4953 19.1655L18.4754 28.9771C18.5378 29.2865 18.3014 29.5756 17.9858 29.576L14.0595 29.5802Z" fill="url(#paint0_linear_1041_6421)"/>
<path d="M22.3848 4.44666C22.6573 4.44666 22.9277 4.45712 23.1953 4.474C26.8641 6.77304 29.2966 10.7788 29.3037 15.3402C29.2867 17.9314 28.494 20.4535 27.0352 22.5853C25.6225 23.157 24.0472 23.4789 22.3848 23.4789C21.5053 23.4789 20.6508 23.386 19.8311 23.2172C20.0318 22.9619 20.2812 22.7383 20.5625 22.5629C21.5122 21.9705 22.3423 21.1946 23 20.2738C24.0275 18.8353 24.5849 17.1138 24.5957 15.3461C24.5292 13.059 23.5731 10.8872 21.9307 9.29431C20.2882 7.70148 18.0887 6.81218 15.8008 6.8158C15.5609 6.81618 15.3222 6.82825 15.085 6.84802C17.0265 5.35446 19.5829 4.44671 22.3848 4.44666ZM15.5137 19.1674C15.62 18.6313 16.386 18.6298 16.4941 19.1654L17.1309 22.3236C16.4102 21.9836 15.7395 21.5744 15.1279 21.1088L15.5137 19.1674ZM15.9893 8.53552C17.8178 8.53263 19.5756 9.24332 20.8887 10.516C22.2016 11.7886 22.9663 13.5233 23.0205 15.351C23.0114 16.771 22.5611 18.1535 21.7314 19.306C21.1521 20.1109 20.4076 20.7756 19.5537 21.2601C18.9489 21.6033 18.2288 21.2249 18.0352 20.557C17.862 19.9589 18.1808 19.3393 18.6836 18.972C19.102 18.6665 19.4673 18.2894 19.7607 17.8558C20.2601 17.1177 20.53 16.2479 20.5361 15.3568C20.5024 14.1496 19.9991 13.003 19.1328 12.1615C18.2664 11.32 17.1052 10.8495 15.8975 10.851C14.6898 10.8524 13.5303 11.3258 12.666 12.1693C12.0412 12.7791 11.6071 13.5479 11.4023 14.3832C11.3953 14.2438 11.3906 14.1032 11.3906 13.9623C11.3907 12.2728 11.9009 10.6872 12.793 9.31189C13.7735 8.80851 14.8674 8.5373 15.9893 8.53552ZM12.9375 18.8285C13.0525 18.9219 13.1713 19.0105 13.2949 19.0922C13.655 19.33 13.9239 19.7021 13.9922 20.1068C13.6016 19.7075 13.2487 19.2802 12.9375 18.8285ZM15.9951 12.3334C16.8058 12.332 17.5851 12.6468 18.167 13.2113C18.7491 13.7761 19.0883 14.5461 19.1113 15.3568C19.1086 15.9382 18.9378 16.5067 18.6201 16.9935C18.4196 17.3008 18.1656 17.5672 17.8721 17.7816C17.5992 17.9809 17.2358 17.8122 17.1416 17.4877C17.0705 17.2423 17.1814 16.9852 17.3691 16.8119C17.516 16.6764 17.6431 16.5194 17.7441 16.3451C17.9182 16.0447 18.0103 15.704 18.0127 15.3568C18.0029 14.8198 17.7819 14.308 17.3965 13.934C17.0111 13.56 16.493 13.3544 15.9561 13.3607C15.6898 13.3569 15.4251 13.4056 15.1777 13.5043C14.9303 13.6029 14.7043 13.7489 14.5137 13.9349C14.3231 14.1209 14.1711 14.3434 14.0664 14.5883C13.9618 14.833 13.907 15.0965 13.9043 15.3627C13.9059 15.7238 14.0058 16.0775 14.1934 16.3861C14.3066 16.5724 14.4487 16.7384 14.6143 16.8773C14.8049 17.0374 14.9198 17.2863 14.8516 17.5258C14.764 17.8328 14.4216 17.9937 14.1611 17.809C13.8555 17.592 13.5913 17.3187 13.3838 17.0023C13.0651 16.5164 12.8929 15.9486 12.8887 15.3676C12.9089 14.5569 13.2452 13.7859 13.8252 13.2191C14.4052 12.6523 15.1841 12.3348 15.9951 12.3334Z" fill="url(#paint1_linear_1041_6421)"/>
<defs>
<linearGradient id="paint0_linear_1041_6421" x1="29.3044" y1="22.1273" x2="3.43167" y2="2.57892" gradientUnits="userSpaceOnUse">
<stop stop-color="#FC4FD0"/>
<stop offset="1" stop-color="#FEA5E8"/>
</linearGradient>
<linearGradient id="paint1_linear_1041_6421" x1="29.3037" y1="11.541" x2="15.5533" y2="20.9863" gradientUnits="userSpaceOnUse">
<stop stop-color="#FFABEA"/>
<stop offset="1" stop-color="#FD68D8"/>
</linearGradient>
</defs>
</svg>
