<svg width="32" height="32" viewBox="0 0 32 32" fill="none" xmlns="http://www.w3.org/2000/svg">
<path d="M7.99698 24.4706V14.849C7.99221 13.7857 8.19751 12.732 8.60108 11.7484C9.00466 10.7647 9.59856 9.87046 10.3487 9.11696C11.0988 8.36345 11.9904 7.76554 12.9723 7.35756C13.9541 6.94958 15.0069 6.73956 16.0701 6.73956C17.1333 6.73956 18.1861 6.94958 19.1679 7.35756C20.1498 7.76554 21.0414 8.36345 21.7915 9.11696C22.5416 9.87046 23.1355 10.7647 23.5391 11.7484C23.9427 12.732 24.148 13.7857 24.1432 14.849V24.4714L7.99698 24.4706ZM15.061 0H17.0792V4.39572H15.061V0ZM1.23047 13.8388H5.62261V15.8585H1.23047V13.8388ZM26.5182 13.8388H30.911V15.8585H26.5176L26.5182 13.8388ZM6.28756 3.63182L9.39415 6.74848L7.97066 8.177L4.86505 5.05969L6.28756 3.63182ZM25.8434 3.63296L27.2709 5.06473L24.1739 8.1731L22.747 6.74084L25.8434 3.63296ZM13.1195 17.2776C13.105 17.3141 13.1005 17.3538 13.1065 17.3926C13.1125 17.4314 13.1288 17.4679 13.1537 17.4983C13.1786 17.5287 13.2111 17.5518 13.2479 17.5654C13.2848 17.579 13.3246 17.5824 13.3632 17.5754H15.1385C15.1844 17.569 15.2312 17.5744 15.2744 17.5911C15.3177 17.6078 15.3559 17.6353 15.3856 17.6709C15.4153 17.7065 15.4355 17.7491 15.4442 17.7946C15.4528 17.8401 15.4498 17.8871 15.4353 17.9312L14.8416 20.8417C14.7224 21.6137 14.9599 21.7329 15.3753 21.0793L18.9847 15.9181C19.1035 15.799 19.0442 15.6804 18.806 15.6208L16.5564 15.5614C16.3777 15.5614 16.3189 15.4428 16.3777 15.2645L17.6183 12.2946C17.7369 12.1159 17.6183 11.9979 17.4396 11.9979H15.4886C15.3896 11.9979 15.2926 12.0257 15.2086 12.0782C15.1246 12.1306 15.0571 12.2056 15.0137 12.2946L13.1195 17.2776Z" fill="url(#paint0_linear_1041_5089)"/>
<mask id="mask0_1041_5089" style="mask-type:alpha" maskUnits="userSpaceOnUse" x="1" y="0" width="30" height="31">
<path d="M4.07923 25.6586H27.8236V27.6782H4.07923V25.6586ZM2.12027 28.8656H29.9011V30.8854H2.12027V28.8656ZM7.99698 24.4706V14.849C7.99221 13.7857 8.19751 12.732 8.60108 11.7484C9.00466 10.7647 9.59856 9.87046 10.3487 9.11696C11.0988 8.36345 11.9904 7.76554 12.9723 7.35756C13.9541 6.94958 15.0069 6.73956 16.0701 6.73956C17.1333 6.73956 18.1861 6.94958 19.1679 7.35756C20.1498 7.76554 21.0414 8.36345 21.7915 9.11696C22.5416 9.87046 23.1355 10.7647 23.5391 11.7484C23.9427 12.732 24.148 13.7857 24.1432 14.849V24.4714H7.99698V24.4706ZM15.061 0H17.0792V4.39572H15.061V0ZM1.23047 13.8388H5.62261V15.8585H1.23047V13.8388ZM26.5182 13.8388H30.911V15.8585H26.5176V13.8388H26.5182ZM6.28756 3.63182L9.39415 6.74848L7.97066 8.177L4.86505 5.05969L6.28756 3.63182ZM25.8434 3.63296L27.2709 5.06473L24.1739 8.1731L22.747 6.74084L25.8443 3.63296H25.8434ZM13.1195 17.2776C13.105 17.3141 13.1005 17.3538 13.1065 17.3926C13.1125 17.4314 13.1288 17.4679 13.1537 17.4983C13.1786 17.5287 13.2111 17.5518 13.2479 17.5654C13.2848 17.579 13.3246 17.5824 13.3632 17.5754H15.1385C15.1844 17.569 15.2312 17.5744 15.2744 17.5911C15.3177 17.6078 15.3559 17.6353 15.3856 17.6709C15.4153 17.7065 15.4355 17.7491 15.4442 17.7946C15.4528 17.8401 15.4498 17.8871 15.4353 17.9312L14.8416 20.8417C14.7224 21.6137 14.9599 21.7329 15.3753 21.0794L18.9847 15.9181C19.1035 15.799 19.0442 15.6804 18.806 15.6208L16.5564 15.5614C16.3777 15.5614 16.3189 15.4428 16.3777 15.2645L17.6183 12.2946C17.7369 12.1159 17.6183 11.9979 17.4396 11.9979H15.4886C15.3896 11.9979 15.2926 12.0258 15.2086 12.0782C15.1246 12.1306 15.0571 12.2056 15.0137 12.2946L13.1195 17.2782V17.2776Z" fill="url(#paint1_linear_1041_5089)"/>
</mask>
<g mask="url(#mask0_1041_5089)">
<ellipse cx="26.8417" cy="9.81039" rx="9.5401" ry="7.90732" transform="rotate(180 26.8417 9.81039)" fill="url(#paint2_linear_1041_5089)"/>
</g>
<path d="M4.07908 25.6586H27.8234V27.6782H4.07908V25.6586ZM2.12012 28.8656H29.901V30.8853H2.12012V28.8656Z" fill="url(#paint3_linear_1041_5089)"/>
<defs>
<linearGradient id="paint0_linear_1041_5089" x1="29.6088" y1="30.8261" x2="3.60826" y2="3.24402" gradientUnits="userSpaceOnUse">
<stop stop-color="#FFC7C7"/>
<stop offset="1" stop-color="#FE6C6C"/>
</linearGradient>
<linearGradient id="paint1_linear_1041_5089" x1="28.9934" y1="31.4415" x2="4.73462" y2="0.118486" gradientUnits="userSpaceOnUse">
<stop stop-color="#FFC7C7"/>
<stop offset="1" stop-color="#FE6C6C"/>
</linearGradient>
<linearGradient id="paint2_linear_1041_5089" x1="29.0527" y1="18.4233" x2="30.0887" y2="6.38926" gradientUnits="userSpaceOnUse">
<stop stop-color="#FBA9A9"/>
<stop offset="1" stop-color="#FF7272"/>
</linearGradient>
<linearGradient id="paint3_linear_1041_5089" x1="29.901" y1="29.6606" x2="27.6325" y2="22.0592" gradientUnits="userSpaceOnUse">
<stop stop-color="#FFC7C7"/>
<stop offset="1" stop-color="#FE6C6C"/>
</linearGradient>
</defs>
</svg>
