<svg width="32" height="32" viewBox="0 0 32 32" fill="none" xmlns="http://www.w3.org/2000/svg">
<g clip-path="url(#clip0_1041_6368)">
<path d="M28.5278 15.7225C26.7879 13.9994 24.5963 13.0959 22.1705 13.0959C19.7614 13.0959 17.5029 14.0328 15.8132 15.7225C14.0733 17.4624 13.1699 19.654 13.1699 22.0798C13.1699 24.5224 14.0733 26.7307 15.7965 28.4371C17.4862 30.1268 19.7447 31.0637 22.1538 31.0637C24.5963 31.0637 26.7879 30.1603 28.5111 28.4371C30.2343 26.714 31.1377 24.5224 31.1377 22.0798C31.1544 19.654 30.2343 17.4457 28.5278 15.7225ZM22.3378 24.7566C23.1576 24.7566 23.9439 24.3718 24.4625 23.6859C24.515 23.6124 24.5997 23.5688 24.6901 23.5688H26.5537C26.7606 23.5688 26.901 23.7793 26.8214 23.9703C26.4701 24.8402 25.8511 25.5763 25.0648 26.1117C24.2617 26.6638 23.3081 26.9649 22.3211 26.9649C19.6276 26.9649 17.4193 24.7733 17.4193 22.0631C17.4193 19.3529 19.6109 17.1613 22.3211 17.1613C24.2952 17.1613 26.0685 18.3491 26.8214 20.1726C26.9015 20.373 26.754 20.5909 26.5382 20.5909H24.7542C24.656 20.5909 24.5647 20.5403 24.5127 20.457C24.0108 19.7209 23.2078 19.3027 22.3211 19.3027C20.8154 19.3027 19.6109 20.524 19.6109 22.0129C19.6276 23.5353 20.8321 24.7566 22.3378 24.7566Z" fill="url(#paint0_linear_1041_6368)"/>
<mask id="mask0_1041_6368" style="mask-type:alpha" maskUnits="userSpaceOnUse" x="13" y="13" width="19" height="19">
<path d="M28.5288 15.7224C26.7889 13.9992 24.5973 13.0958 22.1715 13.0958C19.7624 13.0958 17.5039 14.0327 15.8142 15.7224C14.0743 17.4623 13.1709 19.6539 13.1709 22.0797C13.1709 24.5222 14.0743 26.7306 15.7975 28.437C17.4872 30.1267 19.7457 31.0636 22.1548 31.0636C24.5973 31.0636 26.7889 30.1602 28.5121 28.437C30.2352 26.7138 31.1386 24.5222 31.1386 22.0797C31.1554 19.6539 30.2352 17.4456 28.5288 15.7224ZM22.3388 24.7565C23.1586 24.7565 23.9448 24.3717 24.4635 23.6857C24.516 23.6123 24.6007 23.5686 24.691 23.5686H26.5547C26.7616 23.5686 26.9019 23.7791 26.8224 23.9702C26.471 24.8401 25.852 25.5762 25.0657 26.1116C24.2627 26.6636 23.3091 26.9648 22.3221 26.9648C19.6286 26.9648 17.4203 24.7732 17.4203 22.063C17.4203 19.3527 19.6118 17.1612 22.3221 17.1612C24.2962 17.1612 26.0695 18.349 26.8224 20.1725C26.9025 20.3728 26.755 20.5907 26.5392 20.5907H24.7551C24.657 20.5907 24.5657 20.5402 24.5137 20.4569C24.0118 19.7208 23.2087 19.3026 22.3221 19.3026C20.8164 19.3026 19.6118 20.5238 19.6118 22.0128C19.6286 23.5352 20.8331 24.7565 22.3388 24.7565Z" fill="url(#paint1_linear_1041_6368)"/>
</mask>
<g mask="url(#mask0_1041_6368)">
<path d="M29.6934 20.2856C33.4626 20.2856 36.5186 22.8026 36.5186 25.9067C36.5182 29.0106 33.4624 31.5269 29.6934 31.5269C28.6507 31.5268 27.6631 31.333 26.7793 30.9888C26.2803 33.5819 24.0014 35.5414 21.2627 35.5415C18.1587 35.5415 15.6419 33.0253 15.6416 29.9214C15.6416 26.8173 18.1586 24.3003 21.2627 24.3003C21.8901 24.3003 22.4932 24.4045 23.0566 24.5942C23.7744 22.1232 26.4728 20.2857 29.6934 20.2856Z" fill="url(#paint2_linear_1041_6368)"/>
</g>
<path d="M22.3385 24.7564C23.1582 24.7564 23.9445 24.3716 24.4631 23.6857C24.5156 23.6122 24.6004 23.5686 24.6907 23.5686H26.5544C26.7613 23.5686 26.9016 23.7791 26.822 23.9701C26.4707 24.8401 25.8517 25.5762 25.0654 26.1115C24.2624 26.6636 23.3088 26.9648 22.3217 26.9648C19.6282 26.9648 17.4199 24.7732 17.4199 22.0629C17.4199 19.3527 19.6115 17.1611 22.3217 17.1611C24.2958 17.1611 26.0692 18.3489 26.822 20.1725C26.9022 20.3728 26.7546 20.5907 26.5389 20.5907H24.7548C24.6566 20.5907 24.5654 20.5401 24.5133 20.4569C24.0114 19.7208 23.2084 19.3025 22.3217 19.3025C20.8161 19.3025 19.6115 20.5238 19.6115 22.0128C19.6282 23.5352 20.8328 24.7564 22.3385 24.7564Z" fill="#F0F2FE"/>
<path d="M23.4775 0.936523C24.5821 0.936523 25.4775 1.83195 25.4775 2.93652V11.127C24.4403 10.8174 23.342 10.6484 22.2041 10.6484C15.891 10.6484 10.7734 15.767 10.7734 22.0801C10.7735 24.926 11.8163 27.5266 13.5371 29.5273H2.8623C1.75784 29.5273 0.862449 28.6318 0.862305 27.5273V2.93652C0.862305 1.83196 1.75775 0.936537 2.8623 0.936523H23.4775Z" fill="url(#paint3_linear_1041_6368)"/>
<path d="M5.27734 5.92554H17.6486" stroke="#F0F2FE" stroke-width="1.5" stroke-linecap="round" stroke-linejoin="round"/>
<path d="M5.27734 10.8187H11.0503" stroke="#F0F2FE" stroke-width="1.5" stroke-linecap="round" stroke-linejoin="round"/>
</g>
<defs>
<linearGradient id="paint0_linear_1041_6368" x1="28.0812" y1="23.503" x2="14.015" y2="12.7402" gradientUnits="userSpaceOnUse">
<stop offset="0.304683" stop-color="#4F5DFC"/>
<stop offset="1" stop-color="#A5ACFE"/>
</linearGradient>
<linearGradient id="paint1_linear_1041_6368" x1="24.865" y1="29.9374" x2="14.4984" y2="13.0305" gradientUnits="userSpaceOnUse">
<stop stop-color="#4F5DFC"/>
<stop offset="1" stop-color="#A5ACFE"/>
</linearGradient>
<linearGradient id="paint2_linear_1041_6368" x1="37.0841" y1="33.4612" x2="15.2131" y2="33.4612" gradientUnits="userSpaceOnUse">
<stop stop-color="#8791FF"/>
<stop offset="1" stop-color="#6C78FD"/>
</linearGradient>
<linearGradient id="paint3_linear_1041_6368" x1="21.2901" y1="17.4966" x2="-0.0160347" y2="3.46115" gradientUnits="userSpaceOnUse">
<stop offset="0.304683" stop-color="#4F5DFC"/>
<stop offset="1" stop-color="#A5ACFE"/>
</linearGradient>
<clipPath id="clip0_1041_6368">
<rect width="32" height="32" fill="white"/>
</clipPath>
</defs>
</svg>
