<svg width="32" height="32" viewBox="0 0 32 32" fill="none" xmlns="http://www.w3.org/2000/svg">
<path d="M14.5664 12.7284L15.7234 15.4201H26.5742V5.20052C26.5742 3.84528 25.4327 2.74573 24.0299 2.74573H9.39723C7.99449 2.74573 6.85352 3.84252 6.85352 5.20052V11.6896H12.9516C13.2926 11.6861 13.6272 11.7826 13.914 11.9672C14.2008 12.1519 14.4283 12.4165 14.5664 12.7284Z" fill="url(#paint0_linear_1041_6549)"/>
<path d="M22.6544 5.76965C23.164 5.76998 23.5775 6.18313 23.5775 6.69273C23.5775 7.20233 23.164 7.61548 22.6544 7.61581H10.7746C10.2648 7.61581 9.85156 7.20253 9.85156 6.69273C9.85156 6.18293 10.2648 5.76965 10.7746 5.76965H22.6544Z" fill="#FEF0FB"/>
<path d="M12.3926 12.77C12.7389 12.7693 13.0782 12.8715 13.3662 13.064C13.6541 13.2564 13.878 13.5308 14.0098 13.8511L14.6553 15.4067C14.965 16.1538 15.6942 16.6411 16.5029 16.6411H27.4014C27.892 16.6424 28.3628 16.8364 28.7119 17.1812C29.0598 17.5296 29.2549 18.0031 29.2549 18.4946V27.397C29.2549 27.8896 29.0598 28.3625 28.7119 28.7105C28.3635 29.0589 27.8905 29.2544 27.3984 29.2544H4.60352C4.11158 29.2543 3.63845 29.0592 3.29004 28.7114C2.94156 28.3624 2.74707 27.8896 2.74707 27.397V18.4888C2.74707 18.4541 2.75018 18.4181 2.75293 18.3823C2.7555 18.3493 2.75381 18.3157 2.75098 18.2827C2.74787 18.2466 2.74609 18.2101 2.74609 18.1753V14.5181C2.7463 14.0545 2.93097 13.6096 3.25879 13.2817C3.58664 12.954 4.03153 12.7702 4.49512 12.77H12.3926Z" fill="url(#paint1_linear_1041_6549)"/>
<path d="M26.5752 18.1079C27.4879 18.1079 28.3795 18.1696 29.2422 18.2847C29.2501 18.3541 29.2559 18.4241 29.2559 18.4946V27.397C29.2559 27.8895 29.0607 28.3625 28.7129 28.7104C28.3645 29.0588 27.8913 29.2543 27.3994 29.2544H13.1992C13.0039 28.6338 12.9004 27.9904 12.9004 27.3306C12.9004 22.2371 19.0228 18.1079 26.5752 18.1079Z" fill="url(#paint2_linear_1041_6549)"/>
<path d="M5.93337 19.6781L8.64959 16.5102C8.68775 16.4663 8.73903 16.4358 8.79584 16.4233C8.85265 16.4108 8.91198 16.4169 8.96506 16.4407C8.9998 16.4574 9.03177 16.481 9.05678 16.5102L11.7737 19.6781C11.8072 19.7172 11.8288 19.765 11.8359 19.816C11.8431 19.8669 11.8354 19.9189 11.8139 19.9656C11.7924 20.0124 11.7579 20.052 11.7146 20.0797C11.6713 20.1074 11.6209 20.1222 11.5694 20.1221H10.2867V22.8439C10.2867 23.1608 10.0296 23.4186 9.71343 23.4186H7.99295C7.84078 23.4182 7.69497 23.3575 7.5875 23.2498C7.48003 23.142 7.41968 22.9961 7.41968 22.8439V20.1235H6.13696C6.08543 20.1234 6.03502 20.1084 5.99171 20.0805C5.9484 20.0526 5.91399 20.0129 5.89257 19.966C5.87114 19.9191 5.8636 19.8671 5.87083 19.8161C5.87806 19.7651 5.89976 19.7172 5.93337 19.6781Z" fill="#FEF0FB"/>
<defs>
<linearGradient id="paint0_linear_1041_6549" x1="16.7138" y1="2.74573" x2="16.7138" y2="15.4201" gradientUnits="userSpaceOnUse">
<stop stop-color="#FFA8E9"/>
<stop offset="1" stop-color="#FF86E0"/>
</linearGradient>
<linearGradient id="paint1_linear_1041_6549" x1="29.2549" y1="24.7308" x2="13.3033" y2="4.94535" gradientUnits="userSpaceOnUse">
<stop stop-color="#FC4FD0"/>
<stop offset="1" stop-color="#FEA5E8"/>
</linearGradient>
<linearGradient id="paint2_linear_1041_6549" x1="29.2559" y1="22.9389" x2="13.4291" y2="30.2634" gradientUnits="userSpaceOnUse">
<stop stop-color="#FFABEA"/>
<stop offset="1" stop-color="#FD68D8"/>
</linearGradient>
</defs>
</svg>
