<svg width="32" height="32" viewBox="0 0 32 32" fill="none" xmlns="http://www.w3.org/2000/svg">
<path d="M5.78027 3.29114C5.78027 2.46271 6.45185 1.79114 7.28027 1.79114H24.72C25.5484 1.79114 26.22 2.46271 26.22 3.29114V22.1274C26.22 22.9558 25.5484 23.6274 24.72 23.6274H7.28027C6.45184 23.6274 5.78027 22.9558 5.78027 22.1274V3.29114Z" fill="url(#paint0_linear_1041_6534)"/>
<path d="M26.2207 22.1276C26.2206 22.9559 25.5491 23.6276 24.7207 23.6276H16.2432C16.0841 23.0292 16.001 22.4134 16.001 21.7848C16.001 17.2901 20.2432 13.454 26.2207 11.9293V22.1276Z" fill="url(#paint1_linear_1041_6534)" fill-opacity="0.8"/>
<path d="M13.373 14.2968C13.8827 14.3024 14.2813 14.7202 14.2637 15.2295C14.2458 15.739 13.8179 16.1474 13.3081 16.1418L9.24925 16.0973C8.73966 16.0917 8.34106 15.6751 8.35862 15.1658C8.37648 14.6565 8.80338 14.247 9.31295 14.2524L13.373 14.2968ZM17.4007 9.85452C17.9103 9.85456 18.3236 10.268 18.3238 10.7776C18.3238 11.2874 17.9105 11.7006 17.4007 11.7007H9.2805C8.77095 11.7004 8.35742 11.2872 8.35742 10.7776C8.35762 10.2682 8.77108 9.85482 9.2805 9.85452H17.4007ZM22.7192 5.45789C23.229 5.45789 23.6423 5.87116 23.6423 6.38096C23.6421 6.89059 23.2289 7.30404 22.7192 7.30404H9.2805C8.77108 7.30374 8.35762 6.89041 8.35742 6.38096C8.35742 5.87135 8.77095 5.45819 9.2805 5.45789H22.7192Z" fill="#FEFAF0"/>
<path d="M11.6553 19.4252C12.0636 19.4252 12.4545 19.5915 12.7373 19.8861L14.918 22.1576C15.5083 22.7721 16.4918 22.7723 17.082 22.1576L19.2627 19.8861C19.5455 19.5915 19.9363 19.4252 20.3447 19.4252H27.6016C28.4299 19.4252 29.1016 20.0968 29.1016 20.9252V27.4779C29.1016 28.3063 28.4299 28.9779 27.6016 28.9779H4.39746C3.56926 28.9776 2.89844 28.3062 2.89844 27.4779V20.9252C2.89844 20.0967 3.57001 19.4252 4.39844 19.4252H11.6553Z" fill="url(#paint2_linear_1041_6534)"/>
<defs>
<linearGradient id="paint0_linear_1041_6534" x1="16.0001" y1="19.7841" x2="12.7749" y2="5.28656" gradientUnits="userSpaceOnUse">
<stop stop-color="#FFD776"/>
<stop offset="0.376403" stop-color="#FFBF1B"/>
</linearGradient>
<linearGradient id="paint1_linear_1041_6534" x1="14.6674" y1="21.9028" x2="27.6354" y2="19.6878" gradientUnits="userSpaceOnUse">
<stop stop-color="#FFEFB3"/>
<stop offset="1" stop-color="#FFD25E"/>
</linearGradient>
<linearGradient id="paint2_linear_1041_6534" x1="2.89844" y1="20.2784" x2="14.8389" y2="37.8285" gradientUnits="userSpaceOnUse">
<stop stop-color="#FCC330"/>
<stop offset="1" stop-color="#FF8F0B"/>
</linearGradient>
</defs>
</svg>
