<svg width="32" height="32" viewBox="0 0 32 32" fill="none" xmlns="http://www.w3.org/2000/svg">
<g clip-path="url(#clip0_1041_6160)">
<path d="M14.6033 31.1836C13.0875 29.2205 12.3389 26.7725 12.4973 24.2974C12.6558 21.8223 13.7105 19.4898 15.4643 17.736C17.218 15.9823 19.5506 14.9276 22.0256 14.7691C24.5007 14.6106 26.9487 15.3593 28.9118 16.8751V10.7817H20.9777C20.3765 10.7817 19.7999 10.5429 19.3748 10.1178C18.9497 9.69265 18.7109 9.11607 18.7109 8.51485V0.580811H5.10964C4.55441 0.580884 4.01851 0.784729 3.6036 1.15368C3.18868 1.52264 2.9236 2.03104 2.85864 2.58246L2.84277 2.84768V28.9167C2.84277 29.5179 3.0816 30.0945 3.50672 30.5196C3.93184 30.9447 4.50843 31.1836 5.10964 31.1836H14.6033Z" fill="url(#paint0_linear_1041_6160)"/>
<mask id="mask0_1041_6160" style="mask-type:alpha" maskUnits="userSpaceOnUse" x="2" y="0" width="27" height="32">
<path d="M14.6033 31.1834C13.0875 29.2204 12.3389 26.7724 12.4973 24.2973C12.6558 21.8222 13.7105 19.4896 15.4643 17.7359C17.218 15.9822 19.5506 14.9275 22.0256 14.769C24.5007 14.6105 26.9487 15.3592 28.9118 16.8749V10.7816H20.9777C20.3765 10.7816 19.7999 10.5428 19.3748 10.1177C18.9497 9.69253 18.7109 9.11594 18.7109 8.51473V0.580688H5.10964C4.55441 0.580762 4.01851 0.784607 3.6036 1.15356C3.18868 1.52251 2.9236 2.03092 2.85864 2.58233L2.84277 2.84756V28.9166C2.84277 29.5178 3.0816 30.0944 3.50672 30.5195C3.93184 30.9446 4.50843 31.1834 5.10964 31.1834H14.6033Z" fill="url(#paint1_linear_1041_6160)"/>
</mask>
<g mask="url(#mask0_1041_6160)">
<ellipse cx="10.755" cy="9.25617" rx="10.755" ry="9.25617" transform="matrix(-0.662582 -0.74899 -0.74899 0.662582 21.4316 27.8157)" fill="url(#paint2_linear_1041_6160)"/>
</g>
<path d="M20.166 0.580811L28.912 9.32679H21.4154C21.0841 9.32679 20.7663 9.19515 20.532 8.96084C20.2977 8.72652 20.166 8.40873 20.166 8.07736V0.580811Z" fill="url(#paint3_linear_1041_6160)"/>
<path d="M30.9893 24.9043C30.9893 25.9919 30.7751 27.0688 30.3589 28.0736C29.9427 29.0784 29.3327 29.9914 28.5636 30.7604C27.7946 31.5295 26.8816 32.1395 25.8768 32.5557C24.8721 32.9719 23.7951 33.1861 22.7076 33.1861C21.62 33.1861 20.543 32.9719 19.5383 32.5557C18.5335 32.1395 17.6205 31.5295 16.8515 30.7604C16.0824 29.9914 15.4724 29.0784 15.0562 28.0736C14.64 27.0688 14.4258 25.9919 14.4258 24.9043C14.4258 22.7079 15.2983 20.6014 16.8515 19.0482C18.4046 17.4951 20.5111 16.6226 22.7076 16.6226C24.904 16.6226 27.0105 17.4951 28.5636 19.0482C30.1168 20.6014 30.9893 22.7079 30.9893 24.9043Z" fill="url(#paint4_linear_1041_6160)"/>
<path d="M19.2314 20.3018L21.1821 23.6585H19.4395V24.9589H22.0545V26.2582H19.4395V27.5576H22.0545L22.0556 29.5071H23.3636L23.3625 27.5576H25.9797V26.2582H23.3625V24.9589H25.9797V23.6585H24.2317L26.1823 20.3018H24.6717L22.721 23.6585H22.6927L20.7399 20.3018H19.2314Z" fill="#F3FDFF"/>
<path d="M15.6822 10.3028C16.192 10.3028 16.6053 10.7161 16.6053 11.2259C16.6052 11.7356 16.1919 12.149 15.6822 12.149H7.37815C6.86859 12.1488 6.45524 11.7355 6.45508 11.2259C6.45508 10.7162 6.86849 10.303 7.37815 10.3028H15.6822Z" fill="#F3FDFF"/>
<path d="M12.3986 5.41943C12.9082 5.41944 13.3214 5.83292 13.3217 6.34251C13.3217 6.85231 12.9084 7.26558 12.3986 7.26559H7.37815C6.86849 7.26543 6.45508 6.85221 6.45508 6.34251C6.45532 5.83302 6.86864 5.4196 7.37815 5.41943H12.3986Z" fill="#F3FDFF"/>
</g>
<defs>
<linearGradient id="paint0_linear_1041_6160" x1="20.879" y1="9.30704" x2="1.23061" y2="-0.680716" gradientUnits="userSpaceOnUse">
<stop stop-color="#00AFD1"/>
<stop offset="1" stop-color="#A1EFFF"/>
</linearGradient>
<linearGradient id="paint1_linear_1041_6160" x1="16.8576" y1="26.3214" x2="8.1494" y2="19.7013" gradientUnits="userSpaceOnUse">
<stop stop-color="#00B4D8"/>
<stop offset="1" stop-color="#1FDAFF"/>
</linearGradient>
<linearGradient id="paint2_linear_1041_6160" x1="16.0936" y1="7.52673" x2="4.56661" y2="10.1098" gradientUnits="userSpaceOnUse">
<stop stop-color="#79E7FD"/>
<stop offset="1" stop-color="#00B4D8"/>
</linearGradient>
<linearGradient id="paint3_linear_1041_6160" x1="26.217" y1="3.07468" x2="20.1" y2="-0.575521" gradientUnits="userSpaceOnUse">
<stop stop-color="#00AFD1"/>
<stop offset="1" stop-color="#A1EFFF"/>
</linearGradient>
<linearGradient id="paint4_linear_1041_6160" x1="25.8855" y1="21.3456" x2="14.3008" y2="14.4326" gradientUnits="userSpaceOnUse">
<stop stop-color="#00AFD1"/>
<stop offset="1" stop-color="#A1EFFF"/>
</linearGradient>
<clipPath id="clip0_1041_6160">
<rect width="32" height="32" fill="white"/>
</clipPath>
</defs>
</svg>
