<svg width="32" height="32" viewBox="0 0 32 32" fill="none" xmlns="http://www.w3.org/2000/svg">
<path d="M27.553 23.7107C28.3159 23.7107 28.9389 24.3167 28.9389 25.0571C28.9389 25.7981 28.3159 26.4041 27.553 26.4041H23.047L24.5028 28.2891C24.6118 28.4298 24.6913 28.591 24.7365 28.7632C24.7817 28.9353 24.7917 29.1148 24.7658 29.2909C24.7399 29.467 24.6787 29.6361 24.5859 29.7879C24.4931 29.9398 24.3705 30.0713 24.2256 30.1747C23.9764 30.3564 23.6834 30.4439 23.3947 30.4439C23.1809 30.4449 22.9698 30.3968 22.7775 30.3035C22.5852 30.2101 22.4168 30.0739 22.2853 29.9054L19.5816 26.4041H12.4179L9.71478 29.9054C9.58329 30.0739 9.41494 30.2101 9.22264 30.3035C9.03034 30.3968 8.8192 30.4449 8.60544 30.4439C8.30673 30.4445 8.01556 30.3502 7.77389 30.1747C7.62925 30.0711 7.50696 29.9395 7.41433 29.7876C7.3217 29.6357 7.26063 29.4668 7.23476 29.2908C7.20888 29.1148 7.21875 28.9354 7.26375 28.7633C7.30876 28.5912 7.38799 28.4299 7.4967 28.2891L8.95253 26.4041H4.44647C3.6836 26.4041 3.06055 25.7981 3.06055 25.0571C3.06055 24.3167 3.6836 23.7107 4.44647 23.7107H27.553Z" fill="url(#paint0_linear_1041_4920)"/>
<rect x="3.05566" y="1.5589" width="25.8831" height="20.1969" rx="2" fill="url(#paint1_linear_1041_4920)"/>
<mask id="mask0_1041_4920" style="mask-type:alpha" maskUnits="userSpaceOnUse" x="3" y="1" width="26" height="21">
<rect x="3.05566" y="1.5589" width="25.8831" height="20.1969" rx="2" fill="url(#paint2_linear_1041_4920)"/>
</mask>
<g mask="url(#mask0_1041_4920)">
<ellipse cx="24.4882" cy="6.38618" rx="7.95379" ry="9.1235" transform="rotate(-56.2128 24.4882 6.38618)" fill="url(#paint3_linear_1041_4920)"/>
</g>
<path fill-rule="evenodd" clip-rule="evenodd" d="M20.0434 11.6573C21.3569 11.6573 22.4217 12.7221 22.4217 14.0356V15.8041C22.4217 16.0161 22.3996 16.093 22.3581 16.1705C22.3167 16.248 22.2558 16.3088 22.1783 16.3503C22.1008 16.3918 22.0239 16.4138 21.8119 16.4138H18.6165V14.7061C18.6165 13.596 18.5057 13.0225 18.1864 12.4254C18.071 12.2096 17.9337 12.0111 17.7763 11.8316C18.0926 11.7174 18.4763 11.6573 19.0381 11.6573H20.0434ZM19.5678 6.42518C20.7499 6.42518 21.7082 7.38348 21.7082 8.5656C21.7082 9.74773 20.7499 10.706 19.5678 10.706C18.3856 10.706 17.4273 9.74773 17.4273 8.5656C17.4273 7.38348 18.3856 6.42518 19.5678 6.42518ZM12.379 11.6573H14.3896C15.1511 11.6573 15.5853 11.7677 15.9728 11.975C16.3604 12.1823 16.6646 12.4864 16.8719 12.874C17.0791 13.2616 17.1895 13.6958 17.1895 14.4572V17.231C17.1895 17.443 17.1674 17.5199 17.126 17.5974C17.0845 17.675 17.0237 17.7358 16.9462 17.7772C16.8687 17.8187 16.7918 17.8408 16.5797 17.8408H10.1889C9.97683 17.8408 9.89995 17.8187 9.82243 17.7772C9.74492 17.7358 9.68409 17.675 9.64263 17.5974C9.60118 17.5199 9.5791 17.443 9.5791 17.231V14.4572C9.5791 13.6958 9.68948 13.2616 9.89676 12.874C10.104 12.4864 10.4082 12.1823 10.7958 11.975C11.1833 11.7677 11.6175 11.6573 12.379 11.6573ZM13.3843 5.47388C11.9395 5.47388 10.7682 6.64513 10.7682 8.08995C10.7682 9.53477 11.9395 10.706 13.3843 10.706C14.8291 10.706 16.0004 9.53477 16.0004 8.08995C16.0004 7.39613 15.7248 6.73072 15.2341 6.24011C14.7435 5.7495 14.0781 5.47388 13.3843 5.47388Z" fill="url(#paint4_linear_1041_4920)"/>
<defs>
<linearGradient id="paint0_linear_1041_4920" x1="23.1528" y1="26.2982" x2="19.5457" y2="16.1823" gradientUnits="userSpaceOnUse">
<stop stop-color="#00D14D"/>
<stop offset="1" stop-color="#A1FFC3"/>
</linearGradient>
<linearGradient id="paint1_linear_1041_4920" x1="10.5973" y1="15.7773" x2="5.526" y2="-0.298164" gradientUnits="userSpaceOnUse">
<stop stop-color="#00D14D"/>
<stop offset="1" stop-color="#A1FFC3"/>
</linearGradient>
<linearGradient id="paint2_linear_1041_4920" x1="22.3206" y1="16.4071" x2="7.23997" y2="18.6277" gradientUnits="userSpaceOnUse">
<stop stop-color="#89FFB4"/>
<stop offset="1" stop-color="#45E580"/>
</linearGradient>
<linearGradient id="paint3_linear_1041_4920" x1="28.3745" y1="10.6774" x2="18.9992" y2="11.6165" gradientUnits="userSpaceOnUse">
<stop stop-color="#89FFB4"/>
<stop offset="1" stop-color="#45E580"/>
</linearGradient>
<linearGradient id="paint4_linear_1041_4920" x1="16.0004" y1="5.47388" x2="16.0004" y2="17.8408" gradientUnits="userSpaceOnUse">
<stop stop-color="white"/>
<stop offset="1" stop-color="white" stop-opacity="0.8"/>
</linearGradient>
</defs>
</svg>
