<svg width="32" height="32" viewBox="0 0 32 32" fill="none" xmlns="http://www.w3.org/2000/svg">
<path d="M27.553 23.7107C28.3159 23.7107 28.9389 24.3167 28.9389 25.0571C28.9389 25.7981 28.3159 26.4041 27.553 26.4041H23.047L24.5028 28.2891C24.6118 28.4298 24.6913 28.591 24.7365 28.7632C24.7817 28.9353 24.7917 29.1148 24.7658 29.2909C24.7399 29.467 24.6787 29.6361 24.5859 29.7879C24.4931 29.9398 24.3705 30.0713 24.2256 30.1747C23.9764 30.3564 23.6834 30.4439 23.3947 30.4439C23.1809 30.4449 22.9698 30.3968 22.7775 30.3035C22.5852 30.2101 22.4168 30.0739 22.2853 29.9054L19.5816 26.4041H12.4179L9.71478 29.9054C9.58329 30.0739 9.41494 30.2101 9.22264 30.3035C9.03034 30.3968 8.8192 30.4449 8.60544 30.4439C8.30673 30.4445 8.01556 30.3502 7.77389 30.1747C7.62925 30.0711 7.50696 29.9395 7.41433 29.7876C7.3217 29.6357 7.26063 29.4668 7.23476 29.2908C7.20888 29.1148 7.21875 28.9354 7.26375 28.7633C7.30876 28.5912 7.38799 28.4299 7.4967 28.2891L8.95253 26.4041H4.44647C3.6836 26.4041 3.06055 25.7981 3.06055 25.0571C3.06055 24.3167 3.6836 23.7107 4.44647 23.7107H27.553Z" fill="url(#paint0_linear_1041_4912)"/>
<rect x="3.05566" y="1.5589" width="25.8831" height="20.1969" rx="2" fill="url(#paint1_linear_1041_4912)"/>
<mask id="mask0_1041_4912" style="mask-type:alpha" maskUnits="userSpaceOnUse" x="3" y="1" width="26" height="21">
<rect x="3.05566" y="1.5589" width="25.8831" height="20.1969" fill="url(#paint2_linear_1041_4912)" fill-opacity="0.6"/>
</mask>
<g mask="url(#mask0_1041_4912)">
<ellipse cx="20.9616" cy="16.2998" rx="11.7419" ry="6.80364" fill="url(#paint3_linear_1041_4912)" fill-opacity="0.6"/>
</g>
<path d="M20.3788 13.4585C21.129 13.4598 21.8481 13.7577 22.3781 14.2866C22.9082 14.8155 23.2059 15.5323 23.2059 16.2797C23.2059 16.8378 23.0398 17.3836 22.7284 17.8477C22.417 18.3117 21.9745 18.6734 21.4568 18.8868C20.939 19.1002 20.3692 19.1558 19.8197 19.0466C19.2703 18.9374 18.7656 18.668 18.3698 18.273C17.9739 17.878 17.7047 17.3748 17.5959 16.8273C17.4872 16.2797 17.5438 15.7124 17.7588 15.197C17.9739 14.6816 18.3377 14.2413 18.804 13.9319C19.2703 13.6224 19.8185 13.4576 20.3788 13.4585ZM20.457 14.9569C19.7762 14.9569 19.1689 15.3865 18.6364 16.2257C18.613 16.2626 18.6004 16.3055 18.6004 16.3493C18.6005 16.393 18.613 16.4359 18.6364 16.4728C19.1689 17.312 19.7763 17.7416 20.457 17.7416C21.1376 17.7416 21.745 17.312 22.2775 16.4728C22.301 16.4359 22.3135 16.393 22.3135 16.3493C22.3135 16.3056 22.3009 16.2626 22.2775 16.2257C21.745 15.3865 21.1377 14.957 20.457 14.9569ZM13.0629 12.7428C13.6681 13.7562 14.1625 14.8313 14.5374 15.9497L14.626 14.2999H14.4813L14.2666 13.2307H15.8064L15.5916 14.2999H15.447L15.5356 15.9497C15.9114 14.8361 16.4058 13.7656 17.01 12.7566C17.7712 12.8343 18.514 13.0385 19.2075 13.3608C18.6178 13.5938 18.1121 13.9982 17.756 14.5212C17.3999 15.0441 17.21 15.6618 17.2107 16.2938C17.2124 16.6682 17.2802 17.0395 17.4111 17.3905H8.79395C8.79396 15.0992 9.4705 13.2076 13.0629 12.7428ZM20.457 15.5137C20.9183 15.5137 21.2923 15.8879 21.2923 16.3493C21.2922 16.8106 20.9183 17.1846 20.457 17.1846C19.9956 17.1846 19.6217 16.8106 19.6216 16.3493C19.6216 15.8879 19.9956 15.5137 20.457 15.5137ZM20.457 15.7923C20.1494 15.7923 19.9 16.0417 19.9 16.3493C19.9 16.6568 20.1494 16.906 20.457 16.906C20.7645 16.906 21.0139 16.6568 21.0139 16.3493C21.0139 16.0417 20.7645 15.7923 20.457 15.7923ZM14.9945 4.95575C15.6511 4.95575 16.2955 5.13141 16.8607 5.46425L16.3616 7.83006L16.9026 7.94161L17.3692 5.8036C17.7876 6.14466 18.1255 6.57336 18.3586 7.05936C18.5916 7.54538 18.7144 8.07675 18.7177 8.61536H19.3894V9.52186H18.5402C18.4939 10.4152 18.105 11.2568 17.4539 11.8728C16.8028 12.4888 15.9391 12.8322 15.0412 12.8322C14.1432 12.8322 13.2793 12.4888 12.6282 11.8728C11.9771 11.2568 11.5882 10.4152 11.5418 9.52186H10.6836V8.59217H11.3552C11.3559 8.06061 11.4734 7.53557 11.699 7.05388C11.9247 6.5722 12.2533 6.14556 12.6618 5.8036L13.0817 7.89965L13.6228 7.7881L13.1284 5.46425C13.6935 5.13141 14.338 4.95575 14.9945 4.95575ZM12.2977 9.52186C12.3002 10.2438 12.59 10.9352 13.1033 11.4448C13.6167 11.9545 14.3117 12.2408 15.0365 12.2408C15.7612 12.2408 16.4563 11.9545 16.9696 11.4448C17.4829 10.9352 17.7728 10.2438 17.7753 9.52186H12.2977Z" fill="url(#paint4_linear_1041_4912)"/>
<defs>
<linearGradient id="paint0_linear_1041_4912" x1="8.91526" y1="30.444" x2="10.9202" y2="20.3745" gradientUnits="userSpaceOnUse">
<stop offset="0.115818" stop-color="#FFD776"/>
<stop offset="0.660133" stop-color="#FAB400"/>
</linearGradient>
<linearGradient id="paint1_linear_1041_4912" x1="3.05566" y1="3.36274" x2="28.386" y2="20.7569" gradientUnits="userSpaceOnUse">
<stop stop-color="#FCC330"/>
<stop offset="1" stop-color="#FF8F0B"/>
</linearGradient>
<linearGradient id="paint2_linear_1041_4912" x1="-0.321713" y1="18.778" x2="31.4832" y2="10.8089" gradientUnits="userSpaceOnUse">
<stop stop-color="#FFEFB3"/>
<stop offset="1" stop-color="#FFD25E"/>
</linearGradient>
<linearGradient id="paint3_linear_1041_4912" x1="6.15542" y1="21.0972" x2="33.6889" y2="11.8066" gradientUnits="userSpaceOnUse">
<stop stop-color="#FFEFB3"/>
<stop offset="1" stop-color="#FFD25E"/>
</linearGradient>
<linearGradient id="paint4_linear_1041_4912" x1="15.9999" y1="4.95575" x2="15.9999" y2="19.1011" gradientUnits="userSpaceOnUse">
<stop stop-color="white"/>
<stop offset="1" stop-color="white" stop-opacity="0.8"/>
</linearGradient>
</defs>
</svg>
