<svg width="32" height="32" viewBox="0 0 32 32" fill="none" xmlns="http://www.w3.org/2000/svg">
<path d="M3.09961 2.98682C3.09961 1.88225 3.99504 0.986816 5.09961 0.986816L19.9032 0.986816V8.60134C19.9032 9.42977 20.5748 10.1013 21.4032 10.1013H28.9008V29.0132C28.9008 30.1177 28.0054 31.0132 26.9008 31.0132H5.09961C3.99504 31.0132 3.09961 30.1177 3.09961 29.0132V2.98682Z" fill="url(#paint0_linear_1041_7143)"/>
<mask id="mask0_1041_7143" style="mask-type:alpha" maskUnits="userSpaceOnUse" x="3" y="0" width="26" height="32">
<path d="M3.09961 2.98682C3.09961 1.88225 3.99504 0.986816 5.09961 0.986816L19.9032 0.986816V8.60134C19.9032 9.42977 20.5748 10.1013 21.4032 10.1013H28.9008V29.0132C28.9008 30.1177 28.0054 31.0132 26.9008 31.0132H5.09961C3.99504 31.0132 3.09961 30.1177 3.09961 29.0132V2.98682Z" fill="url(#paint1_linear_1041_7143)"/>
</mask>
<g mask="url(#mask0_1041_7143)">
<ellipse cx="21.3608" cy="26.0313" rx="10.8268" ry="10.9815" transform="rotate(53.488 21.3608 26.0313)" fill="url(#paint2_linear_1041_7143)"/>
</g>
<path fill-rule="evenodd" clip-rule="evenodd" d="M21.8949 14.1183L20.8901 13.1135C20.6755 12.8994 20.3848 12.7792 20.0817 12.7792C19.7786 12.7792 19.4878 12.8994 19.2733 13.1135L12.0452 20.3414L11.6082 23.4002L14.6669 22.9632L21.8949 15.7351C22.1089 15.5205 22.2292 15.2298 22.2292 14.9267C22.2292 14.6236 22.1089 14.3328 21.8949 14.1183ZM15.9235 15.3885L15.2306 14.7233C15.6245 13.7117 15.4057 12.5021 14.596 11.6884C13.7206 10.8087 12.4075 10.6328 11.3571 11.1386L13.261 13.0519L11.9261 14.3935L10.0222 12.4801C9.51882 13.5358 9.6939 14.8553 10.5693 15.735C11.379 16.5487 12.5826 16.7686 13.5893 16.3727L14.2821 17.0379C14.4572 17.2139 14.7417 17.2139 14.8949 17.0379L15.9235 16.0043C16.0985 15.8504 16.0985 15.5645 15.9235 15.3885ZM8.50831 23.0698C8.28097 23.0698 8.09668 23.2541 8.09668 23.4815C8.09668 23.7088 8.28097 23.8931 8.50831 23.8931H10.9781C11.2054 23.8931 11.3897 23.7088 11.3897 23.4815C11.3897 23.2541 11.2054 23.0698 10.9781 23.0698H8.50831ZM19.5207 18.8727C19.4133 18.7658 19.2395 18.7663 19.1327 18.8737L17.8948 20.1179C17.7879 20.2253 17.7884 20.3991 17.8958 20.506L20.649 23.2451C20.7565 23.352 20.9302 23.3516 21.0371 23.2441L22.2749 22C22.3818 21.8925 22.3814 21.7188 22.2739 21.6119L19.5207 18.8727ZM8.50831 25.6768C8.28097 25.6768 8.09668 25.8611 8.09668 26.0884C8.09668 26.3158 8.28097 26.5001 8.50831 26.5001H16.6036C16.8309 26.5001 17.0152 26.3158 17.0152 26.0884C17.0152 25.8611 16.8309 25.6768 16.6036 25.6768H8.50831Z" fill="#FEF0FB"/>
<path d="M21.6523 0.986816C21.6909 1.01982 21.729 1.05403 21.7653 1.09041L28.7972 8.12225C28.8335 8.15862 28.8678 8.19669 28.9008 8.23523C28.3276 8.23523 25.2059 8.23523 23.2507 8.23523C22.6918 8.23523 22.4123 8.23523 22.1984 8.12624C22.0102 8.03037 21.8572 7.87739 21.7613 7.68923C21.6523 7.47531 21.6523 7.19529 21.6523 6.63523L21.6523 0.986816Z" fill="url(#paint3_linear_1041_7143)"/>
<defs>
<linearGradient id="paint0_linear_1041_7143" x1="28.9008" y1="22.7735" x2="2.06108" y2="5.83337" gradientUnits="userSpaceOnUse">
<stop stop-color="#FC4FD0"/>
<stop offset="1" stop-color="#FEA5E8"/>
</linearGradient>
<linearGradient id="paint1_linear_1041_7143" x1="28.9008" y1="22.7735" x2="2.06108" y2="5.83337" gradientUnits="userSpaceOnUse">
<stop stop-color="#FC4FD0"/>
<stop offset="1" stop-color="#FEA5E8"/>
</linearGradient>
<linearGradient id="paint2_linear_1041_7143" x1="32.1876" y1="24.5687" x2="8.98938" y2="31.7823" gradientUnits="userSpaceOnUse">
<stop stop-color="#FFABEA"/>
<stop offset="1" stop-color="#FD68D8"/>
</linearGradient>
<linearGradient id="paint3_linear_1041_7143" x1="28.9008" y1="6.24616" x2="21.9587" y2="0.89168" gradientUnits="userSpaceOnUse">
<stop stop-color="#FC4FD0"/>
<stop offset="1" stop-color="#FEA5E8"/>
</linearGradient>
</defs>
</svg>
