<svg width="32" height="32" viewBox="0 0 32 32" fill="none" xmlns="http://www.w3.org/2000/svg">
<path d="M20.3008 0.986816C20.3393 1.01982 20.3774 1.05403 20.4138 1.09041L27.4456 8.12225C27.482 8.15862 27.5162 8.19669 27.5492 8.23524C26.976 8.23524 23.8543 8.23524 21.8992 8.23524C21.3402 8.23524 21.0607 8.23524 20.8468 8.12624C20.6586 8.03037 20.5056 7.87739 20.4098 7.68923C20.3008 7.47531 20.3008 7.19529 20.3008 6.63523L20.3008 0.986816Z" fill="url(#paint0_linear_1041_7175)"/>
<path d="M18.5518 8.60156C18.5519 9.42978 19.2235 10.1014 20.0518 10.1016H27.5498V17.8477C26.4098 17.1668 25.0767 16.7754 23.6523 16.7754C19.4487 16.7756 16.0412 20.1831 16.041 24.3867C16.041 27.2286 17.5993 29.7053 19.9072 31.0127H3.74805C2.64365 31.0125 1.74805 30.1171 1.74805 29.0127V2.98633C1.74829 1.88209 2.6438 0.986535 3.74805 0.986328H18.5518V8.60156Z" fill="url(#paint1_linear_1041_7175)"/>
<mask id="mask0_1041_7175" style="mask-type:alpha" maskUnits="userSpaceOnUse" x="1" y="0" width="27" height="32">
<path d="M18.5518 8.60156C18.5519 9.42978 19.2235 10.1014 20.0518 10.1016H27.5498V17.8477C26.4098 17.1668 25.0767 16.7754 23.6523 16.7754C19.4487 16.7756 16.0412 20.1831 16.041 24.3867C16.041 27.2286 17.5993 29.7053 19.9072 31.0127H3.74805C2.64365 31.0125 1.74805 30.1171 1.74805 29.0127V2.98633C1.74829 1.88209 2.6438 0.986535 3.74805 0.986328H18.5518V8.60156Z" fill="url(#paint2_linear_1041_7175)"/>
</mask>
<g mask="url(#mask0_1041_7175)">
<ellipse cx="13.6525" cy="27.3753" rx="12.2898" ry="12.2043" transform="rotate(-56.9246 13.6525 27.3753)" fill="url(#paint3_linear_1041_7175)"/>
</g>
<path d="M11.977 19.0541C12.4867 19.0542 12.9001 19.4675 12.9001 19.9772C12.8999 20.4868 12.4866 20.9002 11.977 20.9003H6.42894C5.91924 20.9003 5.50602 20.4869 5.50586 19.9772C5.50586 19.4674 5.91913 19.0541 6.42894 19.0541H11.977ZM18.6261 12.0962C19.1356 12.0965 19.5491 12.5096 19.5491 13.0193C19.5491 13.5289 19.1356 13.9421 18.6261 13.9423H6.42894C5.91927 13.9422 5.50586 13.529 5.50586 13.0193C5.50586 12.5096 5.91927 12.0964 6.42894 12.0962H18.6261Z" fill="#F3FDFF"/>
<path d="M23.9253 31.0133C27.4189 31.0133 30.2511 28.1811 30.2511 24.6875C30.2511 21.1939 27.4189 18.3618 23.9253 18.3618C20.4317 18.3618 17.5996 21.1939 17.5996 24.6875C17.5996 28.1811 20.4317 31.0133 23.9253 31.0133Z" fill="url(#paint4_linear_1041_7175)"/>
<path d="M22.334 22.3149C22.334 21.8731 22.6926 21.5144 23.1345 21.5144C23.5763 21.5144 23.9349 21.8731 23.9349 22.3149V24.6779H26.2979C26.7395 24.6782 27.0972 25.0367 27.0972 25.4783C27.0969 25.9197 26.7393 26.2773 26.2979 26.2776H23.1345C22.6928 26.2776 22.3343 25.9199 22.334 25.4783V22.3149Z" fill="#F3FDFF"/>
<defs>
<linearGradient id="paint0_linear_1041_7175" x1="27.1317" y1="7.95718" x2="20.6305" y2="0.981547" gradientUnits="userSpaceOnUse">
<stop offset="0.505078" stop-color="#00AFD1"/>
<stop offset="1" stop-color="#86E4F7"/>
</linearGradient>
<linearGradient id="paint1_linear_1041_7175" x1="17.8804" y1="12.6717" x2="1.23713" y2="3.12846" gradientUnits="userSpaceOnUse">
<stop stop-color="#00AFD1"/>
<stop offset="1" stop-color="#A1EFFF"/>
</linearGradient>
<linearGradient id="paint2_linear_1041_7175" x1="20.0264" y1="29.7511" x2="35.9053" y2="22.4222" gradientUnits="userSpaceOnUse">
<stop stop-color="#00B4D8"/>
<stop offset="1" stop-color="#1FDAFF"/>
</linearGradient>
<linearGradient id="paint3_linear_1041_7175" x1="18.7752" y1="38.5541" x2="32.9713" y2="30.8756" gradientUnits="userSpaceOnUse">
<stop stop-color="#00B4D8"/>
<stop offset="1" stop-color="#1FDAFF"/>
</linearGradient>
<linearGradient id="paint4_linear_1041_7175" x1="22.858" y1="12.9976" x2="33.0559" y2="22.7434" gradientUnits="userSpaceOnUse">
<stop stop-color="#A1EFFF"/>
<stop offset="1" stop-color="#00AFD1"/>
</linearGradient>
</defs>
</svg>
