<svg width="32" height="32" viewBox="0 0 32 32" fill="none" xmlns="http://www.w3.org/2000/svg">
<path d="M26.4647 30.2699H5.53561C4.77869 30.2699 4.05277 29.9692 3.51755 29.434C2.98233 28.8988 2.68164 28.1728 2.68164 27.4159V4.58419C2.68164 3.82727 2.98233 3.10135 3.51755 2.56613C4.05277 2.03091 4.77869 1.73022 5.53561 1.73022H26.4647C27.2216 1.73022 27.9475 2.03091 28.4828 2.56613C29.018 3.10135 29.3187 3.82727 29.3187 4.58419V27.4159C29.3187 28.1728 29.018 28.8988 28.4828 29.434C27.9475 29.9692 27.2216 30.2699 26.4647 30.2699Z" fill="url(#paint0_linear_1041_6352)"/>
<mask id="mask0_1041_6352" style="mask-type:alpha" maskUnits="userSpaceOnUse" x="2" y="1" width="28" height="30">
<path d="M26.4647 30.2699H5.53561C4.77869 30.2699 4.05277 29.9692 3.51755 29.434C2.98233 28.8988 2.68164 28.1728 2.68164 27.4159V4.58419C2.68164 3.82727 2.98233 3.10135 3.51755 2.56613C4.05277 2.03091 4.77869 1.73022 5.53561 1.73022H26.4647C27.2216 1.73022 27.9475 2.03091 28.4828 2.56613C29.018 3.10135 29.3187 3.82727 29.3187 4.58419V27.4159C29.3187 28.1728 29.018 28.8988 28.4828 29.434C27.9475 29.9692 27.2216 30.2699 26.4647 30.2699Z" fill="url(#paint1_linear_1041_6352)"/>
</mask>
<g mask="url(#mask0_1041_6352)">
<path d="M25.0146 16.9756C29.6198 16.9757 33.3525 20.0503 33.3525 23.8428C33.3525 27.6353 29.6198 30.7098 25.0146 30.71C23.7409 30.71 22.5339 30.4733 21.4541 30.0527C20.8444 33.2211 18.0592 35.6152 14.7129 35.6152C10.9204 35.6151 7.84576 32.5405 7.8457 28.748C7.8457 24.9555 10.9204 21.881 14.7129 21.8809C15.48 21.8809 16.2174 22.0082 16.9062 22.2402C17.783 19.2209 21.0796 16.9756 25.0146 16.9756Z" fill="url(#paint2_linear_1041_6352)"/>
</g>
<path d="M6.06055 30.2699C10.2895 30.2699 8.25591 30.2699 8.25591 30.2699V1.73022H6.06055V30.2699ZM24.4009 1.73022H17.9887V8.78751C17.9887 9.19953 18.459 9.43473 18.7887 9.18751L20.9734 7.54894C21.1551 7.41269 21.4058 7.41597 21.5838 7.55694L23.5905 9.14585C23.9183 9.40538 24.4009 9.17194 24.4009 8.75385V1.73022Z" fill="#F3FDFF"/>
<defs>
<linearGradient id="paint0_linear_1041_6352" x1="19.3362" y1="12.8371" x2="2.88574" y2="2.59167" gradientUnits="userSpaceOnUse">
<stop stop-color="#00AFD1"/>
<stop offset="1" stop-color="#A1EFFF"/>
</linearGradient>
<linearGradient id="paint1_linear_1041_6352" x1="19.3362" y1="12.8371" x2="2.88574" y2="2.59167" gradientUnits="userSpaceOnUse">
<stop stop-color="#00AFD1"/>
<stop offset="1" stop-color="#A1EFFF"/>
</linearGradient>
<linearGradient id="paint2_linear_1041_6352" x1="23.9693" y1="34.4004" x2="8.60091" y2="29.7944" gradientUnits="userSpaceOnUse">
<stop stop-color="#00B4D8"/>
<stop offset="1" stop-color="#1FDAFF"/>
</linearGradient>
</defs>
</svg>
