<svg width="32" height="32" viewBox="0 0 32 32" fill="none" xmlns="http://www.w3.org/2000/svg">
<path d="M20.5054 15.5254C18.8696 14.0117 17.5316 13.7094 17.0861 13.7094C19.0189 12.65 20.2077 10.5307 20.2077 8.10967C20.2077 4.47731 17.3838 1.60162 13.8157 1.60162C10.2482 1.60162 7.42474 4.47767 7.57289 8.10967C7.57289 10.5307 8.7624 12.4994 10.6938 13.7094H9.95119C9.95119 13.7094 8.46432 13.7094 6.23488 15.5257C4.00509 17.3417 1.32941 21.276 1.47863 25.8171C1.62644 30.3571 6.38339 30.3571 13.3698 30.3571C15.2786 30.3571 16.6825 30.4499 18.21 30.3571C16.9866 30.1984 16.3774 29.4858 16.4081 28.3012V24.6795C14.4475 25.2149 13.5843 23.1012 14.6376 22.0786L20.8927 15.8852C20.7647 15.7684 20.6356 15.6488 20.5054 15.5254Z" fill="url(#paint0_linear_1041_5047)"/>
<mask id="mask0_1041_5047" style="mask-type:alpha" maskUnits="userSpaceOnUse" x="1" y="1" width="20" height="30">
<path d="M20.5054 15.5254C18.8696 14.0117 17.5316 13.7094 17.0861 13.7094C19.0189 12.65 20.2077 10.5307 20.2077 8.10967C20.2077 4.47731 17.3838 1.60162 13.8157 1.60162C10.2482 1.60162 7.42474 4.47767 7.57289 8.10967C7.57289 10.5307 8.7624 12.4994 10.6938 13.7094H9.95119C9.95119 13.7094 8.46432 13.7094 6.23488 15.5257C4.00509 17.3417 1.32941 21.276 1.47863 25.8171C1.62644 30.3571 6.38339 30.3571 13.3698 30.3571C15.2786 30.3571 16.6825 30.4499 18.21 30.3571C16.9866 30.1984 16.3774 29.4858 16.4081 28.3012V24.6795C14.4475 25.2149 13.5843 23.1012 14.6376 22.0786L20.8927 15.8852C20.7647 15.7684 20.6356 15.6488 20.5054 15.5254Z" fill="url(#paint1_linear_1041_5047)"/>
</mask>
<g mask="url(#mask0_1041_5047)">
<ellipse cx="6.10413" cy="17.2156" rx="10.8488" ry="4.89942" transform="rotate(13.1183 6.10413 17.2156)" fill="url(#paint2_linear_1041_5047)"/>
</g>
<path d="M30.52 23.3877C30.4893 23.4656 30.4374 23.5362 30.2237 23.5362H28.516V27.643C28.516 28.2938 28.0866 29.0008 27.4012 29.0008H25.6321V24.1422C25.6297 23.2476 24.9005 22.523 24.0006 22.5202H22.3712C21.4714 22.523 20.7426 23.2476 20.7397 24.1422V29.0008H19.2031C18.5107 29.0008 18.0863 28.2938 18.0863 27.643V23.5365H16.3786C16.1655 23.5365 16.1129 23.466 16.0823 23.3929C16.0583 23.3196 16.0823 23.1002 16.3645 22.8035L22.4644 16.4147C22.5704 16.2994 22.6996 16.2077 22.8433 16.1456C22.9871 16.0835 23.1424 16.0524 23.299 16.0542C23.6288 16.0542 23.9132 16.1744 24.1386 16.4147L30.2311 22.8035C30.5179 23.1051 30.5461 23.3263 30.52 23.3877ZM22.3984 24.1835H23.904V29.0008H22.3981V24.1835H22.3984Z" fill="url(#paint3_linear_1041_5047)"/>
<mask id="mask1_1041_5047" style="mask-type:alpha" maskUnits="userSpaceOnUse" x="16" y="16" width="15" height="14">
<path d="M30.52 23.3877C30.4893 23.4656 30.4374 23.5362 30.2237 23.5362H28.516V27.643C28.516 28.2938 28.0866 29.0008 27.4012 29.0008H25.6321V24.1422C25.6297 23.2476 24.9005 22.523 24.0006 22.5202H22.3712C21.4714 22.523 20.7426 23.2476 20.7397 24.1422V29.0008H19.2031C18.5107 29.0008 18.0863 28.2938 18.0863 27.643V23.5365H16.3786C16.1655 23.5365 16.1129 23.466 16.0823 23.3929C16.0583 23.3196 16.0823 23.1002 16.3645 22.8035L22.4644 16.4147C22.5704 16.2994 22.6996 16.2077 22.8433 16.1456C22.9871 16.0835 23.1424 16.0524 23.299 16.0542C23.6288 16.0542 23.9132 16.1744 24.1386 16.4147L30.2311 22.8035C30.5179 23.1051 30.5461 23.3263 30.52 23.3877ZM22.3984 24.1835H23.904V29.0008H22.3981V24.1835H22.3984Z" fill="url(#paint4_linear_1041_5047)"/>
</mask>
<g mask="url(#mask1_1041_5047)">
<ellipse cx="33.6748" cy="20.886" rx="10.8488" ry="9.76433" transform="rotate(13.1183 33.6748 20.886)" fill="url(#paint5_linear_1041_5047)"/>
</g>
<defs>
<linearGradient id="paint0_linear_1041_5047" x1="12.3451" y1="5.59013" x2="14.7513" y2="27.9143" gradientUnits="userSpaceOnUse">
<stop offset="0.381768" stop-color="#FCC330"/>
<stop offset="1" stop-color="#F38F22"/>
</linearGradient>
<linearGradient id="paint1_linear_1041_5047" x1="12.3451" y1="5.59013" x2="14.7513" y2="27.9143" gradientUnits="userSpaceOnUse">
<stop offset="0.381768" stop-color="#FCC330"/>
<stop offset="1" stop-color="#F38F22"/>
</linearGradient>
<linearGradient id="paint2_linear_1041_5047" x1="-7.77786" y1="15.5843" x2="-4.3868" y2="25.3271" gradientUnits="userSpaceOnUse">
<stop stop-color="#FFEA9C"/>
<stop offset="0.583836" stop-color="#FFC839"/>
</linearGradient>
<linearGradient id="paint3_linear_1041_5047" x1="16.0752" y1="17.2104" x2="31.4039" y2="26.3794" gradientUnits="userSpaceOnUse">
<stop stop-color="#FCC330"/>
<stop offset="1" stop-color="#FF8F0B"/>
</linearGradient>
<linearGradient id="paint4_linear_1041_5047" x1="16.0752" y1="17.2104" x2="31.4039" y2="26.3794" gradientUnits="userSpaceOnUse">
<stop stop-color="#FCC330"/>
<stop offset="1" stop-color="#FF8F0B"/>
</linearGradient>
<linearGradient id="paint5_linear_1041_5047" x1="24.6631" y1="18.955" x2="25.7133" y2="30.1573" gradientUnits="userSpaceOnUse">
<stop stop-color="#FFF1C0" stop-opacity="0"/>
<stop offset="1" stop-color="#FFC839"/>
</linearGradient>
</defs>
</svg>
