<svg width="32" height="32" viewBox="0 0 32 32" fill="none" xmlns="http://www.w3.org/2000/svg">
<path d="M6.13835 3.42786C6.71995 3.42786 7.21327 3.62518 7.61831 4.01984C8.02335 4.4145 8.22587 4.90262 8.22587 5.48422V7.07323C8.22587 7.65483 8.02335 8.14815 7.61831 8.55319C7.21327 8.95823 6.71995 9.16075 6.13835 9.16075H4.48703C3.9262 9.16075 3.44327 8.95823 3.03823 8.55319C2.63318 8.14815 2.43066 7.65483 2.43066 7.07323V5.48422C2.43066 4.90262 2.63318 4.4145 3.03823 4.01984C3.44327 3.62518 3.9262 3.42786 4.48703 3.42786H6.13835ZM6.13835 13.1177C6.71995 13.1177 7.21327 13.3202 7.61831 13.7253C8.02335 14.1303 8.22587 14.6236 8.22587 15.2052V16.7942C8.22587 17.355 8.02335 17.838 7.61831 18.243C7.21327 18.6481 6.71995 18.8506 6.13835 18.8506H4.48703C3.9262 18.8506 3.44327 18.6481 3.03823 18.243C2.63318 17.838 2.43066 17.355 2.43066 16.7942V15.2052C2.43066 14.6236 2.63318 14.1303 3.03823 13.7253C3.44327 13.3202 3.9262 13.1177 4.48703 13.1177H6.13835ZM6.13835 22.8387C6.71995 22.8387 7.21327 23.0412 7.61831 23.4462C8.02335 23.8513 8.22587 24.3342 8.22587 24.8951V26.4841C8.22587 27.0657 8.02335 27.559 7.61831 27.964C7.21327 28.3691 6.71995 28.5716 6.13835 28.5716H4.48703C3.9262 28.5716 3.44327 28.3691 3.03823 27.964C2.63318 27.559 2.43066 27.0657 2.43066 26.4841V24.8951C2.43066 24.3342 2.63318 23.8513 3.03823 23.4462C3.44327 23.0412 3.9262 22.8387 4.48703 22.8387H6.13835Z" fill="url(#paint0_linear_1041_6959)"/>
<path d="M27.3655 3.42786C27.9662 3.42786 28.4835 3.62518 28.9173 4.01984C29.3512 4.4145 29.5681 4.90262 29.5681 5.48422V7.07323C29.5681 7.65483 29.3512 8.14815 28.9173 8.55319C28.4835 8.95823 27.9662 9.16075 27.3655 9.16075H13.1158C12.4929 9.16075 11.9645 8.95823 11.5306 8.55319C11.0968 8.14815 10.8799 7.65483 10.8799 7.07323V5.48422C10.8799 4.90262 11.0968 4.4145 11.5306 4.01984C11.9645 3.62518 12.4929 3.42786 13.1158 3.42786H27.3655ZM27.3655 13.1177C27.9662 13.1177 28.4835 13.3202 28.9173 13.7253C29.3512 14.1303 29.5681 14.6236 29.5681 15.2052V16.7942C29.5681 17.355 29.3512 17.838 28.9173 18.243C28.4835 18.6481 27.9662 18.8506 27.3655 18.8506H13.1158C12.4929 18.8506 11.9645 18.6481 11.5306 18.243C11.0968 17.838 10.8799 17.355 10.8799 16.7942V15.2052C10.8799 14.6236 11.0968 14.1303 11.5306 13.7253C11.9645 13.3202 12.4929 13.1177 13.1158 13.1177H27.3655ZM27.3655 22.8387C27.9662 22.8387 28.4835 23.0412 28.9173 23.4462C29.3512 23.8513 29.5681 24.3342 29.5681 24.8951V26.4841C29.5681 27.0657 29.3512 27.559 28.9173 27.964C28.4835 28.3691 27.9662 28.5716 27.3655 28.5716H13.1158C12.4929 28.5716 11.9645 28.3691 11.5306 27.964C11.0968 27.559 10.8799 27.0657 10.8799 26.4841V24.8951C10.8799 24.3342 11.0968 23.8513 11.5306 23.4462C11.9645 23.0412 12.4929 22.8387 13.1158 22.8387H27.3655Z" fill="url(#paint1_linear_1041_6959)"/>
<path d="M27.5117 22.8389C28.0725 22.8389 28.5559 23.0413 28.9609 23.4463C29.366 23.8513 29.5684 24.3347 29.5684 24.8955V26.4844C29.5683 27.0658 29.3659 27.5589 28.9609 27.9639C28.5559 28.3689 28.0725 28.5713 27.5117 28.5713H17.7324C17.9473 26.0483 19.7994 23.8985 22.4219 22.8389H27.5117Z" fill="url(#paint2_linear_1041_6959)"/>
<defs>
<linearGradient id="paint0_linear_1041_6959" x1="24.0175" y1="15.9997" x2="4.55958" y2="1.59897" gradientUnits="userSpaceOnUse">
<stop stop-color="#A5ACFE"/>
<stop offset="1" stop-color="#4F5DFC"/>
</linearGradient>
<linearGradient id="paint1_linear_1041_6959" x1="23.6226" y1="15.9997" x2="3.81357" y2="0.297023" gradientUnits="userSpaceOnUse">
<stop stop-color="#4F5DFC"/>
<stop offset="1" stop-color="#A5ACFE"/>
</linearGradient>
<linearGradient id="paint2_linear_1041_6959" x1="28.7308" y1="30.0106" x2="20.5024" y2="24.2085" gradientUnits="userSpaceOnUse">
<stop stop-color="#505FFF"/>
<stop offset="1" stop-color="#6C78FD"/>
</linearGradient>
</defs>
</svg>
