<svg width="32" height="32" viewBox="0 0 32 32" fill="none" xmlns="http://www.w3.org/2000/svg">
<path fill-rule="evenodd" clip-rule="evenodd" d="M14.9968 1.9519C15.551 1.9519 16.0002 2.40116 16.0002 2.95534V6.46535L26.0346 6.46736C26.2689 6.46736 26.4939 6.54928 26.6721 6.69592L26.7964 6.81777L29.8067 10.3298C29.9626 10.5117 30.0483 10.7433 30.0483 10.9828V12.9897C30.0483 13.5439 29.599 13.9931 29.0449 13.9931H24.5294V16H27.038C27.5306 16 27.9403 16.3549 28.0253 16.823L28.0414 17.0034V24.0275C28.0414 24.5816 27.5922 25.0309 27.038 25.0309H20.014C19.4598 25.0309 19.0105 24.5816 19.0105 24.0275V17.0034C19.0105 16.4492 19.4598 16 20.014 16H22.5225V13.9931H16.0002V29.0446C16.0002 29.5988 15.551 30.0481 14.9968 30.0481H7.97275C7.41857 30.0481 6.96932 29.5988 6.96932 29.0446V13.9931H2.95558C2.46298 13.9931 2.05328 13.6381 1.96832 13.17L1.95215 12.9897V7.47079C1.95215 6.91661 2.4014 6.46736 2.95558 6.46736L6.96932 6.46535V2.95534C6.96932 2.40116 7.41857 1.9519 7.97275 1.9519H14.9968ZM8.97619 16.4157V13.5776L13.9934 18.5948V21.4327L8.97619 16.4157ZM8.97619 23.4398V20.6016L13.9934 25.6188V28.4568L8.97619 23.4398ZM13.9934 3.95877H8.97619V6.46535H13.9934V3.95877Z" fill="url(#paint0_linear_1041_5158)"/>
<path d="M27.8447 16.4133C27.9326 16.5332 27.9978 16.6713 28.0254 16.8234L28.041 17.0041V24.0275C28.041 24.5816 27.5921 25.0312 27.0381 25.0314H20.0137C19.8887 25.0314 19.7696 25.0068 19.6592 24.965C19.5738 24.5633 19.5273 24.1507 19.5273 23.7297C19.5275 19.9144 23.1757 16.7779 27.8447 16.4133Z" fill="url(#paint1_linear_1041_5158)"/>
<defs>
<linearGradient id="paint0_linear_1041_5158" x1="28.4302" y1="28.9703" x2="3.23017" y2="1.93148" gradientUnits="userSpaceOnUse">
<stop offset="0.505078" stop-color="#2573FD"/>
<stop offset="1" stop-color="#A1C3FF"/>
</linearGradient>
<linearGradient id="paint1_linear_1041_5158" x1="28.4455" y1="23.3564" x2="20.0509" y2="23.3822" gradientUnits="userSpaceOnUse">
<stop stop-color="#87C1FF"/>
<stop offset="1" stop-color="#6CA1FD" stop-opacity="0.2"/>
</linearGradient>
</defs>
</svg>
