<svg width="32" height="32" viewBox="0 0 32 32" fill="none" xmlns="http://www.w3.org/2000/svg">
<g clip-path="url(#clip0_1041_6117)">
<path d="M9.8201 3.34006C9.8201 3.09076 9.91913 2.85167 10.0954 2.67538C10.2717 2.4991 10.5108 2.40007 10.7601 2.40007H17.7001C17.9459 2.4053 18.1799 2.50664 18.3519 2.68236C18.5238 2.85808 18.6201 3.09419 18.6201 3.34006V4.80006H21.0201V2.80006C21.0201 2.06091 20.7278 1.35174 20.2071 0.827208C19.6863 0.302679 18.9792 0.00535109 18.2401 7.14352e-05H10.2401C9.87072 -0.00256706 9.50447 0.0679093 9.16244 0.20744C8.82042 0.346971 8.50939 0.552799 8.24726 0.813066C7.98514 1.07333 7.7771 1.38289 7.63514 1.72391C7.49318 2.06493 7.4201 2.43068 7.4201 2.80006V4.80006H9.8201V3.34006ZM13.1801 17.28V11.28C13.2422 11.0627 13.3734 10.8715 13.5538 10.7354C13.7342 10.5993 13.9541 10.5257 14.1801 10.5257C14.4061 10.5257 14.626 10.5993 14.8064 10.7354C14.9868 10.8715 15.118 11.0627 15.1801 11.28V15.28C16.2248 14.5815 17.3919 14.0862 18.6201 13.82V11.3C18.6822 11.0827 18.8133 10.8915 18.9938 10.7554C19.1742 10.6193 19.3941 10.5457 19.6201 10.5457C19.8461 10.5457 20.0659 10.6193 20.2464 10.7554C20.4268 10.8915 20.558 11.0827 20.6201 11.3V13.56H20.8601C22.5371 13.5578 24.1877 13.9773 25.6601 14.78V7.20005C25.6601 6.56354 25.4072 5.95309 24.9571 5.503C24.507 5.05292 23.8966 4.80006 23.2601 4.80006H5.02011C4.38359 4.80006 3.77315 5.05292 3.32306 5.503C2.87297 5.95309 2.62012 6.56354 2.62012 7.20005V28C2.62012 28.6365 2.87297 29.247 3.32306 29.6971C3.77315 30.1471 4.38359 30.4 5.02011 30.4H7.02011C7.02011 30.8243 7.18868 31.2313 7.48873 31.5314C7.78879 31.8314 8.19576 32 8.6201 32C9.04445 32 9.45141 31.8314 9.75147 31.5314C10.0515 31.2313 10.2201 30.8243 10.2201 30.4H13.5201C11.9128 28.6096 10.9974 26.3043 10.9388 23.8991C10.8801 21.4938 11.682 19.1466 13.2001 17.28H13.1801ZM9.7601 24.34C9.80431 24.4948 9.81199 24.6577 9.78254 24.816C9.75309 24.9742 9.6873 25.1235 9.59037 25.252C9.49343 25.3805 9.36799 25.4847 9.22391 25.5565C9.07984 25.6283 8.92107 25.6657 8.7601 25.6657C8.59913 25.6657 8.44036 25.6283 8.29629 25.5565C8.15222 25.4847 8.02678 25.3805 7.92984 25.252C7.8329 25.1235 7.76712 24.9742 7.73766 24.816C7.70821 24.6577 7.71589 24.4948 7.7601 24.34V11.3C7.82218 11.0827 7.95337 10.8915 8.1338 10.7554C8.31423 10.6193 8.53409 10.5457 8.7601 10.5457C8.98611 10.5457 9.20597 10.6193 9.3864 10.7554C9.56684 10.8915 9.69802 11.0827 9.7601 11.3V24.34Z" fill="url(#paint0_linear_1041_6117)"/>
<mask id="mask0_1041_6117" style="mask-type:alpha" maskUnits="userSpaceOnUse" x="2" y="0" width="24" height="32">
<path d="M9.8201 3.34006C9.8201 3.09076 9.91913 2.85167 10.0954 2.67538C10.2717 2.4991 10.5108 2.40007 10.7601 2.40007H17.7001C17.9459 2.4053 18.1799 2.50664 18.3519 2.68236C18.5238 2.85808 18.6201 3.09419 18.6201 3.34006V4.80006H21.0201V2.80006C21.0201 2.06091 20.7278 1.35174 20.2071 0.827208C19.6863 0.302679 18.9792 0.00535109 18.2401 7.14352e-05H10.2401C9.87072 -0.00256706 9.50447 0.0679093 9.16244 0.20744C8.82042 0.346971 8.50939 0.552799 8.24726 0.813066C7.98514 1.07333 7.7771 1.38289 7.63514 1.72391C7.49318 2.06493 7.4201 2.43068 7.4201 2.80006V4.80006H9.8201V3.34006ZM13.1801 17.28V11.28C13.2422 11.0627 13.3734 10.8715 13.5538 10.7354C13.7342 10.5993 13.9541 10.5257 14.1801 10.5257C14.4061 10.5257 14.626 10.5993 14.8064 10.7354C14.9868 10.8715 15.118 11.0627 15.1801 11.28V15.28C16.2248 14.5815 17.3919 14.0862 18.6201 13.82V11.3C18.6822 11.0827 18.8133 10.8915 18.9938 10.7554C19.1742 10.6193 19.3941 10.5457 19.6201 10.5457C19.8461 10.5457 20.0659 10.6193 20.2464 10.7554C20.4268 10.8915 20.558 11.0827 20.6201 11.3V13.56H20.8601C22.5371 13.5578 24.1877 13.9773 25.6601 14.78V7.20005C25.6601 6.56354 25.4072 5.95309 24.9571 5.503C24.507 5.05292 23.8966 4.80006 23.2601 4.80006H5.02011C4.38359 4.80006 3.77315 5.05292 3.32306 5.503C2.87297 5.95309 2.62012 6.56354 2.62012 7.20005V28C2.62012 28.6365 2.87297 29.247 3.32306 29.6971C3.77315 30.1471 4.38359 30.4 5.02011 30.4H7.02011C7.02011 30.8243 7.18868 31.2313 7.48873 31.5314C7.78879 31.8314 8.19576 32 8.6201 32C9.04445 32 9.45141 31.8314 9.75147 31.5314C10.0515 31.2313 10.2201 30.8243 10.2201 30.4H13.5201C11.9128 28.6096 10.9974 26.3043 10.9388 23.8991C10.8801 21.4938 11.682 19.1466 13.2001 17.28H13.1801ZM9.7601 24.34C9.80431 24.4948 9.81199 24.6577 9.78254 24.816C9.75309 24.9742 9.6873 25.1235 9.59037 25.252C9.49343 25.3805 9.36799 25.4847 9.22391 25.5565C9.07984 25.6283 8.92107 25.6657 8.7601 25.6657C8.59913 25.6657 8.44036 25.6283 8.29629 25.5565C8.15222 25.4847 8.02678 25.3805 7.92984 25.252C7.8329 25.1235 7.76712 24.9742 7.73766 24.816C7.70821 24.6577 7.71589 24.4948 7.7601 24.34V11.3C7.82218 11.0827 7.95337 10.8915 8.1338 10.7554C8.31423 10.6193 8.53409 10.5457 8.7601 10.5457C8.98611 10.5457 9.20597 10.6193 9.3864 10.7554C9.56684 10.8915 9.69802 11.0827 9.7601 11.3V24.34Z" fill="url(#paint1_linear_1041_6117)"/>
</mask>
<g mask="url(#mask0_1041_6117)">
<ellipse cx="11.8138" cy="11.226" rx="11.8138" ry="11.226" transform="matrix(0.884092 -0.467313 -0.467313 -0.884092 4.30176 18.7284)" fill="url(#paint2_linear_1041_6117)"/>
</g>
<path d="M25.8397 16.8401C24.4356 15.8487 22.7585 15.3175 21.0397 15.3201H20.7997C18.5878 15.2405 16.4349 16.0429 14.8146 17.5507C13.1942 19.0585 12.2393 21.1482 12.1597 23.3601C12.0801 25.572 12.8825 27.7249 14.3903 29.3452C15.8981 30.9655 17.9878 31.9205 20.1997 32.0001H21.0397C22.8116 32 24.5374 31.4356 25.9669 30.3887C27.3965 29.3418 28.4554 27.8668 28.9903 26.1775C29.5251 24.4883 29.5081 22.6726 28.9416 20.9937C28.3751 19.3148 27.2886 17.86 25.8397 16.8401Z" fill="url(#paint3_linear_1041_6117)"/>
<path d="M17.7051 19.6021L19.4239 22.5598H17.8884V23.7056H20.1926V24.8505H17.8884V25.9954H20.1926L20.1935 27.7132H21.3461L21.3451 25.9954H23.6512V24.8505H21.3451V23.7056H23.6512V22.5598H22.111L23.8297 19.6021H22.4987L20.7799 22.5598H20.7549L19.0342 19.6021H17.7051Z" fill="#F3FDFF"/>
</g>
<defs>
<linearGradient id="paint0_linear_1041_6117" x1="18.5606" y1="9.12465" x2="0.113419" y2="1.19891" gradientUnits="userSpaceOnUse">
<stop stop-color="#00AFD1"/>
<stop offset="1" stop-color="#A1EFFF"/>
</linearGradient>
<linearGradient id="paint1_linear_1041_6117" x1="18.5606" y1="9.12465" x2="0.113419" y2="1.19891" gradientUnits="userSpaceOnUse">
<stop stop-color="#00AFD1"/>
<stop offset="1" stop-color="#A1EFFF"/>
</linearGradient>
<linearGradient id="paint2_linear_1041_6117" x1="17.6779" y1="9.12851" x2="4.90642" y2="11.7206" gradientUnits="userSpaceOnUse">
<stop stop-color="#79E7FD"/>
<stop offset="1" stop-color="#00B4D8"/>
</linearGradient>
<linearGradient id="paint3_linear_1041_6117" x1="24.0717" y1="20.0724" x2="12.2287" y2="12.7768" gradientUnits="userSpaceOnUse">
<stop stop-color="#00AFD1"/>
<stop offset="1" stop-color="#A1EFFF"/>
</linearGradient>
<clipPath id="clip0_1041_6117">
<rect width="32" height="32" fill="white"/>
</clipPath>
</defs>
</svg>
