<svg width="32" height="32" viewBox="0 0 32 32" fill="none" xmlns="http://www.w3.org/2000/svg">
<path d="M27.6811 25.1669V24.4993H14.4927V25.1669L14.5017 25.3223C14.5786 25.9849 15.1355 26.4991 15.8115 26.5H26.3622L26.516 26.4908C27.1715 26.4132 27.6802 25.8502 27.6811 25.1669Z" fill="url(#paint0_linear_1041_5028)"/>
<path fill-rule="evenodd" clip-rule="evenodd" d="M24.4886 13.8652C25.4905 12.1645 25.1047 9.97815 23.5829 8.73247C22.5018 7.84158 21.0364 7.59227 19.7263 8.07638C18.4163 8.56048 17.4555 9.70639 17.1978 11.092C17.0159 12.0493 17.1916 13.0408 17.6909 13.8748C18.1642 14.6191 18.4265 15.4803 18.4492 16.3648V18.5016H14.4927L14.3389 18.5107C13.6833 18.5882 13.1745 19.1513 13.1738 19.8347V21.8342L13.1829 21.9896C13.2597 22.6522 13.8167 23.1665 14.4927 23.1673H27.6811L27.8348 23.1582C28.4903 23.0805 28.9991 22.5175 28.9999 21.8342V19.8347L28.9909 19.6793C28.9142 19.0166 28.3571 18.5023 27.6811 18.5016H23.7246V16.4341L23.7428 16.0938C23.8122 15.3032 24.0672 14.5388 24.4886 13.8652ZM19.768 17.1685H22.4057V18.5016H19.768V17.1685Z" fill="url(#paint1_linear_1041_5028)"/>
<path fill-rule="evenodd" clip-rule="evenodd" d="M5.26087 2C4.01223 2 3 3.04467 3 4.33333V27.6667C3 28.9553 4.01223 30 5.26087 30H23.3478C24.4714 30 25.4333 28.7751 25.6087 27.6667H15.4348L15.3845 27.6652C14.7563 27.6476 13.5415 27.6134 13.5415 25.6706V24.3422C12.9172 24.3422 12.0435 23.6443 12.0435 23V19.3338C12.0444 18.4796 12.6986 17.7758 13.5415 17.6789L13.7392 17.6675H17.3573V17.3299L17.3533 17.1773C17.3269 16.1255 17.3012 15.106 16.7207 14.2185C16.0787 13.176 15.8528 11.9367 16.0867 10.74C16.418 9.00801 17.6534 7.57563 19.3377 6.9705C21.022 6.36537 22.9062 6.67701 24.2962 7.79062C24.8556 8.23582 25.2956 8.77715 25.6087 9.37292V4.33333C25.6087 3.04467 24.5965 2 23.3478 2H5.26087Z" fill="url(#paint2_linear_1041_5028)"/>
<mask id="mask0_1041_5028" style="mask-type:alpha" maskUnits="userSpaceOnUse" x="3" y="2" width="23" height="28">
<path fill-rule="evenodd" clip-rule="evenodd" d="M5.26087 2C4.01223 2 3 3.04467 3 4.33333V27.6667C3 28.9553 4.01223 30 5.26087 30H23.3478C24.4714 30 25.4333 28.7751 25.6087 27.6667H15.4348L15.3845 27.6652C14.7563 27.6476 13.5415 27.6134 13.5415 25.6706V24.3422C12.9172 24.3422 12.0435 23.6443 12.0435 23V19.3338C12.0444 18.4796 12.6986 17.7758 13.5415 17.6789L13.7392 17.6675H17.3573V17.3299L17.3533 17.1773C17.3269 16.1255 17.3012 15.106 16.7207 14.2185C16.0787 13.176 15.8528 11.9367 16.0867 10.74C16.418 9.00801 17.6534 7.57563 19.3377 6.9705C21.022 6.36537 22.9062 6.67701 24.2962 7.79062C24.8556 8.23582 25.2956 8.77715 25.6087 9.37292V4.33333C25.6087 3.04467 24.5965 2 23.3478 2H5.26087Z" fill="url(#paint3_linear_1041_5028)"/>
</mask>
<g mask="url(#mask0_1041_5028)">
<ellipse cx="13.0094" cy="29.8537" rx="15.8848" ry="11.5846" transform="rotate(45.0203 13.0094 29.8537)" fill="url(#paint4_linear_1041_5028)"/>
</g>
<path d="M13.886 6.91028C14.3958 6.91028 14.809 7.32355 14.809 7.83336C14.809 8.34316 14.3958 8.75643 13.886 8.75643H6.72972C6.21992 8.75643 5.80664 8.34316 5.80664 7.83336C5.80664 7.32355 6.21992 6.91028 6.72972 6.91028H13.886Z" fill="#F3FDFF"/>
<path d="M11.6864 13.9147C12.1962 13.9147 12.6095 14.328 12.6095 14.8378C12.6095 15.3476 12.1962 15.7609 11.6864 15.7609H6.72972C6.21992 15.7609 5.80664 15.3476 5.80664 14.8378C5.80664 14.328 6.21992 13.9147 6.72972 13.9147H11.6864Z" fill="#F3FDFF"/>
<mask id="mask1_1041_5028" style="mask-type:alpha" maskUnits="userSpaceOnUse" x="13" y="7" width="16" height="20">
<path d="M27.6811 25.1669V24.4993H14.4927V25.1669L14.5017 25.3223C14.5786 25.9849 15.1355 26.4991 15.8115 26.5H26.3622L26.516 26.4908C27.1715 26.4132 27.6802 25.8502 27.6811 25.1669Z" fill="url(#paint5_linear_1041_5028)"/>
<path fill-rule="evenodd" clip-rule="evenodd" d="M24.4886 13.8652C25.4905 12.1645 25.1047 9.97815 23.5829 8.73247C22.5018 7.84158 21.0364 7.59227 19.7263 8.07638C18.4163 8.56048 17.4555 9.70639 17.1978 11.092C17.0159 12.0493 17.1916 13.0408 17.6909 13.8748C18.1642 14.6191 18.4265 15.4803 18.4492 16.3648V18.5016H14.4927L14.3389 18.5107C13.6833 18.5882 13.1745 19.1513 13.1738 19.8347V21.8342L13.1829 21.9896C13.2597 22.6522 13.8167 23.1665 14.4927 23.1673H27.6811L27.8348 23.1582C28.4903 23.0805 28.9991 22.5175 28.9999 21.8342V19.8347L28.9909 19.6793C28.9142 19.0166 28.3571 18.5023 27.6811 18.5016H23.7246V16.4341L23.7428 16.0938C23.8122 15.3032 24.0672 14.5388 24.4886 13.8652ZM19.768 17.1685H22.4057V18.5016H19.768V17.1685Z" fill="url(#paint6_linear_1041_5028)"/>
</mask>
<g mask="url(#mask1_1041_5028)">
<ellipse cx="24.2179" cy="9.31177" rx="5.5431" ry="5.52601" fill="url(#paint7_linear_1041_5028)"/>
</g>
<defs>
<linearGradient id="paint0_linear_1041_5028" x1="23.0689" y1="15.0979" x2="12.793" y2="9.28428" gradientUnits="userSpaceOnUse">
<stop stop-color="#00AFD1"/>
<stop offset="1" stop-color="#A1EFFF"/>
</linearGradient>
<linearGradient id="paint1_linear_1041_5028" x1="23.0689" y1="15.0979" x2="12.793" y2="9.28428" gradientUnits="userSpaceOnUse">
<stop stop-color="#00AFD1"/>
<stop offset="1" stop-color="#A1EFFF"/>
</linearGradient>
<linearGradient id="paint2_linear_1041_5028" x1="16.3871" y1="37.3741" x2="-9.49359" y2="18.233" gradientUnits="userSpaceOnUse">
<stop offset="0.515112" stop-color="#00AFD1"/>
<stop offset="1" stop-color="#A1EFFF"/>
</linearGradient>
<linearGradient id="paint3_linear_1041_5028" x1="16.3871" y1="37.3741" x2="-9.49359" y2="18.233" gradientUnits="userSpaceOnUse">
<stop offset="0.515112" stop-color="#00AFD1"/>
<stop offset="1" stop-color="#A1EFFF"/>
</linearGradient>
<linearGradient id="paint4_linear_1041_5028" x1="12.8797" y1="31.4229" x2="-1.55169" y2="28.274" gradientUnits="userSpaceOnUse">
<stop stop-color="#1ED9FE"/>
<stop offset="1" stop-color="#00B4D9"/>
</linearGradient>
<linearGradient id="paint5_linear_1041_5028" x1="15.6131" y1="24.6938" x2="19.4008" y2="20.8114" gradientUnits="userSpaceOnUse">
<stop stop-color="#00B4D8"/>
<stop offset="1" stop-color="#1FDAFF"/>
</linearGradient>
<linearGradient id="paint6_linear_1041_5028" x1="15.6131" y1="24.6938" x2="19.4008" y2="20.8114" gradientUnits="userSpaceOnUse">
<stop stop-color="#00B4D8"/>
<stop offset="1" stop-color="#1FDAFF"/>
</linearGradient>
<linearGradient id="paint7_linear_1041_5028" x1="20.3835" y1="13.7684" x2="22.5857" y2="11.0977" gradientUnits="userSpaceOnUse">
<stop stop-color="#00B4D8"/>
<stop offset="1" stop-color="#1FDAFF"/>
</linearGradient>
</defs>
</svg>
