<svg width="32" height="32" viewBox="0 0 32 32" fill="none" xmlns="http://www.w3.org/2000/svg">
<path d="M18.1438 31.2934H2.26832C2.13593 31.2924 2.00518 31.264 1.88423 31.2102C1.76328 31.1564 1.65471 31.0782 1.56532 30.9806C1.47592 30.8829 1.40761 30.7679 1.36464 30.6427C1.32168 30.5175 1.30499 30.3847 1.3156 30.2528L1.8273 24.0958C1.87412 23.56 2.06506 23.0468 2.37988 22.6107C2.6947 22.1746 3.12166 21.8318 3.6155 21.6187L9.34696 19.4198L16.588 19.3905C15.6537 20.8844 15.1614 22.6124 15.1681 24.3744C15.1657 25.6697 15.4285 26.9518 15.9402 28.1417C16.452 29.3316 17.2019 30.4042 18.1438 31.2934Z" fill="url(#paint0_linear_1041_6131)"/>
<mask id="mask0_1041_6131" style="mask-type:alpha" maskUnits="userSpaceOnUse" x="1" y="19" width="18" height="13">
<path d="M18.1438 31.2934H2.26832C2.13593 31.2924 2.00518 31.264 1.88423 31.2102C1.76328 31.1564 1.65471 31.0782 1.56532 30.9806C1.47592 30.8829 1.40761 30.7679 1.36464 30.6427C1.32168 30.5175 1.30499 30.3847 1.3156 30.2528L1.8273 24.0958C1.87412 23.56 2.06506 23.0468 2.37988 22.6107C2.6947 22.1746 3.12166 21.8318 3.6155 21.6187L9.34696 19.4198L16.588 19.3905C15.6537 20.8844 15.1614 22.6124 15.1681 24.3744C15.1657 25.6697 15.4285 26.9518 15.9402 28.1417C16.452 29.3316 17.2019 30.4042 18.1438 31.2934Z" fill="url(#paint1_linear_1041_6131)"/>
</mask>
<g mask="url(#mask0_1041_6131)">
<path d="M-0.130079 23.1618C1.80551 20.4213 7.44225 21.0725 12.4598 24.6159C17.4774 28.1595 19.9763 33.2541 18.0408 35.9948C16.1053 38.7354 10.4686 38.0843 5.45098 34.5407C0.433323 30.9971 -2.06561 25.9025 -0.130079 23.1618Z" fill="url(#paint2_linear_1041_6131)"/>
</g>
<path d="M15.4015 17.7798C19.0989 17.7798 22.0964 14.3013 22.0964 10.0095H8.70696C8.70696 14.3 11.7041 17.7798 15.4015 17.7798ZM7.89631 8.87296H22.9087C23.1641 8.87296 23.4089 8.77154 23.5895 8.59099C23.77 8.41045 23.8714 8.16558 23.8714 7.91025C23.8714 7.65492 23.77 7.41005 23.5895 7.22951C23.4089 7.04897 23.1641 6.94754 22.9087 6.94754H22.5084C22.1636 4.40627 20.4964 2.29258 18.2265 1.30917V4.17111C18.2218 4.42315 18.1183 4.66325 17.9384 4.8398C17.7584 5.01636 17.5164 5.11527 17.2643 5.11527C17.0122 5.11527 16.7702 5.01636 16.5903 4.8398C16.4104 4.66325 16.3069 4.42315 16.3021 4.17111V0.790921C16.0049 0.753337 15.7097 0.706787 15.4015 0.706787C15.0932 0.706787 14.7984 0.753337 14.5012 0.790921V4.1718C14.4964 4.42384 14.3929 4.66394 14.213 4.84049C14.0331 5.01705 13.7911 5.11596 13.539 5.11596C13.2869 5.11596 13.0449 5.01705 12.865 4.84049C12.685 4.66394 12.5816 4.42384 12.5768 4.1718V1.30986C10.3065 2.29361 8.63938 4.40696 8.29526 6.94823H7.89631C7.64098 6.94823 7.39611 7.04965 7.21557 7.2302C7.03502 7.41074 6.93359 7.65561 6.93359 7.91094C6.93359 8.16627 7.03502 8.41114 7.21557 8.59168C7.39611 8.77223 7.64098 8.87296 7.89631 8.87296Z" fill="url(#paint3_linear_1041_6131)"/>
<path d="M30.1353 21.7414C29.7872 20.9325 29.292 20.1952 28.6749 19.567C28.0409 18.9569 27.305 18.4627 26.5005 18.1066C25.6702 17.7513 24.7746 17.5744 23.8716 17.5873C22.9603 17.5965 22.0583 17.7725 21.2104 18.1066C20.3951 18.4428 19.6557 18.9394 19.036 19.567C18.4189 20.1952 17.9237 20.9325 17.5756 21.7414C17.2203 22.5716 17.0434 23.4673 17.0563 24.3702C17.0515 25.2621 17.224 26.1461 17.5639 26.9707C17.9037 27.7953 18.4042 28.544 19.036 29.1735C19.67 29.7835 20.406 30.2778 21.2105 30.6339C22.0435 31.003 22.9444 31.1936 23.8555 31.1936C24.7666 31.1936 25.6676 31.003 26.5005 30.6339C27.3095 30.2858 28.0468 29.7906 28.675 29.1735C29.3026 28.5538 29.7992 27.8144 30.1354 26.999C30.4949 26.169 30.6826 25.2747 30.6871 24.3702C30.6794 23.466 30.4918 22.5724 30.1353 21.7414Z" fill="url(#paint4_linear_1041_6131)"/>
<path d="M20.7109 20.2043L22.485 23.2572H20.9001V24.4399H23.2784V25.6216H20.9001V26.8033H23.2784L23.2794 28.5764H24.469L24.4681 26.8033H26.8483V25.6216H24.4681V24.4399H26.8483V23.2572H25.2585L27.0326 20.2043H25.6587L23.8846 23.2572H23.8589L22.0828 20.2043H20.7109Z" fill="#F0F2FE"/>
<defs>
<linearGradient id="paint0_linear_1041_6131" x1="14.701" y1="25.342" x2="5.07395" y2="16.0072" gradientUnits="userSpaceOnUse">
<stop stop-color="#4F5DFC"/>
<stop offset="1" stop-color="#A5ACFE"/>
</linearGradient>
<linearGradient id="paint1_linear_1041_6131" x1="14.701" y1="25.342" x2="5.07395" y2="16.0072" gradientUnits="userSpaceOnUse">
<stop stop-color="#4F5DFC"/>
<stop offset="1" stop-color="#A5ACFE"/>
</linearGradient>
<linearGradient id="paint2_linear_1041_6131" x1="14.39" y1="27.7106" x2="-2.81471" y2="27.6165" gradientUnits="userSpaceOnUse">
<stop stop-color="#A3ABFF"/>
<stop offset="0.845731" stop-color="#6C78FD"/>
</linearGradient>
<linearGradient id="paint3_linear_1041_6131" x1="20.4069" y1="9.24329" x2="7.55703" y2="0.501725" gradientUnits="userSpaceOnUse">
<stop stop-color="#4F5DFC"/>
<stop offset="1" stop-color="#A5ACFE"/>
</linearGradient>
<linearGradient id="paint4_linear_1041_6131" x1="27.8989" y1="24.3901" x2="17.6214" y2="17.33" gradientUnits="userSpaceOnUse">
<stop stop-color="#4F5DFC"/>
<stop offset="1" stop-color="#A5ACFE"/>
</linearGradient>
</defs>
</svg>
