<svg width="32" height="32" viewBox="0 0 32 32" fill="none" xmlns="http://www.w3.org/2000/svg">
<path fill-rule="evenodd" clip-rule="evenodd" d="M29.2302 4C30.3348 4 31.2302 4.89543 31.2302 6L31.2307 10.2655C31.2307 10.5944 31.0691 10.9022 30.7983 11.0889C30.6017 11.2244 30.4471 11.3404 30.3344 11.4366C29.0466 12.5371 28.2302 14.1732 28.2302 16C28.2302 17.8583 29.075 19.5193 30.4015 20.6199L30.5108 20.7066L30.7962 20.9117C31.0682 21.0981 31.2307 21.4067 31.2307 21.7365L31.2302 26C31.2302 27.1046 30.3348 28 29.2302 28H2.76866C1.66409 28 0.768555 27.1046 0.768555 26V21.7371C0.768555 21.4071 0.931335 21.0984 1.20358 20.912L1.46692 20.7235C1.50415 20.6952 1.53804 20.6686 1.56859 20.6436C2.91163 19.5432 3.76866 17.8717 3.76866 16C3.76866 14.1261 2.90964 12.4529 1.5639 11.3526L1.46348 11.2738L1.20374 11.088C0.931378 10.9016 0.768555 10.5928 0.768555 10.2628V6C0.768555 4.89543 1.66409 4 2.76866 4H29.2302Z" fill="url(#paint0_linear_1041_6106)"/>
<mask id="mask0_1041_6106" style="mask-type:alpha" maskUnits="userSpaceOnUse" x="0" y="4" width="32" height="24">
<path fill-rule="evenodd" clip-rule="evenodd" d="M29.2312 4C30.3357 4 31.2312 4.89543 31.2312 6L31.2317 10.2655C31.2317 10.5944 31.0701 10.9022 30.7993 11.0889C30.6027 11.2244 30.4481 11.3404 30.3354 11.4366C29.0476 12.5371 28.2312 14.1732 28.2312 16C28.2312 17.8583 29.076 19.5193 30.4025 20.6199L30.5117 20.7066L30.7972 20.9117C31.0692 21.0981 31.2317 21.4067 31.2317 21.7365L31.2312 26C31.2312 27.1046 30.3357 28 29.2312 28H2.76963C1.66507 28 0.769531 27.1046 0.769531 26V21.7371C0.769531 21.4071 0.932311 21.0984 1.20456 20.912L1.4679 20.7235C1.50512 20.6952 1.53901 20.6686 1.56957 20.6436C2.91261 19.5432 3.76963 17.8717 3.76963 16C3.76963 14.1261 2.91061 12.4529 1.56488 11.3526L1.46445 11.2738L1.20472 11.088C0.932354 10.9016 0.769531 10.5928 0.769531 10.2628V6C0.769531 4.89543 1.66507 4 2.76963 4H29.2312Z" fill="url(#paint1_linear_1041_6106)"/>
</mask>
<g mask="url(#mask0_1041_6106)">
<ellipse cx="17.2446" cy="12.3563" rx="17.2446" ry="12.3563" transform="matrix(0.870582 -0.492023 -0.507286 -0.861778 13.7422 42.2662)" fill="url(#paint2_linear_1041_6106)"/>
</g>
<path d="M10.2188 8.34326L13.4636 13.9272H10.5648V16.0904H14.9149V18.2519H10.5648V20.4133H14.9149L14.9167 23.6564H17.0926L17.0908 20.4133H21.4445V18.2519H17.0908V16.0904H21.4445V13.9272H18.5366L21.7815 8.34326H19.2686L16.0237 13.9272H15.9766L12.7281 8.34326H10.2188Z" fill="#FEF0FB"/>
<defs>
<linearGradient id="paint0_linear_1041_6106" x1="28.7692" y1="21.414" x2="5.13577" y2="0.146875" gradientUnits="userSpaceOnUse">
<stop stop-color="#FC4FD0"/>
<stop offset="1" stop-color="#FEA5E8"/>
</linearGradient>
<linearGradient id="paint1_linear_1041_6106" x1="28.7701" y1="21.414" x2="5.13675" y2="0.146875" gradientUnits="userSpaceOnUse">
<stop stop-color="#FC4FD0"/>
<stop offset="1" stop-color="#FEA5E8"/>
</linearGradient>
<linearGradient id="paint2_linear_1041_6106" x1="27.781" y1="16.8149" x2="8.24094" y2="22.9356" gradientUnits="userSpaceOnUse">
<stop offset="0.0604203" stop-color="#FFB1EB"/>
<stop offset="1" stop-color="#FE82DF"/>
</linearGradient>
</defs>
</svg>
