<svg width="32" height="32" viewBox="0 0 32 32" fill="none" xmlns="http://www.w3.org/2000/svg">
<path d="M13.8163 1.40173C20.7637 1.40173 26.3963 7.03425 26.3963 13.9817C26.3963 16.8936 25.4071 19.5745 23.7459 21.7065L24.9224 22.883C25.2013 22.8673 25.4804 22.9107 25.7414 23.0104C26.0024 23.1102 26.2393 23.264 26.4366 23.4617L30.1822 27.2072C30.3666 27.3917 30.513 27.6107 30.6128 27.8517C30.7126 28.0927 30.764 28.351 30.764 28.6119C30.764 28.8727 30.7126 29.1311 30.6128 29.3721C30.513 29.6131 30.3666 29.8321 30.1822 30.0165C29.9977 30.201 29.7787 30.3473 29.5377 30.4471C29.2967 30.547 29.0384 30.5983 28.7775 30.5983C28.5166 30.5983 28.2583 30.547 28.0173 30.4471C27.7763 30.3473 27.5573 30.201 27.3729 30.0165L23.6273 26.271C23.4294 26.0735 23.2755 25.8364 23.1758 25.5752C23.0761 25.3139 23.0327 25.0346 23.0487 24.7554L21.9079 23.6146C19.6436 25.5221 16.777 26.5662 13.8163 26.5617C6.86884 26.5617 1.23633 20.9292 1.23633 13.9817C1.23633 7.03425 6.86884 1.40173 13.8163 1.40173ZM13.8163 4.05015C8.33143 4.05015 3.88474 8.49684 3.88474 13.9817C3.88474 19.4666 8.33143 23.9133 13.8163 23.9133C19.3012 23.9133 23.7478 19.4666 23.7478 13.9817C23.7478 8.49684 19.3012 4.05015 13.8163 4.05015Z" fill="url(#paint0_linear_1041_6811)"/>
<mask id="mask0_1041_6811" style="mask-type:alpha" maskUnits="userSpaceOnUse" x="1" y="1" width="30" height="30">
<path d="M13.8163 1.40149C20.7637 1.40149 26.3963 7.034 26.3963 13.9815C26.3963 16.8934 25.4071 19.5742 23.7459 21.7062L24.9224 22.8828C25.2013 22.867 25.4804 22.9105 25.7414 23.0102C26.0024 23.1099 26.2393 23.2637 26.4366 23.4615L30.1822 27.207C30.3666 27.3914 30.513 27.6104 30.6128 27.8514C30.7126 28.0924 30.764 28.3508 30.764 28.6116C30.764 28.8725 30.7126 29.1308 30.6128 29.3718C30.513 29.6128 30.3666 29.8318 30.1822 30.0163C29.9977 30.2007 29.7787 30.3471 29.5377 30.4469C29.2967 30.5467 29.0384 30.5981 28.7775 30.5981C28.5166 30.5981 28.2583 30.5467 28.0173 30.4469C27.7763 30.3471 27.5573 30.2007 27.3729 30.0163L23.6273 26.2708C23.4294 26.0733 23.2755 25.8361 23.1758 25.5749C23.0761 25.3137 23.0327 25.0343 23.0487 24.7552L21.9079 23.6144C19.6436 25.5219 16.777 26.5659 13.8163 26.5614C6.86884 26.5614 1.23633 20.9289 1.23633 13.9815C1.23633 7.034 6.86884 1.40149 13.8163 1.40149ZM13.8163 4.0499C8.33143 4.0499 3.88474 8.49659 3.88474 13.9815C3.88474 19.4663 8.33143 23.913 13.8163 23.913C19.3012 23.913 23.7478 19.4663 23.7478 13.9815C23.7478 8.49659 19.3012 4.0499 13.8163 4.0499Z" fill="url(#paint1_linear_1041_6811)"/>
</mask>
<g mask="url(#mask0_1041_6811)">
<ellipse cx="29.6983" cy="21.678" rx="9.3559" ry="7.62735" transform="rotate(84.8111 29.6983 21.678)" fill="url(#paint2_linear_1041_6811)"/>
</g>
<path d="M13.0044 9.13599C13.3025 9.1417 13.5682 9.32615 13.6775 9.60354L15.8434 15.0975L16.9431 12.0206C17.0283 11.7823 17.2299 11.6038 17.4768 11.5483C17.7236 11.4928 17.9817 11.5679 18.1607 11.7466L19.2124 12.7983H20.7484C21.1563 12.7983 21.4876 13.1296 21.4876 13.5374C21.4873 13.8941 21.2339 14.1911 20.8975 14.2598L20.7484 14.2754H18.9071C18.7112 14.2754 18.5227 14.1976 18.3842 14.0591L17.9419 13.6156L16.5741 17.4485C16.4706 17.738 16.1977 17.9326 15.8902 17.9377C15.5826 17.9427 15.3036 17.7564 15.1907 17.4701L12.954 11.7958L11.2015 15.8043C11.084 16.0731 10.8183 16.2478 10.5249 16.2478H6.65107C6.24323 16.2478 5.91309 15.9164 5.91309 15.5086C5.91319 15.1008 6.24329 14.7706 6.65107 14.7706H10.0417L12.3133 9.5783C12.4329 9.30497 12.7061 9.13049 13.0044 9.13599Z" fill="url(#paint3_linear_1041_6811)"/>
<defs>
<linearGradient id="paint0_linear_1041_6811" x1="30.764" y1="22.5863" x2="2.72275" y2="0.712719" gradientUnits="userSpaceOnUse">
<stop stop-color="#FC4FD0"/>
<stop offset="1" stop-color="#FEA5E8"/>
</linearGradient>
<linearGradient id="paint1_linear_1041_6811" x1="30.764" y1="14.0555" x2="-0.724917" y2="24.0997" gradientUnits="userSpaceOnUse">
<stop stop-color="#FFABEA"/>
<stop offset="1" stop-color="#FD68D8"/>
</linearGradient>
<linearGradient id="paint2_linear_1041_6811" x1="39.0542" y1="20.6622" x2="19.9314" y2="28.0603" gradientUnits="userSpaceOnUse">
<stop stop-color="#FFABEA"/>
<stop offset="1" stop-color="#FD68D8"/>
</linearGradient>
<linearGradient id="paint3_linear_1041_6811" x1="23.225" y1="16.7368" x2="14.2339" y2="3.74439" gradientUnits="userSpaceOnUse">
<stop stop-color="#FEA5E8"/>
<stop offset="1" stop-color="#FC4FD0"/>
</linearGradient>
</defs>
</svg>
