<svg width="32" height="32" viewBox="0 0 32 32" fill="none" xmlns="http://www.w3.org/2000/svg">
<path fill-rule="evenodd" clip-rule="evenodd" d="M25.8906 1.71399C27.1045 1.71399 28.0885 2.698 28.0885 3.91184V28.0882C28.0885 29.3021 27.1045 30.2861 25.8906 30.2861H6.10996C4.89612 30.2861 3.91211 29.3021 3.91211 28.0882V3.91184C3.91211 2.698 4.89612 1.71399 6.10996 1.71399H9.40674V4.3911C9.40674 5.24835 9.48484 5.62751 9.63269 5.94885L9.7003 6.08425C9.89185 6.44242 10.1729 6.72351 10.5311 6.91506C10.8893 7.10661 11.2445 7.20862 12.2243 7.20862H19.7763C20.7561 7.20862 21.1113 7.10661 21.4695 6.91506C21.8277 6.72351 22.1087 6.44242 22.3003 6.08425C22.4918 5.72608 22.5939 5.37081 22.5939 4.3911V1.71399H25.8906Z" fill="url(#paint0_linear_1041_5017)"/>
<mask id="mask0_1041_5017" style="mask-type:alpha" maskUnits="userSpaceOnUse" x="3" y="1" width="26" height="30">
<path fill-rule="evenodd" clip-rule="evenodd" d="M25.8906 1.71393C27.1045 1.71393 28.0885 2.69794 28.0885 3.91178V28.0882C28.0885 29.302 27.1045 30.286 25.8906 30.286H6.10996C4.89612 30.286 3.91211 29.302 3.91211 28.0882V3.91178C3.91211 2.69794 4.89612 1.71393 6.10996 1.71393H9.40674V4.39104C9.40674 5.24829 9.48484 5.62745 9.63269 5.94879L9.7003 6.08419C9.89185 6.44236 10.1729 6.72345 10.5311 6.915C10.8893 7.10655 11.2445 7.20856 12.2243 7.20856H19.7763C20.7561 7.20856 21.1113 7.10655 21.4695 6.915C21.8277 6.72345 22.1087 6.44236 22.3003 6.08419C22.4918 5.72602 22.5939 5.37075 22.5939 4.39104V1.71393H25.8906Z" fill="url(#paint1_linear_1041_5017)"/>
</mask>
<g mask="url(#mask0_1041_5017)">
<path d="M23.4814 14.4862C29.1289 14.4864 33.7069 18.2562 33.707 22.9071C33.707 27.558 29.1289 31.3288 23.4814 31.329C22.5364 31.329 21.6216 31.2199 20.7529 31.0223C20.7531 31.0447 20.7549 31.0673 20.7549 31.0897C20.7548 35.7407 16.984 39.5106 12.333 39.5106C7.68218 39.5104 3.91221 35.7406 3.91211 31.0897C3.91211 26.4388 7.68212 22.668 12.333 22.6678C12.6465 22.6678 12.9562 22.6862 13.2607 22.7196C13.382 18.1553 17.9099 14.4862 23.4814 14.4862Z" fill="url(#paint2_linear_1041_5017)"/>
<path d="M21.6702 12.2346C22.18 12.2346 22.5933 12.6479 22.5933 13.1577C22.5933 13.6675 22.18 14.0808 21.6702 14.0808H10.3313C9.82148 14.0808 9.4082 13.6675 9.4082 13.1577C9.4082 12.6479 9.82148 12.2346 10.3313 12.2346H21.6702Z" fill="#F0F2FE"/>
<path d="M21.6702 18.8281C22.18 18.8281 22.5933 19.2414 22.5933 19.7512C22.5933 20.261 22.18 20.6743 21.6702 20.6743H10.3313C9.82148 20.6743 9.4082 20.261 9.4082 19.7512C9.4082 19.2414 9.82148 18.8281 10.3313 18.8281H21.6702Z" fill="#F0F2FE"/>
</g>
<path fill-rule="evenodd" clip-rule="evenodd" d="M19.7525 1.71399C19.9776 1.71399 20.0901 1.71399 20.1759 1.75788C20.2514 1.79648 20.3126 1.85806 20.3508 1.93373C20.3943 2.01976 20.3937 2.13232 20.3925 2.35742L20.3817 4.35662C20.3805 4.57955 20.3799 4.69102 20.3362 4.77612C20.2977 4.85098 20.2365 4.91179 20.1615 4.94988C20.0762 4.99319 19.9647 4.99319 19.7417 4.99319H12.2569C12.0338 4.99319 11.9223 4.99319 11.8369 4.94984C11.7618 4.91172 11.7007 4.85086 11.6622 4.77595C11.6185 4.6908 11.6179 4.57926 11.6169 4.35619L11.6075 2.35699C11.6065 2.13202 11.6059 2.01954 11.6494 1.93356C11.6876 1.85795 11.7488 1.79641 11.8243 1.75784C11.91 1.71399 12.0225 1.71399 12.2475 1.71399H19.7525Z" fill="url(#paint3_linear_1041_5017)"/>
<defs>
<linearGradient id="paint0_linear_1041_5017" x1="23.1433" y1="16" x2="3.0712" y2="4.35379" gradientUnits="userSpaceOnUse">
<stop stop-color="#4F5DFC"/>
<stop offset="1" stop-color="#A5ACFE"/>
</linearGradient>
<linearGradient id="paint1_linear_1041_5017" x1="23.1433" y1="16" x2="3.0712" y2="4.35373" gradientUnits="userSpaceOnUse">
<stop stop-color="#4F5DFC"/>
<stop offset="1" stop-color="#A5ACFE"/>
</linearGradient>
<linearGradient id="paint2_linear_1041_5017" x1="23.2719" y1="19.9163" x2="21.1081" y2="30.4897" gradientUnits="userSpaceOnUse">
<stop stop-color="#8791FF"/>
<stop offset="1" stop-color="#6C78FD"/>
</linearGradient>
<linearGradient id="paint3_linear_1041_5017" x1="18.5977" y1="3.36238" x2="16.3516" y2="-0.744716" gradientUnits="userSpaceOnUse">
<stop stop-color="#4F5DFC"/>
<stop offset="1" stop-color="#A5ACFE"/>
</linearGradient>
</defs>
</svg>
