<svg width="32" height="32" viewBox="0 0 32 32" fill="none" xmlns="http://www.w3.org/2000/svg">
<path d="M14.5264 1.91459C14.9564 1.56136 15.4957 1.36829 16.0522 1.36829C16.6088 1.36829 17.148 1.56136 17.5781 1.91459L27.5981 10.4337C28.9403 11.6507 27.964 13.5966 25.8857 13.5966C25.6169 13.5966 25.399 13.8145 25.399 14.0832V23.3312C25.399 24.063 24.7887 24.5475 24.0554 24.5475H7.80613C7.07431 24.5475 6.46251 24.0623 6.46251 23.3312V14.0847C6.46251 13.8143 6.24331 13.5951 5.97292 13.5951C4.01897 13.5951 3.04273 11.6485 4.50929 10.4322L14.5264 1.91459Z" fill="url(#paint0_linear_1041_6090)"/>
<mask id="mask0_1041_6090" style="mask-type:alpha" maskUnits="userSpaceOnUse" x="3" y="1" width="26" height="24">
<path d="M14.5264 1.91459C14.9564 1.56136 15.4957 1.36829 16.0522 1.36829C16.6088 1.36829 17.148 1.56136 17.5781 1.91459L27.5981 10.4337C28.9403 11.6507 27.964 13.5966 25.8857 13.5966H25.399V23.3312C25.399 24.063 24.7887 24.5475 24.0554 24.5475H7.80613C7.07431 24.5475 6.46251 24.0623 6.46251 23.3312V13.5951H5.97292C4.01897 13.5951 3.04273 11.6485 4.50929 10.4322L14.5264 1.91459Z" fill="url(#paint1_linear_1041_6090)"/>
</mask>
<g mask="url(#mask0_1041_6090)">
<ellipse cx="30.5007" cy="22.0182" rx="16.157" ry="10.6966" fill="url(#paint2_linear_1041_6090)"/>
</g>
<path d="M5.06288 20.8972C5.06268 20.8972 5.06248 20.8973 5.06248 20.8975V23.9385C5.06248 24.9126 5.91241 25.7651 6.87983 25.7651H25.0374C25.5144 25.754 25.9689 25.5581 26.3067 25.2181C26.6445 24.878 26.8397 24.4199 26.8519 23.9385V21.5041C26.8519 21.1689 27.1236 20.8971 27.4589 20.8971C28.0637 20.8971 28.5488 21.3845 28.6685 21.8711L30.4851 29.1703C30.6055 29.9021 30.0007 30.6317 29.274 30.6317H2.64248C1.91728 30.6317 1.31101 29.8999 1.55323 29.1703L3.37058 21.8719C3.49024 21.2637 3.9754 20.8978 4.58022 20.8978H5.06278C5.06313 20.8978 5.06321 20.8973 5.06288 20.8972Z" fill="url(#paint3_linear_1041_6090)"/>
<path d="M17.7786 11.1615H14.3381V10.0146H21.5432V11.1615H18.9628V14.228H21.269V15.3375H18.9628V19.2766H21.805V20.4235H13.8893V19.2766H15.0237V12.9191H16.1705V19.2766H17.7786V11.1615ZM13.7023 9.79024C13.0707 11.1698 12.0278 12.4039 10.5734 13.4926L10.2119 12.3208C11.3255 11.4565 12.1441 10.4509 12.6677 9.30408L13.7023 9.79024ZM14.1012 13.0189C13.8103 13.6505 13.4447 14.2363 13.0042 14.7765V20.8972H11.8574V15.9857C11.4502 16.3347 11.0513 16.6547 10.6607 16.9456L10.3116 15.7987C11.5582 14.8762 12.4807 13.7917 13.079 12.5452L14.1012 13.0189Z" fill="#E8F2FE"/>
<defs>
<linearGradient id="paint0_linear_1041_6090" x1="26.8084" y1="23.6583" x2="8.11447" y2="4.61051" gradientUnits="userSpaceOnUse">
<stop stop-color="#A1C3FF"/>
<stop offset="0.795253" stop-color="#2573FD"/>
</linearGradient>
<linearGradient id="paint1_linear_1041_6090" x1="30.7702" y1="13.177" x2="10.6864" y2="18.0662" gradientUnits="userSpaceOnUse">
<stop stop-color="#6CA1FD" stop-opacity="0.2"/>
<stop offset="1" stop-color="#87C1FF"/>
</linearGradient>
<linearGradient id="paint2_linear_1041_6090" x1="50.0409" y1="22.2204" x2="24.9402" y2="30.9843" gradientUnits="userSpaceOnUse">
<stop stop-color="#6CA1FD" stop-opacity="0.2"/>
<stop offset="1" stop-color="#87C1FF"/>
</linearGradient>
<linearGradient id="paint3_linear_1041_6090" x1="28.8302" y1="30.2583" x2="23.842" y2="14.3131" gradientUnits="userSpaceOnUse">
<stop offset="0.505078" stop-color="#2573FD"/>
<stop offset="1" stop-color="#A1C3FF"/>
</linearGradient>
</defs>
</svg>
