<svg width="32" height="32" viewBox="0 0 32 32" fill="none" xmlns="http://www.w3.org/2000/svg">
<path d="M13.8163 1.40173C20.7637 1.40173 26.3963 7.03425 26.3963 13.9817C26.3963 16.8936 25.4071 19.5745 23.7459 21.7065L24.9224 22.883C25.2013 22.8673 25.4804 22.9107 25.7414 23.0104C26.0024 23.1102 26.2393 23.264 26.4366 23.4617L30.1822 27.2072C30.3666 27.3917 30.513 27.6107 30.6128 27.8517C30.7126 28.0927 30.764 28.351 30.764 28.6119C30.764 28.8727 30.7126 29.1311 30.6128 29.3721C30.513 29.6131 30.3666 29.8321 30.1822 30.0165C29.9977 30.201 29.7787 30.3473 29.5377 30.4471C29.2967 30.547 29.0384 30.5983 28.7775 30.5983C28.5166 30.5983 28.2583 30.547 28.0173 30.4471C27.7763 30.3473 27.5573 30.201 27.3729 30.0165L23.6273 26.271C23.4294 26.0735 23.2755 25.8364 23.1758 25.5752C23.0761 25.3139 23.0327 25.0346 23.0487 24.7554L21.9079 23.6146C19.6436 25.5221 16.777 26.5662 13.8163 26.5617C6.86884 26.5617 1.23633 20.9292 1.23633 13.9817C1.23633 7.03425 6.86884 1.40173 13.8163 1.40173ZM13.8163 4.05015C8.33143 4.05015 3.88474 8.49684 3.88474 13.9817C3.88474 19.4666 8.33143 23.9133 13.8163 23.9133C19.3012 23.9133 23.7478 19.4666 23.7478 13.9817C23.7478 8.49684 19.3012 4.05015 13.8163 4.05015Z" fill="url(#paint0_linear_1041_6829)"/>
<path d="M14.0219 11.6977C12.7069 11.6977 11.6418 12.7628 11.6418 14.0778C11.6418 15.3929 12.7069 16.458 14.0219 16.458C15.337 16.458 16.4021 15.3929 16.4021 14.0778C16.4021 12.7628 15.337 11.6977 14.0219 11.6977ZM19.3415 13.4828C19.0678 11.0015 17.0983 9.03196 14.617 8.75824V7.53247H13.4269V8.75824C10.9456 9.03196 8.97605 11.0015 8.70233 13.4828H7.47656V14.6729H8.70233C8.97605 17.1542 10.9456 19.1237 13.4269 19.3974V20.6232H14.617V19.3974C17.0983 19.1237 19.0678 17.1542 19.3415 14.6729H20.5673V13.4828H19.3415ZM14.0219 18.2431C11.7192 18.2431 9.8567 16.3806 9.8567 14.0778C9.8567 11.7751 11.7192 9.91261 14.0219 9.91261C16.3247 9.91261 18.1872 11.7751 18.1872 14.0778C18.1872 16.3806 16.3247 18.2431 14.0219 18.2431Z" fill="url(#paint1_linear_1041_6829)"/>
<mask id="mask0_1041_6829" style="mask-type:alpha" maskUnits="userSpaceOnUse" x="1" y="1" width="30" height="30">
<path d="M13.8163 1.40149C20.7637 1.40149 26.3963 7.034 26.3963 13.9815C26.3963 16.8934 25.4071 19.5742 23.7459 21.7062L24.9224 22.8828C25.2013 22.867 25.4804 22.9105 25.7414 23.0102C26.0024 23.1099 26.2393 23.2637 26.4366 23.4615L30.1822 27.207C30.3666 27.3914 30.513 27.6104 30.6128 27.8514C30.7126 28.0924 30.764 28.3508 30.764 28.6116C30.764 28.8725 30.7126 29.1308 30.6128 29.3718C30.513 29.6128 30.3666 29.8318 30.1822 30.0163C29.9977 30.2007 29.7787 30.3471 29.5377 30.4469C29.2967 30.5467 29.0384 30.5981 28.7775 30.5981C28.5166 30.5981 28.2583 30.5467 28.0173 30.4469C27.7763 30.3471 27.5573 30.2007 27.3729 30.0163L23.6273 26.2708C23.4294 26.0733 23.2755 25.8361 23.1758 25.5749C23.0761 25.3137 23.0327 25.0343 23.0487 24.7552L21.9079 23.6144C19.6436 25.5219 16.777 26.5659 13.8163 26.5614C6.86884 26.5614 1.23633 20.9289 1.23633 13.9815C1.23633 7.034 6.86884 1.40149 13.8163 1.40149ZM13.8163 4.0499C8.33143 4.0499 3.88474 8.49659 3.88474 13.9815C3.88474 19.4663 8.33143 23.913 13.8163 23.913C19.3012 23.913 23.7478 19.4663 23.7478 13.9815C23.7478 8.49659 19.3012 4.0499 13.8163 4.0499Z" fill="url(#paint2_linear_1041_6829)"/>
</mask>
<g mask="url(#mask0_1041_6829)">
<ellipse cx="29.6983" cy="21.678" rx="9.3559" ry="7.62735" transform="rotate(84.8111 29.6983 21.678)" fill="url(#paint3_linear_1041_6829)"/>
</g>
<defs>
<linearGradient id="paint0_linear_1041_6829" x1="24.7242" y1="16" x2="2.59755" y2="0.655409" gradientUnits="userSpaceOnUse">
<stop stop-color="#2573FD"/>
<stop offset="1" stop-color="#A1C3FF"/>
</linearGradient>
<linearGradient id="paint1_linear_1041_6829" x1="17.4629" y1="20.6232" x2="11.3425" y2="8.34115" gradientUnits="userSpaceOnUse">
<stop stop-color="#A1C3FF"/>
<stop offset="1" stop-color="#2573FD"/>
</linearGradient>
<linearGradient id="paint2_linear_1041_6829" x1="32.0866" y1="25.0741" x2="4.63988" y2="25.158" gradientUnits="userSpaceOnUse">
<stop stop-color="#87C1FF"/>
<stop offset="1" stop-color="#6CA1FD" stop-opacity="0.2"/>
</linearGradient>
<linearGradient id="paint3_linear_1041_6829" x1="39.8923" y1="26.4192" x2="22.4993" y2="26.4837" gradientUnits="userSpaceOnUse">
<stop stop-color="#87C1FF"/>
<stop offset="1" stop-color="#6CA1FD" stop-opacity="0.2"/>
</linearGradient>
</defs>
</svg>
