<svg width="32" height="32" viewBox="0 0 32 32" fill="none" xmlns="http://www.w3.org/2000/svg">
<path fill-rule="evenodd" clip-rule="evenodd" d="M24.9426 15.3913C27.8478 15.3913 30.203 17.7464 30.203 20.6516V25.7807C30.203 26.2497 30.1542 26.4197 30.0625 26.5912C29.9708 26.7626 29.8362 26.8972 29.6648 26.9889C29.4933 27.0805 29.3233 27.1294 28.8543 27.1294H21.7864V22.1347C21.7864 19.6792 21.5415 18.4107 20.8351 17.09C20.5799 16.6128 20.2762 16.1737 19.9282 15.7767C20.6278 15.5241 21.4764 15.3913 22.7191 15.3913H24.9426ZM23.8906 3.81848C26.5053 3.81848 28.6249 5.93811 28.6249 8.5528C28.6249 11.1675 26.5053 13.2871 23.8906 13.2871C21.2759 13.2871 19.1562 11.1675 19.1562 8.5528C19.1562 5.93811 21.2759 3.81848 23.8906 3.81848Z" fill="url(#paint0_linear_1041_6083)"/>
<path fill-rule="evenodd" clip-rule="evenodd" d="M7.98989 15.3913H12.437C14.1213 15.3913 15.0817 15.6354 15.9389 16.0939C16.7962 16.5523 17.4689 17.2251 17.9274 18.0823C18.3858 18.9396 18.63 19.9 18.63 21.5843V28.9369C18.63 29.4059 18.5812 29.5759 18.4895 29.7474C18.3978 29.9188 18.2632 30.0534 18.0918 30.1451C17.9203 30.2368 17.7503 30.2856 17.2813 30.2856H3.14557C2.6766 30.2856 2.50654 30.2368 2.33509 30.1451C2.16364 30.0534 2.02909 29.9188 1.9374 29.7474C1.8457 29.5759 1.79688 29.4059 1.79688 28.9369L1.79688 21.5843C1.79688 19.9 2.04102 18.9396 2.49948 18.0823C2.95794 17.2251 3.63071 16.5523 4.48795 16.0939C5.34519 15.6354 6.30558 15.3913 7.98989 15.3913ZM10.2134 1.71436C7.0177 1.71436 4.42705 4.30501 4.42705 7.50074C4.42705 10.6965 7.0177 13.2871 10.2134 13.2871C13.4092 13.2871 15.9998 10.6965 15.9998 7.50074C15.9998 5.9661 15.3902 4.49431 14.305 3.40915C13.2199 2.32399 11.7481 1.71436 10.2134 1.71436Z" fill="url(#paint1_linear_1041_6083)"/>
<mask id="mask0_1041_6083" style="mask-type:alpha" maskUnits="userSpaceOnUse" x="1" y="1" width="18" height="30">
<path fill-rule="evenodd" clip-rule="evenodd" d="M7.98989 15.3913H12.437C14.1213 15.3913 15.0817 15.6354 15.9389 16.0939C16.7962 16.5523 17.4689 17.2251 17.9274 18.0823C18.3858 18.9396 18.63 19.9 18.63 21.5843V28.9369C18.63 29.4059 18.5812 29.5759 18.4895 29.7474C18.3978 29.9188 18.2632 30.0534 18.0918 30.1451C17.9203 30.2368 17.7503 30.2856 17.2813 30.2856H3.14557C2.6766 30.2856 2.50654 30.2368 2.33509 30.1451C2.16364 30.0534 2.02909 29.9188 1.9374 29.7474C1.8457 29.5759 1.79688 29.4059 1.79688 28.9369L1.79688 21.5843C1.79688 19.9 2.04102 18.9396 2.49948 18.0823C2.95794 17.2251 3.63071 16.5523 4.48795 16.0939C5.34519 15.6354 6.30558 15.3913 7.98989 15.3913ZM10.2134 1.71436C7.0177 1.71436 4.42705 4.30501 4.42705 7.50074C4.42705 10.6965 7.0177 13.2871 10.2134 13.2871C13.4092 13.2871 15.9998 10.6965 15.9998 7.50074C15.9998 5.9661 15.3902 4.49431 14.305 3.40915C13.2199 2.32399 11.7481 1.71436 10.2134 1.71436Z" fill="url(#paint2_linear_1041_6083)"/>
</mask>
<g mask="url(#mask0_1041_6083)">
<ellipse cx="18.63" cy="18.2996" rx="7.63591" ry="7.61236" fill="url(#paint3_linear_1041_6083)"/>
</g>
<defs>
<linearGradient id="paint0_linear_1041_6083" x1="24.1475" y1="-1.43288" x2="30.9584" y2="26.316" gradientUnits="userSpaceOnUse">
<stop stop-color="#A1EFFF"/>
<stop offset="0.771059" stop-color="#00AFD1"/>
</linearGradient>
<linearGradient id="paint1_linear_1041_6083" x1="17.1728" y1="4.69964" x2="16.9799" y2="29.1635" gradientUnits="userSpaceOnUse">
<stop offset="0.444081" stop-color="#00AFD1"/>
<stop offset="1" stop-color="#A1EFFF"/>
</linearGradient>
<linearGradient id="paint2_linear_1041_6083" x1="12.4376" y1="27.2854" x2="2.93603" y2="5.72369" gradientUnits="userSpaceOnUse">
<stop stop-color="#00B4D8"/>
<stop offset="1" stop-color="#1FDAFF"/>
</linearGradient>
<linearGradient id="paint3_linear_1041_6083" x1="20.6479" y1="24.9197" x2="17.0374" y2="11.5644" gradientUnits="userSpaceOnUse">
<stop stop-color="#00B4D8"/>
<stop offset="1" stop-color="#1FDAFF"/>
</linearGradient>
</defs>
</svg>
