<svg width="32" height="32" viewBox="0 0 32 32" fill="none" xmlns="http://www.w3.org/2000/svg">
<path fill-rule="evenodd" clip-rule="evenodd" d="M21.8858 8.60847C21.8785 7.44191 21.6131 6.2913 21.1083 5.23864C20.6036 4.18599 19.8719 3.25721 18.9656 2.51849L17.9552 7.14889L16.783 6.9073L17.8642 1.78366C16.6402 1.06279 15.2443 0.682495 13.8224 0.682495C12.4005 0.682495 11.0046 1.06279 9.78062 1.78366L10.8517 6.81671L9.67957 7.0583L8.77017 2.51849C7.8854 3.2591 7.17377 4.18337 6.68506 5.22662C6.19636 6.26986 5.94238 7.40689 5.94091 8.55814H4.48587V10.5714H6.34509C6.44542 12.5062 7.28762 14.3288 8.69784 15.663C10.1081 16.9972 11.9786 17.741 13.9235 17.741C15.8683 17.741 17.7389 16.9972 19.1491 15.663C20.5593 14.3288 21.4015 12.5062 21.5018 10.5714H23.3408V8.60847H21.8858ZM13.9134 16.46C12.3438 16.46 10.8382 15.8403 9.7264 14.7365C8.61463 13.6327 7.98737 12.135 7.98202 10.5714H19.8447C19.8393 12.135 19.2121 13.6327 18.1003 14.7365C16.9886 15.8403 15.4829 16.46 13.9134 16.46Z" fill="url(#paint0_linear_1041_5040)"/>
<path d="M14.9945 24.4928L14.8026 20.9193H15.1158L15.5806 18.6041H12.2461L12.7109 20.9193H13.0242L12.8322 24.4928C12.0202 22.0705 10.9498 19.742 9.63916 17.5472C1.85871 18.5538 0.393555 22.6507 0.393555 27.6133H19.0565C18.7728 26.853 18.6257 26.0488 18.6221 25.2377C18.6205 23.869 19.032 22.5315 19.8032 21.3988C20.5745 20.2661 21.6697 19.3906 22.9468 18.886C21.4449 18.188 19.8362 17.7457 18.1876 17.5774C16.8789 19.7626 15.8085 22.0809 14.9945 24.4928Z" fill="url(#paint1_linear_1041_5040)"/>
<mask id="mask0_1041_5040" style="mask-type:alpha" maskUnits="userSpaceOnUse" x="0" y="0" width="24" height="28">
<path fill-rule="evenodd" clip-rule="evenodd" d="M21.8858 8.60847C21.8785 7.44191 21.6131 6.2913 21.1083 5.23864C20.6036 4.18599 19.8719 3.25721 18.9656 2.51849L17.9552 7.14889L16.783 6.9073L17.8642 1.78366C16.6402 1.06279 15.2443 0.682495 13.8224 0.682495C12.4005 0.682495 11.0046 1.06279 9.78062 1.78366L10.8517 6.81671L9.67957 7.0583L8.77017 2.51849C7.8854 3.2591 7.17377 4.18337 6.68506 5.22662C6.19636 6.26986 5.94238 7.40689 5.94091 8.55814H4.48587V10.5714H6.34509C6.44542 12.5062 7.28762 14.3288 8.69784 15.663C10.1081 16.9972 11.9786 17.741 13.9235 17.741C15.8683 17.741 17.7389 16.9972 19.1491 15.663C20.5593 14.3288 21.4015 12.5062 21.5018 10.5714H23.3408V8.60847H21.8858ZM13.9134 16.46C12.3438 16.46 10.8382 15.8403 9.7264 14.7365C8.61463 13.6327 7.98737 12.135 7.98202 10.5714H19.8447C19.8393 12.135 19.2121 13.6327 18.1003 14.7365C16.9886 15.8403 15.4829 16.46 13.9134 16.46Z" fill="url(#paint2_linear_1041_5040)"/>
<path d="M14.9945 24.4928L14.8026 20.9193H15.1158L15.5806 18.6041H12.2461L12.7109 20.9193H13.0242L12.8322 24.4928C12.0202 22.0705 10.9498 19.742 9.63916 17.5472C1.85871 18.5538 0.393555 22.6507 0.393555 27.6133H19.0565C18.7728 26.853 18.6257 26.0488 18.6221 25.2377C18.6205 23.869 19.032 22.5315 19.8032 21.3988C20.5745 20.2661 21.6697 19.3906 22.9468 18.886C21.4449 18.188 19.8362 17.7457 18.1876 17.5774C16.8789 19.7626 15.8085 22.0809 14.9945 24.4928Z" fill="url(#paint3_linear_1041_5040)"/>
</mask>
<g mask="url(#mask0_1041_5040)">
<ellipse cx="3.12379" cy="25.2074" rx="11.7808" ry="9.70183" transform="rotate(69.0719 3.12379 25.2074)" fill="url(#paint4_linear_1041_5040)"/>
</g>
<path fill-rule="evenodd" clip-rule="evenodd" d="M25.653 23.5484C24.6537 23.5484 23.8437 24.3585 23.8437 25.3577C23.8437 26.3569 24.6537 27.167 25.653 27.167C26.6522 27.167 27.4622 26.3569 27.4622 25.3577C27.4622 24.3585 26.6522 23.5484 25.653 23.5484ZM25.653 26.5639C26.3191 26.5639 26.8591 26.0238 26.8591 25.3577C26.8591 24.6916 26.3191 24.1515 25.653 24.1515C24.9868 24.1515 24.4468 24.6916 24.4468 25.3577C24.4468 26.0238 24.9868 26.5639 25.653 26.5639Z" fill="url(#paint5_linear_1041_5040)"/>
<path fill-rule="evenodd" clip-rule="evenodd" d="M25.4834 19.0973C24.2699 19.0953 23.083 19.452 22.0731 20.1221C21.0631 20.7923 20.2754 21.7459 19.8096 22.8622C19.3439 23.9785 19.221 25.2074 19.4565 26.3933C19.692 27.5792 20.2753 28.6688 21.1327 29.5244C21.9901 30.3799 23.0829 30.9628 24.273 31.1994C25.463 31.436 26.6968 31.3156 27.8181 30.8534C28.9394 30.3912 29.8979 29.6081 30.5723 28.6031C31.2467 27.598 31.6067 26.4163 31.6067 25.2074C31.6067 23.5887 30.9619 22.036 29.8138 20.8905C28.6658 19.7449 27.1083 19.1 25.4834 19.0973ZM25.653 22.3422C27.1272 22.3422 28.4425 23.2726 29.5958 25.0901C29.6466 25.1701 29.6736 25.2629 29.6736 25.3577C29.6736 25.4525 29.6466 25.5453 29.5958 25.6253C28.4425 27.4428 27.1272 28.3732 25.653 28.3732C24.1787 28.3732 22.8634 27.4428 21.7101 25.6253C21.6593 25.5453 21.6323 25.4525 21.6323 25.3577C21.6323 25.2629 21.6593 25.1701 21.7101 25.0901C22.8634 23.2726 24.1787 22.3422 25.653 22.3422Z" fill="url(#paint6_linear_1041_5040)"/>
<defs>
<linearGradient id="paint0_linear_1041_5040" x1="13.1693" y1="27.6133" x2="5.86448" y2="1.37794" gradientUnits="userSpaceOnUse">
<stop stop-color="#FC4FD0"/>
<stop offset="1" stop-color="#FEA5E8"/>
</linearGradient>
<linearGradient id="paint1_linear_1041_5040" x1="13.1693" y1="27.6133" x2="5.86448" y2="1.37794" gradientUnits="userSpaceOnUse">
<stop stop-color="#FC4FD0"/>
<stop offset="1" stop-color="#FEA5E8"/>
</linearGradient>
<linearGradient id="paint2_linear_1041_5040" x1="-3.56267" y1="21.8008" x2="2.36834" y2="26.3186" gradientUnits="userSpaceOnUse">
<stop stop-color="#FFABEA"/>
<stop offset="1" stop-color="#FD68D8"/>
</linearGradient>
<linearGradient id="paint3_linear_1041_5040" x1="-3.56267" y1="21.8008" x2="2.36834" y2="26.3186" gradientUnits="userSpaceOnUse">
<stop stop-color="#FFABEA"/>
<stop offset="1" stop-color="#FD68D8"/>
</linearGradient>
<linearGradient id="paint4_linear_1041_5040" x1="-12.7191" y1="30.7214" x2="-8.30145" y2="35.5168" gradientUnits="userSpaceOnUse">
<stop stop-color="#FFABEA"/>
<stop offset="1" stop-color="#FD68D8"/>
</linearGradient>
<linearGradient id="paint5_linear_1041_5040" x1="31.6067" y1="27.9641" x2="19.8917" y2="18.8938" gradientUnits="userSpaceOnUse">
<stop stop-color="#FC4FD0"/>
<stop offset="1" stop-color="#FEA5E8"/>
</linearGradient>
<linearGradient id="paint6_linear_1041_5040" x1="31.6067" y1="27.9641" x2="19.8917" y2="18.8938" gradientUnits="userSpaceOnUse">
<stop stop-color="#FC4FD0"/>
<stop offset="1" stop-color="#FEA5E8"/>
</linearGradient>
</defs>
</svg>
