<svg width="32" height="32" viewBox="0 0 32 32" fill="none" xmlns="http://www.w3.org/2000/svg">
<g clip-path="url(#clip0_1041_6187)">
<path d="M30.2011 16.3172L30.198 16.3141H30.1544C30.1451 16.3141 30.1327 16.311 30.1202 16.311C30.1109 16.311 30.0985 16.3141 30.086 16.3141H25.1972V3.51588C25.1972 1.8519 23.9469 0.620239 22.286 0.620239H9.71339C8.05562 0.620239 6.80219 1.8519 6.80219 3.51588V16.3141H1.84182C1.57745 16.3141 1.39394 16.3856 1.39394 16.3856C0.635041 16.5971 0.0751953 17.2876 0.0751953 18.118C0.0751953 18.5752 0.249369 18.9858 0.526182 19.303L13.1973 30.3973C13.9656 31.01 14.9391 31.3801 15.9997 31.3801C17.0665 31.3801 18.0493 31.0069 18.8207 30.3818L31.4981 19.275C31.7593 18.9609 31.9242 18.5597 31.9242 18.118C31.9242 17.1476 31.159 16.3607 30.2011 16.3172Z" fill="url(#paint0_linear_1041_6187)"/>
<mask id="mask0_1041_6187" style="mask-type:alpha" maskUnits="userSpaceOnUse" x="0" y="0" width="32" height="32">
<path d="M30.2011 16.3172L30.198 16.3141H30.1544C30.1451 16.3141 30.1327 16.311 30.1202 16.311C30.1109 16.311 30.0985 16.3141 30.086 16.3141H25.1972V3.51588C25.1972 1.8519 23.9469 0.620239 22.286 0.620239H9.71339C8.05562 0.620239 6.80219 1.8519 6.80219 3.51588V16.3141H1.84182C1.57745 16.3141 1.39394 16.3856 1.39394 16.3856C0.635041 16.5971 0.0751953 17.2876 0.0751953 18.118C0.0751953 18.5752 0.249369 18.9858 0.526182 19.303L13.1973 30.3973C13.9656 31.01 14.9391 31.3801 15.9997 31.3801C17.0665 31.3801 18.0493 31.0069 18.8207 30.3818L31.4981 19.275C31.7593 18.9609 31.9242 18.5597 31.9242 18.118C31.9242 17.1476 31.159 16.3607 30.2011 16.3172Z" fill="url(#paint1_linear_1041_6187)"/>
</mask>
<g mask="url(#mask0_1041_6187)">
<ellipse cx="25.1126" cy="16.6956" rx="17.0303" ry="12.6489" transform="rotate(-65.3019 25.1126 16.6956)" fill="url(#paint2_linear_1041_6187)"/>
</g>
<path d="M11.2637 9.72754L13.922 14.3021H11.5472V16.0743H15.1109V17.845H11.5472V19.6157H15.1109L15.1124 22.2726H16.895L16.8935 19.6157H20.4602V17.845H16.8935V16.0743H20.4602V14.3021H18.078L20.7363 9.72754H18.6776L16.0193 14.3021H15.9807L13.3194 9.72754H11.2637Z" fill="#E8F2FE"/>
</g>
<defs>
<linearGradient id="paint0_linear_1041_6187" x1="20.0326" y1="28.5382" x2="9.79808" y2="-0.220264" gradientUnits="userSpaceOnUse">
<stop offset="0.513045" stop-color="#2573FD"/>
<stop offset="1" stop-color="#A1C3FF"/>
</linearGradient>
<linearGradient id="paint1_linear_1041_6187" x1="29.4733" y1="31.3801" x2="3.46842" y2="28.3091" gradientUnits="userSpaceOnUse">
<stop stop-color="#6CA1FD" stop-opacity="0.2"/>
<stop offset="1" stop-color="#87C1FF"/>
</linearGradient>
<linearGradient id="paint2_linear_1041_6187" x1="39.5218" y1="29.3445" x2="11.9729" y2="25.1139" gradientUnits="userSpaceOnUse">
<stop stop-color="#6CA1FD" stop-opacity="0.2"/>
<stop offset="1" stop-color="#87C1FF"/>
</linearGradient>
<clipPath id="clip0_1041_6187">
<rect width="32" height="32" fill="white"/>
</clipPath>
</defs>
</svg>
