<svg width="32" height="32" viewBox="0 0 32 32" fill="none" xmlns="http://www.w3.org/2000/svg">
<path d="M1.63553 26.1182C3.18002 11.1053 3.95286 4.05747 3.95286 4.97432C4.05148 3.75614 5.16755 2.81119 6.51833 2.80176H13.9514C14.4641 2.80176 14.8937 3.18947 14.9462 3.69946L17.455 28.0959C17.5156 28.6856 17.053 29.1982 16.4602 29.1982H4.22856C2.04093 29.1982 1.27767 28.4384 1.63553 26.1182Z" fill="url(#paint0_linear_1041_6056)"/>
<path d="M6.36352 15.0892C5.85374 15.0902 5.44121 15.5043 5.44216 16.0141C5.44311 16.5239 5.85717 16.9363 6.36695 16.9354L12.7552 16.923C13.265 16.922 13.6775 16.5079 13.6765 15.9981C13.6756 15.4883 13.2615 15.0759 12.7517 15.0769L6.36352 15.0892Z" fill="#E8F2FE"/>
<path d="M25.6731 2.80249C27.0103 2.80249 28.1266 3.72294 28.2526 4.92586L29.1331 13.648C29.1925 14.237 28.7301 14.7484 28.1381 14.7484H19.6261C19.1128 14.7484 18.6829 14.3598 18.6312 13.849L17.6255 3.9037C17.5659 3.31467 18.0283 2.80313 18.6203 2.80308L25.6731 2.80249Z" fill="url(#paint1_linear_1041_6056)"/>
<path d="M30.4388 26.6449C30.504 27.2996 30.2612 27.9498 29.7708 28.4352C29.2806 28.9203 28.5868 29.1974 27.8595 29.1983H21.0658C20.5523 29.1983 20.1223 28.8094 20.0708 28.2985L19.0647 18.304C19.0054 17.7151 19.4678 17.2039 20.0597 17.2039H28.5848C29.0983 17.2039 29.5283 17.5928 29.5797 18.1038L30.4388 26.6449Z" fill="url(#paint2_linear_1041_6056)"/>
<defs>
<linearGradient id="paint0_linear_1041_6056" x1="2.47353" y1="28.1856" x2="24.1784" y2="14.0541" gradientUnits="userSpaceOnUse">
<stop offset="0.505078" stop-color="#2573FD"/>
<stop offset="1" stop-color="#A1C3FF"/>
</linearGradient>
<linearGradient id="paint1_linear_1041_6056" x1="18.1897" y1="14.2902" x2="28.2577" y2="1.6553" gradientUnits="userSpaceOnUse">
<stop offset="0.204747" stop-color="#2573FD"/>
<stop offset="1" stop-color="#A1C3FF"/>
</linearGradient>
<linearGradient id="paint2_linear_1041_6056" x1="19.616" y1="28.7382" x2="29.2636" y2="19.7927" gradientUnits="userSpaceOnUse">
<stop stop-color="#A1C3FF"/>
<stop offset="0.898314" stop-color="#2573FD"/>
</linearGradient>
</defs>
</svg>
