<svg width="32" height="32" viewBox="0 0 32 32" fill="none" xmlns="http://www.w3.org/2000/svg">
<path d="M12.8494 1.39465C17.9185 1.39465 21.7653 3.47852 21.7655 6.23617C21.7655 7.4626 21.0084 8.50237 19.7254 9.36261C20.4849 10.3432 21.1812 12.8292 21.8822 14.0555C20.7162 14.1785 19.8448 15.2209 19.8446 16.5086V28.4586H19.8421C19.8421 29.1933 20.1926 29.8669 20.7159 30.3585C20.1924 30.5428 19.6104 30.6053 19.0261 30.6053H6.67015C4.45455 30.6053 2.35601 29.5009 1.13369 27.6624C-0.0324999 25.9444 -0.324482 23.8627 0.376647 21.8399C1.95177 17.2441 3.81635 12.1824 5.97333 9.30186C4.69043 8.44419 3.93348 7.40167 3.93326 6.17543C3.93326 3.41771 7.77783 1.39468 12.8494 1.39465ZM10.5893 18.486H8.57872V20.0641H11.5958V21.6409H8.57872V23.2177H11.5958L11.597 25.5842H13.1062L13.105 23.2177H16.1258V21.6409H13.105V20.0641H16.1258V18.486H14.109L16.3593 14.4122H14.6166L12.3651 18.486H12.3332L10.0793 14.4122H8.33785L10.5893 18.486Z" fill="url(#paint0_linear_1041_6174)"/>
<mask id="mask0_1041_6174" style="mask-type:alpha" maskUnits="userSpaceOnUse" x="0" y="1" width="22" height="30">
<path d="M12.8494 1.39465C17.9185 1.39465 21.7653 3.47852 21.7655 6.23617C21.7655 7.4626 21.0084 8.50237 19.7254 9.36261C20.4849 10.3432 21.1812 12.8292 21.8822 14.0555C20.7162 14.1785 19.8448 15.2209 19.8446 16.5086V28.4586H19.8421C19.8421 29.1933 20.1926 29.8669 20.7159 30.3585C20.1924 30.5428 19.6104 30.6053 19.0261 30.6053H6.67015C4.45455 30.6053 2.35601 29.5009 1.13369 27.6624C-0.0324999 25.9444 -0.324482 23.8627 0.376647 21.8399C1.95177 17.2441 3.81635 12.1824 5.97333 9.30186C4.69043 8.44419 3.93348 7.40167 3.93326 6.17543C3.93326 3.41771 7.77783 1.39468 12.8494 1.39465ZM10.5893 18.486H8.57872V20.0641H11.5958V21.6409H8.57872V23.2177H11.5958L11.597 25.5841H13.1062L13.105 23.2177H16.1258V21.6409H13.105V20.0641H16.1258V18.486H14.109L16.3593 14.4122H14.6166L12.3651 18.486H12.3332L10.0793 14.4122H8.33785L10.5893 18.486Z" fill="url(#paint1_linear_1041_6174)"/>
</mask>
<g mask="url(#mask0_1041_6174)">
<ellipse cx="9.09568" cy="11.8864" rx="9.09568" ry="11.8864" transform="matrix(0.662392 0.749158 -0.714963 0.699162 7.03613 5.98425)" fill="url(#paint2_linear_1041_6174)"/>
</g>
<path d="M30.5492 15.0361H22.4191C22.0502 15.0437 21.6983 15.2139 21.4375 15.511C21.1766 15.8081 21.0272 16.2088 21.0205 16.6288V28.5815C21.0205 29.4393 21.668 30.1742 22.4191 30.1742H30.5989C31.3543 30.1742 31.9996 29.4393 31.9996 28.5815V16.5674C31.9698 16.1514 31.8041 15.7632 31.5351 15.4797C31.2662 15.1961 30.9136 15.0378 30.5471 15.0361H30.5492Z" fill="url(#paint3_linear_1041_6174)"/>
<path d="M24.4385 27.6318C24.2819 27.6299 24.1321 27.558 24.0215 27.4315C23.9109 27.3051 23.8483 27.1343 23.8472 26.9559C23.8472 26.5872 24.1148 26.2824 24.4385 26.2824C24.7623 26.2824 25.0299 26.5897 25.0299 26.9559C25.0299 27.3246 24.7623 27.6318 24.4385 27.6318ZM24.4385 25.609C24.2819 25.607 24.1321 25.5351 24.0215 25.4087C23.9109 25.2823 23.8483 25.1115 23.8472 24.9331C23.8472 24.5644 24.1148 24.2596 24.4385 24.2596C24.7623 24.2596 25.0299 24.5668 25.0299 24.9331C25.0299 25.3017 24.7623 25.609 24.4385 25.609ZM26.4846 27.6318C26.3275 27.6305 26.1772 27.5589 26.0661 27.4324C25.9551 27.3059 25.8922 27.1347 25.891 26.9559C25.891 26.5872 26.1608 26.2824 26.4846 26.2824C26.8083 26.2824 27.0759 26.5897 27.0759 26.9559C27.0759 27.3246 26.8062 27.6318 26.4846 27.6318ZM26.4846 25.609C26.3275 25.6077 26.1772 25.5361 26.0661 25.4096C25.9551 25.2831 25.8922 25.1119 25.891 24.9331C25.891 24.5644 26.1608 24.2596 26.4846 24.2596C26.8083 24.2596 27.0759 24.5668 27.0759 24.9331C27.0759 25.3017 26.8062 25.609 26.4846 25.609ZM28.5284 27.6318C28.3718 27.6299 28.222 27.558 28.1114 27.4315C28.0008 27.3051 27.9382 27.1343 27.9371 26.9559C27.9371 26.5872 28.2069 26.2824 28.5284 26.2824C28.8522 26.2824 29.1198 26.5897 29.1198 26.9559C29.1198 27.3246 28.8522 27.6318 28.5284 27.6318ZM28.5284 25.609C28.3718 25.607 28.222 25.5351 28.1114 25.4087C28.0008 25.2823 27.9382 25.1115 27.9371 24.9331C27.9371 24.5644 28.2069 24.2596 28.5284 24.2596C28.8522 24.2596 29.1198 24.5668 29.1198 24.9331C29.1198 25.3017 28.8522 25.609 28.5284 25.609ZM29.4975 21.7477C29.4975 22.1163 29.2817 22.3621 28.9579 22.3621H24.063C23.7393 22.3621 23.5234 22.1163 23.5234 21.7477V18.1936C23.5234 17.8249 23.7393 17.5791 24.063 17.5791H28.9601C29.2838 17.5791 29.4975 17.8249 29.4975 18.1936V21.7477Z" fill="#F0F2FE"/>
<defs>
<linearGradient id="paint0_linear_1041_6174" x1="12.0978" y1="18.1425" x2="1.58685" y2="2.68266" gradientUnits="userSpaceOnUse">
<stop stop-color="#4F5DFC"/>
<stop offset="1" stop-color="#A5ACFE"/>
</linearGradient>
<linearGradient id="paint1_linear_1041_6174" x1="10.4594" y1="11.5974" x2="12.9632" y2="30.7362" gradientUnits="userSpaceOnUse">
<stop stop-color="#8791FF"/>
<stop offset="1" stop-color="#6C78FD" stop-opacity="0.5"/>
</linearGradient>
<linearGradient id="paint2_linear_1041_6174" x1="8.69518" y1="7.56924" x2="10.882" y2="23.8703" gradientUnits="userSpaceOnUse">
<stop stop-color="#9BA3FE"/>
<stop offset="1" stop-color="#6C78FD" stop-opacity="0.5"/>
</linearGradient>
<linearGradient id="paint3_linear_1041_6174" x1="27.0905" y1="23.4089" x2="21.2331" y2="15.4463" gradientUnits="userSpaceOnUse">
<stop stop-color="#4F5DFC"/>
<stop offset="1" stop-color="#A5ACFE"/>
</linearGradient>
</defs>
</svg>
