<svg width="32" height="32" viewBox="0 0 32 32" fill="none" xmlns="http://www.w3.org/2000/svg">
<g clip-path="url(#clip0_1041_6145)">
<path d="M13.2766 23.8674C13.2766 19.4475 16.3132 15.7348 20.4217 14.4972C20.6003 14.1436 20.6003 13.7901 20.779 13.4365C20.9576 13.4365 21.1362 13.2597 21.3149 13.0829C21.4935 12.9061 21.6721 12.7293 21.8507 12.3757C22.0294 12.1989 22.0294 11.6685 22.208 11.3149V10.4309C22.208 10.2541 22.0294 10.0773 22.0294 9.90055C22.0294 9.72376 21.8507 9.54696 21.6721 9.54696C21.6721 8.66298 21.6721 7.77901 21.4935 6.89503C21.3149 6.18785 21.1362 5.30387 20.9576 4.59668C20.779 3.71271 20.2431 3.00552 19.7072 2.29834C19.5286 2.12155 19.1713 1.76796 18.8141 1.59116C18.4568 1.23757 17.9209 1.06077 17.385 0.707182C16.8491 0.530387 16.3132 0.353591 15.5987 0.176796C15.0628 0 14.3483 0 13.8124 0C13.2766 0 12.7407 0 12.2048 0.176796C11.6689 0.176796 11.133 0.353591 10.5971 0.530387C10.2399 0.707182 9.70398 1.06077 9.1681 1.41436C8.63221 1.76796 8.27495 2.29834 7.73907 2.82873C7.38181 3.53591 7.02455 4.0663 6.84592 4.95028C6.48866 5.65746 6.48866 6.36464 6.31004 7.07182C6.31004 7.9558 6.13141 8.66298 6.13141 9.54696C5.95278 9.72376 5.95278 9.90055 5.77415 10.2541C5.77415 10.4309 5.59552 10.7845 5.59552 10.9613C5.59552 11.3149 5.59552 11.6685 5.77415 12.0221C5.95278 12.3757 5.95278 12.7293 6.13141 12.9061C6.31004 13.0829 6.48866 13.2597 6.48866 13.4365C6.66729 13.6133 6.84592 13.6133 7.02455 13.6133C7.02455 13.7901 7.20318 14.1436 7.38181 14.4972C7.56044 14.8508 7.56044 15.0276 7.73907 15.3812C7.91769 15.7348 8.09632 15.9116 8.27495 16.0884C8.63221 16.442 8.98947 16.6188 9.34672 16.9724C9.70398 17.326 9.88261 17.6796 9.88261 18.2099V19.0939C9.88261 19.4475 9.88261 19.6243 9.70398 19.8011C9.52535 19.9779 9.34672 20.3315 9.1681 20.5083C8.81084 20.6851 8.45358 20.8619 7.91769 21.2155C7.38181 21.5691 6.66729 21.9227 5.95278 22.0994C5.23826 22.2762 4.52375 22.453 3.80923 22.8066C3.09472 22.9834 2.55883 23.337 2.02294 23.8674C1.48706 24.221 1.1298 24.9282 1.1298 25.6354C0.951172 27.0497 0.951172 28.1105 0.951172 28.9945C1.1298 29.8785 1.30843 30.4088 1.48706 30.5856C1.66569 30.7624 1.84432 30.7624 2.3802 30.9392C2.91609 31.116 3.45197 31.116 4.16649 31.2928C4.88101 31.4696 5.59552 31.4696 6.48866 31.6464C7.38181 31.8232 8.27495 31.8232 9.1681 31.8232C10.0612 31.8232 10.9544 32 11.6689 32H15.956C16.3132 32 16.8491 32 17.385 31.8232C14.8842 29.8785 13.2766 27.0497 13.2766 23.8674Z" fill="url(#paint0_linear_1041_6145)"/>
<mask id="mask0_1041_6145" style="mask-type:alpha" maskUnits="userSpaceOnUse" x="0" y="0" width="23" height="32">
<path d="M13.2775 23.8674C13.2775 19.4475 16.3142 15.7348 20.4227 14.4972C20.6013 14.1436 20.6013 13.7901 20.7799 13.4365C20.9586 13.4365 21.1372 13.2597 21.3158 13.0829C21.4945 12.9061 21.6731 12.7293 21.8517 12.3757C22.0303 12.1989 22.0303 11.6685 22.209 11.3149V10.4309C22.209 10.2541 22.0303 10.0773 22.0303 9.90055C22.0303 9.72376 21.8517 9.54696 21.6731 9.54696C21.6731 8.66298 21.6731 7.77901 21.4945 6.89503C21.3158 6.18785 21.1372 5.30387 20.9586 4.59668C20.7799 3.71271 20.2441 3.00552 19.7082 2.29834C19.5295 2.12155 19.1723 1.76796 18.815 1.59116C18.4578 1.23757 17.9219 1.06077 17.386 0.707182C16.8501 0.530387 16.3142 0.353591 15.5997 0.176796C15.0638 0 14.3493 0 13.8134 0C13.2775 0 12.7416 0 12.2058 0.176796C11.6699 0.176796 11.134 0.353591 10.5981 0.530387C10.2408 0.707182 9.70496 1.06077 9.16907 1.41436C8.63319 1.76796 8.27593 2.29834 7.74004 2.82873C7.38278 3.53591 7.02553 4.0663 6.8469 4.95028C6.48964 5.65746 6.48964 6.36464 6.31101 7.07182C6.31101 7.9558 6.13238 8.66298 6.13238 9.54696C5.95375 9.72376 5.95375 9.90055 5.77513 10.2541C5.77513 10.4309 5.5965 10.7845 5.5965 10.9613C5.5965 11.3149 5.5965 11.6685 5.77513 12.0221C5.95375 12.3757 5.95375 12.7293 6.13238 12.9061C6.31101 13.0829 6.48964 13.2597 6.48964 13.4365C6.66827 13.6133 6.8469 13.6133 7.02553 13.6133C7.02553 13.7901 7.20416 14.1436 7.38278 14.4972C7.56141 14.8508 7.56141 15.0276 7.74004 15.3812C7.91867 15.7348 8.0973 15.9116 8.27593 16.0884C8.63319 16.442 8.99044 16.6188 9.3477 16.9724C9.70496 17.326 9.88359 17.6796 9.88359 18.2099V19.0939C9.88359 19.4475 9.88359 19.6243 9.70496 19.8011C9.52633 19.9779 9.3477 20.3315 9.16907 20.5083C8.81181 20.6851 8.45456 20.8619 7.91867 21.2155C7.38278 21.5691 6.66827 21.9227 5.95375 22.0994C5.23924 22.2762 4.52472 22.453 3.81021 22.8066C3.09569 22.9834 2.55981 23.337 2.02392 23.8674C1.48803 24.221 1.13078 24.9282 1.13078 25.6354C0.952148 27.0497 0.952148 28.1105 0.952148 28.9945C1.13078 29.8785 1.30941 30.4088 1.48803 30.5856C1.66666 30.7624 1.84529 30.7624 2.38118 30.9392C2.91707 31.116 3.45295 31.116 4.16747 31.2928C4.88198 31.4696 5.5965 31.4696 6.48964 31.6464C7.38278 31.8232 8.27593 31.8232 9.16907 31.8232C10.0622 31.8232 10.9554 32 11.6699 32H15.957C16.3142 32 16.8501 32 17.386 31.8232C14.8852 29.8785 13.2775 27.0497 13.2775 23.8674Z" fill="url(#paint1_linear_1041_6145)"/>
</mask>
<g mask="url(#mask0_1041_6145)">
<ellipse cx="1.67652" cy="26.5445" rx="12.3077" ry="12.4353" transform="rotate(-90 1.67652 26.5445)" fill="url(#paint2_linear_1041_6145)"/>
</g>
<path d="M23.0925 15.9116C18.6726 15.9116 15.1367 19.4475 15.1367 23.8674C15.1367 28.2873 18.6726 31.8232 23.0925 31.8232C27.5124 31.8232 31.0483 28.2873 31.0483 23.8674C31.0483 19.4475 27.3356 15.9116 23.0925 15.9116Z" fill="url(#paint3_linear_1041_6145)"/>
<path d="M20.0303 19.8119L21.7491 22.7696H20.2136V23.9155H22.5178V25.0604H20.2136V26.2053H22.5178L22.5187 27.9231H23.6713L23.6703 26.2053H25.9764V25.0604H23.6703V23.9155H25.9764V22.7696H24.4361L26.1549 19.8119H24.8239L23.1051 22.7696H23.0801L21.3594 19.8119H20.0303Z" fill="#E8F2FE"/>
</g>
<defs>
<linearGradient id="paint0_linear_1041_6145" x1="14.2713" y1="29.0435" x2="-0.0267535" y2="3.26774" gradientUnits="userSpaceOnUse">
<stop offset="0.513045" stop-color="#2573FD"/>
<stop offset="1" stop-color="#A1C3FF"/>
</linearGradient>
<linearGradient id="paint1_linear_1041_6145" x1="14.2722" y1="29.0435" x2="-0.0257769" y2="3.26774" gradientUnits="userSpaceOnUse">
<stop offset="0.513045" stop-color="#2573FD"/>
<stop offset="1" stop-color="#A1C3FF"/>
</linearGradient>
<linearGradient id="paint2_linear_1041_6145" x1="13.9842" y1="27.7483" x2="-3.48144" y2="37.7306" gradientUnits="userSpaceOnUse">
<stop stop-color="#6CA1FD" stop-opacity="0.2"/>
<stop offset="1" stop-color="#87C1FF"/>
</linearGradient>
<linearGradient id="paint3_linear_1041_6145" x1="25.1074" y1="30.3532" x2="19.6698" y2="15.5964" gradientUnits="userSpaceOnUse">
<stop offset="0.513045" stop-color="#2573FD"/>
<stop offset="1" stop-color="#A1C3FF"/>
</linearGradient>
<clipPath id="clip0_1041_6145">
<rect width="32" height="32" fill="white"/>
</clipPath>
</defs>
</svg>
