<svg width="32" height="32" viewBox="0 0 32 32" fill="none" xmlns="http://www.w3.org/2000/svg">
<path d="M23.3608 1.23071C23.8757 1.23071 24.3681 1.45216 24.7254 1.84452L30.2358 7.88304C30.6283 8.31404 30.8203 8.90779 30.7599 9.50302L28.9085 28.9679C28.8594 29.4613 28.6394 29.9182 28.2908 30.2507C27.9422 30.5832 27.4896 30.7679 27.0199 30.7692H4.97967C4.5101 30.7681 4.05748 30.5837 3.70875 30.2515C3.36002 29.9193 3.13978 29.4627 3.09035 28.9694L1.23971 9.50525C1.20946 9.21082 1.2407 8.91296 1.33124 8.63268C1.42179 8.35239 1.56942 8.0965 1.76374 7.88304L7.27415 1.84452C7.45087 1.65056 7.6628 1.49624 7.89726 1.39078C8.13173 1.28531 8.38391 1.23087 8.63874 1.23071H23.3608ZM21.2719 3.34858H10.7284C10.1797 3.34858 9.65497 3.58489 9.27514 4.00326L5.56402 8.08962C5.47318 8.18999 5.4122 8.31631 5.38865 8.45293C5.3651 8.58954 5.38001 8.73046 5.43152 8.85822C5.48304 8.98597 5.5689 9.09495 5.67847 9.17166C5.78804 9.24837 5.91651 9.28942 6.04795 9.28975H25.9516C26.0831 9.28942 26.2115 9.24837 26.3211 9.17166C26.4307 9.09495 26.5165 8.98597 26.568 8.85822C26.6196 8.73046 26.6345 8.58954 26.6109 8.45293C26.5874 8.31631 26.5264 8.18999 26.4355 8.08962L22.7251 4.00252C22.5371 3.79548 22.3113 3.63076 22.0615 3.51825C21.8116 3.40575 21.5435 3.34852 21.2719 3.34858Z" fill="url(#paint0_linear_1041_6292)"/>
<mask id="mask0_1041_6292" style="mask-type:alpha" maskUnits="userSpaceOnUse" x="1" y="1" width="30" height="30">
<path d="M23.3608 1.23071C23.8757 1.23071 24.3681 1.45216 24.7254 1.84452L30.2358 7.88304C30.6283 8.31404 30.8203 8.90779 30.7599 9.50302L28.9085 28.9679C28.8594 29.4613 28.6394 29.9182 28.2908 30.2507C27.9422 30.5832 27.4896 30.7679 27.0199 30.7692H4.97967C4.5101 30.7681 4.05748 30.5837 3.70875 30.2515C3.36002 29.9193 3.13978 29.4627 3.09035 28.9694L1.23971 9.50525C1.20946 9.21082 1.2407 8.91296 1.33124 8.63268C1.42179 8.35239 1.56942 8.0965 1.76374 7.88304L7.27415 1.84452C7.45087 1.65056 7.6628 1.49624 7.89726 1.39078C8.13173 1.28531 8.38391 1.23087 8.63874 1.23071H23.3608ZM21.2719 3.34858H10.7284C10.1797 3.34858 9.65497 3.58489 9.27514 4.00326L5.56402 8.08962C5.47318 8.18999 5.4122 8.31631 5.38865 8.45293C5.3651 8.58954 5.38001 8.73046 5.43152 8.85822C5.48304 8.98597 5.5689 9.09495 5.67847 9.17166C5.78804 9.24837 5.91651 9.28942 6.04795 9.28975H25.9516C26.0831 9.28942 26.2115 9.24837 26.3211 9.17166C26.4307 9.09495 26.5165 8.98597 26.568 8.85822C26.6196 8.73046 26.6345 8.58954 26.6109 8.45293C26.5874 8.31631 26.5264 8.18999 26.4355 8.08962L22.7251 4.00252C22.5371 3.79548 22.3113 3.63076 22.0615 3.51825C21.8116 3.40575 21.5435 3.34852 21.2719 3.34858Z" fill="url(#paint1_linear_1041_6292)"/>
</mask>
<g mask="url(#mask0_1041_6292)">
<ellipse cx="23.1374" cy="24.3252" rx="13.6748" ry="9.78608" transform="rotate(-9.45295 23.1374 24.3252)" fill="url(#paint2_linear_1041_6292)"/>
</g>
<path d="M12.7263 13.8041C13.0347 13.5082 13.4847 13.4533 13.8465 13.6335C14.1817 13.7903 14.4147 14.1296 14.4151 14.5241V23.9352C14.4151 24.4788 13.9743 24.9193 13.4307 24.9195C12.8869 24.9195 12.4463 24.4789 12.4463 23.9352V16.8017L11.6482 17.5686C11.2561 17.9448 10.633 17.9315 10.2564 17.5397C9.88005 17.1475 9.8931 16.5244 10.2852 16.1479L12.7263 13.8041Z" fill="#FEF6F0"/>
<path d="M18.5713 13.3318C19.115 13.3318 19.5555 13.7725 19.5557 14.3162V21.4171L20.3309 20.6731C20.7231 20.2967 21.3461 20.3089 21.7227 20.7008C22.0991 21.093 22.0871 21.7173 21.6951 22.0938L19.2528 24.4376C19.2148 24.4739 19.1732 24.5046 19.1314 24.5337C19.1224 24.5399 19.1141 24.547 19.105 24.5529C19.0924 24.5611 19.0793 24.5683 19.0665 24.5758C19.0546 24.5828 19.0427 24.5897 19.0304 24.5962C19.011 24.6065 18.9915 24.6162 18.9715 24.6251C18.9612 24.6297 18.9508 24.634 18.9403 24.6383C18.9252 24.6444 18.9099 24.6498 18.8946 24.6551C18.8794 24.6604 18.8644 24.6662 18.8489 24.6707C18.8291 24.6765 18.8089 24.6806 18.7888 24.6852C18.7792 24.6873 18.7698 24.6905 18.76 24.6924C18.7465 24.695 18.7328 24.6963 18.7191 24.6984C18.6708 24.7057 18.6216 24.7116 18.5713 24.7116C18.4337 24.7116 18.3032 24.682 18.1843 24.6311C18.1677 24.624 18.1513 24.6163 18.135 24.6082C18.0938 24.5878 18.0537 24.5655 18.016 24.5397C17.9694 24.5078 17.9255 24.4711 17.8838 24.4303C17.8797 24.4264 17.8758 24.4224 17.8718 24.4183C17.8684 24.4149 17.8643 24.4122 17.861 24.4087C17.8255 24.3718 17.7946 24.3316 17.766 24.2909C17.7587 24.2805 17.7513 24.2703 17.7444 24.2597C17.7377 24.2494 17.7314 24.2389 17.7251 24.2284C17.7151 24.2115 17.7054 24.1943 17.6963 24.1767C17.6918 24.168 17.6873 24.1592 17.6831 24.1503C17.6613 24.1048 17.6424 24.0576 17.6278 24.0085C17.6206 23.9843 17.6151 23.9597 17.6098 23.9352C17.608 23.9272 17.6065 23.9192 17.605 23.9111C17.6031 23.9011 17.6017 23.8911 17.6001 23.8811C17.5922 23.8309 17.5869 23.7796 17.5869 23.7272V14.3162C17.5871 13.7725 18.0276 13.3318 18.5713 13.3318Z" fill="#FEF6F0"/>
<defs>
<linearGradient id="paint0_linear_1041_6292" x1="27.1274" y1="28.9863" x2="2.78502" y2="1.10266" gradientUnits="userSpaceOnUse">
<stop offset="0.285688" stop-color="#FB8B41"/>
<stop offset="1" stop-color="#FEBF95"/>
</linearGradient>
<linearGradient id="paint1_linear_1041_6292" x1="31.3287" y1="28.7398" x2="1.56728" y2="28.7398" gradientUnits="userSpaceOnUse">
<stop stop-color="#FFC39C"/>
<stop offset="1" stop-color="#FDB17F" stop-opacity="0.6"/>
</linearGradient>
<linearGradient id="paint2_linear_1041_6292" x1="37.3286" y1="32.7667" x2="9.77618" y2="32.7667" gradientUnits="userSpaceOnUse">
<stop stop-color="#FFC39C"/>
<stop offset="1" stop-color="#FDB17F" stop-opacity="0.6"/>
</linearGradient>
</defs>
</svg>
