<svg width="32" height="32" viewBox="0 0 32 32" fill="none" xmlns="http://www.w3.org/2000/svg">
<path d="M30.1128 8.82435V11.6477H28.7011V14.4692H30.1128V18.7043H25.8777V14.4692H27.2894V11.6477H13.1764V25.7608H15.9998V29.9939H4.70815V25.7608H7.53155V11.6477H4.70815V13.0575H1.88672V8.82435L8.94128 1.76782L30.1128 8.82435Z" fill="url(#paint0_linear_1041_6632)"/>
<mask id="mask0_1041_6632" style="mask-type:alpha" maskUnits="userSpaceOnUse" x="1" y="1" width="30" height="29">
<path d="M30.1128 8.82435V11.6477H28.7011V14.4692H30.1128V18.7043H25.8777V14.4692H27.2894V11.6477H13.1764V25.7608H15.9998V29.9939H4.70815V25.7608H7.53155V11.6477H4.70815V13.0575H1.88672V8.82435L8.94128 1.76782L30.1128 8.82435Z" fill="url(#paint1_linear_1041_6632)"/>
</mask>
<g mask="url(#mask0_1041_6632)">
<ellipse cx="6.53942" cy="7.00088" rx="13.3523" ry="12.6534" transform="rotate(-75 6.53942 7.00088)" fill="url(#paint2_linear_1041_6632)" fill-opacity="0.8"/>
</g>
<path d="M23.7786 30.2322H19.5557V26.0093H23.7786V30.2322Z" fill="url(#paint3_linear_1041_6632)"/>
<path d="M30.1129 30.2322H25.89V26.0093H30.1129V30.2322Z" fill="url(#paint4_linear_1041_6632)"/>
<path d="M23.7786 23.8978H19.5557V19.6749H23.7786V23.8978Z" fill="url(#paint5_linear_1041_6632)"/>
<defs>
<linearGradient id="paint0_linear_1041_6632" x1="1.88672" y1="4.28877" x2="33.4681" y2="21.2113" gradientUnits="userSpaceOnUse">
<stop stop-color="#FCC330"/>
<stop offset="1" stop-color="#FF8F0B"/>
</linearGradient>
<linearGradient id="paint1_linear_1041_6632" x1="1.88672" y1="4.28877" x2="33.4681" y2="21.2113" gradientUnits="userSpaceOnUse">
<stop stop-color="#FCC330"/>
<stop offset="1" stop-color="#FF8F0B"/>
</linearGradient>
<linearGradient id="paint2_linear_1041_6632" x1="5.41234" y1="20.8962" x2="4.84099" y2="3.62956" gradientUnits="userSpaceOnUse">
<stop stop-color="#FFEFB3"/>
<stop offset="0.561935" stop-color="#FFD25E" stop-opacity="0.5"/>
</linearGradient>
<linearGradient id="paint3_linear_1041_6632" x1="19.5557" y1="20.6178" x2="31.3678" y2="26.9472" gradientUnits="userSpaceOnUse">
<stop stop-color="#FCC330"/>
<stop offset="1" stop-color="#FFAE0B"/>
</linearGradient>
<linearGradient id="paint4_linear_1041_6632" x1="19.5557" y1="20.6178" x2="31.3678" y2="26.9472" gradientUnits="userSpaceOnUse">
<stop stop-color="#FCC330"/>
<stop offset="1" stop-color="#FFAE0B"/>
</linearGradient>
<linearGradient id="paint5_linear_1041_6632" x1="19.5557" y1="20.6178" x2="31.3678" y2="26.9472" gradientUnits="userSpaceOnUse">
<stop stop-color="#FCC330"/>
<stop offset="1" stop-color="#FFAE0B"/>
</linearGradient>
</defs>
</svg>
