<svg width="32" height="32" viewBox="0 0 32 32" fill="none" xmlns="http://www.w3.org/2000/svg">
<path d="M1.86328 3.29773C1.86328 2.19316 2.75871 1.29773 3.86328 1.29773H23.6132C24.7178 1.29773 25.6132 2.19316 25.6132 3.29773V8.64889L27.3096 16.0001L27.8751 30.7024H3.86328C2.75871 30.7024 1.86328 29.807 1.86328 28.7024V3.29773Z" fill="url(#paint0_linear_1041_6241)"/>
<mask id="mask0_1041_6241" style="mask-type:alpha" maskUnits="userSpaceOnUse" x="1" y="1" width="27" height="30">
<path d="M1.86328 1.29761H25.6132V8.64877L27.3096 15.9999L27.8751 30.7023H3.86328C2.75871 30.7023 1.86328 29.8068 1.86328 28.7023V1.29761Z" fill="url(#paint1_linear_1041_6241)"/>
</mask>
<g mask="url(#mask0_1041_6241)">
<ellipse cx="7.65542" cy="24.8636" rx="9.35052" ry="11.0906" transform="rotate(34.1054 7.65542 24.8636)" fill="url(#paint2_linear_1041_6241)"/>
</g>
<path d="M25.6133 8.08337H28.1371C29.2416 8.08337 30.1371 8.9788 30.1371 10.0834V28.7023C30.1371 29.8069 29.2416 30.7023 28.1371 30.7023H25.6133V8.08337Z" fill="url(#paint3_linear_1041_6241)"/>
<path d="M19.0572 17.8846C19.0684 17.8846 19.0796 17.8854 19.0908 17.8858C19.1417 17.8876 19.1927 17.8927 19.2435 17.9026C19.2523 17.9043 19.2611 17.9067 19.2699 17.9086C19.2892 17.913 19.3085 17.9175 19.3276 17.9231C19.341 17.9269 19.3541 17.9319 19.3673 17.9363C19.387 17.9429 19.4067 17.95 19.4262 17.9579C19.4302 17.9595 19.4342 17.961 19.4382 17.9627C19.4406 17.9638 19.4429 17.9653 19.4454 17.9663C19.4612 17.9732 19.4778 17.979 19.4935 17.9868C19.5012 17.9906 19.5087 17.9948 19.5163 17.9988C19.5191 18.0003 19.5219 18.002 19.5247 18.0036C19.5301 18.0065 19.535 18.0102 19.5403 18.0132C19.5588 18.0236 19.5769 18.0342 19.5944 18.0457C19.5983 18.0482 19.6026 18.0503 19.6064 18.0529C19.6102 18.0554 19.6135 18.0587 19.6173 18.0613C19.6625 18.0927 19.7037 18.1282 19.7423 18.1658C19.7487 18.1722 19.7552 18.1786 19.7615 18.1851C19.7988 18.2237 19.8335 18.2641 19.8637 18.3077C19.8844 18.3374 19.904 18.3682 19.9213 18.4002C19.9464 18.4464 19.9663 18.4954 19.9838 18.5457C19.9854 18.5501 19.9872 18.5544 19.9887 18.5589C19.9907 18.565 19.9939 18.5707 19.9959 18.5769C20.0054 18.6075 20.0134 18.6388 20.0199 18.6707C20.0242 18.6915 20.0254 18.713 20.0283 18.7344C20.0292 18.7408 20.0311 18.7471 20.0319 18.7536C20.0335 18.7671 20.0345 18.7808 20.0355 18.7945C20.0368 18.8105 20.0375 18.8264 20.0379 18.8425C20.0382 18.8513 20.0403 18.8601 20.0403 18.869L20.0391 21.738C20.039 22.2816 19.5984 22.7223 19.0548 22.7223C18.5111 22.7223 18.0706 22.2816 18.0704 21.738V21.6971C16.7943 22.7823 15.1471 23.4398 13.3216 23.4399C10.3994 23.4399 7.87187 21.7547 6.65572 19.3077C6.4139 18.8208 6.61248 18.2288 7.09923 17.9868C7.58596 17.7452 8.1781 17.9438 8.42014 18.4303C9.31638 20.2337 11.1753 21.4699 13.3216 21.4699C14.8336 21.4698 16.1824 20.8542 17.1617 19.8533H16.6245C16.0807 19.8533 15.6401 19.4128 15.6401 18.869C15.6403 18.3254 16.0808 17.8846 16.6245 17.8846H19.0572Z" fill="#F0F2FE"/>
<path d="M13.2723 8.56128C16.1943 8.56153 18.721 10.2478 19.937 12.6947C20.1784 13.1815 19.9801 13.7725 19.4935 14.0144C19.0068 14.2561 18.4159 14.0573 18.1737 13.5709C17.2776 11.7676 15.4182 10.5315 13.2723 10.5312C11.7603 10.5312 10.4116 11.1471 9.43216 12.1478H9.96942C10.5129 12.1482 10.9538 12.5886 10.9538 13.1322C10.9537 13.6757 10.5128 14.1162 9.96942 14.1166H7.53793L7.51269 14.1154C7.49344 14.1149 7.47428 14.1134 7.455 14.1118C7.44091 14.1106 7.42685 14.1099 7.41293 14.1082C7.39603 14.106 7.37931 14.1028 7.36245 14.0997C7.34426 14.0965 7.32619 14.0932 7.30836 14.0889C7.29346 14.0854 7.27871 14.0812 7.26389 14.0769C7.24396 14.0711 7.22439 14.0646 7.205 14.0577C7.19702 14.0548 7.1889 14.0524 7.18096 14.0493C7.16266 14.0421 7.14462 14.0346 7.12687 14.0264C7.11778 14.0222 7.10826 14.0189 7.09923 14.0144C7.09283 14.0112 7.08629 14.0069 7.08 14.0036C7.06134 13.9938 7.04384 13.9821 7.02591 13.9711C7.01713 13.9658 7.00803 13.9611 6.99947 13.9555C6.99248 13.9509 6.9859 13.9458 6.97904 13.9411C6.93043 13.9076 6.8853 13.8711 6.84442 13.8305C6.8412 13.8273 6.83798 13.8241 6.83481 13.8209C6.80364 13.7891 6.77695 13.754 6.75067 13.7187C6.74539 13.7117 6.73894 13.7055 6.73385 13.6983C6.71164 13.6668 6.6898 13.635 6.67135 13.6009C6.61858 13.5036 6.583 13.3961 6.56558 13.2824C6.56327 13.2676 6.5612 13.2529 6.55957 13.238C6.55586 13.2033 6.55357 13.1679 6.55356 13.1322V10.2632C6.55368 9.71952 6.99422 9.27883 7.53793 9.27883C8.08144 9.27907 8.52218 9.71967 8.52231 10.2632V10.3041C9.79869 9.21924 11.4468 8.56128 13.2723 8.56128Z" fill="#F0F2FE"/>
<defs>
<linearGradient id="paint0_linear_1041_6241" x1="16.2443" y1="17.5614" x2="5.70301" y2="0.082668" gradientUnits="userSpaceOnUse">
<stop stop-color="#4F5DFC"/>
<stop offset="1" stop-color="#A5ACFE"/>
</linearGradient>
<linearGradient id="paint1_linear_1041_6241" x1="7.6464" y1="13.4453" x2="18.3838" y2="34.3797" gradientUnits="userSpaceOnUse">
<stop stop-color="#8791FF"/>
<stop offset="1" stop-color="#6C78FD" stop-opacity="0.5"/>
</linearGradient>
<linearGradient id="paint2_linear_1041_6241" x1="2.46264" y1="22.9366" x2="10.7863" y2="38.4033" gradientUnits="userSpaceOnUse">
<stop stop-color="#8791FF"/>
<stop offset="1" stop-color="#6C78FD" stop-opacity="0.5"/>
</linearGradient>
<linearGradient id="paint3_linear_1041_6241" x1="28.5635" y1="36.3033" x2="12.5321" y2="30.1352" gradientUnits="userSpaceOnUse">
<stop stop-color="#CED2FF"/>
<stop offset="1" stop-color="#4F5DFC"/>
</linearGradient>
</defs>
</svg>
