<svg width="32" height="32" viewBox="0 0 32 32" fill="none" xmlns="http://www.w3.org/2000/svg">
<path d="M23.4287 9.31649C23.4287 8.91999 23.663 8.56095 24.0259 8.40122L30.0259 5.7603C30.6868 5.46939 31.4287 5.95345 31.4287 6.67556V25.3244C31.4287 26.0465 30.6868 26.5305 30.0259 26.2396L24.0259 23.5987C23.663 23.439 23.4287 23.0799 23.4287 22.6834V9.31649Z" fill="url(#paint0_linear_1041_6397)"/>
<rect x="0.571289" y="3.42859" width="24" height="25.1429" rx="4" fill="url(#paint1_linear_1041_6397)"/>
<path d="M13.7139 16C18.1323 16 22.0631 17.9153 24.5713 20.8896V24.5713C24.5713 26.7804 22.7804 28.5713 20.5713 28.5713H4.57129C2.4803 28.5712 0.764426 26.9668 0.586914 24.9219C2.29289 19.7588 7.52449 16.0002 13.7139 16Z" fill="url(#paint2_linear_1041_6397)"/>
<path d="M16.4018 15.1584C17.0152 15.5519 17.0152 16.4483 16.4018 16.8417L11.5395 19.9609C10.874 20.3878 9.99958 19.9099 9.99958 19.1192L9.99958 12.8809C9.99958 12.0902 10.874 11.6123 11.5395 12.0392L16.4018 15.1584Z" fill="white" fill-opacity="0.9"/>
<defs>
<linearGradient id="paint0_linear_1041_6397" x1="23.4287" y1="13.1428" x2="31.4287" y2="13.1428" gradientUnits="userSpaceOnUse">
<stop stop-color="#87DED1"/>
<stop offset="0.507156" stop-color="#7ACEC2"/>
</linearGradient>
<linearGradient id="paint1_linear_1041_6397" x1="3.42843" y1="8.00002" x2="17.7141" y2="16.5714" gradientUnits="userSpaceOnUse">
<stop stop-color="#77DEC8"/>
<stop offset="1" stop-color="#09B6A3"/>
</linearGradient>
<linearGradient id="paint2_linear_1041_6397" x1="25.7165" y1="26.857" x2="0.520927" y2="26.857" gradientUnits="userSpaceOnUse">
<stop stop-color="#51D5BF"/>
<stop offset="1" stop-color="#55D3BF"/>
</linearGradient>
</defs>
</svg>
