<svg width="32" height="32" viewBox="0 0 32 32" fill="none" xmlns="http://www.w3.org/2000/svg">
<path d="M2.80001 1.84886H9.04725C9.2699 1.83937 9.48846 1.91084 9.66248 2.05006C9.83649 2.18928 9.95419 2.38682 9.9938 2.60613L15.7678 28.9203C15.8103 29.0667 15.8153 29.2216 15.7822 29.3705C15.7491 29.5193 15.679 29.6575 15.5784 29.7722C15.4955 29.8951 15.3822 29.9946 15.2496 30.0609C15.1169 30.1273 14.9693 30.1582 14.8212 30.1508H2.80001C2.52462 30.1483 2.26121 30.0378 2.06648 29.8431C1.87175 29.6484 1.76126 29.385 1.75879 29.1096L1.75879 2.9067C1.75879 2.83263 1.76249 2.75819 1.78068 2.68639C1.83411 2.47549 1.94849 2.28401 2.11068 2.13656C2.30042 1.96407 2.54394 1.86242 2.80001 1.84886Z" fill="url(#paint0_linear_1041_6685)"/>
<path d="M17.0933 27.3111C16.998 27.2065 16.9247 27.0837 16.8777 26.9502C16.8308 26.8167 16.8111 26.6751 16.8199 26.5338C16.8288 26.3926 16.8659 26.2545 16.9291 26.1279C16.9923 26.0012 17.0804 25.8886 17.188 25.7966C18.3624 24.8307 19.8323 24.2962 21.3528 24.2822C21.9816 24.2932 22.5985 24.4555 23.1513 24.7554C23.5123 24.9548 23.8376 25.2125 24.114 25.5178C24.1672 25.5766 24.223 25.6335 24.2831 25.6851C24.8739 26.1927 25.0756 26.3646 25.7069 26.3646C26.7817 26.3114 27.8108 25.9131 28.6412 25.2287C28.8365 25.0823 29.0781 25.0113 29.3215 25.0287C29.5649 25.0461 29.7939 25.1507 29.9664 25.3234C30.0618 25.428 30.1351 25.5507 30.182 25.6843C30.229 25.8178 30.2487 25.9594 30.2398 26.1007C30.231 26.2419 30.1939 26.38 30.1306 26.5066C30.0674 26.6333 29.9794 26.7459 29.8718 26.8378C28.6973 27.8038 27.2275 28.3383 25.7069 28.3523C25.0781 28.3413 24.4613 28.179 23.9085 27.8791C23.5474 27.6797 23.2222 27.4221 22.9458 27.1167C22.8926 27.0579 22.8367 27.001 22.7766 26.9493C22.1858 26.4418 21.9842 26.2699 21.3528 26.2699C20.278 26.3231 19.249 26.7214 18.4185 27.4058C18.2152 27.5298 17.9783 27.5874 17.7408 27.5704C17.5032 27.5535 17.2769 27.4628 17.0933 27.3111ZM15.3895 19.1708C15.3009 19.0596 15.2354 18.9317 15.1969 18.7949C15.1584 18.658 15.1477 18.5148 15.1653 18.3737C15.1829 18.2326 15.2286 18.0964 15.2996 17.9732C15.3706 17.85 15.4656 17.7423 15.5788 17.6563C16.9211 16.6528 18.5416 16.0906 20.2169 16.0471C20.8651 16.0628 21.5057 16.1909 22.11 16.4258C22.5375 16.638 22.9224 16.9267 23.2459 17.2776C23.4661 17.5351 23.7433 17.7376 24.0555 17.8691C24.3677 18.0005 24.7063 18.0573 25.0444 18.0349C26.3118 18.0013 27.5367 17.5709 28.5466 16.8044C28.753 16.6703 29.001 16.6157 29.2447 16.6505C29.4884 16.6853 29.7111 16.8072 29.8718 16.9937C29.9604 17.1049 30.0259 17.2327 30.0644 17.3696C30.1029 17.5065 30.1136 17.6497 30.096 17.7908C30.0784 17.9319 30.0327 18.0681 29.9617 18.1913C29.8907 18.3145 29.7957 18.4222 29.6825 18.5082C28.3402 19.5116 26.7197 20.0739 25.0444 20.1173C24.3962 20.1016 23.7556 19.9735 23.1513 19.7387C22.7238 19.5264 22.3388 19.2377 22.0154 18.8868C21.7952 18.6294 21.518 18.4269 21.2058 18.2954C20.8935 18.1639 20.555 18.1072 20.217 18.1295C18.9495 18.1631 17.7246 18.5935 16.7147 19.3601C16.6204 19.4469 16.508 19.5116 16.3857 19.5496C16.2633 19.5876 16.134 19.5979 16.0072 19.5798C15.8804 19.5616 15.7591 19.5155 15.6523 19.4448C15.5455 19.3741 15.4557 19.2805 15.3895 19.1708ZM13.4964 11.1251C13.4133 11.0161 13.3544 10.8908 13.3236 10.7573C13.2928 10.6238 13.2907 10.4853 13.3176 10.351C13.3444 10.2167 13.3996 10.0896 13.4794 9.97826C13.5592 9.86692 13.6618 9.77385 13.7804 9.70526C15.3301 8.69055 17.1344 8.13287 18.9864 8.09611C19.6695 8.06581 20.3501 8.19546 20.9742 8.47473C21.409 8.66013 21.8226 8.89177 22.2076 9.16556C22.2691 9.20924 22.3256 9.25929 22.3809 9.31051C22.6479 9.55779 22.9592 9.75308 23.2987 9.88593C23.6734 10.0325 24.0744 10.0999 24.4764 10.0838C25.9586 10.0246 27.3973 9.56678 28.6412 8.75868C28.8585 8.6352 29.1136 8.5959 29.3579 8.64826C29.6023 8.70062 29.8189 8.84099 29.9664 9.04266C30.0495 9.15159 30.1084 9.27696 30.1393 9.41043C30.1701 9.54391 30.1722 9.68242 30.1453 9.81675C30.1184 9.95108 30.0633 10.0781 29.9835 10.1895C29.9036 10.3008 29.801 10.3939 29.6825 10.4625C28.1327 11.4772 26.3285 12.0349 24.4764 12.0716C23.7934 12.1019 23.1127 11.9723 22.4887 11.693C22.0538 11.5076 21.6403 11.276 21.2552 11.0022C21.1938 10.9585 21.1372 10.9084 21.0819 10.8572C20.8149 10.6099 20.5037 10.4146 20.1642 10.2818C19.7895 10.1352 19.3885 10.0678 18.9864 10.0839C17.5043 10.1432 16.0655 10.6009 14.8216 11.409C14.608 11.5465 14.3487 11.5937 14.1004 11.5405C13.8521 11.4873 13.6349 11.3379 13.4964 11.1251Z" fill="url(#paint1_linear_1041_6685)"/>
<path d="M1.75879 21.4926C3.56248 21.5449 5.55404 21.9132 7.56641 22.6273C11.3255 23.9612 14.2695 26.1825 15.668 28.4681L15.7676 28.9203C15.8101 29.0667 15.8153 29.2216 15.7822 29.3705C15.7491 29.5193 15.6787 29.6572 15.5781 29.7719C15.4952 29.8948 15.3817 29.9946 15.249 30.0609C15.1165 30.1271 14.9692 30.1581 14.8213 30.1508H2.7998C2.5245 30.1483 2.2611 30.0378 2.06641 29.8431C1.87174 29.6485 1.76133 29.385 1.75879 29.1097V21.4926Z" fill="url(#paint2_linear_1041_6685)" fill-opacity="0.8"/>
<defs>
<linearGradient id="paint0_linear_1041_6685" x1="1.75879" y1="4.37592" x2="33.5374" y2="21.5117" gradientUnits="userSpaceOnUse">
<stop stop-color="#FCC330"/>
<stop offset="1" stop-color="#FF8F0B"/>
</linearGradient>
<linearGradient id="paint1_linear_1041_6685" x1="21.7704" y1="11.6099" x2="32.9099" y2="25.4812" gradientUnits="userSpaceOnUse">
<stop stop-color="#FCC330"/>
<stop offset="1" stop-color="#FF8F0B"/>
</linearGradient>
<linearGradient id="paint2_linear_1041_6685" x1="2.75353" y1="31.1653" x2="10.3904" y2="25.2184" gradientUnits="userSpaceOnUse">
<stop stop-color="#FFEFB3"/>
<stop offset="1" stop-color="#FDC124"/>
</linearGradient>
</defs>
</svg>
