<svg width="32" height="32" viewBox="0 0 32 32" fill="none" xmlns="http://www.w3.org/2000/svg">
<path d="M16.5174 7.08152H15.5512C14.9737 7.12738 14.4762 7.24471 14.139 7.34489L9.61944 9.76544V5.80838C9.61944 5.10731 10.1912 4.53507 10.8944 4.53507H14.0847V2.6239C14.0847 1.92283 14.6592 1.35059 15.3625 1.35059H16.6404C17.3436 1.35059 17.9124 1.92005 17.9124 2.6239V4.53509H21.1027C21.8089 4.53509 22.3806 5.10456 22.3806 5.8084V9.87695L17.5151 7.27045C17.1807 7.16745 16.8461 7.11018 16.5174 7.08152ZM26.2655 21.5565C24.4445 21.9942 21.8373 22.7982 19.3389 24.2089C15.7798 26.2202 15.5768 25.814 12.8526 24.4549C10.4598 23.2618 8.14721 22.4979 6.40616 22.0314L4.51089 19.1816C2.57851 16.6209 2.16967 15.4907 3.23596 14.724L14.0817 8.99008C15.3168 8.38919 16.5774 8.30618 17.9124 8.99008L28.7611 14.724C29.4472 15.2905 30.0189 16.432 27.915 19.1816L26.2655 21.5565Z" fill="url(#paint0_linear_1041_6716)"/>
<path d="M30.039 27.4731C30.039 28.1742 29.4643 28.7407 28.7611 28.7407C28.5552 28.7407 28.3637 28.6892 28.1921 28.6034C28.1921 28.6034 26.6771 27.4731 24.9304 27.4731C22.9122 27.4731 20.4624 29.376 20.4624 29.376C20.4624 29.376 19.1272 30.6491 15.9971 30.6491C12.8926 30.6491 11.529 29.376 11.529 29.376C11.529 29.376 8.68734 27.3617 7.06372 27.4731C7.06372 27.4731 5.59155 27.0269 3.80193 28.6034C3.63038 28.6892 3.43884 28.7407 3.23312 28.7407C2.5299 28.7436 1.96094 28.177 1.96094 27.4731C1.96094 26.9782 2.14672 26.529 2.59843 26.2057C2.59843 26.2057 6.33186 21.8853 12.1693 26.2057C12.1693 26.2057 14.0331 27.4731 15.3596 27.4731H16.6374C16.6374 27.4731 18.1782 27.3301 19.8277 26.2057C21.4743 25.0784 25.3507 22.5405 29.3986 26.2057C29.8216 26.4518 30.039 26.9782 30.039 27.4731Z" fill="url(#paint1_linear_1041_6716)"/>
<path d="M7.34473 24.2908C8.71191 24.3451 10.3369 24.8499 12.1689 26.2058C12.1689 26.2058 14.0329 27.4733 15.3594 27.4734H16.6377C16.6689 27.4704 18.1946 27.3186 19.8271 26.2058C20.7994 25.5401 22.5498 24.3842 24.6533 24.3025C24.5512 25.6606 23.9342 26.9101 22.9502 27.9353C21.5926 28.4985 20.4619 29.3767 20.4619 29.3767C20.4413 29.3962 19.1031 30.6489 15.998 30.6492C15.9945 30.6492 15.9909 30.6492 15.9873 30.6492C12.9167 30.6466 11.5529 29.3985 11.5293 29.3767C11.5293 29.3767 10.3648 28.5538 9.10156 27.989C8.08441 26.9509 7.4459 25.6773 7.34473 24.2908ZM16 17.155C19.9798 17.1551 23.3303 19.2425 24.3496 22.0867C22.8215 22.561 21.054 23.2404 19.3389 24.2087C15.7798 26.2201 15.5768 25.8139 12.8525 24.4548C10.9558 23.509 9.10888 22.8341 7.55762 22.3621C8.45322 19.3779 11.8924 17.155 16 17.155Z" fill="url(#paint2_linear_1041_6716)"/>
<defs>
<linearGradient id="paint0_linear_1041_6716" x1="19.5165" y1="12.7529" x2="2.43525" y2="1.82967" gradientUnits="userSpaceOnUse">
<stop stop-color="#00AFD1"/>
<stop offset="1" stop-color="#A1EFFF"/>
</linearGradient>
<linearGradient id="paint1_linear_1041_6716" x1="19.6695" y1="27.2782" x2="16.3216" y2="18.7086" gradientUnits="userSpaceOnUse">
<stop stop-color="#00AFD1"/>
<stop offset="1" stop-color="#A1EFFF"/>
</linearGradient>
<linearGradient id="paint2_linear_1041_6716" x1="15.1773" y1="23.9021" x2="12.1502" y2="14.6475" gradientUnits="userSpaceOnUse">
<stop stop-color="#00B4D8"/>
<stop offset="1" stop-color="#1FDAFF"/>
</linearGradient>
</defs>
</svg>
