<svg width="32" height="32" viewBox="0 0 32 32" fill="none" xmlns="http://www.w3.org/2000/svg">
<path d="M4.01367 3.6319C4.01367 3.07961 4.46139 2.6319 5.01367 2.6319H26.9857C27.538 2.6319 27.9857 3.07961 27.9857 3.6319V18.4123C27.9857 18.9646 27.538 19.4123 26.9857 19.4123H5.01367C4.46139 19.4123 4.01367 18.9646 4.01367 18.4123V3.6319Z" fill="url(#paint0_linear_1041_4885)"/>
<path d="M2.46191 6.75269C2.46191 5.64812 3.35734 4.75269 4.46191 4.75269H27.5388C28.6434 4.75269 29.5388 5.64812 29.5388 6.75269V27.3681C29.5388 28.4726 28.6434 29.3681 27.5388 29.3681H4.46192C3.35735 29.3681 2.46191 28.4726 2.46191 27.3681V6.75269Z" fill="#8690FE"/>
<path d="M2.46191 6.75269C2.46191 5.64812 3.35734 4.75269 4.46191 4.75269H27.5388C28.6434 4.75269 29.5388 5.64812 29.5388 6.75269V27.3681C29.5388 28.4726 28.6434 29.3681 27.5388 29.3681H7.48595L5.64821 26.9104C3.5797 24.1442 2.46191 20.7828 2.46191 17.3287V6.75269Z" fill="url(#paint1_linear_1041_4885)"/>
<path d="M2.46191 6.25269C2.46191 5.42426 3.13349 4.75269 3.96191 4.75269H28.0388C28.8673 4.75269 29.5388 5.42426 29.5388 6.25269V27.8681C29.5388 28.6965 28.8673 29.3681 28.0388 29.3681H15.4619C8.28222 29.3681 2.46191 23.5478 2.46191 16.3681V6.25269Z" fill="url(#paint2_linear_1041_4885)"/>
<path fill-rule="evenodd" clip-rule="evenodd" d="M11.2003 11.2315C12.431 11.2315 13.3909 11.7437 14.0801 12.7676C14.7299 13.7423 15.0548 15.0569 15.0548 16.7111C15.0548 18.3651 14.7299 19.6799 14.0801 20.6546C13.381 21.6783 12.421 22.1906 11.2003 22.1906C9.95984 22.1906 8.9998 21.6784 8.32046 20.6546C7.67064 19.6799 7.34573 18.3651 7.3457 16.7111C7.3457 15.0569 7.67064 13.7423 8.32046 12.7676C8.98997 11.7436 9.94991 11.2316 11.2003 11.2315ZM11.2003 12.6942C10.3536 12.6943 9.76338 13.1616 9.42864 14.0969C9.19233 14.727 9.07407 15.5985 9.07407 16.7111C9.07408 17.8039 9.19234 18.6754 9.42864 19.3253C9.77324 20.2603 10.3636 20.7278 11.2003 20.7279C12.0273 20.7279 12.6186 20.2606 12.9731 19.3253C13.2094 18.6754 13.3277 17.8039 13.3277 16.7111C13.3277 15.5986 13.2094 14.727 12.9731 14.0969C12.6186 13.1615 12.0273 12.6942 11.2003 12.6942Z" fill="#F0F2FE"/>
<path d="M23.6306 12.8265L19.9383 21.9839H18.1065L21.8878 13.0043H16.4971V11.4382H23.6306V12.8265Z" fill="#F0F2FE"/>
<defs>
<linearGradient id="paint0_linear_1041_4885" x1="6.46413" y1="2.6319" x2="37.4553" y2="11.0221" gradientUnits="userSpaceOnUse">
<stop stop-color="#6E79FD"/>
<stop offset="1" stop-color="#C2C7FE"/>
</linearGradient>
<linearGradient id="paint1_linear_1041_4885" x1="16.0004" y1="-11.225" x2="16.0004" y2="29.3681" gradientUnits="userSpaceOnUse">
<stop stop-color="#9BA3FE"/>
<stop offset="1" stop-color="#AEB5FE" stop-opacity="0.5"/>
</linearGradient>
<linearGradient id="paint2_linear_1041_4885" x1="27.9794" y1="28.4238" x2="6.14714" y2="2.65596" gradientUnits="userSpaceOnUse">
<stop offset="0.505078" stop-color="#4F5DFC"/>
<stop offset="1" stop-color="#A0A7FE"/>
</linearGradient>
</defs>
</svg>
