<svg width="32" height="32" viewBox="0 0 32 32" fill="none" xmlns="http://www.w3.org/2000/svg">
<path d="M3.3125 2.81409C3.3125 2.2618 3.76022 1.81409 4.3125 1.81409H27.6881C28.2404 1.81409 28.6881 2.2618 28.6881 2.81409V16.6738C28.6881 17.2261 28.2404 17.6738 27.6881 17.6738H4.3125C3.76021 17.6738 3.3125 17.2261 3.3125 16.6738V2.81409Z" fill="url(#paint0_linear_1041_6316)"/>
<path d="M2.04297 6.8103C2.04297 5.70573 2.9384 4.8103 4.04297 4.8103H27.9561C29.0607 4.8103 29.9561 5.70573 29.9561 6.8103V28.1859C29.9561 29.2905 29.0607 30.1859 27.9561 30.1859H4.04297C2.9384 30.1859 2.04297 29.2905 2.04297 28.1859V6.8103Z" fill="#27BFDD"/>
<path d="M2.04297 6.8103C2.04297 5.70573 2.9384 4.8103 4.04297 4.8103H27.9561C29.0607 4.8103 29.9561 5.70573 29.9561 6.8103V28.1859C29.9561 29.2905 29.0607 30.1859 27.9561 30.1859H7.22217L5.22927 27.5208C3.16075 24.7545 2.04297 21.3932 2.04297 17.9391V6.8103Z" fill="url(#paint1_linear_1041_6316)"/>
<path d="M2.04297 6.8103C2.04297 5.70573 2.9384 4.8103 4.04297 4.8103H27.9561C29.0607 4.8103 29.9561 5.70573 29.9561 6.8103V28.1859C29.9561 29.2905 29.0607 30.1859 27.9561 30.1859H15.043C7.86327 30.1859 2.04297 24.3656 2.04297 17.1859V6.8103Z" fill="url(#paint2_linear_1041_6316)"/>
<mask id="mask0_1041_6316" style="mask-type:alpha" maskUnits="userSpaceOnUse" x="2" y="4" width="28" height="27">
<path d="M2.04297 6.31042C2.04297 5.482 2.71454 4.81042 3.54297 4.81042H28.4561C29.2846 4.81042 29.9561 5.482 29.9561 6.31042V28.686C29.9561 29.5145 29.2846 30.186 28.4561 30.186H15.043C7.86327 30.186 2.04297 24.3657 2.04297 17.186V6.31042Z" fill="url(#paint3_linear_1041_6316)"/>
</mask>
<g mask="url(#mask0_1041_6316)">
<ellipse cx="21.3639" cy="27.6484" rx="11.6588" ry="7.86291" fill="url(#paint4_linear_1041_6316)"/>
</g>
<path fill-rule="evenodd" clip-rule="evenodd" d="M10.9151 11.3271C12.1458 11.3271 13.1057 11.8393 13.7949 12.8632C14.4448 13.838 14.7697 15.1526 14.7697 16.8067C14.7697 18.4608 14.4447 19.7755 13.7949 20.7502C13.0959 21.774 12.1359 22.2863 10.9151 22.2863C9.67468 22.2862 8.71465 21.774 8.03531 20.7502C7.38548 19.7755 7.06057 18.4608 7.06055 16.8067C7.06055 15.1526 7.38548 13.838 8.03531 12.8632C8.70481 11.8393 9.66475 11.3272 10.9151 11.3271ZM10.9151 12.7899C10.0685 12.79 9.47822 13.2572 9.14348 14.1925C8.90717 14.8227 8.78891 15.6941 8.78891 16.8067C8.78893 17.8996 8.90718 18.7711 9.14348 19.4209C9.48808 20.356 10.0784 20.8235 10.9151 20.8235C11.7422 20.8235 12.3335 20.3562 12.688 19.4209C12.9242 18.7711 13.0425 17.8996 13.0425 16.8067C13.0425 15.6942 12.9242 14.8227 12.688 14.1925C12.3335 13.2571 11.7422 12.7899 10.9151 12.7899Z" fill="#F3FDFF"/>
<path d="M23.3454 12.9221L19.6531 22.0796H17.8214L21.6026 13.1H16.212V11.5339H23.3454V12.9221Z" fill="#F3FDFF"/>
<defs>
<linearGradient id="paint0_linear_1041_6316" x1="19.1784" y1="7.98625" x2="9.01429" y2="-2.86554" gradientUnits="userSpaceOnUse">
<stop stop-color="#A1EFFF"/>
<stop offset="1" stop-color="#00AFD1"/>
</linearGradient>
<linearGradient id="paint1_linear_1041_6316" x1="15.9995" y1="-11.6609" x2="15.9995" y2="30.1859" gradientUnits="userSpaceOnUse">
<stop stop-color="#9BECFE"/>
<stop offset="1" stop-color="#AEF1FE" stop-opacity="0.5"/>
</linearGradient>
<linearGradient id="paint2_linear_1041_6316" x1="19.4954" y1="14.6858" x2="3.94732" y2="3.2732" gradientUnits="userSpaceOnUse">
<stop stop-color="#00AFD1"/>
<stop offset="1" stop-color="#A1EFFF"/>
</linearGradient>
<linearGradient id="paint3_linear_1041_6316" x1="28.3485" y1="29.2126" x2="5.84201" y2="2.64894" gradientUnits="userSpaceOnUse">
<stop offset="0.505078" stop-color="#2573FD"/>
<stop offset="1" stop-color="#A1C3FF"/>
</linearGradient>
<linearGradient id="paint4_linear_1041_6316" x1="34.0672" y1="32.536" x2="12.3931" y2="32.6332" gradientUnits="userSpaceOnUse">
<stop stop-color="#70DAF0"/>
<stop offset="1" stop-color="#70DAF0" stop-opacity="0.2"/>
</linearGradient>
</defs>
</svg>
