<svg width="32" height="32" viewBox="0 0 32 32" fill="none" xmlns="http://www.w3.org/2000/svg">
<path d="M3.34668 2.85242C3.34668 2.30013 3.79439 1.85242 4.34668 1.85242H27.6537C28.206 1.85242 28.6537 2.30013 28.6537 2.85242V16.6693C28.6537 17.2216 28.206 17.6693 27.6537 17.6693H4.34668C3.7944 17.6693 3.34668 17.2216 3.34668 16.6693V2.85242Z" fill="url(#paint0_linear_1041_6644)"/>
<path d="M2.08105 6.84058C2.08105 5.73601 2.97649 4.84058 4.08105 4.84058H27.9188C29.0234 4.84058 29.9188 5.73601 29.9188 6.84058V28.1476C29.9188 29.2522 29.0234 30.1476 27.9188 30.1476H4.08105C2.97648 30.1476 2.08105 29.2522 2.08105 28.1476V6.84058Z" fill="#FF89E1"/>
<path d="M2.08105 6.84058C2.08105 5.73601 2.97649 4.84058 4.08105 4.84058H27.9188C29.0234 4.84058 29.9188 5.73601 29.9188 6.84058V28.1476C29.9188 29.2522 29.0234 30.1476 27.9188 30.1476H7.24626L5.26736 27.5012C3.19884 24.735 2.08105 21.3736 2.08105 17.9195V6.84058Z" fill="url(#paint1_linear_1041_6644)"/>
<path d="M2.08105 6.84057C2.08105 5.736 2.97649 4.84058 4.08105 4.84058H27.9188C29.0234 4.84058 29.9188 5.73601 29.9188 6.84058V28.1476C29.9188 29.2522 29.0234 30.1476 27.9188 30.1476H15.081C7.90134 30.1476 2.08105 24.3273 2.08105 17.1476V6.84057Z" fill="url(#paint2_linear_1041_6644)"/>
<mask id="mask0_1041_6644" style="mask-type:alpha" maskUnits="userSpaceOnUse" x="2" y="4" width="28" height="27">
<path d="M2.08105 6.34057C2.08105 5.51215 2.75263 4.84058 3.58105 4.84058H28.4188C29.2472 4.84058 29.9188 5.51215 29.9188 6.34058V28.6476C29.9188 29.476 29.2472 30.1476 28.4188 30.1476H15.081C7.90134 30.1476 2.08105 24.3273 2.08105 17.1476V6.34057Z" fill="url(#paint3_linear_1041_6644)"/>
</mask>
<g mask="url(#mask0_1041_6644)">
<ellipse cx="21.349" cy="27.6169" rx="11.6273" ry="7.84167" fill="url(#paint4_linear_1041_6644)"/>
</g>
<path d="M11.3283 11.0769C12.4112 11.0769 13.2725 11.3331 13.9124 11.8449C14.5524 12.3668 14.8727 13.0809 14.8727 13.9868C14.8726 15.1385 14.287 15.9069 13.1155 16.2908C13.7553 16.4878 14.2332 16.7726 14.5482 17.1466C14.9026 17.5404 15.0794 18.0527 15.0795 18.6827C15.0795 19.6574 14.7396 20.4554 14.0602 21.0757C13.3416 21.7156 12.4113 22.036 11.2694 22.036C10.1765 22.036 9.29469 21.7547 8.62515 21.1935C7.88688 20.5732 7.47337 19.6672 7.38477 18.4759H9.14198C9.17151 19.1652 9.38854 19.6922 9.79222 20.0565C10.1663 20.401 10.6534 20.5732 11.2538 20.5733C11.9134 20.5733 12.4404 20.3861 12.8343 20.012C13.1788 19.6675 13.351 19.2494 13.3511 18.7572C13.3511 18.1568 13.1695 17.7134 12.8054 17.4279C12.4608 17.1423 11.943 16.9988 11.2538 16.9988H10.5158V15.6995H11.2538C11.8741 15.6995 12.3471 15.5663 12.672 15.3005C12.987 15.0346 13.1444 14.6407 13.1444 14.119C13.1443 13.6073 13.0018 13.2189 12.7165 12.9531C12.4113 12.6873 11.9532 12.5541 11.3427 12.5541C10.7225 12.5541 10.2447 12.7068 9.91001 13.012C9.55583 13.3172 9.34893 13.7895 9.28981 14.4291H7.5915C7.68018 13.3561 8.07404 12.5291 8.77299 11.9483C9.42283 11.3674 10.2747 11.0769 11.3283 11.0769Z" fill="#FEF0FB"/>
<path fill-rule="evenodd" clip-rule="evenodd" d="M20.0807 11.0769C21.3113 11.077 22.2713 11.5891 22.9605 12.613C23.6103 13.5877 23.9352 14.9024 23.9352 16.5565C23.9352 18.2105 23.6103 19.5252 22.9605 20.5C22.2615 21.5238 21.3014 22.0359 20.0807 22.036C18.8403 22.036 17.8802 21.5237 17.2009 20.5C16.551 19.5252 16.2261 18.2105 16.2261 16.5565C16.2261 14.9023 16.551 13.5877 17.2009 12.613C17.8704 11.5891 18.8303 11.0769 20.0807 11.0769ZM20.0807 12.5396C19.2339 12.5396 18.6426 13.0069 18.3078 13.9423C18.0716 14.5724 17.9533 15.444 17.9533 16.5565C17.9533 17.6493 18.0715 18.5208 18.3078 19.1707C18.6525 20.1059 19.2438 20.5733 20.0807 20.5733C20.9075 20.5731 21.4979 20.1057 21.8523 19.1707C22.0886 18.5208 22.2069 17.6493 22.2069 16.5565C22.2069 15.4439 22.0886 14.5724 21.8523 13.9423C21.4979 13.0071 20.9075 12.5398 20.0807 12.5396Z" fill="#FEF0FB"/>
<defs>
<linearGradient id="paint0_linear_1041_6644" x1="-1.01638" y1="14.2556" x2="2.37716" y2="19.1094" gradientUnits="userSpaceOnUse">
<stop stop-color="#FD68D8"/>
<stop offset="1" stop-color="#FFABEA"/>
</linearGradient>
<linearGradient id="paint1_linear_1041_6644" x1="15.9999" y1="-11.5861" x2="15.9999" y2="30.1477" gradientUnits="userSpaceOnUse">
<stop stop-color="#FC93FE"/>
<stop offset="1" stop-color="#FFBBF6" stop-opacity="0.5"/>
</linearGradient>
<linearGradient id="paint2_linear_1041_6644" x1="-2.71831" y1="24.6856" x2="3.06201" y2="30.3697" gradientUnits="userSpaceOnUse">
<stop stop-color="#FFABEA"/>
<stop offset="1" stop-color="#FD68D8"/>
</linearGradient>
<linearGradient id="paint3_linear_1041_6644" x1="28.3155" y1="29.1768" x2="5.86983" y2="2.68493" gradientUnits="userSpaceOnUse">
<stop offset="0.505078" stop-color="#2573FD"/>
<stop offset="1" stop-color="#A1C3FF"/>
</linearGradient>
<linearGradient id="paint4_linear_1041_6644" x1="34.018" y1="32.4913" x2="12.4024" y2="32.5882" gradientUnits="userSpaceOnUse">
<stop stop-color="#FEC7F2"/>
<stop offset="1" stop-color="#FF87E5" stop-opacity="0.2"/>
</linearGradient>
</defs>
</svg>
