<svg width="26" height="26" viewBox="0 0 26 26" fill="none" xmlns="http://www.w3.org/2000/svg">
<g clip-path="url(#clip0_5497_61)">
<path d="M20.3909 2.38237C20.7939 2.6169 20.9317 3.13449 20.6995 3.53734L19.1563 6.2195L17.6973 5.37557L19.2405 2.69341C19.4701 2.29058 19.9853 2.15292 20.3858 2.38237H20.3909ZM13.1748 0.39624C13.6798 0.39624 14.088 0.776135 14.088 1.24782V4.2869H12.2616V1.24528C12.2616 0.77616 12.6697 0.39624 13.1748 0.39624ZM5.96374 2.38237C6.36423 2.15035 6.87945 2.28802 7.1116 2.68833C7.1116 2.68833 7.1116 2.69087 7.11414 2.69087L8.65738 5.37303L7.19831 6.21694L5.65507 3.53478C5.423 3.13193 5.56074 2.6169 5.96374 2.38237ZM0.683583 7.68297C0.91314 7.2801 1.42839 7.13986 1.83144 7.37188C1.83144 7.37188 1.83398 7.37188 1.83398 7.37445L4.50718 8.92459L3.66543 10.3881L0.992206 8.83532C0.589206 8.60333 0.451436 8.08579 0.683583 7.68297ZM25.671 7.68297C25.9032 8.08576 25.7654 8.60335 25.3624 8.83789L22.6891 10.3855L21.8474 8.92206L24.5206 7.37188C24.9211 7.13989 25.4363 7.27756 25.6684 7.67784C25.6684 7.68038 25.671 7.68043 25.671 7.68297Z" fill="url(#paint0_linear_5497_61)"/>
<path d="M4.47405 23.7657V15.7356C4.47405 10.9322 8.36908 7.0365 13.1773 7.0365C17.9855 7.0365 21.8806 10.9323 21.8806 15.7356V23.7657H24.8516C25.4686 23.7657 25.9688 24.2659 25.9688 24.8829C25.9688 25.4999 25.4686 26 24.8516 26H1.14841C0.531397 26 0.0312271 25.4999 0.0312271 24.8829C0.0312271 24.2659 0.531397 23.7657 1.14841 23.7657H4.47405Z" fill="url(#paint1_linear_5497_61)"/>
<path d="M5.80664 15.498C10.6033 15.4982 14.4912 19.3754 14.4912 24.1572C14.4912 24.7897 14.4221 25.4061 14.293 26H1.14844C0.53142 26 0.03125 25.4998 0.03125 24.8828C0.03125 24.2658 0.53142 23.7656 1.14844 23.7656H4.47363V15.7354C4.47363 15.69 4.47587 15.6448 4.47656 15.5996C4.9101 15.5332 5.35447 15.498 5.80664 15.498Z" fill="url(#paint2_linear_5497_61)"/>
<path d="M12.3316 21.0523H10.6979V12.9341H12.3316V21.0523ZM15.3021 21.0523H13.6692V12.9341H15.3021V21.0523ZM13.8504 13.1153H15.1217V13.1144H13.8504V13.1153Z" fill="white"/>
</g>
<defs>
<linearGradient id="paint0_linear_5497_61" x1="11.7704" y1="10.3881" x2="13.0923" y2="-3.23415" gradientUnits="userSpaceOnUse">
<stop offset="0.204736" stop-color="#FC944F"/>
<stop offset="1" stop-color="#FEC9A5"/>
</linearGradient>
<linearGradient id="paint1_linear_5497_61" x1="11.5527" y1="26" x2="16.0796" y2="0.713318" gradientUnits="userSpaceOnUse">
<stop offset="0.204736" stop-color="#FC944F"/>
<stop offset="1" stop-color="#FEC9A5"/>
</linearGradient>
<linearGradient id="paint2_linear_5497_61" x1="11.6982" y1="15.8753" x2="0.537499" y2="25.5566" gradientUnits="userSpaceOnUse">
<stop stop-color="#FDBD91"/>
<stop offset="0.654614" stop-color="#FC9450"/>
</linearGradient>
<clipPath id="clip0_5497_61">
<rect width="26" height="26" fill="white"/>
</clipPath>
</defs>
</svg>
