<svg width="26" height="26" viewBox="0 0 26 26" fill="none" xmlns="http://www.w3.org/2000/svg">
<g clip-path="url(#clip0_5497_60)">
<path d="M20.3909 2.38237C20.7939 2.6169 20.9317 3.13449 20.6995 3.53734L19.1563 6.2195L17.6973 5.37557L19.2405 2.69341C19.4701 2.29058 19.9853 2.15292 20.3858 2.38237H20.3909ZM13.1748 0.39624C13.6798 0.39624 14.088 0.776135 14.088 1.24782V4.2869H12.2616V1.24528C12.2616 0.77616 12.6697 0.39624 13.1748 0.39624ZM5.96374 2.38237C6.36423 2.15035 6.87945 2.28802 7.1116 2.68833C7.1116 2.68833 7.1116 2.69087 7.11414 2.69087L8.65738 5.37303L7.19831 6.21694L5.65507 3.53478C5.423 3.13193 5.56074 2.6169 5.96374 2.38237ZM0.683583 7.68297C0.91314 7.2801 1.42839 7.13986 1.83144 7.37188C1.83144 7.37188 1.83398 7.37188 1.83398 7.37445L4.50718 8.92459L3.66543 10.3881L0.992206 8.83532C0.589206 8.60333 0.451436 8.08579 0.683583 7.68297ZM25.671 7.68297C25.9032 8.08576 25.7654 8.60335 25.3624 8.83789L22.6891 10.3855L21.8474 8.92206L24.5206 7.37188C24.9211 7.13989 25.4363 7.27756 25.6684 7.67784C25.6684 7.68038 25.671 7.68043 25.671 7.68297Z" fill="url(#paint0_linear_5497_60)"/>
<path d="M4.47405 23.3693V15.3393C4.47405 10.5359 8.36907 6.64014 13.1773 6.64014C17.9855 6.64014 21.8806 10.5359 21.8806 15.3393V23.3693H24.8516C25.4686 23.3693 25.9688 23.8695 25.9688 24.4865C25.9688 25.1035 25.4686 25.6037 24.8516 25.6037H1.14841C0.531389 25.6037 0.0312195 25.1035 0.0312195 24.4865C0.0312195 23.8695 0.531389 23.3693 1.14841 23.3693H4.47405Z" fill="url(#paint1_linear_5497_60)"/>
<path d="M13.1774 6.64062C13.8022 6.64063 14.4113 6.70746 14.9985 6.833C15.3511 6.90838 15.6052 7.21759 15.6052 7.57812C15.605 12.1182 11.9132 15.7988 7.35906 15.7988C6.71268 15.7988 6.08392 15.7239 5.48056 15.5831C4.86676 15.4399 4.46638 14.8582 4.54574 14.233C5.08917 9.95177 8.74437 6.64062 13.1774 6.64062Z" fill="url(#paint2_linear_5497_60)"/>
<path d="M10.846 21.0523H9.21228V12.9341H10.846V21.0523ZM13.8164 21.0523H12.1836V12.9341H13.8164V21.0523ZM16.7877 21.0523H15.1549V12.9341H16.7877V21.0523ZM12.3648 13.1153H13.6361V13.1144H12.3648V13.1153Z" fill="white"/>
</g>
<defs>
<linearGradient id="paint0_linear_5497_60" x1="11.9709" y1="-1.68399" x2="13.466" y2="10.6377" gradientUnits="userSpaceOnUse">
<stop stop-color="#FFD978"/>
<stop offset="1" stop-color="#F5AB00"/>
</linearGradient>
<linearGradient id="paint1_linear_5497_60" x1="11.759" y1="2.69206" x2="16.8175" y2="25.2894" gradientUnits="userSpaceOnUse">
<stop stop-color="#FFD978"/>
<stop offset="1" stop-color="#F5AB00"/>
</linearGradient>
<linearGradient id="paint2_linear_5497_60" x1="9.66695" y1="14.4533" x2="4.05552" y2="7.90712" gradientUnits="userSpaceOnUse">
<stop stop-color="#FFD776"/>
<stop offset="0.656332" stop-color="#FFBF1B"/>
</linearGradient>
<clipPath id="clip0_5497_60">
<rect width="26" height="26" fill="white"/>
</clipPath>
</defs>
</svg>
