<svg width="30" height="30" viewBox="0 0 30 30" fill="none" xmlns="http://www.w3.org/2000/svg">
<path fill-rule="evenodd" clip-rule="evenodd" d="M22.6701 3.28125C23.8532 3.28125 24.8497 3.49564 25.6596 3.92439C26.4696 4.34522 27.0808 4.96057 27.4937 5.77048C27.9146 6.58037 28.125 7.56891 28.125 8.73611V19.3969C28.125 20.5641 27.9146 21.5526 27.4937 22.3624C27.0808 23.1724 26.4696 23.7877 25.6596 24.2085C24.8497 24.6292 23.8532 24.8398 22.6701 24.8398H14.1501L9.85056 28.77C9.56471 29.0321 9.32254 29.2226 9.12403 29.3417C8.93347 29.4688 8.71909 29.5324 8.48089 29.5324C8.13947 29.5324 7.87744 29.4212 7.69481 29.1988C7.51219 28.9766 7.42087 28.6787 7.42087 28.3056V24.8398H7.32986C6.14678 24.8398 5.15029 24.6292 4.3404 24.2085C3.53051 23.7877 2.91516 23.1724 2.49433 22.3624C2.08144 21.5526 1.875 20.5641 1.875 19.3969V8.73611C1.875 7.56891 2.08144 6.58037 2.49433 5.77048C2.91516 4.96057 3.53051 4.34522 4.3404 3.92439C5.15029 3.49564 6.14678 3.28125 7.32986 3.28125H22.6701ZM15 7.96875C14.7325 7.96875 14.4767 8.03634 14.2325 8.17153C13.9883 8.30286 13.7925 8.49984 13.6452 8.76249L9.13301 16.5956C8.98183 16.8544 8.90625 17.1247 8.90625 17.4067C8.90625 17.7003 8.97021 17.9648 9.09814 18.2005C9.22605 18.4399 9.40824 18.6292 9.64472 18.7682C9.88117 18.9073 10.1642 18.9769 10.4936 18.9769H19.5064C19.8358 18.9769 20.1188 18.9073 20.3554 18.7682C20.5918 18.6292 20.7739 18.4399 20.9019 18.2005C21.0298 17.9648 21.0938 17.7003 21.0938 17.4067C21.0938 17.2715 21.0744 17.1344 21.0356 16.9954C20.9968 16.8563 20.9406 16.723 20.8671 16.5956L16.3548 8.76249C16.2036 8.49984 16.0059 8.30286 15.7617 8.17153C15.5214 8.03634 15.2675 7.96875 15 7.96875ZM15.0058 16.1755C15.1803 16.1755 15.3314 16.2374 15.4594 16.361C15.5911 16.4807 15.6571 16.6275 15.6571 16.8013C15.6571 16.9751 15.5911 17.1219 15.4594 17.2416C15.3314 17.3613 15.1803 17.4212 15.0058 17.4212C14.8314 17.4212 14.6783 17.3613 14.5465 17.2416C14.4185 17.1219 14.3546 16.9751 14.3546 16.8013C14.3546 16.6313 14.4185 16.4846 14.5465 16.361C14.6744 16.2374 14.8275 16.1755 15.0058 16.1755ZM15 11.3204C15.1589 11.3204 15.2907 11.3726 15.3954 11.4769C15.5039 11.5773 15.5563 11.7028 15.5524 11.8534L15.4652 15.0052C15.4613 15.3219 15.3082 15.4803 15.0058 15.4803C14.6957 15.4803 14.5368 15.3219 14.529 15.0052L14.4534 11.8476C14.4495 11.697 14.498 11.5715 14.5988 11.4711C14.7034 11.3706 14.8372 11.3204 15 11.3204Z" fill="url(#paint0_linear_2955_3944)"/>
<defs>
<linearGradient id="paint0_linear_2955_3944" x1="1.875" y1="3.28125" x2="1.875" y2="29.5324" gradientUnits="userSpaceOnUse">
<stop stop-color="#FCCA3F"/>
<stop offset="1" stop-color="#FCAA2D"/>
</linearGradient>
</defs>
</svg>
