<svg width="30" height="30" viewBox="0 0 30 30" fill="none" xmlns="http://www.w3.org/2000/svg">
<path fill-rule="evenodd" clip-rule="evenodd" d="M23.2812 15C25.8701 15 27.9688 17.0987 27.9688 19.6875V23.1732C27.9688 23.5911 27.9252 23.7426 27.8435 23.8954C27.7618 24.0482 27.6419 24.1681 27.4891 24.2498C27.3364 24.3315 27.1848 24.375 26.7669 24.375H20.4688V21.0091C20.4688 18.821 20.2505 17.6907 19.6211 16.5138C19.3936 16.0885 19.123 15.6972 18.8129 15.3435C19.4363 15.1184 20.1925 15 21.2998 15H23.2812ZM22.3438 4.6875C24.6737 4.6875 26.5625 6.5763 26.5625 8.90625C26.5625 11.2362 24.6737 13.125 22.3438 13.125C20.0138 13.125 18.125 11.2362 18.125 8.90625C18.125 6.5763 20.0138 4.6875 22.3438 4.6875ZM8.17485 15H12.1377C13.6385 15 14.4943 15.2176 15.2582 15.6261C16.0221 16.0346 16.6216 16.6341 17.0302 17.398C17.4387 18.1619 17.6562 19.0177 17.6562 20.5186V25.9857C17.6562 26.4036 17.6127 26.5551 17.531 26.7079C17.4493 26.8607 17.3294 26.9806 17.1766 27.0623C17.0239 27.144 16.8723 27.1875 16.4544 27.1875H3.85807C3.44017 27.1875 3.28863 27.144 3.13585 27.0623C2.98308 26.9806 2.86317 26.8607 2.78147 26.7079C2.69976 26.5551 2.65625 26.4036 2.65625 25.9857V20.5186C2.65625 19.0177 2.87381 18.1619 3.28234 17.398C3.69087 16.6341 4.29038 16.0346 5.05427 15.6261C5.81816 15.2176 6.67396 15 8.17485 15ZM10.1562 2.8125C7.30853 2.8125 5 5.12103 5 7.96875C5 10.8165 7.30853 13.125 10.1562 13.125C13.004 13.125 15.3125 10.8165 15.3125 7.96875C15.3125 6.60123 14.7693 5.28972 13.8023 4.32273C12.8353 3.35575 11.5238 2.8125 10.1562 2.8125Z" fill="url(#paint0_linear_2955_5970)"/>
<defs>
<linearGradient id="paint0_linear_2955_5970" x1="15.3125" y1="27.1875" x2="15.3125" y2="2.8125" gradientUnits="userSpaceOnUse">
<stop stop-color="#459CFF"/>
<stop offset="1" stop-color="#50BEFC"/>
</linearGradient>
</defs>
</svg>
