<svg width="30" height="30" viewBox="0 0 30 30" fill="none" xmlns="http://www.w3.org/2000/svg">
<path fill-rule="evenodd" clip-rule="evenodd" d="M13.9458 27.6562C12.8434 26.2304 12.1875 24.4418 12.1875 22.5C12.1875 17.8401 15.9651 14.0625 20.625 14.0625C22.5668 14.0625 24.3554 14.7184 25.7812 15.8208V10.7812H19.2188C18.1832 10.7812 17.3438 9.94178 17.3438 8.90625V2.34375H6.09375C5.13218 2.34375 4.33967 3.06758 4.23136 4.00009L4.21875 4.21875V25.7812C4.21875 26.8168 5.05822 27.6562 6.09375 27.6562H13.9458ZM19.2188 2.34375L25.7812 8.90625H20.1562C19.6385 8.90625 19.2188 8.48652 19.2188 7.96875V2.34375ZM27.1875 22.5C27.1875 26.1244 24.2494 29.0625 20.625 29.0625C17.0006 29.0625 14.0625 26.1244 14.0625 22.5C14.0625 18.8756 17.0006 15.9375 20.625 15.9375C24.2494 15.9375 27.1875 18.8756 27.1875 22.5ZM19.07 18.4181H17.6056L19.5856 22.0069H18.2759V23.1562H19.9672L19.9775 23.1666V24.0225H18.2759V25.1719H19.9775V26.7187H21.2768V25.1719H22.9887V24.0225H21.2768V23.1666L21.2872 23.1562H22.9887V22.0069H21.6687L23.6487 18.4181H22.1843L20.6272 21.5222L19.07 18.4181Z" fill="url(#paint0_linear_2955_4083)"/>
<defs>
<linearGradient id="paint0_linear_2955_4083" x1="4.21875" y1="2.34375" x2="4.21875" y2="29.0625" gradientUnits="userSpaceOnUse">
<stop stop-color="#FCCA3F"/>
<stop offset="1" stop-color="#FCAA2D"/>
</linearGradient>
</defs>
</svg>
