<svg width="30" height="30" viewBox="0 0 30 30" fill="none" xmlns="http://www.w3.org/2000/svg">
<path d="M15 28.125C13.2071 28.125 11.5172 27.7819 9.93015 27.0956C8.35172 26.4093 6.95772 25.4614 5.74816 24.2518C4.5386 23.0423 3.59069 21.6483 2.90441 20.0699C2.21814 18.4828 1.875 16.7929 1.875 15C1.875 13.2071 2.21814 11.5214 2.90441 9.94302C3.59069 8.35601 4.53431 6.95772 5.73529 5.74816C6.94485 4.5386 8.33885 3.59069 9.91728 2.90441C11.5043 2.21814 13.1942 1.875 14.9871 1.875C16.78 1.875 18.47 2.21814 20.057 2.90441C21.644 3.59069 23.0423 4.5386 24.2518 5.74816C25.4614 6.95772 26.4093 8.35601 27.0956 9.94302C27.7819 11.5214 28.125 13.2071 28.125 15C28.125 16.7929 27.7819 18.4828 27.0956 20.0699C26.4093 21.6483 25.4614 23.0423 24.2518 24.2518C23.0423 25.4614 21.644 26.4093 20.057 27.0956C18.4786 27.7819 16.7929 28.125 15 28.125ZM7.78125 20.0055C7.78125 20.3229 7.87561 20.576 8.06434 20.7647C8.25306 20.9534 8.50613 21.0478 8.82353 21.0478H21.4724C21.6697 21.0478 21.8413 20.9792 21.9871 20.8419C22.133 20.6961 22.2059 20.5202 22.2059 20.3143C22.2059 20.117 22.133 19.9455 21.9871 19.7996C21.8413 19.6538 21.6697 19.5809 21.4724 19.5809H9.37684C9.29963 19.5809 9.26103 19.538 9.26103 19.4522V16.75L11.8603 14.1507C11.9289 14.0735 11.9933 14.0735 12.0533 14.1507L14.3695 16.5313C14.6869 16.8401 15.0343 16.9945 15.4118 16.9945C15.7892 16.9945 16.1324 16.8401 16.4412 16.5313L18.9375 13.9706L19.8768 14.9357C20.0398 15.1072 20.2243 15.1587 20.4301 15.0901C20.636 15.0129 20.769 14.8499 20.829 14.6011L21.7941 10.7794C21.8542 10.565 21.8027 10.3848 21.6397 10.239C21.4853 10.0846 21.3009 10.0331 21.0864 10.0846L17.2776 11.0368C17.0374 11.1054 16.8787 11.2426 16.8015 11.4485C16.7243 11.6458 16.7714 11.8217 16.943 11.9761L17.8824 12.9283L15.5147 15.3217C15.4547 15.4075 15.3903 15.4118 15.3217 15.3346L12.9798 12.9283C12.6795 12.6195 12.3364 12.4651 11.9504 12.4651C11.5901 12.4651 11.2512 12.6195 10.9338 12.9283L9.26103 14.6268V9.3125C9.26103 9.1152 9.18811 8.94363 9.04228 8.79779C8.89645 8.65196 8.72488 8.57904 8.52757 8.57904C8.32169 8.57904 8.14583 8.65196 8 8.79779C7.85417 8.94363 7.78125 9.1152 7.78125 9.3125V20.0055Z" fill="url(#paint0_linear_2955_4116)"/>
<defs>
<linearGradient id="paint0_linear_2955_4116" x1="15" y1="28.125" x2="15" y2="1.875" gradientUnits="userSpaceOnUse">
<stop stop-color="#459CFF"/>
<stop offset="1" stop-color="#50BEFC"/>
</linearGradient>
</defs>
</svg>
