<svg width="30" height="30" viewBox="0 0 30 30" fill="none" xmlns="http://www.w3.org/2000/svg">
<path fill-rule="evenodd" clip-rule="evenodd" d="M15 16.875H4.6875C3.65197 16.875 2.8125 16.0355 2.8125 15V4.6875C2.8125 3.65197 3.65197 2.8125 4.6875 2.8125H15C16.0355 2.8125 16.875 3.65197 16.875 4.6875V15C16.875 16.0355 16.0355 16.875 15 16.875ZM25.5208 9.375H21.3542C20.4337 9.375 19.6875 10.1212 19.6875 11.0417V15.2083C19.6875 16.1288 20.4337 16.875 21.3542 16.875H25.5208C26.4413 16.875 27.1875 16.1288 27.1875 15.2083V11.0417C27.1875 10.1212 26.4413 9.375 25.5208 9.375ZM25.5208 19.6875H21.3542C20.4337 19.6875 19.6875 20.4337 19.6875 21.3542V25.5208C19.6875 26.4413 20.4337 27.1875 21.3542 27.1875H25.5208C26.4413 27.1875 27.1875 26.4413 27.1875 25.5208V21.3542C27.1875 20.4337 26.4413 19.6875 25.5208 19.6875ZM15.2083 19.6875H11.0417C10.1212 19.6875 9.375 20.4337 9.375 21.3542V25.5208C9.375 26.4413 10.1212 27.1875 11.0417 27.1875H15.2083C16.1288 27.1875 16.875 26.4413 16.875 25.5208V21.3542C16.875 20.4337 16.1288 19.6875 15.2083 19.6875Z" fill="url(#paint0_linear_2955_5945)"/>
<defs>
<linearGradient id="paint0_linear_2955_5945" x1="15" y1="27.1875" x2="15" y2="2.8125" gradientUnits="userSpaceOnUse">
<stop stop-color="#939BA3"/>
<stop offset="1" stop-color="#ADB4B8"/>
</linearGradient>
</defs>
</svg>
