<svg width="30" height="30" viewBox="0 0 30 30" fill="none" xmlns="http://www.w3.org/2000/svg">
<path fill-rule="evenodd" clip-rule="evenodd" d="M24.375 25.3109V26.2499C24.3738 27.211 23.6505 28.0028 22.7185 28.112L22.5 28.1249H7.5C6.53893 28.1237 5.74711 27.4004 5.63786 26.4684L5.625 26.2499V25.3109H24.375ZM18.5486 3.13433C20.7122 4.88641 21.2607 7.96158 19.8363 10.3536C19.2371 11.3011 18.8746 12.3762 18.776 13.4883L18.75 13.967V16.8749H24.375C25.3362 16.8758 26.1281 17.5992 26.2372 18.5313L26.25 18.7499V21.5624C26.2488 22.5235 25.5255 23.3153 24.5935 23.4245L24.375 23.4374H5.625C4.66393 23.4362 3.87211 22.7129 3.76286 21.7809L3.75 21.5624V18.7499C3.75096 17.7887 4.47433 16.9968 5.40643 16.8877L5.625 16.8749H11.25V13.8695C11.2177 12.6254 10.8449 11.414 10.172 10.3671C9.46203 9.19414 9.21225 7.79957 9.47091 6.45308C9.83726 4.50417 11.2033 2.89242 13.0657 2.21151C14.9282 1.5306 17.0117 1.88126 18.5486 3.13433ZM16.875 14.9999H13.125V16.8749H16.875V14.9999Z" fill="url(#paint0_linear_2955_640)"/>
<defs>
<linearGradient id="paint0_linear_2955_640" x1="15" y1="28.1249" x2="15" y2="1.86963" gradientUnits="userSpaceOnUse">
<stop stop-color="#459CFF"/>
<stop offset="1" stop-color="#50BEFC"/>
</linearGradient>
</defs>
</svg>
