<svg width="30" height="30" viewBox="0 0 30 30" fill="none" xmlns="http://www.w3.org/2000/svg">
<path fill-rule="evenodd" clip-rule="evenodd" d="M15 1.875C21.472 1.875 26.7188 7.12167 26.7188 13.5938C26.7188 17.6611 23.2476 22.5451 16.3052 28.2459C16.292 28.2567 16.277 28.269 16.2603 28.2826C15.5293 28.8808 14.4709 28.881 13.7399 28.2828C6.76747 22.5663 3.28125 17.6699 3.28125 13.5938C3.28125 7.12167 8.52792 1.875 15 1.875ZM15 7.87729C11.8429 7.87729 9.28354 10.4366 9.28354 13.5938C9.28354 16.7509 11.8429 19.3102 15 19.3102C18.1556 19.3066 20.7128 16.7494 20.7165 13.5938C20.7165 10.4366 18.1571 7.87729 15 7.87729ZM15 9.59223C17.21 9.59223 19.0015 11.3838 19.0015 13.5938C18.999 15.8017 17.2079 17.5928 14.9977 17.5953C12.79 17.5953 10.9985 15.8037 10.9985 13.5938C10.9985 11.3838 12.79 9.59223 15 9.59223Z" fill="url(#paint0_linear_2955_4031)"/>
<defs>
<linearGradient id="paint0_linear_2955_4031" x1="15" y1="28.7314" x2="15" y2="1.875" gradientUnits="userSpaceOnUse">
<stop stop-color="#459CFF"/>
<stop offset="1" stop-color="#50BEFC"/>
</linearGradient>
</defs>
</svg>
