<svg width="30" height="30" viewBox="0 0 30 30" fill="none" xmlns="http://www.w3.org/2000/svg">
<path d="M15.9394 27.0083L15.9394 15.4251L25.9722 9.63042C26.0651 10.0698 26.0651 10.6065 26.0651 11.5266V18.2383C26.0651 19.3426 26.0651 19.8947 25.9045 20.3889C25.7624 20.8263 25.5299 21.2288 25.2223 21.5706C24.8745 21.9568 24.3964 22.2328 23.4401 22.785L17.6276 26.1408C16.831 26.6007 16.3662 26.869 15.9394 27.0083Z" fill="url(#paint0_linear_2955_1256)"/>
<path d="M14.0609 27.0067L14.0609 15.4252L4.0318 9.63593C3.94006 10.0743 3.94006 10.6104 3.94006 11.5266L3.94006 18.2383C3.94006 19.3426 3.94006 19.8947 4.10066 20.3889C4.24276 20.8263 4.47518 21.2288 4.78287 21.5706C5.13062 21.9568 5.60876 22.2328 6.56506 22.785L12.3776 26.1408C13.1711 26.5989 13.6354 26.867 14.0609 27.0067Z" fill="url(#paint1_linear_2955_1256)"/>
<path d="M4.96965 8.00828L15 13.7983L25.0313 8.00452C24.6976 7.70601 24.2333 7.43797 23.4401 6.97999L17.6276 3.62414C16.6713 3.07202 16.1931 2.79596 15.6848 2.68791C15.235 2.59231 14.7701 2.59231 14.3204 2.68791C13.812 2.79596 13.3339 3.07203 12.3776 3.62415L6.56506 6.98C5.76849 7.43989 5.30368 7.70825 4.96965 8.00828Z" fill="url(#paint2_linear_2955_1256)"/>
<defs>
<linearGradient id="paint0_linear_2955_1256" x1="15.0026" y1="27.0083" x2="15.0026" y2="2.61621" gradientUnits="userSpaceOnUse">
<stop stop-color="#459CFF"/>
<stop offset="1" stop-color="#50BEFC"/>
</linearGradient>
<linearGradient id="paint1_linear_2955_1256" x1="15.0026" y1="27.0083" x2="15.0026" y2="2.61621" gradientUnits="userSpaceOnUse">
<stop stop-color="#459CFF"/>
<stop offset="1" stop-color="#50BEFC"/>
</linearGradient>
<linearGradient id="paint2_linear_2955_1256" x1="15.0026" y1="27.0083" x2="15.0026" y2="2.61621" gradientUnits="userSpaceOnUse">
<stop stop-color="#459CFF"/>
<stop offset="1" stop-color="#50BEFC"/>
</linearGradient>
</defs>
</svg>
