<svg width="30" height="30" viewBox="0 0 30 30" fill="none" xmlns="http://www.w3.org/2000/svg">
<path fill-rule="evenodd" clip-rule="evenodd" d="M14.0625 15.9356V27.1875H4.6875C3.65246 27.1863 2.81369 26.3475 2.8125 25.3125V15.9375L14.0625 15.9356ZM9.375 18.75H7.5V20.625H5.625V22.5H7.5V24.375H9.375V22.5H11.25V20.625H9.375V18.75ZM24.375 15.9375H18.75V17.8125H24.375V15.9375ZM24.375 12.1875H18.75V14.0625H24.375V12.1875ZM11.25 7.5H5.625V9.375H11.25V7.5ZM25.3125 2.8125C26.3475 2.81369 27.1863 3.65246 27.1875 4.6875V25.3125C27.1863 26.3475 26.3475 27.1863 25.3125 27.1875H15.9375V2.8125H25.3125ZM2.8125 4.6875C2.81369 3.65246 3.65246 2.81369 4.6875 2.8125H14.0625V14.0606L2.8125 14.0625V4.6875Z" fill="url(#paint0_linear_2955_4795)"/>
<defs>
<linearGradient id="paint0_linear_2955_4795" x1="15" y1="2.8125" x2="15" y2="27.1875" gradientUnits="userSpaceOnUse">
<stop stop-color="#FF8E4C"/>
<stop offset="1" stop-color="#FC744F"/>
</linearGradient>
</defs>
</svg>
