<svg width="30" height="30" viewBox="0 0 30 30" fill="none" xmlns="http://www.w3.org/2000/svg">
<path fill-rule="evenodd" clip-rule="evenodd" d="M27.1875 11.25V22.3802C27.1875 24.0518 27.0135 24.658 26.6866 25.2691C26.3598 25.8802 25.8802 26.3598 25.2691 26.6866C24.658 27.0135 24.0518 27.1875 22.3802 27.1875H7.61978C5.94819 27.1875 5.34203 27.0135 4.73091 26.6866C4.1198 26.3598 3.6402 25.8802 3.31337 25.2691C2.98655 24.658 2.8125 24.0518 2.8125 22.3802V11.25H27.1875ZM21.4522 14.4561C21.0868 14.203 20.5816 14.2391 20.2562 14.5646L14.29 20.5308L10.9754 17.2162C10.6093 16.8501 10.0157 16.8501 9.64959 17.2162C9.28347 17.5823 9.28347 18.1759 9.64959 18.542L13.6271 22.5195C13.9932 22.8856 14.5868 22.8856 14.9529 22.5195L21.582 15.8904C21.9481 15.5243 21.9481 14.9307 21.582 14.5646L21.4522 14.4561ZM17.8125 3.75V5.625C17.8125 6.66053 18.652 7.5 19.6875 7.5C20.6491 7.5 21.4416 6.77617 21.5499 5.84366L21.5625 5.625V3.75H22.3802C24.0518 3.75 24.658 3.92405 25.2691 4.25087C25.8802 4.5777 26.3598 5.0573 26.6866 5.66841C26.9883 6.23252 27.1598 7.7299 27.1844 9.12746L27.1875 9.375H2.8125L2.81611 9.08002C2.84257 7.57239 3.01378 6.2286 3.31337 5.66841C3.6402 5.0573 4.1198 4.5777 4.73091 4.25087C5.29502 3.94919 5.8549 3.77768 7.25246 3.75308L8.4375 3.75V5.625C8.4375 6.66053 9.27697 7.5 10.3125 7.5C11.2741 7.5 12.0666 6.77617 12.1749 5.84366L12.1875 5.625V3.75H17.8125ZM19.6875 1.875C20.1477 1.875 20.5305 2.20664 20.6099 2.64398L20.625 2.8125V5.625C20.625 6.14277 20.2053 6.5625 19.6875 6.5625C19.1697 6.5625 18.75 6.14277 18.75 5.625V2.8125C18.75 2.29473 19.1697 1.875 19.6875 1.875ZM10.3125 1.875C10.7727 1.875 11.1555 2.20664 11.2349 2.64398L11.25 2.8125V5.625C11.25 6.14277 10.8303 6.5625 10.3125 6.5625C9.79473 6.5625 9.375 6.14277 9.375 5.625V2.8125C9.375 2.29473 9.79473 1.875 10.3125 1.875Z" fill="url(#paint0_linear_2955_5940)"/>
<defs>
<linearGradient id="paint0_linear_2955_5940" x1="15" y1="27.1875" x2="15" y2="1.875" gradientUnits="userSpaceOnUse">
<stop stop-color="#459CFF"/>
<stop offset="1" stop-color="#50BEFC"/>
</linearGradient>
</defs>
</svg>
