<svg width="30" height="30" viewBox="0 0 30 30" fill="none" xmlns="http://www.w3.org/2000/svg">
<path fill-rule="evenodd" clip-rule="evenodd" d="M15 1.875C18.6813 1.875 21.6656 4.85929 21.6656 8.54061C21.6656 9.04314 21.6088 9.54406 21.4961 10.0338C21.442 10.2694 21.386 10.503 21.3281 10.7344C21.1659 11.3834 20.9435 12.0241 20.661 12.6565C16.2348 12.6875 12.6562 16.2852 12.6562 20.7188C12.6562 23.3674 13.9334 25.7177 15.9055 27.1875H2.97656C2.62707 27.1875 2.34375 26.9042 2.34375 26.5547V24.3398C2.34375 22.6569 3.46596 21.1805 5.08752 20.73L9.78548 19.425C11.1341 19.0567 11.9259 17.6633 11.5549 16.3155C11.4684 16.0011 11.3219 15.7063 11.1215 15.449C9.86713 13.8208 9.05059 12.2493 8.67188 10.7344C8.61212 10.4953 8.55412 10.2507 8.49787 10.0004C7.69091 6.40937 9.94785 2.8441 13.5389 2.03715C14.0184 1.92938 14.5085 1.875 15 1.875ZM24.6949 16.7414C26.6191 18.6656 26.8578 21.6371 25.4109 23.8212L28.3405 26.7508C28.7799 27.1902 28.7799 27.9025 28.3405 28.3418C27.9012 28.7812 27.1889 28.7812 26.7495 28.3418L23.8199 25.4122C21.6359 26.8592 18.6642 26.6206 16.7399 24.6963C14.5432 22.4996 14.5432 18.9381 16.7399 16.7414C18.9366 14.5447 22.4982 14.5447 24.6949 16.7414ZM23.2367 23.2384C24.6279 21.8472 24.6279 19.5915 23.2367 18.2003C21.8454 16.8091 19.5898 16.8091 18.1986 18.2003C16.8073 19.5915 16.8073 21.8472 18.1986 23.2384C19.5898 24.6297 21.8454 24.6297 23.2367 23.2384Z" fill="url(#paint0_linear_2955_1916)"/>
<defs>
<linearGradient id="paint0_linear_2955_1916" x1="15.5069" y1="1.875" x2="15.5069" y2="28.6713" gradientUnits="userSpaceOnUse">
<stop stop-color="#00E0A9"/>
<stop offset="1" stop-color="#07B8AB"/>
</linearGradient>
</defs>
</svg>
