<svg width="30" height="30" viewBox="0 0 30 30" fill="none" xmlns="http://www.w3.org/2000/svg">
<path d="M2.72282 15.318C2.61144 15.2067 2.55575 15.151 2.53488 15.0867C2.51653 15.0303 2.51653 14.9694 2.53488 14.9129C2.55575 14.8487 2.61144 14.793 2.72282 14.6816L5.73275 11.6717C6.83111 10.5734 8.31508 10.2766 9.04732 11.0088C9.39199 11.3535 9.50861 11.8647 9.42103 12.4238C9.35061 12.9597 9.47093 13.447 9.80335 13.7795C10.5356 14.5117 12.0196 14.2149 13.1179 13.1165C14.2163 12.0182 14.5131 10.5342 13.7808 9.80198C13.4484 9.46953 12.961 9.3492 12.4251 9.4197C11.8659 9.50728 11.3548 9.3906 11.0102 9.04595C10.2779 8.31372 10.5747 6.82974 11.6731 5.73139L14.6818 2.7227C14.7931 2.61132 14.8488 2.55563 14.913 2.53476C14.9695 2.51641 15.0304 2.51641 15.0869 2.53476C15.1511 2.55563 15.2068 2.61132 15.3182 2.7227L27.2771 14.6816C27.3885 14.793 27.4442 14.8487 27.465 14.9129C27.4834 14.9694 27.4834 15.0303 27.465 15.0867C27.4442 15.151 27.3885 15.2067 27.2771 15.318L24.2653 18.3298C23.1672 19.4259 21.6852 19.7216 20.9535 18.9899C20.6089 18.6453 20.4922 18.1342 20.5798 17.5751C20.6503 17.0391 20.53 16.5517 20.1975 16.2193C19.4653 15.487 17.9813 15.7838 16.8829 16.8822C15.7846 17.9805 15.4878 19.4645 16.22 20.1968C16.5525 20.5292 17.0398 20.6495 17.5757 20.5791C18.1348 20.4915 18.646 20.6081 18.9907 20.9528C19.7223 21.6844 19.4266 23.1665 18.3306 24.2646L15.3182 27.277C15.2068 27.3884 15.1511 27.444 15.0869 27.4649C15.0304 27.4833 14.9695 27.4833 14.913 27.4649C14.8488 27.444 14.7931 27.3884 14.6818 27.277L2.72282 15.318Z" fill="url(#paint0_linear_2955_1875)"/>
<path d="M3.62397 22.3977C3.95641 22.0653 4.44381 21.945 4.97974 22.0155C5.53888 22.103 6.04998 21.9864 6.39463 21.6417C7.12686 20.9095 6.83007 19.4255 5.73172 18.3271L11.672 24.2675C10.5737 23.1691 9.08971 22.8723 8.35747 23.6045C8.0128 23.9492 7.89618 24.4604 7.98376 25.0196C8.05418 25.5554 7.93386 26.0428 7.60144 26.3752C6.86921 27.1074 5.38523 26.8106 4.28688 25.7123C3.18852 24.6139 2.89173 23.13 3.62397 22.3977Z" fill="url(#paint1_linear_2955_1875)"/>
<path d="M22.3979 3.62384C22.0654 3.95629 21.9451 4.44369 22.0156 4.97961C22.1032 5.53876 21.9865 6.04985 21.6418 6.39451C20.9096 7.12674 19.4256 6.82995 18.3273 5.7316L24.2676 11.6719C23.1692 10.5736 22.8724 9.08958 23.6047 8.35735C23.9493 8.01268 24.4605 7.89606 25.0197 7.98363C25.5555 8.05406 26.0429 7.93374 26.3753 7.60132C27.1076 6.86909 26.8108 5.38511 25.7124 4.28675C24.6141 3.1884 23.1301 2.89161 22.3979 3.62384Z" fill="url(#paint2_linear_2955_1875)"/>
<defs>
<linearGradient id="paint0_linear_2955_1875" x1="15" y1="2.521" x2="15" y2="27.4787" gradientUnits="userSpaceOnUse">
<stop stop-color="#30DBB1"/>
<stop offset="1" stop-color="#15C2B6"/>
</linearGradient>
<linearGradient id="paint1_linear_2955_1875" x1="15" y1="2.521" x2="15" y2="27.4787" gradientUnits="userSpaceOnUse">
<stop stop-color="#30DBB1"/>
<stop offset="1" stop-color="#15C2B6"/>
</linearGradient>
<linearGradient id="paint2_linear_2955_1875" x1="15" y1="2.521" x2="15" y2="27.4787" gradientUnits="userSpaceOnUse">
<stop stop-color="#30DBB1"/>
<stop offset="1" stop-color="#15C2B6"/>
</linearGradient>
</defs>
</svg>
