<svg width="30" height="30" viewBox="0 0 30 30" fill="none" xmlns="http://www.w3.org/2000/svg">
<path d="M28.3572 21.287C28.453 21.3122 28.5396 21.3643 28.6068 21.437C28.6741 21.5098 28.7193 21.6002 28.7369 21.6977L28.7452 21.7904V28.0404C28.7452 28.1623 28.7025 28.2803 28.6245 28.3739C28.5464 28.4677 28.4381 28.531 28.3181 28.5529L28.2244 28.5612H23.016C22.9255 28.5612 22.8366 28.5376 22.758 28.4928C22.6794 28.4479 22.6138 28.3833 22.5678 28.3054C22.5217 28.2275 22.4968 28.139 22.4952 28.0484C22.494 27.9579 22.5162 27.8686 22.5598 27.7893L22.616 27.707L24.7162 25.1852L24.8156 25.065L25.2412 24.5531L27.8244 21.4571C27.8879 21.381 27.9717 21.3245 28.0661 21.2944C28.1604 21.2643 28.2613 21.2617 28.3572 21.287ZM20.0594 18.7305C20.3517 18.7315 20.638 18.8142 20.8859 18.9691C21.1338 19.1241 21.3335 19.3452 21.4625 19.6076L23.3979 23.8857L25.4818 24.2654L25.2412 24.5531L24.8156 25.065L24.7162 25.1852L21.2542 24.5545L21.8229 25.918V28.1055H20.7813V26.1263L20.0344 24.3326L18.1771 23.9951V28.1055H17.1354V23.8055L15.3009 23.4716C14.8552 23.3905 14.5312 23.0023 14.5312 22.5493V21.0498C14.5312 20.7205 14.704 20.4154 14.9864 20.2459L17.1406 18.9534C17.3345 18.8371 17.5513 18.7642 17.776 18.7399L17.9448 18.7305H20.0594ZM15.6108 1.91224C17.2238 2.05294 18.7293 2.47916 20.1274 3.19089C21.5252 3.90264 22.7537 4.82957 23.8125 5.97167C24.8713 7.11379 25.6986 8.41727 26.2941 9.88215C26.8898 11.3387 27.1875 12.8864 27.1875 14.525C27.1875 16.2547 26.8566 17.8852 26.1949 19.4162C25.778 20.3806 25.261 21.2728 24.644 22.0927L23.1708 18.8347L23.0087 18.5368C23.1717 18.3086 23.3086 18.0621 23.4164 17.8019C23.6023 17.3532 23.6979 16.8724 23.6979 16.3867C23.6979 15.9011 23.6023 15.4202 23.4164 14.9716C23.2306 14.5229 22.9582 14.1152 22.6148 13.7718C22.2715 13.4285 21.8638 13.1561 21.4151 12.9703C20.9665 12.7845 20.4856 12.6888 20 12.6888C19.0193 12.6888 18.0787 13.0784 17.3852 13.7719C16.6917 14.4654 16.3021 15.406 16.3021 16.3867C16.3021 16.6708 16.3348 16.9516 16.4001 17.2224C16.3237 17.2607 16.2491 17.3017 16.1759 17.3456L14.0217 18.6381C13.1746 19.1464 12.6562 20.0619 12.6562 21.0498V22.5493L12.669 22.8183C12.7874 24.0595 13.7172 25.0892 14.9652 25.3163L15.2587 25.3694L15.2599 27.1676C15.019 27.1809 14.7761 27.1875 14.5312 27.1875C13.0423 27.1875 11.5988 26.9269 10.2008 26.4054C8.80284 25.884 7.52895 25.1392 6.37914 24.1708L15.313 15.4064C15.437 15.2906 15.5198 15.1747 15.5611 15.0589C15.5942 14.943 15.6108 14.8023 15.6108 14.6368V1.91224ZM3.1158 9.12488L13.2532 14.9595L5.15074 22.9667C4.13327 21.8494 3.33502 20.5582 2.75597 19.0935C2.16866 17.6286 1.875 16.1058 1.875 14.525C1.875 13.5898 1.98253 12.6546 2.19761 11.7194C2.41268 10.7842 2.71875 9.91939 3.1158 9.12488ZM17.1354 20.1711L15.7095 21.0267C15.6248 21.0775 15.5729 21.1691 15.5729 21.2678V22.2281C15.5729 22.364 15.6701 22.4805 15.8038 22.5048L17.1354 22.7472V20.1711ZM20 14.5638C20.2394 14.5638 20.4764 14.611 20.6976 14.7026C20.9188 14.7942 21.1197 14.9284 21.289 15.0977C21.4583 15.267 21.5926 15.468 21.6842 15.6891C21.7758 15.9103 21.8229 16.1473 21.8229 16.3867C21.8229 16.6261 21.7758 16.8632 21.6842 17.0843C21.5926 17.3055 21.4583 17.5064 21.289 17.6757C21.1197 17.845 20.9188 17.9793 20.6976 18.0709C20.4764 18.1625 20.2394 18.2097 20 18.2097C19.5165 18.2097 19.0529 18.0176 18.711 17.6757C18.3691 17.3339 18.1771 16.8702 18.1771 16.3867C18.1771 15.9033 18.3691 15.4396 18.711 15.0977C19.0529 14.7559 19.5165 14.5638 20 14.5638ZM13.9481 1.875V13.4326L3.93474 7.67242C4.65441 6.54686 5.54779 5.55788 6.61489 4.70543C7.67372 3.85299 8.83179 3.18263 10.0891 2.69434C11.3465 2.20605 12.6328 1.93294 13.9481 1.875Z" fill="url(#paint0_linear_2955_674)"/>
<defs>
<linearGradient id="paint0_linear_2955_674" x1="15.3101" y1="28.5612" x2="15.3101" y2="1.875" gradientUnits="userSpaceOnUse">
<stop stop-color="#459CFF"/>
<stop offset="1" stop-color="#50BEFC"/>
</linearGradient>
</defs>
</svg>
