<svg width="30" height="30" viewBox="0 0 30 30" fill="none" xmlns="http://www.w3.org/2000/svg">
<path fill-rule="evenodd" clip-rule="evenodd" d="M23.413 2.81299C24.5208 2.82008 25.1513 2.86266 25.6528 3.11813C26.1819 3.38779 26.6123 3.81807 26.8819 4.3473C27.1885 4.94897 27.1885 5.73659 27.1885 7.31183L27.1883 23.0655C27.1863 24.393 27.1629 25.1007 26.8819 25.6523C26.6123 26.1814 26.1819 26.6118 25.6528 26.8814C25.051 27.188 24.2635 27.188 22.6882 27.188L6.93457 27.1878C5.6071 27.1859 4.89932 27.1624 4.34779 26.8814C3.81856 26.6118 3.38828 26.1814 3.11862 25.6523C2.86315 25.1508 2.82057 24.5204 2.81348 23.4125V6.58706C2.82057 5.47921 2.86315 4.84869 3.11862 4.3473C3.38828 3.81807 3.81856 3.38779 4.34779 3.11813C4.84918 2.86266 5.4797 2.82008 6.58755 2.81299H23.413ZM23.8768 14.8213C23.7537 14.7889 23.6239 14.7922 23.5026 14.8309C23.3813 14.8697 23.2734 14.9422 23.1919 15.04L16.495 23.0762L16.4226 23.182C16.3665 23.284 16.338 23.3988 16.3397 23.5152C16.3416 23.6317 16.3737 23.7455 16.4329 23.8456C16.4921 23.9457 16.5764 24.0288 16.6775 24.0866C16.7785 24.1441 16.8929 24.1745 17.0093 24.1745H23.7062L23.8266 24.1638C23.9809 24.1357 24.1202 24.0543 24.2206 23.9337C24.3209 23.8134 24.3758 23.6617 24.3758 23.5049V15.4686L24.3651 15.3494C24.3424 15.2241 24.2843 15.1078 24.1979 15.0143C24.1114 14.9208 24 14.8538 23.8768 14.8213ZM12.7328 11.4505H10.0138L9.79686 11.4626C9.50787 11.4939 9.22911 11.5876 8.97985 11.7371L5.62472 13.7502V17.3665L8.97316 17.9759V23.5049H10.3125V18.2197L12.7006 18.6536L13.661 20.96V23.5049H15.0003V20.6922L14.269 18.939L19.1953 19.8336L20.1797 18.651L17.0255 18.079L14.6132 12.7537L14.5369 12.5782C14.371 12.2409 14.1142 11.9566 13.7955 11.7574C13.4767 11.5581 13.1087 11.4518 12.7328 11.4505ZM8.97316 13.3028V16.6151L6.96409 16.2495V14.5083L8.97316 13.3028ZM12.6564 6.09301C12.0348 6.09301 11.4386 6.33996 10.999 6.77953C10.5595 7.21909 10.3125 7.81528 10.3125 8.43692C10.3125 9.05855 10.5595 9.65472 10.999 10.0943C11.4386 10.5339 12.0348 10.7808 12.6564 10.7808C12.9642 10.7808 13.269 10.7202 13.5534 10.6024C13.8378 10.4846 14.0962 10.3119 14.3138 10.0943C14.5315 9.87664 14.7041 9.61825 14.8219 9.33387C14.9397 9.04951 15.0003 8.74471 15.0003 8.43692C15.0003 8.1291 14.9397 7.82432 14.8219 7.53994C14.7041 7.25556 14.5315 6.99717 14.3138 6.77953C14.0962 6.56186 13.8378 6.38922 13.5534 6.27143C13.269 6.15363 12.9642 6.09301 12.6564 6.09301Z" fill="url(#paint0_linear_2955_3654)"/>
<defs>
<linearGradient id="paint0_linear_2955_3654" x1="2.81348" y1="2.81299" x2="2.81348" y2="27.188" gradientUnits="userSpaceOnUse">
<stop stop-color="#FCCA3F"/>
<stop offset="1" stop-color="#FCAA2D"/>
</linearGradient>
</defs>
</svg>
