<svg width="30" height="30" viewBox="0 0 30 30" fill="none" xmlns="http://www.w3.org/2000/svg">
<path fill-rule="evenodd" clip-rule="evenodd" d="M13.9907 9.55428V12.0618L10.0333 5.27764C9.81873 4.91028 9.43354 4.67574 9.00869 4.65376C8.58383 4.63179 8.1765 4.82534 7.9252 5.1686L4.4582 9.90064C4.22871 9.8134 3.96653 9.83769 3.75724 10.0086C2.25788 11.2301 1.57676 13.1934 1.99758 15.081C2.4184 16.9686 3.86901 18.4567 5.74522 18.9256C7.62144 19.3945 9.60157 18.7637 10.8609 17.296C11.1375 16.9729 10.8124 16.5226 10.3904 16.5226C8.16926 16.5226 6.34388 14.8204 6.15003 12.6477C6.13992 12.5102 6.09995 12.3765 6.03292 12.256L5.95805 12.1264L8.82376 8.21159L13.9913 17.07C14.0182 18.1618 14.9117 19.0386 16.0099 19.0386H24.0869C25.2021 19.0386 26.1061 18.1346 26.1061 17.0194V4.904C26.1061 3.78881 25.2021 2.88477 24.0869 2.88477H19.1095C18.4345 2.88477 17.8041 3.22184 17.4295 3.78332L14.3299 8.43361C14.1087 8.76547 13.9907 9.15542 13.9907 9.55428ZM17.1892 9.69765L19.4103 6.3639C19.5978 6.08218 19.9139 5.91311 20.2523 5.91361H21.058C21.6156 5.91361 22.0676 6.36563 22.0676 6.92323V11.9713C22.0676 12.5289 21.6156 12.9809 21.058 12.9809H18.0292C17.4716 12.9809 17.0196 12.5289 17.0196 11.9713V10.257C17.0197 10.0579 17.0787 9.86329 17.1892 9.69765ZM28.125 24.0867C28.125 22.4139 26.7689 21.0578 25.0962 21.0578H4.90385C3.23106 21.0578 1.875 22.4139 1.875 24.0867C1.875 25.7595 3.23106 27.1155 4.90385 27.1155H25.0962C26.7689 27.1155 28.125 25.7595 28.125 24.0867ZM4.90385 24.0867C4.90385 23.5291 5.35587 23.0771 5.91346 23.0771C6.47106 23.0771 6.92308 23.5291 6.92308 24.0867C6.92308 24.6443 6.47106 25.0963 5.91346 25.0963C5.35587 25.0963 4.90385 24.6443 4.90385 24.0867ZM9.44712 24.0867C9.44712 23.5291 9.89914 23.0771 10.4567 23.0771C11.0143 23.0771 11.4663 23.5291 11.4663 24.0867C11.4663 24.6443 11.0143 25.0963 10.4567 25.0963C9.89914 25.0963 9.44712 24.6443 9.44712 24.0867ZM13.9904 24.0867C13.9904 23.5291 14.4424 23.0771 15 23.0771C15.5576 23.0771 16.0096 23.5291 16.0096 24.0867C16.0096 24.6443 15.5576 25.0963 15 25.0963C14.4424 25.0963 13.9904 24.6443 13.9904 24.0867ZM18.5337 24.0867C18.5337 23.5291 18.9857 23.0771 19.5433 23.0771C20.1009 23.0771 20.5529 23.5291 20.5529 24.0867C20.5529 24.6443 20.1009 25.0963 19.5433 25.0963C18.9857 25.0963 18.5337 24.6443 18.5337 24.0867ZM23.0769 24.0867C23.0769 23.5291 23.5289 23.0771 24.0865 23.0771C24.6441 23.0771 25.0962 23.5291 25.0962 24.0867C25.0962 24.6443 24.6441 25.0963 24.0865 25.0963C23.5289 25.0963 23.0769 24.6443 23.0769 24.0867Z" fill="url(#paint0_linear_2955_3707)"/>
<defs>
<linearGradient id="paint0_linear_2955_3707" x1="15" y1="2.88477" x2="15" y2="27.1155" gradientUnits="userSpaceOnUse">
<stop stop-color="#30DBB1"/>
<stop offset="1" stop-color="#15C2B6"/>
</linearGradient>
</defs>
</svg>
