<svg width="30" height="30" viewBox="0 0 30 30" fill="none" xmlns="http://www.w3.org/2000/svg">
<path d="M25.2697 12.1879C25.4436 12.1873 25.6084 12.2693 25.7179 12.4109C25.8291 12.5542 25.8713 12.743 25.8328 12.9232L24.8389 17.612H27.5679C27.7877 17.6115 27.9883 17.7425 28.0851 17.9495C28.1689 18.1477 28.1447 18.3778 28.0219 18.5521L19.7483 28.7976C19.6459 28.9567 19.4773 29.0552 19.2945 29.0627C19.2176 29.0612 19.1417 29.0449 19.0704 29.0145C18.8286 28.9074 18.6866 28.6419 18.7256 28.3697L19.7713 21.228H16.9963C16.8179 21.2331 16.6475 21.1509 16.535 21.0058C16.4225 20.8605 16.3806 20.6689 16.4217 20.4868L18.1453 12.652C18.2079 12.3741 18.4478 12.1803 18.7199 12.1879H25.2697ZM22.5 1.875C24.0533 1.875 25.3125 3.1342 25.3125 4.6875L25.3142 10.3133L18.7199 10.3129C17.5889 10.2805 16.5722 11.1017 16.316 12.2406L14.5905 20.0839C14.429 20.7997 14.5959 21.5641 15.0526 22.1539L15.2209 22.349C15.6939 22.843 16.3546 23.122 17.0495 23.1022L17.6006 23.1021L16.8704 28.0981L16.8675 28.125H7.5C5.9467 28.125 4.6875 26.8658 4.6875 25.3125V23.9062H6.5625C7.77602 23.9062 8.77413 22.984 8.89415 21.8021L8.90625 21.5625C8.90625 20.2681 7.85692 19.2188 6.5625 19.2188H4.6875V17.3438H6.5625C7.77602 17.3438 8.77413 16.4215 8.89415 15.2396L8.90625 15C8.90625 13.7056 7.85692 12.6562 6.5625 12.6562H4.6875V10.7812H6.5625C7.77602 10.7812 8.77413 9.85898 8.89415 8.67713L8.90625 8.4375C8.90625 7.14308 7.85692 6.09375 6.5625 6.09375H4.6875V4.6875C4.6875 3.1342 5.9467 1.875 7.5 1.875H22.5ZM3.75 22.5C3.23223 22.5 2.8125 22.0803 2.8125 21.5625C2.8125 21.0447 3.23223 20.625 3.75 20.625H6.5625C7.08027 20.625 7.5 21.0447 7.5 21.5625L7.4849 21.731C7.41544 22.1137 7.11369 22.4154 6.73102 22.4849L6.5625 22.5H3.75ZM3.75 15.9375C3.23223 15.9375 2.8125 15.5178 2.8125 15C2.8125 14.4822 3.23223 14.0625 3.75 14.0625H6.5625C7.08027 14.0625 7.5 14.4822 7.5 15C7.5 15.4602 7.16836 15.843 6.73102 15.9224L6.5625 15.9375H3.75ZM3.75 9.375C3.23223 9.375 2.8125 8.95527 2.8125 8.4375C2.8125 7.91973 3.23223 7.5 3.75 7.5H4.6875H6.5625C7.08027 7.5 7.5 7.91973 7.5 8.4375C7.5 8.89774 7.16836 9.28052 6.73102 9.3599L6.5625 9.375H3.75Z" fill="url(#paint0_linear_2955_2146)"/>
<defs>
<linearGradient id="paint0_linear_2955_2146" x1="15.4735" y1="1.875" x2="15.4735" y2="29.0627" gradientUnits="userSpaceOnUse">
<stop stop-color="#FF8E4C"/>
<stop offset="1" stop-color="#FC744F"/>
</linearGradient>
</defs>
</svg>
