<svg width="30" height="30" viewBox="0 0 30 30" fill="none" xmlns="http://www.w3.org/2000/svg">
<path fill-rule="evenodd" clip-rule="evenodd" d="M23.4122 2.81396C24.52 2.82106 25.1505 2.86364 25.6519 3.11909C26.181 3.38873 26.6113 3.81899 26.8809 4.34819C27.1875 4.94982 27.1875 5.7374 27.1875 7.31255L27.1873 23.0653C27.1854 24.3927 27.1619 25.1004 26.8809 25.6519C26.6113 26.181 26.181 26.6114 25.6519 26.881C25.0502 27.1875 24.2627 27.1875 22.6875 27.1875L6.93476 27.1874C5.60736 27.1854 4.89962 27.162 4.34813 26.881C3.81893 26.6114 3.38867 26.181 3.11903 25.6519C2.86358 25.1505 2.821 24.5201 2.8139 23.4123V6.58782C2.821 5.48004 2.86358 4.84955 3.11903 4.34819C3.38867 3.81899 3.81893 3.38873 4.34813 3.11909C4.84949 2.86364 5.47997 2.82106 6.58776 2.81396H23.4122ZM16.7812 11.25H15.3754L12.0941 12.6563V13.5938H14.4375V21.5625L11.25 22.5V23.4377H19.6875V22.5L16.7812 21.5625V11.25ZM23.4375 6.0938H6.56248C6.04472 6.0938 5.62498 6.51353 5.62498 7.0313C5.62498 7.54906 6.04472 7.9688 6.56248 7.9688H23.4375C23.9552 7.9688 24.375 7.54906 24.375 7.0313C24.375 6.51353 23.9552 6.0938 23.4375 6.0938Z" fill="url(#paint0_linear_2955_3703)"/>
<defs>
<linearGradient id="paint0_linear_2955_3703" x1="15.0007" y1="27.1875" x2="15.0007" y2="2.81396" gradientUnits="userSpaceOnUse">
<stop stop-color="#459CFF"/>
<stop offset="1" stop-color="#50BEFC"/>
</linearGradient>
</defs>
</svg>
