<svg width="30" height="30" viewBox="0 0 30 30" fill="none" xmlns="http://www.w3.org/2000/svg">
<path fill-rule="evenodd" clip-rule="evenodd" d="M3.75 9.84375C3.75 12.9504 8.7868 15.4688 15 15.4688C21.2132 15.4688 26.25 12.9504 26.25 9.84375V15C26.25 18.1066 21.2132 20.625 15 20.625C8.7868 20.625 3.75 18.1066 3.75 15V9.84375ZM26.25 17.3438V22.5C26.25 25.6066 21.2132 28.125 15 28.125C8.7868 28.125 3.75 25.6066 3.75 22.5V17.3438C3.75 20.4504 8.7868 22.9688 15 22.9688C21.2132 22.9688 26.25 20.4504 26.25 17.3438ZM15 1.875C21.2132 1.875 26.25 4.3934 26.25 7.5C26.25 10.6066 21.2132 13.125 15 13.125C8.7868 13.125 3.75 10.6066 3.75 7.5C3.75 4.3934 8.7868 1.875 15 1.875Z" fill="url(#paint0_linear_2955_5958)"/>
<defs>
<linearGradient id="paint0_linear_2955_5958" x1="15" y1="28.125" x2="15" y2="1.875" gradientUnits="userSpaceOnUse">
<stop stop-color="#459CFF"/>
<stop offset="1" stop-color="#50BEFC"/>
</linearGradient>
</defs>
</svg>
