<svg width="30" height="30" viewBox="0 0 30 30" fill="none" xmlns="http://www.w3.org/2000/svg">
<path fill-rule="evenodd" clip-rule="evenodd" d="M23.4375 3.28125C24.3991 3.28125 25.1916 4.00508 25.2999 4.93759L25.3125 5.15625V7.96875C25.3125 8.93032 24.5887 9.72283 23.6562 9.83114L23.4375 9.84375H15.9375V13.5938H22.5C23.5355 13.5938 24.375 14.4332 24.375 15.4688V20.2926C25.7296 20.6965 26.7188 21.9516 26.7188 23.4375C26.7188 25.2497 25.2497 26.7188 23.4375 26.7188C21.6253 26.7188 20.1562 25.2497 20.1562 23.4375C20.1562 21.951 21.1444 20.6953 22.5 20.292V15.4688H15.9375V20.3906H17.1094C17.6271 20.3906 18.0469 20.8104 18.0469 21.3281V25.5469C18.0469 26.0646 17.6271 26.4844 17.1094 26.4844H12.8906C12.3729 26.4844 11.9531 26.0646 11.9531 25.5469V21.3281C11.9531 20.8104 12.3729 20.3906 12.8906 20.3906H14.0625V15.4688H7.5V20.2926C8.8546 20.6965 9.84375 21.9516 9.84375 23.4375C9.84375 25.2497 8.37468 26.7188 6.5625 26.7188C4.75032 26.7188 3.28125 25.2497 3.28125 23.4375C3.28125 21.951 4.26945 20.6953 5.625 20.292V15.4688C5.625 14.4332 6.46447 13.5938 7.5 13.5938H14.0625V9.84375H6.5625C5.60093 9.84375 4.80842 9.11992 4.70011 8.18741L4.6875 7.96875V5.15625C4.6875 4.19468 5.41133 3.40217 6.34384 3.29386L6.5625 3.28125H23.4375ZM6.5625 22.0312C5.78585 22.0312 5.15625 22.6608 5.15625 23.4375C5.15625 24.2142 5.78585 24.8438 6.5625 24.8438C7.33915 24.8438 7.96875 24.2142 7.96875 23.4375C7.96875 22.6608 7.33915 22.0312 6.5625 22.0312ZM23.4375 22.0312C22.6608 22.0312 22.0312 22.6608 22.0312 23.4375C22.0312 24.2142 22.6608 24.8438 23.4375 24.8438C24.2142 24.8438 24.8438 24.2142 24.8438 23.4375C24.8438 22.6608 24.2142 22.0312 23.4375 22.0312ZM16.4062 22.0312H13.5938V24.8438H16.4062V22.0312ZM8.90625 5.15625C8.1296 5.15625 7.5 5.78585 7.5 6.5625C7.5 7.33915 8.1296 7.96875 8.90625 7.96875C9.6829 7.96875 10.3125 7.33915 10.3125 6.5625C10.3125 5.78585 9.6829 5.15625 8.90625 5.15625Z" fill="url(#paint0_linear_2955_3662)"/>
<defs>
<linearGradient id="paint0_linear_2955_3662" x1="15" y1="3.28125" x2="15" y2="26.7188" gradientUnits="userSpaceOnUse">
<stop stop-color="#30DBB1"/>
<stop offset="1" stop-color="#15C2B6"/>
</linearGradient>
</defs>
</svg>
