<svg width="30" height="30" viewBox="0 0 30 30" fill="none" xmlns="http://www.w3.org/2000/svg">
<path fill-rule="evenodd" clip-rule="evenodd" d="M12.2699 3.75C13.1083 3.75 13.9031 4.12408 14.4374 4.77026L15.3569 5.88233C15.7131 6.31311 16.2429 6.5625 16.8019 6.5625H25.3125C26.8658 6.5625 28.125 7.82169 28.125 9.375V23.4375C28.125 24.9908 26.8658 26.25 25.3125 26.25H4.6875C3.13419 26.25 1.875 24.9908 1.875 23.4375V6.5625C1.875 5.00919 3.13419 3.75 4.6875 3.75H12.2699ZM20.6873 15.3313C20.2039 15.3313 19.812 15.7231 19.812 16.2065V16.8589C19.8099 17.4936 19.5568 18.1017 19.1079 18.5506C18.6592 18.9994 18.0511 19.2525 17.4164 19.2548H12.5084L12.9761 18.7871C13.3179 18.4452 13.3179 17.8911 12.9761 17.5493C12.6343 17.2075 12.0801 17.2075 11.7383 17.5493L9.77661 19.5109C9.43479 19.8527 9.43479 20.4069 9.77661 20.7487L11.7383 22.7104C12.0801 23.0522 12.6343 23.0522 12.9761 22.7104C13.3179 22.3686 13.3179 21.8145 12.9761 21.4727L12.5086 21.0052L17.4205 21.0051C18.518 21.0019 19.5696 20.5644 20.3458 19.7884C21.1219 19.0123 21.5593 17.9606 21.5625 16.8631V16.2065C21.5625 15.7231 21.1706 15.3313 20.6873 15.3313ZM18.248 10.0981C17.9062 9.75632 17.352 9.75632 17.0102 10.0981C16.9454 10.1629 16.8929 10.2353 16.8527 10.3125C16.6807 10.6424 16.7332 11.0589 17.0102 11.3359L17.4777 11.8034H12.5777C11.4802 11.8067 10.4285 12.2441 9.65241 13.0202C8.87633 13.7963 8.43887 14.8479 8.43559 15.9455V16.602C8.43559 17.0854 8.82744 17.4772 9.31084 17.4772C9.79423 17.4772 10.1861 17.0854 10.1861 16.602V15.9495C10.1883 15.3149 10.4414 14.7068 10.8902 14.258C11.339 13.8092 11.947 13.5561 12.5817 13.5539H17.4778L17.0102 14.0215C16.6684 14.3633 16.6684 14.9175 17.0102 15.2593C17.352 15.6011 17.9062 15.6011 18.248 15.2593L20.2097 13.2976C20.5515 12.9558 20.5515 12.4016 20.2097 12.0598L18.4624 10.3125L18.248 10.0981Z" fill="url(#paint0_linear_2955_1764)"/>
<defs>
<linearGradient id="paint0_linear_2955_1764" x1="15" y1="3.75" x2="15" y2="26.25" gradientUnits="userSpaceOnUse">
<stop stop-color="#30DBB1"/>
<stop offset="1" stop-color="#15C2B6"/>
</linearGradient>
</defs>
</svg>
