<svg width="30" height="30" viewBox="0 0 30 30" fill="none" xmlns="http://www.w3.org/2000/svg">
<path fill-rule="evenodd" clip-rule="evenodd" d="M4.91516 25.5019C4.42429 25.011 4.09606 24.4639 3.93047 23.8607C3.77079 23.2634 3.78557 22.6661 3.97482 22.0687C4.16999 21.4655 4.54849 20.9155 5.11032 20.4187C5.55979 20.0165 6.09206 19.5996 6.70713 19.1679C7.3281 18.7361 7.98457 18.2837 8.67651 17.8106C9.52451 17.2357 10.3293 16.6153 11.1059 15.9628L14.4252 19.2783C14.0026 19.7842 13.5934 20.3021 13.2008 20.8356C12.7454 21.4625 12.3107 22.0687 11.8967 22.6542C11.4887 23.2397 11.122 23.7631 10.7967 24.2244C10.4714 24.6916 10.2023 25.0524 9.98944 25.3067C9.5104 25.8804 8.96926 26.2589 8.36603 26.4422C7.76279 26.6314 7.1566 26.6433 6.54745 26.4777C5.94421 26.3121 5.40011 25.9868 4.91516 25.5019ZM18.2843 15.1654L15.2178 12.0989C15.4889 11.804 15.6799 11.4903 15.7908 11.1576C15.9209 10.7791 15.9978 10.3829 16.0214 9.9689C16.0451 9.549 16.0599 9.11727 16.0658 8.67372C16.0717 8.22425 16.1131 7.7659 16.19 7.29869C16.2728 6.83148 16.4325 6.36427 16.669 5.89706C16.9115 5.42393 17.2782 4.9508 17.769 4.47768C18.2717 3.99864 18.8454 3.64379 19.49 3.41314C20.1347 3.17658 20.8 3.06421 21.486 3.07604C22.1721 3.08787 22.8374 3.22981 23.482 3.50185C24.1326 3.76799 24.7151 4.16423 25.2296 4.69058C25.413 4.87983 25.5727 5.075 25.7087 5.27608C25.8447 5.47124 25.9393 5.64571 25.9926 5.79947L22.6659 6.68659C22.2697 6.79304 22.0006 6.97933 21.8586 7.24547C21.7226 7.50568 21.6989 7.8073 21.7877 8.15032L23.2957 13.6504C22.8699 13.8219 22.4471 13.9254 22.0272 13.9609C21.6073 13.9905 21.1903 14.0171 20.7763 14.0407C20.3624 14.0644 19.9543 14.1442 19.5521 14.2803C19.1559 14.4163 18.7685 14.6765 18.39 15.0609L18.2843 15.1654ZM7.42569 24.0825C7.72731 24.0825 7.98457 23.976 8.19747 23.7631C8.41038 23.5502 8.51683 23.2929 8.51683 22.9913C8.51683 22.6897 8.41038 22.4324 8.19747 22.2195C7.98457 22.0007 7.7273 21.8913 7.42569 21.8913C7.12407 21.8913 6.86385 22.0007 6.64503 22.2195C6.43212 22.4324 6.32567 22.6897 6.32567 22.9913C6.32567 23.2929 6.43212 23.5502 6.64503 23.7631C6.86385 23.976 7.12407 24.0825 7.42569 24.0825ZM18.1505 9.8447L20.2086 9.30357C20.2973 9.274 20.3683 9.22077 20.4215 9.14389C20.4747 9.06109 20.4836 8.96942 20.4481 8.86888C20.4245 8.77426 20.3712 8.70329 20.2884 8.65597C20.2056 8.60866 20.1228 8.59683 20.04 8.62049L17.9642 9.17937C17.8755 9.20894 17.8045 9.26512 17.7513 9.34792C17.704 9.43072 17.6951 9.51056 17.7247 9.58744C17.7543 9.69389 17.8075 9.77078 17.8844 9.81809C17.9672 9.85949 18.0559 9.86836 18.1505 9.8447ZM18.4166 10.9004L20.4659 10.3592C20.5605 10.3297 20.6315 10.2764 20.6788 10.1995C20.732 10.1168 20.7438 10.0251 20.7142 9.92454C20.6906 9.82992 20.6374 9.76191 20.5546 9.72051C20.4718 9.6732 20.386 9.65841 20.2973 9.67615L18.2303 10.2439C18.1357 10.2676 18.0647 10.3208 18.0174 10.4036C17.9701 10.4864 17.9583 10.5662 17.9819 10.6431C18.0588 10.8738 18.2037 10.9595 18.4166 10.9004ZM18.6739 11.956L20.7497 11.3972C20.8325 11.3794 20.8976 11.3291 20.9449 11.2463C20.9922 11.1576 21.004 11.0689 20.9804 10.9802C20.9626 10.8915 20.9124 10.8235 20.8296 10.7762C20.7468 10.7289 20.6581 10.72 20.5634 10.7496L18.5053 11.2996C18.2865 11.3587 18.2037 11.4918 18.257 11.6988C18.2747 11.8052 18.325 11.8821 18.4078 11.9294C18.4906 11.9767 18.5793 11.9856 18.6739 11.956ZM24.2716 13.2246L23.278 9.57857C23.4199 9.60223 23.556 9.6111 23.6861 9.60518C23.8221 9.59336 23.964 9.56674 24.1119 9.52534L26.7998 8.78904C26.9122 9.33314 26.8353 9.94524 26.5692 10.6254C26.309 11.3055 25.8979 11.8998 25.3361 12.4085C25.1528 12.58 24.9724 12.7337 24.795 12.8698C24.6175 13.0058 24.4431 13.1241 24.2716 13.2246ZM15.4487 22.0316L15.256 21.8389C15.0188 21.595 14.8969 21.3281 14.8903 21.0382C14.8903 20.7482 15.0122 20.4813 15.256 20.2374L19.3882 16.0954C19.632 15.8516 19.8989 15.7329 20.1889 15.7395C20.4789 15.7527 20.7458 15.8812 20.9896 16.1251L21.1724 16.3177C20.9879 16.5879 20.9088 16.8812 20.9352 17.1975C20.9615 17.5139 21.0933 17.7907 21.3306 18.0279C21.5744 18.2652 21.8512 18.397 22.161 18.4233C22.4773 18.4497 22.7706 18.3673 23.0408 18.1762L25.5135 20.6588C26.2318 21.3837 26.591 22.1119 26.591 22.8435C26.5976 23.5816 26.2549 24.2999 25.5629 24.9985L24.1394 26.4121C23.4408 27.1107 22.7192 27.4567 21.9745 27.4501C21.2363 27.4435 20.5081 27.0843 19.7898 26.3726L17.3171 23.8999C17.5082 23.6363 17.5906 23.343 17.5642 23.0201C17.5444 22.7038 17.4126 22.4237 17.1688 22.1798C16.9315 21.9492 16.6547 21.8207 16.3384 21.7943C16.0221 21.7745 15.7255 21.8536 15.4487 22.0316ZM19.192 22.127C19.192 22.2391 19.2315 22.3346 19.3106 22.4137L22.2464 25.3693C22.3189 25.4484 22.4145 25.4846 22.5331 25.478C22.6517 25.4715 22.7539 25.4352 22.8395 25.3693C22.9252 25.2968 22.9614 25.2012 22.9483 25.0826C22.9417 24.9706 22.9021 24.8783 22.8296 24.8058L19.8741 21.8503C19.7884 21.7712 19.6928 21.7316 19.5874 21.7316C19.4819 21.7382 19.3963 21.7745 19.3304 21.8404C19.2447 21.926 19.1986 22.0216 19.192 22.127ZM20.8725 20.4366C20.8725 20.5421 20.9186 20.6442 21.0109 20.7431L23.9368 23.6591C24.0225 23.7382 24.1214 23.7777 24.2334 23.7777C24.3454 23.7843 24.4377 23.7448 24.5102 23.6591C24.5827 23.58 24.6189 23.4845 24.6189 23.3724C24.6189 23.267 24.5827 23.178 24.5102 23.1055L21.5744 20.1499C21.4953 20.0643 21.3997 20.0247 21.2877 20.0313C21.1757 20.0379 21.0834 20.0774 21.0109 20.1499C20.9186 20.2422 20.8725 20.3378 20.8725 20.4366ZM5.47068 9.79962C5.31911 9.70077 5.19719 9.56566 5.10492 9.39431L3.28599 6.0629C3.2069 5.91132 3.16077 5.77622 3.14759 5.65759C3.13441 5.53896 3.17725 5.43022 3.2761 5.33137L4.44259 4.15499C4.54804 4.05614 4.66007 4.0133 4.7787 4.02648C4.89733 4.03966 5.02913 4.0825 5.17412 4.15499L8.52531 5.98381C8.69007 6.07608 8.82187 6.20129 8.92073 6.35946C9.01958 6.51104 9.07231 6.65932 9.0789 6.80431L9.12832 7.88183L17.7841 16.5376L15.6636 18.658L7.00294 10.0072L5.94519 9.9479C5.78702 9.9479 5.62885 9.89848 5.47068 9.79962Z" fill="url(#paint0_linear_2955_3610)"/>
<defs>
<linearGradient id="paint0_linear_2955_3610" x1="14.9976" y1="27.4502" x2="14.9976" y2="3.0752" gradientUnits="userSpaceOnUse">
<stop stop-color="#459CFF"/>
<stop offset="1" stop-color="#50BEFC"/>
</linearGradient>
</defs>
</svg>
