<svg width="30" height="30" viewBox="0 0 30 30" fill="none" xmlns="http://www.w3.org/2000/svg">
<path fill-rule="evenodd" clip-rule="evenodd" d="M26.2501 3.75C27.2856 3.75 28.1251 4.58947 28.1251 5.625L28.1256 9.62389C28.1256 9.93221 27.9741 10.2208 27.7202 10.3959C27.5359 10.5229 27.3909 10.6316 27.2853 10.7219C26.078 11.7536 25.3126 13.2874 25.3126 15C25.3126 16.7422 26.1046 18.2994 27.3482 19.3311L27.4506 19.4124L27.7182 19.6048C27.9733 19.7795 28.1256 20.0688 28.1256 20.378L28.1251 24.375C28.1251 25.4105 27.2856 26.25 26.2501 26.25H3.7501C2.71456 26.25 1.875 25.4105 1.875 24.375V20.3785C1.875 20.0692 2.02761 19.7798 2.28284 19.605L2.52972 19.4282C2.56462 19.4018 2.59639 19.3768 2.62503 19.3533C3.88413 18.3218 4.6876 16.7547 4.6876 15C4.6876 13.2432 3.88226 11.6746 2.62064 10.6431L2.52649 10.5692L2.28299 10.395C2.02765 10.2202 1.875 9.93076 1.875 9.62136V5.625C1.875 4.58947 2.71456 3.75 3.7501 3.75H26.2501ZM11.7263 8.4375H9.5626L12.8101 14.0625H10.3126V15.9375H14.0607V17.8125H10.3126V19.6875H14.0607L14.0626 22.5H15.9376L15.9357 19.6875H19.6876V17.8125H15.9357V15.9375H19.6876V14.0625H17.1826L20.4301 8.4375H18.2645L15.017 14.0625H14.9757L11.7263 8.4375Z" fill="url(#paint0_linear_2955_5920)"/>
<defs>
<linearGradient id="paint0_linear_2955_5920" x1="15.0003" y1="3.75" x2="15.0003" y2="26.25" gradientUnits="userSpaceOnUse">
<stop stop-color="#FF8E4C"/>
<stop offset="1" stop-color="#FC744F"/>
</linearGradient>
</defs>
</svg>
