<svg width="30" height="30" viewBox="0 0 30 30" fill="none" xmlns="http://www.w3.org/2000/svg">
<path d="M24.434 26.7253H5.54142C5.27099 26.7253 5.04155 26.6269 4.85307 26.4303C4.6646 26.2418 4.57036 26.0123 4.57036 25.7419C4.57036 25.4633 4.6646 25.2257 4.85307 25.029C5.04155 24.8323 5.27099 24.734 5.54142 24.734H7.06561V16.5845C7.06561 15.4618 7.26637 14.4211 7.66791 13.4623C8.06944 12.4954 8.63077 11.6513 9.35189 10.9302C10.073 10.2091 10.913 9.64778 11.8717 9.24624C12.8305 8.83651 13.8712 8.63165 14.9939 8.63165C16.1165 8.63165 17.1572 8.83651 18.116 9.24624C19.0829 9.64778 19.927 10.2091 20.6481 10.9302C21.3692 11.6513 21.9306 12.4954 22.3321 13.4623C22.7336 14.4211 22.9344 15.4618 22.9344 16.5845V24.734H24.434C24.7044 24.734 24.938 24.8323 25.1346 25.029C25.3395 25.2257 25.4419 25.4633 25.4419 25.7419C25.4419 26.0123 25.3395 26.2418 25.1346 26.4303C24.938 26.6269 24.7044 26.7253 24.434 26.7253ZM16.0264 16.6214C16.0264 16.3427 15.9239 16.101 15.7191 15.8961C15.5142 15.6913 15.2725 15.5888 14.9939 15.5888C14.707 15.5888 14.4653 15.6913 14.2686 15.8961C14.0802 16.101 13.9859 16.3427 13.9859 16.6214L13.9859 24.734H16.0264V16.6214ZM4.34234 17.4695H1.98231C1.6955 17.4695 1.44966 17.3671 1.2448 17.1622C1.03993 16.9491 0.9375 16.7033 0.9375 16.4247C0.9375 16.1297 1.03993 15.8797 1.2448 15.6749C1.44966 15.4618 1.6955 15.3553 1.98231 15.3553H4.34234C4.62915 15.3553 4.87909 15.4618 5.09215 15.6749C5.3134 15.8797 5.42403 16.1297 5.42403 16.4247C5.42403 16.7115 5.3134 16.9573 5.09215 17.1622C4.87909 17.3671 4.62915 17.4695 4.34234 17.4695ZM6.72015 9.6383L5.04845 7.9666C4.84359 7.76174 4.74116 7.5159 4.74116 7.22909C4.74116 6.93409 4.84359 6.68415 5.04845 6.47929C5.26151 6.27442 5.51555 6.17199 5.81055 6.17199C6.10555 6.17199 6.35139 6.27442 6.54806 6.47929L8.20746 8.15098C8.41233 8.35584 8.51476 8.60168 8.51476 8.88849C8.52295 9.1753 8.42052 9.42524 8.20746 9.6383C8.0026 9.85135 7.75266 9.95788 7.45766 9.95788C7.17085 9.94969 6.92501 9.84316 6.72015 9.6383ZM13.9368 5.77318V3.41314C13.9368 3.12633 14.0392 2.8764 14.2441 2.66334C14.4571 2.45028 14.707 2.34375 14.9939 2.34375C15.2807 2.34375 15.5306 2.45028 15.7437 2.66334C15.9567 2.8764 16.0632 3.12633 16.0632 3.41314V5.77318C16.0632 6.05999 15.9567 6.30992 15.7437 6.52298C15.5388 6.73604 15.2889 6.84257 14.9939 6.84257C14.707 6.84257 14.4571 6.73604 14.2441 6.52298C14.0392 6.30992 13.9368 6.05999 13.9368 5.77318ZM21.768 8.15098L23.4519 6.47929C23.6568 6.27442 23.9026 6.17199 24.1894 6.17199C24.4763 6.17199 24.7262 6.27442 24.9393 6.47929C25.1441 6.68415 25.2465 6.93409 25.2465 7.22909C25.2465 7.5159 25.1441 7.76174 24.9393 7.9666L23.2553 9.6383C23.0586 9.84316 22.8128 9.94969 22.5178 9.95788C22.2309 9.95788 21.981 9.85135 21.768 9.6383C21.5631 9.42524 21.4607 9.1753 21.4607 8.88849C21.4607 8.60168 21.5631 8.35584 21.768 8.15098ZM27.9931 17.4695H25.6331C25.3463 17.4695 25.0963 17.3671 24.8833 17.1622C24.6784 16.9573 24.576 16.7115 24.576 16.4247C24.576 16.1297 24.6784 15.8797 24.8833 15.6749C25.0963 15.4618 25.3463 15.3553 25.6331 15.3553H27.9931C28.2799 15.3553 28.5299 15.4618 28.7429 15.6749C28.956 15.8797 29.0625 16.1297 29.0625 16.4247C29.0625 16.7033 28.956 16.9491 28.7429 17.1622C28.5299 17.3671 28.2799 17.4695 27.9931 17.4695Z" fill="url(#paint0_linear_2955_3714)"/>
<defs>
<linearGradient id="paint0_linear_2955_3714" x1="0.9375" y1="2.34375" x2="0.9375" y2="26.7253" gradientUnits="userSpaceOnUse">
<stop stop-color="#FCCA3F"/>
<stop offset="1" stop-color="#FCAA2D"/>
</linearGradient>
</defs>
</svg>
