<svg width="30" height="30" viewBox="0 0 30 30" fill="none" xmlns="http://www.w3.org/2000/svg">
<path fill-rule="evenodd" clip-rule="evenodd" d="M15 28.125C22.2487 28.125 28.125 22.2487 28.125 15C28.125 7.75126 22.2487 1.875 15 1.875C7.75126 1.875 1.875 7.75126 1.875 15C1.875 22.2487 7.75126 28.125 15 28.125ZM18.0262 10.0713C19.9504 11.9955 20.1891 14.9671 18.7422 17.1511L21.6718 20.0808C22.1111 20.5201 22.1111 21.2324 21.6718 21.6717C21.2325 22.1111 20.5202 22.1111 20.0808 21.6717L17.1512 18.7421C14.9671 20.1892 11.9955 19.9505 10.0712 18.0262C7.87453 15.8295 7.87453 12.268 10.0712 10.0713C12.2679 7.87459 15.8295 7.87459 18.0262 10.0713ZM16.568 16.5684C17.9592 15.1771 17.9592 12.9215 16.568 11.5302C15.1767 10.139 12.9211 10.139 11.5299 11.5302C10.1386 12.9215 10.1386 15.1771 11.5299 16.5684C12.9211 17.9596 15.1767 17.9596 16.568 16.5684Z" fill="url(#paint0_linear_2955_664)"/>
<defs>
<linearGradient id="paint0_linear_2955_664" x1="15" y1="1.875" x2="15" y2="28.125" gradientUnits="userSpaceOnUse">
<stop stop-color="#30DBB1"/>
<stop offset="1" stop-color="#15C2B6"/>
</linearGradient>
</defs>
</svg>
