<svg width="30" height="30" viewBox="0 0 30 30" fill="none" xmlns="http://www.w3.org/2000/svg">
<path fill-rule="evenodd" clip-rule="evenodd" d="M26.249 25.3124V14.0624H18.749V25.3124H14.999V10.3124H7.49902V25.3124H4.68652V2.81236H2.81152V25.3124C2.81152 26.3479 3.65099 27.1874 4.68652 27.1874H28.124V25.3124H26.249ZM13.124 12.1874V17.8124H9.37402V12.1874H13.124ZM24.374 15.9374V21.5624H20.624V15.9374H24.374ZM22.298 12.1874C21.9005 12.1875 21.5133 12.0606 21.193 11.825L11.4404 4.67517L8.66331 8.43736L7.15909 7.31845L9.95396 3.56845C10.5583 2.75461 11.7005 2.5693 12.5311 3.15032L22.3012 10.3128L25.6804 5.75536L27.1865 6.87229L23.8073 11.4296C23.4527 11.9071 22.8928 12.1882 22.298 12.1874Z" fill="url(#paint0_linear_2955_4112)"/>
<defs>
<linearGradient id="paint0_linear_2955_4112" x1="15.4678" y1="2.81201" x2="15.4678" y2="27.1874" gradientUnits="userSpaceOnUse">
<stop stop-color="#30DBB1"/>
<stop offset="1" stop-color="#15C2B6"/>
</linearGradient>
</defs>
</svg>
