<svg width="30" height="30" viewBox="0 0 30 30" fill="none" xmlns="http://www.w3.org/2000/svg">
<path fill-rule="evenodd" clip-rule="evenodd" d="M27.9476 19.1874C28.6916 19.4166 28.9912 20.9636 27.75 21.3713C27.1923 21.5551 26.6593 21.7232 26.1412 21.8787L25.8321 21.9705C25.2172 22.1513 24.621 22.3149 24.0267 22.4666L23.7297 22.5415C23.3336 22.6402 22.9372 22.7339 22.5354 22.8245L22.2329 22.8918L21.928 22.958C21.877 22.969 21.8258 22.9799 21.7745 22.9908L21.465 23.0557L21.1518 23.1199C21.0468 23.1412 20.941 23.1624 20.8346 23.1835L20.5127 23.2468C20.4587 23.2573 20.4044 23.2678 20.3499 23.2783L20.0203 23.3412L19.685 23.4042L19.3435 23.4672L18.9953 23.5305C17.6413 23.7744 16.6267 24.0437 15.793 24.3085L15.6038 24.3696C15.5727 24.3797 15.542 24.3899 15.5114 24.4L15.331 24.4607L15.1559 24.521L14.9857 24.5808L14.7387 24.6696L14.5003 24.757L13.8955 24.9808L13.749 25.0343L13.6035 25.0865L13.4586 25.1376C12.3729 25.5154 11.2995 25.7812 9.417 25.7812C7.83997 25.7812 6.56312 25.5282 5.42474 25.1164L5.28315 25.0641L5.14294 25.0102C4.84057 24.8917 4.54738 24.7621 4.26014 24.6234L4.12797 24.5587C4.08405 24.5369 4.04026 24.5149 3.99659 24.4927L3.86591 24.4255C3.84418 24.4143 3.82248 24.4029 3.80081 24.3915L3.67106 24.3226L3.54183 24.2525L3.41307 24.1814L3.28469 24.1092L3.15664 24.0361L3.02883 23.962L2.90121 23.8869L2.70995 23.7727L2.58246 23.6956C1.43364 22.9976 1.07024 21.8306 1.74296 21.1985L1.76551 21.1779L3.61896 19.5202C6.41972 21.4098 13.4225 23.6803 27.5182 19.3215L27.9476 19.1874ZM15.7338 4.219C17.2394 4.20883 18.747 4.51463 20.1766 5.12734C14.5552 6.07045 10.8479 11.9235 9.61678 17.9716C9.50602 18.5183 10.1967 18.6882 10.3251 18.1635C12.4947 9.36692 19.3575 4.53456 22.2386 6.25678C26.0939 8.92807 28.2314 13.3973 27.8087 18.3386C13.0154 23.0294 6.12905 20.3009 3.82033 18.6216C3.8108 18.4891 3.80248 18.3502 3.79496 18.2067L3.78423 17.9882L3.77437 17.764L3.75603 17.3038C2.8374 16.5285 2.23784 15.2537 2.23784 13.8017C2.23784 11.4493 3.80783 9.55152 5.77117 9.51379L5.83078 9.51322H6.89392C7.50955 9.51322 8.08523 9.69796 8.59058 10.0204C8.3532 9.13039 7.66122 8.55049 6.99736 8.37309C7.65946 7.62076 8.41404 6.94092 9.25229 6.3444C11.198 4.96176 13.4135 4.25357 15.6386 4.21979L15.7338 4.219ZM5.06514 11.0548C4.06239 11.0548 3.24891 12.2847 3.24913 13.8019C3.24913 14.1306 3.28725 14.4457 3.35717 14.7378L3.37801 14.8207C3.64553 15.8342 4.30032 16.5503 5.06514 16.5503C6.06789 16.5503 6.87966 15.32 6.87966 13.8019C6.87966 12.3008 6.08265 11.0823 5.09603 11.0552L5.06514 11.0548Z" fill="url(#paint0_linear_2955_4168)"/>
<defs>
<linearGradient id="paint0_linear_2955_4168" x1="1.40625" y1="4.21875" x2="1.40625" y2="25.7812" gradientUnits="userSpaceOnUse">
<stop stop-color="#FCCA3F"/>
<stop offset="1" stop-color="#FCAA2D"/>
</linearGradient>
</defs>
</svg>
