<svg width="30" height="30" viewBox="0 0 30 30" fill="none" xmlns="http://www.w3.org/2000/svg">
<path fill-rule="evenodd" clip-rule="evenodd" d="M25.2797 14.1193C25.3872 14.173 25.461 14.2625 25.5014 14.3879C25.546 14.5133 25.5349 14.661 25.4676 14.8311L23.4664 20.271H27.2605C27.4037 20.271 27.5202 20.3159 27.6098 20.4055C27.6992 20.4904 27.744 20.5979 27.744 20.7278C27.744 20.8665 27.6859 21.0098 27.5695 21.1575L25.7813 23.3924L22.374 27.6507L21.4647 28.7869C21.3527 28.9257 21.2295 29.0108 21.0953 29.0421C20.9654 29.0779 20.8469 29.0667 20.7392 29.0085C20.6363 28.9547 20.5624 28.8653 20.5176 28.7399C20.4775 28.6144 20.4908 28.4644 20.5579 28.2899L22.5593 22.8499H18.7649C18.6216 22.8499 18.5052 22.8075 18.4156 22.7224C18.3261 22.6328 18.2813 22.5231 18.2813 22.3934C18.2813 22.2589 18.3395 22.1157 18.4559 21.9634L24.5607 14.3409C24.6726 14.1976 24.7935 14.1103 24.9233 14.079C24.9497 14.0729 24.9754 14.0685 25.0004 14.0657C25.1037 14.0546 25.1967 14.0724 25.2797 14.1193ZM22.006 2.34521C23.1138 2.35231 23.7443 2.39489 24.2457 2.65034C24.7748 2.91998 25.2051 3.35024 25.4747 3.87944C25.7557 4.43093 25.7792 5.13867 25.7811 6.46607L25.7813 12.6999C25.3694 12.5355 24.9482 12.5329 24.5828 12.6182C24.0167 12.7548 23.6318 13.0967 23.3858 13.4088L17.275 21.0389C17.0312 21.3578 16.7817 21.8151 16.7817 22.3934C16.7817 22.9097 16.9766 23.4044 17.3553 23.7831L17.3829 23.8099C17.7956 24.202 18.3034 24.3499 18.7652 24.3499H20.4096L19.1931 27.6563H8.7188C7.14365 27.6563 6.35607 27.6563 5.75444 27.3497C5.22524 27.0801 4.79498 26.6498 4.52534 26.1207C4.26989 25.6193 4.22731 24.9888 4.22021 23.881V6.11907C4.22731 5.01129 4.26989 4.3808 4.52534 3.87944C4.79498 3.35024 5.22524 2.91998 5.75444 2.65034C6.2558 2.39489 6.88629 2.35231 7.99407 2.34521H22.006ZM11.7188 11.25H8.43755C7.91978 11.25 7.50005 11.6698 7.50005 12.1875C7.50005 12.7053 7.91978 13.125 8.43755 13.125H11.7188C12.2366 13.125 12.6563 12.7053 12.6563 12.1875C12.6563 11.6698 12.2366 11.25 11.7188 11.25ZM14.0625 6.56255H8.43755C7.91978 6.56255 7.50005 6.98228 7.50005 7.50005C7.50005 8.01781 7.91978 8.43755 8.43755 8.43755H14.0625C14.5803 8.43755 15 8.01781 15 7.50005C15 6.98228 14.5803 6.56255 14.0625 6.56255Z" fill="url(#paint0_linear_2955_3948)"/>
<defs>
<linearGradient id="paint0_linear_2955_3948" x1="15.9821" y1="2.34521" x2="15.9821" y2="29.0626" gradientUnits="userSpaceOnUse">
<stop stop-color="#30DBB1"/>
<stop offset="1" stop-color="#15C2B6"/>
</linearGradient>
</defs>
</svg>
