<svg width="30" height="30" viewBox="0 0 30 30" fill="none" xmlns="http://www.w3.org/2000/svg">
<path d="M12.7009 2.32178C11.9243 2.32178 11.2947 2.95138 11.2947 3.72803V26.228C11.2947 27.0047 11.9243 27.6343 12.7009 27.6343H16.4509C17.2276 27.6343 17.8572 27.0047 17.8572 26.228V3.72803C17.8572 2.95138 17.2276 2.32178 16.4509 2.32178H15.6072C15.4518 2.32178 15.3259 2.4477 15.3259 2.60303V13.7593C15.3259 14.1735 14.9901 14.5093 14.5759 14.5093C14.1617 14.5093 13.8259 14.1735 13.8259 13.7593V2.60303C13.8259 2.4477 13.7 2.32178 13.5447 2.32178H12.7009Z" fill="url(#paint0_linear_2955_5974)"/>
<path fill-rule="evenodd" clip-rule="evenodd" d="M3.79468 5.13428C3.01803 5.13428 2.38843 5.76388 2.38843 6.54053L2.38843 26.228C2.38843 27.0047 3.01803 27.6343 3.79468 27.6343H7.54468C8.32133 27.6343 8.95093 27.0047 8.95093 26.228V6.54053C8.95093 5.76388 8.32133 5.13428 7.54468 5.13428H3.79468ZM4.16968 8.88428C3.96257 8.88428 3.79468 9.05217 3.79468 9.25928V9.91553C3.79468 10.1226 3.96257 10.2905 4.16968 10.2905H7.16968C7.37678 10.2905 7.54468 10.1226 7.54468 9.91553V9.25928C7.54468 9.05217 7.37678 8.88428 7.16968 8.88428H4.16968ZM4.16968 11.6968C3.96257 11.6968 3.79468 11.8647 3.79468 12.0718V12.728C3.79468 12.9351 3.96257 13.103 4.16968 13.103H7.16968C7.37678 13.103 7.54468 12.9351 7.54468 12.728V12.0718C7.54468 11.8647 7.37678 11.6968 7.16968 11.6968H4.16968ZM3.79468 14.8843C3.79468 14.6772 3.96257 14.5093 4.16968 14.5093H7.16968C7.37678 14.5093 7.54468 14.6772 7.54468 14.8843V15.5405C7.54468 15.7476 7.37678 15.9155 7.16968 15.9155H4.16968C3.96257 15.9155 3.79468 15.7476 3.79468 15.5405V14.8843Z" fill="url(#paint1_linear_2955_5974)"/>
<path fill-rule="evenodd" clip-rule="evenodd" d="M19.4422 9.6729C19.3745 8.89921 19.9469 8.21713 20.7206 8.14944L24.4563 7.82261C25.23 7.75492 25.9121 8.32725 25.9798 9.10094L27.4505 25.9117C27.5182 26.6854 26.9459 27.3675 26.1722 27.4352L22.4365 27.762C21.6628 27.8297 20.9807 27.2574 20.913 26.4837L19.4422 9.6729ZM21.0801 12.2587C21.062 12.0524 21.2147 11.8705 21.421 11.8525L24.4096 11.591C24.6159 11.573 24.7978 11.7256 24.8158 11.9319L24.873 12.5857C24.8911 12.792 24.7384 12.9739 24.5321 12.9919L21.5435 13.2534C21.3372 13.2714 21.1553 13.1188 21.1373 12.9125L21.0801 12.2587ZM21.3252 15.0605C21.3072 14.8542 21.4598 14.6723 21.6661 14.6543L24.6547 14.3928C24.861 14.3748 25.0429 14.5274 25.0609 14.7337L25.1181 15.3875C25.1362 15.5938 24.9836 15.7757 24.7773 15.7937L21.7887 16.0552C21.5824 16.0732 21.4005 15.9206 21.3824 15.7143L21.3252 15.0605ZM21.9112 17.4561C21.7049 17.4741 21.5523 17.656 21.5703 17.8623L21.6275 18.5161C21.6456 18.7224 21.8275 18.875 22.0338 18.857L25.0224 18.5955C25.2287 18.5775 25.3813 18.3956 25.3633 18.1893L25.3061 17.5355C25.288 17.3292 25.1061 17.1766 24.8998 17.1946L21.9112 17.4561Z" fill="url(#paint2_linear_2955_5974)"/>
<defs>
<linearGradient id="paint0_linear_2955_5974" x1="14.9222" y1="2.32178" x2="14.9222" y2="27.7675" gradientUnits="userSpaceOnUse">
<stop stop-color="#30DBB1"/>
<stop offset="1" stop-color="#15C2B6"/>
</linearGradient>
<linearGradient id="paint1_linear_2955_5974" x1="14.9222" y1="2.32178" x2="14.9222" y2="27.7675" gradientUnits="userSpaceOnUse">
<stop stop-color="#30DBB1"/>
<stop offset="1" stop-color="#15C2B6"/>
</linearGradient>
<linearGradient id="paint2_linear_2955_5974" x1="14.9222" y1="2.32178" x2="14.9222" y2="27.7675" gradientUnits="userSpaceOnUse">
<stop stop-color="#30DBB1"/>
<stop offset="1" stop-color="#15C2B6"/>
</linearGradient>
</defs>
</svg>
