<svg width="30" height="30" viewBox="0 0 30 30" fill="none" xmlns="http://www.w3.org/2000/svg">
<path fill-rule="evenodd" clip-rule="evenodd" d="M15 1.875C22.2487 1.875 28.125 7.75127 28.125 15C28.125 22.2487 22.2487 28.125 15 28.125C7.75127 28.125 1.875 22.2487 1.875 15C1.875 7.75127 7.75127 1.875 15 1.875ZM11.7423 17.8467C11.0174 16.5911 9.41203 16.161 8.15651 16.8858C6.90099 17.6107 6.47081 19.2161 7.19569 20.4716C7.87513 21.6486 9.32818 22.1003 10.5416 21.5552C12.6693 23.2856 15.622 23.6848 18.1426 22.5527C18.5205 22.383 18.6418 21.9203 18.4343 21.5618C18.2268 21.2033 17.7691 21.0861 17.3869 21.2454C15.4977 22.0337 13.3255 21.7592 11.6947 20.5519C12.1923 19.7552 12.2447 18.7169 11.7423 17.8467ZM20.1036 9.37684C19.7676 9.13446 19.3061 9.26083 19.0995 9.6198C18.8927 9.97877 19.02 10.4337 19.3493 10.685C20.9764 11.9269 21.8248 13.9452 21.5948 15.961C20.6558 15.9282 19.7299 16.4019 19.2274 17.2724C18.5025 18.5279 18.9326 20.1334 20.1881 20.8583C21.4436 21.5831 23.0492 21.1528 23.7741 19.8973C24.4534 18.7208 24.1183 17.237 23.0402 16.4585C23.4748 13.7506 22.3442 10.9938 20.1036 9.37684ZM8.90651 18.1849C9.44458 17.8742 10.1326 18.0586 10.4433 18.5967C10.7539 19.1347 10.5696 19.8227 10.0315 20.1334C9.49343 20.4441 8.80539 20.2597 8.49472 19.7216C8.18407 19.1835 8.36842 18.4955 8.90651 18.1849ZM20.5264 18.0224C20.8371 17.4843 21.5252 17.2999 22.0631 17.6106C22.6013 17.9213 22.7856 18.6093 22.4751 19.1473C22.1644 19.6854 21.4762 19.8698 20.9381 19.5591C20.4002 19.2486 20.2157 18.5604 20.5264 18.0224ZM14.9419 5.90629C13.5831 5.90629 12.4655 6.93859 12.3305 8.26168C9.76828 9.23921 7.94623 11.5967 7.66628 14.3456C7.62431 14.7577 7.96453 15.0942 8.37874 15.0937C8.79296 15.0932 9.12328 14.7555 9.17629 14.3447C9.43828 12.3146 10.7619 10.5708 12.6227 9.76207C13.0638 10.5915 13.9369 11.1563 14.9419 11.1563C16.3916 11.1563 17.5669 9.98104 17.5669 8.53129C17.5669 7.08156 16.3916 5.90629 14.9419 5.90629ZM14.9419 7.40629C15.5632 7.40629 16.0669 7.90997 16.0669 8.53129C16.0669 9.15262 15.5632 9.65629 14.9419 9.65629C14.3205 9.65629 13.8169 9.15262 13.8169 8.53129C13.8169 7.90997 14.3205 7.40629 14.9419 7.40629Z" fill="url(#paint0_linear_2955_1226)"/>
<defs>
<linearGradient id="paint0_linear_2955_1226" x1="15" y1="28.125" x2="15" y2="1.875" gradientUnits="userSpaceOnUse">
<stop stop-color="#459CFF"/>
<stop offset="1" stop-color="#50BEFC"/>
</linearGradient>
</defs>
</svg>
