<svg width="30" height="30" viewBox="0 0 30 30" fill="none" xmlns="http://www.w3.org/2000/svg">
<path d="M1.875 9.1875C1.875 7.61235 1.875 6.82478 2.18154 6.22315C2.45119 5.69395 2.88145 5.26369 3.41065 4.99404C4.01228 4.6875 4.79985 4.6875 6.375 4.6875H23.625C25.2001 4.6875 25.9877 4.6875 26.5893 4.99404C27.1186 5.26369 27.5488 5.69395 27.8185 6.22315C28.125 6.82478 28.125 7.61235 28.125 9.1875V20.8125C28.125 22.3876 28.125 23.1752 27.8185 23.7768C27.5488 24.3061 27.1186 24.7363 26.5893 25.006C25.9877 25.3125 25.2001 25.3125 23.625 25.3125H22.5V14.0625C22.5 12.7499 22.5 12.0936 22.2445 11.5922C22.0198 11.1512 21.6613 10.7927 21.2203 10.568C20.7189 10.3125 20.0626 10.3125 18.75 10.3125H1.875V9.1875Z" fill="url(#paint0_linear_2955_854)"/>
<path d="M1.875 12.375H13.9691V25.3125H6.375C4.79985 25.3125 4.01228 25.3125 3.41065 25.006C2.88145 24.7363 2.45119 24.3061 2.18154 23.7769C1.875 23.1752 1.875 22.3877 1.875 20.8125V12.375Z" fill="url(#paint1_linear_2955_854)"/>
<path d="M20.4375 25.3125H16.0316V12.375H18.1875C18.9751 12.375 19.3689 12.375 19.6697 12.5283C19.9343 12.6631 20.1494 12.8782 20.2842 13.1428C20.4375 13.4437 20.4375 13.8374 20.4375 14.625V25.3125Z" fill="url(#paint2_linear_2955_854)"/>
<defs>
<linearGradient id="paint0_linear_2955_854" x1="15" y1="4.6875" x2="15" y2="25.3125" gradientUnits="userSpaceOnUse">
<stop stop-color="#30DBB1"/>
<stop offset="1" stop-color="#15C2B6"/>
</linearGradient>
<linearGradient id="paint1_linear_2955_854" x1="15" y1="4.6875" x2="15" y2="25.3125" gradientUnits="userSpaceOnUse">
<stop stop-color="#30DBB1"/>
<stop offset="1" stop-color="#15C2B6"/>
</linearGradient>
<linearGradient id="paint2_linear_2955_854" x1="15" y1="4.6875" x2="15" y2="25.3125" gradientUnits="userSpaceOnUse">
<stop stop-color="#30DBB1"/>
<stop offset="1" stop-color="#15C2B6"/>
</linearGradient>
</defs>
</svg>
