<svg width="30" height="30" viewBox="0 0 30 30" fill="none" xmlns="http://www.w3.org/2000/svg">
<path fill-rule="evenodd" clip-rule="evenodd" d="M25.1832 3.58784C25.7123 3.85748 26.1426 4.28774 26.4122 4.81694C26.6932 5.36843 26.7167 6.07617 26.7186 7.40357L26.7188 22.2188C26.7188 23.794 26.7188 24.5815 26.4122 25.1832C26.1426 25.7123 25.7123 26.1426 25.1832 26.4122C24.6316 26.6932 23.9239 26.7167 22.5965 26.7186L7.7813 26.7188C6.20615 26.7188 5.41857 26.7188 4.81694 26.4122C4.28774 26.1426 3.85748 25.7123 3.58784 25.1832C3.33239 24.6818 3.28981 24.0513 3.28271 22.9435V7.05657C3.28981 5.94879 3.33239 5.3183 3.58784 4.81694C3.85748 4.28774 4.28774 3.85748 4.81694 3.58784C5.3183 3.33239 5.94879 3.28981 7.05657 3.28271H22.9435C24.0513 3.28981 24.6818 3.33239 25.1832 3.58784ZM18.2813 21.5625C17.5047 21.5625 16.875 22.1922 16.875 22.9688C16.875 23.7454 17.5047 24.375 18.2813 24.375C19.0579 24.375 19.6875 23.7454 19.6875 22.9688C19.6875 22.1922 19.0579 21.5625 18.2813 21.5625ZM22.5 21.5625C21.7234 21.5625 21.0938 22.1922 21.0938 22.9688C21.0938 23.7454 21.7234 24.375 22.5 24.375C23.2767 24.375 23.9063 23.7454 23.9063 22.9688C23.9063 22.1922 23.2767 21.5625 22.5 21.5625ZM13.4873 11.3601L12.6956 12.7457C12.4953 13.0962 12.1225 13.3125 11.7188 13.3125H5.62505L5.62535 16.3289C5.62744 17.0257 5.64421 17.719 5.77833 17.9822C5.91314 18.2468 6.12828 18.462 6.39288 18.5968C6.69368 18.75 7.08747 18.75 7.87505 18.75L22.4025 18.7497C23.0096 18.7477 23.3441 18.7309 23.6072 18.5968C23.8718 18.462 24.0869 18.2468 24.2219 17.9822C24.375 17.6814 24.375 16.8189 24.375 16.0313V13.3125H18.8834L17.3424 15.6241C17.1164 15.963 16.7249 16.1533 16.3189 16.1216C15.9128 16.09 15.5555 15.8413 15.3848 15.4715L13.4873 11.3601ZM22.4025 5.62535H7.59758C6.99048 5.62744 6.65608 5.64421 6.39288 5.77833C6.12828 5.91314 5.91314 6.12828 5.77833 6.39288L5.68735 6.57264C5.64374 6.67075 5.63065 6.75413 5.62673 6.99544L5.62505 11.0625H11.0659L12.617 8.34813C12.826 7.98243 13.2218 7.76408 13.6426 7.78235C14.0634 7.80061 14.4387 8.0524 14.6153 8.43485L16.5853 12.7034L17.3452 11.5635C17.5539 11.2505 17.9052 11.0625 18.2813 11.0625H24.375L24.3748 7.17402C24.3732 6.63074 24.358 6.66026 24.2219 6.39288C24.0869 6.12828 23.8718 5.91314 23.6072 5.77833C23.3065 5.62505 22.9125 5.62505 22.125 5.62505L22.4025 5.62535Z" fill="url(#paint0_linear_2955_540)"/>
<defs>
<linearGradient id="paint0_linear_2955_540" x1="15.0008" y1="3.28271" x2="15.0008" y2="26.7188" gradientUnits="userSpaceOnUse">
<stop stop-color="#30DBB1"/>
<stop offset="1" stop-color="#15C2B6"/>
</linearGradient>
</defs>
</svg>
