<svg width="30" height="30" viewBox="0 0 30 30" fill="none" xmlns="http://www.w3.org/2000/svg">
<path fill-rule="evenodd" clip-rule="evenodd" d="M12.1443 3.61825L12.0994 9.97778L12.5434 10.0177C13.1741 10.0668 13.8268 10.0982 14.4955 10.1088L15 10.1128C15.8455 10.1128 16.6682 10.0791 17.4566 10.0177L17.9024 9.97778L17.9461 3.61747C17.9493 3.14048 18.3666 2.77233 18.8404 2.82854L18.9109 2.83692C23.6597 3.40034 26.9616 4.87313 27.1764 7.07041L27.1875 7.30028L27.1896 19.0366L27.1879 22.3004C27.1879 25.1866 21.7515 26.9879 15.0004 26.9879C11.5717 26.9879 8.48173 26.5231 6.2712 25.6878C4.23788 24.9194 2.9484 23.8374 2.82263 22.5147L2.8125 22.3002V7.30028C2.8125 5.11298 5.79474 3.60419 10.2398 2.9495L11.1799 2.82629L11.2525 2.81789C11.7298 2.76275 12.1477 3.1378 12.1443 3.61825ZM21.5336 16.1128C19.8345 16.1128 19.0588 17.1002 18.2961 19.2355L17.9666 20.1475L17.8083 20.5312C17.5305 21.1561 17.3135 21.3629 17.0337 21.3629C16.7786 21.3629 16.51 21.2622 16.0856 20.9911L15.6802 20.7155L14.972 20.1933L14.5039 19.8595C13.7054 19.3122 13.2066 19.1129 12.5337 19.1129C11.0704 19.1129 9.42201 21.2326 8.92982 22.795C8.80288 23.198 8.73941 23.3995 8.77344 23.6167C8.80451 23.8149 8.93392 24.0485 9.0855 24.1799C9.25159 24.3239 9.44156 24.3732 9.82149 24.4717C11.4248 24.8874 13.3969 25.1129 15.5337 25.1129C20.9346 25.1129 25.2836 23.6718 25.2836 21.3629L25.3013 19.5888C25.305 19.2078 25.3069 19.0175 25.248 18.7535C25.2094 18.5808 25.0764 18.2409 24.9876 18.0877C24.8518 17.8539 24.7836 17.7814 24.6469 17.6364C23.8001 16.7378 22.6532 16.1128 21.5336 16.1128ZM7.03125 11.9878C5.73934 11.9878 4.69157 13.0331 4.6875 14.3317C4.6875 15.6261 5.73682 16.6754 7.03125 16.6754C8.28525 16.6754 9.30924 15.6906 9.37194 14.4522L9.375 14.3316C9.375 13.0371 8.32568 11.9878 7.03125 11.9878ZM10.057 4.88937L9.75242 4.94142C6.6945 5.4934 4.69504 6.56067 4.6875 7.32959C4.6875 7.88084 5.52791 8.48508 6.92098 8.98971L7.50701 9.1859C7.71173 9.24927 7.92557 9.31049 8.14789 9.36921L8.83954 9.53742C9.07809 9.59073 9.32443 9.64115 9.57788 9.6883L10.0234 9.76403L10.057 4.88937ZM20.0327 4.88903L20.0006 9.76437L20.0593 9.75653C20.4506 9.69068 20.8269 9.61705 21.1854 9.5369L21.8788 9.3683C22.1016 9.30946 22.3159 9.24809 22.5212 9.18456L23.1084 8.98795C24.303 8.55521 25.0921 8.0494 25.2952 7.56925L25.3359 7.43868L25.347 7.32839C25.347 6.56519 23.3719 5.50008 20.3364 4.94223L20.0327 4.88903Z" fill="url(#paint0_linear_2955_3796)"/>
<defs>
<linearGradient id="paint0_linear_2955_3796" x1="15.001" y1="26.9879" x2="15.001" y2="2.8125" gradientUnits="userSpaceOnUse">
<stop stop-color="#459CFF"/>
<stop offset="1" stop-color="#50BEFC"/>
</linearGradient>
</defs>
</svg>
