<svg width="30" height="30" viewBox="0 0 30 30" fill="none" xmlns="http://www.w3.org/2000/svg">
<path d="M3.81226 4.81201C3.51868 4.81201 3.27667 4.71283 3.08624 4.51447C2.90375 4.3161 2.8125 4.07806 2.8125 3.80035C2.8125 3.53058 2.90375 3.30048 3.08624 3.11005C3.27667 2.91168 3.51868 2.8125 3.81226 2.8125H13.0362C13.3139 2.8125 13.5519 2.91168 13.7503 3.11005C13.9487 3.30048 14.0479 3.53058 14.0479 3.80035C14.0479 4.07806 13.9487 4.3161 13.7503 4.51447C13.5519 4.71283 13.3139 4.81201 13.0362 4.81201H3.81226ZM8.44208 27.7469C7.07733 27.7469 5.97839 27.3343 5.14526 26.5091C4.31213 25.6839 3.89557 24.5929 3.89557 23.2361V3.81226H5.81177V23.2361C5.81177 24.0216 6.0498 24.6524 6.52588 25.1285C7.00989 25.6125 7.64862 25.8545 8.44208 25.8545C9.21967 25.8545 9.8465 25.6125 10.3226 25.1285C10.8066 24.6524 11.0486 24.0216 11.0486 23.2361V3.81226H12.9529V23.2361C12.9529 24.5929 12.5403 25.6839 11.7151 26.5091C10.8899 27.3343 9.79889 27.7469 8.44208 27.7469ZM11.5961 7.9541V23.2361C11.5961 24.1724 11.3025 24.9341 10.7153 25.5212C10.1282 26.1084 9.37042 26.402 8.44208 26.402C7.49786 26.402 6.73218 26.1084 6.14502 25.5212C5.55786 24.9341 5.26428 24.1724 5.26428 23.2361V7.9541H11.5961ZM5.81177 11.8222H8.40637C8.60474 11.8222 8.77136 11.7548 8.90625 11.6199C9.04114 11.485 9.10858 11.3144 9.10858 11.1081C9.10858 10.9256 9.03717 10.7669 8.89435 10.632C8.75153 10.4971 8.5849 10.4297 8.39447 10.4297H5.81177V11.8222ZM5.81177 15.6784H8.40637C8.60474 15.6784 8.77136 15.6149 8.90625 15.488C9.04114 15.3531 9.10858 15.1825 9.10858 14.9762C9.10858 14.7937 9.03717 14.635 8.89435 14.5001C8.75946 14.3573 8.5968 14.2859 8.40637 14.2859H5.81177V15.6784ZM5.81177 19.5465H8.39447C8.6087 19.5465 8.7793 19.4791 8.90625 19.3442C9.04114 19.2093 9.10461 19.0427 9.09668 18.8443C9.09668 18.6618 9.02527 18.5031 8.88245 18.3682C8.74756 18.2254 8.5849 18.154 8.39447 18.154H5.81177V19.5465ZM16.9638 4.81201C16.6623 4.81201 16.4163 4.71283 16.2259 4.51447C16.0434 4.3161 15.9521 4.07806 15.9521 3.80035C15.9521 3.53058 16.0434 3.30048 16.2259 3.11005C16.4163 2.91168 16.6623 2.8125 16.9638 2.8125H26.1877C26.4575 2.8125 26.6916 2.91168 26.89 3.11005C27.0883 3.30048 27.1875 3.53058 27.1875 3.80035C27.1875 4.07806 27.0883 4.3161 26.89 4.51447C26.6916 4.71283 26.4575 4.81201 26.1877 4.81201H16.9638ZM21.5817 27.7469C20.217 27.7469 19.118 27.3343 18.2849 26.5091C17.4518 25.6839 17.0352 24.5929 17.0352 23.2361V3.81226H18.9514V23.2361C18.9514 24.0216 19.1934 24.6524 19.6774 25.1285C20.1614 25.6125 20.7962 25.8545 21.5817 25.8545C22.3672 25.8545 22.998 25.6125 23.4741 25.1285C23.9581 24.6524 24.2001 24.0216 24.2001 23.2361V3.81226H26.1044V23.2361C26.1044 24.5929 25.6879 25.6839 24.8547 26.5091C24.0295 27.3343 22.9385 27.7469 21.5817 27.7469ZM24.7357 21.9626V23.2361C24.7357 24.1724 24.4421 24.9341 23.855 25.5212C23.2758 26.1084 22.518 26.402 21.5817 26.402C20.6454 26.402 19.8837 26.1084 19.2966 25.5212C18.7094 24.9341 18.4158 24.1724 18.4158 23.2361V21.9626H24.7357ZM18.4515 11.8222V10.4297H21.546C21.7365 10.4297 21.8991 10.4971 22.034 10.632C22.1768 10.7669 22.2482 10.9256 22.2482 11.1081C22.2482 11.3144 22.1808 11.485 22.0459 11.6199C21.9189 11.7548 21.7563 11.8222 21.5579 11.8222H18.4515ZM18.4515 15.6784V14.2859H21.5579C21.7484 14.2859 21.911 14.3573 22.0459 14.5001C22.1808 14.635 22.2482 14.7937 22.2482 14.9762C22.2482 15.1825 22.1808 15.3531 22.0459 15.488C21.9189 15.6149 21.7563 15.6784 21.5579 15.6784H18.4515ZM18.4515 19.5465V18.154H21.546C21.7365 18.154 21.8991 18.2254 22.034 18.3682C22.1689 18.5031 22.2363 18.6618 22.2363 18.8443C22.2443 19.0427 22.1808 19.2093 22.0459 19.3442C21.9189 19.4791 21.7523 19.5465 21.546 19.5465H18.4515Z" fill="url(#paint0_linear_2955_992)"/>
<defs>
<linearGradient id="paint0_linear_2955_992" x1="2.8125" y1="2.8125" x2="2.8125" y2="27.7469" gradientUnits="userSpaceOnUse">
<stop stop-color="#FCCA3F"/>
<stop offset="1" stop-color="#FCAA2D"/>
</linearGradient>
</defs>
</svg>
