<svg width="30" height="30" viewBox="0 0 30 30" fill="none" xmlns="http://www.w3.org/2000/svg">
<path d="M1.875 5.8125C1.875 4.7624 1.875 4.23735 2.07936 3.83627C2.25913 3.48346 2.54596 3.19663 2.89877 3.01686C3.29985 2.8125 3.8249 2.8125 4.875 2.8125H7.3125C8.3626 2.8125 8.88765 2.8125 9.28873 3.01686C9.64154 3.19663 9.92837 3.48346 10.1081 3.83627C10.2647 4.14347 10.3013 4.52339 10.3099 5.15625H18.9401C18.9487 4.52339 18.9853 4.14347 19.1419 3.83627C19.3216 3.48346 19.6085 3.19663 19.9613 3.01686C20.3624 2.8125 20.8874 2.8125 21.9375 2.8125H24.375C25.4251 2.8125 25.9501 2.8125 26.3512 3.01686C26.704 3.19663 26.9909 3.48346 27.1706 3.83627C27.375 4.23735 27.375 4.7624 27.375 5.8125V6.375C27.375 7.4251 27.375 7.95015 27.1706 8.35123C26.9909 8.70404 26.704 8.99087 26.3512 9.17064C25.9501 9.375 25.4251 9.375 24.375 9.375H21.9375C20.8874 9.375 20.3624 9.375 19.9613 9.17064C19.6085 8.99087 19.3216 8.70404 19.1419 8.35123C18.9853 8.04403 18.9487 7.66411 18.9401 7.03125H15.75V14.5312H18.9401C18.9487 13.8984 18.9853 13.5185 19.1419 13.2113C19.3216 12.8585 19.6085 12.5717 19.9613 12.3919C20.3624 12.1875 20.8874 12.1875 21.9375 12.1875H24.375C25.4251 12.1875 25.9501 12.1875 26.3512 12.3919C26.704 12.5717 26.9909 12.8585 27.1706 13.2113C27.375 13.6124 27.375 14.1374 27.375 15.1875V15.75C27.375 16.8001 27.375 17.3252 27.1706 17.7263C26.9909 18.0791 26.704 18.3659 26.3512 18.5457C25.9501 18.75 25.4251 18.75 24.375 18.75H21.9375C20.8874 18.75 20.3624 18.75 19.9613 18.5457C19.6085 18.3659 19.3216 18.0791 19.1419 17.7263C18.9853 17.4191 18.9487 17.0391 18.9401 16.4062H15.75V23.3437C15.75 23.6217 15.7507 23.7739 15.7597 23.8832L15.7607 23.8955L15.7731 23.8966C15.8824 23.9055 16.0345 23.9062 16.3125 23.9062H18.9401C18.9487 23.2734 18.9853 22.8935 19.1419 22.5864C19.3216 22.2336 19.6085 21.9467 19.9613 21.767C20.3624 21.5626 20.8874 21.5626 21.9375 21.5626H24.375C25.4251 21.5626 25.9501 21.5626 26.3512 21.767C26.704 21.9467 26.9909 22.2336 27.1706 22.5864C27.375 22.9874 27.375 23.5125 27.375 24.5626V25.1251C27.375 26.1752 27.375 26.7002 27.1706 27.1013C26.9909 27.4541 26.704 27.741 26.3512 27.9207C25.9501 28.1251 25.4251 28.1251 24.375 28.1251H21.9375C20.8874 28.1251 20.3624 28.1251 19.9613 27.9207C19.6085 27.741 19.3216 27.4541 19.1419 27.1013C18.9853 26.7941 18.9487 26.4142 18.9401 25.7813L16.2826 25.7813C16.046 25.7813 15.8155 25.7813 15.6204 25.7654C15.4061 25.7479 15.1532 25.7065 14.8988 25.5769C14.546 25.3971 14.2591 25.1103 14.0794 24.7575C13.9497 24.503 13.9084 24.2501 13.8909 24.0358C13.8749 23.8407 13.875 23.6103 13.875 23.3737L13.875 7.03125H10.3099C10.3013 7.66411 10.2647 8.04403 10.1081 8.35123C9.92837 8.70404 9.64154 8.99087 9.28873 9.17064C8.88765 9.375 8.3626 9.375 7.3125 9.375H4.875C3.8249 9.375 3.29985 9.375 2.89877 9.17064C2.54596 8.99087 2.25913 8.70404 2.07936 8.35123C1.875 7.95015 1.875 7.4251 1.875 6.375V5.8125Z" fill="url(#paint0_linear_2955_3783)"/>
<defs>
<linearGradient id="paint0_linear_2955_3783" x1="14.625" y1="28.1251" x2="14.625" y2="2.8125" gradientUnits="userSpaceOnUse">
<stop stop-color="#459CFF"/>
<stop offset="1" stop-color="#50BEFC"/>
</linearGradient>
</defs>
</svg>
