<svg width="30" height="30" viewBox="0 0 30 30" fill="none" xmlns="http://www.w3.org/2000/svg">
<path d="M16.5146 16.0854H23.6334C23.8416 16.0854 24.0183 16.016 24.1635 15.8771C24.3086 15.732 24.3812 15.5553 24.3812 15.347C24.3812 15.1324 24.3086 14.9557 24.1635 14.8169C24.0183 14.678 23.8416 14.6086 23.6334 14.6086H16.5146C16.2937 14.6086 16.1139 14.678 15.975 14.8169C15.8362 14.9557 15.7668 15.1324 15.7668 15.347C15.7668 15.5553 15.8362 15.732 15.975 15.8771C16.1139 16.016 16.2937 16.0854 16.5146 16.0854ZM16.5146 19.7299H21.7211C21.9294 19.7299 22.1061 19.6637 22.2513 19.5311C22.4027 19.3923 22.4785 19.2188 22.4785 19.0105C22.4785 18.8022 22.4027 18.6255 22.2513 18.4804C22.1061 18.3289 21.9294 18.2532 21.7211 18.2532H16.5146C16.2937 18.2532 16.1139 18.3289 15.975 18.4804C15.8362 18.6255 15.7668 18.8022 15.7668 19.0105C15.7668 19.2188 15.8362 19.3923 15.975 19.5311C16.1139 19.6637 16.2937 19.7299 16.5146 19.7299ZM15.6437 23.8289C14.7349 23.8289 13.9713 23.668 13.3528 23.3461C12.7407 23.0306 12.2768 22.5667 11.9613 21.9545C11.6457 21.3361 11.488 20.5788 11.488 19.6826V14.5613C11.488 13.6651 11.6457 12.9078 11.9613 12.2893C12.2768 11.6709 12.7407 11.2039 13.3528 10.8883C13.9713 10.5665 14.7349 10.4055 15.6437 10.4055H24.438C25.3468 10.4055 26.1072 10.5665 26.7194 10.8883C27.3379 11.2039 27.8049 11.6709 28.1204 12.2893C28.436 12.9078 28.5938 13.6651 28.5938 14.5613V19.6826C28.5938 20.5788 28.436 21.3361 28.1204 21.9545C27.8049 22.5667 27.3379 23.0306 26.7194 23.3461C26.1072 23.668 25.3468 23.8289 24.438 23.8289H24.2392V26.1008C24.2392 26.4605 24.1509 26.7477 23.9741 26.9623C23.7974 27.1768 23.545 27.2841 23.2168 27.2841C22.9896 27.2841 22.7782 27.221 22.5826 27.0948C22.3933 26.9686 22.1566 26.7824 21.8726 26.5363L18.7108 23.8289H15.6437ZM1.40625 17.2213V9.96061C1.40625 9.03921 1.57033 8.25666 1.8985 7.61294C2.23298 6.96292 2.72208 6.47067 3.36579 6.13619C4.00951 5.7954 4.80153 5.625 5.74186 5.625H17.9346C19.1526 5.625 20.1213 5.91215 20.8408 6.48644C21.5665 7.06074 22.0114 7.87485 22.1755 8.92877V9.1181H15.6437C14.4951 9.1181 13.5138 9.33583 12.6997 9.77128C11.8856 10.2067 11.2639 10.8315 10.8348 11.6456C10.412 12.4597 10.2005 13.4316 10.2005 14.5613V19.6826C10.2005 20.7618 10.3993 21.7021 10.7969 22.5036L8.59125 24.4631C8.30726 24.7156 8.06744 24.9017 7.8718 25.0217C7.67616 25.1479 7.46159 25.211 7.22809 25.211C6.89992 25.211 6.64432 25.1037 6.46131 24.8891C6.2846 24.6746 6.19625 24.3842 6.19625 24.0182V21.5475H5.74186C4.80153 21.5475 4.00951 21.3802 3.36579 21.0458C2.72208 20.7113 2.23298 20.2222 1.8985 19.5785C1.57033 18.9284 1.40625 18.1427 1.40625 17.2213Z" fill="url(#paint0_linear_2955_715)"/>
<defs>
<linearGradient id="paint0_linear_2955_715" x1="15" y1="5.625" x2="15" y2="27.2841" gradientUnits="userSpaceOnUse">
<stop stop-color="#FF8E4C"/>
<stop offset="1" stop-color="#FC744F"/>
</linearGradient>
</defs>
</svg>
