<svg width="30" height="30" viewBox="0 0 30 30" fill="none" xmlns="http://www.w3.org/2000/svg">
<path fill-rule="evenodd" clip-rule="evenodd" d="M22.006 2.34521C23.1138 2.35231 23.7443 2.39489 24.2457 2.65034C24.7748 2.91998 25.2051 3.35024 25.4747 3.87944C25.7557 4.43093 25.7792 5.13867 25.7811 6.46607L25.7813 10.2255C24.9351 10.3263 24.1152 10.7015 23.4659 11.3509L13.6271 21.1896C13.1798 21.6368 12.9562 21.8605 12.7827 22.1151C12.5826 22.4087 12.4315 22.7329 12.3354 23.0749C12.252 23.3715 12.2246 23.6867 12.1698 24.3169C12.0512 25.6808 11.9919 26.3629 12.1993 26.881C12.3165 27.1737 12.4901 27.4364 12.707 27.6563H8.7188C7.14365 27.6563 6.35607 27.6563 5.75444 27.3497C5.22524 27.0801 4.79498 26.6498 4.52534 26.1207C4.26989 25.6193 4.22731 24.9888 4.22021 23.881V6.11907C4.22731 5.01129 4.26989 4.3808 4.52534 3.87944C4.79498 3.35024 5.22524 2.91998 5.75444 2.65034C6.2558 2.39489 6.88629 2.35231 7.99407 2.34521H22.006ZM25.7813 20.1724V23.1563C25.7813 24.7315 25.7813 25.519 25.4747 26.1207C25.2051 26.6498 24.7748 27.0801 24.2457 27.3497C23.6941 27.6307 22.9864 27.6542 21.659 27.6561L18.1885 27.6563C18.2159 27.6389 18.2431 27.6209 18.27 27.6025C18.4883 27.4538 18.6838 27.2682 19.0168 26.9365L25.7813 20.1724ZM22.6041 15.129L25.2557 17.7806L17.5274 25.5089C17.3205 25.7159 17.2171 25.8192 17.0979 25.8979C16.9921 25.9677 16.8774 26.0228 16.7568 26.0618C16.6209 26.1057 16.4756 26.122 16.1848 26.1542L14.685 26.3209C14.4461 26.3474 14.3267 26.3607 14.2385 26.3205C14.1612 26.2853 14.0993 26.2234 14.0641 26.1462C14.024 26.058 14.0373 25.9386 14.0638 25.6997L14.2305 24.1997C14.2628 23.9091 14.2789 23.7638 14.3229 23.6279C14.3619 23.5073 14.4171 23.3925 14.4868 23.2868C14.5654 23.1675 14.6689 23.0642 14.8757 22.8572L22.6041 15.129ZM27.5759 12.8088C28.308 13.541 28.308 14.7282 27.5759 15.4604L26.5815 16.4548L23.9299 13.8032L24.9242 12.8088C25.6564 12.0765 26.8437 12.0765 27.5759 12.8088ZM13.125 11.25H9.37505C8.85728 11.25 8.43755 11.6698 8.43755 12.1875C8.43755 12.7053 8.85728 13.125 9.37505 13.125H13.125C13.6428 13.125 14.0625 12.7053 14.0625 12.1875C14.0625 11.6698 13.6428 11.25 13.125 11.25ZM15.9375 6.56255H9.37505C8.85728 6.56255 8.43755 6.98228 8.43755 7.50005C8.43755 8.01781 8.85728 8.43755 9.37505 8.43755H15.9375C16.4553 8.43755 16.875 8.01781 16.875 7.50005C16.875 6.98228 16.4553 6.56255 15.9375 6.56255Z" fill="url(#paint0_linear_2955_3658)"/>
<defs>
<linearGradient id="paint0_linear_2955_3658" x1="16.1726" y1="27.6563" x2="16.1726" y2="2.34521" gradientUnits="userSpaceOnUse">
<stop stop-color="#459CFF"/>
<stop offset="1" stop-color="#50BEFC"/>
</linearGradient>
</defs>
</svg>
