<svg width="30" height="30" viewBox="0 0 30 30" fill="none" xmlns="http://www.w3.org/2000/svg">
<path fill-rule="evenodd" clip-rule="evenodd" d="M4.21875 26.7188C3.18329 26.7188 2.34375 25.8792 2.34375 24.8438V6.09375C2.34375 4.54056 3.6026 3.28125 5.15625 3.28125H21.8438C22.8938 3.28125 23.4189 3.28125 23.82 3.48561C24.1728 3.66538 24.4596 3.95221 24.6394 4.30502C24.8438 4.7061 24.8438 5.23115 24.8438 6.28125V7.96875C25.7174 7.96875 26.1542 7.96875 26.4988 8.11148C26.9582 8.30178 27.3232 8.66679 27.5135 9.12622C27.6562 9.47079 27.6562 9.90761 27.6562 10.7812V14.0625H22.9688C21.4154 14.0625 20.1562 15.3217 20.1562 16.875C20.1562 18.4283 21.4154 19.6875 22.9688 19.6875H27.6562V23.7188C27.6562 24.7688 27.6562 25.2939 27.4519 25.695C27.2721 26.0478 26.9853 26.3346 26.6325 26.5144C26.2314 26.7188 25.7063 26.7188 24.6562 26.7188H4.21875ZM22.9688 5.15625H5.625C4.84863 5.15625 4.21875 5.7859 4.21875 6.5625C4.21875 7.3391 4.84863 7.96875 5.625 7.96875H22.9688V5.15625ZM22.9688 18.2812C23.7454 18.2812 24.375 17.6517 24.375 16.875C24.375 16.0983 23.7454 15.4688 22.9688 15.4688C22.1921 15.4688 21.5625 16.0983 21.5625 16.875C21.5625 17.6517 22.1921 18.2812 22.9688 18.2812Z" fill="url(#paint0_linear_2955_1218)"/>
<defs>
<linearGradient id="paint0_linear_2955_1218" x1="15" y1="3.28125" x2="15" y2="26.7188" gradientUnits="userSpaceOnUse">
<stop stop-color="#30DBB1"/>
<stop offset="1" stop-color="#15C2B6"/>
</linearGradient>
</defs>
</svg>
