<svg width="30" height="30" viewBox="0 0 30 30" fill="none" xmlns="http://www.w3.org/2000/svg">
<path d="M17.8125 4.21875V6.09375C17.8125 7.12928 18.652 7.96875 19.6875 7.96875C20.649 7.96875 21.4416 7.24493 21.5499 6.31241L21.5625 6.09375V4.21875H21.9114C23.583 4.21875 24.1892 4.39281 24.8002 4.71962C25.4115 5.04645 25.8911 5.52606 26.2179 6.13716C26.5196 6.70127 26.691 7.72989 26.7157 9.12746L26.7188 9.375H3.28155C3.28973 7.77167 3.46318 6.73356 3.78212 6.13716C4.10895 5.52606 4.58856 5.04645 5.19966 4.71962C5.76377 4.41793 6.32364 4.24642 7.72121 4.22182L8.4375 4.21875V6.09375C8.4375 7.12928 9.27697 7.96875 10.3125 7.96875C11.2741 7.96875 12.0666 7.24493 12.1749 6.31241L12.1875 6.09375V4.21875H17.8125ZM10.3125 2.34375C10.7727 2.34375 11.1555 2.6754 11.2349 3.11273L11.25 3.28125V6.09375C11.25 6.61151 10.8303 7.03125 10.3125 7.03125C9.79474 7.03125 9.375 6.61151 9.375 6.09375V3.28125C9.375 2.76349 9.79474 2.34375 10.3125 2.34375ZM19.6875 2.34375C20.1478 2.34375 20.5305 2.6754 20.6098 3.11273L20.625 3.28125V6.09375C20.625 6.61151 20.2052 7.03125 19.6875 7.03125C19.1698 7.03125 18.75 6.61151 18.75 6.09375V3.28125C18.75 2.76349 19.1698 2.34375 19.6875 2.34375ZM21.5625 14.5312C25.4458 14.5312 28.5938 17.6792 28.5938 21.5625C28.5938 25.4458 25.4458 28.5938 21.5625 28.5938C17.6792 28.5938 14.5312 25.4458 14.5312 21.5625C14.5312 17.6792 17.6792 14.5312 21.5625 14.5312ZM26.7188 11.25V14.2998C25.2636 13.2648 23.4842 12.6562 21.5625 12.6562C16.6437 12.6562 12.6562 16.6437 12.6562 21.5625C12.6562 23.4842 13.2648 25.2636 14.2998 26.7188H8.08854C6.41694 26.7188 5.81077 26.5447 5.19966 26.2179C4.58856 25.8911 4.10895 25.4115 3.78212 24.8002C3.45531 24.1892 3.28125 23.583 3.28125 21.9114V11.25H26.7188ZM22.0314 17.5312C21.6173 17.5312 21.2814 17.867 21.2814 18.2812V21.2813H18.2814C17.8672 21.2813 17.5314 21.6171 17.5314 22.0312C17.5314 22.4454 17.8672 22.7812 18.2814 22.7812H22.0314C22.4456 22.7812 22.7814 22.4454 22.7814 22.0312V18.2812C22.7814 17.867 22.4456 17.5312 22.0314 17.5312Z" fill="url(#paint0_linear_2955_1940)"/>
<defs>
<linearGradient id="paint0_linear_2955_1940" x1="15.9375" y1="2.34375" x2="15.9375" y2="28.5938" gradientUnits="userSpaceOnUse">
<stop stop-color="#30DBB1"/>
<stop offset="1" stop-color="#15C2B6"/>
</linearGradient>
</defs>
</svg>
