<svg width="30" height="30" viewBox="0 0 30 30" fill="none" xmlns="http://www.w3.org/2000/svg">
<path fill-rule="evenodd" clip-rule="evenodd" d="M3.28125 11.7166C3.28125 11.7173 3.28125 11.718 3.28125 11.7188C3.28125 13.2053 4.26977 14.4609 5.62533 14.8642C5.92228 14.9526 6.23685 15 6.5625 15C6.88883 15 7.20403 14.9524 7.50153 14.8637C8.85613 14.4598 9.84375 13.2046 9.84375 11.7188C9.84375 10.2329 8.85613 8.97771 7.50153 8.57384L7.5 3.75L5.625 3.75L5.62533 8.57328C4.27044 8.97636 3.28222 10.231 3.28125 11.7166ZM7.50135 16.2164C7.19816 16.2794 6.88401 16.3125 6.56213 16.3125C6.2411 16.3125 5.92775 16.2796 5.62529 16.2169L5.625 26.25H7.5L7.50135 16.2164ZM22.5003 6.69828C21.1448 7.10156 20.1563 8.35721 20.1563 9.84375C20.1563 9.93666 20.1601 10.0287 20.1677 10.1196C20.2813 11.4839 21.2295 12.6111 22.5003 12.9892C22.7973 13.0776 23.1119 13.125 23.4375 13.125C23.7638 13.125 24.079 13.0774 24.3765 12.9887C25.7311 12.5848 26.7188 11.3296 26.7188 9.84375C26.7188 8.35789 25.7311 7.10271 24.3765 6.69884L24.375 3.75L22.5 3.75L22.5003 6.69828ZM24.3764 14.3414C24.0732 14.4044 23.759 14.4375 23.4371 14.4375C23.1161 14.4375 22.8028 14.4046 22.5003 14.3419L22.5 26.25H24.375L24.3764 14.3414ZM14.0628 16.0733C12.7073 16.4766 11.7188 17.7322 11.7188 19.2188C11.7188 20.7053 12.7073 21.9609 14.0628 22.3642L14.0625 26.25H15.9375L15.939 22.3637C17.2698 21.9669 18.2464 20.7486 18.2803 19.297V19.2188C18.2803 17.4066 16.8113 15.9375 14.9991 15.9375C14.6738 15.9375 14.3595 15.9848 14.0628 16.073V16.0733ZM14.0628 14.7206L14.0625 3.75L15.9375 3.75L15.9389 14.7211C15.6356 14.6581 15.3214 14.625 14.9995 14.625C14.6785 14.625 14.3652 14.6579 14.0628 14.7206Z" fill="url(#paint0_linear_2955_3787)"/>
<defs>
<linearGradient id="paint0_linear_2955_3787" x1="3.28125" y1="3.75" x2="3.28125" y2="26.25" gradientUnits="userSpaceOnUse">
<stop stop-color="#FCCA3F"/>
<stop offset="1" stop-color="#FCAA2D"/>
</linearGradient>
</defs>
</svg>
