<svg width="30" height="30" viewBox="0 0 30 30" fill="none" xmlns="http://www.w3.org/2000/svg">
<path fill-rule="evenodd" clip-rule="evenodd" d="M27.1013 21.2044C27.4541 21.3842 27.7408 21.6709 27.9206 22.0238C28.125 22.4248 28.125 22.9498 28.125 24V24.1875C28.125 25.2375 28.125 25.7627 27.9206 26.1638C27.7408 26.5164 27.4541 26.8033 27.1013 26.9831C26.7002 27.1875 26.1752 27.1875 25.125 27.1875H13.3125C12.2624 27.1875 11.7374 27.1875 11.3363 26.9831C10.9835 26.8033 10.6966 26.5164 10.5169 26.1638C10.3352 25.8073 10.315 25.3527 10.3128 24.5186L10.3125 24C10.3125 22.9498 10.3125 22.4248 10.5169 22.0238C10.6966 21.6709 10.9835 21.3842 11.3363 21.2044C11.6928 21.0227 12.1473 21.0025 12.9814 21.0003L25.125 21C26.1752 21 26.7002 21 27.1013 21.2044ZM24.2636 22.5574C24.1828 22.5594 24.1071 22.5975 24.0572 22.6614C24 22.7347 24 22.8731 24 23.1499V25.0376C24 25.3144 24 25.4528 24.0572 25.5261C24.1071 25.59 24.1828 25.6281 24.2636 25.6301C24.3566 25.6324 24.4678 25.5501 24.6902 25.3853L25.9644 24.4414C26.1234 24.3236 26.2029 24.2648 26.2314 24.1924C26.2562 24.129 26.2562 24.0585 26.2314 23.9951C26.2029 23.9228 26.1234 23.8639 25.9644 23.7459L24.6902 22.8021C24.4678 22.6374 24.3566 22.5551 24.2636 22.5574ZM17.9561 11.9065C18.7903 11.9088 19.2448 11.929 19.6013 12.1106C19.9541 12.2904 20.2408 12.5772 20.4206 12.93C20.625 13.3311 20.625 13.8562 20.625 14.9063V15.0938C20.625 16.1439 20.625 16.6689 20.4206 17.07C20.2408 17.4228 19.9541 17.7096 19.6013 17.8894C19.2002 18.0938 18.6751 18.0938 17.625 18.0938H5.8125C4.76241 18.0938 4.23735 18.0938 3.83627 17.8894C3.48347 17.7096 3.19663 17.4228 3.01686 17.07C2.8125 16.6689 2.8125 16.1439 2.8125 15.0938L2.81278 14.5751C2.81502 13.741 2.83521 13.2866 3.01686 12.93C3.19663 12.5772 3.48347 12.2904 3.83627 12.1106C4.23735 11.9063 4.76241 11.9063 5.8125 11.9063L17.9561 11.9065ZM16.7637 13.4636C16.6828 13.4657 16.607 13.5038 16.5572 13.5676C16.5114 13.6263 16.5023 13.7266 16.5005 13.9061L16.5 15.9439C16.5 16.2206 16.5 16.359 16.5572 16.4323C16.607 16.4962 16.6828 16.5343 16.7637 16.5364C16.8567 16.5387 16.9678 16.4563 17.1902 16.2916L18.4645 15.3477C18.6235 15.2299 18.703 15.171 18.7314 15.0986C18.7562 15.0352 18.7562 14.9648 18.7314 14.9014C18.703 14.829 18.6235 14.7701 18.4645 14.6523L17.1902 13.7084C16.9678 13.5437 16.8567 13.4613 16.7637 13.4636ZM23.5812 2.81278C24.4153 2.81502 24.8698 2.83521 25.2263 3.01686C25.5791 3.19663 25.8658 3.48347 26.0456 3.83627C26.25 4.23735 26.25 4.76241 26.25 5.8125V6C26.25 7.05009 26.25 7.57515 26.0456 7.97623C25.8658 8.32903 25.5791 8.61587 25.2263 8.79564C24.8252 9 24.3002 9 23.25 9H11.4375C10.3874 9 9.86235 9 9.46127 8.79564C9.10847 8.61587 8.82163 8.32903 8.64186 7.97623C8.4375 7.57515 8.4375 7.05009 8.4375 6L8.43778 5.48136C8.44002 4.64726 8.46021 4.19279 8.64186 3.83627C8.82163 3.48347 9.10847 3.19663 9.46127 3.01686C9.86235 2.8125 10.3874 2.8125 11.4375 2.8125L23.5812 2.81278ZM22.3886 4.36986C22.3078 4.37188 22.2321 4.41004 22.1822 4.47386C22.125 4.54719 22.125 4.68557 22.125 4.96232V6.85012C22.125 7.12687 22.125 7.26525 22.1822 7.33858C22.2321 7.40241 22.3078 7.44058 22.3886 7.44259C22.4816 7.44491 22.5928 7.36256 22.8152 7.19783L24.0894 6.25393C24.2484 6.13614 24.3279 6.07725 24.3564 6.00486C24.3812 5.94144 24.3812 5.871 24.3564 5.80761C24.3279 5.73519 24.2484 5.67632 24.0894 5.55853L22.8152 4.61464C22.5928 4.4499 22.4816 4.36753 22.3886 4.36986Z" fill="url(#paint0_linear_2955_1230)"/>
<defs>
<linearGradient id="paint0_linear_2955_1230" x1="15.4688" y1="2.8125" x2="15.4688" y2="27.1875" gradientUnits="userSpaceOnUse">
<stop stop-color="#30DBB1"/>
<stop offset="1" stop-color="#15C2B6"/>
</linearGradient>
</defs>
</svg>
