<svg width="30" height="30" viewBox="0 0 30 30" fill="none" xmlns="http://www.w3.org/2000/svg">
<path fill-rule="evenodd" clip-rule="evenodd" d="M9.98081 20.1563C13.0788 22.9697 17.8211 22.9697 20.919 20.1563H24.1875C25.2377 20.1563 25.7627 20.1563 26.1638 20.3607C26.5166 20.5405 26.8033 20.8272 26.9831 21.18C27.1875 21.5811 27.1875 22.1061 27.1875 23.1563V23.7188C27.1875 24.769 27.1875 25.294 26.9831 25.695C26.8033 26.0479 26.5166 26.3346 26.1638 26.5144C25.8073 26.6961 25.3528 26.7163 24.5187 26.7185L5.8125 26.7188C4.76241 26.7188 4.23735 26.7188 3.83627 26.5144C3.48347 26.3346 3.19663 26.0479 3.01686 25.695C2.83521 25.3385 2.81502 24.8841 2.81278 24.05L2.8125 23.1563C2.8125 22.1061 2.8125 21.5811 3.01686 21.18C3.19663 20.8272 3.48347 20.5405 3.83627 20.3607C4.19279 20.179 4.64726 20.1588 5.48136 20.1566L9.98081 20.1563ZM20.5997 3.28271C21.7075 3.28981 22.338 3.33239 22.8394 3.58784C23.3685 3.85748 23.7988 4.28774 24.0684 4.81694C24.375 5.41857 24.375 6.20615 24.375 7.7813V16.7813C24.375 17.3064 24.375 17.5689 24.2728 17.7694C24.183 17.9458 24.0396 18.0892 23.8631 18.1791C23.6625 18.2813 23.4 18.2813 22.875 18.2813H20.5442C20.2956 18.2813 20.0571 18.3801 19.8814 18.5559C17.7939 20.6432 14.6003 20.9504 12.1875 19.477L12.1889 7.05657C12.196 5.94879 12.2386 5.3183 12.494 4.81694C12.7637 4.28774 13.1939 3.85748 13.7231 3.58784C14.2245 3.33239 14.855 3.28981 15.9628 3.28271H20.5997ZM9.54467 7.18458C9.80927 7.31939 10.0244 7.53453 10.1592 7.79913C10.3125 8.09993 10.3125 8.49372 10.3125 9.2813V16.7813C10.3125 17.3064 10.3125 17.5689 10.2103 17.7694C10.1204 17.9458 9.97702 18.0892 9.80062 18.1791C9.60007 18.2813 9.33756 18.2813 8.8125 18.2813H6.1875C5.66244 18.2813 5.39993 18.2813 5.19938 18.1791C5.02298 18.0892 4.87956 17.9458 4.78969 17.7694C4.70453 17.6023 4.69034 17.3921 4.68797 17.0229L4.6875 9.2813C4.6875 8.49372 4.6875 8.09993 4.84078 7.79913C4.97559 7.53453 5.19073 7.31939 5.45533 7.18458C5.71854 7.05046 6.05293 7.03369 6.66003 7.0316L8.0625 7.0313C8.85007 7.0313 9.24386 7.0313 9.54467 7.18458ZM20.1562 11.7188H16.4062C15.8885 11.7188 15.4688 12.1385 15.4688 12.6563C15.4688 13.1741 15.8885 13.5938 16.4062 13.5938H20.1562C20.6739 13.5938 21.0938 13.1741 21.0938 12.6563C21.0938 12.1385 20.6739 11.7188 20.1562 11.7188ZM20.1562 7.50005H16.4062C15.8885 7.50005 15.4688 7.91978 15.4688 8.43755C15.4688 8.95531 15.8885 9.37505 16.4062 9.37505H20.1562C20.6739 9.37505 21.0938 8.95531 21.0938 8.43755C21.0938 7.91978 20.6739 7.50005 20.1562 7.50005Z" fill="url(#paint0_linear_2955_427)"/>
<defs>
<linearGradient id="paint0_linear_2955_427" x1="15" y1="26.7188" x2="15" y2="3.28271" gradientUnits="userSpaceOnUse">
<stop stop-color="#459CFF"/>
<stop offset="1" stop-color="#50BEFC"/>
</linearGradient>
</defs>
</svg>
