<svg width="30" height="30" viewBox="0 0 30 30" fill="none" xmlns="http://www.w3.org/2000/svg">
<path fill-rule="evenodd" clip-rule="evenodd" d="M4.21875 6.84375C4.21875 5.2686 4.21875 4.48103 4.52529 3.8794C4.79494 3.3502 5.2252 2.91994 5.7544 2.65029C6.35603 2.34375 7.1436 2.34375 8.71875 2.34375H21.2812C22.8564 2.34375 23.644 2.34375 24.2456 2.65029C24.7748 2.91994 25.2051 3.3502 25.4747 3.8794C25.7812 4.48103 25.7812 5.2686 25.7812 6.84375V15.957C24.7248 15.5378 23.6829 15.0821 22.6575 14.5908L21.5627 14.0662L20.4679 14.5908C18.813 15.3837 17.1152 16.0838 15.3824 16.6876L14.2502 17.0822V23.1758C14.2502 24.4669 14.7096 25.7151 15.5442 26.6983L15.5458 26.7002C15.8277 27.0312 16.1302 27.3498 16.4526 27.6562H8.71875C7.1436 27.6562 6.35603 27.6562 5.7544 27.3497C5.2252 27.0801 4.79494 26.6498 4.52529 26.1206C4.21875 25.519 4.21875 24.7314 4.21875 23.1562V6.84375ZM7.5 7.5C7.5 6.98223 7.91973 6.5625 8.4375 6.5625H14.0625C14.5803 6.5625 15 6.98223 15 7.5C15 8.01777 14.5803 8.4375 14.0625 8.4375H8.4375C7.91973 8.4375 7.5 8.01777 7.5 7.5ZM8.4375 11.25C7.91973 11.25 7.5 11.6697 7.5 12.1875C7.5 12.7053 7.91973 13.125 8.4375 13.125H11.7188C12.2365 13.125 12.6562 12.7053 12.6562 12.1875C12.6562 11.6697 12.2365 11.25 11.7188 11.25H8.4375ZM21.9283 16.1126C23.1896 16.7169 24.475 17.2691 25.7812 17.7678C26.2474 17.9457 26.7162 18.117 27.1875 18.2812V23.1759C27.1875 24.0663 26.8707 24.9276 26.2945 25.6064C25.1549 26.9449 23.5776 28.0969 21.5625 29.0625C19.5474 28.0969 17.9701 26.9449 16.8305 25.6064C16.2543 24.9276 15.9375 24.0663 15.9375 23.1759L15.9377 18.2811C17.7298 17.6566 19.4856 16.9326 21.1971 16.1126L21.5627 15.9374L21.9283 16.1126ZM19.8286 24.6734C19.7762 24.6345 19.7442 24.5822 19.7323 24.5163C19.7222 24.4504 19.7332 24.3719 19.7653 24.2807L20.2947 22.7051L18.942 21.7324C18.8626 21.6767 18.8078 21.6193 18.7774 21.5602C18.747 21.5011 18.7419 21.4403 18.7622 21.3778C18.7824 21.317 18.8221 21.2714 18.8812 21.241C18.9403 21.2106 19.0188 21.1963 19.1168 21.1979L20.776 21.2081L21.2801 19.6249C21.3105 19.532 21.3485 19.4619 21.394 19.4146C21.4413 19.3674 21.4971 19.3437 21.5612 19.3437C21.6271 19.3437 21.6828 19.3674 21.7284 19.4146C21.7757 19.4619 21.8145 19.532 21.8449 19.6249L22.349 21.2081L24.0082 21.1979C24.1062 21.1963 24.1847 21.2106 24.2438 21.241C24.3029 21.2714 24.3426 21.317 24.3628 21.3778C24.3831 21.4403 24.378 21.5011 24.3476 21.5602C24.3172 21.6193 24.2624 21.6767 24.183 21.7324L22.8303 22.7051L23.3597 24.2807C23.3918 24.3719 23.402 24.4504 23.3901 24.5163C23.38 24.5822 23.3488 24.6345 23.2964 24.6734C23.2441 24.7139 23.1849 24.7274 23.1191 24.7139C23.0532 24.7021 22.9815 24.6683 22.9038 24.6126L21.5612 23.6272L20.2212 24.6126C20.1435 24.6683 20.0718 24.7021 20.0059 24.7139C19.9401 24.7274 19.8809 24.7139 19.8286 24.6734Z" fill="url(#paint0_linear_2955_3851)"/>
<defs>
<linearGradient id="paint0_linear_2955_3851" x1="15.7031" y1="29.0625" x2="15.7031" y2="2.34375" gradientUnits="userSpaceOnUse">
<stop stop-color="#459CFF"/>
<stop offset="1" stop-color="#50BEFC"/>
</linearGradient>
</defs>
</svg>
