<svg width="30" height="30" viewBox="0 0 30 30" fill="none" xmlns="http://www.w3.org/2000/svg">
<path fill-rule="evenodd" clip-rule="evenodd" d="M15.7312 2.22537L15 1.875L14.2688 2.22537C10.8459 3.86551 7.33417 5.31347 3.75 6.5625V16.3518C3.75 18.1325 4.38369 19.8551 5.53607 21.2127C7.81512 23.8898 10.9698 26.1938 15 28.125C19.0302 26.1938 22.1849 23.8898 24.4639 21.2127C25.6163 19.8551 26.25 18.1325 26.25 16.3518V6.5625C22.6658 5.31347 19.1541 3.86551 15.7312 2.22537ZM17.6613 10.7967C19.3218 12.4572 19.5277 15.0214 18.2791 16.9061L20.8071 19.4341C21.1862 19.8132 21.1862 20.4279 20.8071 20.807C20.428 21.1861 19.8133 21.1861 19.4342 20.807L16.9062 18.279C15.0215 19.5277 12.4572 19.3218 10.7967 17.6613C8.9011 15.7657 8.9011 12.6923 10.7967 10.7967C12.6923 8.9011 15.7657 8.9011 17.6613 10.7967ZM16.4029 16.4031C17.6034 15.2026 17.6034 13.2561 16.4029 12.0556C15.2023 10.855 13.2559 10.855 12.0553 12.0556C10.8548 13.2561 10.8548 15.2026 12.0553 16.4031C13.2559 17.6037 15.2023 17.6037 16.4029 16.4031Z" fill="url(#paint0_linear_2955_2178)"/>
<defs>
<linearGradient id="paint0_linear_2955_2178" x1="15" y1="28.125" x2="15" y2="1.875" gradientUnits="userSpaceOnUse">
<stop stop-color="#459CFF"/>
<stop offset="1" stop-color="#50BEFC"/>
</linearGradient>
</defs>
</svg>
