<svg width="30" height="30" viewBox="0 0 30 30" fill="none" xmlns="http://www.w3.org/2000/svg">
<path fill-rule="evenodd" clip-rule="evenodd" d="M15.7312 2.22537L15 1.875L14.2688 2.22537C10.8459 3.86551 7.33417 5.31347 3.75 6.5625V16.3518C3.75 18.1325 4.38369 19.8551 5.53607 21.2127C7.81512 23.8898 10.9698 26.1938 15 28.125C19.0302 26.1938 22.1849 23.8898 24.4639 21.2127C25.6163 19.8551 26.25 18.1325 26.25 16.3518V6.5625C22.6658 5.31347 19.1541 3.86551 15.7312 2.22537ZM11.5502 19.5401C11.4461 19.4629 11.3824 19.3588 11.3589 19.2279C11.3387 19.097 11.3605 18.9409 11.4243 18.7596L12.4767 15.6276L9.78781 13.694C9.63003 13.5832 9.52094 13.4691 9.46051 13.3516C9.40009 13.2341 9.39001 13.1133 9.4303 12.989C9.47058 12.8682 9.54947 12.7776 9.66696 12.7171C9.78445 12.6567 9.94055 12.6282 10.1353 12.6315L13.4334 12.6517L14.4355 9.50455C14.4959 9.31992 14.5714 9.1806 14.6621 9.08661C14.7561 8.99261 14.8669 8.94562 14.9944 8.94562C15.1253 8.94562 15.2361 8.99261 15.3268 9.08661C15.4207 9.1806 15.498 9.31992 15.5584 9.50455L16.5604 12.6517L19.8586 12.6315C20.0533 12.6282 20.2094 12.6567 20.3269 12.7171C20.4444 12.7776 20.5233 12.8682 20.5636 12.989C20.6039 13.1133 20.5938 13.2341 20.5334 13.3516C20.4729 13.4691 20.3638 13.5832 20.2061 13.694L17.5172 15.6276L18.5695 18.7596C18.6333 18.9409 18.6535 19.097 18.63 19.2279C18.6098 19.3588 18.5477 19.4629 18.4437 19.5401C18.3396 19.6207 18.2221 19.6475 18.0912 19.6207C17.9603 19.5972 17.8176 19.53 17.6632 19.4193L14.9944 17.4605L12.3307 19.4193C12.1763 19.53 12.0336 19.5972 11.9027 19.6207C11.7718 19.6475 11.6543 19.6207 11.5502 19.5401Z" fill="url(#paint0_linear_2955_3598)"/>
<defs>
<linearGradient id="paint0_linear_2955_3598" x1="15" y1="1.875" x2="15" y2="28.125" gradientUnits="userSpaceOnUse">
<stop stop-color="#30DBB1"/>
<stop offset="1" stop-color="#15C2B6"/>
</linearGradient>
</defs>
</svg>
