<svg width="30" height="30" viewBox="0 0 30 30" fill="none" xmlns="http://www.w3.org/2000/svg">
<path d="M23.5501 5.7311C24.5666 7.49194 24.3629 9.62246 23.2014 11.1434C25.0566 10.9518 26.938 11.8399 27.9314 13.5604C29.2247 15.8006 28.5432 18.639 26.4267 20.0596L17.6648 25.131C15.4523 26.4084 12.6563 25.7593 11.219 23.7043L8.76072 25.122L8.88097 25.0473C8.13462 25.5092 7.25463 25.7759 6.31237 25.7759C3.61318 25.7759 1.42505 23.5878 1.42505 20.8886C1.42505 19.1337 2.34994 17.5948 3.73886 16.7329L6.43051 15.1805L6.31418 14.9162C5.40171 12.6885 6.25326 10.0738 8.39603 8.83662L17.1692 3.78467C19.4575 2.66202 22.2566 3.49093 23.5501 5.7311ZM13.4134 17.766C11.6836 18.7647 11.091 20.9766 12.0897 22.7065C13.0884 24.4362 15.3003 25.0289 17.0301 24.0302C18.7599 23.0314 19.3525 20.8196 18.3538 19.0899C17.3551 17.36 15.1433 16.7673 13.4134 17.766ZM6.31313 17.2719C4.31574 17.2719 2.69651 18.8911 2.69651 20.8886C2.69651 22.8859 4.31574 24.5052 6.31313 24.5052C8.31054 24.5052 9.92975 22.8859 9.92975 20.8886C9.92975 18.8911 8.31054 17.2719 6.31313 17.2719ZM17.1674 19.7749C17.7882 20.8501 17.4198 22.225 16.3445 22.8459C15.2692 23.4665 13.8943 23.0982 13.2735 22.023C12.6527 20.9476 13.0211 19.5727 14.0963 18.9519C15.1716 18.3311 16.5466 18.6995 17.1674 19.7749ZM6.31161 18.6404C7.55324 18.6404 8.55978 19.647 8.55978 20.8886C8.55978 22.1302 7.55324 23.1367 6.31161 23.1367C5.06997 23.1367 4.06344 22.1302 4.06344 20.8886C4.06344 19.647 5.06997 18.6404 6.31161 18.6404ZM14.7324 20.0519C14.2648 20.3218 14.1047 20.9197 14.3746 21.3873C14.6445 21.8547 15.2423 22.0148 15.7098 21.745C16.1774 21.4751 16.3375 20.8772 16.0676 20.4098C15.7977 19.9422 15.1999 19.7821 14.7324 20.0519ZM6.31237 19.9111C5.77254 19.9111 5.3349 20.3486 5.3349 20.8886C5.3349 21.4283 5.77254 21.866 6.31237 21.866C6.8522 21.866 7.28983 21.4283 7.28983 20.8886C7.28983 20.3486 6.8522 19.9111 6.31237 19.9111ZM9.03203 9.9367C7.30223 10.9354 6.70955 13.1473 7.70827 14.8771C8.70696 16.6069 10.9188 17.1996 12.6486 16.2009C14.3785 15.2022 14.9711 12.9903 13.9724 11.2605C12.9737 9.53066 10.7618 8.93798 9.03203 9.9367ZM12.786 11.9455C13.4068 13.0208 13.0384 14.3957 11.9631 15.0165C10.8878 15.6374 9.51288 15.2689 8.89205 14.1936C8.27125 13.1184 8.63967 11.7434 9.71494 11.1226C10.7902 10.5018 12.1652 10.8702 12.786 11.9455ZM10.351 12.2227C9.88344 12.4926 9.72325 13.0904 9.99319 13.5579C10.2631 14.0254 10.8609 14.1856 11.3284 13.9157C11.7959 13.6457 11.9561 13.0479 11.6862 12.5804C11.4163 12.1129 10.8185 11.9527 10.351 12.2227Z" fill="url(#paint0_linear_2955_3633)"/>
<defs>
<linearGradient id="paint0_linear_2955_3633" x1="15.006" y1="3.28662" x2="15.006" y2="25.7866" gradientUnits="userSpaceOnUse">
<stop stop-color="#30DBB1"/>
<stop offset="1" stop-color="#15C2B6"/>
</linearGradient>
</defs>
</svg>
