<svg width="30" height="30" viewBox="0 0 30 30" fill="none" xmlns="http://www.w3.org/2000/svg">
<path fill-rule="evenodd" clip-rule="evenodd" d="M4.58546 27.3867L2.5458 25.6857C2.00749 25.227 1.72907 24.7192 1.71054 24.1623C1.69949 23.6047 1.96351 23.0419 2.50258 22.4739L12.7481 11.976L15.0132 13.8767C12.874 15.1526 11.4412 17.4897 11.4412 20.1614C11.4412 20.6448 11.4881 21.1172 11.5776 21.5744L7.74469 26.8726C7.28578 27.4939 6.77705 27.8479 6.21851 27.9345C5.66811 28.028 5.12376 27.8454 4.58546 27.3867ZM18.7537 12.8489C21.3436 12.8489 23.6191 14.1953 24.9182 16.2264L27.2776 13.4336C27.4759 13.1973 27.5557 12.945 27.5171 12.6767C27.4779 12.4008 27.3323 12.1607 27.0805 11.9563L26.1997 11.2068C25.956 11.0092 25.7494 10.8914 25.58 10.8534C25.4106 10.8154 25.2067 10.8143 24.9683 10.8503L23.6674 11.1226L22.751 10.3536L22.9944 8.73588C23.0577 8.33783 22.9968 7.94311 22.8116 7.55171C22.6263 7.16031 22.3097 6.77663 21.8617 6.40068L19.4075 4.36224C18.7314 3.79489 17.9752 3.34777 17.139 3.02088C16.3027 2.69399 15.4323 2.49463 14.5278 2.4228C13.6226 2.34348 12.7286 2.3915 11.8457 2.56687C10.9628 2.74224 10.1291 3.04917 9.34473 3.48766C8.55968 3.91866 7.8729 4.4807 7.28439 5.17379C7.03831 5.46705 6.93489 5.75161 6.97412 6.02747C7.02084 6.30266 7.13886 6.53011 7.32819 6.7098C7.47417 6.82534 7.64716 6.90456 7.84717 6.94745C8.04652 6.98285 8.24095 6.96206 8.43047 6.88509C9.49531 6.45981 10.5031 6.20181 11.4538 6.11109C12.4038 6.01287 13.3084 6.1715 14.1675 6.58697L13.5008 8.93241C13.3555 9.42821 13.3395 9.84854 13.4527 10.1934C13.5733 10.5376 13.801 10.8536 14.1357 11.1413L16.567 13.1814C17.2574 12.9654 17.992 12.8489 18.7537 12.8489ZM22.732 16.1839C24.6562 18.1082 24.8949 21.0797 23.448 23.2637L26.3776 26.1934C26.817 26.6327 26.817 27.345 26.3776 27.7844C25.9383 28.2237 25.226 28.2237 24.7866 27.7844L21.857 24.8547C19.673 26.3018 16.7013 26.0632 14.777 24.1389C12.5803 21.9422 12.5803 18.3806 14.777 16.1839C16.9737 13.9872 20.5353 13.9872 22.732 16.1839ZM21.2738 22.681C22.665 21.2897 22.665 19.0341 21.2738 17.6429C19.8826 16.2516 17.6269 16.2516 16.2357 17.6429C14.8444 19.0341 14.8444 21.2897 16.2357 22.681C17.6269 24.0722 19.8826 24.0722 21.2738 22.681Z" fill="url(#paint0_linear_2955_946)"/>
<defs>
<linearGradient id="paint0_linear_2955_946" x1="14.6184" y1="28.1139" x2="14.6184" y2="2.38574" gradientUnits="userSpaceOnUse">
<stop stop-color="#459CFF"/>
<stop offset="1" stop-color="#50BEFC"/>
</linearGradient>
</defs>
</svg>
