<svg width="30" height="30" viewBox="0 0 30 30" fill="none" xmlns="http://www.w3.org/2000/svg">
<path fill-rule="evenodd" clip-rule="evenodd" d="M15 2.8125L15.2709 2.82537C16.6079 2.95314 17.6719 4.01705 17.7996 5.35414L17.8125 5.625V10.3125C17.8125 10.8303 18.2322 11.25 18.75 11.25C19.2102 11.25 19.593 10.9184 19.6724 10.481L19.6875 10.3125L19.6888 6.62628C19.6889 6.3674 19.8989 6.15761 20.1577 6.1577C20.2404 6.15773 20.3215 6.17961 20.393 6.22111L20.6522 6.37164C23.3762 8.15769 25.1556 11.174 25.3026 14.5464C24.0228 13.5945 22.4367 13.0312 20.7191 13.0312C16.4734 13.0312 13.0316 16.473 13.0316 20.7187C13.0316 21.3131 13.0991 21.8919 13.2268 22.4476C10.172 22.2539 7.66888 21.5535 6.17883 20.4523C5.76243 20.1446 5.17541 20.2327 4.86769 20.6491C4.55997 21.0655 4.64808 21.6526 5.06448 21.9603C7.03311 23.4151 10.1902 24.2323 13.9469 24.3598C14.5569 25.492 15.4426 26.4537 16.514 27.1551C16.0176 27.1766 15.5124 27.1875 15 27.1875C7.7027 27.1875 1.875 24.9757 1.875 21.5625C1.875 20.1517 2.76738 18.9416 4.33574 18.0225L4.6875 17.8256V15C4.6875 11.4319 6.51577 8.21894 9.36859 6.35789L9.6085 6.21894C9.83253 6.0892 10.1193 6.16562 10.2491 6.38965C10.2904 6.46102 10.3122 6.54205 10.3122 6.62453L10.3125 10.3125C10.3125 10.8303 10.7322 11.25 11.25 11.25C11.7102 11.25 12.093 10.9184 12.1724 10.481L12.1875 10.3125V5.625L12.2004 5.35414C12.3367 3.92792 13.5381 2.8125 15 2.8125ZM24.6949 16.7414C26.6191 18.6656 26.8578 21.6371 25.4109 23.8212L28.3405 26.7508C28.7799 27.1902 28.7799 27.9025 28.3405 28.3418C27.9012 28.7812 27.1889 28.7812 26.7495 28.3418L23.8199 25.4122C21.6359 26.8592 18.6642 26.6206 16.7399 24.6963C14.5432 22.4996 14.5432 18.9381 16.7399 16.7414C18.9366 14.5447 22.4982 14.5447 24.6949 16.7414ZM23.2367 23.2384C24.6279 21.8472 24.6279 19.5915 23.2367 18.2003C21.8454 16.8091 19.5898 16.8091 18.1986 18.2003C16.8073 19.5915 16.8073 21.8472 18.1986 23.2384C19.5898 24.6297 21.8454 24.6297 23.2367 23.2384Z" fill="url(#paint0_linear_2955_3932)"/>
<defs>
<linearGradient id="paint0_linear_2955_3932" x1="15.2725" y1="28.6713" x2="15.2725" y2="2.8125" gradientUnits="userSpaceOnUse">
<stop stop-color="#459CFF"/>
<stop offset="1" stop-color="#50BEFC"/>
</linearGradient>
</defs>
</svg>
