<svg width="30" height="30" viewBox="0 0 30 30" fill="none" xmlns="http://www.w3.org/2000/svg">
<path fill-rule="evenodd" clip-rule="evenodd" d="M15 2.8125L15.2709 2.82537C16.6079 2.95314 17.6719 4.01705 17.7996 5.35414L17.8125 5.625V10.3125C17.8125 10.8303 18.2322 11.25 18.75 11.25C19.2102 11.25 19.593 10.9184 19.6724 10.481L19.6875 10.3125L19.6888 6.62628C19.6889 6.3674 19.8989 6.15761 20.1577 6.1577C20.2404 6.15773 20.3215 6.17961 20.393 6.22111L20.6522 6.37164C23.3797 8.15994 25.16 11.1816 25.3032 14.5592L25.3125 15V17.8275C26.9817 18.7071 27.985 19.8816 28.1114 21.2633L28.125 21.5625C28.125 24.9757 22.2973 27.1875 15 27.1875C7.7027 27.1875 1.875 24.9757 1.875 21.5625C1.875 20.1517 2.76738 18.9416 4.33574 18.0225L4.6875 17.8256V15C4.6875 11.4319 6.51577 8.21894 9.36859 6.35789L9.6085 6.21894C9.83253 6.0892 10.1193 6.16562 10.2491 6.38965C10.2904 6.46102 10.3122 6.54205 10.3122 6.62453L10.3125 10.3125C10.3125 10.8303 10.7322 11.25 11.25 11.25C11.7102 11.25 12.093 10.9184 12.1724 10.481L12.1875 10.3125V5.625L12.2004 5.35414C12.3367 3.92792 13.5381 2.8125 15 2.8125ZM25.1312 20.6503C24.8236 20.2338 24.2366 20.1455 23.8201 20.4531C22.0505 21.7602 18.8531 22.5024 15 22.5024C11.1461 22.5024 7.94822 21.7599 6.17883 20.4523C5.76243 20.1446 5.17541 20.2327 4.86769 20.6491C4.55997 21.0655 4.64808 21.6526 5.06448 21.9603C7.21447 23.5491 10.7819 24.3774 15 24.3774C19.2171 24.3774 22.7839 23.5495 24.9341 21.9613C25.3505 21.6537 25.4388 21.0667 25.1312 20.6503Z" fill="url(#paint0_linear_2955_5930)"/>
<defs>
<linearGradient id="paint0_linear_2955_5930" x1="1.875" y1="2.8125" x2="1.875" y2="27.1875" gradientUnits="userSpaceOnUse">
<stop stop-color="#FCCA3F"/>
<stop offset="1" stop-color="#FCAA2D"/>
</linearGradient>
</defs>
</svg>
