<svg width="30" height="30" viewBox="0 0 30 30" fill="none" xmlns="http://www.w3.org/2000/svg">
<path d="M20.2913 26.0317C19.5468 26.3748 18.7507 25.7913 18.7507 24.9716C18.7507 24.4704 19.0612 24.0266 19.5118 23.807C22.9461 22.1334 25.3125 18.6087 25.3125 14.5312C25.3125 8.83581 20.6954 4.21875 15 4.21875C9.30456 4.21875 4.6875 8.83581 4.6875 14.5312C4.6875 18.6092 7.05443 22.1342 10.4894 23.8076C10.94 24.0271 11.2507 24.4709 11.2507 24.9722C11.2507 25.7918 10.4546 26.3753 9.71015 26.0324C5.36199 24.0292 2.34375 19.6327 2.34375 14.5312C2.34375 7.5414 8.01015 1.875 15 1.875C21.9899 1.875 27.6562 7.5414 27.6562 14.5312C27.6562 19.6321 24.6387 24.0282 20.2913 26.0317Z" fill="url(#paint0_linear_2955_614)"/>
<path d="M18.8279 21.255C18.7507 21.1541 18.7507 20.9949 18.7507 20.6764V14.5312L18.751 14.4356C18.7524 14.1163 18.7546 13.6451 18.6388 13.2132C18.3354 12.0809 17.451 11.1965 16.3187 10.893C15.8868 10.7773 15.4156 10.7795 15.0963 10.7809L15.0007 10.7812L14.905 10.7809C14.5858 10.7795 14.1145 10.7773 13.6827 10.893C12.5503 11.1965 11.6659 12.0809 11.3625 13.2132C11.2467 13.6451 11.2489 14.1164 11.2504 14.4356L11.2507 14.5312V20.6768C11.2507 20.9952 11.2507 21.1545 11.1734 21.2554C11.11 21.3382 10.997 21.3972 10.8928 21.402C10.7659 21.4078 10.6445 21.3234 10.4019 21.1546C8.30826 19.6984 6.93787 17.2748 6.93787 14.5312C6.93787 10.0784 10.5476 6.46874 15.0004 6.46874C19.4532 6.46874 23.0629 10.0784 23.0629 14.5312C23.0629 17.2746 21.6927 19.6979 19.5994 21.1542C19.3568 21.323 19.2355 21.4075 19.1085 21.4016C19.0044 21.3969 18.8913 21.3378 18.8279 21.255Z" fill="url(#paint1_linear_2955_614)"/>
<path d="M13.125 14.5312C13.125 14.0953 13.125 13.8774 13.1729 13.6985C13.3029 13.2133 13.682 12.8342 14.1673 12.7042C14.3461 12.6562 14.5641 12.6562 15 12.6562C15.4359 12.6562 15.6539 12.6562 15.8327 12.7042C16.318 12.8342 16.6971 13.2133 16.8271 13.6985C16.875 13.8774 16.875 14.0953 16.875 14.5312V15.4688H13.125V14.5312Z" fill="url(#paint2_linear_2955_614)"/>
<path d="M13.125 26.1926V16.875H16.875V26.1926C16.875 26.3876 16.875 26.4851 16.8559 26.5784C16.8389 26.6611 16.8108 26.7412 16.7724 26.8164C16.729 26.9012 16.6681 26.9773 16.5463 27.1296L15.4685 28.4768C15.3084 28.677 15.2283 28.7771 15.1315 28.8134C15.0467 28.8451 14.9533 28.8451 14.8685 28.8134C14.7717 28.7771 14.6916 28.677 14.5315 28.4768L13.4537 27.1296C13.3319 26.9773 13.271 26.9012 13.2276 26.8164C13.1892 26.7412 13.1611 26.6611 13.1441 26.5784C13.125 26.4851 13.125 26.3876 13.125 26.1926Z" fill="url(#paint3_linear_2955_614)"/>
<defs>
<linearGradient id="paint0_linear_2955_614" x1="15" y1="28.8372" x2="15" y2="1.875" gradientUnits="userSpaceOnUse">
<stop stop-color="#459CFF"/>
<stop offset="1" stop-color="#50BEFC"/>
</linearGradient>
<linearGradient id="paint1_linear_2955_614" x1="15" y1="28.8372" x2="15" y2="1.875" gradientUnits="userSpaceOnUse">
<stop stop-color="#459CFF"/>
<stop offset="1" stop-color="#50BEFC"/>
</linearGradient>
<linearGradient id="paint2_linear_2955_614" x1="15" y1="28.8372" x2="15" y2="1.875" gradientUnits="userSpaceOnUse">
<stop stop-color="#459CFF"/>
<stop offset="1" stop-color="#50BEFC"/>
</linearGradient>
<linearGradient id="paint3_linear_2955_614" x1="15" y1="28.8372" x2="15" y2="1.875" gradientUnits="userSpaceOnUse">
<stop stop-color="#459CFF"/>
<stop offset="1" stop-color="#50BEFC"/>
</linearGradient>
</defs>
</svg>
