<svg width="30" height="30" viewBox="0 0 30 30" fill="none" xmlns="http://www.w3.org/2000/svg">
<path fill-rule="evenodd" clip-rule="evenodd" d="M14.0625 1.875L14.25 1.88391C15.1757 1.97237 15.9122 2.70892 16.0007 3.6346L16.0096 3.82212V6.12981C16.0096 6.48826 16.3002 6.77885 16.6587 6.77885C16.9773 6.77885 17.2423 6.54925 17.2972 6.24647L17.3077 6.12981L17.3086 3.57781C17.3087 3.39859 17.454 3.25335 17.6332 3.25341C17.6904 3.25343 17.7466 3.26857 17.7961 3.29731L17.9755 3.40152C19.8638 4.63957 21.0964 6.73146 21.1955 9.0698L21.2019 9.375V9.84375H21.75C22.1642 9.84375 22.5 10.1795 22.5 10.5938C22.5 11.008 22.1642 11.3438 21.75 11.3438H20.1562V11.7188C20.1562 12.0395 20.1315 12.3545 20.0837 12.6618C19.9834 12.6581 19.8825 12.6562 19.7812 12.6562C16.4455 12.6562 13.5829 14.682 12.3566 17.5705C9.82138 16.8327 7.96875 14.4921 7.96875 11.7188V11.3438H6.375C5.96079 11.3438 5.625 11.008 5.625 10.5938C5.625 10.1795 5.96079 9.84375 6.375 9.84375H6.92308V9.375C6.92308 6.90479 8.1888 4.68042 10.1638 3.392L10.3299 3.29581C10.485 3.20598 10.6836 3.25889 10.7734 3.41399C10.802 3.4634 10.8171 3.5195 10.8171 3.5766L10.8173 6.12981C10.8173 6.48826 11.1079 6.77885 11.4663 6.77885C11.785 6.77885 12.05 6.54925 12.1049 6.24647L12.1154 6.12981V3.82212L12.1243 3.6346C12.2186 2.64721 13.0504 1.875 14.0625 1.875ZM9.697 19.3726C10.6811 19.1266 11.3676 18.955 11.9388 18.8398C11.7949 19.4427 11.7188 20.0718 11.7188 20.7188C11.7188 23.3674 12.9959 25.7177 14.968 27.1875H4.3125C3.78745 27.1875 3.52493 27.1875 3.32438 27.0853C3.14798 26.9954 3.00456 26.852 2.91468 26.6756C2.8125 26.4751 2.8125 26.2125 2.8125 25.6875V25.3097C2.8125 23.6347 2.8125 23.2659 3.10524 22.5691C3.36352 21.9544 3.78106 21.4196 4.31483 21.0199C4.91979 20.5669 5.7323 20.3638 7.35729 19.9576L9.69686 19.3727L9.697 19.3726ZM23.7574 16.7414C25.6816 18.6656 25.9203 21.6371 24.4734 23.8212L27.403 26.7508C27.8424 27.1902 27.8424 27.9025 27.403 28.3418C26.9637 28.7812 26.2514 28.7812 25.812 28.3418L22.8824 25.4122C20.6984 26.8592 17.7267 26.6206 15.8024 24.6963C13.6057 22.4996 13.6057 18.9381 15.8024 16.7414C17.9991 14.5447 21.5607 14.5447 23.7574 16.7414ZM22.2992 23.2384C23.6904 21.8472 23.6904 19.5915 22.2992 18.2003C20.9079 16.8091 18.6523 16.8091 17.2611 18.2003C15.8698 19.5915 15.8698 21.8472 17.2611 23.2384C18.6523 24.6297 20.9079 24.6297 22.2992 23.2384Z" fill="url(#paint0_linear_2955_3679)"/>
<defs>
<linearGradient id="paint0_linear_2955_3679" x1="15.2725" y1="28.6713" x2="15.2725" y2="1.875" gradientUnits="userSpaceOnUse">
<stop stop-color="#459CFF"/>
<stop offset="1" stop-color="#50BEFC"/>
</linearGradient>
</defs>
</svg>
