<svg width="30" height="30" viewBox="0 0 30 30" fill="none" xmlns="http://www.w3.org/2000/svg">
<path d="M11.25 2.8125C11.25 1.77697 12.0895 0.9375 13.125 0.9375H16.875C17.9105 0.9375 18.75 1.77697 18.75 2.8125C18.75 3.84803 17.9105 4.6875 16.875 4.6875H13.125C12.0895 4.6875 11.25 3.84803 11.25 2.8125Z" fill="url(#paint0_linear_2955_3642)"/>
<path d="M9.1875 2.80586H9.37501L9.375 2.8125C9.375 4.88357 11.0539 6.5625 13.125 6.5625H16.875C18.9461 6.5625 20.625 4.88357 20.625 2.8125L20.625 2.80586H20.8125C22.3876 2.80586 23.1752 2.80586 23.7768 3.11241C24.3061 3.38205 24.7363 3.81231 25.006 4.34151C25.3125 4.94314 25.3125 5.73071 25.3125 7.30586V15.6633C25.2462 15.6811 25.182 15.6995 25.1201 15.718C25.1164 15.7188 25.1116 15.7199 25.1055 15.7211C25.1006 15.722 25.0949 15.7231 25.0883 15.7243C25.059 15.7295 25.0171 15.7356 24.9612 15.7414C24.8475 15.7531 24.6935 15.7615 24.4928 15.7615C23.9654 15.7615 23.5227 15.6936 23.1491 15.5799C22.5445 15.3926 21.9317 15.2053 21.3107 15.0181C20.4402 14.7457 19.5186 14.625 18.5677 14.625C18.0351 14.625 17.4661 14.6529 16.9626 14.7664C16.5702 14.8494 16.1892 14.9724 15.8222 15.135C15.2489 15.3861 14.6787 15.7918 14.2629 16.4154C13.8427 17.0457 13.6871 17.7386 13.6871 18.3818V27.1809H9.1875C7.61235 27.1809 6.82478 27.1809 6.22315 26.8743C5.69395 26.6047 5.26369 26.1744 4.99404 25.6452C4.6875 25.0436 4.6875 24.256 4.6875 22.6809V7.30586C4.6875 5.73071 4.6875 4.94314 4.99404 4.34151C5.26369 3.81231 5.69395 3.38205 6.22315 3.11241C6.82478 2.80586 7.61235 2.80586 9.1875 2.80586Z" fill="url(#paint1_linear_2955_3642)"/>
<path d="M16.5377 29.6829C16.3759 29.6829 16.2355 29.6233 16.1163 29.5041C15.9971 29.3849 15.9375 29.2487 15.9375 29.0955V18.3818C15.9375 17.8199 16.2014 17.4241 16.7292 17.1942C16.9591 17.0921 17.1974 17.0155 17.4443 16.9644C17.6997 16.9048 18.0743 16.875 18.568 16.875C19.3342 16.875 20.028 16.9729 20.6495 17.1687C21.2709 17.356 21.8839 17.5433 22.4883 17.7306C23.1012 17.9179 23.7695 18.0115 24.4931 18.0115C25.0124 18.0115 25.4253 17.9689 25.7318 17.8838C26.0382 17.7902 26.2851 17.7433 26.4724 17.7433C26.9491 17.7433 27.1875 17.9562 27.1875 18.3818V24.6772C27.1875 25.2306 26.9236 25.6264 26.3958 25.8648C26.1574 25.9755 25.9105 26.0606 25.6552 26.1202C25.3998 26.1713 25.0337 26.1968 24.557 26.1968C23.8163 26.1968 23.1395 26.1032 22.5266 25.9159C21.9222 25.7286 21.3135 25.5413 20.7006 25.354C20.0876 25.1667 19.3981 25.0731 18.6319 25.0731C18.2403 25.0731 17.9168 25.1029 17.6614 25.1625C17.4145 25.222 17.2315 25.2774 17.1123 25.3285V29.0955C17.1123 29.2572 17.057 29.3977 16.9463 29.5169C16.8356 29.6276 16.6994 29.6829 16.5377 29.6829Z" fill="url(#paint2_linear_2955_3642)"/>
<defs>
<linearGradient id="paint0_linear_2955_3642" x1="15.9375" y1="0.9375" x2="15.9375" y2="29.6829" gradientUnits="userSpaceOnUse">
<stop stop-color="#30DBB1"/>
<stop offset="1" stop-color="#15C2B6"/>
</linearGradient>
<linearGradient id="paint1_linear_2955_3642" x1="15.9375" y1="0.9375" x2="15.9375" y2="29.6829" gradientUnits="userSpaceOnUse">
<stop stop-color="#30DBB1"/>
<stop offset="1" stop-color="#15C2B6"/>
</linearGradient>
<linearGradient id="paint2_linear_2955_3642" x1="15.9375" y1="0.9375" x2="15.9375" y2="29.6829" gradientUnits="userSpaceOnUse">
<stop stop-color="#30DBB1"/>
<stop offset="1" stop-color="#15C2B6"/>
</linearGradient>
</defs>
</svg>
