<svg width="30" height="30" viewBox="0 0 30 30" fill="none" xmlns="http://www.w3.org/2000/svg">
<path fill-rule="evenodd" clip-rule="evenodd" d="M2.8125 7.3125C2.8125 5.73735 2.8125 4.94978 3.11904 4.34815C3.38869 3.81895 3.81895 3.38869 4.34815 3.11904C4.94978 2.8125 5.73735 2.8125 7.3125 2.8125H22.6875C24.2626 2.8125 25.0502 2.8125 25.6518 3.11904C26.1811 3.38869 26.6113 3.81895 26.881 4.34815C27.1875 4.94978 27.1875 5.73735 27.1875 7.3125V22.6875C27.1875 24.2626 27.1875 25.0502 26.881 25.6518C26.6113 26.1811 26.1811 26.6113 25.6518 26.881C25.0502 27.1875 24.2626 27.1875 22.6875 27.1875H7.3125C5.73735 27.1875 4.94978 27.1875 4.34815 26.881C3.81895 26.6113 3.38869 26.1811 3.11904 25.6518C2.8125 25.0502 2.8125 24.2626 2.8125 22.6875V7.3125ZM12.9589 6.74052C12.8987 6.73363 12.8373 6.76798 12.7145 6.8367C11.2814 7.63858 10.3125 9.17127 10.3125 10.9303V11.0553H10C9.65482 11.0553 9.375 11.3351 9.375 11.6803C9.375 12.0254 9.65482 12.3053 10 12.3053H10.9375V12.3469C10.9375 14.5906 12.7563 16.4094 15 16.4094C17.2437 16.4094 19.0625 14.5906 19.0625 12.3469V12.3053H20C20.3452 12.3053 20.625 12.0254 20.625 11.6803C20.625 11.3351 20.3452 11.0553 20 11.0553H19.6875V10.9303C19.6875 9.17127 18.7186 7.63858 17.2855 6.8367C17.1627 6.76798 17.1012 6.73363 17.0411 6.74052C16.9912 6.74624 16.9397 6.77645 16.9104 6.8172C16.875 6.86629 16.875 6.94128 16.875 7.09125V7.649C16.875 7.90789 16.6651 8.11775 16.4062 8.11775C16.1474 8.11775 15.9375 7.90789 15.9375 7.649V6.58174C15.9375 6.4946 15.9375 6.45103 15.9207 6.41404C15.9064 6.38265 15.8809 6.35303 15.8519 6.33429C15.8178 6.3122 15.7772 6.30616 15.696 6.29407L15.696 6.29407C15.4689 6.26027 15.2365 6.24275 15 6.24275C14.7635 6.24275 14.5311 6.26027 14.304 6.29407L14.304 6.29407C14.2228 6.30616 14.1822 6.3122 14.1481 6.33429C14.1191 6.35303 14.0936 6.38265 14.0793 6.41404C14.0625 6.45103 14.0625 6.4946 14.0625 6.58173V6.58174V7.649C14.0625 7.90789 13.8526 8.11775 13.5938 8.11775C13.3349 8.11775 13.125 7.90789 13.125 7.649V7.09125V7.09124C13.125 6.94128 13.125 6.86629 13.0896 6.8172C13.0603 6.77645 13.0088 6.74624 12.9589 6.74052ZM19.7364 18.3527C19.1238 18.0259 18.5161 17.8519 16.8403 17.8519L12.7834 17.8549C11.3824 17.8795 10.8211 18.0511 10.2556 18.3527C9.64294 18.6796 9.16214 19.1592 8.83449 19.7703C8.64816 20.1178 8.53017 20.4605 8.4557 20.8064C8.32653 21.4063 8.26194 21.7062 8.38198 22.0651C8.4745 22.3417 8.73686 22.6666 8.98779 22.8152C9.31337 23.0081 9.72297 23.0081 10.5422 23.0081H19.4498C20.269 23.0081 20.6786 23.0081 21.0042 22.8152C21.2551 22.6666 21.5175 22.3417 21.61 22.0651C21.7301 21.7062 21.6655 21.4063 21.5363 20.8064C21.4618 20.4605 21.3438 20.1178 21.1575 19.7703C20.8299 19.1592 20.3491 18.6796 19.7364 18.3527Z" fill="url(#paint0_linear_2955_128)"/>
<defs>
<linearGradient id="paint0_linear_2955_128" x1="2.8125" y1="2.8125" x2="2.8125" y2="27.1875" gradientUnits="userSpaceOnUse">
<stop stop-color="#FCCA3F"/>
<stop offset="1" stop-color="#FCAA2D"/>
</linearGradient>
</defs>
</svg>
