<svg width="30" height="30" viewBox="0 0 30 30" fill="none" xmlns="http://www.w3.org/2000/svg">
<path fill-rule="evenodd" clip-rule="evenodd" d="M23.4375 1.875C23.9552 1.875 24.375 2.29474 24.375 2.8125C24.375 3.33026 23.9552 3.75 23.4375 3.75H8.43751C6.8842 3.75 5.62501 5.00919 5.62501 6.5625C5.62501 8.11581 6.8842 9.375 8.43751 9.375H23.4375C23.9552 9.375 24.375 8.95526 24.375 8.4375C24.375 7.91974 23.9552 7.5 23.4375 7.5H8.43751C7.91975 7.5 7.50001 7.08026 7.50001 6.5625C7.50001 6.04474 7.91975 5.625 8.43751 5.625L22.4747 5.62642C23.5825 5.63352 24.213 5.67609 24.7144 5.93154C25.2435 6.20119 25.6738 6.63144 25.9434 7.16064C26.25 7.76228 26.25 8.54985 26.25 10.125L26.2498 23.2831C26.2479 24.8528 26.2225 25.6854 25.8924 26.3334C25.5778 26.9509 25.0759 27.4528 24.4584 27.7674C23.7564 28.125 22.8377 28.125 21 28.125H9.00001C7.16234 28.125 6.2435 28.125 5.54161 27.7674C4.92419 27.4528 4.42223 26.9509 4.10765 26.3334C3.80503 25.7394 3.75847 24.9902 3.75131 23.6605L3.75122 8.39253C3.75909 6.40523 3.81813 5.30343 4.26091 4.43441C4.71033 3.55241 5.42742 2.83532 6.30942 2.3859C7.17844 1.94312 8.28024 1.88408 10.2675 1.87621L23.4375 1.875ZM14.9944 13.1644C14.8669 13.1644 14.7561 13.2114 14.6621 13.3054C14.5715 13.3993 14.4959 13.5387 14.4355 13.7233L13.4334 16.8704L10.1353 16.8503C9.94057 16.8469 9.78447 16.8754 9.66697 16.9359C9.54948 16.9963 9.4706 17.087 9.4303 17.2078C9.39003 17.332 9.4001 17.4529 9.46053 17.5703C9.52094 17.6878 9.63005 17.802 9.78783 17.9128L12.4767 19.8463L11.4243 22.9783C11.3605 23.1596 11.3387 23.3158 11.3589 23.4467C11.3824 23.5776 11.4462 23.6816 11.5502 23.7589C11.6543 23.8395 11.7718 23.8663 11.9027 23.8395C12.0336 23.8159 12.1763 23.7488 12.3307 23.6379L14.9944 21.6793L17.6632 23.6379C17.8176 23.7488 17.9603 23.8159 18.0912 23.8395C18.2221 23.8663 18.3396 23.8395 18.4437 23.7589C18.5477 23.6816 18.6098 23.5776 18.63 23.4467C18.6535 23.3158 18.6333 23.1596 18.5696 22.9783L17.5172 19.8463L20.2061 17.9128C20.3638 17.802 20.4729 17.6878 20.5333 17.5703C20.5937 17.4529 20.6038 17.332 20.5635 17.2078C20.5234 17.087 20.4444 16.9963 20.3269 16.9359C20.2095 16.8754 20.0533 16.8469 19.8587 16.8503L16.5604 16.8704L15.5584 13.7233C15.498 13.5387 15.4208 13.3993 15.3268 13.3054C15.2361 13.2114 15.1254 13.1644 14.9944 13.1644Z" fill="url(#paint0_linear_2955_988)"/>
<defs>
<linearGradient id="paint0_linear_2955_988" x1="15.0006" y1="28.125" x2="15.0006" y2="1.875" gradientUnits="userSpaceOnUse">
<stop stop-color="#459CFF"/>
<stop offset="1" stop-color="#50BEFC"/>
</linearGradient>
</defs>
</svg>
