<svg width="30" height="30" viewBox="0 0 30 30" fill="none" xmlns="http://www.w3.org/2000/svg">
<path d="M23.7143 23.9062C25.2436 23.9062 25.7983 24.0522 26.3573 24.3264C26.9163 24.6005 27.3552 25.0027 27.6541 25.5153C27.8242 25.8069 27.9318 26.0944 27.9997 26.3844C28.1176 26.8876 28.1767 27.1391 28.067 27.4401C27.9826 27.6723 27.7432 27.9447 27.5141 28.0694C27.2171 28.2312 26.8434 28.2312 26.0956 28.2312L17.7034 28.2309C17.127 28.2287 16.8083 28.211 16.5483 28.0694C16.3193 27.9447 16.0799 27.6723 15.9954 27.4401C15.8859 27.1391 15.9448 26.8876 16.0627 26.3844C16.1307 26.0944 16.2384 25.8069 16.4084 25.5153C16.7074 25.0027 17.1462 24.6005 17.7052 24.3264C18.2213 24.0733 18.7335 23.9295 20.0121 23.9088L23.7143 23.9062ZM15.6108 1.91224C17.2238 2.05294 18.7293 2.47916 20.1274 3.19089C21.5252 3.90264 22.7537 4.82957 23.8125 5.97167C24.8713 7.11379 25.6986 8.41727 26.2941 9.88215C26.8898 11.3387 27.1875 12.8864 27.1875 14.525C27.1875 14.9287 27.1695 15.3269 27.1334 15.7197C26.6182 14.7514 25.8319 13.9386 24.8513 13.3899C24.7662 13.3408 24.6652 13.287 24.5507 13.2381L24.363 13.1673C24.2356 13.1257 24.1029 13.0957 23.963 13.0806L23.8125 13.0744L23.7602 13.0336C23.4142 12.8096 23.2778 12.7775 22.8871 12.7194C22.6052 12.6775 22.3192 12.6562 22.0312 12.6562C21.7433 12.6562 21.4573 12.6775 21.1752 12.7195L20.9677 12.7529C20.7217 12.798 20.5792 12.8544 20.3025 13.0335L20.25 13.0744L20.0996 13.0806C19.8896 13.1032 19.6961 13.1594 19.5118 13.2381C19.3973 13.287 19.2963 13.3408 19.2111 13.3899L18.8982 13.5781C17.6751 14.3673 16.797 15.5856 16.4344 16.9858L16.3913 17.1731L16.3406 17.2138C15.8081 17.6532 15.4688 18.3182 15.4688 19.0625L15.4811 19.3075C15.5711 20.1934 16.1438 20.9367 16.932 21.2701L17.0512 21.3131L17.0999 21.4536C17.2194 21.7744 17.3692 22.0804 17.5465 22.3667C17.3194 22.443 17.101 22.5344 16.8798 22.6429C15.9931 23.0776 15.2764 23.7347 14.7888 24.5705C14.5306 25.0133 14.3506 25.4724 14.2372 25.9566C14.1031 26.5291 14.0418 26.844 14.0538 27.1743L14.5312 27.1875C13.0423 27.1875 11.5988 26.9269 10.2008 26.4054C8.80284 25.884 7.52895 25.1392 6.37914 24.1708L15.313 15.4064C15.437 15.2906 15.5198 15.1747 15.5611 15.0589C15.5942 14.943 15.6108 14.8023 15.6108 14.6368V1.91224ZM22.0312 14.5312C22.2283 14.5312 22.422 14.5458 22.6113 14.574C22.6789 14.5841 22.7128 14.5891 22.7412 14.6075C22.7653 14.6231 22.7866 14.6478 22.7985 14.674C22.8125 14.7048 22.8125 14.7411 22.8125 14.8137V15.7031C22.8125 15.9189 22.9874 16.0938 23.2031 16.0938C23.4189 16.0938 23.5937 15.9189 23.5937 15.7031L23.5948 15.1327C23.597 15.0741 23.6036 15.0372 23.6232 15.01C23.6477 14.976 23.6906 14.9508 23.7322 14.946C23.7823 14.9403 23.8335 14.9689 23.9358 15.0262C25.1301 15.6944 25.9375 16.9717 25.9375 18.4375V18.5417H26.198C26.4856 18.5417 26.7188 18.7748 26.7188 19.0625C26.7188 19.3501 26.4856 19.5833 26.198 19.5833H25.4167V19.6181C25.4167 21.4878 23.901 23.0035 22.0312 23.0035C20.1615 23.0035 18.6458 21.4878 18.6458 19.6181V19.5833H17.8646C17.5769 19.5833 17.3438 19.3501 17.3438 19.0625C17.3438 18.7748 17.5769 18.5417 17.8646 18.5417H18.125V18.4375C18.125 16.9717 18.9324 15.6944 20.1267 15.0262C20.229 14.9689 20.2802 14.9403 20.3303 14.946C20.3719 14.9508 20.4148 14.976 20.4393 15.01C20.4688 15.0509 20.4688 15.1134 20.4688 15.2383V15.7031C20.4688 15.9189 20.6436 16.0938 20.8594 16.0938C21.0751 16.0938 21.25 15.9189 21.25 15.7031L21.2505 14.7521C21.2516 14.7175 21.2547 14.6945 21.264 14.674C21.2759 14.6478 21.2972 14.6231 21.3213 14.6075C21.3497 14.5891 21.3836 14.5841 21.4512 14.574C21.6405 14.5458 21.8342 14.5312 22.0312 14.5312ZM3.1158 9.12488L13.2532 14.9595L5.15074 22.9667C4.13327 21.8494 3.33502 20.5582 2.75597 19.0935C2.16866 17.6286 1.875 16.1058 1.875 14.525C1.875 13.5898 1.98253 12.6546 2.19761 11.7194C2.41267 10.7842 2.71875 9.91939 3.1158 9.12488ZM13.9481 1.875V13.4326L3.93474 7.67242C4.65441 6.54686 5.54779 5.55787 6.61489 4.70542C7.67372 3.85299 8.83179 3.18263 10.0891 2.69434C11.3465 2.20605 12.6328 1.93294 13.9481 1.875Z" fill="url(#paint0_linear_2955_3749)"/>
<defs>
<linearGradient id="paint0_linear_2955_3749" x1="1.875" y1="1.875" x2="1.875" y2="28.2312" gradientUnits="userSpaceOnUse">
<stop stop-color="#FCCA3F"/>
<stop offset="1" stop-color="#FCAA2D"/>
</linearGradient>
</defs>
</svg>
