<svg width="30" height="30" viewBox="0 0 30 30" fill="none" xmlns="http://www.w3.org/2000/svg">
<path fill-rule="evenodd" clip-rule="evenodd" d="M25.0948 22.9845C28.7966 18.5329 29.1403 12.1828 25.9407 7.35816C22.7411 2.53351 16.7547 0.375118 11.2093 2.04675C5.66383 3.71838 1.87069 8.82475 1.875 14.6126C1.87574 17.6747 2.95565 20.6387 4.92524 22.9845L4.90647 23C4.97215 23.0793 5.04721 23.1469 5.11495 23.2243C5.19939 23.3214 5.28983 23.4118 5.37765 23.5063C5.64035 23.7906 5.90999 24.0643 6.19389 24.3219C6.27974 24.3998 6.36878 24.473 6.45659 24.5485C6.75682 24.8072 7.06493 25.0521 7.38543 25.281C7.4268 25.3102 7.46349 25.3459 7.50514 25.3753V25.3634C12.0074 28.5293 18.0143 28.5293 22.5166 25.3634V25.3751C22.5582 25.3458 22.5949 25.31 22.6363 25.2808C22.9564 25.0519 23.2649 24.807 23.5651 24.5483C23.653 24.4733 23.742 24.3996 23.8278 24.3217C24.1116 24.064 24.3814 23.7904 24.6441 23.5061C24.7316 23.4118 24.8218 23.3212 24.9068 23.2241C24.9742 23.1468 25.0496 23.0791 25.1153 22.9999L25.0948 22.9845ZM15 7.1126C17.33 7.1126 19.2188 9.0014 19.2188 11.3314C19.2188 13.6613 17.33 15.5501 15 15.5501C12.6701 15.5501 10.7813 13.6613 10.7813 11.3314C10.7813 9.0014 12.6701 7.1126 15 7.1126ZM7.50666 22.9845C7.54035 20.423 9.62579 18.3638 12.1875 18.3626H17.8125C20.3742 18.3639 22.4596 20.423 22.4934 22.9845C18.2348 26.822 11.7653 26.822 7.50666 22.9845Z" fill="url(#paint0_linear_2955_4066)"/>
<defs>
<linearGradient id="paint0_linear_2955_4066" x1="15" y1="27.7378" x2="15" y2="1.48682" gradientUnits="userSpaceOnUse">
<stop stop-color="#459CFF"/>
<stop offset="1" stop-color="#50BEFC"/>
</linearGradient>
</defs>
</svg>
