<svg width="30" height="30" viewBox="0 0 30 30" fill="none" xmlns="http://www.w3.org/2000/svg">
<path fill-rule="evenodd" clip-rule="evenodd" d="M4.99404 3.8794C4.6875 4.48103 4.6875 5.2686 4.6875 6.84375V22.6875C4.6875 24.2626 4.6875 25.0502 4.99404 25.6518C5.26369 26.1811 5.69395 26.6113 6.22315 26.881C6.82478 27.1875 7.61235 27.1875 9.1875 27.1875H16.4106C13.8243 25.845 12.0575 23.1424 12.0575 20.0271C12.0575 15.5743 15.6672 11.9646 20.12 11.9646C22.098 11.9646 23.9097 12.6769 25.3125 13.8591V6.84375C25.3125 5.2686 25.3125 4.48103 25.006 3.8794C24.7363 3.3502 24.3061 2.91994 23.7768 2.65029C23.1752 2.34375 22.3876 2.34375 20.8125 2.34375H9.1875C7.61235 2.34375 6.82478 2.34375 6.22315 2.65029C5.69395 2.91994 5.26369 3.3502 4.99404 3.8794ZM7.03125 11.3184V5.625C7.03125 5.10723 7.45098 4.6875 7.96875 4.6875H11.7188C12.2365 4.6875 12.6563 5.10723 12.6563 5.625V11.3184C12.6563 11.4774 12.4708 11.5642 12.3487 11.4625L9.96379 9.47503C9.89425 9.41708 9.79325 9.41708 9.72372 9.47503L7.33878 11.4625C7.21666 11.5642 7.03125 11.4774 7.03125 11.3184Z" fill="url(#paint0_linear_2955_276)"/>
<path fill-rule="evenodd" clip-rule="evenodd" d="M24.0961 16.0496C26.0204 17.9739 26.259 20.9454 24.8121 23.1294L27.7418 26.0591C28.1811 26.4984 28.1811 27.2107 27.7418 27.6501C27.3024 28.0894 26.5901 28.0894 26.1508 27.6501L23.2211 24.7205C21.0371 26.1675 18.0655 25.9289 16.1412 24.0046C13.9445 21.8079 13.9445 18.2463 16.1412 16.0496C18.3379 13.8529 21.8994 13.8529 24.0961 16.0496ZM22.6379 22.5467C24.0292 21.1555 24.0292 18.8998 22.6379 17.5086C21.2467 16.1173 18.991 16.1173 17.5998 17.5086C16.2086 18.8998 16.2086 21.1555 17.5998 22.5467C18.991 23.9379 21.2467 23.9379 22.6379 22.5467Z" fill="url(#paint1_linear_2955_276)"/>
<defs>
<linearGradient id="paint0_linear_2955_276" x1="16.3794" y1="27.9796" x2="16.3794" y2="2.34375" gradientUnits="userSpaceOnUse">
<stop stop-color="#459CFF"/>
<stop offset="1" stop-color="#50BEFC"/>
</linearGradient>
<linearGradient id="paint1_linear_2955_276" x1="16.3794" y1="27.9796" x2="16.3794" y2="2.34375" gradientUnits="userSpaceOnUse">
<stop stop-color="#459CFF"/>
<stop offset="1" stop-color="#50BEFC"/>
</linearGradient>
</defs>
</svg>
