<svg width="30" height="30" viewBox="0 0 30 30" fill="none" xmlns="http://www.w3.org/2000/svg">
<path fill-rule="evenodd" clip-rule="evenodd" d="M14.9871 1.875C16.78 1.875 18.47 2.21814 20.0571 2.90441C21.6441 3.59068 23.0423 4.53861 24.2518 5.74817C25.4614 6.95771 26.4094 8.35601 27.0956 9.94301C27.7819 11.5214 28.125 13.2071 28.125 15C28.125 16.7929 27.7819 18.4829 27.0956 20.0698C26.4094 21.6484 25.4614 23.0423 24.2518 24.2518C23.0423 25.4614 21.6441 26.4094 20.0571 27.0956C18.4786 27.7819 16.7929 28.125 15 28.125C13.2071 28.125 11.5172 27.7819 9.93015 27.0956C8.35172 26.4094 6.95771 25.4614 5.74817 24.2518C4.53861 23.0423 3.59068 21.6484 2.90441 20.0698C2.21814 18.4829 1.875 16.7929 1.875 15C1.875 13.2071 2.21814 11.5214 2.90441 9.94301C3.59068 8.35601 4.53431 6.95771 5.73529 5.74817C6.94485 4.53861 8.33886 3.59068 9.91729 2.90441C11.5043 2.21814 13.1942 1.875 14.9871 1.875ZM12.2778 8.4375C11.9051 8.4375 11.5969 8.45184 11.3532 8.48051C11.1143 8.5044 10.9064 8.54501 10.7296 8.60235C10.5529 8.65491 10.3737 8.72181 10.1921 8.80303C9.94839 8.91294 9.75009 9.06823 9.59719 9.26893C9.44906 9.46483 9.375 9.72525 9.375 10.0502V21.9624C9.375 22.1059 9.42756 22.23 9.53269 22.3352C9.64258 22.4451 9.7716 22.5 9.91973 22.5C10.0726 22.5 10.2017 22.4475 10.3068 22.3423C10.4119 22.2371 10.4644 22.1106 10.4644 21.9624V17.9774C10.5552 17.9391 10.7631 17.8746 11.088 17.7838C11.4177 17.6883 11.8454 17.6405 12.371 17.6405C13.0352 17.6405 13.6468 17.7074 14.2058 17.8412C14.7697 17.9702 15.3144 18.1207 15.84 18.2927C16.3656 18.46 16.9008 18.6105 17.4455 18.7443C17.9903 18.8732 18.578 18.9379 19.2086 18.9379C19.5814 18.9379 19.8872 18.9259 20.1261 18.9019C20.3651 18.8732 20.5729 18.8327 20.7497 18.7802C20.9265 18.7228 21.1057 18.6535 21.2872 18.5723C21.5357 18.4624 21.7341 18.3095 21.8822 18.1135C22.0303 17.9129 22.1044 17.6477 22.1044 17.318V10.043C22.1044 9.84709 22.0328 9.69658 21.8893 9.59145C21.7461 9.48634 21.5693 9.43378 21.3589 9.43378C21.1821 9.43378 20.9169 9.48394 20.5633 9.58429C20.2146 9.68464 19.7319 9.73481 19.1156 9.73481C18.4848 9.73481 17.8971 9.67029 17.3524 9.54129C16.8076 9.40749 16.2725 9.25459 15.7469 9.08257C15.2212 8.91054 14.6765 8.76004 14.1127 8.63102C13.5536 8.502 12.942 8.4375 12.2778 8.4375Z" fill="url(#paint0_linear_2955_3779)"/>
<defs>
<linearGradient id="paint0_linear_2955_3779" x1="15" y1="1.875" x2="15" y2="28.125" gradientUnits="userSpaceOnUse">
<stop stop-color="#30DBB1"/>
<stop offset="1" stop-color="#15C2B6"/>
</linearGradient>
</defs>
</svg>
