<svg width="30" height="30" viewBox="0 0 30 30" fill="none" xmlns="http://www.w3.org/2000/svg">
<path fill-rule="evenodd" clip-rule="evenodd" d="M19.4726 9.69424C20.2744 9.9765 21.0017 10.4368 21.5998 11.0405C22.2765 11.7233 22.7184 12.6562 23.6023 14.5222L24.5282 16.4769C26.2134 20.0342 27.0559 21.813 26.8209 23.2541C26.6158 24.513 25.9065 25.6339 24.8565 26.3582C23.6546 27.1875 21.6866 27.1875 17.7502 27.1875H12.3907C8.45441 27.1875 6.48624 27.1875 5.28439 26.3582C4.23452 25.6339 3.52517 24.513 3.31997 23.2541C3.08507 21.813 3.92762 20.0342 5.6127 16.4768L6.53857 14.5222C7.42247 12.6562 7.86441 11.7233 8.54109 11.0405C9.13937 10.4368 9.86666 9.9765 10.6684 9.69424C11.4356 9.42412 12.2928 9.38256 13.7893 9.37617H16.3517C17.8482 9.38256 18.7054 9.42412 19.4726 9.69424ZM13.325 14.0625H11.695L13.7775 17.516H12.152V18.9424H14.251L14.2638 20.0175H12.152V21.444H14.2638V23.4375H15.8764V21.444H18.001V20.0175H15.8764V18.9553L18.001 18.9424V17.516H16.3628L18.4451 14.0625H16.8152L15.0701 16.9145L13.325 14.0625ZM20.8776 2.34402C21.5775 2.3674 22.1314 3.01455 22.0466 3.70962C22.0089 4.01972 21.6165 4.56574 20.8314 5.65778L20.0646 6.72488C19.6946 7.23961 19.5096 7.49697 19.2718 7.68284C19.0611 7.84742 18.8211 7.97048 18.5645 8.04546C18.2748 8.13012 17.9578 8.13012 17.324 8.13012H12.8163C12.1824 8.13012 11.8655 8.13012 11.5758 8.04546C11.3192 7.97048 11.0792 7.84742 10.8685 7.68284C10.6307 7.49697 10.4457 7.23961 10.0758 6.72488L9.30877 5.65778C8.52388 4.56574 8.13142 4.01972 8.09361 3.70962C8.00886 3.01455 8.56288 2.3674 9.26271 2.34402C9.57493 2.33359 10.1567 2.62797 11.3201 3.21672C12.7264 3.92832 14.1326 4.61449 15.0701 4.61449C16.0076 4.61449 17.4139 3.92832 18.8201 3.21672C19.9836 2.62797 20.5654 2.33359 20.8776 2.34402Z" fill="url(#paint0_linear_2955_4095)"/>
<defs>
<linearGradient id="paint0_linear_2955_4095" x1="15.0705" y1="27.1875" x2="15.0705" y2="2.34375" gradientUnits="userSpaceOnUse">
<stop stop-color="#459CFF"/>
<stop offset="1" stop-color="#50BEFC"/>
</linearGradient>
</defs>
</svg>
