<svg width="30" height="30" viewBox="0 0 30 30" fill="none" xmlns="http://www.w3.org/2000/svg">
<path fill-rule="evenodd" clip-rule="evenodd" d="M19.6875 6.17432C20.7225 6.1755 21.5613 7.01428 21.5625 8.04932V10.9149L26.6427 7.28675C26.9284 7.08238 27.3043 7.0549 27.6166 7.21558C27.9289 7.37625 28.125 7.69809 28.125 8.04932V21.1743C28.125 21.5256 27.929 21.8474 27.6167 22.0081C27.3043 22.1688 26.9284 22.1414 26.6427 21.937L21.5625 18.3088V21.1743C21.5613 22.2094 20.7225 23.0481 19.6875 23.0493H3.75C2.71496 23.0481 1.87619 22.2094 1.875 21.1743V8.04932C1.87619 7.01428 2.71496 6.1755 3.75 6.17432H19.6875ZM11.25 15.5493H5.625V17.4243H11.25V15.5493ZM15.9375 10.8618H5.625V12.7368H15.9375V10.8618Z" fill="url(#paint0_linear_2955_5962)"/>
<defs>
<linearGradient id="paint0_linear_2955_5962" x1="1.875" y1="6.17432" x2="1.875" y2="23.0493" gradientUnits="userSpaceOnUse">
<stop stop-color="#FCCA3F"/>
<stop offset="1" stop-color="#FCAA2D"/>
</linearGradient>
</defs>
</svg>
