<svg width="30" height="30" viewBox="0 0 30 30" fill="none" xmlns="http://www.w3.org/2000/svg">
<path d="M9.22562 4.03648V5.49681C9.22562 6.19537 9.44115 6.77134 9.87218 7.22466C10.3032 7.67055 10.8643 7.89351 11.5554 7.89351H18.4446C19.1357 7.89351 19.6969 7.67055 20.1277 7.22466C20.5588 6.77134 20.7744 6.19537 20.7744 5.49681V4.03648H21.0308C22.1306 4.03648 22.9629 4.33003 23.5279 4.91713C24.0926 5.49681 24.375 6.37001 24.375 7.53679V13.618C23.028 12.7959 21.4044 12.1875 19.5937 12.1875C16.721 12.1875 14.3193 13.719 12.7454 15.2057C11.9368 15.9695 11.2656 16.7952 10.7807 17.563C10.5387 17.9463 10.3237 18.3458 10.1622 18.7423C10.0171 19.0987 9.84375 19.623 9.84375 20.2067C9.84375 20.7904 10.0171 21.3148 10.1622 21.6711C10.3237 22.0676 10.5387 22.4672 10.7807 22.8504C11.2656 23.6183 11.9368 24.444 12.7454 25.2077C13.4891 25.9103 14.4177 26.6227 15.4935 27.1791H9.0807C7.92881 27.1791 7.06301 26.8854 6.48336 26.2984C5.91112 25.7186 5.625 24.8454 5.625 23.6786V7.53679C5.625 6.37001 5.90739 5.49681 6.4722 4.91713C7.03701 4.33003 7.86936 4.03648 8.96923 4.03648H9.22562ZM19.5941 14.4375C23.7362 14.4375 27.0941 18.9248 27.0941 20.2067C27.0941 21.4888 23.7362 25.9759 19.5941 25.9759C15.452 25.9759 12.0941 21.4888 12.0941 20.2067C12.0941 18.9248 15.452 14.4375 19.5941 14.4375ZM19.5941 16.4567C17.5231 16.4567 15.8441 18.1357 15.8441 20.2067C15.8441 22.2778 17.5231 23.9567 19.5941 23.9567C21.6653 23.9567 23.3441 22.2778 23.3441 20.2067C23.3441 18.1357 21.6653 16.4567 19.5941 16.4567ZM19.5941 17.863C20.8886 17.863 21.9379 18.9124 21.9379 20.2067C21.9379 21.5012 20.8886 22.5504 19.5941 22.5504C18.2997 22.5504 17.2504 21.5012 17.2504 20.2067C17.2504 18.9124 18.2997 17.863 19.5941 17.863ZM15 0.9375C15.6466 0.9375 16.2002 1.16045 16.661 1.60635C17.1292 2.05224 17.3818 2.59104 17.419 3.22273H18.4446C18.7716 3.22273 19.0243 3.31933 19.2026 3.51257C19.3884 3.70579 19.4812 3.97704 19.4812 4.32632V5.49681C19.4812 5.8461 19.3884 6.11734 19.2026 6.31057C19.0243 6.50379 18.7716 6.60039 18.4446 6.60039H11.5554C11.2285 6.60039 10.9721 6.50379 10.7863 6.31057C10.6079 6.11734 10.5187 5.8461 10.5187 5.49681V4.32632C10.5187 3.97704 10.6079 3.70579 10.7863 3.51257C10.9721 3.31933 11.2285 3.22273 11.5554 3.22273H12.581C12.6182 2.59104 12.8671 2.05224 13.3279 1.60635C13.7961 1.16045 14.3534 0.9375 15 0.9375ZM15 2.33093C14.7325 2.33093 14.5021 2.42754 14.3089 2.62076C14.1231 2.80656 14.0302 3.03694 14.0302 3.31191C14.0302 3.57201 14.1231 3.79867 14.3089 3.99189C14.5021 4.18511 14.7325 4.28173 15 4.28173C15.2675 4.28173 15.4942 4.18511 15.68 3.99189C15.8732 3.79867 15.9698 3.57201 15.9698 3.31191C15.9698 3.03694 15.8732 2.80656 15.68 2.62076C15.4942 2.42754 15.2675 2.33093 15 2.33093Z" fill="url(#paint0_linear_2955_2469)"/>
<defs>
<linearGradient id="paint0_linear_2955_2469" x1="16.3596" y1="0.9375" x2="16.3596" y2="27.1791" gradientUnits="userSpaceOnUse">
<stop stop-color="#30DBB1"/>
<stop offset="1" stop-color="#15C2B6"/>
</linearGradient>
</defs>
</svg>
