<svg width="30" height="30" viewBox="0 0 30 30" fill="none" xmlns="http://www.w3.org/2000/svg">
<path d="M3.6901 23.3911L13.9534 4.57504C14.5993 3.39103 14.9222 2.79903 15.3491 2.60455C15.7211 2.43508 16.1485 2.43589 16.5199 2.60677C16.9461 2.80287 17.2667 3.39609 17.908 4.58254L21.4106 11.0623L17.2194 11.0623C16.9493 11.0622 16.6366 11.0621 16.3627 11.0845C16.0475 11.1102 15.607 11.1756 15.1474 11.4097C14.5476 11.7153 14.06 12.203 13.7544 12.8027C13.5203 13.2623 13.4549 13.7028 13.4292 14.018C13.4068 14.2919 13.4069 14.6045 13.407 14.8746L13.407 26.7186H5.66537C4.41697 26.7186 3.79277 26.7186 3.42576 26.456C3.1055 26.2268 2.89599 25.8739 2.84819 25.483C2.7934 25.0351 3.0923 24.4871 3.6901 23.3911Z" fill="url(#paint0_linear_2955_1137)"/>
<path d="M15.5914 13.7391C15.4688 13.9797 15.4688 14.2948 15.4688 14.9248V15.0748C15.4688 15.7049 15.4688 16.0199 15.5914 16.2605C15.6992 16.4722 15.8713 16.6443 16.083 16.7522C16.3237 16.8748 16.6387 16.8748 17.2688 16.8748H24.9187C25.5488 16.8748 25.8638 16.8748 26.1045 16.7522C26.3162 16.6443 26.4883 16.4722 26.5961 16.2605C26.7188 16.0199 26.7188 15.7049 26.7188 15.0748V14.9248C26.7188 14.2948 26.7188 13.9797 26.5961 13.7391C26.4883 13.5274 26.3162 13.3553 26.1045 13.2474C25.8638 13.1248 25.5488 13.1248 24.9187 13.1248H17.2688C16.6387 13.1248 16.3237 13.1248 16.083 13.2474C15.8713 13.3553 15.6992 13.5274 15.5914 13.7391Z" fill="url(#paint1_linear_2955_1137)"/>
<path d="M15.5914 19.5516C15.4688 19.7922 15.4688 20.1073 15.4688 20.7373V20.8873C15.4688 21.5174 15.4688 21.8324 15.5914 22.0731C15.6992 22.2847 15.8713 22.4568 16.083 22.5647C16.3237 22.6873 16.6387 22.6873 17.2688 22.6873H24.9187C25.5488 22.6873 25.8638 22.6873 26.1045 22.5647C26.3162 22.4568 26.4883 22.2847 26.5961 22.0731C26.7188 21.8324 26.7188 21.5174 26.7188 20.8873V20.7373C26.7188 20.1073 26.7188 19.7922 26.5961 19.5516C26.4883 19.3399 26.3162 19.1678 26.1045 19.0599C25.8638 18.9373 25.5488 18.9373 24.9187 18.9373H17.2688C16.6387 18.9373 16.3237 18.9373 16.083 19.0599C15.8713 19.1678 15.6992 19.3399 15.5914 19.5516Z" fill="url(#paint2_linear_2955_1137)"/>
<path d="M15.4688 26.5498C15.4688 25.9198 15.4688 25.6047 15.5914 25.3641C15.6992 25.1524 15.8713 24.9803 16.083 24.8725C16.3237 24.7498 16.6387 24.7498 17.2688 24.7498H24.9187C25.5488 24.7498 25.8638 24.7498 26.1045 24.8725C26.3162 24.9803 26.4883 25.1524 26.5961 25.3641C26.7188 25.6047 26.7188 25.9198 26.7188 26.5498V26.6998C26.7188 27.3299 26.7188 27.6449 26.5961 27.8856C26.4883 28.0973 26.3162 28.2694 26.1045 28.3772C25.8638 28.4998 25.5488 28.4998 24.9187 28.4998H17.2688C16.6387 28.4998 16.3237 28.4998 16.083 28.3772C15.8713 28.2694 15.6992 28.0973 15.5914 27.8856C15.4688 27.6449 15.4688 27.3299 15.4688 26.6998V26.5498Z" fill="url(#paint3_linear_2955_1137)"/>
<defs>
<linearGradient id="paint0_linear_2955_1137" x1="14.7803" y1="28.4998" x2="14.7803" y2="2.47803" gradientUnits="userSpaceOnUse">
<stop stop-color="#459CFF"/>
<stop offset="1" stop-color="#50BEFC"/>
</linearGradient>
<linearGradient id="paint1_linear_2955_1137" x1="14.7803" y1="28.4998" x2="14.7803" y2="2.47803" gradientUnits="userSpaceOnUse">
<stop stop-color="#459CFF"/>
<stop offset="1" stop-color="#50BEFC"/>
</linearGradient>
<linearGradient id="paint2_linear_2955_1137" x1="14.7803" y1="28.4998" x2="14.7803" y2="2.47803" gradientUnits="userSpaceOnUse">
<stop stop-color="#459CFF"/>
<stop offset="1" stop-color="#50BEFC"/>
</linearGradient>
<linearGradient id="paint3_linear_2955_1137" x1="14.7803" y1="28.4998" x2="14.7803" y2="2.47803" gradientUnits="userSpaceOnUse">
<stop stop-color="#459CFF"/>
<stop offset="1" stop-color="#50BEFC"/>
</linearGradient>
</defs>
</svg>
