<svg width="30" height="30" viewBox="0 0 30 30" fill="none" xmlns="http://www.w3.org/2000/svg">
<path fill-rule="evenodd" clip-rule="evenodd" d="M15 1.875C22.2488 1.875 28.125 7.75127 28.125 15C28.125 22.2487 22.2488 28.1249 15 28.1249C7.75127 28.1249 1.875 22.2487 1.875 15C1.875 7.75127 7.75127 1.875 15 1.875ZM14.9991 8.79679C10.5463 8.79679 6.93658 13.6205 6.93658 14.9987C6.93658 16.3769 10.5463 21.2006 14.9991 21.2006C19.4518 21.2006 23.0616 16.3769 23.0616 14.9987C23.0616 13.6205 19.4518 8.79679 14.9991 8.79679ZM14.9991 10.9675C17.2255 10.9675 19.0303 12.7723 19.0303 14.9987C19.0303 17.2251 17.2255 19.0301 14.9991 19.0301C12.7727 19.0301 10.9678 17.2251 10.9678 14.9987C10.9678 12.7723 12.7727 10.9675 14.9991 10.9675ZM14.9991 12.4792C13.6076 12.4792 12.4795 13.6072 12.4795 14.9987C12.4795 16.3902 13.6076 17.5183 14.9991 17.5183C16.3906 17.5183 17.5186 16.3902 17.5186 14.9987C17.5186 14.89 17.5117 14.7828 17.4983 14.6777C17.2334 14.9066 16.8881 15.0451 16.5104 15.0451C15.6755 15.0451 14.9987 14.3683 14.9987 13.5334C14.9987 13.1389 15.1498 12.7797 15.3973 12.5105C15.2676 12.4899 15.1346 12.4792 14.9991 12.4792Z" fill="url(#paint0_linear_2955_4164)"/>
<defs>
<linearGradient id="paint0_linear_2955_4164" x1="15" y1="28.1249" x2="15" y2="1.875" gradientUnits="userSpaceOnUse">
<stop stop-color="#459CFF"/>
<stop offset="1" stop-color="#50BEFC"/>
</linearGradient>
</defs>
</svg>
