<svg width="32" height="32" viewBox="0 0 32 32" fill="none" xmlns="http://www.w3.org/2000/svg">
<rect x="4.26758" y="4.2666" width="23.4667" height="23.4667" fill="#DDF2E8"/>
<path d="M4.72409 21.6379V27.276H10.3622V29.1553H4.44473C3.88467 29.1553 3.60465 29.1553 3.39074 29.0464C3.20257 28.9505 3.04959 28.7975 2.95372 28.6093C2.84473 28.3954 2.84473 28.1154 2.84473 27.5553V21.6379H4.72409ZM29.1558 21.6379V27.5553C29.1558 28.1154 29.1558 28.3954 29.0468 28.6093C28.951 28.7975 28.798 28.9505 28.6098 29.0464C28.3959 29.1553 28.1159 29.1553 27.5558 29.1553H21.6384V27.276H27.2765V21.6379H29.1558ZM10.3622 2.84424V4.7236H4.72409V10.3617H2.84473V4.44424C2.84473 3.88419 2.84473 3.60416 2.95372 3.39025C3.04959 3.20209 3.20257 3.04911 3.39074 2.95323C3.60465 2.84424 3.88467 2.84424 4.44473 2.84424H10.3622ZM27.5558 2.84424C28.1159 2.84424 28.3959 2.84424 28.6098 2.95323C28.798 3.04911 28.951 3.20209 29.0468 3.39025C29.1558 3.60416 29.1558 3.88419 29.1558 4.44424V10.3617H27.2765V4.7236H21.6384V2.84424H27.5558Z" fill="#20AB6A"/>
<path d="M14.2035 18.0824L16.2026 12.6733L18.3204 18.0824H14.2035ZM20.7067 24.1679H23.4664L17.3025 8.5332L15.0405 8.56234L9.24414 24.1776L11.9642 24.142L13.1489 20.9245H19.4259L20.6954 24.1615L20.7067 24.1679Z" fill="#20AB6A"/>
</svg>
