<svg width="32" height="32" viewBox="0 0 32 32" fill="none" xmlns="http://www.w3.org/2000/svg">
<path d="M6.40039 19.2001C6.40039 13.8982 10.6985 9.6001 16.0004 9.6001V9.6001C21.3023 9.6001 25.6004 13.8982 25.6004 19.2001V25.6001H6.40039V19.2001Z" fill="#DAEDFE"/>
<path d="M23.6364 27.6135H8.2302C6.43551 27.6135 4.97551 26.1535 4.97551 24.3588V19.1038C4.97551 17.6304 5.26676 16.1976 5.84113 14.846C6.39488 13.5429 7.18613 12.3713 8.19363 11.3641C9.20082 10.3569 10.3724 9.56537 11.6755 9.01162C13.0274 8.43725 14.4599 8.146 15.9333 8.146C17.4068 8.146 18.8396 8.43725 20.1914 9.01162C21.4946 9.56537 22.6661 10.3566 23.6733 11.3641C24.6805 12.3713 25.4721 13.5429 26.0258 14.846C26.6002 16.1979 26.8914 17.6304 26.8914 19.1038V24.3585C26.8911 26.1535 25.4311 27.6135 23.6364 27.6135V27.6135ZM15.9333 10.521C11.2008 10.521 7.35051 14.3713 7.35051 19.1038V24.3585C7.35051 24.8435 7.7452 25.2382 8.2302 25.2382H23.6364C24.1214 25.2382 24.5161 24.8435 24.5161 24.3585V19.1038C24.5161 14.3713 20.6661 10.521 15.9333 10.521V10.521ZM28.6746 31.6291H3.3252C2.66926 31.6291 2.1377 31.0976 2.1377 30.4416C2.1377 29.7857 2.66926 29.2541 3.3252 29.2541H28.6746C29.3305 29.2541 29.8621 29.7857 29.8621 30.4416C29.8621 31.0976 29.3305 31.6291 28.6746 31.6291V31.6291Z" fill="#45A4F6"/>
<path d="M10.1535 27.6136C9.49754 27.6136 8.96598 27.082 8.96598 26.4261V19.6473C8.96598 18.9914 9.49754 18.4598 10.1535 18.4598C10.8094 18.4598 11.341 18.9914 11.341 19.6473V26.4261C11.341 27.082 10.8094 27.6136 10.1535 27.6136ZM15.7769 6.58859C15.121 6.58859 14.5894 6.05703 14.5894 5.40109V1.55859C14.5894 0.902656 15.121 0.371094 15.7769 0.371094C16.4329 0.371094 16.9644 0.902656 16.9644 1.55859V5.40109C16.9644 6.05672 16.4329 6.58859 15.7769 6.58859V6.58859ZM7.03848 9.94453C6.73441 9.94453 6.43066 9.82859 6.19879 9.59672L3.4816 6.87953C3.01785 6.41578 3.01785 5.66391 3.4816 5.20016C3.94535 4.73641 4.69723 4.73641 5.16098 5.20016L7.87816 7.91734C8.34191 8.38109 8.34191 9.13297 7.87816 9.59672C7.64629 9.82859 7.34223 9.94453 7.03848 9.94453V9.94453ZM24.79 9.94453C24.4863 9.94453 24.1822 9.82859 23.9504 9.59672C23.4866 9.13297 23.4866 8.38109 23.9504 7.91734L26.6675 5.20016C27.1313 4.73641 27.8832 4.73641 28.3469 5.20016C28.8107 5.66391 28.8107 6.41578 28.3469 6.87953L25.6297 9.59672C25.3979 9.82859 25.0941 9.94453 24.79 9.94453Z" fill="#45A4F6"/>
</svg>
