<svg width="32" height="32" viewBox="0 0 32 32" fill="none" xmlns="http://www.w3.org/2000/svg">
<path d="M15.9997 4.2666C21.4952 4.2666 26.02 8.42233 26.6024 13.7631C28.0207 14.5631 29.1386 15.8047 29.7858 17.2988C30.433 18.7928 30.5741 20.4576 30.1874 22.0394C29.8008 23.6212 28.9079 25.0332 27.6444 26.0604C26.381 27.0874 24.8164 27.6735 23.189 27.729L22.933 27.7333H9.06639C7.41621 27.7335 5.81244 27.1871 4.50568 26.1794C3.19892 25.1717 2.2628 23.7594 1.84359 22.1634C1.42438 20.5674 1.5457 18.8775 2.1886 17.3576C2.83149 15.8379 3.95975 14.5738 5.39706 13.7631C5.97839 8.42233 10.5032 4.2666 15.9997 4.2666ZM15.9997 5.8666C13.8149 5.86683 11.7035 6.65574 10.0539 8.08827C8.40418 9.52081 7.32706 11.5007 7.02052 13.6639L6.98639 13.9359L6.89786 14.7519L6.18319 15.1551C5.07106 15.7819 4.19373 16.7544 3.68432 17.925C3.17493 19.0956 3.06127 20.4004 3.36058 21.6415C3.65988 22.8824 4.35583 23.992 5.34284 24.8016C6.32983 25.6114 7.55399 26.077 8.82959 26.1279L9.06639 26.1333H22.9064L23.1357 26.1301C24.3919 26.0869 25.6008 25.6415 26.5848 24.8594C27.5687 24.0772 28.2754 22.9999 28.6007 21.7858C28.9261 20.5719 28.8532 19.2855 28.3924 18.116C27.9316 16.9467 27.1074 15.9563 26.0413 15.2906L25.8152 15.1562L25.1005 14.753L25.012 13.937C24.5138 9.36527 20.6365 5.8666 15.9997 5.8666ZM21.8664 21.8666V23.4666H16.533V21.8666H21.8664ZM19.9517 12.5119L21.0824 13.6426L12.0328 22.6943L10.9011 21.5637L19.9517 12.5119ZM21.8664 19.1999V20.7999H16.533V19.1999H21.8664ZM13.5997 11.7333V13.5999H15.4664V15.1999H13.5987L13.5997 17.0666H11.9997L11.9987 15.1999H10.1331V13.5999H11.9997V11.7333H13.5997Z" fill="#E54F6D"/>
<path d="M15.9999 5.8667C13.8151 5.86692 11.7037 6.65584 10.0541 8.08836C8.40439 9.52091 7.32727 11.5008 7.02073 13.664L6.9866 13.936L6.89807 14.752L6.1834 15.1552C5.07127 15.782 4.19395 16.7545 3.68454 17.9251C3.17515 19.0957 3.06148 20.4005 3.36079 21.6416C3.66009 22.8825 4.35604 23.9921 5.34305 24.8017C6.33004 25.6115 7.5542 26.0771 8.8298 26.128L9.0666 26.1334H22.9067L23.1359 26.1302C24.3921 26.087 25.6011 25.6416 26.5851 24.8595C27.5689 24.0773 28.2756 23 28.6009 21.7859C28.9263 20.572 28.8534 19.2856 28.3926 18.1161C27.9318 16.9468 27.1076 15.9564 26.0415 15.2907L25.8154 15.1563L25.1007 14.7531L25.0123 13.9371C24.514 9.36537 20.6367 5.8667 15.9999 5.8667ZM21.8667 21.8667V23.4667H16.5332V21.8667H21.8667ZM19.9519 12.512L21.0827 13.6427L12.033 22.6944L10.9013 21.5638L19.9519 12.512ZM21.8667 19.2V20.8H16.5332V19.2H21.8667ZM13.5999 11.7334V13.6H15.4666V15.2H13.5989L13.5999 17.0667H11.9999L11.9989 15.2H10.1333V13.6H11.9999V11.7334H13.5999Z" fill="#FFE0E6"/>
</svg>
