<svg width="32" height="32" viewBox="0 0 32 32" fill="none" xmlns="http://www.w3.org/2000/svg">
<path d="M25.0911 3.45923H6.63867V24.1787V28.2138H9.9029V24.1787H25.0911V3.45923Z" fill="#FEEDD2"/>
<path d="M10.4639 15.4187H21.5323V17.0543H10.4639V15.4187ZM10.4639 11.7422H21.5323V13.3778H10.4639V11.7422ZM10.4639 19.0915H21.5323V20.7271H10.4639V19.0915ZM10.4639 8.06934H21.5323V9.70489H10.4639V8.06934Z" fill="#F5CF5C"/>
<path d="M26.0981 23.465V5.58764C26.0981 4.3432 25.3337 2.49431 23.2181 2.49431H6.75593C6.31462 2.47383 5.87361 2.54122 5.45857 2.6926C5.04351 2.84397 4.66267 3.07629 4.33815 3.37608C3.11148 4.46764 2.48926 6.39831 2.48926 9.11831V9.95386H5.8386V26.665C5.8386 27.6641 6.10526 28.425 6.63505 28.9298C6.94164 29.2429 7.34267 29.4466 7.77638 29.5093H25.3266C28.6369 29.5093 29.5114 26.089 29.5114 24.2828V23.4401L26.0981 23.465ZM9.24483 24.329C9.24483 26.9743 8.46615 27.7636 7.97193 27.8241C7.7586 27.785 7.52393 27.4685 7.52393 26.6793V6.44453C7.55476 5.65474 7.37955 4.87053 7.01548 4.16898H23.2181C24.3204 4.16898 24.4199 5.25698 24.4234 5.5912V23.465L9.24483 23.4933V24.329ZM25.3373 27.8313H10.2653C10.6427 26.9924 10.8517 26.0876 10.8804 25.1681L27.7621 25.1253C27.5951 26.1778 27.0581 27.8313 25.3266 27.8313H25.3373Z" fill="#FAA51E"/>
</svg>
