<svg width="32" height="32" viewBox="0 0 32 32" fill="none" xmlns="http://www.w3.org/2000/svg">
<path d="M13 1.5C17.3141 1.5 20.8661 5.626 16.784 13.342C15.488 15.79 18.084 17.368 20.944 18.092L21.2499 18.1661C23.6861 18.728 23.9739 19.8861 23.9979 21.8541V22.5H27.9939L27.9899 22.016C27.9299 20.0821 27.5621 18.4701 26.892 17.176C26.4661 16.354 25.972 15.73 25.4061 15.29C24.9864 15.8545 24.3819 16.2536 23.6979 16.4176C23.0139 16.5818 22.2941 16.5002 21.6642 16.1874C21.0342 15.8746 20.5341 15.3505 20.2514 14.7065C19.9686 14.0625 19.9211 13.3396 20.1171 12.6641C20.3133 11.9887 20.7403 11.4036 21.324 11.011C21.9077 10.6185 22.6106 10.4435 23.3101 10.5166C24.0096 10.5898 24.6613 10.9063 25.151 11.4111C25.641 11.9158 25.9379 12.5766 25.9899 13.278C27.08 13.91 27.9741 14.914 28.6701 16.258C29.4901 17.848 29.928 19.764 29.9899 22.0021L29.9939 22.5H30V30.5H2L2.002 21.832C2.028 19.9701 2.296 18.8381 4.418 18.252L5.352 18.0139C8.048 17.268 10.502 15.714 9.216 13.342C5.12 5.786 8.604 1.5 13 1.5ZM28 24.5H4V28.5H28V24.5ZM13 3.5C9.48 3.5 7.972 6.848 10.974 12.39C13.034 16.186 10.138 18.86 5.604 20.0179L4.836 20.2019C4.084 20.388 4.004 20.544 4 21.8V22.5H21.9979V21.88L21.9821 21.1901C21.94 20.4461 21.7821 20.348 21.0061 20.164L20.8 20.116C16.176 19.048 13.134 16.456 14.852 12.736L15.016 12.406C18.0019 6.764 16.5021 3.5 13 3.5ZM23 12.5C22.7347 12.5 22.4805 12.6054 22.293 12.7929C22.1053 12.9804 22 13.2348 22 13.5C22 13.7652 22.1053 14.0196 22.293 14.2071C22.4805 14.3946 22.7347 14.5 23 14.5C23.2653 14.5 23.5195 14.3946 23.707 14.2071C23.8947 14.0196 24 13.7652 24 13.5C24 13.2348 23.8947 12.9804 23.707 12.7929C23.5195 12.6054 23.2653 12.5 23 12.5Z" fill="#FAA51E"/>
<path d="M28 24.5H4V28.5H28V24.5ZM13 3.5C9.48 3.5 7.972 6.848 10.974 12.39C13.034 16.186 10.138 18.86 5.604 20.0179L4.836 20.2019C4.084 20.388 4.004 20.544 4 21.8V22.5H21.9979V21.88L21.9819 21.1901C21.94 20.4461 21.7819 20.348 21.0059 20.164L20.8 20.116C16.176 19.048 13.134 16.456 14.852 12.736L15.016 12.406C18.0019 6.764 16.5019 3.5 13 3.5ZM23 12.5C22.7347 12.5 22.4805 12.6054 22.293 12.7929C22.1053 12.9804 22 13.2348 22 13.5C22 13.7652 22.1053 14.0196 22.293 14.2071C22.4805 14.3946 22.7347 14.5 23 14.5C23.2653 14.5 23.5195 14.3946 23.707 14.2071C23.8947 14.0196 24 13.7652 24 13.5C24 13.2348 23.8947 12.9804 23.707 12.7929C23.5195 12.6054 23.2653 12.5 23 12.5Z" fill="#FFECDB"/>
</svg>
