<svg width="32" height="32" viewBox="0 0 32 32" fill="none" xmlns="http://www.w3.org/2000/svg">
<path d="M28.7292 3.271H3.27148V22.3643H28.7292V3.271Z" fill="#DAEDFE"/>
<path fill-rule="evenodd" clip-rule="evenodd" d="M3.35782 1.67993H28.6416C29.5645 1.67993 30.3197 2.43508 30.3197 3.35806V22.125C30.3197 23.0481 29.5645 23.8033 28.6416 23.8033H3.35782C2.43484 23.8033 1.67969 23.0481 1.67969 22.125V3.35806C1.67969 2.43508 2.43484 1.67993 3.35782 1.67993ZM26.9229 21.4539C27.5941 21.4539 28.1381 20.8452 28.1381 20.0945V5.14078C28.1381 4.39011 27.5941 3.7815 26.9229 3.7815H5.04852C4.72633 3.7815 4.41698 3.9247 4.18932 4.17977C3.96138 4.43457 3.83329 4.78027 3.83329 5.14078V20.0945C3.83329 20.8452 4.37727 21.4539 5.04852 21.4539H6.85922H26.9229ZM14.7116 14.3868C13.8663 13.9735 13.0328 13.5663 12.814 13.4607L14.7116 14.388V14.3868ZM15.0819 14.5679H15.0798L16.7635 15.3908C16.7595 15.3888 16.7277 15.3732 16.6726 15.3463C16.4389 15.2319 15.7877 14.9131 15.0819 14.5679ZM27.1731 30.3199C27.9194 30.3199 28.5296 29.7097 28.5296 28.9634C28.5296 28.2172 27.9194 27.607 27.1731 27.607H4.84015C4.09394 27.607 3.48367 28.2175 3.48367 28.9634C3.48367 29.7094 4.09423 30.3199 4.84015 30.3199H27.1731Z" fill="#45A4F6"/>
<path d="M22.7624 4.86206V16.8948L19.4807 20.1766H9.63574V4.86206H22.7624ZM21.6685 5.95595H10.7296V19.0826H19.0256L21.6685 16.4398V5.95595ZM17.293 15.801V16.8948H12.9174V15.801H17.293ZM17.293 13.6132V14.7071H12.9174V13.6132H17.293ZM19.4807 8.14372V11.4254H12.9174V8.14372H19.4807ZM18.3869 9.23763H14.0113V10.3315H18.3869V9.23763Z" fill="#45A4F6"/>
</svg>
