<svg width="32" height="32" viewBox="0 0 32 32" fill="none" xmlns="http://www.w3.org/2000/svg">
<path d="M24.8357 3.67347L25.6064 8.29568L23.3006 10.6015V18.2815H25.9974L26.9574 23.0851C27.0904 23.7483 27.0766 24.4326 26.917 25.09C26.7574 25.7473 26.4558 26.3619 26.0336 26.8903C25.6114 27.4188 25.0786 27.8484 24.4726 28.1492C23.8667 28.45 23.2022 28.6145 22.5261 28.6311C21.8498 28.6479 21.1781 28.5164 20.5579 28.246C19.9379 27.9756 19.3846 27.5727 18.9366 27.0659C18.4888 26.5588 18.1573 25.9599 17.9654 25.3113C17.7736 24.6627 17.7259 23.9798 17.8259 23.3108L17.865 23.0851L18.825 18.2823L21.5229 18.2815V10.6886L19.1309 8.29657L19.9014 3.67435H24.8357V3.67347ZM12.9557 3.36857L14.0055 3.97747C14.9352 4.51588 15.7042 5.29278 16.2331 6.22785C16.7621 7.16292 17.0318 8.22228 17.0144 9.29646C16.9971 10.3707 16.6931 11.4207 16.1342 12.3382C15.5752 13.2556 14.7814 14.0072 13.8348 14.5152L13.6268 14.6219L13.5868 14.6397V25.8895C13.5868 27.2246 12.5824 28.3251 11.2873 28.4761L11.1361 28.4886L10.9833 28.4931C10.3192 28.4927 9.68037 28.2388 9.19738 27.7831C8.7144 27.3275 8.42381 26.7044 8.38504 26.0415L8.3806 25.8886L8.3797 14.6388L8.3406 14.621C7.39532 14.1598 6.587 13.4596 5.99575 12.5897C5.40452 11.7199 5.05088 10.7106 4.96992 9.6619L4.9566 9.4308L4.95215 9.1979C4.95215 7.10012 6.03215 5.18902 7.76548 4.0948L7.96104 3.97657L9.0117 3.36768L9.98148 7.73657H11.9841L12.9557 3.36768V3.36857ZM24.5406 20.0593H20.2829L19.6082 23.4335L19.5779 23.6201L19.5592 23.8068L19.553 23.9943C19.553 24.4015 19.6398 24.8039 19.8078 25.1748C19.9758 25.5457 20.2211 25.8764 20.5274 26.1447C20.8334 26.4131 21.1934 26.6131 21.5832 26.731C21.9728 26.8491 22.3832 26.8825 22.7869 26.8291L22.9726 26.7979L23.1309 26.7623C23.8106 26.5857 24.4014 26.1651 24.7907 25.5806C25.1802 24.9961 25.3406 24.2887 25.2419 23.5935L25.2152 23.4335L24.5406 20.0593ZM14.1193 6.32412L13.4108 9.51524H8.5557L7.84637 6.32412L7.76637 6.4148C7.19362 7.07574 6.83909 7.89752 6.75127 8.76768L6.73437 8.9899L6.72992 9.1988C6.72996 10.046 6.98282 10.8739 7.45615 11.5765C7.92948 12.2791 8.60172 12.8245 9.38682 13.1428L9.5646 13.2103L10.1575 13.4201V25.8895C10.1567 26.1006 10.2368 26.3041 10.3813 26.458C10.5259 26.6119 10.7239 26.7046 10.9347 26.7171C11.1455 26.7295 11.3531 26.6606 11.5147 26.5247C11.6763 26.3889 11.7798 26.1961 11.8037 25.9863L11.809 25.8895V13.4201L12.4019 13.2103C13.0379 12.9852 13.6112 12.6122 14.0746 12.1219C14.538 11.6317 14.8782 11.0383 15.0672 10.3907C15.2562 9.74316 15.2886 9.05993 15.1616 8.39739C15.0347 7.73484 14.752 7.11196 14.337 6.58012L14.201 6.4148L14.1193 6.32412ZM23.3299 5.45124H21.4064L21.033 7.6859L22.3664 9.01924L23.7014 7.6859L23.3282 5.45124H23.3299Z" fill="#20AB6A"/>
<path d="M24.5411 20.0593L25.2159 23.4336C25.3591 24.1496 25.2231 24.8933 24.8354 25.5121C24.4479 26.131 23.8381 26.5781 23.1314 26.7616L22.9731 26.7971C22.5584 26.8801 22.1304 26.8701 21.7202 26.7677C21.3098 26.6653 20.9272 26.4731 20.6002 26.2049C20.273 25.9369 20.0095 25.5995 19.8285 25.2173C19.6475 24.835 19.5536 24.4174 19.5536 23.9944L19.5599 23.8069C19.5679 23.6816 19.5847 23.5571 19.6087 23.4336L20.2842 20.0593H24.5421H24.5411ZM14.1198 6.32422L14.2016 6.41489C14.6546 6.93887 14.9729 7.56553 15.1288 8.24043C15.2848 8.91534 15.2736 9.61809 15.0963 10.2877C14.919 10.9573 14.581 11.5735 14.1116 12.0829C13.6421 12.5922 13.0554 12.9793 12.4025 13.2104L11.8096 13.4202V25.8896C11.8132 26.0003 11.7945 26.1105 11.7547 26.2137C11.7149 26.3171 11.6547 26.4113 11.5777 26.4909C11.5007 26.5705 11.4085 26.6337 11.3065 26.6769C11.2046 26.7201 11.095 26.7424 10.9842 26.7424C10.8735 26.7424 10.7639 26.7201 10.662 26.6769C10.56 26.6337 10.4678 26.5705 10.3908 26.4909C10.3138 26.4113 10.2536 26.3171 10.2138 26.2137C10.1739 26.1105 10.1553 26.0003 10.1589 25.8896V13.4202L9.56602 13.2104C8.73674 12.9168 8.01882 12.3735 7.51103 11.6551C7.00325 10.9367 6.73055 10.0786 6.73047 9.19889L6.73492 8.99C6.78045 8.04036 7.14356 7.13351 7.76602 6.41489L7.84692 6.32422L8.55624 9.51534H13.4114L14.1198 6.32422Z" fill="#20AB6A" fill-opacity="0.2"/>
</svg>
