<svg width="32" height="32" viewBox="0 0 32 32" fill="none" xmlns="http://www.w3.org/2000/svg">
<path d="M28.8002 4.26758H3.2002V8.26758H4.0002H6.4002V12.2676V17.8676L10.4002 22.6676L16.0002 24.2676L20.0002 23.4676L24.0002 20.2676L25.6002 16.2676L26.4002 8.26758H28.8002V4.26758Z" fill="#FFE0E6"/>
<path d="M8 25.2676V30.2676H6V25.2676H8ZM17 26.2676V30.2676H15V26.2676H17ZM26 25.2676V30.2676H24V25.2676H26ZM30 3.26758V9.26758H27V14.2676C27 17.185 25.8411 19.9829 23.7782 22.0458C21.7153 24.1087 18.9174 25.2676 16 25.2676C13.0826 25.2676 10.2847 24.1087 8.22183 22.0458C6.15893 19.9829 5 17.185 5 14.2676V9.26758H2V3.26758H30ZM10 9.26758H7V14.2676C7 16.5811 7.89094 18.8058 9.48786 20.4798C11.0848 22.1538 13.265 23.1486 15.576 23.2576L16 23.2676C18.3135 23.2676 20.5382 22.3766 22.2122 20.7797C23.8863 19.1828 24.881 17.0026 24.99 14.6916L25 14.2676V9.26758H22V17.2676H20V9.26758H17V17.2676H15V9.26758H12V17.2676H10V9.26758ZM28 5.26758H4V7.26758H28V5.26758Z" fill="#E54F6D"/>
</svg>
