<svg width="32" height="32" viewBox="0 0 32 32" fill="none" xmlns="http://www.w3.org/2000/svg">
<path d="M2.87988 19.8398H13.3688C15.1754 19.8398 16.6399 21.3044 16.6399 23.111V25.8487C16.6399 27.6553 15.1754 29.1198 13.3688 29.1198H3.16433C3.00723 29.1198 2.87988 28.9925 2.87988 28.8354V19.8398Z" fill="#D2EEE1" fill-opacity="0.4"/>
<path d="M2.87988 11.8398H12.0888C13.8954 11.8398 15.3599 10.3753 15.3599 8.56873V6.15096C15.3599 4.34437 13.8954 2.87984 12.0888 2.87984H3.16433C3.00723 2.87984 2.87988 3.00719 2.87988 3.16429V11.8398Z" fill="#D2EEE1"/>
<path d="M2.87988 15.3599H23.6088C25.4154 15.3599 26.8799 16.8244 26.8799 18.631V23.6088C26.8799 25.4153 25.4154 26.8799 23.6088 26.8799H3.16433C3.00723 26.8799 2.87988 26.7525 2.87988 26.5954V15.3599Z" fill="#D2EEE1" fill-opacity="0.6"/>
<path d="M12.2415 12.2411C13.4628 12.244 14.6374 11.7713 15.5161 10.923C16.3948 10.0747 16.9087 8.91756 16.9488 7.69684C16.9888 6.47612 16.552 5.28777 15.7308 4.38367C14.9096 3.47957 13.7686 2.93079 12.5497 2.85364L12.2415 2.84424V4.7236C12.9654 4.72396 13.6615 5.00283 14.1855 5.50243C14.7094 6.00202 15.0211 6.68405 15.0558 7.40717C15.0906 8.1303 14.8459 8.83909 14.3723 9.38668C13.8988 9.93427 13.2327 10.2787 12.5121 10.3485L12.2415 10.3617H2.84473V12.2411H12.2415V12.2411ZM21.1684 6.60297C21.3535 6.60299 21.5368 6.56656 21.7078 6.49573C21.8789 6.42491 22.0343 6.32109 22.1652 6.1902C22.2961 6.05931 22.3999 5.90392 22.4708 5.73289C22.5416 5.56187 22.5781 5.37856 22.5781 5.19344C22.5781 5.00832 22.5416 4.82502 22.4708 4.65399C22.3999 4.48297 22.2961 4.32757 22.1652 4.19669C22.0343 4.0658 21.8789 3.96198 21.7078 3.89115C21.5368 3.82033 21.3535 3.78389 21.1684 3.78392C20.7946 3.78398 20.4361 3.9325 20.1718 4.19683C19.9076 4.46116 19.7591 4.81965 19.7591 5.19344C19.7591 5.56724 19.9076 5.92572 20.1718 6.19005C20.4361 6.45438 20.7946 6.60291 21.1684 6.60297ZM26.8064 7.54265C26.9916 7.54268 27.1749 7.50624 27.3459 7.43541C27.5169 7.36459 27.6723 7.26077 27.8032 7.12988C27.9342 6.99899 28.038 6.8436 28.1088 6.67257C28.1797 6.50155 28.2162 6.31824 28.2162 6.13313C28.2162 5.94801 28.1797 5.7647 28.1088 5.59368C28.038 5.42265 27.9342 5.26726 27.8032 5.13637C27.6723 5.00548 27.5169 4.90166 27.3459 4.83084C27.1749 4.76001 26.9916 4.72357 26.8064 4.7236C26.4326 4.72366 26.0742 4.87219 25.8099 5.13652C25.5456 5.40085 25.3971 5.75933 25.3971 6.13313C25.3971 6.50692 25.5456 6.8654 25.8099 7.12973C26.0742 7.39406 26.4326 7.54259 26.8064 7.54265ZM20.2287 13.1807C20.4138 13.1808 20.5971 13.1443 20.7682 13.0735C20.9392 13.0027 21.0946 12.8989 21.2255 12.768C21.3564 12.6371 21.4603 12.4817 21.5311 12.3107C21.602 12.1396 21.6384 11.9563 21.6384 11.7712C21.6384 11.5861 21.602 11.4028 21.5311 11.2318C21.4603 11.0607 21.3564 10.9053 21.2255 10.7745C21.0946 10.6436 20.9392 10.5398 20.7682 10.4689C20.5971 10.3981 20.4138 10.3617 20.2287 10.3617C19.8549 10.3618 19.4965 10.5103 19.2322 10.7746C18.9679 11.0389 18.8194 11.3974 18.8194 11.7712C18.8194 12.145 18.9679 12.5035 19.2322 12.7678C19.4965 13.0322 19.8549 13.1807 20.2287 13.1807ZM27.7461 14.1204C27.9312 14.1204 28.1145 14.084 28.2856 14.0132C28.4566 13.9424 28.612 13.8385 28.7429 13.7077C28.8738 13.5768 28.9777 13.4214 29.0485 13.2503C29.1194 13.0793 29.1558 12.896 29.1558 12.7109C29.1558 12.5258 29.1194 12.3425 29.0485 12.1714C28.9777 12.0004 28.8738 11.845 28.7429 11.7141C28.612 11.5833 28.4566 11.4794 28.2856 11.4086C28.1145 11.3378 27.9312 11.3013 27.7461 11.3014C27.3723 11.3014 27.0139 11.45 26.7496 11.7143C26.4853 11.9786 26.3368 12.3371 26.3368 12.7109C26.3368 13.0847 26.4853 13.4432 26.7496 13.7075C27.0139 13.9718 27.3723 14.1204 27.7461 14.1204ZM22.1081 27.276C23.6993 27.2778 25.2284 26.6587 26.37 25.5502C27.5116 24.4418 28.1756 22.9316 28.2207 21.341C28.2658 19.7504 27.6883 18.205 26.6113 17.0338C25.5342 15.8625 24.0426 15.1577 22.4539 15.0695L22.1081 15.0601H2.84473V16.9395H22.1081C23.2058 16.9374 24.2613 17.3624 25.0514 18.1245C25.8415 18.8866 26.3043 19.9261 26.3419 21.0232C26.3795 22.1204 25.9889 23.1891 25.2528 24.0035C24.5168 24.8179 23.4928 25.3141 22.3975 25.3872L22.1081 25.3966V27.276ZM13.1812 29.1553C14.4025 29.1583 15.577 28.6855 16.4558 27.8373C17.3345 26.989 17.8483 25.8318 17.8884 24.6111C17.9285 23.3904 17.4917 22.202 16.6705 21.2979C15.8493 20.3938 14.7083 19.8451 13.4894 19.7679L13.1812 19.7585H2.84473V21.6379H13.1812C13.9051 21.6382 14.6012 21.9171 15.1251 22.4167C15.6491 22.9163 15.9607 23.5983 15.9955 24.3214C16.0303 25.0446 15.7856 25.7534 15.312 26.301C14.8384 26.8485 14.1724 27.193 13.4518 27.2628L13.1812 27.276V29.1553V29.1553Z" fill="#20AB6A"/>
</svg>
