<svg width="32" height="32" viewBox="0 0 32 32" fill="none" xmlns="http://www.w3.org/2000/svg">
<rect x="5.83008" y="10.9609" width="8.29268" height="2.43902" fill="#DAEDFE"/>
<rect x="5.34277" y="8.03418" width="9.26829" height="2.43902" fill="#DAEDFE"/>
<rect x="4.85449" y="4.61963" width="10.2439" height="2.43902" fill="#DAEDFE"/>
<path d="M7.73608 2.5708L8.07903 5.6698H23.9211L24.2641 2.5708H30.462V29.4288H1.53809V2.5708H7.73608ZM22.5431 18.0658H9.45705L9.80208 21.1648H22.1981L22.5431 18.0658ZM23.1174 12.9008H8.88271L9.22773 15.9998H22.7724L23.1174 12.9008ZM23.6918 7.73579H8.30836L8.65338 10.8348H23.3468L23.6918 7.73579Z" fill="#DAEDFE"/>
<path d="M7.73608 2.5708L8.07903 5.6698H23.9211L24.2641 2.5708H30.462V29.4288H1.53809V2.5708H7.73608ZM5.88701 4.6368H3.60408V27.3628H28.396V4.6368H26.1111L24.0471 23.2308H7.95301L5.88701 4.6368V4.6368ZM22.5431 18.0658H9.45705L9.80208 21.1648H22.1981L22.5431 18.0658V18.0658ZM23.1174 12.9008H8.88271L9.22773 15.9998H22.7724L23.1174 12.9008ZM23.6918 7.73579H8.30836L8.65338 10.8348H23.3468L23.6918 7.73579V7.73579Z" fill="#45A4F6"/>
</svg>
