<svg width="32" height="32" viewBox="0 0 32 32" fill="none" xmlns="http://www.w3.org/2000/svg">
<rect x="8" y="8" width="16" height="16" fill="#DAEDFE"/>
<path d="M8.4703 2.82373L8.46842 6.58844H23.5291V2.82373H25.4115V6.58844H29.1762V8.47079H25.4115V23.5296H29.1762V25.412H25.4115V29.1767H23.5291V25.412H8.46842L8.4703 29.1767H6.58795L6.58607 25.412H2.82324V23.5296H6.58607V8.47079H2.82324V6.58844H6.58607L6.58795 2.82373H8.4703ZM16.9409 26.3531V29.1767H15.0585V26.3531H16.9409ZM23.5291 8.47079H8.46842V23.5296H23.5291V8.47079ZM16.9409 12.2355V15.059H19.7644V16.9414H16.9409V19.7649H15.0585V16.9414H12.235V15.059H15.0585V12.2355H16.9409V12.2355ZM5.64677 15.059V16.9414H2.82324V15.059H5.64677ZM29.1762 15.059V16.9414H26.3527V15.059H29.1762ZM16.9409 2.82373V5.64726H15.0585V2.82373H16.9409Z" fill="#45A4F6"/>
</svg>
