<svg width="32" height="32" viewBox="0 0 32 32" fill="none" xmlns="http://www.w3.org/2000/svg">
<path d="M13.4163 22.6899C19.888 22.6899 25.1343 18.8744 25.1343 14.1677C25.1343 9.46103 19.888 5.64551 13.4163 5.64551C6.94459 5.64551 1.69824 9.46103 1.69824 14.1677C1.69824 17.6454 4.56245 20.6365 8.66885 21.9615C8.99563 22.067 7.80868 25.6331 8.15037 25.7168C8.42628 25.7844 10.9955 22.8778 11.2802 22.9305C12.2086 23.1026 12.4142 22.6899 13.4163 22.6899Z" fill="#DAEDFE"/>
<path d="M23.4013 22.9682C24.0044 22.1671 27.02 18.1606 26.0346 13.2586C29.4329 14.9555 32.9478 18.2199 28.9106 21.8607C25.9995 24.4862 22.798 23.7696 23.4013 22.9682Z" fill="#DAEDFE"/>
<path d="M16.4238 14.0383C16.4238 14.4099 16.5754 14.7663 16.8452 15.029C17.1149 15.2918 17.481 15.4394 17.8626 15.4394C18.2442 15.4394 18.6101 15.2918 18.8799 15.029C19.1497 14.7663 19.3014 14.4099 19.3014 14.0383C19.3014 13.6667 19.1497 13.3103 18.8799 13.0476C18.6101 12.7848 18.2442 12.6372 17.8626 12.6372C17.481 12.6372 17.1149 12.7848 16.8452 13.0476C16.5754 13.3103 16.4238 13.6667 16.4238 14.0383Z" fill="#45A4F6"/>
<path d="M11.3193 14.0383C11.3193 14.4099 11.4709 14.7663 11.7407 15.029C12.0106 15.2918 12.3765 15.4394 12.7581 15.4394C13.1397 15.4394 13.5056 15.2918 13.7755 15.029C14.0453 14.7663 14.1969 14.4099 14.1969 14.0383C14.1969 13.6667 14.0453 13.3103 13.7755 13.0476C13.5056 12.7848 13.1397 12.6372 12.7581 12.6372C12.3765 12.6372 12.0106 12.7848 11.7407 13.0476C11.4709 13.3103 11.3193 13.6667 11.3193 14.0383Z" fill="#45A4F6"/>
<path d="M6.3584 14.0383C6.3584 14.4099 6.50998 14.7663 6.77981 15.029C7.04962 15.2918 7.41557 15.4394 7.79716 15.4394C8.17875 15.4394 8.5447 15.2918 8.81453 15.029C9.08434 14.7663 9.23592 14.4099 9.23592 14.0383C9.23592 13.6667 9.08434 13.3103 8.81453 13.0476C8.5447 12.7848 8.17875 12.6372 7.79716 12.6372C7.41557 12.6372 7.04962 12.7848 6.77981 13.0476C6.50998 13.3103 6.3584 13.6667 6.3584 14.0383Z" fill="#45A4F6"/>
<path d="M26.1111 26.8363C25.8766 26.8362 25.6489 26.7583 25.4635 26.615L22.1386 24.046C22.0261 23.9616 21.9317 23.8557 21.8606 23.7345C21.7895 23.6133 21.7432 23.4793 21.7244 23.3399C21.7056 23.2006 21.7146 23.0591 21.7511 22.9234C21.7875 22.7876 21.8505 22.6605 21.9366 22.5494C22.0227 22.4382 22.1299 22.3452 22.2521 22.276C22.3743 22.2067 22.5091 22.1623 22.6487 22.1455C22.7882 22.1289 22.9297 22.1399 23.0649 22.1783C23.2001 22.2168 23.3262 22.2817 23.4361 22.3693L25.0515 23.6198V23.0475C25.052 22.8111 25.1314 22.5815 25.2774 22.3955C25.4233 22.2095 25.6273 22.0776 25.8568 22.0209C26.7628 21.7974 27.5753 21.2943 28.1792 20.5827C28.783 19.8713 29.1473 18.9878 29.2207 18.0576C29.2939 17.1274 29.0723 16.1976 28.5871 15.4005C28.1022 14.6033 27.3782 13.9792 26.5184 13.6167C26.2599 13.5064 26.0557 13.298 25.9508 13.0373C25.846 12.7765 25.8489 12.4847 25.9592 12.2262C26.0694 11.9676 26.2778 11.7635 26.5386 11.6586C26.7994 11.5537 27.0911 11.5567 27.3497 11.6669C28.5533 12.1746 29.578 13.0301 30.2922 14.1239C31.0066 15.2177 31.3778 16.4999 31.3587 17.8061C31.3394 19.1123 30.9306 20.383 30.1844 21.4552C29.4382 22.5276 28.3888 23.3526 27.1708 23.8246V25.7886C27.1677 26.0676 27.0547 26.3341 26.8562 26.5301C26.6578 26.7264 26.3901 26.8363 26.1111 26.8363Z" fill="#45A4F6"/>
<path d="M7.87862 27.4136C7.73947 27.4136 7.60168 27.3862 7.47312 27.333C7.34454 27.2797 7.22773 27.2017 7.12933 27.1033C7.03095 27.0048 6.95288 26.8881 6.89964 26.7594C6.84639 26.631 6.81897 26.4931 6.81897 26.3539V22.9772C4.70456 22.2505 2.91626 20.7977 1.77175 18.8769C0.627237 16.9563 0.200645 14.692 0.567757 12.4865C0.934868 10.281 2.0719 8.27707 3.77689 6.83067C5.48185 5.38429 7.64434 4.58911 9.88018 4.58643H16.0874C17.3287 4.58638 18.5581 4.83084 19.7052 5.30588C20.8521 5.78093 21.8942 6.47724 22.772 7.35506C23.65 8.23288 24.3464 9.27501 24.8214 10.422C25.2965 11.5689 25.5411 12.7982 25.5411 14.0397C25.5411 15.2811 25.2965 16.5104 24.8214 17.6574C24.3464 18.8043 23.65 19.8465 22.772 20.7243C21.8942 21.6021 20.8521 22.2985 19.7052 22.7734C18.5581 23.2485 17.3287 23.493 16.0874 23.4929H13.3111L8.52619 27.2017C8.33955 27.3417 8.11192 27.4162 7.87862 27.4136ZM9.88725 6.71514C8.09477 6.71414 6.364 7.36972 5.02202 8.558C3.68002 9.74629 2.81976 11.385 2.60378 13.1644C2.38781 14.9438 2.83107 16.7407 3.84984 18.2155C4.86859 19.6904 6.39226 20.741 8.13295 21.1687C8.36287 21.2256 8.56712 21.3579 8.71311 21.5444C8.85908 21.7309 8.93835 21.9609 8.93827 22.1977V24.2064L12.3009 21.6161C12.4863 21.4728 12.714 21.395 12.9484 21.3948H16.0968C18.0418 21.3948 19.9073 20.6221 21.2826 19.2468C22.6581 17.8713 23.4306 16.0059 23.4306 14.0609C23.4306 12.1158 22.6581 10.2504 21.2826 8.87497C19.9073 7.4996 18.0418 6.72692 16.0968 6.72692H9.88725V6.71514Z" fill="#45A4F6"/>
</svg>
