<svg width="32" height="32" viewBox="0 0 32 32" fill="none" xmlns="http://www.w3.org/2000/svg">
<path d="M14.2451 2.66675V29.3335H2.24512V2.66675H14.2451ZM27.6247 3.93608L29.7554 28.2872L17.8007 29.3335L15.6699 4.9823L27.6247 3.93608ZM12.4673 4.44452H4.02289V27.5556H12.4673V4.44452ZM26.0087 5.8623L17.5962 6.5983L19.4167 27.4072L27.8291 26.6712L26.0087 5.8623ZM24.8016 17.5672L24.9571 19.3388L20.9722 19.6872L20.8167 17.9156L24.8016 17.5672ZM10.2451 16V17.7778H6.24512V16H10.2451ZM24.4141 13.1396L24.5696 14.9112L20.5847 15.2596L20.4299 13.4881L24.4149 13.1396H24.4141ZM10.2451 11.5556V13.3334H6.24512V11.5556H10.2451ZM24.0274 8.71208L24.1821 10.4836L20.1971 10.8321L20.0424 9.06052L24.0274 8.71208ZM10.2451 7.11118V8.88897H6.24512V7.11118H10.2451Z" fill="#20AB6A"/>
<path d="M25.1991 6.8248L26.8649 25.863L20.2231 26.4444L18.5573 7.40615L25.1991 6.8248ZM4.91016 5.33325H11.5768V26.6665H4.91016V5.33325Z" fill="#20AB6A" fill-opacity="0.2"/>
</svg>
