<svg width="32" height="32" viewBox="0 0 32 32" fill="none" xmlns="http://www.w3.org/2000/svg">
<path d="M29.5536 16.3766H18.2595V29.5531H29.5536V16.3766ZM16.3771 5.08252C11.9668 5.08252 10.3197 9.39499 14.1635 16.4896C16.4091 20.6326 12.4825 24.2693 7.29289 25.5926L6.49854 25.7846C5.3503 26.0858 5.12442 26.3908 5.08865 27.9757L5.08301 28.6119H16.3771V14.4943H19.5395C22.0581 8.51405 20.3357 5.08252 16.3771 5.08252Z" fill="#ECE5FF"/>
<path d="M15.0574 1.88232C19.656 1.88232 23.0085 5.79762 20.2414 13.1764H30.1162V30.1176H15.0574V29.1764H1.88658L1.88281 26.9986L1.89599 26.4226C1.97693 24.4743 2.43622 23.2659 4.82117 22.6202L5.17505 22.5317C8.66493 21.7261 12.8438 19.1209 11.1892 16.0677C6.28375 7.01362 9.79058 1.88232 15.0574 1.88232ZM28.2339 15.0588H16.9398V28.2353H28.2339V15.0588ZM15.0574 3.76468C10.647 3.76468 8.99999 8.07715 12.8438 15.1717C15.0894 19.3148 11.1628 22.9515 5.97317 24.2748L5.17881 24.4668C4.03058 24.768 3.80469 25.0729 3.76893 26.6579L3.76328 27.2941H15.0574V13.1764H18.2198C20.7383 7.19621 19.016 3.76468 15.0574 3.76468ZM23.528 23.0588V24.9411H19.7633V23.0588H23.528ZM25.4103 18.3529V20.2353H19.7633V18.3529H25.4103Z" fill="#835BFC"/>
</svg>
