<svg width="32" height="32" viewBox="0 0 32 32" fill="none" xmlns="http://www.w3.org/2000/svg">
<circle cx="15.9967" cy="14.2955" r="10.3111" fill="#DAEDFE"/>
<path d="M22.0401 28.5182C22.0401 27.8581 21.4032 27.225 20.2697 26.7583C19.1361 26.2915 17.5987 26.0293 15.9956 26.0293C14.3925 26.0293 12.8551 26.2915 11.7215 26.7583C10.588 27.225 9.95117 27.8581 9.95117 28.5182L15.9956 28.5182H22.0401Z" fill="#DAEDFE"/>
<circle cx="15.6407" cy="15.3624" r="4.26667" fill="#DAEDFE"/>
<path d="M15.9965 2.42871C18.7769 2.42703 21.4715 3.39087 23.6201 5.15555C25.7687 6.92024 27.2378 9.37625 27.7764 12.1039C28.3151 14.8316 27.8898 17.6617 26.5733 20.1107C25.2568 22.5596 23.1308 24.4754 20.5585 25.5307C21.9209 26.2288 23.1046 27.2306 24.0185 28.4587C24.1712 28.6675 24.3133 28.8838 24.4445 29.1067L24.7765 29.6907C24.8182 29.767 24.8393 29.8528 24.8378 29.9397C24.8362 30.0266 24.8121 30.1115 24.7676 30.1863C24.7232 30.261 24.6601 30.3228 24.5845 30.3657C24.5089 30.4085 24.4234 30.431 24.3365 30.4307H7.65651C7.5696 30.431 7.48412 30.4085 7.40852 30.3657C7.33292 30.3228 7.26979 30.261 7.22537 30.1863C7.18095 30.1115 7.15678 30.0266 7.15522 29.9397C7.15367 29.8528 7.17479 29.767 7.21651 29.6907C7.49651 29.1747 7.73851 28.7787 7.94251 28.5027C8.86211 27.2551 10.058 26.2372 11.4365 25.5287C8.86563 24.4727 6.74105 22.557 5.4255 20.1087C4.10996 17.6604 3.68504 14.8314 4.2233 12.1047C4.76156 9.37802 6.22962 6.9227 8.37681 5.15799C10.524 3.39329 13.2172 2.42862 15.9965 2.42871V2.42871ZM15.9965 26.4287C14.0425 26.4287 12.2165 27.1367 10.8025 28.3427L10.7045 28.4287H21.2865L21.1905 28.3427C19.8513 27.1986 18.1715 26.5292 16.4125 26.4387L15.9965 26.4287ZM15.9965 4.42871C13.3443 4.42871 10.8008 5.48228 8.92544 7.35765C7.05008 9.23301 5.99651 11.7765 5.99651 14.4287C5.99651 17.0809 7.05008 19.6244 8.92544 21.4998C10.8008 23.3751 13.3443 24.4287 15.9965 24.4287C18.6487 24.4287 21.1922 23.3751 23.0676 21.4998C24.9429 19.6244 25.9965 17.0809 25.9965 14.4287C25.9965 11.7765 24.9429 9.23301 23.0676 7.35765C21.1922 5.48228 18.6487 4.42871 15.9965 4.42871V4.42871ZM15.9965 9.42871C17.5878 9.42871 19.1139 10.0609 20.2391 11.1861C21.3644 12.3113 21.9965 13.8374 21.9965 15.4287C21.9965 17.02 21.3644 18.5461 20.2391 19.6714C19.1139 20.7966 17.5878 21.4287 15.9965 21.4287C14.4052 21.4287 12.8791 20.7966 11.7539 19.6714C10.6286 18.5461 9.99651 17.02 9.99651 15.4287C9.99651 13.8374 10.6286 12.3113 11.7539 11.1861C12.8791 10.0609 14.4052 9.42871 15.9965 9.42871V9.42871ZM15.9965 11.4287C14.9356 11.4287 13.9182 11.8501 13.1681 12.6003C12.4179 13.3504 11.9965 14.3678 11.9965 15.4287C11.9965 16.4896 12.4179 17.507 13.1681 18.2571C13.9182 19.0073 14.9356 19.4287 15.9965 19.4287C17.0574 19.4287 18.0748 19.0073 18.8249 18.2571C19.5751 17.507 19.9965 16.4896 19.9965 15.4287C19.9965 14.3678 19.5751 13.3504 18.8249 12.6003C18.0748 11.8501 17.0574 11.4287 15.9965 11.4287V11.4287ZM15.9965 5.42871C16.3943 5.42871 16.7759 5.58675 17.0572 5.86805C17.3385 6.14936 17.4965 6.53089 17.4965 6.92871C17.4965 7.32654 17.3385 7.70807 17.0572 7.98937C16.7759 8.27068 16.3943 8.42871 15.9965 8.42871C15.5987 8.42871 15.2172 8.27068 14.9358 7.98937C14.6545 7.70807 14.4965 7.32654 14.4965 6.92871C14.4965 6.53089 14.6545 6.14936 14.9358 5.86805C15.2172 5.58675 15.5987 5.42871 15.9965 5.42871Z" fill="#45A4F6"/>
</svg>
