<svg width="32" height="32" viewBox="0 0 32 32" fill="none" xmlns="http://www.w3.org/2000/svg">
<path d="M12.726 3.05396L12.668 10.802L13.178 10.844C13.902 10.896 14.652 10.93 15.42 10.942L16 10.946C16.972 10.946 17.916 10.91 18.8221 10.846L19.3339 10.802L19.392 3.06196L20.492 3.18596C25.948 3.78596 29.74 5.35796 29.988 7.69995L30 7.94595V23.946C30 27.026 23.756 28.946 16 28.946C8.44 28.946 2.314 27.12 2.012 24.174L2 23.946V7.94595C2 5.61195 5.426 4.00396 10.532 3.30596L11.612 3.17396L12.726 3.05396ZM24 18.946C22.96 18.946 22.3939 19.5839 21.7059 21.402L21.3619 22.362C20.46 24.912 19.748 25.946 18 25.946C17.1019 25.946 16.4379 25.6799 15.374 24.95L14.748 24.506L13.804 23.81C12.904 23.166 12.44 22.946 12 22.946C11.154 22.946 9.62 25.044 9.144 26.32L9.188 26.3279C9.636 26.4159 10.104 26.494 10.592 26.566L11.592 26.696C11.764 26.716 11.936 26.7359 12.112 26.7519L13.178 26.844C15.0569 26.9796 16.943 26.9796 18.8221 26.844L19.888 26.7519L20.408 26.696L21.408 26.566C21.896 26.494 22.364 26.4159 22.812 26.3279L23.676 26.1479C23.9541 26.0839 24.22 26.016 24.476 25.948L25.208 25.736C26.8341 25.226 27.856 24.6239 27.988 24.0639L28 23.946C28 21.866 25.956 18.946 24 18.946ZM16.58 12.942L16 12.946C10.896 12.946 6.446 12.114 4 10.666V23.946C4 24.538 5.05 25.19 6.792 25.736L7.194 25.8559C7.85 23.774 10.048 20.946 12 20.946C12.898 20.946 13.562 21.2119 14.626 21.942L15.252 22.386L16.196 23.082C17.096 23.7239 17.5621 23.946 18 23.946C18.3741 23.946 18.6619 23.67 19.032 22.838L19.244 22.326L19.684 21.11C20.7 18.262 21.7339 16.946 24 16.946C25.52 16.946 26.9299 17.8079 28 19.0399L28.0021 10.666C25.6501 12.058 21.4419 12.882 16.5779 12.942H16.58ZM8 13.946C8.53043 13.946 9.03914 14.1567 9.41421 14.5317C9.78928 14.9068 10 15.4155 10 15.946C10 16.4764 9.78928 16.9852 9.41421 17.3602C9.03914 17.7352 8.53043 17.946 8 17.946C7.46957 17.946 6.96086 17.7352 6.58579 17.3602C6.21072 16.9852 6 16.4764 6 15.946C6 15.4155 6.21072 14.9068 6.58579 14.5317C6.96086 14.1567 7.46957 13.946 8 13.946ZM10.71 5.30195L10.33 5.35796C6.5 5.95795 4 7.11395 4 7.94595C4 8.53795 5.05 9.18995 6.792 9.73595L7.524 9.94795C7.78 10.016 8.046 10.084 8.324 10.148L9.188 10.328C9.488 10.388 9.794 10.44 10.112 10.492L10.668 10.574L10.71 5.30195ZM21.3741 5.31395L21.3339 10.574L21.408 10.566C21.896 10.494 22.364 10.416 22.812 10.328L23.676 10.148C23.9541 10.084 24.22 10.016 24.476 9.94795L25.208 9.73595C26.8341 9.22595 27.856 8.62395 27.988 8.06395L28 7.94595C28 7.12195 25.5381 5.97395 21.752 5.37195L21.3741 5.31395Z" fill="#835BFC"/>
<path d="M24 18.946C22.96 18.946 22.3939 19.5839 21.7059 21.402L21.3619 22.362C20.46 24.9119 19.748 25.946 18 25.946C17.1019 25.946 16.4379 25.6799 15.374 24.95L14.748 24.506L13.804 23.81C12.904 23.166 12.44 22.946 12 22.946C11.154 22.946 9.62 25.0441 9.144 26.3201L9.188 26.3279C9.636 26.4159 10.104 26.494 10.592 26.566L11.592 26.6959C11.764 26.7159 11.936 26.7359 12.112 26.7519L13.178 26.8441C15.0569 26.9796 16.943 26.9796 18.8221 26.8441L19.888 26.7519L20.408 26.6959L21.408 26.566C21.896 26.494 22.364 26.4159 22.812 26.3279L23.676 26.1479C23.9539 26.0839 24.22 26.0159 24.476 25.9479L25.208 25.7361C26.8341 25.226 27.856 24.6239 27.988 24.0639L28 23.946C28 21.866 25.956 18.946 24 18.946ZM16.58 12.942L16 12.946C10.896 12.946 6.446 12.114 4 10.666V23.946C4 24.538 5.05 25.19 6.792 25.7361L7.194 25.8559C7.85 23.774 10.048 20.946 12 20.946C12.898 20.946 13.562 21.2119 14.626 21.942L15.252 22.386L16.196 23.082C17.096 23.7239 17.5619 23.946 18 23.946C18.3739 23.946 18.6619 23.67 19.032 22.838L19.244 22.326L19.684 21.11C20.7 18.262 21.7339 16.946 24 16.946C25.52 16.946 26.9299 17.8079 28 19.0399L28.0019 10.666C25.6499 12.058 21.4419 12.882 16.5779 12.942H16.58ZM8 13.946C8.53043 13.946 9.03914 14.1567 9.41421 14.5318C9.78928 14.9069 10 15.4156 10 15.946C10 16.4764 9.78928 16.9852 9.41421 17.3602C9.03914 17.7353 8.53043 17.946 8 17.946C7.46957 17.946 6.96086 17.7353 6.58579 17.3602C6.21072 16.9852 6 16.4764 6 15.946C6 15.4156 6.21072 14.9069 6.58579 14.5318C6.96086 14.1567 7.46957 13.946 8 13.946ZM10.71 5.302L10.33 5.358C6.5 5.958 4 7.114 4 7.946C4 8.538 5.05 9.19 6.792 9.736L7.524 9.948C7.78 10.016 8.046 10.084 8.324 10.148L9.188 10.328C9.488 10.388 9.794 10.44 10.112 10.492L10.668 10.574L10.71 5.302ZM21.3739 5.314L21.3339 10.574L21.408 10.566C21.896 10.494 22.364 10.416 22.812 10.328L23.676 10.148C23.9539 10.084 24.22 10.016 24.476 9.948L25.208 9.736C26.8341 9.226 27.856 8.624 27.988 8.064L28 7.946C28 7.122 25.5379 5.974 21.752 5.372L21.3739 5.314Z" fill="#ECE5FF"/>
</svg>
