<svg width="32" height="32" viewBox="0 0 32 32" fill="none" xmlns="http://www.w3.org/2000/svg">
<circle cx="16.0004" cy="4.8002" r="1.6" fill="#DAEDFE"/>
<path d="M11.4377 11.1049L15.4377 9.50488L21.0377 11.1049V17.5049H17.8377L16.2377 22.3049L14.4002 17.5049H11.2002L11.4377 11.1049Z" fill="#DAEDFE"/>
<path fill-rule="evenodd" clip-rule="evenodd" d="M14.0218 9.152C12.7358 9.152 11.5798 9.62 10.7578 10.368V17.92H13.6218L15.8398 26.79L18.3358 17.92H21.2418V10.51C20.4138 9.68 19.1958 9.152 17.8318 9.152H14.0218ZM14.5666 7.552C14.9668 7.75012 15.4109 7.856 15.8658 7.856C16.3208 7.856 16.7648 7.75012 17.165 7.552C17.4479 7.41195 17.7088 7.22582 17.9362 6.99841C18.4853 6.4493 18.7938 5.70455 18.7938 4.928C18.7938 4.15145 18.4853 3.4067 17.9362 2.85759C17.3871 2.30848 16.6424 2 15.8658 2C15.0893 2 14.3445 2.30848 13.7954 2.85759C13.2463 3.4067 12.9378 4.15145 12.9378 4.928C12.9378 5.70455 13.2463 6.4493 13.7954 6.99841C14.0228 7.22582 14.2838 7.41195 14.5666 7.552ZM19.6418 11.2647C19.156 10.9521 18.5339 10.752 17.8318 10.752H14.0218C13.3885 10.752 12.8199 10.9143 12.3578 11.1751V16.32H14.871L15.931 20.5592L17.1239 16.32H19.6418V11.2647ZM14.5378 4.928C14.5378 5.28021 14.6777 5.61799 14.9268 5.86704C15.1758 6.11609 15.5136 6.256 15.8658 6.256C16.218 6.256 16.5558 6.11609 16.8048 5.86704C17.0539 5.61799 17.1938 5.28021 17.1938 4.928C17.1938 4.57579 17.0539 4.23801 16.8048 3.98896C16.5558 3.73991 16.218 3.6 15.8658 3.6C15.5136 3.6 15.1758 3.73991 14.9268 3.98896C14.6777 4.23801 14.5378 4.57579 14.5378 4.928Z" fill="#45A4F6"/>
<path d="M20.4458 21.4181V22.9621C23.6918 23.4421 25.9218 24.4381 25.9218 25.5881C25.9218 27.2141 21.4798 28.5281 16.0018 28.5281C10.5238 28.5281 6.07977 27.2141 6.07977 25.5881C6.07977 24.4341 8.32577 23.4361 11.5938 22.9541V21.4121C6.16777 22.0001 2.25977 23.6461 2.25977 25.5881C2.25577 28.0241 8.41177 30.0001 15.9998 30.0001C23.5878 30.0001 29.7418 28.0241 29.7418 25.5901C29.7418 23.6521 25.8518 22.0121 20.4458 21.4181Z" fill="#45A4F6"/>
</svg>
