<svg width="32" height="32" viewBox="0 0 32 32" fill="none" xmlns="http://www.w3.org/2000/svg">
<path d="M10.6669 19.5554C12.6306 19.5554 14.2224 17.9636 14.2224 15.9999C14.2224 14.0362 12.6306 12.4443 10.6669 12.4443C8.7032 12.4443 7.11133 14.0362 7.11133 15.9999C7.11133 17.9636 8.7032 19.5554 10.6669 19.5554Z" fill="#DCF2EB"/>
<path d="M21.3339 8.88894C23.2976 8.88894 24.8894 7.29706 24.8894 5.33338C24.8894 3.36971 23.2976 1.77783 21.3339 1.77783C19.3702 1.77783 17.7783 3.36971 17.7783 5.33338C17.7783 7.29706 19.3702 8.88894 21.3339 8.88894Z" fill="#DCF2EB"/>
<path d="M19.5556 30.2224C21.5192 30.2224 23.1111 28.6306 23.1111 26.6669C23.1111 24.7032 21.5192 23.1113 19.5556 23.1113C17.5919 23.1113 16 24.7032 16 26.6669C16 28.6306 17.5919 30.2224 19.5556 30.2224Z" fill="#DCF2EB"/>
<path d="M20 23C20.8869 22.9998 21.7488 23.2944 22.4501 23.8374C23.1514 24.3805 23.6523 25.1413 23.8741 26H30V28L23.8741 28.0021C23.6518 28.8605 23.1509 29.6206 22.4496 30.1634C21.7483 30.7061 20.8867 31.0003 20 31H18C17.1133 31.0003 16.2517 30.7061 15.5504 30.1634C14.8492 29.6206 14.3481 28.8605 14.126 28.0021L2 28V26H14.126C14.3477 25.1413 14.8486 24.3805 15.5499 23.8374C16.2512 23.2944 17.1131 22.9998 18 23H20ZM20 25H18C17.4902 25.0006 17 25.1957 16.6293 25.5458C16.2586 25.8957 16.0355 26.3739 16.0056 26.8827C15.9758 27.3917 16.1413 27.8928 16.4685 28.2837C16.7957 28.6746 17.2598 28.9258 17.7661 28.9861L18 29H20C20.5304 29 21.0392 28.7893 21.4142 28.4142C21.7893 28.0392 22 27.5304 22 27C22 26.4696 21.7893 25.9608 21.4142 25.5858C21.0392 25.2107 20.5304 25 20 25ZM12 12C12.887 11.9998 13.7488 12.2944 14.4501 12.8374C15.1514 13.3805 15.6523 14.1412 15.874 15H30V17L15.874 17.0021C15.6519 17.8605 15.1508 18.6206 14.4496 19.1634C13.7484 19.7061 12.8867 20.0003 12 20H10C9.11331 20.0003 8.25163 19.7061 7.5504 19.1634C6.84917 18.6206 6.34811 17.8605 6.126 17.0021L2 17V15H6.126C6.34774 14.1412 6.84862 13.3805 7.54989 12.8374C8.25117 12.2944 9.11304 11.9998 10 12H12ZM12 14H10C9.49024 14.0006 8.99994 14.1958 8.62926 14.5457C8.25859 14.8956 8.03554 15.3739 8.00566 15.8828C7.97578 16.3917 8.14134 16.8928 8.46853 17.2837C8.79571 17.6746 9.25981 17.9258 9.766 17.9861L10 18H12C12.5304 18 13.0391 17.7893 13.4142 17.4142C13.7893 17.0392 14 16.5304 14 16C14 15.4696 13.7893 14.9609 13.4142 14.5858C13.0391 14.2107 12.5304 14 12 14ZM22 1C22.8869 0.999775 23.7488 1.29435 24.4501 1.83741C25.1514 2.38046 25.6523 3.1412 25.8741 4H30V6L25.8741 6.002C25.6518 6.86042 25.1509 7.6207 24.4496 8.16338C23.7483 8.70605 22.8867 9.00034 22 9H20C19.1133 9.00034 18.2517 8.70605 17.5504 8.16338C16.8491 7.6207 16.3482 6.86042 16.1259 6.002L2 6V4H16.1259C16.3477 3.1412 16.8486 2.38046 17.5499 1.83741C18.2512 1.29435 19.1131 0.999775 20 1H22ZM22 3H20C19.4902 3.00056 19 3.19576 18.6293 3.5457C18.2586 3.89563 18.0355 4.3739 18.0056 4.88278C17.9758 5.39168 18.1413 5.89275 18.4685 6.28366C18.7957 6.67458 19.2598 6.92579 19.7661 6.986L20 7H22C22.5304 7 23.0392 6.78928 23.4142 6.41421C23.7893 6.03914 24 5.53043 24 5C24 4.46957 23.7893 3.96086 23.4142 3.58579C23.0392 3.21072 22.5304 3 22 3Z" fill="#21A389"/>
</svg>
