<svg width="32" height="32" viewBox="0 0 32 32" fill="none" xmlns="http://www.w3.org/2000/svg">
<path d="M15.9965 5.11426L18.3437 6.1176L19.5497 6.6216L20.5577 7.03226L20.9889 7.20213L21.3716 7.34866L21.7765 7.49893L22.2433 7.66693L22.7641 7.84613L23.6452 8.142L25.0097 8.58346L25.7993 8.83173V17.3362L25.7946 17.5239C25.6685 20.2679 22.3245 24.0964 16.8365 27.3033L16.6469 27.4097L15.9871 27.7634L15.1434 27.3079L14.757 27.0822L14.4173 26.8767C9.24007 23.7193 6.18435 20.0196 6.19927 17.3559V8.8336L6.97487 8.58906L8.61942 8.05426L9.45102 7.7724L10.1678 7.51946L10.8109 7.27866L11.6714 6.93893L12.7065 6.5152L14.253 5.8656L15.9965 5.11426Z" fill="#DAEDFE"/>
<path d="M17.6711 2.78646L16.0004 2.06592L12.8271 3.42859L11.3739 4.03712L10.2054 4.50939L9.81804 4.66059L9.20111 4.89112L8.33498 5.19539L7.28404 5.54726L6.04831 5.94579L5.00018 6.27619L3.39951 6.77086V17.3473C3.37711 21.3009 7.17766 25.8313 13.3339 29.4928L13.794 29.7616L14.2747 30.024L16.0004 30.9368L17.9978 29.8624L18.2311 29.7318C24.4751 26.0833 28.4129 21.5753 28.594 17.62L28.6004 17.368V6.77459L26.226 6.03166L24.8447 5.58832L23.9533 5.29246L23.1852 5.02832L22.742 4.87059L22.3612 4.72966L21.8012 4.51219L20.334 3.91486L18.766 3.25499L17.6711 2.78646ZM15.9977 5.11419L18.345 6.11752L19.5508 6.62152L20.5588 7.03219L20.99 7.20206L21.3727 7.34859L21.7778 7.49886L22.2444 7.66686L22.7652 7.84606L23.6463 8.14192L25.0108 8.58339L25.8004 8.83166V17.3361L25.7957 17.5238C25.6698 20.2678 22.3257 24.0963 16.8377 27.3032L16.6482 27.4096L15.9883 27.7633L15.1446 27.308L14.7582 27.0821L14.4184 26.8768C9.24124 23.7192 6.18551 20.0195 6.20044 17.3558V8.83352L6.97604 8.58899L8.62058 8.05419L9.45218 7.77232L10.169 7.51939L10.812 7.27859L11.6726 6.93886L12.7076 6.51512L14.2542 5.86552L15.9977 5.11419Z" fill="#45A4F6"/>
<path d="M14.5827 21.5457L9.47266 16.4356L11.4532 14.4561L14.5827 17.5856L21.3064 10.8618L21.7403 11.2958L23.2859 12.8414L14.5827 21.5457Z" fill="#45A4F6"/>
</svg>
