<svg width="32" height="32" viewBox="0 0 32 32" fill="none" xmlns="http://www.w3.org/2000/svg">
<path d="M4.48047 5.75977H28.1605V20.4798H4.48047V5.75977Z" fill="#DAEDFE"/>
<path d="M15.2156 27.2002C14.7203 28.1602 14.7299 28.5327 15.2156 29.1202H8.96027V27.2002H15.2156ZM13.9328 25.2802H1.28027V2.24023H30.0803V22.7758C29.4875 22.2902 28.7603 22.2352 28.1603 22.2352V4.16023H3.20027V19.5202H13.9328C12.9728 20.4802 12.9103 20.7905 12.8502 21.4402H3.20027V23.3602H12.8502C12.9097 24.0207 13.0028 24.3202 13.9328 25.2802Z" fill="#45A4F6"/>
<path d="M15.6798 22.4C15.6798 21.8698 16.1096 21.44 16.6398 21.44H18.0798C18.61 21.44 19.0398 21.0102 19.0398 20.48C19.0398 19.9498 18.61 19.52 18.0798 19.52H16.6398C15.0492 19.52 13.7598 20.8094 13.7598 22.4C13.7598 23.9906 15.0492 25.28 16.6398 25.28H28.1598C28.69 25.28 29.1198 25.7098 29.1198 26.24C29.1198 26.7702 28.69 27.2 28.1598 27.2H16.6398C16.1096 27.2 15.6798 27.6298 15.6798 28.16C15.6798 28.6902 16.1096 29.12 16.6398 29.12H28.1598C29.7503 29.12 31.0398 27.8306 31.0398 26.24C31.0398 24.6494 29.7503 23.36 28.1598 23.36H16.6398C16.1096 23.36 15.6798 22.9302 15.6798 22.4Z" fill="#45A4F6"/>
<path fill-rule="evenodd" clip-rule="evenodd" d="M23.1212 22.3611C24.4613 20.6159 27.1996 16.802 27.1996 14.7762C27.1996 12.0942 25.0506 9.91992 22.3996 9.91992C19.7486 9.91992 17.5996 12.0942 17.5996 14.7762C17.5996 16.802 20.3379 20.6159 21.678 22.3611C22.0455 22.8395 22.7538 22.8395 23.1212 22.3611ZM22.3996 15.6434C22.9298 15.6434 23.3596 15.2163 23.3596 14.6895C23.3596 14.1627 22.9298 13.7356 22.3996 13.7356C21.8694 13.7356 21.4396 14.1627 21.4396 14.6895C21.4396 15.2163 21.8694 15.6434 22.3996 15.6434Z" fill="white"/>
<path fill-rule="evenodd" clip-rule="evenodd" d="M24.3205 14.7198C24.3205 15.7802 23.4609 16.6398 22.4005 16.6398C21.3401 16.6398 20.4805 15.7802 20.4805 14.7198C20.4805 13.6594 21.3401 12.7998 22.4005 12.7998C23.4609 12.7998 24.3205 13.6594 24.3205 14.7198ZM22.4005 15.6798C22.9307 15.6798 23.3605 15.25 23.3605 14.7198C23.3605 14.1896 22.9307 13.7598 22.4005 13.7598C21.8703 13.7598 21.4405 14.1896 21.4405 14.7198C21.4405 15.25 21.8703 15.6798 22.4005 15.6798Z" fill="#45A4F6"/>
<path fill-rule="evenodd" clip-rule="evenodd" d="M24.9756 15.8438C25.2194 15.2557 25.2796 14.9113 25.2796 14.7762C25.2796 13.1153 23.9577 11.8278 22.3996 11.8278C20.8415 11.8278 19.5196 13.1153 19.5196 14.7762C19.5196 14.9113 19.5798 15.2557 19.8237 15.8438C20.0532 16.3975 20.3877 17.0317 20.7868 17.6992C21.2969 18.5521 21.8772 19.4009 22.3996 20.1237C22.922 19.4009 23.5023 18.5521 24.0124 17.6992C24.4115 17.0317 24.746 16.3975 24.9756 15.8438ZM23.1212 22.3611C24.4613 20.6159 27.1996 16.802 27.1996 14.7762C27.1996 12.0942 25.0506 9.91992 22.3996 9.91992C19.7486 9.91992 17.5996 12.0942 17.5996 14.7762C17.5996 16.802 20.3379 20.6159 21.678 22.3611C22.0455 22.8395 22.7538 22.8395 23.1212 22.3611Z" fill="#45A4F6"/>
</svg>
