<svg width="32" height="32" viewBox="0 0 32 32" fill="none" xmlns="http://www.w3.org/2000/svg">
<path d="M15.9996 4.44531C16.7148 4.44522 17.4135 4.6608 18.0044 5.06389C18.5951 5.46699 19.0508 6.03886 19.3116 6.70486C23.8965 8.07464 27.2956 12.2186 27.5408 17.2116L27.5516 17.4959L27.5551 17.7786L27.5543 19.6791L27.6636 19.7324C29.1391 20.4311 30.0493 21.2969 30.1996 22.3519L30.2165 22.5119L30.2218 22.6604C30.2218 24.1333 28.6946 25.3378 26.2085 26.1849L25.948 26.2711L25.4565 26.4221L24.9445 26.5626C24.062 26.7908 23.1684 26.9732 22.2671 27.1093L21.7826 27.1804L21.1516 27.2621L20.8306 27.2996L20.1773 27.3671L19.5106 27.4239L19.1728 27.4489L18.8316 27.4711L18.1391 27.5084L17.7888 27.5226L17.0805 27.5439L16.3623 27.5546H15.6369L14.9187 27.5439L14.2102 27.5226L13.86 27.5084L13.1676 27.4711L12.8262 27.4489L12.4884 27.4239L11.8218 27.3671L11.1684 27.2996L10.8476 27.2621L10.2164 27.1804L9.84134 27.1271L9.3329 27.0453L8.70179 26.9324L8.16222 26.8239L7.93202 26.7751L7.48757 26.6719L7.05467 26.5626L6.54267 26.4213L6.05112 26.2711C3.41112 25.4213 1.77734 24.1839 1.77734 22.6676C1.77734 22.5156 1.79245 22.3671 1.82179 22.2231C2.01557 21.2746 2.83334 20.4844 4.12757 19.8338L4.44222 19.6764L4.44402 17.7671L4.44757 17.4826C4.51029 15.0471 5.34082 12.6936 6.82056 10.7581C8.30032 8.82261 10.3537 7.40403 12.6876 6.70486C12.9484 6.03886 13.404 5.46699 13.9948 5.06389C14.5856 4.6608 15.2843 4.44522 15.9996 4.44531ZM4.60757 21.5919L4.4369 21.6959C3.93379 22.0089 3.65734 22.3031 3.57822 22.5359L3.56045 22.6026C3.55682 22.6241 3.55502 22.6458 3.55512 22.6676C3.55512 23.2604 4.5169 23.8969 6.13112 24.4381L6.35512 24.5111L6.87957 24.6684L7.43957 24.8196L7.91245 24.9341L8.40757 25.0436L8.92312 25.1466L9.45645 25.2444L10.0102 25.3341L10.5809 25.4178L11.3169 25.5111L12.0769 25.5929L12.7009 25.6479L13.3382 25.6933L13.6618 25.7129L13.988 25.7306L14.8147 25.7618L14.9836 25.7661L15.6591 25.7769H16.3408L17.0165 25.7661L17.3506 25.7573L18.0111 25.7306L18.3373 25.7129L18.6608 25.6933L19.2983 25.6479L20.076 25.5769L20.8316 25.4941L21.4183 25.4178L21.9888 25.3341L22.5418 25.2436L23.0768 25.1466L23.5925 25.0436L24.0866 24.9341L24.6751 24.7893L25.228 24.6381L25.644 24.5111C27.3925 23.9546 28.444 23.2879 28.444 22.6676L28.4386 22.6036C28.3968 22.3698 28.1356 22.0639 27.6263 21.7369L27.4813 21.6461L27.3888 21.5938L27.0706 21.7716C24.6156 23.0738 20.9373 23.8836 16.9018 23.9893L16.452 23.9981L15.9996 24.0009C11.612 24.0009 7.56402 23.1706 4.92757 21.7698L4.65912 21.6231L4.60757 21.5929V21.5919ZM15.9996 6.22309C15.5511 6.22294 15.1191 6.39234 14.7902 6.69731C14.4613 7.00227 14.2599 7.42029 14.2262 7.86754L14.2218 8.00086V13.3342H12.444V8.66664C8.91779 10.0409 6.4369 13.3822 6.23512 17.2533L6.22534 17.5156L6.22179 17.7786L6.21912 20.4301C8.57557 21.5386 12.1329 22.2231 15.9996 22.2231C19.8663 22.2231 23.4226 21.5396 25.7791 20.4301L25.7773 17.7901L25.7746 17.5298C25.6733 13.4853 23.1205 10.0604 19.5551 8.66754V13.3342H17.7773V8.00086C17.7773 7.52938 17.59 7.07718 17.2567 6.74379C16.9232 6.41038 16.4711 6.22309 15.9996 6.22309Z" fill="#FAA51E"/>
<path d="M15.9992 6.22314C15.5507 6.223 15.1187 6.39239 14.7898 6.69737C14.4609 7.00233 14.2595 7.42034 14.2259 7.86759L14.2214 8.00092V13.3342H12.4436V8.6667C8.91742 10.0409 6.43653 13.3822 6.23475 17.2534L6.22497 17.5156L6.22142 17.7787L6.21875 20.4302C8.5752 21.5387 12.1325 22.2232 15.9992 22.2232C19.8659 22.2232 23.4222 21.5396 25.7787 20.4302L25.777 17.7902L25.7742 17.5299C25.673 13.4854 23.1202 10.0605 19.5547 8.66759V13.3342H17.777V8.00092C17.777 7.52942 17.5896 7.07724 17.2563 6.74385C16.9229 6.41044 16.4707 6.22314 15.9992 6.22314Z" fill="#FAA51E" fill-opacity="0.2"/>
</svg>
