<svg width="32" height="32" viewBox="0 0 32 32" fill="none" xmlns="http://www.w3.org/2000/svg">
<g clip-path="url(#clip0_1041_5259)">
<path d="M21.8564 26.1437C27.4586 22.9093 29.378 15.7458 26.1436 10.1437C22.9092 4.54152 15.7457 2.62208 10.1436 5.85648C4.54144 9.09089 2.622 16.2543 5.85641 21.8565C9.09081 27.4586 16.2543 29.3781 21.8564 26.1437Z" fill="#ECE5FF"/>
<path d="M12.9551 27.3101C15.8541 28.0906 19.0511 27.7634 21.8567 26.1436C24.6485 24.5317 26.5258 21.9441 27.3063 19.0601C23.4737 23.0586 18.5223 25.9762 12.9551 27.3101Z" fill="#835BFC"/>
<path d="M27.6788 16.9078C27.7703 15.7441 27.6887 14.5606 27.4233 13.3975C23.0119 19.6062 16.0174 23.8513 8.00684 24.5655C8.88101 25.3819 9.8656 26.0487 10.9202 26.5551C17.5756 25.3265 23.4377 21.8347 27.6788 16.9078Z" fill="#835BFC"/>
<path d="M6.49974 22.8522C14.9338 22.4663 22.3295 18.0989 26.8507 11.5856C26.6509 11.0961 26.4155 10.6143 26.1439 10.1436C25.9251 9.76478 25.6883 9.40279 25.4354 9.05811C21.2663 15.8105 13.7987 20.3104 5.28019 20.3104C5.22256 20.3104 5.16496 20.3103 5.10742 20.3098C5.31611 20.8354 5.56549 21.3522 5.85661 21.8565C6.05641 22.2026 6.27123 22.5346 6.49974 22.8522Z" fill="#835BFC"/>
<path d="M24.1866 7.61865C23.5856 7.0311 22.929 6.5166 22.2306 6.07886C19.2141 12.2158 12.9005 16.4395 5.60049 16.4395C5.16057 16.4395 4.72425 16.4243 4.29199 16.394C4.31898 17.2177 4.43332 18.0438 4.6387 18.8585C4.9575 18.8729 5.27814 18.8801 5.60049 18.8801C13.677 18.8801 20.6866 14.312 24.1866 7.61865Z" fill="#835BFC"/>
<path d="M4.37891 14.5348C5.14142 14.6566 5.9235 14.72 6.72035 14.72C13.0248 14.72 18.4035 10.7566 20.501 5.18567C19.6672 4.83942 18.796 4.59015 17.9061 4.44287C16.1384 8.88921 11.7965 12.0325 6.72035 12.0325C6.14425 12.0325 5.57759 11.992 5.0231 11.9137C4.70889 12.7592 4.49249 13.6391 4.37891 14.5348Z" fill="#835BFC"/>
<path d="M14.501 4.88987C14.897 5.56609 13.5302 7.1024 11.4483 8.32129C9.36639 9.54021 7.35772 9.98013 6.96181 9.3039C6.56589 8.62768 7.93266 7.09136 10.0146 5.87246C12.0965 4.65357 14.1051 4.21363 14.501 4.88987Z" fill="#835BFC"/>
</g>
<defs>
<clipPath id="clip0_1041_5259">
<rect width="32" height="32" fill="white"/>
</clipPath>
</defs>
</svg>
