<svg width="32" height="32" viewBox="0 0 32 32" fill="none" xmlns="http://www.w3.org/2000/svg">
<path d="M7.11848 28.4416C10.064 28.4416 12.4518 26.0537 12.4518 23.1082C12.4518 20.1627 10.064 17.7749 7.11848 17.7749C4.17297 17.7749 1.78516 20.1627 1.78516 23.1082C1.78516 26.0537 4.17297 28.4416 7.11848 28.4416Z" fill="#FFE0E6"/>
<path d="M25.7841 29.3303C27.7477 29.3303 29.3396 27.7385 29.3396 25.7748C29.3396 23.8111 27.7477 22.2192 25.7841 22.2192C23.8204 22.2192 22.2285 23.8111 22.2285 25.7748C22.2285 27.7385 23.8204 29.3303 25.7841 29.3303Z" fill="#FFE0E6"/>
<path d="M18.6737 19.5525C20.6374 19.5525 22.2293 17.9606 22.2293 15.997C22.2293 14.0333 20.6374 12.4414 18.6737 12.4414C16.71 12.4414 15.1182 14.0333 15.1182 15.997C15.1182 17.9606 16.71 19.5525 18.6737 19.5525Z" fill="#FFE0E6"/>
<path d="M11.5624 9.77492C13.5261 9.77492 15.1179 8.18305 15.1179 6.21937C15.1179 4.25569 13.5261 2.66382 11.5624 2.66382C9.59871 2.66382 8.00684 4.25569 8.00684 6.21937C8.00684 8.18305 9.59871 9.77492 11.5624 9.77492Z" fill="#FFE0E6"/>
<path d="M8.85954 1.91314C9.88619 1.19729 11.1418 0.887515 12.3836 1.0437C13.6254 1.19989 14.7652 1.81094 15.5827 2.75872C16.4001 3.7065 16.8371 4.9237 16.8092 6.17498C16.7812 7.42626 16.2903 8.62275 15.4315 9.53314L16.7075 11.3591C17.6174 10.9645 18.6231 10.8459 19.5999 11.018C20.5766 11.1901 21.4812 11.6453 22.2015 12.3271L23.6775 11.2931C23.2844 10.5925 23.1543 9.77446 23.3108 8.9864C23.4671 8.19835 23.8999 7.49206 24.5308 6.99472C25.1619 6.49738 25.9497 6.24168 26.7524 6.27368C27.5553 6.30568 28.3203 6.62326 28.9097 7.16925C29.4991 7.71523 29.8742 8.45373 29.9675 9.25173C30.0606 10.0497 29.8659 10.8548 29.4182 11.5219C28.9705 12.1891 28.2993 12.6744 27.5255 12.8906C26.7518 13.1068 25.9262 13.0396 25.1975 12.7011L23.3615 13.9851C24.1675 15.8451 23.7875 18.0052 22.3935 19.4772L23.6695 21.2991C24.819 20.8037 26.1113 20.7519 27.2967 21.1538C28.4822 21.5556 29.4766 22.3824 30.0878 23.4748C30.6991 24.5669 30.8838 25.8471 30.6063 27.0676C30.3289 28.288 29.6089 29.3624 28.5855 30.0831C27.5588 30.801 26.302 31.1124 25.059 30.9568C23.8158 30.8012 22.6745 30.1898 21.8564 29.2408C21.0383 28.292 20.6014 27.0733 20.6305 25.8208C20.6595 24.5682 21.1523 23.3711 22.0135 22.4612L20.7355 20.6372C18.8755 21.4452 16.7155 21.0631 15.2435 19.6692L13.4395 20.9351C14.142 22.385 14.2724 24.0463 13.8047 25.5879C13.3371 27.1296 12.3057 28.4384 10.9161 29.2536C9.52648 30.0688 7.88075 30.3306 6.30685 29.9866C4.73293 29.6426 3.34642 28.7183 2.4236 27.3976C1.50079 26.0772 1.10944 24.4573 1.32755 22.8612C1.54566 21.2648 2.3572 19.8095 3.60047 18.7848C4.84371 17.7602 6.42739 17.2416 8.03589 17.3325C9.64439 17.4234 11.1596 18.117 12.2795 19.2751L14.0835 18.0151C13.6885 17.105 13.5697 16.0988 13.7418 15.1217C13.9139 14.1446 14.3693 13.2395 15.0515 12.5191L13.7755 10.6971C12.6261 11.1925 11.3338 11.2443 10.1484 10.8425C8.96296 10.4407 7.96855 9.61376 7.35725 8.52152C6.74597 7.42926 6.56122 6.14922 6.83867 4.92867C7.11613 3.70814 7.83613 2.63378 8.85954 1.91314ZM23.9435 23.4532C23.6171 23.6816 23.3388 23.9722 23.1246 24.3082C22.9105 24.6442 22.7646 25.0192 22.6953 25.4116C22.626 25.804 22.6347 26.2063 22.7209 26.5954C22.8071 26.9844 22.9691 27.3527 23.1975 27.6791C23.426 28.0056 23.7166 28.2839 24.0526 28.498C24.3887 28.7122 24.7636 28.8581 25.1561 28.9274C25.5484 28.9967 25.9507 28.9879 26.3398 28.9018C26.7287 28.8156 27.0971 28.6536 27.4235 28.4252C28.0563 27.977 28.4934 27.3037 28.6452 26.5434C28.7971 25.7831 28.6521 24.9935 28.2401 24.3367C27.8279 23.6799 27.1801 23.2058 26.4294 23.0117C25.6788 22.8176 24.8823 22.9183 24.2035 23.2932L23.9435 23.4532ZM5.16154 20.1431C4.21946 20.7981 3.57187 21.7964 3.35786 22.9237C3.14384 24.0509 3.3805 25.2172 4.01698 26.1717C4.65346 27.1264 5.63898 27.7933 6.76183 28.0293C7.88467 28.2653 9.0553 28.0514 10.0222 27.4336C10.9891 26.816 11.6751 25.8437 11.9329 24.7256C12.1907 23.6076 11.9997 22.433 11.401 21.4543C10.8022 20.4756 9.84344 19.7706 8.73064 19.4911C7.61784 19.2116 6.43978 19.3796 5.44954 19.9591L5.16154 20.1431ZM16.9815 13.5131C16.6483 13.7387 16.3631 14.0284 16.1428 14.3652C15.9225 14.7021 15.7714 15.0794 15.6984 15.4752C15.6253 15.871 15.6318 16.2773 15.7173 16.6708C15.8029 17.064 15.9658 17.4364 16.1967 17.766C16.4275 18.0957 16.7217 18.3762 17.062 18.5911C17.4023 18.806 17.782 18.9511 18.179 19.0178C18.5758 19.0845 18.982 19.0717 19.374 18.9799C19.7659 18.888 20.1356 18.7192 20.4615 18.4831C21.0803 18.0298 21.5043 17.3589 21.6483 16.6056C21.7924 15.8522 21.6457 15.0722 21.2379 14.4226C20.8302 13.773 20.1915 13.302 19.4503 13.1043C18.7092 12.9066 17.9207 12.9969 17.2435 13.3571L16.9835 13.5151L16.9815 13.5131ZM10.0215 3.57114C9.37707 4.03032 8.93752 4.7231 8.79661 5.50178C8.6557 6.28043 8.82458 7.08333 9.26722 7.73925C9.70987 8.39517 10.3913 8.85219 11.1661 9.01286C11.9409 9.17354 12.7479 9.02512 13.4148 8.5993C14.0818 8.17347 14.556 7.50392 14.7363 6.73342C14.9166 5.96293 14.7888 5.15248 14.38 4.47491C13.9713 3.79734 13.314 3.30627 12.5484 3.10642C11.7827 2.90656 10.9693 3.01376 10.2815 3.40514L10.0215 3.57114Z" fill="#E54F6D"/>
</svg>
