<svg width="32" height="32" viewBox="0 0 32 32" fill="none" xmlns="http://www.w3.org/2000/svg">
<path d="M21.2936 24.2565L28.1598 19.6563V29.1201L21.2936 24.2565Z" fill="#ECE5FF"/>
<path d="M12.7101 10.2613C12.7101 12.5705 10.7885 14.4425 8.41822 14.4425C6.04791 14.4425 4.12639 12.5705 4.12639 10.2613C4.12639 7.95206 6.04791 6.08008 8.41822 6.08008C10.7885 6.08008 12.7101 7.95206 12.7101 10.2613Z" fill="#ECE5FF"/>
<path d="M3.97125 19.6563L22.4378 19.883V29.1201H3.83984L3.97125 19.6563Z" fill="#ECE5FF"/>
<path d="M8.79821 15.9998C11.8875 15.9998 14.4002 13.4872 14.4002 10.3988C14.4002 7.31145 11.8876 4.7998 8.79821 4.7998C5.71185 4.7998 3.2002 7.31145 3.2002 10.3988C3.2002 13.4872 5.71185 15.9998 8.79821 15.9998ZM8.79821 6.83617C10.764 6.83617 12.3638 8.434 12.3638 10.3988C12.3638 12.3645 10.764 13.9634 8.79821 13.9634C6.83444 13.9634 5.23656 12.3646 5.23656 10.3988C5.23656 8.43405 6.83444 6.83617 8.79821 6.83617Z" fill="#835BFC"/>
<path d="M28.3048 17.2455C27.9983 17.0649 27.627 17.08 27.3354 17.2868L23.1113 20.2759V19.3882C23.1113 18.2492 22.2604 17.3221 21.215 17.3221H5.09649C4.05111 17.3221 3.2002 18.2492 3.2002 19.3882V27.6523C3.2002 28.7913 4.05111 29.7184 5.09649 29.7184H21.215C22.2604 29.7184 23.1113 28.7913 23.1113 27.6523V26.7645L27.3354 29.7536C27.4919 29.8646 27.6715 29.9201 27.852 29.9201C28.0076 29.9201 28.1631 29.8787 28.3048 29.795C28.6104 29.6144 28.8002 29.2654 28.8002 28.8871V18.1534C28.8002 17.7751 28.6104 17.426 28.3048 17.2455ZM5.09649 27.6523V19.3882H21.215L21.2168 27.6523H5.09649ZM26.9039 26.9845L23.1113 24.3011V22.7394L26.9039 20.056V26.9845Z" fill="#835BFC"/>
<path fill-rule="evenodd" clip-rule="evenodd" d="M21.6923 1.73599C23.0642 1.46311 24.4861 1.60316 25.7783 2.13842C27.0706 2.67369 28.1751 3.58012 28.9522 4.74311C29.7292 5.90609 30.144 7.27339 30.144 8.6721C30.144 9.19788 29.7178 9.6241 29.192 9.6241C28.6662 9.6241 28.24 9.19788 28.24 8.6721C28.24 7.64997 27.9369 6.65079 27.369 5.80091C26.8012 4.95104 25.994 4.28865 25.0497 3.89749C24.1054 3.50634 23.0663 3.40399 22.0638 3.6034C21.0613 3.80281 20.1404 4.29502 19.4177 5.01777C18.6949 5.74053 18.2027 6.66138 18.0033 7.66387C17.8039 8.66637 17.9062 9.70548 18.2974 10.6498C18.6885 11.5941 19.3509 12.4013 20.2008 12.9691C21.0507 13.537 22.0499 13.8401 23.072 13.8401C23.5978 13.8401 24.024 14.2663 24.024 14.7921C24.024 15.3179 23.5978 15.7441 23.072 15.7441C21.6733 15.7441 20.306 15.3293 19.143 14.5523C17.98 13.7752 17.0736 12.6707 16.5383 11.3784C16.0031 10.0862 15.863 8.66426 16.1359 7.29242C16.4088 5.92059 17.0823 4.66048 18.0713 3.67144C19.0604 2.6824 20.3205 2.00886 21.6923 1.73599Z" fill="#835BFC"/>
<path fill-rule="evenodd" clip-rule="evenodd" d="M29.2598 9.21397C28.814 9.2796 28.3993 8.97136 28.3337 8.5255C28.3168 8.41041 28.2947 8.29545 28.2675 8.18082C28.1632 7.74237 28.4342 7.30245 28.8726 7.19822C29.3111 7.094 29.751 7.36494 29.8552 7.80338C29.8934 7.96407 29.9244 8.12567 29.9483 8.28785C30.0139 8.73371 29.7057 9.14835 29.2598 9.21397ZM29.1468 10.1354C29.5658 10.3015 29.7707 10.7757 29.6046 11.1947C29.5448 11.3456 29.4784 11.4946 29.4057 11.6416C29.3283 11.7979 29.2441 11.9509 29.1535 12.1004C28.9198 12.4857 28.418 12.6086 28.0326 12.3749C27.6473 12.1412 27.5244 11.6394 27.7581 11.2541C27.8249 11.1439 27.8866 11.0316 27.9431 10.9176C27.9962 10.8104 28.0443 10.7021 28.0875 10.5931C28.2536 10.1742 28.7279 9.96924 29.1468 10.1354ZM27.2431 13.1548C27.4884 13.5328 27.3807 14.0382 27.0027 14.2834C26.8616 14.375 26.7167 14.4623 26.5681 14.5454C26.4087 14.6345 26.2459 14.7182 26.0803 14.7964C25.6727 14.9887 25.1864 14.8142 24.9941 14.4066C24.8018 13.9991 24.9763 13.5128 25.3838 13.3204C25.516 13.2581 25.6454 13.1915 25.7717 13.1209C25.8893 13.0551 26.0036 12.9862 26.1145 12.9143C26.4925 12.669 26.9979 12.7767 27.2431 13.1548ZM23.6987 14.7277C23.726 15.1776 23.3835 15.5644 22.9336 15.5917C22.7538 15.6026 22.5731 15.6081 22.392 15.6081C21.9413 15.6081 21.576 15.2428 21.576 14.7921C21.576 14.3414 21.9413 13.9761 22.392 13.9761C22.5401 13.9761 22.6878 13.9716 22.8347 13.9627C23.2846 13.9354 23.6714 14.2779 23.6987 14.7277Z" fill="#835BFC"/>
<path d="M22.3917 6.22417C22.3917 5.6984 22.818 5.27217 23.3437 5.27217C23.8695 5.27217 24.2957 5.6984 24.2957 6.22417V8.40017C24.2957 8.92595 23.8695 9.35217 23.3437 9.35217C22.818 9.35217 22.3917 8.92595 22.3917 8.40017V6.22417Z" fill="#835BFC"/>
<path d="M24.9007 10.9513C25.3224 11.2654 25.9188 11.1782 26.2329 10.7565C26.547 10.3348 26.4598 9.73842 26.0381 9.42435L23.9157 7.63921C23.4941 7.32515 22.8976 7.41237 22.5836 7.83404C22.2695 8.2557 22.3567 8.85213 22.7784 9.1662L24.9007 10.9513Z" fill="#835BFC"/>
</svg>
