<svg width="32" height="32" viewBox="0 0 32 32" fill="none" xmlns="http://www.w3.org/2000/svg">
<rect x="19.8701" y="17.4883" width="6.69767" height="6.69767" fill="#ECE5FF"/>
<rect x="7.21875" y="3.34863" width="7.44186" height="25.3023" fill="#ECE5FF"/>
<path d="M2.75293 7.81396H23.9622L27.772 12.2791H2.75293V7.81396Z" fill="#ECE5FF"/>
<path d="M15.9999 1.86035V6.57353H25.1782L29.7673 11.2867V13.6433H24.8913V15.9999H28.62V25.4262H19.4417V15.9999H23.1704V13.6433H15.9999V30.1394H7.96886V13.6433H2.23242V6.57353H7.96886V1.86035H15.9999ZM9.68979 23.4361V28.372H14.2789V28.1493L9.68979 23.4361V23.4361ZM9.68979 16.3604V20.9369L14.2789 25.6489V21.0736L9.68979 16.3604V16.3604ZM26.8991 17.7673H21.1627V23.6588H26.8991V17.7673ZM14.2789 13.6433H9.68979V13.8601L14.2789 18.5733V13.6433V13.6433ZM24.4657 8.34097H3.95335V11.8759H27.9076L24.4657 8.34097V8.34097ZM14.2789 3.62779H9.68979V6.57353H14.2789V3.62779V3.62779Z" fill="#835BFC"/>
</svg>
