<svg width="32" height="32" viewBox="0 0 32 32" fill="none" xmlns="http://www.w3.org/2000/svg">
<rect x="4.38867" y="1.10547" width="23.4667" height="27.7333" rx="2" fill="#FFECDB"/>
<path d="M23.5 17.3945V19.3945H26.5L28.5 22.3945V27.3945H26.46C26.5328 27.8247 26.5108 28.2656 26.3957 28.6864C26.2805 29.1073 26.075 29.4979 25.7934 29.8312C25.5117 30.1644 25.1608 30.4322 24.7651 30.6159C24.3693 30.7996 23.9383 30.8948 23.502 30.8948C23.0657 30.8948 22.6347 30.7996 22.2389 30.6159C21.8432 30.4322 21.4923 30.1644 21.2106 29.8312C20.929 29.4979 20.7235 29.1073 20.6083 28.6864C20.4932 28.2656 20.4713 27.8247 20.544 27.3945H18.456C18.5288 27.8247 18.5068 28.2656 18.3917 28.6864C18.2765 29.1073 18.071 29.4979 17.7894 29.8312C17.5078 30.1644 17.1568 30.4322 16.7611 30.6159C16.3653 30.7996 15.9343 30.8948 15.498 30.8948C15.0617 30.8948 14.6307 30.7996 14.2349 30.6159C13.8392 30.4322 13.4883 30.1644 13.2066 29.8312C12.925 29.4979 12.7195 29.1073 12.6043 28.6864C12.4892 28.2656 12.4672 27.8247 12.54 27.3945H10.5V17.3945H23.5ZM25.9 2.39453C26.4601 2.39453 26.7401 2.39453 26.954 2.50352C27.1422 2.5994 27.2951 2.75238 27.391 2.94054C27.5 3.15445 27.5 3.43448 27.5 3.99453V16.3945H25.5V4.39453H5.5V28.3945H9.5V30.3945H5.1C4.53995 30.3945 4.25992 30.3945 4.04601 30.2855C3.85785 30.1897 3.70487 30.0367 3.60899 29.8485C3.5 29.6346 3.5 29.3546 3.5 28.7945V3.99453C3.5 3.43448 3.5 3.15445 3.60899 2.94054C3.70487 2.75238 3.85785 2.5994 4.04601 2.50352C4.25992 2.39453 4.53995 2.39453 5.1 2.39453H25.9ZM24.366 27.3945H22.634C22.5462 27.5465 22.5 27.719 22.5 27.8945C22.5 28.0701 22.5462 28.2425 22.634 28.3946C22.7217 28.5466 22.848 28.6728 23 28.7606C23.152 28.8484 23.3245 28.8946 23.5 28.8946C23.6755 28.8946 23.848 28.8484 24 28.7606C24.152 28.6728 24.2783 28.5466 24.366 28.3946C24.4538 28.2425 24.5 28.0701 24.5 27.8945C24.5 27.719 24.4538 27.5465 24.366 27.3945ZM16.366 27.3945H14.634C14.5462 27.5465 14.5 27.719 14.5 27.8945C14.5 28.0701 14.5462 28.2425 14.634 28.3946C14.7217 28.5466 14.848 28.6728 15 28.7606C15.152 28.8484 15.3245 28.8946 15.5 28.8946C15.6755 28.8946 15.848 28.8484 16 28.7606C16.152 28.6728 16.2783 28.5466 16.366 28.3946C16.4538 28.2425 16.5 28.0701 16.5 27.8945C16.5 27.719 16.4538 27.5465 16.366 27.3945ZM21.5 19.3945H12.5V25.3945H21.5V19.3945ZM25.428 21.3945H23.5V25.3945H26.5V23.0025L25.428 21.3945ZM13.5 12.3945C14.0523 12.3945 14.5 12.8422 14.5 13.3945C14.5 13.9468 14.0523 14.3945 13.5 14.3945H9.5C8.94772 14.3945 8.5 13.9468 8.5 13.3945C8.5 12.8422 8.94772 12.3945 9.5 12.3945H13.5ZM19.5 7.39453C20.0523 7.39453 20.5 7.84225 20.5 8.39453C20.5 8.94682 20.0523 9.39453 19.5 9.39453H9.5C8.94772 9.39453 8.5 8.94682 8.5 8.39453C8.5 7.84225 8.94772 7.39453 9.5 7.39453H19.5Z" fill="#FAA51E"/>
</svg>
