<svg width="32" height="32" viewBox="0 0 32 32" fill="none" xmlns="http://www.w3.org/2000/svg">
<path d="M7.92667 24.4753V14.8537C7.9219 13.7904 8.1272 12.7367 8.53077 11.7531C8.93435 10.7694 9.52825 9.87516 10.2784 9.12166C11.0285 8.36815 11.9201 7.77024 12.9019 7.36226C13.8838 6.95428 14.9365 6.74426 15.9998 6.74426C17.063 6.74426 18.1158 6.95428 19.0976 7.36226C20.0795 7.77024 20.971 8.36815 21.7212 9.12166C22.4713 9.87516 23.0652 10.7694 23.4688 11.7531C23.8724 12.7367 24.0777 13.7904 24.0729 14.8537V24.4761L7.92667 24.4753ZM14.9906 0.00469971H17.0089V4.40041H14.9906V0.00469971ZM1.16016 13.8435H5.5523V15.8632H1.16016V13.8435ZM26.4479 13.8435H30.8407V15.8632H26.4473L26.4479 13.8435ZM6.21725 3.63652L9.32384 6.75318L7.90035 8.1817L4.79474 5.06439L6.21725 3.63652ZM25.773 3.63766L27.2006 5.06943L24.1036 8.1778L22.6767 6.74554L25.773 3.63766ZM13.0492 17.2823C13.0347 17.3188 13.0302 17.3585 13.0362 17.3973C13.0422 17.4361 13.0585 17.4726 13.0834 17.503C13.1082 17.5334 13.1408 17.5565 13.1776 17.5701C13.2145 17.5837 13.2543 17.5871 13.2929 17.5801H15.0681C15.1141 17.5737 15.1609 17.5791 15.2041 17.5958C15.2473 17.6125 15.2856 17.64 15.3153 17.6756C15.345 17.7112 15.3652 17.7538 15.3739 17.7993C15.3825 17.8448 15.3795 17.8918 15.365 17.9359L14.7713 20.8464C14.6521 21.6184 14.8896 21.7376 15.305 21.084L18.9144 15.9228C19.0332 15.8037 18.9739 15.6851 18.7357 15.6255L16.4861 15.5661C16.3074 15.5661 16.2486 15.4475 16.3074 15.2692L17.548 12.2993C17.6665 12.1206 17.548 12.0026 17.3692 12.0026H15.4182C15.3193 12.0026 15.2223 12.0304 15.1383 12.0829C15.0543 12.1353 14.9868 12.2103 14.9434 12.2993L13.0492 17.2823Z" fill="url(#paint0_linear_1041_5096)"/>
<mask id="mask0_1041_5096" style="mask-type:alpha" maskUnits="userSpaceOnUse" x="1" y="0" width="30" height="31">
<path d="M4.00892 25.6633H27.7533V27.6828H4.00892V25.6633ZM2.04996 28.8703H29.8308V30.89H2.04996V28.8703ZM7.92667 24.4752V14.8536C7.9219 13.7904 8.1272 12.7367 8.53077 11.753C8.93435 10.7694 9.52825 9.8751 10.2784 9.1216C11.0285 8.36809 11.9201 7.77018 12.9019 7.3622C13.8838 6.95422 14.9365 6.7442 15.9998 6.7442C17.063 6.7442 18.1158 6.95422 19.0976 7.3622C20.0795 7.77018 20.971 8.36809 21.7212 9.1216C22.4713 9.8751 23.0652 10.7694 23.4688 11.753C23.8724 12.7367 24.0777 13.7904 24.0729 14.8536V24.476H7.92667V24.4752ZM14.9906 0.00463867H17.0089V4.40035H14.9906V0.00463867ZM1.16016 13.8434H5.5523V15.8631H1.16016V13.8434ZM26.4479 13.8434H30.8407V15.8631H26.4473V13.8434H26.4479ZM6.21725 3.63646L9.32384 6.75312L7.90035 8.18164L4.79474 5.06433L6.21725 3.63646ZM25.773 3.6376L27.2006 5.06937L24.1036 8.17774L22.6767 6.74548L25.774 3.6376H25.773ZM13.0492 17.2822C13.0347 17.3187 13.0302 17.3584 13.0362 17.3972C13.0422 17.436 13.0585 17.4725 13.0834 17.5029C13.1082 17.5333 13.1408 17.5565 13.1776 17.57C13.2145 17.5836 13.2543 17.587 13.2929 17.58H15.0681C15.1141 17.5736 15.1609 17.5791 15.2041 17.5958C15.2473 17.6125 15.2856 17.6399 15.3153 17.6755C15.345 17.7111 15.3652 17.7537 15.3739 17.7992C15.3825 17.8448 15.3795 17.8918 15.365 17.9358L14.7713 20.8463C14.6521 21.6183 14.8896 21.7376 15.305 21.084L18.9144 15.9228C19.0332 15.8037 18.9739 15.6851 18.7357 15.6255L16.4861 15.566C16.3074 15.566 16.2486 15.4474 16.3074 15.2692L17.548 12.2992C17.6665 12.1205 17.548 12.0026 17.3692 12.0026H15.4182C15.3193 12.0026 15.2223 12.0304 15.1383 12.0828C15.0543 12.1353 14.9868 12.2103 14.9434 12.2992L13.0492 17.2829V17.2822Z" fill="url(#paint1_linear_1041_5096)"/>
</mask>
<g mask="url(#mask0_1041_5096)">
<ellipse cx="26.7704" cy="9.81503" rx="9.5401" ry="7.90732" transform="rotate(180 26.7704 9.81503)" fill="url(#paint2_linear_1041_5096)"/>
</g>
<path d="M4.00876 25.6633H27.7531V27.6829H4.00876V25.6633ZM2.0498 28.8703H29.8307V30.89H2.0498V28.8703Z" fill="url(#paint3_linear_1041_5096)"/>
<defs>
<linearGradient id="paint0_linear_1041_5096" x1="14.3443" y1="24.4761" x2="20.8769" y2="-7.88197" gradientUnits="userSpaceOnUse">
<stop offset="0.204736" stop-color="#FC944F"/>
<stop offset="1" stop-color="#FEC9A5"/>
</linearGradient>
<linearGradient id="paint1_linear_1041_5096" x1="14.3443" y1="30.89" x2="24.5139" y2="-9.02243" gradientUnits="userSpaceOnUse">
<stop offset="0.204736" stop-color="#FC944F"/>
<stop offset="1" stop-color="#FEC9A5"/>
</linearGradient>
<linearGradient id="paint2_linear_1041_5096" x1="32.6252" y1="2.47576" x2="16.2676" y2="14.9091" gradientUnits="userSpaceOnUse">
<stop stop-color="#FDBD91"/>
<stop offset="0.654614" stop-color="#FC9450"/>
</linearGradient>
<linearGradient id="paint3_linear_1041_5096" x1="14.3901" y1="30.89" x2="14.7208" y2="23.7124" gradientUnits="userSpaceOnUse">
<stop offset="0.204736" stop-color="#FC944F"/>
<stop offset="1" stop-color="#FEC9A5"/>
</linearGradient>
</defs>
</svg>
