<svg width="26" height="26" viewBox="0 0 26 26" fill="none" xmlns="http://www.w3.org/2000/svg">
<g clip-path="url(#clip0_5497_63)">
<path d="M20.3909 2.38237C20.7939 2.6169 20.9317 3.13449 20.6995 3.53734L19.1563 6.2195L17.6973 5.37557L19.2405 2.69341C19.4701 2.29058 19.9853 2.15292 20.3858 2.38237H20.3909ZM13.1748 0.39624C13.6798 0.39624 14.088 0.776135 14.088 1.24782V4.2869H12.2616V1.24528C12.2616 0.77616 12.6697 0.39624 13.1748 0.39624ZM5.96374 2.38237C6.36423 2.15035 6.87945 2.28802 7.1116 2.68833C7.1116 2.68833 7.1116 2.69087 7.11414 2.69087L8.65738 5.37303L7.19831 6.21694L5.65507 3.53478C5.423 3.13193 5.56074 2.6169 5.96374 2.38237ZM0.683583 7.68297C0.91314 7.2801 1.42839 7.13986 1.83144 7.37188C1.83144 7.37188 1.83398 7.37188 1.83398 7.37445L4.50718 8.92459L3.66543 10.3881L0.992206 8.83532C0.589206 8.60333 0.451436 8.08579 0.683583 7.68297ZM25.671 7.68297C25.9032 8.08576 25.7654 8.60335 25.3624 8.83789L22.6891 10.3855L21.8474 8.92206L24.5206 7.37188C24.9211 7.13989 25.4363 7.27756 25.6684 7.67784C25.6684 7.68038 25.671 7.68043 25.671 7.68297Z" fill="url(#paint0_linear_5497_63)"/>
<path d="M4.47405 23.3693V15.3393C4.47405 10.5359 8.36907 6.64014 13.1773 6.64014C17.9855 6.64014 21.8806 10.5359 21.8806 15.3393V23.3693H24.8516C25.4686 23.3693 25.9688 23.8695 25.9688 24.4865C25.9688 25.1035 25.4686 25.6037 24.8516 25.6037H1.14841C0.531389 25.6037 0.0312195 25.1035 0.0312195 24.4865C0.0312195 23.8695 0.531389 23.3693 1.14841 23.3693H4.47405Z" fill="url(#paint1_linear_5497_63)"/>
<path d="M19.8867 14.0391C20.5496 14.0391 21.1939 14.1193 21.8115 14.2666C21.8548 14.6181 21.8808 14.9757 21.8809 15.3389V23.3691H24.8516C25.4685 23.3691 25.9686 23.8694 25.9688 24.4863C25.9688 25.1033 25.4686 25.6035 24.8516 25.6035H12.3545C11.8974 24.5817 11.6406 23.4508 11.6406 22.2598C11.6408 17.7197 15.3326 14.0392 19.8867 14.0391Z" fill="url(#paint2_linear_5497_63)"/>
<path d="M10.4454 21.0523H8.81171V12.9341H10.4454V21.0523ZM12.8094 13.057L14.7826 18.9182L16.7567 13.057L16.7982 12.9341H18.5646L18.4788 13.1754L15.7197 20.9321L15.6773 21.0523H13.8897L13.8464 20.9321L11.0873 13.1754L11.0015 12.9341H12.7678L12.8094 13.057ZM14.7994 19.4372L16.9291 13.1153L18.3082 13.1144H16.9291L14.7994 19.4372Z" fill="white"/>
</g>
<defs>
<linearGradient id="paint0_linear_5497_63" x1="11.3586" y1="9.89763" x2="11.9821" y2="1.01863" gradientUnits="userSpaceOnUse">
<stop stop-color="#2573FD"/>
<stop offset="1" stop-color="#A1C3FF"/>
</linearGradient>
<linearGradient id="paint1_linear_5497_63" x1="11.129" y1="24.6729" x2="13.2868" y2="8.01783" gradientUnits="userSpaceOnUse">
<stop stop-color="#2573FD"/>
<stop offset="1" stop-color="#A1C3FF"/>
</linearGradient>
<linearGradient id="paint2_linear_5497_63" x1="24.1153" y1="26.6493" x2="15.4994" y2="17.9157" gradientUnits="userSpaceOnUse">
<stop offset="0.440974" stop-color="#6CA1FD" stop-opacity="0.2"/>
<stop offset="1" stop-color="#6CB3FF"/>
</linearGradient>
<clipPath id="clip0_5497_63">
<rect width="26" height="26" fill="white"/>
</clipPath>
</defs>
</svg>
