<svg width="26" height="26" viewBox="0 0 26 26" fill="none" xmlns="http://www.w3.org/2000/svg">
<g clip-path="url(#clip0_5497_62)">
<path d="M20.3909 2.38237C20.7939 2.6169 20.9317 3.13449 20.6995 3.53734L19.1563 6.2195L17.6973 5.37557L19.2405 2.69341C19.4701 2.29058 19.9853 2.15292 20.3858 2.38237H20.3909ZM13.1748 0.39624C13.6798 0.39624 14.088 0.776135 14.088 1.24782V4.2869H12.2616V1.24528C12.2616 0.77616 12.6697 0.39624 13.1748 0.39624ZM5.96374 2.38237C6.36423 2.15035 6.87945 2.28802 7.1116 2.68833C7.1116 2.68833 7.1116 2.69087 7.11414 2.69087L8.65738 5.37303L7.19831 6.21694L5.65507 3.53478C5.423 3.13193 5.56074 2.6169 5.96374 2.38237ZM0.683583 7.68297C0.91314 7.2801 1.42839 7.13986 1.83144 7.37188C1.83144 7.37188 1.83398 7.37188 1.83398 7.37445L4.50718 8.92459L3.66543 10.3881L0.992206 8.83532C0.589206 8.60333 0.451436 8.08579 0.683583 7.68297ZM25.671 7.68297C25.9032 8.08576 25.7654 8.60335 25.3624 8.83789L22.6891 10.3855L21.8474 8.92206L24.5206 7.37188C24.9211 7.13989 25.4363 7.27756 25.6684 7.67784C25.6684 7.68038 25.671 7.68043 25.671 7.68297Z" fill="url(#paint0_linear_5497_62)"/>
<path d="M4.47405 23.3693V15.3393C4.47405 10.5359 8.36907 6.64014 13.1773 6.64014C17.9855 6.64014 21.8806 10.5359 21.8806 15.3393V23.3693H24.8516C25.4686 23.3693 25.9688 23.8695 25.9688 24.4865C25.9688 25.1035 25.4686 25.6037 24.8516 25.6037H1.14841C0.531389 25.6037 0.0312195 25.1035 0.0312195 24.4865C0.0312195 23.8695 0.531389 23.3693 1.14841 23.3693H4.47405Z" fill="url(#paint1_linear_5497_62)"/>
<path d="M13.8447 6.66797C18.0879 6.98959 21.4767 10.3491 21.8447 14.5752C21.0186 15.0144 20.0758 15.2646 19.0742 15.2646C15.8174 15.2645 13.1777 12.6325 13.1777 9.38574C13.1777 8.40511 13.4188 7.48087 13.8447 6.66797Z" fill="url(#paint2_linear_5497_62)"/>
<path d="M13.8169 21.07H12.1831V12.9518H13.8169V21.07Z" fill="white"/>
</g>
<defs>
<linearGradient id="paint0_linear_5497_62" x1="14.6473" y1="10.4043" x2="15.4437" y2="-4.32555" gradientUnits="userSpaceOnUse">
<stop stop-color="#FE6C6C"/>
<stop offset="1" stop-color="#FFC7C7"/>
</linearGradient>
<linearGradient id="paint1_linear_5497_62" x1="14.5123" y1="25.6345" x2="17.2814" y2="-2.12688" gradientUnits="userSpaceOnUse">
<stop stop-color="#FE6C6C"/>
<stop offset="1" stop-color="#FFC7C7"/>
</linearGradient>
<linearGradient id="paint2_linear_5497_62" x1="21.043" y1="10.5201" x2="14.9116" y2="12.039" gradientUnits="userSpaceOnUse">
<stop stop-color="#FBA9A9"/>
<stop offset="1" stop-color="#FF7272"/>
</linearGradient>
<clipPath id="clip0_5497_62">
<rect width="26" height="26" fill="white"/>
</clipPath>
</defs>
</svg>
