<svg width="16" height="16" viewBox="0 0 16 16" fill="none" xmlns="http://www.w3.org/2000/svg">
<rect width="16" height="16" rx="4" fill="url(#paint0_linear_5297_335)"/>
<path d="M5.67581 3.2V4.9376H6.41878V5.7314H5.67581V12.7781H4.3491V5.7314H3.5V4.9376H4.3491V3.2H5.67581ZM8.03936 3.2H9.36607V4.8612H10.2152L10.6928 4.332L12.2848 4.7289L11.8603 5.3022C11.8603 6.0372 11.8603 5.98691 11.8603 6.75131C12.8863 7.45691 13.3639 8.20661 13.2932 9.00042C13.2578 9.38262 13.0455 9.60312 12.6563 9.66192C12.2672 9.69132 12.0726 9.51492 12.0726 9.13272C12.0726 8.30951 12.0018 7.72151 11.8603 7.36871C11.8603 7.48631 11.8603 7.64801 11.8603 7.85381C11.7895 10 11.7718 10.9112 11.8072 11.5874C11.9487 12.293 11.3473 12.6899 10.0029 12.7781C9.71986 12.8369 9.57835 12.7928 9.57835 12.6458C9.50759 12.1166 9.17149 11.8226 8.57004 11.7638V11.5874C9.84369 11.6756 10.4098 11.5727 10.2682 11.2787C10.2682 10.5731 10.2859 9.63252 10.3213 7.45691C10.3567 6.36911 10.3744 6.30181 10.3744 5.655H9.36607V6.83951C9.47221 9.83832 8.62311 11.4551 6.81878 12.6899L6.76571 12.6458C7.65019 11.0876 8.07473 9.50022 8.03936 6.88361V5.655H7.13719V4.8612H8.03936V3.2ZM7.08412 6.48671H7.19026C7.61481 7.33931 7.75632 8.07431 7.61481 8.69172C7.50867 9.25032 7.24333 9.54432 6.81878 9.57372C6.32347 9.51492 6.12888 9.23562 6.23502 8.73582C6.2704 8.61821 6.34116 8.45651 6.4473 8.25071C6.73033 7.75091 6.9426 7.16291 7.08412 6.48671Z" fill="white"/>
<defs>
<linearGradient id="paint0_linear_5297_335" x1="1.89692" y1="15.8591" x2="9.73557" y2="-2.31467" gradientUnits="userSpaceOnUse">
<stop stop-color="#00BFE6"/>
<stop offset="1" stop-color="#4DA0FF"/>
</linearGradient>
</defs>
</svg>
