<svg width="16" height="16" viewBox="0 0 16 16" fill="none" xmlns="http://www.w3.org/2000/svg">
<path d="M0 4C0 1.79086 1.79086 0 4 0H12C14.2091 0 16 1.79086 16 4V12C16 14.2091 14.2091 16 12 16H4C1.79086 16 0 14.2091 0 12V4Z" fill="url(#paint0_linear_4649_169)"/>
<path d="M4.84571 3.2C6.60114 3.30622 7.13143 3.7444 6.43657 4.51452H8.35657V5.15186H3.36457V4.51452H5.44914C5.33943 4.46141 5.22971 4.28879 5.12 3.99668C5.04685 3.67801 4.91885 3.46556 4.736 3.35933L4.84571 3.2ZM6.49143 5.39087H7.808C7.552 6.24066 7.09485 6.89128 6.43657 7.34274H8.35657V8.05975H3.2V7.34274H6.05257C6.34514 6.59917 6.49143 5.94854 6.49143 5.39087ZM4.18743 5.39087C5.13828 5.76265 5.61371 6.18755 5.61371 6.66556C5.57714 6.98423 5.376 7.17012 5.01028 7.22323C4.64457 7.24979 4.44343 7.10373 4.40685 6.78506C4.40685 6.30705 4.27885 5.86888 4.02285 5.47054L4.18743 5.39087ZM6.82057 8.41825L8.30171 8.69709L7.91771 9.09543V12.4415H6.43657V12.083H5.28457V12.4415H3.74857V8.53776H5.28457V8.89626H6.38171L6.82057 8.41825ZM5.28457 9.57344V11.4855H6.43657V9.57344H5.28457ZM8.74057 3.35933H10.1669V3.75767H10.9349L11.3737 3.35933L12.8 3.63817L12.416 3.95684C12.0503 5.25809 11.648 6.30705 11.2091 7.10373C12.1234 7.4224 12.5989 7.90041 12.6354 8.53776V10.6888C12.7451 11.3793 12.2149 11.7378 11.0446 11.7643C10.752 11.8174 10.6057 11.751 10.6057 11.5651C10.6423 11.3792 10.5143 11.1934 10.2217 11.0075V12.8H8.74057V3.35933ZM10.9897 4.43485H10.2217V10.888C10.9897 10.9942 11.3189 10.9012 11.2091 10.6091V8.33859C11.2457 7.94025 11.0263 7.6083 10.5509 7.34274C10.5874 7.20996 10.624 6.97095 10.6606 6.62572C10.8434 5.74937 10.9531 5.01908 10.9897 4.43485Z" fill="white"/>
<defs>
<linearGradient id="paint0_linear_4649_169" x1="8" y1="16" x2="8" y2="0" gradientUnits="userSpaceOnUse">
<stop stop-color="#459CFF"/>
<stop offset="1" stop-color="#5ADFFA"/>
</linearGradient>
</defs>
</svg>
