<svg width="16" height="16" viewBox="0 0 16 16" fill="none" xmlns="http://www.w3.org/2000/svg">
<rect width="16" height="16" rx="4" fill="url(#paint0_linear_977_177)"/>
<path d="M7.59804 6.59999H9.35061V9.23728H11.4152V9.96949H9.35061V11.8678H12.62V12.6H3.41907V11.8678H4.78826V8.19999H6.26699V11.8678H7.59804V6.59999ZM6.5956 3.39999H8.622C8.622 3.39999 8.60375 3.44567 8.56724 3.53702C8.53073 3.59792 8.51247 3.64359 8.51247 3.67404C9.5348 4.73979 10.9223 5.57716 12.6748 6.18615C12.8209 6.2166 12.8391 6.2775 12.7296 6.36885C12.2549 6.61245 12.1271 7.02352 12.3462 7.60207C12.3827 7.72387 12.3827 7.78477 12.3462 7.78477C12.3097 7.81522 12.2367 7.79999 12.1271 7.73909C10.4841 7.1301 9.18794 5.94255 8.23863 4.17646C7.39886 5.63806 5.75583 6.81037 3.30954 7.69342L3.2 7.5564C4.77001 6.4602 5.90187 5.07473 6.5956 3.39999Z" fill="white" fill-opacity="0.95"/>
<defs>
<linearGradient id="paint0_linear_977_177" x1="8" y1="16" x2="8" y2="0" gradientUnits="userSpaceOnUse">
<stop stop-color="#A970FF"/>
<stop offset="1" stop-color="#8C9FFF"/>
</linearGradient>
</defs>
</svg>
