<svg width="16" height="16" viewBox="0 0 16 16" fill="none" xmlns="http://www.w3.org/2000/svg">
<rect width="16" height="16" rx="4" fill="url(#paint0_linear_2002_217)"/>
<path d="M10.2588 3.2L12.1788 3.49217L11.6141 3.9513C10.8235 4.81391 9.86353 5.48174 8.73411 5.95478H9.12941V7.16521H12.8V7.91652H9.12941V11.8817C9.31764 12.4383 8.62117 12.7443 7.04 12.8C6.88941 12.8 6.79529 12.7443 6.75764 12.633C6.75764 12.2156 6.3247 11.9513 5.45882 11.84V11.7565C6.9647 11.8122 7.64235 11.7148 7.49176 11.4643V7.91652H3.2V7.16521H7.49176V5.95478H7.77411C8.03764 5.70434 8.45176 5.25913 9.01647 4.61913C9.09176 4.53565 9.14823 4.48 9.18588 4.45217H3.99059V3.65913H9.75059L10.2588 3.2Z" fill="white" fill-opacity="0.95"/>
<defs>
<linearGradient id="paint0_linear_2002_217" x1="8" y1="16" x2="8" y2="0" gradientUnits="userSpaceOnUse">
<stop stop-color="#FF8B3E"/>
<stop offset="1" stop-color="#F0C000"/>
</linearGradient>
</defs>
</svg>
