<svg width="16" height="16" viewBox="0 0 16 16" fill="none" xmlns="http://www.w3.org/2000/svg">
<rect width="16" height="16" rx="4" fill="url(#paint0_linear_7268_461)"/>
<path d="M4.11381 5.91076L4.32071 5.82946C4.59657 6.12757 4.78623 6.34437 4.88968 6.47987H10.5793L10.9931 6.03271L12.5966 6.39857L12.2862 6.76442C11.9414 7.52323 11.4586 8.05168 10.838 8.34979L10.5793 8.22784C10.6483 7.98393 10.6828 7.63163 10.6828 7.17093H5.1483C5.21726 7.30643 5.21726 7.45548 5.1483 7.61808C5.04485 8.05168 4.80347 8.32269 4.42416 8.43109C3.90692 8.45819 3.63106 8.28204 3.59657 7.90263C3.59657 7.79423 3.66554 7.61808 3.80347 7.37418C4.04485 6.85927 4.1483 6.37147 4.11381 5.91076ZM5.61381 3.55304H7.11381V4.36605H9.33795V3.59369H10.838V4.36605H12.5448V5.0571H10.838V5.91076H9.33795V5.0571H7.11381V5.91076H5.61381V5.0571H3.70002V4.36605H5.61381V3.55304ZM11.9759 8.63434L11.5621 9.12215C11.5621 10.8837 11.5276 11.9812 11.4586 12.4148C11.4242 13.0381 10.7517 13.3904 9.4414 13.4717C9.09657 13.4988 8.9414 13.3633 8.97588 13.0652C8.9414 12.74 8.56209 12.5232 7.83795 12.4148V12.2522C9.49312 12.4148 10.2173 12.2251 10.0104 11.6831C10.0793 10.843 10.0966 10.1113 10.0621 9.488H7.68278C7.37244 11.0056 6.28623 12.3606 4.42416 13.553L4.26899 13.4311C5.20002 12.0761 5.78623 10.7617 6.02761 9.488H4.37243V8.79694H6.13106C6.13106 8.68854 6.16554 8.39044 6.2345 7.90263H7.88968C7.88968 8.22784 7.85519 8.52594 7.78623 8.79694H10.0621L10.4242 8.30914L11.9759 8.63434Z" fill="white"/>
<defs>
<linearGradient id="paint0_linear_7268_461" x1="8" y1="16" x2="8" y2="0" gradientUnits="userSpaceOnUse">
<stop stop-color="#FEA5E8"/>
<stop offset="1" stop-color="#EF4DB6"/>
</linearGradient>
</defs>
</svg>
