<svg width="16" height="16" viewBox="0 0 16 16" fill="none" xmlns="http://www.w3.org/2000/svg">
<rect width="16" height="16" rx="4" fill="url(#paint0_linear_977_179)"/>
<path d="M5.81059 3.2V4.8H7.2V5.6H5.81059V6.49206C6.57692 6.75648 7.01483 7.08701 7.1243 7.48364C7.1243 7.7745 7.01483 7.97282 6.79587 8.07859C6.50394 8.15792 6.28499 8.09181 6.13902 7.88027V7.68196C6.13902 7.39109 6.02954 7.12667 5.81059 6.88869V12.8H4.73266V8.87186C4.47722 9.50647 4.02107 10.1279 3.36421 10.736L3.2 10.6964C3.60141 9.85022 3.80212 8.38267 3.80212 6.29374H4.73266V5.6H3.2V4.8H4.73266V3.2H5.81059ZM12.3785 5.6V6.6H10.4468V11.8069C10.4468 12.405 10.2447 12.825 8.82152 12.7985C8.56608 12.7985 8.4566 12.7456 8.49309 12.6399C8.56608 12.2961 8.18291 12.0449 7.3436 11.8863V11.7673C8.76678 11.8466 9.20469 11.7673 9.20469 11.6483V6.6H7.54646V5.6H12.3785ZM10.7205 7.84061C12.1072 9.08339 12.7276 10.1543 12.5816 11.0533C12.5451 11.5822 12.3262 11.8995 11.9248 12.0053C11.4504 12.0317 11.1767 11.8069 11.1037 11.331V10.8947C11.1402 9.78411 10.9577 8.77931 10.5563 7.88027L10.7205 7.84061ZM9.04047 7.99926C8.8945 9.55935 8.12817 10.8154 6.74148 11.7673L6.632 11.7276C7.0699 10.9079 7.39833 9.66512 7.61728 7.99926H9.04047ZM11.8025 3.6V4.6H8.00246V3.6H11.8025Z" fill="white" fill-opacity="0.95"/>
<defs>
<linearGradient id="paint0_linear_977_179" x1="8" y1="16" x2="8" y2="0" gradientUnits="userSpaceOnUse">
<stop stop-color="#FF8B3E"/>
<stop offset="1" stop-color="#F0C000"/>
</linearGradient>
</defs>
</svg>
