<svg width="16" height="16" viewBox="0 0 16 16" fill="none" xmlns="http://www.w3.org/2000/svg">
<rect width="16" height="16" rx="4" fill="url(#paint0_linear_977_178)"/>
<path d="M6.97341 3.2H12.7445V3.89778H10.1364C9.87746 4.52716 9.41503 5.01972 8.74913 5.37545H10.8023L11.2462 4.84185L12.8 5.12917L12.4116 5.58068V10.5883H10.9133V6.03219H8.47168V10.5883H6.97341V4.92394H8.3052C8.41619 4.54084 8.47168 4.19879 8.47168 3.89778H6.97341V3.2ZM6.64046 3.69255V4.47243H5.80809V9.52112C6.06705 9.32957 6.32601 9.16539 6.58497 9.02857L6.69595 9.06961C6.03006 10.3831 5.04971 11.3819 3.75491 12.066C3.64393 11.7924 3.45896 11.3819 3.2 10.8346C3.38497 10.7799 3.69942 10.6431 4.14335 10.4241C4.25434 10.3968 4.32832 10.3694 4.36532 10.342V4.47243H3.36647V3.69255H6.64046ZM9.02659 6.77102H10.4694C10.3954 8.90543 10.2104 10.1779 9.91445 10.5883C11.2092 10.9441 11.9861 11.3819 12.2451 11.9018C12.3931 12.2302 12.3006 12.4901 11.9676 12.6817C11.5977 12.8732 11.3017 12.8322 11.0798 12.5585C11.0058 12.4765 10.9133 12.326 10.8023 12.107C10.5434 11.6692 10.2104 11.2451 9.80347 10.8346C9.21156 11.6282 8.02775 12.2712 6.25202 12.7638L6.19653 12.6817C7.45434 11.9976 8.23121 11.3272 8.52717 10.6704C8.86012 10.0684 9.02659 8.76861 9.02659 6.77102Z" fill="white" fill-opacity="0.95"/>
<defs>
<linearGradient id="paint0_linear_977_178" x1="8" y1="16" x2="8" y2="0" gradientUnits="userSpaceOnUse">
<stop stop-color="#00C2D7"/>
<stop offset="1" stop-color="#4FE1A4"/>
</linearGradient>
</defs>
</svg>
