<svg width="16" height="16" viewBox="0 0 16 16" fill="none" xmlns="http://www.w3.org/2000/svg">
<rect width="16" height="16" rx="4" fill="url(#paint0_linear_982_165)"/>
<path d="M7.51563 3.2H8.71563V4.6H11.7156V5.6H8.71563V10H10.1156V11H8.71563V12.8H7.51563V11H5.91563V10H7.51563V5.6H4.51563V4.6H7.51563V3.2ZM9.09767 5.93138H9.50871C9.98826 7.56485 10.896 8.82343 12.2319 9.70711C12.2319 9.70711 12.249 9.7205 12.2832 9.74728C12.4545 9.82761 12.4374 9.92134 12.2319 10.0284C11.8893 10.2427 11.8037 10.5908 11.975 11.0728C12.0777 11.2602 12.112 11.3674 12.0777 11.3941C12.0435 11.4209 11.9236 11.3808 11.7181 11.2736C10.1424 10.3632 9.26894 8.58242 9.09767 5.93138ZM5.60383 6.17238H7.14523C6.63143 8.63598 5.48394 10.4435 3.70277 11.595L3.60001 11.5146C4.59335 10.0954 5.26129 8.31464 5.60383 6.17238Z" fill="white" fill-opacity="0.95"/>
<defs>
<linearGradient id="paint0_linear_982_165" x1="8" y1="16" x2="8" y2="0" gradientUnits="userSpaceOnUse">
<stop stop-color="#459CFF"/>
<stop offset="1" stop-color="#5ADFFA"/>
</linearGradient>
</defs>
</svg>
